<svg width="1502" height="734" viewBox="0 0 1502 734" fill="none" xmlns="http://www.w3.org/2000/svg">
<mask id="path-1-inside-1_1648_1196" fill="white">
<path fill-rule="evenodd" clip-rule="evenodd" d="M353.483 645.87C355.161 646.517 374.531 653.929 403.443 660.729C413.339 663.056 424.356 665.31 436.152 667.202C463.825 671.627 490.115 673.098 514.289 671.566C544.946 669.625 572.319 662.823 595.65 651.351C638.615 630.223 668.046 593.478 683.139 542.138C684.607 537.771 697.8 495.668 681.49 442.076C671.658 409.758 653.102 379.926 626.35 353.397C593.462 320.783 547.997 293.131 491.214 271.208C283.623 191.048 192.34 143.863 154.419 97.1052C147.587 88.6769 136.852 85.3084 126.403 88.3157C116.03 91.302 108.475 100.157 107.176 110.872C103.928 137.595 105.147 161.883 110.804 183.062C112.543 189.563 114.689 195.73 117.237 201.555L117.095 201.735C118.191 204.047 119.34 206.295 120.541 208.481C126.44 219.86 134.026 229.789 143.26 238.212C128.441 243.735 117.58 255.005 112.359 270.828C105.414 291.885 106.309 315.013 114.882 335.962C123.206 356.314 138.324 373.72 158.89 386.755C154.424 398.484 149.589 419.207 157.047 444.015C164.934 470.257 184.209 494.098 214.563 515.25C223.536 522.02 232.625 527.499 241.723 531.874C246.856 534.652 252.209 537.376 257.78 540.043C257.242 547.932 257.915 559.948 263.78 573.893C269.458 587.392 278.893 599.931 291.834 611.165C307.378 624.661 328.121 636.335 353.483 645.87ZM279.746 544.271C279.72 549.699 280.664 557.592 284.77 566.719C295.293 590.112 321.763 610.331 361.313 625.189L361.444 625.24C361.777 625.37 395.466 638.35 440.145 645.45C480.657 651.883 538.835 654.681 585.96 631.482C623.161 613.167 648.745 580.942 661.989 535.697L662.157 535.178C662.317 534.716 675.195 496.024 659.964 447.307C639.669 382.4 578.561 328.644 483.252 291.845C376.549 250.646 305.291 220.12 252.216 192.865C195.388 163.688 158.854 137.688 137.244 111.044C135.624 109.047 133.586 109.269 132.514 109.575C131.609 109.836 129.461 110.746 129.12 113.547C126.034 138.928 126.397 169.844 138.897 195.74C153.321 219.961 197.685 269.144 323.215 280.153C323.215 280.153 232.446 294.512 167.391 256.091C166.44 256.33 165.45 256.469 164.434 256.497C148.315 256.951 137.858 264.104 133.355 277.758C128.69 291.899 128.475 308.481 134.259 324.561L134.299 324.439C134.299 324.439 142.033 350.372 178.067 372.36C178.167 372.413 178.267 372.466 178.367 372.52L188.985 378.178L188.865 378.364C218.146 393.188 262.487 404.661 329.127 402.266C329.127 402.266 244.635 424.529 178.741 396.72C175.732 405.512 172.888 420.342 178.365 438.125C187.816 468.809 219.269 497.436 269.459 521.114C301.579 532.694 352.527 541.232 413.538 516.614C413.538 516.614 351.031 557.406 279.746 544.271Z"/>
</mask>
<path d="M353.483 645.87L354.563 643.071C354.555 643.068 354.547 643.065 354.539 643.061L353.483 645.87ZM436.152 667.202L435.677 670.164L435.678 670.164L436.152 667.202ZM514.289 671.566L514.1 668.572L514.099 668.572L514.289 671.566ZM595.65 651.351L596.974 654.043L596.974 654.043L595.65 651.351ZM683.139 542.138L680.295 541.182C680.283 541.218 680.272 541.255 680.261 541.292L683.139 542.138ZM681.49 442.076L678.62 442.949L678.62 442.95L681.49 442.076ZM626.35 353.397L628.463 351.266L628.463 351.266L626.35 353.397ZM491.214 271.208L490.134 274.007L490.134 274.007L491.214 271.208ZM154.419 97.1052L152.088 98.9942L152.089 98.9948L154.419 97.1052ZM126.403 88.3157L125.573 85.4327L125.573 85.4327L126.403 88.3157ZM107.176 110.872L110.154 111.234L110.154 111.233L107.176 110.872ZM110.804 183.062L107.906 183.836L107.906 183.837L110.804 183.062ZM117.237 201.555L119.591 203.415C120.278 202.545 120.43 201.368 119.986 200.352L117.237 201.555ZM117.095 201.735L114.742 199.874C114.035 200.769 113.896 201.988 114.384 203.019L117.095 201.735ZM120.541 208.481L123.205 207.101C123.193 207.079 123.182 207.058 123.171 207.037L120.541 208.481ZM143.26 238.212L144.307 241.023C145.287 240.658 146.006 239.809 146.205 238.782C146.404 237.756 146.054 236.7 145.281 235.995L143.26 238.212ZM112.359 270.828L109.51 269.888L109.51 269.888L112.359 270.828ZM114.882 335.962L117.659 334.826L117.659 334.826L114.882 335.962ZM158.89 386.755L161.694 387.822C162.201 386.49 161.7 384.984 160.496 384.221L158.89 386.755ZM157.047 444.015L159.92 443.151L159.92 443.151L157.047 444.015ZM214.563 515.25L216.37 512.855C216.34 512.832 216.309 512.81 216.279 512.789L214.563 515.25ZM241.723 531.874L243.151 529.236C243.109 529.213 243.066 529.191 243.023 529.17L241.723 531.874ZM257.78 540.043L260.773 540.247C260.857 539.021 260.184 537.868 259.076 537.337L257.78 540.043ZM263.78 573.893L261.015 575.056L261.015 575.056L263.78 573.893ZM291.834 611.165L293.801 608.9L293.801 608.9L291.834 611.165ZM279.746 544.271L280.29 541.321C279.416 541.16 278.516 541.394 277.832 541.961C277.148 542.528 276.751 543.368 276.746 544.257L279.746 544.271ZM284.77 566.719L282.034 567.949L282.034 567.949L284.77 566.719ZM361.313 625.189L362.388 622.389C362.381 622.386 362.375 622.383 362.368 622.381L361.313 625.189ZM361.444 625.24L362.537 622.446C362.531 622.443 362.525 622.441 362.519 622.439L361.444 625.24ZM440.145 645.45L439.674 648.413L439.674 648.413L440.145 645.45ZM585.96 631.482L587.285 634.174L587.285 634.174L585.96 631.482ZM661.989 535.697L659.134 534.775C659.126 534.801 659.118 534.827 659.11 534.854L661.989 535.697ZM662.157 535.178L659.323 534.193C659.316 534.214 659.309 534.235 659.302 534.256L662.157 535.178ZM659.964 447.307L662.827 446.412L662.827 446.412L659.964 447.307ZM483.252 291.845L482.171 294.643L482.171 294.643L483.252 291.845ZM252.216 192.865L253.587 190.196L253.587 190.196L252.216 192.865ZM137.244 111.044L139.574 109.155L139.574 109.154L137.244 111.044ZM132.514 109.575L131.69 106.69L131.683 106.692L132.514 109.575ZM129.12 113.547L126.142 113.185L126.142 113.185L129.12 113.547ZM138.897 195.74L136.195 197.045C136.233 197.123 136.275 197.2 136.319 197.275L138.897 195.74ZM323.215 280.153L323.684 283.116C325.18 282.88 326.266 281.564 326.213 280.049C326.16 278.535 324.987 277.297 323.477 277.165L323.215 280.153ZM167.391 256.091L168.916 253.507C168.236 253.105 167.424 252.988 166.657 253.182L167.391 256.091ZM164.434 256.497L164.351 253.498L164.35 253.498L164.434 256.497ZM133.355 277.758L136.204 278.698L136.204 278.698L133.355 277.758ZM134.259 324.561L131.436 325.577C131.87 326.783 133.023 327.581 134.305 327.561C135.587 327.541 136.715 326.709 137.112 325.489L134.259 324.561ZM134.299 324.439L137.173 323.582C136.798 322.323 135.648 321.456 134.336 321.439C133.023 321.423 131.852 322.262 131.446 323.511L134.299 324.439ZM178.067 372.36L176.505 374.92C176.552 374.949 176.6 374.977 176.649 375.003L178.067 372.36ZM178.367 372.52L176.955 375.167L176.956 375.167L178.367 372.52ZM188.985 378.178L191.503 379.808C191.96 379.103 192.1 378.239 191.889 377.426C191.679 376.613 191.137 375.925 190.396 375.53L188.985 378.178ZM188.865 378.364L186.346 376.734C185.884 377.448 185.746 378.325 185.968 379.146C186.19 379.968 186.75 380.656 187.509 381.041L188.865 378.364ZM329.127 402.266L329.892 405.167C331.37 404.778 332.319 403.34 332.095 401.828C331.872 400.316 330.547 399.213 329.02 399.268L329.127 402.266ZM178.741 396.72L179.907 393.956C179.141 393.632 178.275 393.642 177.515 393.982C176.756 394.322 176.172 394.961 175.903 395.749L178.741 396.72ZM178.365 438.125L175.498 439.008L175.498 439.008L178.365 438.125ZM269.459 521.114L268.179 523.827C268.265 523.868 268.352 523.904 268.442 523.936L269.459 521.114ZM413.538 516.614L415.178 519.126C416.471 518.282 416.912 516.595 416.198 515.226C415.484 513.857 413.847 513.254 412.415 513.832L413.538 516.614ZM404.13 657.809C375.392 651.049 356.158 643.686 354.563 643.071L352.402 648.668C354.164 649.348 373.671 656.808 402.756 663.649L404.13 657.809ZM436.627 664.239C424.909 662.36 413.964 660.121 404.13 657.809L402.756 663.649C412.714 665.991 423.802 668.259 435.677 670.164L436.627 664.239ZM514.099 668.572C490.179 670.088 464.113 668.635 436.625 664.239L435.678 670.164C463.536 674.619 490.052 676.108 514.479 674.56L514.099 668.572ZM594.327 648.658C571.408 659.928 544.432 666.652 514.1 668.572L514.479 674.56C545.459 672.599 573.23 665.718 596.974 654.043L594.327 648.658ZM680.261 541.292C665.374 591.931 636.444 627.948 594.327 648.658L596.974 654.043C640.785 632.499 670.718 595.024 686.017 542.984L680.261 541.292ZM678.62 442.95C694.676 495.704 681.663 537.115 680.295 541.182L685.982 543.094C687.552 538.427 700.925 495.632 684.36 441.203L678.62 442.95ZM624.238 355.527C650.678 381.747 668.948 411.16 678.62 442.949L684.36 441.203C674.367 408.357 655.525 378.104 628.463 351.266L624.238 355.527ZM490.134 274.007C546.645 295.825 591.721 323.282 624.238 355.527L628.463 351.266C595.204 318.285 549.348 290.437 492.295 268.41L490.134 274.007ZM152.089 98.9948C171.447 122.864 204.196 146.58 257.812 174.296C311.472 202.034 386.315 233.918 490.134 274.007L492.295 268.41C388.522 228.338 313.927 196.549 260.568 168.966C207.165 141.36 175.312 118.105 156.749 95.2155L152.089 98.9948ZM127.232 91.1986C136.528 88.5235 146.017 91.5042 152.088 98.9942L156.749 95.2161C149.157 85.8496 137.177 82.0932 125.573 85.4327L127.232 91.1986ZM110.154 111.233C111.308 101.715 118.015 93.8522 127.233 91.1986L125.573 85.4327C114.044 88.7517 105.643 98.598 104.197 110.51L110.154 111.233ZM113.702 182.287C108.164 161.553 106.942 137.661 110.154 111.234L104.197 110.51C100.914 137.529 102.13 162.213 107.906 183.836L113.702 182.287ZM119.986 200.352C117.501 194.673 115.404 188.65 113.702 182.287L107.906 183.837C109.681 190.476 111.876 196.787 114.489 202.757L119.986 200.352ZM119.449 203.595L119.591 203.415L114.884 199.695L114.742 199.874L119.449 203.595ZM123.171 207.037C121.999 204.904 120.876 202.709 119.807 200.45L114.384 203.019C115.505 205.385 116.682 207.687 117.912 209.926L123.171 207.037ZM145.281 235.995C136.316 227.818 128.945 218.174 123.205 207.101L117.878 209.862C123.935 221.547 131.736 231.761 141.238 240.428L145.281 235.995ZM115.208 271.768C120.151 256.786 130.366 246.219 144.307 241.023L142.212 235.401C126.516 241.251 115.008 253.225 109.51 269.888L115.208 271.768ZM117.659 334.826C109.35 314.523 108.492 292.131 115.208 271.767L109.51 269.888C102.336 291.639 103.268 315.503 112.106 337.098L117.659 334.826ZM160.496 384.221C140.393 371.48 125.721 354.537 117.659 334.826L112.105 337.098C120.692 358.091 136.255 375.96 157.284 389.289L160.496 384.221ZM159.92 443.151C152.709 419.163 157.384 399.143 161.694 387.822L156.086 385.687C151.465 397.825 146.47 419.251 154.174 444.878L159.92 443.151ZM216.279 512.789C186.284 491.887 167.553 468.549 159.92 443.151L154.174 444.878C162.315 471.965 182.135 496.309 212.848 517.711L216.279 512.789ZM243.023 529.17C234.104 524.882 225.186 519.506 216.37 512.855L212.757 517.645C221.887 524.533 231.145 530.116 240.423 534.578L243.023 529.17ZM259.076 537.337C253.547 534.69 248.238 531.989 243.151 529.236L240.295 534.512C245.474 537.316 250.872 540.061 256.485 542.749L259.076 537.337ZM266.545 572.73C260.893 559.291 260.261 547.757 260.773 540.247L254.787 539.839C254.223 548.107 254.936 560.605 261.015 575.056L266.545 572.73ZM293.801 608.9C281.148 597.916 272.017 585.739 266.545 572.73L261.015 575.056C266.899 589.045 276.637 601.945 289.867 613.431L293.801 608.9ZM354.539 643.061C329.411 633.615 309.006 622.101 293.801 608.9L289.867 613.431C305.751 627.221 326.832 639.055 352.427 648.678L354.539 643.061ZM276.746 544.257C276.718 550.051 277.729 558.378 282.034 567.949L287.506 565.488C283.6 556.806 282.722 549.346 282.746 544.286L276.746 544.257ZM282.034 567.949C293.043 592.423 320.42 613.032 360.258 627.998L362.368 622.381C323.105 607.631 297.543 587.802 287.506 565.488L282.034 567.949ZM360.238 627.99L360.369 628.04L362.519 622.439L362.388 622.389L360.238 627.99ZM360.351 628.033C360.794 628.207 394.704 641.266 439.674 648.413L440.615 642.487C418.435 638.962 398.972 633.976 385.014 629.854C378.038 627.793 372.442 625.951 368.576 624.618C366.644 623.951 365.144 623.412 364.121 623.037C363.609 622.85 363.217 622.703 362.949 622.603C362.815 622.552 362.713 622.513 362.642 622.486C362.569 622.458 362.535 622.445 362.537 622.446L360.351 628.033ZM439.674 648.413C480.345 654.871 539.3 657.796 587.285 634.174L584.635 628.791C538.371 651.566 480.969 648.895 440.615 642.487L439.674 648.413ZM587.285 634.174C625.347 615.434 651.424 582.47 664.868 536.54L659.11 534.854C646.066 579.414 620.976 610.899 584.635 628.791L587.285 634.174ZM664.844 536.619L665.012 536.1L659.302 534.256L659.134 534.775L664.844 536.619ZM664.99 536.163C665.258 535.394 678.327 495.989 662.827 446.412L657.101 448.202C664.576 472.114 665.153 493.564 663.843 509.086C663.188 516.845 662.062 523.113 661.095 527.452C660.127 531.8 659.323 534.194 659.323 534.193L664.99 536.163ZM662.827 446.412C642.144 380.264 580.055 326.005 484.333 289.046L482.171 294.643C577.067 331.283 637.194 384.536 657.101 448.203L662.827 446.412ZM484.333 289.046C377.656 247.857 306.517 217.377 253.587 190.196L250.846 195.533C304.065 222.863 375.441 253.434 482.171 294.643L484.333 289.046ZM253.587 190.196C196.864 161.074 160.783 135.304 139.574 109.155L134.914 112.934C156.925 140.072 193.912 166.303 250.846 195.533L253.587 190.196ZM139.574 109.154C136.86 105.809 133.298 106.231 131.69 106.69L133.338 112.459C133.604 112.384 133.888 112.352 134.129 112.396C134.238 112.416 134.345 112.452 134.456 112.517C134.565 112.582 134.725 112.701 134.914 112.934L139.574 109.154ZM131.683 106.692C130.35 107.077 126.702 108.583 126.142 113.185L132.098 113.909C132.173 113.298 132.401 113.024 132.589 112.859C132.835 112.643 133.144 112.516 133.345 112.458L131.683 106.692ZM126.142 113.185C123.029 138.787 123.327 170.385 136.195 197.045L141.599 194.436C129.467 169.302 129.039 139.069 132.098 113.909L126.142 113.185ZM136.319 197.275C151.308 222.444 196.609 272.062 322.953 283.142L323.477 277.165C198.761 266.227 155.334 217.479 141.474 194.205L136.319 197.275ZM323.215 280.153C322.746 277.19 322.746 277.19 322.746 277.19C322.746 277.19 322.746 277.19 322.745 277.19C322.743 277.191 322.74 277.191 322.736 277.192C322.727 277.193 322.712 277.195 322.692 277.198C322.652 277.205 322.591 277.214 322.508 277.226C322.343 277.251 322.093 277.288 321.761 277.334C321.098 277.428 320.11 277.561 318.825 277.717C316.254 278.03 312.498 278.436 307.782 278.806C298.346 279.544 285.087 280.133 269.817 279.532C239.209 278.328 200.827 272.354 168.916 253.507L165.865 258.674C199.01 278.249 238.54 284.306 269.581 285.528C285.134 286.14 298.633 285.54 308.25 284.787C313.06 284.411 316.902 283.996 319.55 283.673C320.874 283.512 321.899 283.374 322.598 283.276C322.947 283.227 323.214 283.188 323.396 283.16C323.487 283.147 323.557 283.136 323.605 283.129C323.629 283.125 323.648 283.122 323.661 283.12C323.667 283.119 323.673 283.118 323.676 283.118C323.678 283.117 323.68 283.117 323.681 283.117C323.682 283.117 323.684 283.116 323.215 280.153ZM166.657 253.182C165.919 253.368 165.148 253.476 164.351 253.498L164.517 259.496C165.753 259.462 166.961 259.293 168.124 258.999L166.657 253.182ZM164.35 253.498C155.873 253.737 148.628 255.745 142.845 259.701C137.036 263.675 132.933 269.457 130.506 276.819L136.204 278.698C138.279 272.405 141.657 267.783 146.232 264.653C150.834 261.506 156.876 259.711 164.518 259.496L164.35 253.498ZM130.506 276.819C125.635 291.586 125.421 308.856 131.436 325.577L137.082 323.546C131.528 308.106 131.746 292.212 136.204 278.698L130.506 276.819ZM137.112 325.489L137.151 325.367L131.446 323.511L131.406 323.633L137.112 325.489ZM134.299 324.439C131.424 325.296 131.424 325.298 131.425 325.3C131.425 325.3 131.425 325.302 131.426 325.304C131.427 325.306 131.428 325.309 131.429 325.313C131.431 325.32 131.433 325.329 131.437 325.339C131.443 325.359 131.451 325.386 131.462 325.419C131.482 325.485 131.512 325.575 131.55 325.689C131.626 325.917 131.739 326.239 131.892 326.649C132.199 327.469 132.671 328.638 133.349 330.098C134.704 333.017 136.882 337.099 140.209 341.87C146.869 351.42 158.11 363.696 176.505 374.92L179.63 369.799C161.991 359.036 151.347 347.352 145.131 338.438C142.02 333.977 140.012 330.202 138.791 327.571C138.181 326.256 137.767 325.228 137.51 324.543C137.382 324.201 137.293 323.945 137.239 323.782C137.212 323.701 137.193 323.643 137.182 323.609C137.177 323.592 137.173 323.582 137.172 323.577C137.171 323.575 137.171 323.574 137.171 323.575C137.171 323.575 137.172 323.576 137.172 323.577C137.172 323.578 137.173 323.579 137.173 323.579C137.173 323.58 137.173 323.582 134.299 324.439ZM176.649 375.003C176.751 375.058 176.854 375.113 176.955 375.167L179.778 369.872C179.68 369.82 179.583 369.768 179.486 369.716L176.649 375.003ZM176.956 375.167L187.574 380.825L190.396 375.53L179.778 369.872L176.956 375.167ZM186.467 376.548L186.346 376.734L191.383 379.994L191.503 379.808L186.467 376.548ZM187.509 381.041C217.338 396.141 262.206 407.673 329.235 405.264L329.02 399.268C262.769 401.649 218.954 390.235 190.22 375.687L187.509 381.041ZM329.127 402.266C328.363 399.365 328.363 399.365 328.363 399.365C328.363 399.365 328.363 399.365 328.362 399.366C328.36 399.366 328.357 399.367 328.353 399.368C328.345 399.37 328.331 399.374 328.313 399.378C328.276 399.388 328.219 399.403 328.142 399.422C327.988 399.462 327.755 399.52 327.445 399.596C326.827 399.749 325.905 399.97 324.703 400.243C322.3 400.789 318.783 401.542 314.351 402.36C305.486 403.997 292.978 405.894 278.431 406.929C249.274 409.004 212.225 407.595 179.907 393.956L177.575 399.484C211.151 413.654 249.295 415.018 278.857 412.914C293.671 411.86 306.405 409.929 315.441 408.26C319.96 407.426 323.558 406.657 326.033 406.094C327.271 405.813 328.228 405.583 328.879 405.423C329.205 405.342 329.454 405.28 329.624 405.236C329.709 405.215 329.774 405.198 329.819 405.186C329.841 405.18 329.858 405.176 329.871 405.173C329.877 405.171 329.882 405.17 329.885 405.169C329.887 405.169 329.888 405.168 329.889 405.168C329.891 405.168 329.892 405.167 329.127 402.266ZM175.903 395.749C172.749 404.963 169.786 420.463 175.498 439.008L181.232 437.242C175.99 420.222 178.715 406.06 181.579 397.691L175.903 395.749ZM175.498 439.008C185.328 470.923 217.752 500.038 268.179 523.827L270.739 518.401C220.786 494.835 190.304 466.695 181.232 437.241L175.498 439.008ZM268.442 523.936C301.089 535.706 352.817 544.351 414.661 519.396L412.415 513.832C352.238 538.114 302.07 529.681 270.477 518.292L268.442 523.936ZM413.538 516.614C411.898 514.101 411.899 514.101 411.899 514.101C411.899 514.101 411.899 514.101 411.899 514.101C411.898 514.102 411.896 514.103 411.894 514.105C411.888 514.108 411.879 514.114 411.866 514.122C411.84 514.139 411.8 514.165 411.744 514.201C411.633 514.272 411.462 514.379 411.234 514.521C410.778 514.805 410.092 515.224 409.189 515.757C407.383 516.821 404.71 518.337 401.276 520.12C394.404 523.686 384.495 528.313 372.386 532.535C348.14 540.99 315.245 547.762 280.29 541.321L279.203 547.221C315.532 553.916 349.533 546.859 374.362 538.201C386.79 533.867 396.964 529.117 404.039 525.445C407.578 523.609 410.346 522.04 412.237 520.925C413.182 520.368 413.909 519.924 414.403 519.616C414.65 519.462 414.84 519.343 414.969 519.26C415.034 519.219 415.084 519.187 415.119 519.164C415.136 519.153 415.15 519.144 415.16 519.138C415.164 519.135 415.168 519.132 415.171 519.13C415.173 519.129 415.175 519.128 415.175 519.128C415.177 519.127 415.178 519.126 413.538 516.614Z" fill="white" mask="url(#path-1-inside-1_1648_1196)"/>
<mask id="path-3-inside-2_1648_1196" fill="white">
<path fill-rule="evenodd" clip-rule="evenodd" d="M1147.76 645.87C1146.08 646.517 1126.71 653.929 1097.8 660.729C1087.9 663.056 1076.88 665.31 1065.09 667.202C1037.41 671.627 1011.12 673.098 986.95 671.566C956.293 669.625 928.92 662.823 905.588 651.351C862.624 630.223 833.193 593.478 818.1 542.138C816.631 537.771 803.438 495.668 819.749 442.076C829.581 409.758 848.137 379.926 874.888 353.397C907.777 320.783 953.242 293.131 1010.02 271.208C1217.62 191.048 1308.9 143.863 1346.82 97.1052C1353.65 88.6769 1364.39 85.3084 1374.84 88.3157C1385.21 91.302 1392.76 100.157 1394.06 110.872C1397.31 137.595 1396.09 161.883 1390.43 183.062C1388.7 189.563 1386.55 195.73 1384 201.555L1384.14 201.735C1383.05 204.047 1381.9 206.295 1380.7 208.481C1374.8 219.86 1367.21 229.789 1357.98 238.212C1372.8 243.735 1383.66 255.005 1388.88 270.828C1395.82 291.885 1394.93 315.013 1386.36 335.962C1378.03 356.314 1362.91 373.72 1342.35 386.755C1346.81 398.484 1351.65 419.207 1344.19 444.015C1336.3 470.257 1317.03 494.098 1286.68 515.25C1277.7 522.02 1268.61 527.499 1259.52 531.874C1254.38 534.652 1249.03 537.376 1243.46 540.043C1244 547.932 1243.32 559.948 1237.46 573.893C1231.78 587.392 1222.35 599.931 1209.4 611.165C1193.86 624.661 1173.12 636.335 1147.76 645.87ZM1221.49 544.271C1221.52 549.699 1220.57 557.592 1216.47 566.719C1205.95 590.112 1179.48 610.331 1139.93 625.189L1139.79 625.24C1139.46 625.37 1105.77 638.35 1061.09 645.45C1020.58 651.883 962.404 654.681 915.279 631.482C878.077 613.167 852.494 580.942 839.25 535.697L839.082 535.178C838.921 534.716 826.044 496.024 841.275 447.307C861.57 382.4 922.678 328.644 1017.99 291.845C1124.69 250.646 1195.95 220.12 1249.02 192.865C1305.85 163.688 1342.38 137.688 1363.99 111.044C1365.61 109.047 1367.65 109.269 1368.72 109.575C1369.63 109.836 1371.78 110.746 1372.12 113.547C1375.21 138.928 1374.84 169.844 1362.34 195.74C1347.92 219.961 1303.55 269.144 1178.02 280.153C1178.02 280.153 1268.79 294.512 1333.85 256.09C1334.8 256.33 1335.79 256.469 1336.8 256.497C1352.92 256.951 1363.38 264.104 1367.88 277.758C1372.55 291.899 1372.76 308.481 1366.98 324.561L1366.94 324.439C1366.94 324.439 1359.21 350.372 1323.17 372.36C1323.07 372.413 1322.97 372.466 1322.87 372.52L1312.25 378.178L1312.37 378.364C1283.09 393.188 1238.75 404.661 1172.11 402.266C1172.11 402.266 1256.6 424.529 1322.5 396.72C1325.51 405.512 1328.35 420.342 1322.87 438.125C1313.42 468.809 1281.97 497.436 1231.78 521.114C1199.66 532.694 1148.71 541.232 1087.7 516.614C1087.7 516.614 1150.21 557.406 1221.49 544.271Z"/>
</mask>
<path d="M1147.76 645.87L1146.68 643.071C1146.68 643.068 1146.69 643.065 1146.7 643.061L1147.76 645.87ZM1065.09 667.202L1065.56 670.164L1065.56 670.164L1065.09 667.202ZM986.95 671.566L987.139 668.572L987.139 668.572L986.95 671.566ZM905.588 651.351L904.265 654.043L904.264 654.043L905.588 651.351ZM818.1 542.138L820.943 541.182C820.956 541.218 820.967 541.255 820.978 541.292L818.1 542.138ZM819.749 442.076L822.619 442.949L822.619 442.95L819.749 442.076ZM874.888 353.397L872.776 351.266L872.776 351.266L874.888 353.397ZM1010.02 271.208L1011.1 274.007L1011.1 274.007L1010.02 271.208ZM1346.82 97.1052L1349.15 98.9942L1349.15 98.9948L1346.82 97.1052ZM1374.84 88.3157L1375.67 85.4327L1375.67 85.4327L1374.84 88.3157ZM1394.06 110.872L1391.09 111.234L1391.08 111.233L1394.06 110.872ZM1390.43 183.062L1393.33 183.836L1393.33 183.837L1390.43 183.062ZM1384 201.555L1381.65 203.415C1380.96 202.545 1380.81 201.368 1381.25 200.352L1384 201.555ZM1384.14 201.735L1386.5 199.874C1387.2 200.769 1387.34 201.988 1386.85 203.019L1384.14 201.735ZM1380.7 208.481L1378.03 207.1C1378.05 207.079 1378.06 207.057 1378.07 207.036L1380.7 208.481ZM1357.98 238.212L1356.93 241.023C1355.95 240.658 1355.23 239.809 1355.03 238.782C1354.84 237.756 1355.18 236.7 1355.96 235.995L1357.98 238.212ZM1388.88 270.828L1391.73 269.888L1391.73 269.888L1388.88 270.828ZM1386.36 335.962L1383.58 334.826L1383.58 334.826L1386.36 335.962ZM1342.35 386.755L1339.54 387.822C1339.04 386.49 1339.54 384.984 1340.74 384.221L1342.35 386.755ZM1344.19 444.015L1341.32 443.151L1341.32 443.151L1344.19 444.015ZM1286.68 515.25L1284.87 512.855C1284.9 512.832 1284.93 512.81 1284.96 512.789L1286.68 515.25ZM1259.52 531.874L1258.09 529.236C1258.13 529.213 1258.17 529.191 1258.22 529.17L1259.52 531.874ZM1243.46 540.043L1240.47 540.247C1240.38 539.021 1241.05 537.868 1242.16 537.337L1243.46 540.043ZM1237.46 573.893L1240.22 575.056L1240.22 575.056L1237.46 573.893ZM1209.4 611.165L1207.44 608.9L1207.44 608.9L1209.4 611.165ZM1221.49 544.271L1220.95 541.321C1221.82 541.16 1222.72 541.394 1223.41 541.961C1224.09 542.528 1224.49 543.368 1224.49 544.257L1221.49 544.271ZM1216.47 566.719L1219.2 567.949L1219.2 567.949L1216.47 566.719ZM1139.93 625.189L1138.85 622.389C1138.86 622.386 1138.86 622.383 1138.87 622.381L1139.93 625.189ZM1139.79 625.24L1138.7 622.446C1138.71 622.443 1138.71 622.441 1138.72 622.439L1139.79 625.24ZM1061.09 645.45L1061.56 648.413L1061.56 648.413L1061.09 645.45ZM915.279 631.482L913.954 634.174L913.953 634.174L915.279 631.482ZM839.25 535.697L842.104 534.775C842.113 534.801 842.121 534.827 842.129 534.854L839.25 535.697ZM839.082 535.178L841.916 534.193C841.923 534.214 841.93 534.235 841.937 534.256L839.082 535.178ZM841.275 447.307L838.411 446.412L838.411 446.412L841.275 447.307ZM1017.99 291.845L1019.07 294.643L1019.07 294.643L1017.99 291.845ZM1249.02 192.865L1247.65 190.196L1247.65 190.196L1249.02 192.865ZM1363.99 111.044L1361.66 109.155L1361.66 109.154L1363.99 111.044ZM1368.72 109.575L1369.55 106.69L1369.56 106.692L1368.72 109.575ZM1372.12 113.547L1375.1 113.185L1375.1 113.185L1372.12 113.547ZM1362.34 195.74L1365.04 197.044C1365.01 197.123 1364.96 197.2 1364.92 197.275L1362.34 195.74ZM1178.02 280.153L1177.56 283.116C1176.06 282.88 1174.97 281.564 1175.03 280.049C1175.08 278.535 1176.25 277.297 1177.76 277.165L1178.02 280.153ZM1333.85 256.09L1332.32 253.507C1333 253.105 1333.81 252.988 1334.58 253.182L1333.85 256.09ZM1336.8 256.497L1336.89 253.498L1336.89 253.498L1336.8 256.497ZM1367.88 277.758L1365.03 278.698L1365.03 278.698L1367.88 277.758ZM1366.98 324.561L1369.8 325.577C1369.37 326.783 1368.22 327.581 1366.93 327.561C1365.65 327.541 1364.52 326.709 1364.13 325.489L1366.98 324.561ZM1366.94 324.439L1364.07 323.582C1364.44 322.323 1365.59 321.455 1366.9 321.439C1368.22 321.423 1369.39 322.262 1369.79 323.511L1366.94 324.439ZM1323.17 372.36L1324.73 374.921C1324.69 374.949 1324.64 374.977 1324.59 375.003L1323.17 372.36ZM1322.87 372.52L1324.28 375.167L1324.28 375.167L1322.87 372.52ZM1312.25 378.178L1309.74 379.808C1309.28 379.103 1309.14 378.239 1309.35 377.426C1309.56 376.613 1310.1 375.925 1310.84 375.53L1312.25 378.178ZM1312.37 378.364L1314.89 376.734C1315.35 377.448 1315.49 378.325 1315.27 379.146C1315.05 379.968 1314.49 380.656 1313.73 381.04L1312.37 378.364ZM1172.11 402.266L1171.35 405.167C1169.87 404.778 1168.92 403.34 1169.14 401.828C1169.37 400.316 1170.69 399.213 1172.22 399.268L1172.11 402.266ZM1322.5 396.72L1321.33 393.956C1322.1 393.632 1322.96 393.642 1323.72 393.982C1324.48 394.322 1325.07 394.961 1325.34 395.749L1322.5 396.72ZM1322.87 438.125L1325.74 439.008L1325.74 439.008L1322.87 438.125ZM1231.78 521.114L1233.06 523.827C1232.97 523.868 1232.89 523.904 1232.8 523.936L1231.78 521.114ZM1087.7 516.614L1086.06 519.126C1084.77 518.282 1084.33 516.595 1085.04 515.226C1085.75 513.857 1087.39 513.254 1088.82 513.832L1087.7 516.614ZM1097.11 657.809C1125.85 651.049 1145.08 643.686 1146.68 643.071L1148.84 648.668C1147.07 649.348 1127.57 656.808 1098.48 663.649L1097.11 657.809ZM1064.61 664.239C1076.33 662.36 1087.27 660.121 1097.11 657.809L1098.48 663.649C1088.52 665.991 1077.44 668.259 1065.56 670.164L1064.61 664.239ZM987.139 668.572C1011.06 670.088 1037.13 668.635 1064.61 664.239L1065.56 670.164C1037.7 674.619 1011.19 676.108 986.76 674.56L987.139 668.572ZM906.912 648.658C929.831 659.928 956.807 666.652 987.139 668.572L986.76 674.56C955.779 672.599 928.008 665.718 904.265 654.043L906.912 648.658ZM820.978 541.292C835.865 591.931 864.795 627.948 906.912 648.658L904.264 654.043C860.453 632.499 830.52 595.024 815.222 542.984L820.978 541.292ZM822.619 442.95C806.563 495.704 819.576 537.115 820.943 541.182L815.256 543.094C813.687 538.427 800.314 495.632 816.879 441.203L822.619 442.95ZM877.001 355.527C850.56 381.747 832.29 411.16 822.619 442.949L816.879 441.203C826.872 408.357 845.713 378.104 872.776 351.266L877.001 355.527ZM1011.1 274.007C954.593 295.825 909.518 323.282 877.001 355.527L872.776 351.266C906.035 318.285 951.891 290.437 1008.94 268.41L1011.1 274.007ZM1349.15 98.9948C1329.79 122.864 1297.04 146.58 1243.43 174.296C1189.77 202.034 1114.92 233.918 1011.1 274.007L1008.94 268.41C1112.72 228.338 1187.31 196.549 1240.67 168.966C1294.07 141.36 1325.93 118.105 1344.49 95.2155L1349.15 98.9948ZM1374.01 91.1986C1364.71 88.5235 1355.22 91.5042 1349.15 98.9942L1344.49 95.2161C1352.08 85.8496 1364.06 82.0932 1375.67 85.4327L1374.01 91.1986ZM1391.08 111.233C1389.93 101.715 1383.22 93.8522 1374.01 91.1986L1375.67 85.4327C1387.19 88.7517 1395.6 98.598 1397.04 110.51L1391.08 111.233ZM1387.54 182.287C1393.07 161.553 1394.3 137.661 1391.09 111.234L1397.04 110.51C1400.32 137.529 1399.11 162.213 1393.33 183.836L1387.54 182.287ZM1381.25 200.352C1383.74 194.674 1385.83 188.65 1387.54 182.287L1393.33 183.837C1391.56 190.476 1389.36 196.787 1386.75 202.757L1381.25 200.352ZM1381.79 203.595L1381.65 203.415L1386.35 199.695L1386.5 199.874L1381.79 203.595ZM1378.07 207.036C1379.24 204.903 1380.36 202.709 1381.43 200.45L1386.85 203.019C1385.73 205.385 1384.56 207.687 1383.33 209.925L1378.07 207.036ZM1355.96 235.995C1364.92 227.818 1372.29 218.174 1378.03 207.1L1383.36 209.861C1377.3 221.547 1369.5 231.761 1360 240.428L1355.96 235.995ZM1386.03 271.768C1381.09 256.786 1370.87 246.219 1356.93 241.023L1359.03 235.401C1374.72 241.251 1386.23 253.225 1391.73 269.888L1386.03 271.768ZM1383.58 334.826C1391.89 314.523 1392.75 292.131 1386.03 271.767L1391.73 269.888C1398.9 291.639 1397.97 315.503 1389.13 337.098L1383.58 334.826ZM1340.74 384.221C1360.85 371.48 1375.52 354.537 1383.58 334.826L1389.13 337.098C1380.55 358.091 1364.98 375.96 1343.95 389.289L1340.74 384.221ZM1341.32 443.151C1348.53 419.163 1343.86 399.143 1339.54 387.822L1345.15 385.687C1349.77 397.825 1354.77 419.251 1347.06 444.878L1341.32 443.151ZM1284.96 512.789C1314.95 491.887 1333.69 468.549 1341.32 443.151L1347.06 444.878C1338.92 471.965 1319.1 496.309 1288.39 517.711L1284.96 512.789ZM1258.22 529.17C1267.13 524.882 1276.05 519.506 1284.87 512.855L1288.48 517.645C1279.35 524.533 1270.09 530.116 1260.82 534.578L1258.22 529.17ZM1242.16 537.337C1247.69 534.69 1253 531.989 1258.09 529.236L1260.94 534.512C1255.76 537.316 1250.37 540.061 1244.75 542.749L1242.16 537.337ZM1234.69 572.73C1240.35 559.291 1240.98 547.757 1240.47 540.247L1246.45 539.839C1247.02 548.107 1246.3 560.605 1240.22 575.056L1234.69 572.73ZM1207.44 608.9C1220.09 597.916 1229.22 585.739 1234.69 572.73L1240.22 575.056C1234.34 589.045 1224.6 601.945 1211.37 613.431L1207.44 608.9ZM1146.7 643.061C1171.83 633.615 1192.23 622.101 1207.44 608.9L1211.37 613.431C1195.49 627.221 1174.41 639.055 1148.81 648.678L1146.7 643.061ZM1224.49 544.257C1224.52 550.051 1223.51 558.378 1219.2 567.949L1213.73 565.488C1217.64 556.806 1218.52 549.346 1218.49 544.286L1224.49 544.257ZM1219.2 567.949C1208.2 592.423 1180.82 613.032 1140.98 627.998L1138.87 622.381C1178.13 607.631 1203.7 587.802 1213.73 565.488L1219.2 567.949ZM1141 627.99L1140.87 628.04L1138.72 622.439L1138.85 622.389L1141 627.99ZM1140.89 628.033C1140.44 628.207 1106.53 641.266 1061.56 648.413L1060.62 642.487C1082.8 638.962 1102.27 633.976 1116.22 629.854C1123.2 627.793 1128.8 625.951 1132.66 624.618C1134.59 623.951 1136.09 623.412 1137.12 623.037C1137.63 622.85 1138.02 622.703 1138.29 622.603C1138.42 622.552 1138.53 622.513 1138.6 622.486C1138.67 622.458 1138.7 622.445 1138.7 622.446L1140.89 628.033ZM1061.56 648.413C1020.89 654.871 961.939 657.796 913.954 634.174L916.604 628.791C962.868 651.566 1020.27 648.895 1060.62 642.487L1061.56 648.413ZM913.953 634.174C875.891 615.434 849.815 582.47 836.37 536.54L842.129 534.854C855.172 579.414 880.263 610.899 916.604 628.791L913.953 634.174ZM836.395 536.619L836.227 536.1L841.937 534.256L842.104 534.775L836.395 536.619ZM836.248 536.163C835.981 535.394 822.912 495.989 838.411 446.412L844.138 448.202C836.662 472.114 836.086 493.564 837.396 509.086C838.051 516.845 839.177 523.113 840.143 527.452C841.112 531.8 841.916 534.194 841.916 534.193L836.248 536.163ZM838.411 446.412C859.095 380.264 921.183 326.005 1016.91 289.046L1019.07 294.643C924.172 331.283 864.045 384.536 844.138 448.203L838.411 446.412ZM1016.91 289.046C1123.58 247.857 1194.72 217.377 1247.65 190.196L1250.39 195.533C1197.17 222.863 1125.8 253.434 1019.07 294.643L1016.91 289.046ZM1247.65 190.196C1304.37 161.074 1340.46 135.304 1361.66 109.155L1366.32 112.934C1344.31 140.072 1307.33 166.303 1250.39 195.533L1247.65 190.196ZM1361.66 109.154C1364.38 105.809 1367.94 106.231 1369.55 106.69L1367.9 112.459C1367.63 112.384 1367.35 112.352 1367.11 112.396C1367 112.416 1366.89 112.452 1366.78 112.517C1366.67 112.582 1366.51 112.701 1366.32 112.934L1361.66 109.154ZM1369.56 106.692C1370.89 107.077 1374.54 108.583 1375.1 113.185L1369.14 113.909C1369.07 113.298 1368.84 113.024 1368.65 112.859C1368.4 112.643 1368.1 112.516 1367.89 112.458L1369.56 106.692ZM1375.1 113.185C1378.21 138.787 1377.91 170.385 1365.04 197.044L1359.64 194.436C1371.77 169.302 1372.2 139.069 1369.14 113.909L1375.1 113.185ZM1364.92 197.275C1349.93 222.444 1304.63 272.062 1178.29 283.142L1177.76 277.165C1302.48 266.227 1345.9 217.479 1359.76 194.205L1364.92 197.275ZM1178.02 280.153C1178.49 277.19 1178.49 277.19 1178.49 277.19C1178.49 277.19 1178.49 277.19 1178.49 277.19C1178.5 277.191 1178.5 277.191 1178.5 277.192C1178.51 277.193 1178.53 277.195 1178.55 277.199C1178.59 277.205 1178.65 277.214 1178.73 277.226C1178.9 277.251 1179.15 277.288 1179.48 277.334C1180.14 277.428 1181.13 277.561 1182.41 277.717C1184.98 278.03 1188.74 278.436 1193.46 278.806C1202.89 279.544 1216.15 280.133 1231.42 279.532C1262.03 278.328 1300.41 272.354 1332.32 253.507L1335.37 258.674C1302.23 278.249 1262.7 284.306 1231.66 285.528C1216.1 286.14 1202.61 285.54 1192.99 284.787C1188.18 284.411 1184.34 283.996 1181.69 283.673C1180.36 283.512 1179.34 283.374 1178.64 283.276C1178.29 283.227 1178.02 283.188 1177.84 283.16C1177.75 283.147 1177.68 283.136 1177.63 283.129C1177.61 283.125 1177.59 283.122 1177.58 283.12C1177.57 283.119 1177.57 283.118 1177.56 283.118C1177.56 283.117 1177.56 283.117 1177.56 283.117C1177.56 283.117 1177.56 283.116 1178.02 280.153ZM1334.58 253.182C1335.32 253.368 1336.09 253.476 1336.89 253.498L1336.72 259.496C1335.49 259.462 1334.28 259.293 1333.11 258.999L1334.58 253.182ZM1336.89 253.498C1345.37 253.737 1352.61 255.745 1358.39 259.701C1364.2 263.675 1368.31 269.457 1370.73 276.819L1365.03 278.698C1362.96 272.405 1359.58 267.783 1355.01 264.653C1350.41 261.506 1344.36 259.711 1336.72 259.496L1336.89 253.498ZM1370.73 276.819C1375.6 291.586 1375.82 308.856 1369.8 325.577L1364.16 323.546C1369.71 308.106 1369.49 292.212 1365.03 278.698L1370.73 276.819ZM1364.13 325.489L1364.09 325.367L1369.79 323.511L1369.83 323.633L1364.13 325.489ZM1366.94 324.439C1369.81 325.296 1369.81 325.298 1369.81 325.3C1369.81 325.3 1369.81 325.302 1369.81 325.304C1369.81 325.306 1369.81 325.309 1369.81 325.313C1369.81 325.32 1369.81 325.329 1369.8 325.339C1369.8 325.359 1369.79 325.386 1369.78 325.419C1369.76 325.485 1369.73 325.575 1369.69 325.689C1369.61 325.917 1369.5 326.239 1369.35 326.649C1369.04 327.469 1368.57 328.638 1367.89 330.098C1366.53 333.017 1364.36 337.099 1361.03 341.87C1354.37 351.42 1343.13 363.696 1324.73 374.921L1321.61 369.799C1339.25 359.036 1349.89 347.352 1356.11 338.438C1359.22 333.977 1361.23 330.202 1362.45 327.571C1363.06 326.256 1363.47 325.228 1363.73 324.543C1363.86 324.201 1363.95 323.945 1364 323.782C1364.03 323.701 1364.05 323.643 1364.06 323.609C1364.06 323.592 1364.07 323.582 1364.07 323.577C1364.07 323.575 1364.07 323.574 1364.07 323.575C1364.07 323.575 1364.07 323.576 1364.07 323.577C1364.07 323.578 1364.07 323.579 1364.07 323.579C1364.07 323.58 1364.07 323.582 1366.94 324.439ZM1324.59 375.003C1324.49 375.058 1324.39 375.112 1324.28 375.167L1321.46 369.872C1321.56 369.82 1321.66 369.768 1321.75 369.716L1324.59 375.003ZM1324.28 375.167L1313.66 380.825L1310.84 375.53L1321.46 369.872L1324.28 375.167ZM1314.77 376.548L1314.89 376.734L1309.86 379.994L1309.74 379.808L1314.77 376.548ZM1313.73 381.04C1283.9 396.141 1239.03 407.673 1172 405.264L1172.22 399.268C1238.47 401.649 1282.28 390.235 1311.02 375.687L1313.73 381.04ZM1172.11 402.266C1172.88 399.365 1172.88 399.365 1172.88 399.365C1172.88 399.365 1172.88 399.365 1172.88 399.366C1172.88 399.366 1172.88 399.367 1172.89 399.368C1172.89 399.37 1172.91 399.374 1172.93 399.378C1172.96 399.388 1173.02 399.403 1173.1 399.422C1173.25 399.462 1173.48 399.52 1173.79 399.596C1174.41 399.749 1175.33 399.97 1176.54 400.243C1178.94 400.789 1182.46 401.542 1186.89 402.36C1195.75 403.997 1208.26 405.894 1222.81 406.929C1251.96 409.004 1289.01 407.595 1321.33 393.956L1323.66 399.484C1290.09 413.654 1251.94 415.018 1222.38 412.914C1207.57 411.86 1194.83 409.929 1185.8 408.26C1181.28 407.426 1177.68 406.657 1175.21 406.094C1173.97 405.813 1173.01 405.583 1172.36 405.423C1172.03 405.342 1171.78 405.28 1171.61 405.236C1171.53 405.215 1171.46 405.198 1171.42 405.186C1171.4 405.181 1171.38 405.176 1171.37 405.173C1171.36 405.171 1171.36 405.17 1171.35 405.169C1171.35 405.169 1171.35 405.168 1171.35 405.168C1171.35 405.168 1171.35 405.167 1172.11 402.266ZM1325.34 395.749C1328.49 404.963 1331.45 420.463 1325.74 439.008L1320.01 437.242C1325.25 420.222 1322.52 406.06 1319.66 397.691L1325.34 395.749ZM1325.74 439.008C1315.91 470.923 1283.49 500.038 1233.06 523.827L1230.5 518.401C1280.45 494.835 1310.93 466.695 1320.01 437.241L1325.74 439.008ZM1232.8 523.936C1200.15 535.706 1148.42 544.351 1086.58 519.396L1088.82 513.832C1149 538.114 1199.17 529.681 1230.76 518.292L1232.8 523.936ZM1087.7 516.614C1089.34 514.101 1089.34 514.101 1089.34 514.101C1089.34 514.101 1089.34 514.101 1089.34 514.101C1089.34 514.102 1089.34 514.103 1089.34 514.105C1089.35 514.108 1089.36 514.114 1089.37 514.122C1089.4 514.139 1089.44 514.165 1089.49 514.201C1089.61 514.272 1089.78 514.379 1090 514.521C1090.46 514.805 1091.15 515.224 1092.05 515.757C1093.86 516.821 1096.53 518.337 1099.96 520.12C1106.84 523.686 1116.74 528.313 1128.85 532.535C1153.1 540.99 1185.99 547.762 1220.95 541.321L1222.04 547.221C1185.71 553.916 1151.71 546.859 1126.88 538.201C1114.45 533.867 1104.28 529.117 1097.2 525.445C1093.66 523.609 1090.89 522.04 1089 520.925C1088.06 520.368 1087.33 519.924 1086.84 519.616C1086.59 519.462 1086.4 519.343 1086.27 519.26C1086.2 519.219 1086.15 519.187 1086.12 519.164C1086.1 519.153 1086.09 519.144 1086.08 519.138C1086.07 519.135 1086.07 519.132 1086.07 519.13C1086.07 519.129 1086.06 519.128 1086.06 519.128C1086.06 519.127 1086.06 519.126 1087.7 516.614Z" fill="white" mask="url(#path-3-inside-2_1648_1196)"/>
<path d="M1269.85 291.398C1269.36 288.632 1274 272.805 1281.81 272.053C1284.5 271.802 1286.94 274.062 1288.16 276.323C1289.38 278.834 1289.87 281.6 1290.11 284.362C1293.04 314.762 1284.74 346.416 1267.41 371.289L1269.85 291.398Z" fill="white"/>
<path d="M1268.16 372.514L1266.18 371C1283.44 346.283 1291.82 314.755 1288.87 284.484C1288.87 281.963 1288.38 279.19 1287.14 276.917C1286.15 274.899 1283.93 272.881 1281.96 273.137C1279.99 273.137 1278.02 274.899 1276.05 277.424C1272.35 282.467 1270.62 289.782 1270.87 291.297L1268.4 291.8C1267.91 289.531 1270.13 281.46 1274.07 276.162C1276.29 272.881 1279.01 271.119 1281.72 270.863C1285.17 270.36 1287.88 273.389 1289.36 275.91C1290.84 278.683 1291.09 281.46 1291.33 284.484C1294.29 315.258 1285.91 347.542 1268.16 372.514Z" fill="#101216"/>
<path d="M1196.88 430.107C1256.79 427.566 1298.43 393.253 1303.5 325.142C1305.28 303.032 1304.26 265.925 1290.81 261.605C1279.39 257.792 1274.82 273.043 1275.83 282.189C1270.25 254.233 1249.68 261.605 1250.95 286.002C1251.71 272.024 1238.26 256.52 1230.14 272.789C1221.76 294.646 1229.37 322.091 1214.9 340.646C1191.8 365.804 1144.84 374.955 1138.74 413.842C1161.34 423.754 1182.91 430.36 1197.13 429.853L1196.88 430.107Z" fill="white"/>
<path d="M1195.21 429.851C1182.05 429.851 1163.07 424.552 1138.53 413.946L1137.52 413.443V412.435C1141.57 386.937 1162.82 374.059 1183.31 361.438C1194.45 354.62 1205.83 347.805 1213.93 338.967C1222.02 328.618 1222.79 315.489 1223.8 301.604C1224.56 291.506 1225.06 281.408 1228.86 272.066C1232.91 263.988 1237.71 263.988 1240.24 264.496C1244.29 265.504 1248.09 270.047 1250.36 275.602C1252.13 267.775 1256.69 263.233 1261.5 262.729C1266.05 262.221 1271.37 265 1274.91 274.086C1275.67 269.291 1277.69 264.496 1281.23 261.969C1284.02 259.697 1287.56 259.193 1291.36 260.457C1308.81 266.26 1305.27 318.772 1304.76 324.831C1299.96 389.208 1260.74 427.579 1197.48 430.107C1196.72 430.107 1195.97 430.107 1195.46 430.107L1195.21 429.851ZM1140.55 411.927C1165.1 422.532 1184.83 427.831 1197.23 427.327C1260.23 424.804 1297.43 388.196 1302.23 324.327C1303.75 303.371 1302.99 266.768 1290.59 262.477C1287.56 261.465 1285.03 261.969 1282.75 263.736C1278.45 267.272 1276.42 275.602 1277.19 281.66L1274.66 282.168C1271.87 269.039 1266.05 265 1262 265.504C1257.2 266.008 1252.39 272.322 1252.39 283.176C1252.39 284.188 1252.39 284.944 1252.39 285.951H1249.86C1249.86 284.944 1249.86 284.188 1249.86 283.176C1249.35 275.854 1245.05 268.535 1239.99 267.272C1235.94 266.26 1233.16 270.047 1231.39 273.33C1228.1 282.168 1227.34 292.266 1226.58 302.112C1225.57 315.745 1224.56 330.133 1216.21 340.987C1207.86 350.077 1196.22 357.147 1185.08 363.962C1165.35 376.079 1144.85 388.448 1140.81 412.179L1140.55 411.927Z" fill="#101216"/>
<path d="M1266.73 368.838L1264.68 367.075C1276.44 353.482 1279.25 336.107 1279.51 324.021C1279.76 308.41 1276.7 292.798 1273.37 277.437L1275.93 276.935C1279.25 292.291 1282.57 307.903 1282.06 324.021C1281.81 336.609 1278.74 354.738 1266.73 368.587V368.838ZM1237.34 354.738L1235.55 352.975C1253.18 333.841 1251.14 307.4 1249.09 283.983V281.215H1251.39V283.732C1253.69 307.652 1255.99 334.595 1237.59 354.487L1237.34 354.738Z" fill="#101216"/>
<path d="M383.387 388.419C323.752 386.904 281.806 353.094 275.741 285.727C273.72 263.776 274.225 227.189 287.365 222.397C298.736 218.612 303.537 233.5 302.779 242.581C308.086 214.827 328.553 221.641 327.795 246.114C327.037 232.237 339.924 216.593 348.263 232.741C356.854 254.44 349.779 281.69 364.435 300.108C387.683 324.585 434.683 333.162 441.506 371.768C419.016 381.86 397.79 388.922 383.64 388.419H383.387Z" fill="white"/>
<path d="M384.952 389.418C384.445 389.418 383.938 389.418 383.431 389.418C319.823 387.652 280.037 350.085 274.461 285.789C273.954 279.738 269.646 227.296 287.132 221.241C290.933 219.983 294.481 220.487 297.269 222.755C300.563 225.275 302.844 230.068 303.604 234.857C306.899 225.783 312.474 223.007 316.782 223.258C321.343 223.766 326.158 228.051 327.932 235.868C329.96 230.32 333.761 225.783 337.816 224.772C340.35 224.017 345.418 224.017 349.473 232.085C353.274 241.415 354.035 251.752 354.795 261.837C356.062 275.704 357.076 288.816 365.438 299.153C373.548 307.724 385.205 314.534 396.355 321.088C417.136 333.19 438.423 345.799 442.731 371.265V372.271L441.971 372.775C417.136 383.87 398.13 389.669 384.698 389.669L384.952 389.418ZM290.933 223.007C289.92 223.007 288.906 223.007 287.892 223.514C275.221 227.8 275.222 264.357 276.996 285.286C282.824 349.074 320.583 385.132 383.684 386.642C396.102 387.149 415.869 381.35 440.197 370.506C435.635 346.806 415.109 334.704 395.089 323.105C383.684 316.551 372.027 309.489 363.411 300.667C354.542 289.823 353.528 275.452 352.261 261.837C351.5 252.003 350.487 241.918 346.939 233.092C345.165 229.817 342.377 226.286 338.323 227.296C333.507 228.555 329.199 236.119 328.692 243.432C328.692 244.187 328.692 245.198 328.692 246.204H326.158C326.158 245.198 326.158 244.439 326.158 243.432C325.905 232.588 320.837 226.537 316.275 226.034C312.221 225.531 306.392 229.817 303.858 242.925H301.324C301.83 236.622 299.803 228.303 295.495 224.772C294.228 223.766 292.454 223.258 290.933 223.258V223.007Z" fill="#101216"/>
<path d="M312.887 329.498C300.505 315.593 297.472 297.642 296.967 285.002C296.461 269.074 299.494 253.146 302.273 237.723L304.8 238.228C301.768 253.399 298.736 269.327 299.494 285.002C299.999 297.138 303.032 314.584 314.655 327.984L312.634 329.755L312.887 329.498ZM341.693 314.836C322.994 295.115 325.016 267.809 326.784 244.043V241.263H329.564V244.043C327.795 267.556 326.026 294.102 343.715 313.066L341.946 314.836H341.693ZM597.67 731.752C440.749 750.464 378.84 507.238 356.855 423.3C353.065 408.381 360.14 392.962 373.786 386.386C387.431 379.814 407.394 370.962 423.313 363.381C455.153 347.958 462.733 363.886 472.588 378.8L529.444 467.796C529.444 467.796 596.409 369.701 631.279 354.277C677.27 334.052 797.549 324.696 877.402 345.174C935.522 360.093 999.702 543.395 999.702 543.395C999.702 543.395 1099.77 387.399 1136.41 400.039C1162.94 409.142 1218.54 440.238 1210.2 460.972C1157.39 591.179 1046.96 731.5 963.823 721.892L597.922 732.004L597.67 731.752Z" fill="white"/>
<path d="M580.507 734C520.612 734 468.805 695.153 426.348 618.725C388.441 550.616 367.212 469.896 356.092 426.51L355.587 424.24C351.543 408.852 359.125 392.709 373.277 385.9C380.101 382.619 388.187 378.835 396.527 375.051C405.372 371.016 414.471 366.728 422.558 362.944C453.389 348.06 462.487 362.185 471.585 376.062C472.09 377.069 472.849 378.08 473.354 378.835L529.205 466.112C538.303 452.998 597.69 368.494 630.546 353.862C677.551 333.179 798.099 324.6 877.451 344.783C932.543 358.908 991.682 518.33 999.769 541.03C1012.4 521.354 1101.36 387.41 1136.74 399.774C1157.21 406.834 1201.18 429.538 1210.53 449.969C1212.56 454.508 1212.81 458.544 1211.29 462.076C1158.98 590.722 1054.36 723.659 971.969 723.659C969.19 723.659 966.408 723.659 963.629 723.155V720.63C1001.79 724.922 1049.05 697.426 1097.57 643.191C1141.29 594.002 1181.98 527.66 1209.27 461.069C1210.53 458.041 1210.28 454.508 1208.51 450.98C1199.92 432.06 1157.46 409.356 1136.23 402.043C1100.86 389.936 1002.04 543.048 1001.03 544.562L999.512 546.832L998.756 544.31C997.999 542.544 934.312 361.933 877.451 347.304C798.603 327.126 678.816 335.701 632.059 356.131C597.946 371.267 531.226 468.13 530.721 468.889L529.71 470.4L471.585 380.098C471.079 379.087 470.321 378.08 469.815 377.321C460.718 363.448 452.884 351.34 424.074 365.214C415.987 369.249 406.889 373.285 398.044 377.321C389.451 381.105 381.617 384.889 374.794 388.17C361.652 394.475 354.829 409.356 358.367 423.485L358.872 425.754C370.244 468.889 391.22 549.353 428.875 617.21C474.87 700.199 531.732 738.036 597.69 730.216V732.741C592.133 733.497 586.572 733.748 580.759 733.748L580.507 734Z" fill="#101216"/>
<path d="M802.992 344.331L801.466 232.598L719.666 231.596L720.938 343.328L802.992 344.331Z" fill="white"/>
<path d="M800.491 344.331L798.989 233.886L720.941 232.88L722.193 343.329H719.689L718.441 230.371L801.49 231.373L802.991 344.331H800.491Z" fill="#101216"/>
<path d="M1182.82 518.269C1144.37 497.805 1111.23 465.463 1089.47 427.817L1091.75 426.553C1113.25 463.946 1145.89 495.528 1184.08 515.995L1182.82 518.269ZM982.474 590.021H979.942C980.955 570.314 992.845 552.376 1002.2 537.976L1004.23 539.237C994.36 554.145 983.231 570.819 982.218 590.021H982.474ZM571.406 617.309C570.9 562.99 554.457 507.911 524.608 462.433L526.632 461.168C556.734 507.15 573.43 562.734 573.935 617.561H571.406V617.309ZM598.471 732.775L597.209 730.497C631.612 712.307 641.983 632.47 627.817 493.002H630.345C644.764 633.226 633.888 714.076 598.471 732.775ZM964.004 722.921C886.851 701.697 872.433 554.145 875.723 479.106H878.251C875.218 553.641 889.127 699.676 964.766 720.391L964.004 722.921ZM369.794 459.147C368.782 459.147 367.77 459.147 366.758 459.147V456.622C395.09 458.391 433.54 434.893 452.26 423.523L454.284 422.258C462.378 417.207 479.327 404.824 482.868 396.992L485.145 398.004C481.098 406.845 463.137 419.985 455.549 424.531L453.525 425.796C435.311 436.915 398.378 459.399 369.794 459.399V459.147ZM684.228 160.001C678.157 153.181 667.534 151.412 658.93 154.95C650.583 158.489 644.511 166.825 642.488 175.666C640.464 184.511 642.235 194.113 646.03 202.449C650.33 212.051 657.668 220.388 667.025 225.438C676.133 230.493 687.514 232.262 697.633 229.485C685.999 208.513 680.433 184.003 684.228 160.001Z" fill="#101216"/>
<path d="M686.553 231.596C679.538 231.596 672.27 229.842 665.756 226.083C656.733 221.07 649.219 212.803 644.455 202.781C640.196 193.51 638.945 183.988 640.95 175.471C643.205 165.699 649.719 157.432 657.987 153.923C667.26 149.914 678.284 152.169 684.548 159.186L685.052 159.686V160.186C681.293 182.738 686.052 206.79 698.08 228.337L698.835 229.842L697.33 230.342C694.071 231.346 690.562 231.596 687.057 231.596H686.553ZM667.26 154.423C664.501 154.423 661.497 154.927 658.742 156.177C651.223 159.436 645.209 166.953 643.205 175.971C641.45 183.988 642.7 193.01 646.71 201.781C651.223 211.299 658.237 219.32 666.76 224.079C675.279 228.837 685.552 230.342 694.571 228.337C683.047 207.04 678.534 182.988 682.043 160.69C678.284 156.682 673.024 154.677 667.26 154.677V154.423Z" fill="#101216"/>
<path d="M683.23 129.223C678.423 179.296 682.722 251.626 726.224 286.524C748.48 304.483 779.334 306.506 803.614 291.079C854.705 258.961 857.485 175.249 852.934 123.154C851.92 112.277 848.379 101.909 842.565 93.0597C795.773 22.7517 695.875 37.9257 683.23 129.223Z" fill="white"/>
<path d="M769.028 302.415C753.751 302.415 738.479 297.356 725.751 287.495C676.36 248.3 678.651 163.843 681.962 129.203C687.817 87.4806 712.511 57.8955 747.899 49.8043C783.792 41.713 821.725 58.4002 844.636 92.5356C850.746 101.64 854.311 112.259 855.327 123.387C859.655 172.19 858.638 258.923 804.924 292.297C793.975 299.127 781.247 302.668 768.774 302.668L769.028 302.415ZM684.76 129.203C681.454 163.338 679.163 247.038 727.533 285.219C749.678 302.668 780.227 304.438 803.904 289.77C858.384 255.887 856.348 161.82 853.037 123.134C852.02 112.511 848.455 102.145 842.854 93.5491C820.705 60.423 783.792 43.9882 748.916 52.0794C714.547 59.9183 690.616 88.7423 684.76 129.203Z" fill="#101216"/>
<path d="M785.562 202.637L784.558 200.361C788.835 198.337 792.61 195.3 795.628 192.01C784.055 184.167 776.505 171.267 774.743 157.353C772.981 142.931 777.765 128.007 787.83 117.636L789.588 119.407C780.28 129.274 775.497 143.44 777.259 157.101C779.021 170.762 786.822 183.41 798.147 190.747L799.403 191.505L798.398 192.519C794.874 196.819 790.346 200.361 785.562 202.637ZM789.588 248.931C773.232 248.931 757.379 242.86 745.806 231.727L747.564 229.96C759.392 241.088 775.748 247.16 792.359 246.402V248.931C791.602 248.931 790.597 248.931 789.844 248.931H789.588ZM796.385 315.971H729.952C709.384 315.971 692.708 332.735 692.708 353.412V354.679C692.708 375.356 709.384 392.12 729.952 392.12H796.385C816.954 392.12 833.626 375.356 833.626 354.679V353.412C833.626 332.735 816.954 315.971 796.385 315.971Z" fill="#101216"/>
<path d="M797.265 392.12H730.294C708.983 392.12 691.482 374.664 691.482 353.417V352.403C691.482 331.152 708.983 313.696 730.294 313.696H797.265C818.571 313.696 836.077 331.152 836.077 352.403V353.417C836.077 374.664 818.571 392.12 797.265 392.12ZM730.294 315.977C710.253 315.977 694.018 332.166 694.018 352.151V353.161C694.018 373.15 710.253 389.339 730.294 389.339H797.265C817.306 389.339 833.541 373.15 833.541 353.161V352.151C833.541 332.166 817.306 315.977 797.265 315.977H730.294Z" fill="white"/>
<path d="M730.826 315.927H728.293V392.12H730.826V315.927ZM764.79 315.927H762.252V392.12H764.79V315.927ZM798.496 315.927H795.963V392.12H798.496V315.927ZM871.747 85.5819C905.706 76.7203 841.333 4.326 815.227 27.1075C797.484 3.56656 762.762 -5.54602 735.893 6.60396C724.238 11.1603 712.325 24.5761 719.42 37.2325C682.417 35.714 653.015 75.2006 665.184 110.386C636.794 160.504 727.277 168.861 708.523 114.436C723.728 143.547 767.323 107.094 774.422 86.3397C765.549 113.931 803.567 111.148 817.255 97.4788C838.289 140.002 881.885 114.436 872 85.5819H871.747Z" fill="white"/>
<path d="M686.01 152.919C678.467 152.919 670.674 150.129 665.394 145.064C656.597 136.699 656.095 124.031 663.889 110.095C658.357 93.3736 661.627 74.368 672.936 59.1635C683.748 44.4688 700.087 35.853 717.178 35.853C715.418 31.7986 715.418 27.2377 717.178 22.93C719.946 15.5819 726.982 8.74064 735.277 5.44647C761.926 -6.7159 796.615 2.1523 814.714 25.464C822.002 19.8895 832.312 20.3965 844.127 26.4775C864.488 37.1198 882.838 61.7003 881.329 75.6364C880.827 80.9547 877.557 84.5029 872.026 86.5299C876.303 101.482 867.251 114.402 855.938 119.219C844.378 124.031 827.031 121.751 815.467 99.7074C806.169 107.815 787.564 112.375 777.258 106.041C774.243 104.014 770.974 100.719 770.974 94.6379C762.428 108.574 743.321 125.3 726.982 126.564C720.699 127.074 715.418 125.047 711.145 120.989C713.407 133.155 710.142 143.29 701.596 148.865C697.068 151.904 691.541 153.172 686.01 153.172V152.919ZM717.178 38.387C700.839 38.387 685.253 46.7486 674.696 60.6847C663.889 75.3794 660.619 93.6265 666.15 109.842V110.854C655.845 128.844 662.128 138.726 666.903 143.29C675.198 151.145 690.533 152.662 700.087 146.328C705.363 142.78 713.407 134.166 706.872 114.655L709.134 113.644C712.905 120.989 718.688 124.284 726.732 123.778C744.831 122.257 767.704 99.4546 772.232 85.7713L774.494 86.5299C771.981 94.385 773.236 100.466 778.516 103.509C787.313 109.08 806.169 105.283 814.965 96.412L816.224 95.1436L816.976 96.6649C827.784 118.456 844.127 120.989 854.935 116.429C865.491 112.122 874.037 99.7074 869.012 85.7713L868.51 84.5029H869.764C875.045 82.7288 877.808 79.6904 878.314 75.1266C879.819 62.206 861.72 38.6402 842.367 28.5049C835.828 24.9574 823.26 20.3965 814.714 27.9979L813.707 29.0114L812.954 27.9979C795.859 4.68625 761.926 -3.92867 735.783 7.72716C728.241 10.7677 721.451 17.1023 718.938 23.6902C717.429 28.2512 717.684 32.5589 719.946 36.6133L720.949 38.6402H718.688C718.186 38.6402 717.429 38.6402 716.927 38.6402L717.178 38.387Z" fill="#101216"/>
<path d="M742.887 165.84C738.365 165.84 734.094 164.824 730.073 162.788C729.567 162.534 729.317 161.768 729.567 161.006C729.818 160.498 730.574 160.244 731.327 160.498C739.619 164.571 749.922 164.063 757.461 158.97C757.963 158.462 758.719 158.97 759.221 159.224C759.722 159.732 759.221 160.498 758.97 161.006C754.197 164.063 748.668 165.84 743.138 165.84H742.887ZM819.03 167.877C814.507 167.877 810.232 166.861 806.211 164.824C805.71 164.57 805.459 163.804 805.71 163.042C805.96 162.534 806.717 162.28 807.469 162.534C815.761 166.607 826.064 166.099 833.604 161.006C834.105 160.498 834.862 161.006 835.363 161.26C835.865 161.768 835.363 162.534 835.112 163.042C830.335 166.099 824.81 167.877 819.28 167.877H819.03Z" fill="#101216"/>
<path d="M312.516 329.498C300.134 315.593 297.102 297.642 296.597 285.002C296.091 269.074 299.123 253.146 301.903 237.723L304.43 238.228C301.398 253.399 298.365 269.327 299.123 285.002C299.629 297.138 302.661 314.584 314.285 327.984L312.264 329.755L312.516 329.498ZM341.323 314.836C322.624 295.115 324.646 267.809 326.414 244.043V241.263H329.194V244.043C327.425 267.556 325.656 294.102 343.345 313.066L341.576 314.836H341.323Z" fill="#101216"/>
</svg>
