<svg width="273" height="96" viewBox="0 0 273 96" fill="none" xmlns="http://www.w3.org/2000/svg">
<path d="M62.0254 56.8066C63.977 68.6923 72.5641 75.3719 85.7374 75.3719C97.935 75.3719 105.937 69.0853 105.937 59.557C105.644 49.0466 98.2278 45.3138 86.1277 41.8757C78.8092 39.813 75.7842 38.3396 75.7842 35.5892C75.7842 32.4459 78.9069 30.3829 83.6883 30.3829C88.7626 30.3829 92.5681 33.2316 94.227 38.7324L104.961 35.6873C103.79 31.0706 101.253 27.4361 97.3495 24.5876C93.4463 21.7388 88.8601 20.3636 83.6883 20.3636C72.8569 20.3636 64.66 27.0432 64.66 35.7856C65.0504 45.1173 71.198 48.1625 82.5172 51.4041C91.202 54.0562 94.8125 56.0208 94.8125 60.0482C94.8125 63.2898 91.2995 65.3525 85.7374 65.3525C78.2237 65.3525 74.3205 61.9145 72.6618 54.0562L62.0254 56.8066Z" fill="#113C0B"/>
<path d="M113.742 96H125.452V69.7728H125.647C128.672 73.2108 133.844 75.3719 139.601 75.3719C152.969 75.3719 162.728 63.7808 162.728 47.8677C162.728 31.9547 152.969 20.3636 139.503 20.3636C133.746 20.3636 128.77 22.4265 125.354 25.9627H125.159V21.8372H113.742V96ZM151.018 47.8677C151.018 58.1819 145.944 64.5668 137.649 64.5668C134.234 64.5668 131.307 63.3879 128.965 61.0304C126.623 58.5748 125.452 55.6279 125.452 51.9934V43.6439C125.452 36.5714 130.721 31.1689 137.845 31.1689C146.041 31.1689 151.018 37.5538 151.018 47.8677Z" fill="#113C0B"/>
<path d="M171.49 73.8985H183.199V21.8372H171.49V73.8985Z" fill="#113C0B"/>
<path d="M193.979 73.8985H205.689V44.7245C205.689 36.4733 208.713 32.3476 214.764 32.3476C216.326 32.3476 218.18 32.6423 220.327 33.2317L222.376 21.7389C220.522 21.1495 218.472 20.8548 216.131 20.8548C211.348 20.8548 207.446 22.9175 205.202 26.3556H205.005V21.8372H193.979V73.8985Z" fill="#113C0B"/>
<path d="M223.857 47.8677C223.857 64.272 233.81 75.3719 248.154 75.3719C258.011 75.3719 265.621 71.1481 270.305 62.8969L261.718 56.6101C257.814 62.6021 253.912 65.1561 248.154 65.1561C240.837 65.1561 236.054 59.6553 235.664 51.3058H271.866V47.2784C271.866 31.3653 262.304 20.3636 247.959 20.3636C233.907 20.3636 223.857 31.6599 223.857 47.8677ZM235.761 42.6617C236.151 35.6873 241.324 30.5794 248.057 30.5794C255.375 30.5794 259.863 35.2944 260.255 42.6617H235.761Z" fill="#113C0B"/>
<path d="M169.264 7.85454C169.264 3.5166 172.767 0 177.089 0C181.412 0 184.915 3.5166 184.915 7.85454C184.915 12.1925 181.412 15.7091 177.089 15.7091C172.767 15.7091 169.264 12.1925 169.264 7.85454Z" fill="#113C0B"/>
<path d="M60.8654 73.8908H48.4559L44.418 62.1216L40.6754 51.333L30.5311 22.2039H30.3342L20.1899 51.333L16.4474 62.1216L12.4131 73.8816L11.484 73.8908H0L24.8189 5.23636H36.145L60.8654 73.8908Z" fill="#113C0B"/>
<path fill-rule="evenodd" clip-rule="evenodd" d="M48.8074 55.768C44.3458 61.4194 38.6719 65.9847 32.209 69.1228C25.7462 72.261 18.5498 73.8908 11.4844 73.8908V62.2087C16.9111 62.2087 22.2678 60.9764 27.1543 58.6036C32.0408 56.2309 36.331 52.779 39.7043 48.506L48.8074 55.768Z" fill="#113C0B"/>
</svg>
