<svg width="221" height="52" viewBox="0 0 221 52" fill="none" xmlns="http://www.w3.org/2000/svg">
<path d="M0 0H51.9973V51.9973H0V0Z" fill="#191C22"/>
<path d="M24.2665 29.4642L15.2559 12.6519H19.4161L24.6158 23.2249C24.6158 23.3985 24.7894 23.5721 24.963 23.7457C25.1366 23.9193 25.1366 24.0929 25.3102 24.4381L25.4838 24.6117V24.7853C25.6574 25.1325 25.6574 25.3061 25.831 25.6533C26.0046 25.8269 26.0046 26.1741 26.1782 26.3456C26.3518 25.8248 26.699 25.4776 26.8705 24.7853C27.0441 24.2645 27.3913 23.7457 27.7385 23.2249L32.9383 12.6519H36.7513L27.7406 29.6399V40.3865H24.2748L24.2665 29.4642Z" fill="white"/>
<path d="M72.8126 18.2796C75.0033 18.2796 76.9046 18.8645 78.3678 20.0363L76.9067 21.7929C75.5902 20.9167 74.2758 20.3318 72.67 20.3318C70.1838 20.3318 68.2845 21.6483 67.2615 24.1345C66.6767 25.5956 66.3853 27.4969 66.3853 29.9831C66.3853 31.8845 66.6746 33.4923 67.1169 34.6621C68.2866 37.4397 70.1879 38.7541 73.1102 38.7541C74.7181 38.7541 76.1813 38.3159 77.4957 37.2929L78.9568 39.1943C77.0555 40.364 75.0301 40.9509 72.8188 40.9509C70.1879 40.9509 67.9952 39.9279 66.2406 37.7352C64.4839 35.6685 63.7544 32.9116 63.7544 29.5512C63.7544 26.1908 64.6307 23.5579 66.3853 21.3672C67.9931 19.4659 70.1879 18.2961 72.8188 18.2961L72.8126 18.2796ZM81.1454 32.7525C81.1454 30.1216 81.7303 28.0735 83.0467 26.6145C84.3632 25.1554 85.9711 24.275 88.0171 24.275C90.3565 24.275 92.2537 25.1513 93.5723 27.0526C94.5953 28.5137 95.0334 30.5618 95.0334 33.0459C95.0334 35.9703 94.1571 38.3097 92.5472 39.7709C91.3366 40.8343 89.7728 41.4077 88.1617 41.3787C85.9711 41.3787 84.3591 40.6471 83.0447 39.0393C81.7282 37.5781 81.1433 35.3854 81.1433 32.7525H81.1454ZM91.3795 28.5158C90.6479 27.1993 89.6229 26.4491 88.0171 26.4491C86.4113 26.4491 85.3862 27.034 84.6546 28.2058C84.0697 29.0821 83.923 30.5453 83.923 32.4425C83.923 34.9287 84.2123 36.6791 84.946 37.7063C85.6797 38.7334 86.7027 39.3141 88.1617 39.3141C89.9184 39.3141 91.0861 38.4379 91.6709 36.8279C91.9603 35.9517 92.1091 34.7613 92.1091 33.3187C92.2537 31.1281 91.9644 29.5161 91.3775 28.4951L91.3795 28.5158ZM99.7082 28.8051C99.7082 27.1973 99.5635 25.8808 99.1233 24.8785L101.61 24.2936C102.048 25.0252 102.194 25.9015 102.194 26.6331V26.7777C102.779 26.1929 103.364 25.608 104.261 25.1699C105.284 24.585 106.162 24.2936 107.039 24.2936C108.355 24.2936 109.525 24.8785 110.254 25.9015C110.399 26.1908 110.693 26.6331 110.839 26.9245C112.596 25.1678 114.202 24.2936 115.956 24.2936C117.126 24.2936 118.147 24.7317 118.881 25.4633C119.612 26.3396 120.05 27.3647 120.05 28.5344V40.6657H117.38V28.6791C117.38 27.0712 116.649 26.3396 115.314 26.3396C114.582 26.3396 113.706 26.6289 112.974 27.2159C112.685 27.5052 112.098 27.9475 111.366 28.5323L111.077 28.8217V40.6637H108.299V29.2433C108.299 28.2203 108.155 27.4866 107.861 27.1766C107.423 26.7385 106.985 26.5917 106.253 26.5917C105.084 26.5917 103.767 27.3233 102.161 28.7824V40.7691H99.7103L99.7082 28.8051ZM124.564 17.6947L127.195 17.1099C127.484 18.2796 127.633 19.5961 127.633 21.2019V26.6103C129.094 25.1492 130.704 24.4197 132.312 24.4197C134.213 24.4197 135.821 25.1513 136.844 26.6103C138.014 28.0715 138.601 30.1195 138.601 32.6037C138.601 35.2345 138.016 37.2826 136.844 38.8905C135.672 40.4983 134.067 41.2299 132.165 41.2299C131.301 41.2461 130.446 41.045 129.679 40.6451C128.803 40.2069 128.218 39.7688 127.778 39.1839L127.34 40.9406H124.853C125.143 40.209 125.291 38.8739 125.291 36.8486V21.4933C125.147 19.7366 125.002 18.4222 124.56 17.6906L124.564 17.6947ZM128.801 27.6147C128.363 27.9041 127.924 28.3463 127.631 28.7845V37.1586C128.654 38.4751 129.97 39.0599 131.558 39.0599C132.874 39.0599 133.897 38.6218 134.482 37.5988C135.214 36.4291 135.652 34.8212 135.652 32.4817C135.652 30.4151 135.362 28.9725 134.629 28.0963C134.044 27.22 133.021 26.7798 131.558 26.7798C130.681 26.6351 129.656 26.9245 128.78 27.6561L128.801 27.6147ZM142.399 19.7614C142.399 19.1765 142.544 18.7384 142.984 18.3003C143.424 17.8621 143.86 17.7154 144.445 17.7154C145.03 17.7154 145.468 17.8601 145.906 18.3003C146.345 18.7405 146.491 19.1765 146.491 19.7614C146.491 20.3463 146.347 20.7844 145.906 21.2225C145.466 21.6607 145.03 21.8074 144.445 21.8074C143.86 21.8074 143.422 21.6627 142.984 21.2225C142.546 20.7823 142.399 20.3463 142.399 19.7614ZM143.007 40.7959V24.7173L145.638 24.2791V40.8001L143.007 40.7959ZM151.319 28.8051C151.319 27.6354 151.319 26.9038 151.174 26.6145C151.174 26.1763 150.885 25.7382 150.59 25.0066L153.076 24.275C153.476 25.0417 153.677 25.8966 153.661 26.7612C155.268 25.1533 157.023 24.275 158.778 24.275C159.654 24.275 160.386 24.4197 161.117 24.8599C161.849 25.3001 162.434 25.8829 162.725 26.6165C163.014 27.2014 163.163 27.7863 163.163 28.5179V40.798H160.677V29.8343C160.677 28.5179 160.532 27.6437 160.092 27.2035C159.864 26.9693 159.591 26.7837 159.29 26.658C158.988 26.5323 158.664 26.4689 158.337 26.4719C157.753 26.4719 156.876 26.7612 155.998 27.2035C155.186 27.6185 154.445 28.1614 153.805 28.8113V40.798H151.319V28.8051ZM169.01 28.2203L167.693 26.4636C169.884 25.0025 172.079 24.2729 174.418 24.2729C176.758 24.2729 178.221 25.1492 178.95 26.7591C179.24 27.344 179.24 28.2203 179.24 29.5367V30.413L179.095 35.6768V36.4084C179.095 37.2847 179.095 37.8695 179.24 38.3097C179.384 38.8946 179.825 39.3327 180.409 39.6262L179.093 41.3829C177.923 40.9447 177.192 40.2131 176.902 39.0434C175.441 40.5045 173.831 41.2341 172.223 41.2341C170.616 41.2341 169.299 40.7959 168.297 39.9176C167.42 39.186 166.98 38.0163 166.98 36.5551C166.942 35.7183 167.124 34.8861 167.509 34.1421C167.894 33.3981 168.468 32.7684 169.173 32.3164C170.634 31.2934 172.827 30.8553 175.46 30.8553H176.63V29.6855C176.63 28.3691 176.485 27.4949 176.045 27.1993C175.767 26.8998 175.427 26.6658 175.048 26.5142C174.669 26.3626 174.261 26.2973 173.854 26.3231C172.978 26.3231 171.953 26.6124 170.783 27.0547L169.026 28.2244L169.01 28.2203ZM176.76 36.8465L176.904 32.6099H175.588C173.248 32.6099 171.785 33.048 170.909 33.9263C170.324 34.5112 170.033 35.3875 170.033 36.5572C170.033 38.4585 170.909 39.4815 172.81 39.4815C173.64 39.434 174.442 39.1649 175.133 38.7022C175.823 38.2395 176.377 37.6001 176.737 36.8507L176.76 36.8465ZM187.577 24.7111H191.669L190.937 26.7777H187.575V37.1586C187.575 38.0349 187.719 38.6197 188.013 39.0599C188.302 39.3493 188.889 39.6448 189.621 39.6448C190.205 39.6448 190.79 39.5001 191.228 39.3555L191.518 40.9633C190.641 41.4015 189.761 41.5482 188.74 41.5482C186.254 41.5482 185.086 40.3785 185.086 37.8943V26.7839H182.894V24.7173H184.96V24.4279C184.96 24.1386 185.105 22.9668 185.25 21.0655V20.6253L187.88 20.0404C187.591 21.7971 187.591 23.4029 187.591 24.7193L187.577 24.7111ZM194.302 32.7504C194.302 30.1195 194.886 28.0715 196.203 26.6124C197.373 25.1513 199.127 24.2729 201.173 24.2729C203.513 24.2729 205.41 25.1492 206.728 27.0505C207.751 28.5117 208.19 30.5597 208.19 33.0439C208.19 35.9682 207.313 38.3077 205.703 39.7688C204.493 40.8322 202.929 41.4056 201.318 41.3767C199.127 41.3767 197.515 40.6451 196.201 39.0372C195.031 37.5761 194.3 35.3833 194.3 32.7504H194.302ZM204.682 28.5137C203.951 27.1973 202.926 26.4471 201.32 26.4471C199.714 26.4471 198.689 27.0319 197.958 28.2037C197.373 29.08 197.226 30.5432 197.226 32.4404C197.226 34.9266 197.515 36.6771 198.249 37.7042C198.983 38.7313 200.006 39.3121 201.465 39.3121C203.221 39.3121 204.389 38.4358 204.974 36.8259C205.263 35.9496 205.412 34.7592 205.412 33.3167C205.412 31.126 205.123 29.514 204.68 28.4931L204.682 28.5137ZM213.011 28.5096C213.011 27.0485 212.866 25.8787 212.426 25.0004L214.912 24.2688C215.312 25.0355 215.513 25.8904 215.497 26.755V27.0443C216.814 25.2877 218.275 24.4135 220.03 24.4135C220.319 24.4135 220.614 24.4135 220.906 24.5581L219.883 27.3357C219.593 27.1911 219.298 27.1911 219.151 27.1911C218.566 27.1911 217.835 27.3357 217.25 27.7759C216.665 28.2161 216.08 28.6522 215.789 29.2371C215.596 29.8021 215.498 30.3948 215.497 30.9917V41.077H213.011V28.5096Z" fill="#191C22"/>
</svg>
