<svg width="222" height="52" viewBox="0 0 222 52" fill="none" xmlns="http://www.w3.org/2000/svg">
<path d="M0.506348 0.00146484H52.5037V51.9988H0.506348V0.00146484Z" fill="white"/>
<path d="M24.7729 29.4657L15.7622 12.6533H19.9224L25.1221 23.2264C25.1221 23.4 25.2957 23.5736 25.4693 23.7472C25.6429 23.9208 25.6429 24.0944 25.8165 24.4395L25.9901 24.6131V24.7867C26.1637 25.1339 26.1637 25.3075 26.3373 25.6547C26.5109 25.8283 26.5109 26.1755 26.6845 26.3471C26.8581 25.8263 27.2053 25.4791 27.3769 24.7867C27.5505 24.2659 27.8977 23.7472 28.2449 23.2264L33.4446 12.6533H37.2576L28.2469 29.6413V40.388H24.7811L24.7729 29.4657Z" fill="#191C22"/>
<path d="M73.3189 18.2811C75.5096 18.2811 77.4109 18.8659 78.8741 20.0377L77.413 21.7944C76.0965 20.9181 74.7821 20.3333 73.1763 20.3333C70.6901 20.3333 68.7909 21.6497 67.7679 24.1359C67.183 25.5971 66.8916 27.4984 66.8916 29.9846C66.8916 31.8859 67.1809 33.4938 67.6232 34.6635C68.7929 37.4411 70.6943 38.7555 73.6165 38.7555C75.2244 38.7555 76.6876 38.3174 78.002 37.2944L79.4631 39.1957C77.5618 40.3655 75.5365 40.9524 73.3251 40.9524C70.6943 40.9524 68.5015 39.9294 66.7469 37.7367C64.9903 35.67 64.2607 32.9131 64.2607 29.5527C64.2607 26.1923 65.137 23.5593 66.8916 21.3687C68.4995 19.4673 70.6943 18.2976 73.3251 18.2976L73.3189 18.2811ZM81.6517 32.7539C81.6517 30.1231 82.2366 28.075 83.5531 26.6159C84.8695 25.1569 86.4774 24.2765 88.5234 24.2765C90.8629 24.2765 92.7601 25.1527 94.0786 27.0541C95.1016 28.5152 95.5397 30.5633 95.5397 33.0474C95.5397 35.9717 94.6635 38.3112 93.0535 39.7723C91.843 40.8358 90.2791 41.4091 88.6681 41.3802C86.4774 41.3802 84.8654 40.6486 83.551 39.0407C82.2345 37.5796 81.6497 35.3869 81.6497 32.7539H81.6517ZM91.8859 28.5173C91.1543 27.2008 90.1292 26.4506 88.5234 26.4506C86.9176 26.4506 85.8925 27.0355 85.1609 28.2073C84.5761 29.0835 84.4293 30.5467 84.4293 32.4439C84.4293 34.9301 84.7187 36.6806 85.4523 37.7077C86.186 38.7349 87.209 39.3156 88.6681 39.3156C90.4247 39.3156 91.5924 38.4393 92.1773 36.8294C92.4666 35.9531 92.6154 34.7627 92.6154 33.3202C92.7601 31.1295 92.4707 29.5175 91.8838 28.4966L91.8859 28.5173ZM100.215 28.8066C100.215 27.1987 100.07 25.8823 99.6297 24.8799L102.116 24.2951C102.554 25.0267 102.701 25.9029 102.701 26.6345V26.7792C103.286 26.1943 103.87 25.6095 104.767 25.1713C105.79 24.5865 106.669 24.2951 107.545 24.2951C108.861 24.2951 110.031 24.8799 110.761 25.9029C110.905 26.1923 111.199 26.6345 111.346 26.9259C113.102 25.1693 114.708 24.2951 116.463 24.2951C117.632 24.2951 118.653 24.7332 119.387 25.4648C120.119 26.3411 120.557 27.3661 120.557 28.5359V40.6672H117.887V28.6805C117.887 27.0727 117.155 26.3411 115.82 26.3411C115.088 26.3411 114.212 26.6304 113.48 27.2173C113.191 27.5067 112.604 27.9489 111.873 28.5338L111.583 28.8231V40.6651H108.806V29.2447C108.806 28.2217 108.661 27.4881 108.368 27.1781C107.929 26.7399 107.491 26.5932 106.76 26.5932C105.59 26.5932 104.273 27.3248 102.668 28.7839V40.7705H100.217L100.215 28.8066ZM125.07 17.6962L127.701 17.1113C127.991 18.2811 128.139 19.5975 128.139 21.2033V26.6118C129.6 25.1507 131.21 24.4211 132.818 24.4211C134.72 24.4211 136.327 25.1527 137.35 26.6118C138.52 28.0729 139.107 30.121 139.107 32.6051C139.107 35.236 138.522 37.2841 137.35 38.8919C136.179 40.4998 134.573 41.2314 132.672 41.2314C131.807 41.2476 130.952 41.0465 130.185 40.6465C129.309 40.2084 128.724 39.7703 128.284 39.1854L127.846 40.9421H125.36C125.649 40.2105 125.798 38.8754 125.798 36.8501V21.4947C125.653 19.7381 125.508 18.4237 125.066 17.6921L125.07 17.6962ZM129.307 27.6162C128.869 27.9055 128.431 28.3478 128.137 28.7859V37.1601C129.16 38.4765 130.477 39.0614 132.064 39.0614C133.38 39.0614 134.403 38.6233 134.988 37.6003C135.72 36.4305 136.158 34.8227 136.158 32.4832C136.158 30.4165 135.869 28.974 135.135 28.0977C134.55 27.2215 133.527 26.7813 132.064 26.7813C131.188 26.6366 130.163 26.9259 129.286 27.6575L129.307 27.6162ZM142.906 19.7629C142.906 19.178 143.05 18.7399 143.491 18.3017C143.931 17.8636 144.367 17.7169 144.952 17.7169C145.537 17.7169 145.975 17.8615 146.413 18.3017C146.851 18.7419 146.998 19.178 146.998 19.7629C146.998 20.3477 146.853 20.7859 146.413 21.224C145.973 21.6621 145.537 21.8089 144.952 21.8089C144.367 21.8089 143.929 21.6642 143.491 21.224C143.052 20.7838 142.906 20.3477 142.906 19.7629ZM143.513 40.7974V24.7187L146.144 24.2806V40.8015L143.513 40.7974ZM151.825 28.8066C151.825 27.6369 151.825 26.9053 151.681 26.6159C151.681 26.1778 151.391 25.7397 151.096 25.0081L153.582 24.2765C153.982 25.0432 154.183 25.898 154.167 26.7627C155.775 25.1548 157.529 24.2765 159.284 24.2765C160.16 24.2765 160.892 24.4211 161.623 24.8613C162.355 25.3015 162.94 25.8843 163.231 26.618C163.521 27.2029 163.669 27.7877 163.669 28.5193V40.7995H161.183V29.8358C161.183 28.5193 161.039 27.6451 160.598 27.2049C160.371 26.9708 160.098 26.7852 159.796 26.6595C159.494 26.5337 159.171 26.4704 158.844 26.4733C158.259 26.4733 157.383 26.7627 156.504 27.2049C155.692 27.62 154.952 28.1628 154.312 28.8128V40.7995H151.825V28.8066ZM169.516 28.2217L168.2 26.4651C170.39 25.0039 172.585 24.2744 174.925 24.2744C177.264 24.2744 178.727 25.1507 179.457 26.7606C179.746 27.3455 179.746 28.2217 179.746 29.5382V30.4145L179.601 35.6783V36.4099C179.601 37.2861 179.601 37.871 179.746 38.3112C179.891 38.8961 180.331 39.3342 180.916 39.6277L179.599 41.3843C178.43 40.9462 177.698 40.2146 177.409 39.0449C175.948 40.506 174.338 41.2355 172.73 41.2355C171.122 41.2355 169.805 40.7974 168.803 39.9191C167.927 39.1875 167.487 38.0177 167.487 36.5566C167.448 35.7198 167.63 34.8876 168.015 34.1436C168.4 33.3996 168.974 32.7699 169.679 32.3179C171.14 31.2949 173.333 30.8567 175.966 30.8567H177.136V29.687C177.136 28.3705 176.991 27.4963 176.551 27.2008C176.274 26.9013 175.933 26.6672 175.554 26.5157C175.176 26.3641 174.768 26.2988 174.36 26.3245C173.484 26.3245 172.459 26.6139 171.289 27.0561L169.533 28.2259L169.516 28.2217ZM177.266 36.848L177.411 32.6113H176.094C173.755 32.6113 172.292 33.0495 171.415 33.9278C170.83 34.5127 170.539 35.3889 170.539 36.5587C170.539 38.46 171.415 39.483 173.317 39.483C174.147 39.4355 174.949 39.1664 175.639 38.7037C176.33 38.241 176.884 37.6016 177.243 36.8521L177.266 36.848ZM188.083 24.7125H192.175L191.443 26.7792H188.081V37.1601C188.081 38.0363 188.226 38.6212 188.519 39.0614C188.808 39.3507 189.395 39.6463 190.127 39.6463C190.712 39.6463 191.297 39.5016 191.735 39.3569L192.024 40.9648C191.148 41.4029 190.267 41.5497 189.247 41.5497C186.76 41.5497 185.593 40.3799 185.593 37.8958V26.7854H183.4V24.7187H185.467V24.4294C185.467 24.1401 185.611 22.9683 185.756 21.0669V20.6267L188.387 20.0419C188.097 21.7985 188.097 23.4043 188.097 24.7208L188.083 24.7125ZM194.808 32.7519C194.808 30.121 195.393 28.0729 196.709 26.6139C197.879 25.1527 199.634 24.2744 201.68 24.2744C204.019 24.2744 205.916 25.1507 207.235 27.052C208.258 28.5131 208.696 30.5612 208.696 33.0453C208.696 35.9697 207.82 38.3091 206.21 39.7703C204.999 40.8337 203.435 41.4071 201.824 41.3781C199.634 41.3781 198.022 40.6465 196.707 39.0387C195.537 37.5775 194.806 35.3848 194.806 32.7519H194.808ZM205.189 28.5152C204.457 27.1987 203.432 26.4485 201.826 26.4485C200.221 26.4485 199.195 27.0334 198.464 28.2052C197.879 29.0815 197.732 30.5447 197.732 32.4419C197.732 34.9281 198.022 36.6785 198.755 37.7057C199.489 38.7328 200.512 39.3135 201.971 39.3135C203.728 39.3135 204.895 38.4373 205.48 36.8273C205.77 35.9511 205.918 34.7607 205.918 33.3181C205.918 31.1275 205.629 29.5155 205.187 28.4945L205.189 28.5152ZM213.517 28.5111C213.517 27.0499 213.373 25.8802 212.933 25.0019L215.419 24.2703C215.819 25.037 216.02 25.8918 216.004 26.7565V27.0458C217.32 25.2891 218.781 24.4149 220.536 24.4149C220.825 24.4149 221.121 24.4149 221.412 24.5596L220.389 27.3372C220.1 27.1925 219.804 27.1925 219.658 27.1925C219.073 27.1925 218.341 27.3372 217.756 27.7774C217.171 28.2176 216.586 28.6537 216.295 29.2385C216.103 29.8035 216.004 30.3963 216.004 30.9931V41.0785H213.517V28.5111Z" fill="white"/>
</svg>
