<svg width="195" height="58" viewBox="0 0 195 58" fill="none" xmlns="http://www.w3.org/2000/svg">
<path d="M20.2331 18.9149L15.0017 55.9085H8.92176L2.41797 2.31543H8.49762L12.8102 40.4949H12.8807L17.8998 2.31543H23.1311L28.2923 40.4156H28.3628L32.746 2.31543H38.0482L31.6856 55.9085H25.6057L20.3037 18.9149H20.2331Z" fill="#191C22"/>
<path d="M53.813 2.31543C62.2257 2.31543 65.1946 8.32285 65.1946 16.2273V41.997C65.1946 49.8224 62.2257 55.9088 53.813 55.9088H42.502V2.31543H53.813ZM48.7231 50.2174H53.0353C57.4184 50.2174 58.9735 47.2129 58.9735 43.1822V14.9628C58.9735 11.0101 57.4184 8.00657 53.0353 8.00657H48.7231V50.2174Z" fill="#191C22"/>
<path d="M70.6377 42.5494V15.6736C70.6377 7.76944 74.1726 1.76172 82.2314 1.76172C90.432 1.76172 93.8963 7.76944 93.8963 15.6736V42.5494C93.8963 50.3752 90.432 56.4619 82.2314 56.4619C74.1729 56.4619 70.6377 50.3749 70.6377 42.5494ZM87.6755 43.5773V14.6461C87.6755 10.6147 86.0492 7.53185 82.2317 7.53185C78.4851 7.53185 76.8591 10.6147 76.8591 14.6461V43.5773C76.8591 47.6083 78.4851 50.6912 82.2317 50.6912C86.0492 50.6912 87.6755 47.6083 87.6755 43.5773Z" fill="#191C22"/>
<path d="M192.425 29.0415H154.255V31.2576H192.425V29.0415Z" fill="#191C22"/>
<path d="M110.008 7.38723L108.017 19.534H106.605L104.476 3.87695H105.772L107.415 16.4858H107.438L109.452 3.87695H110.679L112.647 16.4166H112.67L114.337 3.87695H115.54L113.387 19.534H111.975L110.031 7.38723H110.008V7.38723Z" fill="#191C22"/>
<path d="M116.605 15.7704V7.64155C116.605 5.47079 117.67 3.73877 120.17 3.73877C122.693 3.73877 123.757 5.47079 123.757 7.64155V15.7701C123.757 17.9176 122.692 19.6729 120.17 19.6729C117.67 19.6729 116.605 17.9179 116.605 15.7704ZM122.438 15.9551V7.45693C122.438 6.002 121.767 4.82415 120.17 4.82415C118.596 4.82415 117.924 6.002 117.924 7.45693V15.9551C117.924 17.3867 118.596 18.5878 120.17 18.5878C121.767 18.5875 122.438 17.3867 122.438 15.9551Z" fill="#191C22"/>
<path d="M126.859 11.6368V19.5345H125.54V3.87744H128.642C130.864 3.87744 131.836 4.96282 131.836 6.83323V9.14239C131.836 11.0128 130.864 12.1674 128.572 12.1674H128.549L132.322 19.5342H130.864L126.859 11.6368ZM126.859 4.96282V11.1056H128.503C129.845 11.1056 130.493 10.4357 130.493 9.23516V6.81058C130.493 5.5865 129.845 4.96313 128.503 4.96313H126.859V4.96282Z" fill="#191C22"/>
<path d="M133.55 3.87744H134.869V18.4491H138.804V19.5345H133.55V3.87744Z" fill="#191C22"/>
<path d="M143.503 3.87744C146.142 3.87744 147.114 5.60946 147.114 7.75696V15.6547C147.114 17.7792 146.142 19.5342 143.503 19.5342H140.216V3.87744H143.503ZM141.536 18.4491H143.341C145.147 18.4491 145.795 17.2945 145.795 15.8626V7.54937C145.795 6.11771 145.147 4.96282 143.341 4.96282H141.536V18.4491Z" fill="#191C22"/>
<path d="M108.156 22.376C110.795 22.376 111.767 24.108 111.767 26.2555V34.1532C111.767 36.2774 110.795 38.0327 108.156 38.0327H104.869V22.376H108.156ZM106.189 36.9477H107.994C109.8 36.9477 110.448 35.7931 110.448 34.3614V26.0479C110.448 24.6162 109.8 23.4614 107.994 23.4614H106.189V36.9477Z" fill="#191C22"/>
<path d="M113.55 22.376H119.313V23.4614H114.869V29.5349H118.087V30.6203H114.869V36.9477H119.313V38.033H113.55V22.376Z" fill="#191C22"/>
<path d="M120.448 34.9848V32.5602H121.721V35.0081C121.721 36.3014 122.392 37.0864 123.827 37.0864C125.193 37.0864 125.818 36.1859 125.818 35.0081V34.1768C125.818 32.976 125.401 32.3294 124.244 31.244L122.646 29.6736C121.188 28.2649 120.517 27.4337 120.517 25.8171V25.2164C120.517 23.4152 121.674 22.2373 123.711 22.2373C125.91 22.2373 126.929 23.2765 126.929 25.3088V27.0176H125.679V25.2626C125.679 23.9231 125.031 23.3227 123.711 23.3227C122.554 23.3227 121.767 23.9693 121.767 25.2164V25.7705C121.767 26.9022 122.392 27.5488 123.457 28.5879L125.054 30.1583C126.466 31.567 127.137 32.4215 127.137 34.084V34.9386C127.137 36.7628 126.095 38.1715 123.804 38.1715C121.513 38.1715 120.448 36.8552 120.448 34.9848Z" fill="#191C22"/>
<path d="M128.805 22.376H130.124V38.033H128.805V22.376Z" fill="#191C22"/>
<path d="M135.61 30.0891H138.851V38.0331H137.74V36.6706C137.416 37.4556 136.721 38.1715 135.263 38.1715C132.879 38.1715 131.907 36.4168 131.907 34.269V26.1401C131.907 23.9693 132.948 22.2373 135.448 22.2373C138.087 22.2373 138.851 23.669 138.851 25.8397V27.2255H137.578V25.7476C137.578 24.2464 137.138 23.3227 135.472 23.3227C133.874 23.3227 133.226 24.5005 133.226 25.9555V34.4536C133.226 35.8853 133.828 37.0861 135.425 37.0861C136.999 37.0861 137.555 36.024 137.555 34.592V31.1745H135.61V30.0891H135.61Z" fill="#191C22"/>
<path d="M141.93 25.3318V38.0327H140.772V22.376H142.161L146.282 34.592V22.376H147.439V38.033H146.189L141.93 25.3318Z" fill="#191C22"/>
<path d="M104.846 52.6979V44.569C104.846 42.3982 105.911 40.6665 108.411 40.6665C110.934 40.6665 111.998 42.3982 111.998 44.569V52.6979C111.998 54.8457 110.934 56.6003 108.411 56.6003C105.911 56.6003 104.846 54.8457 104.846 52.6979ZM110.679 52.8828V44.3844C110.679 42.9297 110.008 41.7519 108.411 41.7519C106.837 41.7519 106.166 42.9297 106.166 44.3844V52.8828C106.166 54.3145 106.837 55.5153 108.411 55.5153C110.008 55.515 110.679 54.3142 110.679 52.8828Z" fill="#191C22"/>
<path d="M115.101 48.564V56.4617H113.781V40.8047H116.883C119.105 40.8047 120.077 41.8901 120.077 43.7605V46.0699C120.077 47.9403 119.105 49.0949 116.813 49.0949H116.79L120.563 56.4617H119.105L115.101 48.564ZM115.101 41.8901V48.0328H116.744C118.086 48.0328 118.735 47.3632 118.735 46.1624V43.7378C118.735 42.5137 118.086 41.8904 116.744 41.8904H115.101V41.8901Z" fill="#191C22"/>
<path d="M125.355 48.518H128.596V56.462H127.485V55.0995C127.161 55.8845 126.466 56.6003 125.008 56.6003C122.624 56.6003 121.652 54.8457 121.652 52.6979V44.569C121.652 42.3982 122.693 40.6665 125.193 40.6665C127.832 40.6665 128.596 42.0982 128.596 44.2689V45.6544H127.323V44.1765C127.323 42.6756 126.883 41.7519 125.217 41.7519C123.619 41.7519 122.972 42.9297 122.972 44.3844V52.8828C122.972 54.3145 123.573 55.5153 125.17 55.5153C126.745 55.5153 127.3 54.4532 127.3 53.0212V49.6034H125.356V48.518H125.355Z" fill="#191C22"/>
<path d="M130.078 56.4617L133.179 40.8047H134.8L137.948 56.4617H136.605L135.865 52.6747H132.068L131.351 56.4617H130.078ZM132.277 51.566H135.656L133.967 42.8833H133.943L132.277 51.566Z" fill="#191C22"/>
<path d="M140.471 43.7608V56.4617H139.314V40.8047H140.703L144.823 53.0207V40.8047H145.98V56.4617H144.731L140.471 43.7608Z" fill="#191C22"/>
<path d="M147.786 40.8047H149.105V56.4617H147.786V40.8047Z" fill="#191C22"/>
<path d="M152.045 55.3764H156.767V56.4617H150.656V55.3764L155.517 41.8901H151.119V40.8047H156.953V41.8901L152.045 55.3764Z" fill="#191C22"/>
<path d="M158.086 56.4617L161.188 40.8047H162.808L165.957 56.4617H164.614L163.873 52.6747H160.077L159.359 56.4617H158.086ZM160.286 51.566H163.665L161.975 42.8833H161.952L160.286 51.566Z" fill="#191C22"/>
<path d="M165.702 40.8047H172.16V41.8901H169.591V56.4617H168.272V41.8901H165.702V40.8047V40.8047Z" fill="#191C22"/>
<path d="M173.573 40.8047H174.892V56.4617H173.573V40.8047Z" fill="#191C22"/>
<path d="M176.674 52.6979V44.569C176.674 42.3982 177.739 40.6665 180.239 40.6665C182.762 40.6665 183.827 42.3982 183.827 44.569V52.6979C183.827 54.8457 182.762 56.6003 180.239 56.6003C177.739 56.6003 176.674 54.8457 176.674 52.6979ZM182.508 52.8828V44.3844C182.508 42.9297 181.836 41.7519 180.239 41.7519C178.665 41.7519 177.994 42.9297 177.994 44.3844V52.8828C177.994 54.3145 178.665 55.5153 180.239 55.5153C181.836 55.515 182.508 54.3142 182.508 52.8828Z" fill="#191C22"/>
<path d="M186.767 43.7608V56.4617H185.61V40.8047H186.999L191.119 53.0207V40.8047H192.276V56.4617H191.027L186.767 43.7608Z" fill="#191C22"/>
</svg>
