<svg width="195" height="58" viewBox="0 0 195 58" fill="none" xmlns="http://www.w3.org/2000/svg">
<path d="M20.5876 18.9818L15.3562 55.9754H9.27625L2.77246 2.38232H8.85211L13.1646 40.5618H13.2352L18.2543 2.38232H23.4856L28.6467 40.4825H28.7173L33.1005 2.38232H38.4027L32.0401 55.9754H25.9602L20.6582 18.9818H20.5876Z" fill="white"/>
<path d="M54.1675 2.38232C62.5802 2.38232 65.5491 8.38974 65.5491 16.2942V42.0639C65.5491 49.8893 62.5802 55.9757 54.1675 55.9757H42.8564V2.38232H54.1675ZM49.0776 50.2843H53.3898C57.7729 50.2843 59.328 47.2798 59.328 43.2491V15.0297C59.328 11.077 57.7729 8.07346 53.3898 8.07346H49.0776V50.2843Z" fill="white"/>
<path d="M70.9922 42.6163V15.7405C70.9922 7.83634 74.527 1.82861 82.5859 1.82861C90.7865 1.82861 94.2508 7.83634 94.2508 15.7405V42.6163C94.2508 50.4421 90.7865 56.5288 82.5859 56.5288C74.5274 56.5288 70.9922 50.4418 70.9922 42.6163ZM88.03 43.6442V14.713C88.03 10.6816 86.4037 7.59875 82.5862 7.59875C78.8396 7.59875 77.2136 10.6816 77.2136 14.713V43.6442C77.2136 47.6752 78.8396 50.7581 82.5862 50.7581C86.4037 50.7581 88.03 47.6752 88.03 43.6442Z" fill="white"/>
<path d="M192.78 29.1084H154.61V31.3245H192.78V29.1084Z" fill="white"/>
<path d="M110.362 7.45412L108.372 19.6009H106.959L104.83 3.94385H106.126L107.77 16.5527H107.793L109.807 3.94385H111.034L113.001 16.4835H113.024L114.691 3.94385H115.895L113.742 19.6009H112.33L110.385 7.45412H110.362Z" fill="white"/>
<path d="M116.959 15.8373V7.70845C116.959 5.53768 118.024 3.80566 120.524 3.80566C123.047 3.80566 124.112 5.53768 124.112 7.70845V15.837C124.112 17.9845 123.047 19.7398 120.524 19.7398C118.024 19.7398 116.959 17.9848 116.959 15.8373ZM122.793 16.022V7.52383C122.793 6.06889 122.121 4.89105 120.524 4.89105C118.95 4.89105 118.279 6.06889 118.279 7.52383V16.022C118.279 17.4536 118.95 18.6547 120.524 18.6547C122.121 18.6544 122.793 17.4536 122.793 16.022Z" fill="white"/>
<path d="M127.214 11.7037V19.6014H125.895V3.94434H128.996C131.218 3.94434 132.191 5.02972 132.191 6.90013V9.20928C132.191 11.0797 131.218 12.2343 128.926 12.2343H128.903L132.676 19.6011H131.218L127.214 11.7037ZM127.214 5.02972V11.1725H128.857C130.2 11.1725 130.848 10.5026 130.848 9.30206V6.87747C130.848 5.65339 130.2 5.03003 128.857 5.03003H127.214V5.02972Z" fill="white"/>
<path d="M133.904 3.94434H135.224V18.516H139.159V19.6014H133.904V3.94434Z" fill="white"/>
<path d="M143.858 3.94434C146.497 3.94434 147.469 5.67636 147.469 7.82385V15.7216C147.469 17.8461 146.497 19.6011 143.858 19.6011H140.571V3.94434H143.858ZM141.891 18.516H143.696C145.502 18.516 146.15 17.3614 146.15 15.9295V7.61627C146.15 6.1846 145.502 5.02972 143.696 5.02972H141.891V18.516Z" fill="white"/>
<path d="M108.511 22.4429C111.15 22.4429 112.122 24.1749 112.122 26.3224V34.2201C112.122 36.3443 111.15 38.0996 108.511 38.0996H105.224V22.4429H108.511ZM106.543 37.0146H108.348C110.154 37.0146 110.802 35.86 110.802 34.4283V26.1148C110.802 24.6831 110.154 23.5283 108.348 23.5283H106.543V37.0146Z" fill="white"/>
<path d="M113.904 22.4429H119.668V23.5283H115.224V29.6018H118.441V30.6872H115.224V37.0146H119.668V38.0999H113.904V22.4429Z" fill="white"/>
<path d="M120.803 35.0517V32.6271H122.076V35.075C122.076 36.3682 122.747 37.1533 124.182 37.1533C125.548 37.1533 126.173 36.2528 126.173 35.075V34.2437C126.173 33.0429 125.756 32.3963 124.599 31.3109L123.001 29.7405C121.543 28.3318 120.872 27.5006 120.872 25.884V25.2833C120.872 23.482 122.029 22.3042 124.066 22.3042C126.265 22.3042 127.284 23.3434 127.284 25.3757V27.0845H126.034V25.3295C126.034 23.99 125.386 23.3896 124.066 23.3896C122.909 23.3896 122.122 24.0362 122.122 25.2833V25.8374C122.122 26.969 122.747 27.6157 123.812 28.6548L125.409 30.2252C126.821 31.6339 127.492 32.4884 127.492 34.1509V35.0055C127.492 36.8296 126.45 38.2383 124.159 38.2383C121.868 38.2383 120.803 36.9221 120.803 35.0517Z" fill="white"/>
<path d="M129.159 22.4429H130.479V38.0999H129.159V22.4429Z" fill="white"/>
<path d="M135.964 30.156H139.205V38.1H138.094V36.7375C137.77 37.5225 137.075 38.2383 135.617 38.2383C133.233 38.2383 132.261 36.4837 132.261 34.3359V26.207C132.261 24.0362 133.302 22.3042 135.802 22.3042C138.441 22.3042 139.205 23.7359 139.205 25.9066V27.2924H137.932V25.8145C137.932 24.3133 137.492 23.3896 135.826 23.3896C134.228 23.3896 133.58 24.5674 133.58 26.0224V34.5205C133.58 35.9522 134.182 37.153 135.779 37.153C137.353 37.153 137.909 36.0909 137.909 34.6589V31.2414H135.964V30.156H135.964Z" fill="white"/>
<path d="M142.284 25.3987V38.0996H141.127V22.4429H142.516L146.636 34.6589V22.4429H147.793V38.0999H146.544L142.284 25.3987Z" fill="white"/>
<path d="M105.201 52.7648V44.6359C105.201 42.4651 106.265 40.7334 108.765 40.7334C111.288 40.7334 112.353 42.4651 112.353 44.6359V52.7648C112.353 54.9126 111.288 56.6672 108.765 56.6672C106.265 56.6672 105.201 54.9126 105.201 52.7648ZM111.034 52.9497V44.4513C111.034 42.9966 110.362 41.8188 108.765 41.8188C107.191 41.8188 106.52 42.9966 106.52 44.4513V52.9497C106.52 54.3814 107.192 55.5822 108.765 55.5822C110.362 55.5819 111.034 54.381 111.034 52.9497Z" fill="white"/>
<path d="M115.455 48.6309V56.5286H114.136V40.8716H117.237C119.46 40.8716 120.432 41.957 120.432 43.8274V46.1368C120.432 48.0072 119.46 49.1618 117.168 49.1618H117.145L120.918 56.5286H119.46L115.455 48.6309ZM115.455 41.957V48.0997H117.099C118.441 48.0997 119.089 47.4301 119.089 46.2293V43.8047C119.089 42.5806 118.441 41.9573 117.099 41.9573H115.455V41.957Z" fill="white"/>
<path d="M125.709 48.5849H128.95V56.5288H127.839V55.1664C127.515 55.9514 126.82 56.6672 125.362 56.6672C122.978 56.6672 122.006 54.9126 122.006 52.7648V44.6359C122.006 42.4651 123.047 40.7334 125.547 40.7334C128.186 40.7334 128.95 42.1651 128.95 44.3358V45.7213H127.677V44.2434C127.677 42.7425 127.237 41.8188 125.571 41.8188C123.973 41.8188 123.326 42.9966 123.326 44.4513V52.9497C123.326 54.3814 123.927 55.5822 125.524 55.5822C127.099 55.5822 127.654 54.52 127.654 53.0881V49.6703H125.71V48.5849H125.709Z" fill="white"/>
<path d="M130.432 56.5286L133.533 40.8716H135.154L138.302 56.5286H136.959L136.219 52.7416H132.422L131.705 56.5286H130.432ZM132.631 51.6329H136.01L134.321 42.9502H134.297L132.631 51.6329Z" fill="white"/>
<path d="M140.826 43.8277V56.5286H139.669V40.8716H141.058L145.178 53.0876V40.8716H146.335V56.5286H145.086L140.826 43.8277Z" fill="white"/>
<path d="M148.141 40.8716H149.46V56.5286H148.141V40.8716Z" fill="white"/>
<path d="M152.399 55.4433H157.122V56.5286H151.011V55.4433L155.872 41.957H151.474V40.8716H157.307V41.957L152.399 55.4433Z" fill="white"/>
<path d="M158.44 56.5286L161.542 40.8716H163.162L166.311 56.5286H164.968L164.227 52.7416H160.431L159.713 56.5286H158.44ZM160.64 51.6329H164.019L162.329 42.9502H162.306L160.64 51.6329Z" fill="white"/>
<path d="M166.057 40.8716H172.515V41.957H169.945V56.5286H168.626V41.957H166.057V40.8716Z" fill="white"/>
<path d="M173.927 40.8716H175.246V56.5286H173.927V40.8716Z" fill="white"/>
<path d="M177.029 52.7648V44.6359C177.029 42.4651 178.094 40.7334 180.594 40.7334C183.117 40.7334 184.182 42.4651 184.182 44.6359V52.7648C184.182 54.9126 183.117 56.6672 180.594 56.6672C178.094 56.6672 177.029 54.9126 177.029 52.7648ZM182.863 52.9497V44.4513C182.863 42.9966 182.191 41.8188 180.594 41.8188C179.02 41.8188 178.349 42.9966 178.349 44.4513V52.9497C178.349 54.3814 179.02 55.5822 180.594 55.5822C182.191 55.5819 182.863 54.381 182.863 52.9497Z" fill="white"/>
<path d="M187.122 43.8277V56.5286H185.965V40.8716H187.354L191.474 53.0876V40.8716H192.631V56.5286H191.382L187.122 43.8277Z" fill="white"/>
</svg>
