<svg width="243" height="64" viewBox="0 0 243 64" fill="none" xmlns="http://www.w3.org/2000/svg">
<g clip-path="url(#clip0_3052_140)">
<path d="M116.036 11.8754H115.475C111.187 11.8754 106.88 11.8754 102.592 11.8572C101.579 11.8572 100.801 11.0595 100.783 10.0261C100.764 7.30651 100.783 4.58697 100.783 1.88555C100.783 0.870255 101.543 0.0725212 102.556 0H127.362C128.068 0 128.683 0.199433 129.081 0.797734C129.262 1.08782 129.335 1.45042 129.443 1.7949C129.479 1.88555 129.443 2.01246 129.443 2.10312V61.8062C129.443 62.894 128.9 63.6555 127.96 63.855C127.779 63.8912 127.58 63.8912 127.381 63.8912H102.827C101.524 63.8912 100.764 63.1297 100.764 61.8425V54.0646C100.764 52.7955 101.506 52.034 102.773 52.034H116.018C116.036 38.6538 116.036 25.2918 116.036 11.8754ZM60.5419 11.8754V52.034H61.1028C65.2825 52.034 69.4441 52.0702 73.6238 52.0159C75.1436 51.9977 75.8855 53.0312 75.8493 54.2459C75.8131 56.766 75.8493 59.2861 75.8312 61.8062C75.8312 62.894 75.2703 63.6555 74.3475 63.855C74.1666 63.8912 73.9675 63.9093 73.7685 63.9093H49.2152C47.8943 63.9093 47.1344 63.166 47.1344 61.8425V2.10312C47.1344 0.761473 47.8943 0 49.2152 0H73.7685C75.0532 0 75.8312 0.761473 75.8493 2.04873C75.8674 4.65949 75.8493 7.27025 75.8493 9.88102C75.8493 11.1139 74.8541 11.8935 73.9133 11.8754C69.6431 11.8391 65.3911 11.8754 61.1209 11.8754H60.5419Z" fill="white"/>
<path d="M97.1096 33.3054V40.9926C97.1096 41.8447 96.8562 42.0804 96.0058 42.0804H90.9396C90.252 42.0804 89.9444 41.7722 89.9444 41.0833V22.3003C89.9444 21.575 90.2339 21.285 90.9577 21.285H95.3906C96.0058 21.285 96.4763 21.5025 96.8562 22.0283C98.8465 24.7841 100.837 27.5218 102.827 30.2595C102.918 30.3864 103.008 30.4952 103.171 30.7127C103.189 30.4589 103.189 30.2957 103.189 30.1507V22.4634C103.189 21.5569 103.442 21.3031 104.347 21.3031H109.232C110.101 21.3031 110.39 21.5932 110.39 22.4816V40.9382C110.39 41.8266 110.119 42.0986 109.232 42.0986C107.821 42.0986 106.392 42.0804 104.98 42.0986C104.329 42.1167 103.859 41.8629 103.479 41.3552C101.434 38.7445 99.3894 36.1337 97.3448 33.5411C97.2905 33.4685 97.2362 33.4323 97.1096 33.3054ZM71.923 27.413H66.8205C65.9882 27.413 65.7168 27.1411 65.7168 26.2889V22.3003C65.7168 21.575 66.0244 21.2668 66.73 21.2668H85.2219C85.9095 21.2668 86.199 21.575 86.2171 22.264V26.3796C86.2171 27.1048 85.9095 27.3949 85.1857 27.3949H80.0471V35.9343H84.7696C84.9867 35.9343 85.1857 35.9524 85.4029 35.9705C85.9457 36.0249 86.199 36.2606 86.2171 36.7864C86.2352 38.2549 86.2352 39.7054 86.2171 41.1739C86.2171 41.7722 85.8733 42.0442 85.2038 42.0442H66.7662C66.0606 42.0442 65.753 41.736 65.753 41.0289V36.9496C65.753 36.2062 66.0606 35.9161 66.8024 35.9161H71.9591C71.923 33.0878 71.923 30.2776 71.923 27.413ZM3.03979 12.4736V24.2402C3.20263 24.1496 3.32929 24.077 3.43785 24.0045C7.61753 21.0855 16.2845 22.1371 17.931 30.1869C18.4919 32.8884 18.2929 35.5535 16.9358 38.0011C15.4702 40.6481 13.118 42.1348 10.2049 42.715C6.69474 43.4039 3.41976 42.6606 0.307622 41.0107C2.74163e-05 40.8476 2.74125e-05 40.63 2.74125e-05 40.358V29.081C2.74125e-05 24.077 2.74125e-05 19.0549 -0.0180664 14.051C-0.0180664 13.6521 0.0724026 13.4708 0.470467 13.3439C1.33897 13.1082 2.15319 12.7818 3.03979 12.4736ZM3.03979 33.1966C3.03979 35.064 3.05788 36.9314 3.03979 38.7988C3.03979 39.1433 3.13026 39.3065 3.45595 39.4153C5.39199 40.0861 7.36421 40.3943 9.40881 40.0861C12.2495 39.6328 14.1856 37.9467 14.8551 35.2453C15.1446 34.0668 15.1988 32.8521 15.0722 31.6555C14.837 29.5343 14.0227 27.7031 12.2134 26.4521C10.6573 25.3824 8.92028 25.2011 7.1109 25.4731C5.73577 25.6725 4.45111 26.0895 3.34738 26.996C3.13026 27.1773 3.03979 27.3586 3.03979 27.6487V33.1966ZM187.904 22.7354H190.854V24.8204C191.143 24.5665 191.378 24.349 191.614 24.1496C194.527 21.6657 198.616 21.3031 201.71 23.2793C203.049 24.1314 204.098 25.2736 204.732 26.7241C206.197 30.0419 206.251 33.4141 204.732 36.7139C202.94 40.5575 199.032 42.5699 194.852 41.9535C193.459 41.7541 192.156 41.3733 190.89 40.5575V48.5167C190.89 48.9156 190.799 49.0425 190.383 49.0243C189.569 48.9881 188.755 49.0243 187.922 49.0243C187.904 40.2493 187.904 31.5105 187.904 22.7354ZM190.854 32.7614C190.854 34.3025 190.872 35.8436 190.836 37.3665C190.836 37.711 190.944 37.9105 191.234 38.0918C192.862 39.1252 194.671 39.5603 196.571 39.4515C199.104 39.3065 200.968 38.0555 201.963 35.6986C202.922 33.4323 202.976 31.0572 202.235 28.7184C201.728 27.1229 200.66 25.9626 199.086 25.328C196.354 24.2221 193.224 25.0379 191.143 27.3767C190.98 27.5581 190.872 27.8481 190.872 28.0838C190.854 29.6612 190.854 31.2204 190.854 32.7614ZM40.0959 32.8521H23.9743C23.9924 34.3932 24.2457 35.8436 25.0419 37.1671C26.1818 39.0164 27.9007 39.9411 29.9815 40.1767C32.8041 40.5031 35.482 39.9048 38.0151 38.6175C38.1237 38.5631 38.2323 38.5088 38.3589 38.4544V41.4277C36.5314 42.2436 34.6135 42.7331 32.6051 42.8963C30.7776 43.0413 28.9682 42.9688 27.2131 42.3524C23.721 41.1558 21.6764 38.6719 21.025 35.064C20.6813 33.1966 20.7174 31.3292 21.2241 29.498C22.2554 25.7813 24.7524 23.6056 28.4797 22.7898C30.5605 22.3365 32.6232 22.3728 34.5954 23.2793C37.3638 24.5665 38.9379 26.8328 39.6255 29.7337C39.8788 30.7309 39.9512 31.7643 40.0959 32.8521ZM36.8209 30.5496C36.839 30.4952 36.8571 30.477 36.8571 30.4408V30.3139C36.64 28.4827 35.8439 26.9779 34.2335 25.9988C32.008 24.6572 28.733 24.8929 26.5075 26.5246C25.1504 27.5218 24.3905 28.8816 24.101 30.5496H36.8209ZM232.723 21.992C235.726 22.0646 238.332 22.9348 240.358 25.1105C241.715 26.5609 242.457 28.3195 242.729 30.2957C243.054 32.7252 242.801 35.0821 241.571 37.2578C240.159 39.7779 237.934 41.2102 235.147 41.8085C232.831 42.298 230.551 42.1167 228.38 41.1739C225.015 39.6872 223.223 37.0402 222.807 33.4323C222.554 31.2566 222.807 29.1173 223.821 27.1411C225.304 24.2583 227.765 22.7173 230.895 22.1552C231.13 22.119 231.366 22.0827 231.619 22.0646C232.017 22.0464 232.415 22.0283 232.723 21.992ZM232.216 24.5847C231.04 24.5847 229.466 25.1105 228.109 26.2527C225.214 28.7003 225.105 33.7405 226.933 36.4238C228.597 38.8895 231.022 39.7597 233.881 39.3971C236.378 39.0708 238.205 37.7473 239.236 35.4085C239.834 34.0306 239.96 32.562 239.834 31.0753C239.49 27.2317 236.649 24.5847 232.216 24.5847ZM175.691 37.4572C177.808 32.4714 179.871 27.5943 181.933 22.7354H184.919C184.702 23.2793 184.485 23.8051 184.267 24.3127C180.884 32.2175 177.482 40.1042 174.135 48.0272C173.791 48.843 173.411 49.1694 172.543 49.0606C171.946 48.9881 171.348 49.0425 170.679 49.0425C171.005 48.2629 171.312 47.5558 171.62 46.8487C172.398 45.0357 173.194 43.2408 173.954 41.4096C174.026 41.2283 174.026 40.9563 173.954 40.775L166.409 23.098C166.355 22.9892 166.318 22.8804 166.264 22.7173C167.332 22.7173 168.345 22.6991 169.358 22.7354C169.467 22.7354 169.593 22.9348 169.648 23.0617C171.149 26.6153 172.633 30.1688 174.117 33.7224C174.623 34.919 175.13 36.1156 175.691 37.4572ZM151.174 25.6725C149.871 25.3824 148.623 25.0379 147.356 24.8566C144.859 24.4759 142.507 24.911 140.661 26.7603C138.454 28.9541 138.02 31.6736 138.942 34.5382C139.829 37.3122 141.874 38.8532 144.714 39.2884C146.777 39.5966 148.749 39.1614 150.703 38.4906C150.812 38.4544 150.921 38.4181 151.047 38.3637H151.174V41.0651C151.174 41.1377 151.083 41.2464 150.993 41.2827C147.012 42.443 143.104 42.6062 139.467 40.2311C136.88 38.545 135.667 36.0249 135.45 32.9971C135.288 30.8034 135.613 28.6821 136.753 26.7603C138.237 24.2765 140.499 22.8804 143.267 22.3003C145.836 21.7564 148.387 22.0102 150.884 22.826C151.011 22.8623 151.156 23.0617 151.156 23.1886C151.192 24.0226 151.174 24.8748 151.174 25.6725ZM211.046 25.2374H207.717C207.826 24.9835 207.862 24.766 207.988 24.6028C209.834 22.4634 211.68 20.3422 213.543 18.2391C213.652 18.1122 213.833 18.0578 213.978 17.9671C214.014 18.1303 214.104 18.2935 214.104 18.4566C214.122 19.6895 214.104 20.9224 214.104 22.1733V22.6991H220.347V25.2374H214.104V36.0249C214.104 36.5144 214.14 37.0221 214.213 37.5116C214.394 38.5088 214.882 38.8895 215.914 38.8714C217.289 38.8351 218.591 38.545 219.876 38.0736C220.039 38.0192 220.22 37.9467 220.437 37.8742C220.437 38.7263 220.437 39.5241 220.419 40.3399C220.419 40.4306 220.31 40.5575 220.22 40.5937C218.302 41.464 216.312 41.9173 214.213 41.5909C212.783 41.3733 211.824 40.5031 211.444 39.1252C211.209 38.2549 211.083 37.3122 211.083 36.4056C211.046 32.8702 211.064 29.3529 211.064 25.8175C211.046 25.6362 211.046 25.4731 211.046 25.2374ZM155.136 22.7354H158.104V27.0685C158.14 27.0867 158.176 27.1229 158.212 27.1411C159.497 23.8232 162.03 22.3547 165.432 22.119V25.3643C164.78 25.4549 164.093 25.4912 163.441 25.6362C160.456 26.3071 158.9 28.3014 158.339 31.1841C158.176 32.0362 158.122 32.9246 158.104 33.7949C158.068 36.1156 158.086 38.4362 158.086 40.7569V41.319H155.118C155.136 35.1546 155.136 28.9541 155.136 22.7354Z" fill="white"/>
</g>
<defs>
<clipPath id="clip0_3052_140">
<rect width="243" height="64" fill="white"/>
</clipPath>
</defs>
</svg>
