<svg width="822" height="770" viewBox="0 0 822 770" fill="none" xmlns="http://www.w3.org/2000/svg">
<path d="M579.637 79.5626C626.448 86.5607 657.817 108.761 636.1 158.229C635.859 184.773 668.917 192.253 683.394 209.627C697.872 227.001 694.735 251.132 680.016 265.37C673.501 271.641 664.091 276.953 664.091 286.12C664.091 295.291 674.949 302.048 681.705 309.53C699.561 330.039 658.541 352.723 641.167 350.067C627.655 347.896 624.277 397.123 604.973 380.955C596.769 375.888 587.6 367.924 578.672 371.784C559.367 391.089 538.376 405.327 511.833 386.748C504.351 380.955 497.595 372.269 488.427 373.476C472.744 381.437 452.957 386.989 439.926 370.821C426.895 354.652 437.755 335.106 439.685 315.801C438.237 308.081 429.792 304.462 423.517 299.877C407.108 288.294 401.559 263.681 411.453 246.064C428.825 221.934 435.825 215.901 422.313 185.979C412.901 164.985 438.959 150.99 452.716 138.201C471.536 88.2497 529.931 78.1147 579.637 79.5626Z" fill="white"/>
<path d="M536.443 396.638C552.611 396.638 566.605 385.781 579.395 372.75C586.392 370.095 593.632 374.921 600.629 379.747L604.249 382.162C605.55 383.402 607.118 384.33 608.832 384.872C610.547 385.418 612.363 385.563 614.142 385.299C620.656 383.851 624.759 374.921 628.619 366.476C632.48 358.031 636.099 350.308 640.925 351.274C653.714 353.204 677.361 342.829 684.842 328.832C686.758 325.727 687.584 322.072 687.191 318.447C686.798 314.818 685.207 311.424 682.67 308.804C680.536 306.514 678.28 304.337 675.913 302.288C670.364 297.462 665.055 292.636 665.297 286.12C665.538 279.605 670.846 274.779 676.396 270.193L680.981 266.093C688.351 258.562 692.734 248.609 693.311 238.088C693.888 227.566 690.621 217.194 684.118 208.903C679.05 202.629 671.57 197.562 664.09 192.735C650.336 183.565 637.306 174.878 637.306 158.47C645.993 138.682 646.475 122.274 639.478 109.243C632.48 96.2127 610.522 82.9407 579.877 78.3559H579.636C532.101 76.908 471.295 86.0777 451.508 137.476C448.763 140.065 445.863 142.483 442.822 144.715C429.791 155.574 413.383 168.846 421.346 186.461C433.41 213.729 428.584 220.485 413.864 240.514L410.486 245.34C400.111 263.438 405.904 288.776 422.794 300.84L426.895 303.737C431.962 306.874 437.27 310.493 438.478 315.801C437.794 321.318 436.5 326.738 434.618 331.969C430.755 344.518 426.895 357.549 438.959 371.543C451.023 385.54 466.469 385.781 488.668 374.68C495.183 373.958 500.732 378.784 506.04 383.61L510.866 387.711C518.268 393.25 527.201 396.368 536.443 396.638ZM583.497 369.613C581.683 369.6 579.882 369.928 578.188 370.58H577.947C559.367 389.159 538.617 403.879 512.314 385.54L507.729 381.677C501.939 376.369 495.906 371.061 488.186 372.025H487.942C466.228 382.885 451.023 382.162 440.889 369.613C430.755 357.064 433.17 344.759 437.029 332.451C438.94 327.066 440.234 321.478 440.889 315.801C439.685 309.286 433.651 305.426 428.102 301.807L423.999 299.151C408.315 287.809 402.767 263.922 412.416 246.788L415.794 242.203C430.755 221.692 436.307 214.212 423.517 185.737C416.279 169.811 431.24 157.746 444.267 146.887C447.472 144.494 450.535 141.915 453.438 139.165H453.679C472.74 88.7317 532.583 79.8035 579.395 81.2514C609.477 85.9165 628.78 95.8103 637.306 110.932C644.062 123.239 643.339 139.165 635.135 158.228V158.711C634.893 176.568 649.371 185.979 663.125 195.148C670.364 199.974 677.603 204.801 682.67 210.833C694.976 226.036 693.528 251.373 679.533 264.885L674.948 268.748C669.157 273.815 663.125 278.883 663.125 286.602C663.125 294.325 668.916 299.633 674.707 304.703L680.981 310.975C683.265 313.193 684.724 316.122 685.119 319.282C685.514 322.438 684.82 325.64 683.153 328.35C675.913 341.14 653.231 351.033 641.408 349.344C634.893 348.137 631.032 356.823 626.689 365.994C622.346 375.162 619.209 382.162 613.9 383.366C612.458 383.572 610.988 383.437 609.607 382.978C608.225 382.515 606.969 381.742 605.938 380.714L602.318 378.058C596.286 373.714 590.012 369.613 583.497 369.613Z" fill="#101216"/>
<path d="M617.002 721.291C704.352 808.643 788.117 753.282 796.804 744.596C875.225 666.17 747.338 398.561 692.564 368.396C633.928 335.822 415.557 344.749 404.697 414.729C388.772 517.283 385.635 614.773 392.391 718.775" fill="#101216"/>
<path d="M513.04 372.269L502.662 271.882L579.877 263.922L590.253 364.305" fill="white"/>
<path d="M511.833 372.269L514.244 372.025L504.11 272.849L578.912 265.37L589.046 364.546L591.46 364.305L581.084 262.714L501.454 270.678L511.833 372.269Z" fill="#101216"/>
<path d="M612.211 156.781C615.055 153.39 618.867 150.949 623.136 149.785C627.405 148.62 631.928 148.788 636.1 150.265C640.194 151.857 643.857 154.39 646.792 157.66C649.726 160.93 651.85 164.844 652.99 169.087C655.21 177.652 654.618 186.704 651.301 194.907C647.76 204.356 641.347 212.458 632.963 218.072C624.373 223.553 614.044 225.619 604.007 223.864C614.261 203.078 617.154 179.425 612.211 156.781Z" fill="white"/>
<path d="M611.246 225.793C619.14 225.711 626.844 223.366 633.446 219.037C642.208 213.336 648.894 204.957 652.508 195.147C655.797 186.77 656.388 177.574 654.197 168.845C652.952 164.391 650.692 160.286 647.594 156.853C644.496 153.42 640.644 150.752 636.341 149.058C631.946 147.504 627.179 147.342 622.689 148.594C618.198 149.846 614.203 152.452 611.246 156.055V157.021C616.171 179.405 613.364 202.797 603.283 223.38L602.56 224.828H604.007C606.383 225.385 608.807 225.708 611.246 225.793ZM628.861 150.264C631.162 150.314 633.441 150.721 635.617 151.471C639.519 152.978 643.014 155.378 645.821 158.479C648.628 161.58 650.671 165.295 651.784 169.327C653.965 177.654 653.372 186.464 650.095 194.423C646.696 203.685 640.443 211.628 632.239 217.106C624.46 222.151 615.116 224.209 605.938 222.898C615.464 202.322 618.169 179.242 613.659 157.021C615.529 154.832 617.865 153.09 620.495 151.921C623.125 150.752 625.984 150.186 628.861 150.264ZM503.869 348.86C531.135 364.787 563.953 362.616 588.565 338.484C599.182 328.109 613.177 347.411 608.11 359.479C597.251 384.333 567.572 395.193 541.995 398.812C516.418 402.431 478.533 378.781 488.668 353.686C489.275 352.305 490.171 351.069 491.291 350.057C492.415 349.049 493.738 348.291 495.177 347.835C496.615 347.379 498.134 347.232 499.634 347.411C501.133 347.588 502.578 348.083 503.869 348.86Z" fill="#101216"/>
<path d="M536.202 400.26H542.236C562.023 397.364 597.01 388.434 609.075 360.201C612.694 352.238 608.109 341.14 601.594 336.795C599.597 335.164 597.042 334.377 594.472 334.602C591.903 334.827 589.523 336.047 587.84 338.003C564.675 360.686 532.824 364.546 504.351 348.137C502.87 347.267 501.22 346.731 499.512 346.564C497.803 346.397 496.079 346.605 494.457 347.171C492.942 347.659 491.548 348.471 490.382 349.556C489.214 350.639 488.298 351.968 487.701 353.445C484.082 362.131 485.771 371.302 492.287 379.747C501.939 391.815 520.278 400.26 536.202 400.26ZM595.079 336.795C596.894 336.869 598.65 337.457 600.147 338.484C605.938 342.344 610.04 351.997 606.903 358.997C595.321 386.022 561.056 394.708 541.754 397.605C522.449 400.501 504.592 391.33 494.216 378.058C491.355 374.87 489.432 370.946 488.664 366.73C487.897 362.51 488.318 358.162 489.875 354.171C490.363 353.005 491.086 351.952 492.001 351.082C492.913 350.208 493.995 349.534 495.183 349.1C496.5 348.667 497.896 348.526 499.271 348.693C500.648 348.86 501.971 349.328 503.147 350.067C532.583 366.957 565.642 362.857 589.529 339.451C590.232 338.661 591.085 338.022 592.038 337.566C592.991 337.11 594.024 336.847 595.079 336.795ZM610.522 127.583C618.244 175.12 618.968 244.375 579.878 280.087C570.15 289.094 557.855 294.842 544.705 296.528C531.559 298.217 518.21 295.757 506.525 289.499C455.853 262.232 447.889 182.6 448.612 132.891C448.795 122.571 451.531 112.457 456.576 103.452C496.631 33.4729 592.667 41.4359 610.522 127.583Z" fill="white"/>
<path d="M536.443 298.185C552.791 298.217 568.554 292.103 580.602 281.054C624.759 240.755 617.038 160.159 611.729 127.582C603.525 88.4908 578.43 61.7058 544.166 56.3968C509.903 51.0881 474.914 69.1858 455.609 102.969C450.487 112.216 447.671 122.564 447.405 133.132C446.682 179.704 452.957 262.473 505.799 290.706C515.211 295.767 525.759 298.342 536.443 298.185ZM609.557 127.824C614.625 160.158 622.346 239.548 578.913 279.124C569.357 287.912 557.322 293.532 544.451 295.218C531.578 296.9 518.499 294.566 507.006 288.532C453.438 259.577 449.094 170.052 449.819 132.891C449.999 122.723 452.738 112.765 457.783 103.934C476.603 71.1163 510.385 53.2598 543.925 58.5688C577.465 63.8774 601.595 89.6972 609.557 127.824Z" fill="#101216"/>
<path d="M517.863 203.594L518.589 201.422C514.437 199.671 510.667 197.131 507.488 193.941C512.838 189.766 517.208 184.473 520.297 178.431C523.387 172.39 525.117 165.746 525.371 158.966C525.621 152.185 524.392 145.432 521.762 139.177C519.129 132.922 515.166 127.318 510.144 122.756L508.455 124.445C513.252 128.937 517.025 134.407 519.524 140.485C522.022 146.564 523.184 153.108 522.931 159.676C522.51 166.207 520.673 172.568 517.549 178.318C514.424 184.068 510.086 189.07 504.833 192.976L503.869 193.7L504.833 194.665C508.439 198.595 512.896 201.65 517.863 203.594ZM521.242 241.237C528.184 241.052 535.008 239.408 541.269 236.411L540.306 234.239C522.208 242.444 506.525 239.548 495.906 225.794L493.976 227.241C497.097 231.559 501.191 235.077 505.931 237.51C510.67 239.942 515.917 241.219 521.242 241.237ZM556.956 170.052C552.823 170.052 549.474 166.703 549.474 162.571C549.474 158.44 552.823 155.091 556.956 155.091C561.085 155.091 564.434 158.44 564.434 162.571C564.434 166.703 561.085 170.052 556.956 170.052Z" fill="#101216"/>
<path d="M569.742 392.778L571.915 392.056C567.019 379.051 559.457 367.214 549.715 357.308L548.025 358.997C557.473 368.675 564.858 380.168 569.742 392.778ZM594.838 377.336L597.01 376.369C592.753 365.23 586.077 355.176 577.465 346.93L575.775 348.86C584.188 356.798 590.704 366.53 594.838 377.336Z" fill="white"/>
<path d="M497.838 170.777C493.706 170.777 490.356 167.427 490.356 163.296C490.356 159.165 493.706 155.816 497.838 155.816C501.968 155.816 505.317 159.165 505.317 163.296C505.317 167.427 501.968 170.777 497.838 170.777Z" fill="#101216"/>
<path d="M527.757 355.135C527.423 344.297 524.263 333.732 518.589 324.491C516.659 321.594 514.244 318.457 510.625 317.975C507.006 317.49 504.11 320.387 502.18 323.524C499.56 327.384 498.057 331.896 497.838 336.555C497.691 337.9 497.832 339.262 498.246 340.553C498.664 341.84 499.345 343.029 500.25 344.037C501.673 345.167 503.317 345.989 505.076 346.448C512.073 348.86 519.311 351.516 527.757 355.135Z" fill="white"/>
<path d="M529.205 356.823V354.893C528.897 343.94 525.647 333.273 519.796 324.006C518.107 321.112 515.211 317.249 511.11 317.008C507.006 316.768 502.662 320.871 501.217 322.801C498.59 326.928 497.094 331.671 496.872 336.555C496.728 338.086 496.914 339.634 497.412 341.089C497.912 342.547 498.715 343.879 499.769 345C501.201 346.304 502.948 347.219 504.836 347.656C511.833 350.067 519.311 352.482 527.516 356.101L529.205 356.823ZM510.144 319.182H510.625C513.04 319.423 515.211 321.353 517.622 325.213C522.741 333.722 525.798 343.308 526.553 353.204C518.83 350.067 512.074 347.656 505.317 345.485C503.853 344.958 502.472 344.226 501.217 343.311C500.424 342.386 499.823 341.314 499.451 340.151C499.078 338.992 498.94 337.768 499.043 336.555C499.219 332.072 500.639 327.727 503.147 324.006C503.869 323.042 506.525 319.182 510.144 319.182Z" fill="#101216"/>
<path d="M429.31 332.451H590.978V363.531H429.31V332.451Z" fill="white"/>
<path d="M428.102 364.546H592.184V331.247H428.102V364.546ZM589.771 362.134H430.514V333.658H589.771V362.134Z" fill="#101216"/>
<path d="M401.078 347.896L428.102 332.451C428.584 331.969 429.31 332.451 429.31 333.176C429.31 333.899 433.895 337.036 434.859 346.689C435.825 356.341 429.31 362.616 429.31 362.616C429.31 362.616 428.584 363.82 428.102 363.339L401.078 347.896Z" fill="white"/>
<path d="M428.343 364.787H429.551C429.92 364.476 430.174 364.052 430.273 363.58C431.962 362.372 437.029 357.549 435.822 346.93C435.6 341.744 433.741 336.76 430.514 332.692L429.551 331.488H427.377L398.663 348.137L427.377 364.787H428.343ZM428.102 333.658L428.584 334.14C428.584 334.14 432.688 337.759 433.651 346.689C434.618 355.616 428.825 361.409 428.584 361.65L428.102 362.131L403.489 347.896L428.102 333.658Z" fill="#101216"/>
<path d="M400.837 347.896L410.245 342.588C410.486 342.344 410.727 342.588 410.727 342.829C411.877 344.091 412.557 345.709 412.66 347.414C412.837 348.426 412.753 349.466 412.416 350.439C412.076 351.409 411.498 352.279 410.727 352.963C410.727 353.204 410.486 353.445 410.245 353.204L400.837 347.896Z" fill="#101216"/>
<path d="M597.996 332.843C595.564 332.843 591.304 331.927 589.584 333.645C587.864 335.367 589.308 340.305 589.308 342.739L589.584 363.027H594.837C601.93 363.027 607.406 358.946 607.406 351.853V342.495C607.345 340.148 606.385 337.913 604.723 336.25C603.062 334.589 600.345 332.904 597.996 332.843Z" fill="white"/>
<path d="M588.805 364.546H594.597C598.5 364.546 602.244 362.995 605.005 360.237C607.765 357.475 609.316 353.731 609.316 349.826V345.966C609.316 342.062 607.765 338.317 605.005 335.559C602.244 332.798 598.5 331.247 594.597 331.247H588.805V364.546ZM594.597 333.658C597.86 333.658 600.99 334.955 603.298 337.264C605.606 339.573 606.903 342.701 606.903 345.966V349.826C606.903 353.092 605.606 356.22 603.298 358.528C600.99 360.837 597.86 362.134 594.597 362.134H591.218V333.658H594.597Z" fill="#101216"/>
<path d="M575.535 332.451H590.013V363.531H575.535V332.451Z" fill="#101216"/>
<path d="M582.532 332.451H584.945V363.531H582.532V332.451Z" fill="white"/>
<path d="M433.17 338.725H578.43V341.14H433.17V338.725ZM434.136 351.997H578.43V354.412H434.136V351.997Z" fill="#101216"/>
<path d="M568.294 396.157C532.342 328.35 385.635 323.524 529.687 392.778C518.83 388.196 494.457 373.476 487.945 391.815C486.012 397.605 486.497 407.257 493.012 409.672C479.015 406.294 465.743 424.633 474.914 436.215C462.606 430.423 452.716 448.28 462.606 455.762C476.604 466.137 507.007 497.988 523.656 511.745C527.275 512.708 538.858 515.123 541.754 512.467C607.627 450.21 630.55 495.817 568.294 396.157Z" fill="white"/>
<path d="M536.684 514.882C538.729 515.142 540.797 514.625 542.477 513.433C556.413 500.133 572.078 488.772 589.047 479.649C598.457 474.341 604.248 471.204 605.696 465.411C607.144 459.621 599.664 444.179 578.188 409.672L569.261 395.675C549.715 358.512 495.183 338.484 474.189 342.103C468.399 343.311 466.71 345.966 466.469 348.137C465.503 355.619 479.497 367.442 506.766 382.403C502.72 381.215 498.397 381.385 494.457 382.885C492.633 383.643 490.992 384.792 489.66 386.25C488.324 387.711 487.329 389.445 486.738 391.33C485.29 396.156 485.049 403.638 488.668 407.98C485.611 408.266 482.663 409.264 480.062 410.899C477.464 412.533 475.287 414.759 473.707 417.392C472.085 419.823 471.103 422.623 470.849 425.532C470.595 428.441 471.08 431.37 472.259 434.041C469.735 433.557 467.121 433.907 464.815 435.037C462.507 436.17 460.631 438.023 459.469 440.316C456.576 445.142 456.091 452.383 461.884 456.725C467.673 461.07 481.43 473.859 493.253 485.201C505.077 496.54 514.97 506.192 522.93 512.708H523.415C527.75 513.893 532.198 514.618 536.684 514.882ZM479.256 344.277C500.491 344.277 548.51 361.409 567.09 396.882C570.468 401.949 573.362 406.535 576.017 411.117C596.768 443.694 605.213 457.451 603.283 464.929C601.353 472.411 596.768 472.652 587.84 477.478C570.696 486.749 554.872 498.274 540.788 511.744C539.099 513.433 529.927 512.226 524.379 510.537C516.415 504.262 505.558 493.646 494.942 483.512C484.323 473.375 470.811 460.344 463.332 454.795C461.44 453.196 460.217 450.945 459.902 448.488C459.591 446.032 460.211 443.546 461.643 441.523C462.783 439.269 464.761 437.554 467.15 436.742C469.542 435.93 472.156 436.087 474.429 437.179L475.396 437.664L476.363 435.975L475.878 435.249C471.536 429.941 472.981 423.185 475.637 418.84C478.292 414.495 485.53 409.187 492.768 410.876L493.494 408.465C487.701 406.535 487.46 397.605 489.149 392.056C489.589 390.486 490.382 389.037 491.471 387.824C492.56 386.61 493.911 385.662 495.424 385.059C503.143 381.677 515.933 387.711 524.379 391.574L529.446 393.986L530.412 391.574C483.6 369.132 467.914 354.653 468.881 348.378C469.121 345.966 472.018 345 474.429 344.518L479.256 344.277Z" fill="#101216"/>
<path d="M492.611 408.651L518.49 419.318L517.568 421.547L491.693 410.883L492.611 408.651ZM494.701 448.039L495.665 445.624C488 442.657 480.643 438.938 473.707 434.526L472.5 436.456C479.51 441.026 486.943 444.905 494.701 448.039Z" fill="#101216"/>
<path d="M146.267 282.501H186.082C202.074 282.501 215.037 295.465 215.037 311.459V366.957C215.037 382.952 202.074 395.915 186.082 395.915H146.267C130.276 395.915 117.313 382.952 117.313 366.957V311.459C117.313 295.465 130.276 282.501 146.267 282.501Z" fill="white"/>
<path d="M148.541 320.909H188.115C192.097 320.909 196.037 320.123 199.713 318.591C203.387 317.059 206.723 314.815 209.527 311.989C212.33 309.163 214.549 305.811 216.048 302.121C217.551 298.435 218.309 294.485 218.277 290.503V235.246C218.277 227.244 215.098 219.572 209.443 213.918C203.785 208.26 196.114 205.081 188.115 205.081H148.541C144.559 205.048 140.612 205.806 136.926 207.309C133.236 208.809 129.884 211.028 127.058 213.831C124.229 216.634 121.988 219.971 120.456 223.647C118.924 227.321 118.138 231.264 118.138 235.246V290.503C118.106 294.507 118.87 298.473 120.386 302.179C121.904 305.881 124.143 309.247 126.972 312.076C129.801 314.905 133.166 317.143 136.868 318.662C140.571 320.177 144.54 320.942 148.541 320.909ZM188.115 207.495C195.452 207.556 202.475 210.501 207.667 215.693C212.857 220.883 215.801 227.905 215.862 235.246V290.503C215.862 297.886 212.946 304.969 207.751 310.213C202.552 315.457 195.494 318.434 188.115 318.498H148.541C141.117 318.498 133.998 315.547 128.747 310.297C123.5 305.05 120.549 297.927 120.549 290.503V235.246C120.614 227.864 123.59 220.806 128.834 215.607C134.075 210.411 141.158 207.495 148.541 207.495H188.115Z" fill="#101216"/>
<path d="M206.592 358.271C243.511 353.927 304.557 520.186 304.557 520.186C304.557 520.186 368.26 417.151 423.035 376.61C472.018 479.89 502.421 595.716 462.85 703.099C462.336 704.602 461.36 705.906 460.057 706.814C458.756 707.726 662.622 725.762 500.309 720.907H366.618L302.628 708.648C223.001 700.443 147.716 532.254 125.273 399.775C121.654 378.781 180.049 361.409 206.592 358.271Z" fill="#101216"/>
<path d="M313.969 567.727C316.866 549.148 309.624 529.842 303.835 514.638L301.423 515.363C307.694 531.291 314.451 549.389 311.558 567.243L313.969 567.727ZM676.879 487.613L679.051 486.646C669.458 462.524 663.756 437.031 662.16 411.117H659.989C661.466 437.359 667.17 463.189 676.879 487.613Z" fill="white"/>
<path d="M743.477 577.862C709.213 506.433 638.513 442.246 604.007 440.316C590.495 439.593 522.93 512.467 524.138 524.531C525.345 536.599 603.766 687.172 614.866 703.822" fill="#101216"/>
<path d="M613.901 704.547L615.832 703.099C604.008 685.486 526.794 538.769 525.345 524.29C524.864 518.982 541.513 497.025 563.23 474.582C584.946 452.139 598.941 441.283 604.008 441.523C637.548 443.453 708.248 506.918 742.512 578.343L744.684 577.38C709.937 505.229 638.513 441.042 604.008 439.112H603.767C594.598 439.112 569.261 464.929 561.541 472.893C542.477 492.68 522.208 517.293 522.934 524.534C524.379 540.458 602.802 688.139 613.901 704.547Z" fill="white"/>
<path d="M551.647 583.41C597.393 556.257 634.404 516.564 658.299 469.033L656.128 467.826C632.556 515.02 595.856 554.404 550.44 581.24L551.647 583.41Z" fill="white"/>
<path d="M641.167 494.369L643.339 492.921C630.422 473.118 611.212 458.24 588.806 450.691L588.082 452.865C609.892 460.424 628.568 475.025 641.167 494.369ZM622.105 522.36L624.036 520.912C608.657 500.409 588.972 483.525 566.364 471.444L565.401 473.618C587.638 485.525 606.994 502.162 622.105 522.36ZM595.32 551.559L596.286 549.385C573.983 536.977 554.245 520.434 538.132 500.643L536.202 502.332C552.659 522.29 572.712 538.987 595.32 551.559ZM353.058 707.925C405.133 636.85 432.354 550.605 430.514 462.514H428.102C429.962 550.011 402.905 635.678 351.128 706.236L353.058 707.925ZM145.301 481.82C188.716 473.108 229.173 453.42 262.812 424.629L261.367 422.699C227.965 451.195 187.855 470.712 144.819 479.408L145.301 481.82Z" fill="white"/>
<path d="M245.922 436.215L248.337 435.489C238.623 405.953 219.992 380.155 195.01 361.649L193.561 363.579C218.146 381.754 236.449 407.145 245.922 436.215Z" fill="white"/>
<path d="M350.887 32.5874C279.706 22.9351 238.443 17.1435 150.371 1.94131C143.442 0.703414 136.316 1.09517 129.566 3.08575C122.813 5.07634 116.616 8.61083 111.468 13.4102C106.318 18.2092 102.355 24.1412 99.8923 30.7362C97.4325 37.3315 96.5398 44.4092 97.2848 51.4091C103.559 110.288 155.679 131.523 147.716 225.39C136.859 358.591 -27.2236 408.544 5.59094 547.779C39.3721 692.081 189.46 782.329 308.661 748.063C345.338 737.444 403.974 701.489 405.904 663.363C410.73 561.05 280.429 588.316 210.692 523.165C213.83 506.271 289.84 395.754 307.935 357.869C352.336 264.242 318.795 144.554 338.823 140.451C354.506 137.314 364.641 136.591 375.257 116.079C389.254 87.8465 374.775 35.7244 350.887 32.5874Z" fill="white"/>
<path d="M256.056 756.509C274.003 756.573 291.87 754.139 309.143 749.268C347.991 737.926 405.419 701.008 407.108 663.604C410.004 600.384 363.433 586.145 309.624 569.496C274.88 558.877 239.166 547.779 211.9 522.681C214.556 513.028 236.754 477.558 258.471 443.292C280.188 409.026 300.457 376.208 309.143 358.351C335.927 301.405 334.479 234.802 333.271 190.885C332.549 164.1 332.067 143.106 339.064 141.658L342.442 140.934C356.196 138.28 366.33 136.108 376.223 116.562C386.117 97.0165 381.772 67.5768 372.845 50.203C366.812 39.1027 359.092 32.3462 350.888 31.3809C280.91 21.7289 238.684 15.9373 150.612 0.734822C143.484 -0.546741 136.153 -0.147924 129.204 1.8995C122.258 3.94724 115.884 7.58738 110.589 12.5306C105.294 17.4735 101.225 23.5833 98.7075 30.3745C96.1868 37.1658 95.2876 44.4506 96.0775 51.6506C98.4891 75.2986 108.383 92.9143 118.761 111.495C134.685 139.969 151.335 169.408 146.508 225.391C141.682 284.996 105.73 327.948 70.7418 369.693C27.308 421.816 -13.7111 470.801 4.3837 548.02C21.2743 619.93 68.571 683.391 133.963 721.761C173.052 744.682 215.519 756.509 256.056 756.509ZM350.647 33.7941C358.125 34.7594 365.122 41.0333 370.675 51.4094C379.361 68.3009 383.702 96.2924 374.053 115.356C364.4 134.419 355.714 135.867 341.961 138.521L338.582 139.245C329.652 141.176 330.134 159.997 330.86 190.885C332.067 234.802 333.515 300.92 306.972 357.147C298.286 375.245 277.051 409.026 256.297 441.843C233.135 479.006 211.178 513.754 209.488 522.921V523.647L209.97 524.129C237.718 549.95 273.913 561.05 309.143 571.907C361.985 588.075 407.834 602.313 404.937 663.364C403.248 699.8 347.028 735.755 308.661 746.856C254.608 762.299 191.391 752.405 135.408 719.587C70.5009 681.462 23.689 618.722 7.03931 547.294C-10.8178 471.524 29.7195 422.779 72.9125 371.141C107.901 329.152 144.338 285.959 149.164 225.635C153.99 165.306 136.615 137.797 121.173 110.288C110.797 91.949 101.145 74.5748 98.7332 51.4094C97.9336 44.6056 98.7621 37.7094 101.154 31.2897C103.547 24.8703 107.429 19.1118 112.486 14.4897C117.464 9.75233 123.488 6.25604 130.071 4.28537C136.653 2.31469 143.609 1.92486 150.368 3.14798C238.443 18.3505 280.91 24.1417 350.888 33.7941H350.647Z" fill="#101216"/>
<path d="M235.065 755.301L236.269 753.371C220.814 742.884 207.966 728.989 198.722 712.757C189.477 696.525 184.079 678.388 182.945 659.744C180.53 623.308 181.738 568.047 219.138 507.479L216.967 506.271C179.326 567.322 178.119 623.064 180.53 659.744C181.638 678.799 187.139 697.337 196.599 713.913C206.059 730.492 219.225 744.656 235.065 755.301ZM351.128 664.33H355.714C363.677 662.397 370.915 653.952 372.364 645.025C373.083 642.032 372.816 638.885 371.599 636.056C370.379 633.227 368.279 630.87 365.607 629.338C364.307 628.866 362.907 628.754 361.548 629.007C360.19 629.261 358.925 629.878 357.885 630.786C357.079 631.493 356.472 632.402 356.134 633.42C355.794 634.437 355.733 635.529 355.955 636.579L358.369 635.854C358.218 635.272 358.254 634.656 358.469 634.094C358.687 633.532 359.073 633.05 359.574 632.716C360.197 632.026 361.015 631.541 361.921 631.326C362.826 631.111 363.774 631.175 364.641 631.512C366.834 632.8 368.542 634.771 369.502 637.128C370.459 639.482 370.617 642.09 369.949 644.543C368.745 652.747 362.229 660.467 355.232 661.915C343.89 662.882 336.168 659.744 332.549 652.503C328.93 645.265 333.03 623.549 344.857 611.481C356.68 599.417 366.815 597.969 377.431 602.795L378.394 600.624C366.815 595.316 354.025 598.694 343.165 609.792C332.308 620.893 324.829 642.128 330.378 653.711C333.03 658.537 338.582 664.33 351.128 664.33Z" fill="#101216"/>
<path d="M336.89 660.711L338.338 658.778C308.42 640.68 289.356 630.546 270.776 620.652C243.568 606.758 217.147 591.37 191.631 574.563L190.424 576.734C215.981 593.605 242.489 608.993 269.813 622.823C288.148 632.716 307.213 642.854 336.89 660.711ZM345.095 122.113C349.198 122.113 354.266 120.423 360.055 115.115C365.848 109.806 369.949 93.3971 365.366 83.7448C364.262 81.3461 362.358 79.4068 359.978 78.2614C357.602 77.1163 354.898 76.8367 352.336 77.4709V79.884C357.403 79.1599 361.022 80.8493 362.952 84.9515C366.811 93.156 362.711 109.082 358.366 113.184C350.406 120.423 343.405 121.63 336.893 117.045C322.896 106.669 317.588 70.2317 327 49.4794C331.1 40.7923 339.546 31.14 356.195 35.2422L356.921 32.829C342.442 29.4509 331.1 35.001 324.826 48.5141C314.692 70.4731 320.484 107.875 335.445 118.976C338.242 121.03 341.627 122.13 345.095 122.113Z" fill="#101216"/>
<path d="M338.583 120.423V118.01L310.591 115.114C240.614 107.392 153.506 97.7401 102.834 74.092L101.871 76.2637C152.783 100.153 240.132 109.806 310.35 117.527L338.583 120.423ZM162.828 121.16L304.943 147.501L304.503 149.874L162.388 123.533L162.828 121.16ZM247.916 155.909L307.229 166.902L306.789 169.275L247.476 158.281L247.916 155.909ZM167.503 185.156L309.618 211.496L309.178 213.869L167.063 187.529L167.503 185.156ZM105.534 378.186L239.368 427.429L238.536 429.692L104.7 380.45L105.534 378.186ZM33.5376 568.927L161.688 633.664L160.599 635.818L32.449 571.082L33.5376 568.927ZM239.259 672.695L316.779 705.599L315.835 707.822L238.318 674.917L239.259 672.695ZM85.5933 627.787L165.104 666.225L164.054 668.399L84.5433 629.958L85.5933 627.787ZM139.004 414.947L230.717 448.693L229.886 450.957L138.169 417.211L139.004 414.947ZM163.161 348.907L254.875 382.653L254.04 384.916L162.327 351.171L163.161 348.907ZM252.832 219.662L312.145 230.657L311.705 233.03L252.392 222.035L252.832 219.662Z" fill="#101216"/>
<path d="M144.886 207.752C170.703 208.719 197.487 210.408 220.171 218.613C224.03 219.82 227.649 221.509 229.097 224.161C230.546 226.817 227.649 230.677 223.549 232.607C218.982 234.309 214.179 235.285 209.314 235.503C187.838 237.192 166.121 237.677 144.645 237.918" fill="white"/>
<path d="M149.33 238.139C170.083 237.898 192.282 237.417 213.999 235.728C219.015 235.439 223.966 234.466 228.719 232.831C231.448 231.617 233.67 229.482 234.99 226.797C235.253 226.139 235.369 225.43 235.327 224.72C235.285 224.01 235.089 223.32 234.749 222.697C233.301 219.56 229.2 217.63 225.337 216.422C202.657 208.459 176.595 206.77 149.811 205.565V207.977C176.595 209.184 202.416 210.633 224.856 218.593C227.993 219.8 231.853 221.489 232.819 223.663C233.057 224.02 233.185 224.44 233.185 224.868C233.185 225.298 233.057 225.719 232.819 226.075C232.363 227.096 231.702 228.011 230.87 228.759C230.038 229.511 229.059 230.073 227.993 230.42C223.603 232.144 218.954 233.123 214.24 233.313C192.523 235.002 170.324 235.487 149.571 235.728L149.33 238.139Z" fill="#101216"/>
<path d="M143.87 223.99C169.206 228.816 195.505 233.883 216.981 245.225C220.359 246.914 223.978 249.088 224.944 251.981C225.908 254.878 222.53 258.256 218.188 259.704C213.426 260.683 208.545 260.927 203.709 260.43C182.233 259.222 160.76 256.808 139.284 253.914" fill="white"/>
<path d="M212.551 264.927C215.572 265.029 218.591 264.622 221.478 263.719C222.929 263.485 224.31 262.929 225.52 262.094C226.731 261.259 227.739 260.168 228.475 258.893C228.838 258.28 229.069 257.599 229.152 256.892C229.236 256.186 229.168 255.47 228.956 254.789C227.993 251.411 224.13 248.999 220.511 247.069C199.279 235.969 173.699 230.901 147.159 225.834L146.674 228.246C172.977 233.072 198.553 238.38 219.548 249.24C222.441 250.929 226.063 252.859 226.786 255.274C226.966 256.083 226.882 256.928 226.545 257.685C225.177 259.667 223.106 261.048 220.752 261.545C216.157 262.534 211.433 262.782 206.758 262.271C185.041 261.064 163.083 258.411 142.574 255.756V258.167C163.083 260.823 185.041 263.478 206.999 264.683L212.551 264.927Z" fill="#101216"/>
<path d="M141.851 248.999C166.461 256.963 191.556 265.649 211.343 279.646C214.481 282.058 217.859 284.713 218.34 287.607C218.822 290.503 215.203 293.64 210.621 294.122C205.772 294.501 200.894 294.177 196.142 293.159C175.147 289.055 154.156 283.506 133.406 277.957" fill="white"/>
<path d="M207.243 295.57H210.862C213.765 295.317 216.452 293.929 218.34 291.711C218.816 291.149 219.169 290.494 219.374 289.787C219.583 289.081 219.641 288.339 219.548 287.61C218.822 284.229 215.444 281.335 212.066 278.921C192.523 265.167 167.91 256.481 142.333 248.033L141.366 250.447C166.946 258.652 191.315 267.338 210.621 280.851C213.514 283.024 216.651 285.436 217.133 288.092C217.184 288.483 217.143 288.882 217.017 289.26C216.892 289.636 216.687 289.977 216.411 290.262C215.656 291.129 214.731 291.836 213.694 292.334C212.657 292.831 211.526 293.111 210.377 293.159C205.692 293.647 200.958 293.319 196.383 292.192C175.147 288.092 153.675 282.299 133.647 276.991L132.921 279.406C152.949 284.714 174.666 290.262 196.142 294.366C199.777 295.224 203.505 295.628 207.243 295.57Z" fill="#101216"/>
<path d="M513.763 51.3294C502.662 71.1167 501.939 92.1101 527.757 103.693C506.525 141.337 561.779 154.126 582.049 144.956C573.845 151.713 581.084 164.502 589.288 167.64C596.546 170.27 604.425 170.665 611.91 168.772C619.394 166.88 626.139 162.787 631.274 157.022C654.679 131.202 639.236 84.8713 608.592 79.0797C605.455 78.1147 601.835 76.908 600.87 74.0122C599.905 71.1164 603.283 61.2232 597.734 56.1557C583.738 44.0902 560.09 28.6466 542.718 42.1596C536.202 23.5791 503.628 32.9903 513.763 51.3294Z" fill="white"/>
<path d="M602.318 171.259C607.934 171.199 613.475 169.966 618.586 167.639C623.697 165.312 628.265 161.942 631.998 157.746C643.339 145.198 646.717 126.376 640.925 108.761C635.135 91.1453 623.07 80.5277 608.833 77.8734C606.179 76.9081 603.042 76.184 602.318 73.7712V69.9101C602.801 65.0841 603.283 59.534 598.699 55.1906C582.773 41.6775 560.575 28.1641 543.199 40.2293C542.046 37.7243 540.261 35.5619 538.016 33.9547C535.775 32.3472 533.155 31.3498 530.412 31.0599C527.082 30.5445 523.675 30.9205 520.538 32.1497C517.404 33.3789 514.649 35.4177 512.555 38.0579C511.316 40.0488 510.657 42.348 510.657 44.6937C510.657 47.0398 511.316 49.3386 512.555 51.3298C505.558 63.6365 503.628 75.2191 506.766 84.3888C509.903 93.5582 515.933 99.3495 526.068 104.176C518.104 119.378 522.69 129.272 527.998 135.304C539.098 147.37 563.712 151.713 578.43 147.611C577.258 149.745 576.914 152.237 577.464 154.609C578.096 157.709 579.453 160.616 581.424 163.09C583.396 165.565 585.925 167.538 588.806 168.846C593.121 170.483 597.703 171.301 602.318 171.259ZM558.404 38.0579C571.674 38.0579 585.91 47.4684 597.01 57.1208C600.87 60.4992 600.388 64.8429 600.147 69.6689C599.905 74.495 599.905 72.5644 599.664 74.0123H599.905C601.112 77.6319 604.972 78.8387 608.35 79.8036C621.863 82.4583 633.204 93.5585 638.513 109.243C641.373 117.08 642.121 125.532 640.681 133.749C639.241 141.966 635.663 149.66 630.309 156.057C625.327 161.589 618.808 165.508 611.587 167.314C604.365 169.119 596.769 168.729 589.771 166.192C587.222 165.098 584.972 163.411 583.209 161.269C581.446 159.129 580.221 156.597 579.636 153.885C579.408 152.363 579.576 150.808 580.126 149.37C580.676 147.933 581.588 146.662 582.773 145.681L590.012 139.889L581.567 143.75C568.294 149.783 541.51 145.922 529.927 133.374C522.69 125.652 522.449 115.517 528.964 103.934L529.446 102.969L528.242 102.245C518.104 97.6607 511.592 91.3865 508.936 83.4232C506.281 75.4602 508.214 63.6362 514.97 51.571V50.6057C513.811 48.9057 513.172 46.9065 513.13 44.8501C513.085 42.794 513.641 40.7694 514.726 39.0228C516.563 36.7802 518.955 35.0632 521.668 34.0459C524.382 33.0286 527.314 32.7476 530.172 33.2316C532.74 33.5151 535.174 34.5295 537.185 36.155C539.195 37.7801 540.698 39.948 541.51 42.4013L541.995 43.8489L543.443 42.8839C547.724 39.5986 553.009 37.8938 558.404 38.0579Z" fill="#101216"/>
<path d="M519.311 43.1252C531.616 56.6383 545.614 93.5583 524.138 96.2126C542.236 116.241 502.18 142.061 476.603 133.374C481.43 143.75 482.875 160.641 469.847 165.226C456.816 169.811 456.091 153.161 437.996 170.294C419.898 187.427 404.456 119.137 432.688 107.313C404.696 79.0796 448.853 51.5708 476.118 51.5708C462.847 37.0924 503.387 25.9922 519.311 43.1252Z" fill="white"/>
<path d="M432.203 174.155C433.484 174.12 434.743 173.823 435.905 173.284C437.068 172.744 438.108 171.973 438.959 171.018C450.06 160.642 455.368 162.814 460.435 164.986C463.46 166.634 466.999 167.065 470.329 166.192C472.467 165.58 474.433 164.475 476.067 162.967C477.702 161.458 478.957 159.588 479.741 157.505C482.634 150.507 481.186 141.579 478.533 135.305C496.39 139.648 518.589 129.514 526.552 117.207C528.746 114.272 529.915 110.696 529.87 107.031C529.828 103.366 528.575 99.8179 526.308 96.9369C528.36 96.5005 530.265 95.5365 531.832 94.14C533.395 92.7438 534.571 90.9632 535.239 88.9739C540.065 75.9434 529.205 52.2954 520.037 42.4019C508.455 29.8537 484.082 31.5431 475.396 39.5061C474.567 40.104 473.864 40.8608 473.331 41.7323C472.795 42.6035 472.438 43.5723 472.281 44.5825C472.124 45.5924 472.172 46.6242 472.416 47.6167C472.66 48.6093 473.1 49.5434 473.707 50.3648C455.368 51.3301 430.999 63.6368 424.243 79.8042C421.587 86.3196 420.62 95.9719 430.514 106.831C421.346 111.657 416.038 122.998 416.038 138.683C416.038 154.368 421.587 170.053 429.066 173.431C430.039 173.922 431.114 174.17 432.203 174.155ZM453.679 160.642C449.578 160.642 444.511 162.572 437.27 169.329C436.39 170.329 435.231 171.046 433.943 171.39C432.656 171.733 431.294 171.688 430.032 171.26C423.517 168.364 418.209 153.644 418.45 138.683C418.45 131.444 419.898 113.829 433.17 108.279L434.618 107.554L433.41 106.348C425.206 98.1436 422.794 89.4565 426.413 80.7695C433.17 64.602 458.024 52.778 475.878 52.778H479.015L477.085 50.8475C473.948 47.469 473.948 44.0909 477.085 41.1951C484.808 33.9559 507.729 32.7495 518.348 44.0909C527.275 53.7433 537.409 76.4261 533.065 88.0086C532.429 89.969 531.212 91.6892 529.574 92.9393C527.936 94.1898 525.955 94.911 523.897 95.0067H521.726L523.171 96.6957C529.687 103.935 527.516 110.933 524.619 115.759C516.659 127.583 493.735 137.718 476.844 132.168L474.189 131.203L475.396 133.857C478.533 140.131 480.222 149.542 477.567 156.299C476.835 158.031 475.746 159.591 474.375 160.88C473.004 162.168 471.379 163.155 469.606 163.779C466.784 164.286 463.878 163.773 461.402 162.331C458.961 161.267 456.338 160.693 453.679 160.642Z" fill="#101216"/>
<path d="M614.142 596.923L609.075 613.817L608.351 614.298H591.46C591.325 614.308 591.196 614.356 591.087 614.436C590.978 614.517 590.894 614.626 590.843 614.751C590.793 614.876 590.779 615.014 590.803 615.146C590.826 615.281 590.887 615.403 590.978 615.506L604.732 625.881C604.819 625.977 604.885 626.093 604.927 626.218C604.968 626.343 604.984 626.475 604.973 626.603L599.664 643.497C599.664 644.22 600.388 644.701 600.871 644.22L614.383 633.844C614.429 633.793 614.484 633.751 614.547 633.722C614.609 633.693 614.677 633.681 614.746 633.681C614.814 633.681 614.881 633.693 614.944 633.722C615.006 633.751 615.062 633.793 615.107 633.844L628.861 644.22C629.344 644.701 630.068 644.22 629.826 643.497L624.518 626.603C624.507 626.475 624.522 626.343 624.564 626.218C624.605 626.093 624.672 625.977 624.759 625.881L638.513 615.506C638.996 615.021 638.755 614.298 638.272 614.298H621.381C620.898 614.298 620.657 614.057 620.657 613.817L615.349 596.923C615.349 596.2 614.383 596.2 614.142 596.923ZM464.298 495.091L459.231 511.985C459.231 512.226 458.987 512.467 458.506 512.467H441.615C441.133 512.467 440.892 513.189 441.374 513.674L454.887 524.049C455.128 524.29 455.368 524.531 455.128 524.775L450.06 541.666C449.819 542.388 450.542 542.873 451.027 542.388L464.539 532.013H465.503L479.015 542.388C479.5 542.873 480.223 542.388 479.982 541.666L474.914 524.775C474.674 524.531 474.914 524.29 475.155 524.049L488.909 513.674C488.999 513.571 489.06 513.449 489.085 513.314C489.108 513.183 489.095 513.045 489.043 512.919C488.992 512.794 488.909 512.685 488.799 512.605C488.69 512.525 488.562 512.476 488.427 512.467H471.536L470.811 511.985L465.743 495.091C465.654 494.989 465.544 494.908 465.419 494.85C465.294 494.796 465.159 494.767 465.021 494.767C464.883 494.767 464.748 494.796 464.623 494.85C464.498 494.908 464.388 494.989 464.298 495.091ZM522.208 580.032L517.141 596.926L516.418 597.408H499.528C499.393 597.417 499.261 597.465 499.152 597.546C499.043 597.626 498.959 597.735 498.908 597.86C498.86 597.986 498.844 598.124 498.87 598.255C498.892 598.39 498.953 598.512 499.043 598.615L512.796 608.99C512.886 609.09 512.95 609.202 512.992 609.327C513.034 609.453 513.05 609.584 513.04 609.713L507.729 626.606C507.729 627.329 508.455 627.814 508.936 627.329L522.449 616.954C522.69 616.713 523.175 616.713 523.175 616.954L536.928 627.329C537.41 627.814 538.135 627.329 537.891 626.606L532.583 609.713C532.583 609.472 532.824 609.231 532.824 608.99L546.581 598.615C547.062 598.13 546.821 597.408 546.337 597.408H529.446C528.964 597.408 528.723 597.167 528.723 596.926L523.415 580.032C523.415 579.31 522.449 579.31 522.208 580.032ZM456.335 653.631L451.027 670.522L450.542 671.004H433.651C433.517 671.013 433.388 671.061 433.279 671.142C433.17 671.222 433.086 671.331 433.035 671.456C432.983 671.582 432.971 671.72 432.993 671.855C433.019 671.986 433.08 672.111 433.17 672.211L446.923 682.586C447.01 682.686 447.077 682.798 447.119 682.923C447.161 683.049 447.177 683.18 447.164 683.312L441.856 700.202C441.615 700.925 442.337 701.41 443.063 700.925L456.576 690.55C456.621 690.498 456.675 690.457 456.739 690.431C456.801 690.402 456.868 690.386 456.939 690.386C457.006 690.386 457.073 690.402 457.134 690.431C457.199 690.457 457.253 690.498 457.298 690.55L471.055 700.925C471.536 701.41 472.259 700.925 472.018 700.202L466.71 683.312C466.7 683.18 466.713 683.049 466.755 682.923C466.797 682.798 466.864 682.686 466.951 682.586L480.704 672.211C480.797 672.111 480.855 671.986 480.881 671.855C480.903 671.72 480.89 671.582 480.839 671.456C480.791 671.331 480.704 671.222 480.595 671.142C480.486 671.061 480.357 671.013 480.223 671.004H463.332L462.85 670.522L457.539 653.631C457.475 653.532 457.385 653.448 457.279 653.394C457.173 653.336 457.057 653.307 456.939 653.307C456.817 653.307 456.701 653.336 456.595 653.394C456.489 653.448 456.399 653.532 456.335 653.631ZM440.408 380.955L435.1 397.604C435.1 398.086 434.859 398.086 434.618 398.086H417.727C417.002 398.086 416.761 399.053 417.243 399.294L430.999 409.913C431.24 409.913 431.24 410.394 431.24 410.635L425.932 427.526C425.688 428.011 426.413 428.733 427.136 428.252L440.648 417.873C440.693 417.822 440.751 417.783 440.812 417.754C440.876 417.725 440.944 417.713 441.011 417.713C441.079 417.713 441.146 417.725 441.21 417.754C441.271 417.783 441.329 417.822 441.374 417.873L455.128 428.252C455.609 428.733 456.335 428.011 456.094 427.526L450.783 410.635C450.783 410.394 450.783 409.913 451.027 409.913L464.78 399.294C465.262 399.053 465.021 398.086 464.295 398.086H447.405C447.164 398.086 446.923 398.086 446.923 397.604L441.615 380.955C441.374 380.232 440.648 380.232 440.408 380.955ZM364.4 533.943L359.092 550.833C359.092 550.898 359.079 550.962 359.054 551.02C359.031 551.077 358.996 551.132 358.951 551.177C358.906 551.222 358.851 551.257 358.793 551.28C358.736 551.305 358.671 551.318 358.61 551.318H341.717C341.582 551.328 341.453 551.376 341.344 551.456C341.235 551.537 341.151 551.646 341.1 551.771C341.052 551.896 341.036 552.034 341.062 552.166C341.084 552.301 341.145 552.423 341.235 552.522L354.988 562.901C355.078 562.997 355.142 563.113 355.184 563.238C355.226 563.36 355.242 563.492 355.232 563.623L349.921 580.514C349.68 581.24 350.406 581.721 350.888 581.24L364.641 570.864H365.367L378.879 581.24C379.602 581.721 380.327 581.24 380.083 580.514L374.775 563.623C374.766 563.492 374.782 563.36 374.823 563.238C374.862 563.113 374.929 562.997 375.016 562.901L388.773 552.522C388.863 552.423 388.924 552.301 388.946 552.166C388.968 552.034 388.956 551.896 388.904 551.771C388.856 551.646 388.769 551.537 388.66 551.456C388.554 551.376 388.423 551.328 388.288 551.318H371.397C371.269 551.318 371.147 551.267 371.057 551.177C370.967 551.084 370.915 550.962 370.915 550.833L365.607 533.943C365.367 533.22 364.641 533.22 364.4 533.943ZM261.608 556.145L256.3 572.794C256.3 573.276 256.056 573.276 255.575 573.276H238.684C238.203 573.276 237.962 574.243 238.443 574.483L252.197 585.099V585.825L246.889 602.716C246.648 603.197 247.37 603.923 247.852 603.438L261.608 593.063H262.331L275.843 603.438C276.325 603.923 277.051 603.197 277.051 602.716L271.743 585.825C271.743 585.584 271.743 585.099 271.984 585.099L285.737 574.483C286.219 574.243 285.978 573.276 285.255 573.276H268.365C268.124 573.276 267.88 573.276 267.639 572.794L262.572 556.145C262.572 555.419 261.608 555.419 261.608 556.145ZM725.38 580.032L720.313 596.926L719.589 597.408H702.698C702.563 597.417 702.434 597.465 702.325 597.546C702.216 597.626 702.131 597.735 702.081 597.86C702.031 597.986 702.017 598.124 702.041 598.255C702.065 598.39 702.125 598.512 702.216 598.615L715.97 608.99C716.057 609.09 716.123 609.202 716.165 609.327C716.206 609.453 716.222 609.584 716.211 609.713L710.902 626.606C710.902 627.329 711.626 627.814 712.109 627.329L725.622 616.954C725.667 616.902 725.722 616.861 725.785 616.832C725.847 616.806 725.915 616.79 725.983 616.79C726.052 616.79 726.12 616.806 726.182 616.832C726.244 616.861 726.3 616.902 726.345 616.954L740.099 627.329C740.582 627.814 741.306 627.329 741.064 626.606L735.756 609.713C735.745 609.584 735.761 609.453 735.802 609.327C735.844 609.202 735.91 609.09 735.997 608.99L749.751 598.615C750.234 598.13 749.992 597.408 749.51 597.408H732.619C732.137 597.408 731.895 597.167 731.895 596.926L726.587 580.032C726.587 579.31 725.622 579.31 725.38 580.032ZM701.492 400.019L696.183 416.91C696.183 417.151 695.942 417.391 695.459 417.391H678.568C678.086 417.391 677.844 418.117 678.327 418.599L692.081 429.215C692.081 429.215 692.322 429.456 692.081 429.941L687.014 446.831C686.773 447.313 687.496 447.798 687.979 447.554L701.492 437.178C701.624 437.06 701.796 436.995 701.974 436.995C702.152 436.995 702.324 437.06 702.457 437.178L715.969 447.554C716.452 447.798 717.176 447.313 716.934 446.831L711.867 429.941C711.626 429.456 711.867 429.215 712.109 429.215L725.863 418.599C725.953 418.499 726.014 418.374 726.038 418.239C726.061 418.108 726.047 417.969 725.997 417.844C725.947 417.719 725.862 417.61 725.753 417.53C725.644 417.449 725.515 417.401 725.38 417.391H708.489L707.765 416.91L702.698 400.019C702.457 399.534 701.492 399.534 701.492 400.019ZM754.335 677.522L749.268 694.413L748.544 694.894H731.654C731.519 694.904 731.389 694.952 731.28 695.033C731.171 695.113 731.087 695.222 731.036 695.347C730.986 695.472 730.972 695.61 730.996 695.742C731.02 695.877 731.08 696.002 731.171 696.102L744.925 706.718C745.166 706.718 745.407 706.959 745.166 707.444L740.099 724.334C739.858 724.816 740.582 725.301 741.064 725.06L754.577 714.681C754.709 714.563 754.881 714.498 755.059 714.498C755.237 714.498 755.409 714.563 755.542 714.681L769.054 725.06C769.537 725.301 770.261 724.816 770.02 724.334L764.952 707.444C764.711 706.959 764.952 706.718 765.194 706.718L778.706 696.102C778.796 696.018 778.863 695.912 778.901 695.794C778.939 695.678 778.946 695.553 778.921 695.431C778.897 695.309 778.843 695.196 778.763 695.103C778.683 695.01 778.58 694.939 778.465 694.894H761.574C761.333 694.894 760.85 694.654 760.85 694.413L755.783 677.522C755.692 677.419 755.581 677.336 755.456 677.278C755.332 677.224 755.196 677.195 755.059 677.195C754.922 677.195 754.787 677.224 754.662 677.278C754.537 677.336 754.426 677.419 754.335 677.522Z" fill="white"/>
</svg>
