<svg width="29" height="29" viewBox="0 0 29 29" fill="none" xmlns="http://www.w3.org/2000/svg">
<path fill-rule="evenodd" clip-rule="evenodd" d="M14.1667 28.3333C21.9906 28.3333 28.3333 21.9906 28.3333 14.1667C28.3333 6.34263 21.9906 0 14.1667 0C6.34263 0 0 6.34263 0 14.1667C0 21.9906 6.34263 28.3333 14.1667 28.3333ZM15.5833 7.08333C15.5833 6.30094 14.9491 5.66667 14.1667 5.66667C13.3842 5.66667 12.75 6.30094 12.75 7.08333V13.5799C12.75 14.3313 13.0485 15.0519 13.5799 15.5833L17.4149 19.4184C17.9682 19.9716 18.8652 19.9716 19.4184 19.4184C19.9716 18.8652 19.9716 17.9682 19.4184 17.4149L15.5833 13.5799V7.08333Z" fill="white"/>
</svg>
