<svg width="316" height="50" viewBox="0 0 316 50" fill="none" xmlns="http://www.w3.org/2000/svg">
<path d="M16.9609 10.8359C15.8672 10.8359 14.8906 11.0703 14.0312 11.5391C13.1719 11.9922 12.4375 12.6563 11.8281 13.5312C11.2188 14.4062 10.75 15.4766 10.4219 16.7422C10.1094 17.9922 9.95312 19.4141 9.95312 21.0078C9.95312 23.1641 10.2266 24.9766 10.7734 26.4453C11.3203 27.9141 12.1484 29.0234 13.2578 29.7734C14.3828 30.5234 15.7891 30.8984 17.4766 30.8984C19.0078 30.8984 20.4766 30.6875 21.8828 30.2656C23.3047 29.8438 24.7344 29.3359 26.1719 28.7422V36.5703C24.6562 37.2422 23.1016 37.7266 21.5078 38.0234C19.9297 38.3203 18.25 38.4688 16.4688 38.4688C12.75 38.4688 9.70312 37.7344 7.32812 36.2656C4.96875 34.7812 3.22656 32.7266 2.10156 30.1016C0.992188 27.4766 0.4375 24.4297 0.4375 20.9609C0.4375 18.3672 0.796875 15.9922 1.51562 13.8359C2.25 11.6797 3.32031 9.8125 4.72656 8.23438C6.13281 6.64062 7.86719 5.41406 9.92969 4.55469C12.0078 3.67969 14.3828 3.24219 17.0547 3.24219C18.7109 3.24219 20.4531 3.4375 22.2812 3.82812C24.125 4.20312 25.9219 4.8125 27.6719 5.65625L24.8359 12.9453C23.5859 12.3516 22.3203 11.8516 21.0391 11.4453C19.7578 11.0391 18.3984 10.8359 16.9609 10.8359ZM58.6553 24.6641C58.6553 26.8828 58.3506 28.8516 57.7412 30.5703C57.1319 32.2891 56.2491 33.7344 55.0928 34.9062C53.9366 36.0781 52.5381 36.9688 50.8975 37.5781C49.2569 38.1719 47.4053 38.4688 45.3428 38.4688C43.4209 38.4688 41.6553 38.1719 40.0459 37.5781C38.4522 36.9688 37.0616 36.0781 35.8741 34.9062C34.6866 33.7344 33.7647 32.2891 33.1084 30.5703C32.4678 28.8516 32.1475 26.8828 32.1475 24.6641C32.1475 21.7266 32.6787 19.2422 33.7412 17.2109C34.8194 15.1797 36.3506 13.6328 38.335 12.5703C40.335 11.5078 42.7178 10.9766 45.4834 10.9766C48.0303 10.9766 50.2959 11.5078 52.2803 12.5703C54.2647 13.6328 55.8194 15.1797 56.9444 17.2109C58.085 19.2422 58.6553 21.7266 58.6553 24.6641ZM41.4522 24.6641C41.4522 26.1797 41.585 27.4609 41.8506 28.5078C42.1162 29.5391 42.5381 30.3281 43.1162 30.875C43.71 31.4062 44.4834 31.6719 45.4366 31.6719C46.3897 31.6719 47.1475 31.4062 47.71 30.875C48.2725 30.3281 48.6787 29.5391 48.9287 28.5078C49.1944 27.4609 49.3272 26.1797 49.3272 24.6641C49.3272 23.1484 49.1944 21.8828 48.9287 20.8672C48.6787 19.8516 48.2647 19.0859 47.6866 18.5703C47.1241 18.0547 46.3584 17.7969 45.3897 17.7969C43.9991 17.7969 42.9912 18.375 42.3662 19.5312C41.7569 20.6875 41.4522 22.3984 41.4522 24.6641ZM74.0762 11.4453V38H64.9122V11.4453H74.0762ZM69.5294 0.757812C70.8419 0.757812 71.9825 1.03125 72.9512 1.57812C73.9356 2.125 74.4278 3.21094 74.4278 4.83594C74.4278 6.41406 73.9356 7.48438 72.9512 8.04688C71.9825 8.59375 70.8419 8.86719 69.5294 8.86719C68.1856 8.86719 67.0372 8.59375 66.0841 8.04688C65.1466 7.48438 64.6778 6.41406 64.6778 4.83594C64.6778 3.21094 65.1466 2.125 66.0841 1.57812C67.0372 1.03125 68.1856 0.757812 69.5294 0.757812ZM98.0519 10.9766C100.786 10.9766 103.021 11.75 104.755 13.2969C106.489 14.8438 107.357 17.3203 107.357 20.7266V38H98.1925V23.5156C98.1925 21.75 97.9347 20.4219 97.4191 19.5312C96.9191 18.625 96.1066 18.1719 94.9816 18.1719C93.2472 18.1719 92.0831 18.8828 91.4894 20.3047C90.8956 21.7109 90.5987 23.7344 90.5987 26.375V38H81.4347V11.4453H88.3487L89.5909 14.9609H89.9425C90.505 14.1172 91.1769 13.3984 91.9581 12.8047C92.7394 12.2109 93.6378 11.7578 94.6534 11.4453C95.6691 11.1328 96.8019 10.9766 98.0519 10.9766ZM134.285 29.8438C134.285 31.5312 133.91 33.0234 133.16 34.3203C132.41 35.6172 131.207 36.6328 129.551 37.3672C127.91 38.1016 125.746 38.4688 123.059 38.4688C121.168 38.4688 119.473 38.3672 117.973 38.1641C116.488 37.9609 114.981 37.5703 113.449 36.9922V29.6562C115.121 30.4219 116.824 30.9766 118.559 31.3203C120.293 31.6484 121.66 31.8125 122.66 31.8125C123.692 31.8125 124.442 31.7031 124.91 31.4844C125.395 31.25 125.637 30.9062 125.637 30.4531C125.637 30.0625 125.473 29.7344 125.145 29.4688C124.832 29.1875 124.262 28.8672 123.434 28.5078C122.621 28.1484 121.473 27.6641 119.988 27.0547C118.52 26.4453 117.293 25.7812 116.309 25.0625C115.34 24.3438 114.613 23.4844 114.129 22.4844C113.645 21.4844 113.402 20.2578 113.402 18.8047C113.402 16.2109 114.402 14.2578 116.402 12.9453C118.402 11.6328 121.051 10.9766 124.348 10.9766C126.098 10.9766 127.746 11.1719 129.293 11.5625C130.84 11.9375 132.442 12.4922 134.098 13.2266L131.59 19.1328C130.277 18.5391 128.949 18.0625 127.606 17.7031C126.262 17.3438 125.192 17.1641 124.395 17.1641C123.676 17.1641 123.121 17.2578 122.731 17.4453C122.34 17.6328 122.145 17.9062 122.145 18.2656C122.145 18.5938 122.277 18.8828 122.543 19.1328C122.824 19.3828 123.348 19.6719 124.113 20C124.879 20.3281 125.996 20.7891 127.465 21.3828C129.012 22.0078 130.285 22.6797 131.285 23.3984C132.301 24.1016 133.051 24.9609 133.535 25.9766C134.035 26.9922 134.285 28.2812 134.285 29.8438ZM156.573 10.9766C159.511 10.9766 161.816 12.1562 163.488 14.5156C165.159 16.8594 165.995 20.2422 165.995 24.6641C165.995 27.6797 165.573 30.2188 164.73 32.2812C163.886 34.3281 162.73 35.875 161.261 36.9219C159.808 37.9531 158.152 38.4688 156.292 38.4688C155.042 38.4688 153.98 38.3125 153.105 38C152.245 37.6875 151.527 37.2969 150.948 36.8281C150.386 36.3594 149.909 35.8828 149.519 35.3984H149.238C149.316 36.0078 149.378 36.6641 149.425 37.3672C149.488 38.0703 149.519 38.8906 149.519 39.8281V49.5312H140.355V11.4453H147.808L149.097 14.8203H149.519C149.956 14.1328 150.488 13.5 151.113 12.9219C151.738 12.3281 152.495 11.8594 153.386 11.5156C154.292 11.1563 155.355 10.9766 156.573 10.9766ZM153.128 18.1719C152.238 18.1719 151.534 18.3828 151.019 18.8047C150.503 19.2266 150.128 19.8672 149.894 20.7266C149.675 21.5703 149.55 22.625 149.519 23.8906V24.6172C149.519 26.0234 149.628 27.2109 149.847 28.1797C150.066 29.1328 150.441 29.8594 150.972 30.3594C151.503 30.8438 152.238 31.0859 153.175 31.0859C153.941 31.0859 154.581 30.8672 155.097 30.4297C155.613 29.9922 156.003 29.2969 156.269 28.3438C156.534 27.3906 156.667 26.1328 156.667 24.5703C156.667 22.2422 156.363 20.5938 155.753 19.625C155.159 18.6562 154.284 18.1719 153.128 18.1719ZM184.158 10.9766C186.737 10.9766 188.963 11.4297 190.838 12.3359C192.713 13.2266 194.158 14.5703 195.174 16.3672C196.19 18.1641 196.697 20.4141 196.697 23.1172V27.1953H180.315C180.393 28.5859 180.908 29.7266 181.862 30.6172C182.83 31.5078 184.252 31.9531 186.127 31.9531C187.783 31.9531 189.299 31.7891 190.674 31.4609C192.065 31.1328 193.494 30.625 194.963 29.9375V36.5234C193.682 37.1953 192.283 37.6875 190.768 38C189.252 38.3125 187.338 38.4688 185.026 38.4688C182.354 38.4688 179.963 37.9922 177.854 37.0391C175.744 36.0859 174.08 34.6094 172.862 32.6094C171.658 30.6094 171.057 28.0391 171.057 24.8984C171.057 21.7109 171.604 19.0938 172.697 17.0469C173.791 14.9844 175.322 13.4609 177.291 12.4766C179.26 11.4766 181.549 10.9766 184.158 10.9766ZM184.487 17.2109C183.408 17.2109 182.502 17.5547 181.768 18.2422C181.049 18.9141 180.627 19.9766 180.502 21.4297H188.377C188.362 20.6484 188.205 19.9375 187.908 19.2969C187.612 18.6562 187.174 18.1484 186.596 17.7734C186.033 17.3984 185.33 17.2109 184.487 17.2109ZM215.798 10.9766C219.158 10.9766 221.783 11.8125 223.673 13.4844C225.564 15.1406 226.509 17.5078 226.509 20.5859V38H220.158L218.4 34.4844H218.212C217.462 35.4219 216.689 36.1875 215.892 36.7812C215.111 37.3594 214.212 37.7812 213.197 38.0469C212.181 38.3281 210.939 38.4688 209.47 38.4688C207.939 38.4688 206.564 38.1562 205.345 37.5312C204.126 36.9062 203.165 35.9609 202.462 34.6953C201.759 33.4297 201.408 31.8281 201.408 29.8906C201.408 27.0469 202.392 24.9375 204.361 23.5625C206.329 22.1875 209.181 21.4141 212.915 21.2422L217.345 21.1016V20.7266C217.345 19.5391 217.048 18.6953 216.454 18.1953C215.876 17.6953 215.095 17.4453 214.111 17.4453C213.064 17.4453 211.892 17.6328 210.595 18.0078C209.314 18.3672 208.025 18.8359 206.728 19.4141L204.079 13.3672C205.611 12.5859 207.345 11.9922 209.283 11.5859C211.22 11.1797 213.392 10.9766 215.798 10.9766ZM217.392 26.1406L215.283 26.2344C213.595 26.2969 212.408 26.5938 211.72 27.125C211.048 27.6406 210.712 28.3828 210.712 29.3516C210.712 30.2578 210.954 30.9297 211.439 31.3672C211.923 31.7891 212.564 32 213.361 32C214.47 32 215.415 31.6484 216.197 30.9453C216.993 30.2422 217.392 29.3281 217.392 28.2031V26.1406ZM242.914 1.53125V15.875C242.914 16.9531 242.867 18.1562 242.774 19.4844C242.696 20.7969 242.571 21.9922 242.399 23.0703H242.586C242.946 22.5234 243.399 21.8359 243.946 21.0078C244.492 20.1797 244.985 19.4922 245.422 18.9453L251.375 11.4453H261.594L252.383 22.7422L262.18 38H251.703L245.891 28.4844L242.914 30.7578V38H233.703V1.53125H242.914ZM278.257 10.9766C280.835 10.9766 283.062 11.4297 284.937 12.3359C286.812 13.2266 288.257 14.5703 289.273 16.3672C290.288 18.1641 290.796 20.4141 290.796 23.1172V27.1953H274.413C274.492 28.5859 275.007 29.7266 275.96 30.6172C276.929 31.5078 278.351 31.9531 280.226 31.9531C281.882 31.9531 283.398 31.7891 284.773 31.4609C286.163 31.1328 287.593 30.625 289.062 29.9375V36.5234C287.781 37.1953 286.382 37.6875 284.867 38C283.351 38.3125 281.437 38.4688 279.124 38.4688C276.453 38.4688 274.062 37.9922 271.953 37.0391C269.843 36.0859 268.179 34.6094 266.96 32.6094C265.757 30.6094 265.156 28.0391 265.156 24.8984C265.156 21.7109 265.703 19.0938 266.796 17.0469C267.89 14.9844 269.421 13.4609 271.39 12.4766C273.359 11.4766 275.648 10.9766 278.257 10.9766ZM278.585 17.2109C277.507 17.2109 276.601 17.5547 275.867 18.2422C275.148 18.9141 274.726 19.9766 274.601 21.4297H282.476C282.46 20.6484 282.304 19.9375 282.007 19.2969C281.71 18.6562 281.273 18.1484 280.695 17.7734C280.132 17.3984 279.429 17.2109 278.585 17.2109ZM312.967 10.9766C313.467 10.9766 313.991 11.0156 314.538 11.0938C315.084 11.1563 315.491 11.2109 315.756 11.2578L314.936 19.9062C314.639 19.8281 314.256 19.7656 313.788 19.7188C313.319 19.6562 312.663 19.625 311.819 19.625C311.241 19.625 310.623 19.6797 309.967 19.7891C309.311 19.8984 308.686 20.1328 308.092 20.4922C307.514 20.8359 307.038 21.3672 306.663 22.0859C306.288 22.7891 306.1 23.7422 306.1 24.9453V38H296.936V11.4453H303.756L305.186 15.6875H305.631C306.116 14.8125 306.733 14.0234 307.483 13.3203C308.248 12.6016 309.1 12.0312 310.038 11.6094C310.991 11.1875 311.967 10.9766 312.967 10.9766Z" fill="white"/>
</svg>
