<svg width="50" height="50" viewBox="0 0 50 50" fill="none" xmlns="http://www.w3.org/2000/svg">
<path d="M3.125 16.7969C4.85089 16.7969 6.25 15.3978 6.25 13.6719C6.25 11.946 4.85089 10.5469 3.125 10.5469C1.39911 10.5469 0 11.946 0 13.6719C0 15.3978 1.39911 16.7969 3.125 16.7969Z" fill="white"/>
<path d="M22.6562 43.75C24.3821 43.75 25.7812 42.3509 25.7812 40.625C25.7812 38.8991 24.3821 37.5 22.6562 37.5C20.9304 37.5 19.5312 38.8991 19.5312 40.625C19.5312 42.3509 20.9304 43.75 22.6562 43.75Z" fill="white"/>
<path d="M20.3125 27.3438C22.0384 27.3438 23.4375 25.9446 23.4375 24.2188C23.4375 22.4929 22.0384 21.0938 20.3125 21.0938C18.5866 21.0938 17.1875 22.4929 17.1875 24.2188C17.1875 25.9446 18.5866 27.3438 20.3125 27.3438Z" fill="white"/>
<path d="M32.8125 35.1562C34.5384 35.1562 35.9375 33.7571 35.9375 32.0312C35.9375 30.3054 34.5384 28.9062 32.8125 28.9062C31.0866 28.9062 29.6875 30.3054 29.6875 32.0312C29.6875 33.7571 31.0866 35.1562 32.8125 35.1562Z" fill="white"/>
<path d="M43.3594 41.4062C45.0853 41.4062 46.4844 40.0071 46.4844 38.2812C46.4844 36.5554 45.0853 35.1562 43.3594 35.1562C41.6335 35.1562 40.2344 36.5554 40.2344 38.2812C40.2344 40.0071 41.6335 41.4062 43.3594 41.4062Z" fill="white"/>
<path d="M6.25 38.6719C7.97589 38.6719 9.375 37.2728 9.375 35.5469C9.375 33.821 7.97589 32.4219 6.25 32.4219C4.52411 32.4219 3.125 33.821 3.125 35.5469C3.125 37.2728 4.52411 38.6719 6.25 38.6719Z" fill="white"/>
<path d="M46.875 22.6562C48.6009 22.6562 50 21.2571 50 19.5312C50 17.8054 48.6009 16.4062 46.875 16.4062C45.1491 16.4062 43.75 17.8054 43.75 19.5312C43.75 21.2571 45.1491 22.6562 46.875 22.6562Z" fill="white"/>
<path d="M37.5 12.5C39.2259 12.5 40.625 11.1009 40.625 9.375C40.625 7.64911 39.2259 6.25 37.5 6.25C35.7741 6.25 34.375 7.64911 34.375 9.375C34.375 11.1009 35.7741 12.5 37.5 12.5Z" fill="white"/>
<path d="M36.4092 35.0323L38.9875 36.604C39.1754 36.1142 39.4442 35.6594 39.7826 35.2586L37.1945 33.6812C37.0102 34.1724 36.7448 34.6291 36.4092 35.0323ZM42.8788 21.9689L41.1037 23.5113L39.1656 13.7513C38.6755 13.9385 38.1574 14.0414 37.633 14.0558L39.7453 24.692L35.614 28.282C36.0353 28.5954 36.4013 28.9769 36.6971 29.4107L40.0959 26.4572L41.583 33.9458C42.0688 33.7475 42.5845 33.6328 43.1085 33.6065L41.4543 25.2768L43.9004 23.151C43.4966 22.8165 43.1513 22.4169 42.8788 21.9689ZM26.6332 38.156L29.68 35.5084C29.2892 35.158 28.9596 34.7448 28.7049 34.2858L25.6011 36.983C26.0079 37.3139 26.3567 37.7103 26.6332 38.156ZM33.4796 11.7728L23.196 20.5308C23.6091 20.8543 23.9654 21.2444 24.2502 21.6852L34.4907 12.964C34.0898 12.6259 33.748 12.2233 33.4796 11.7728ZM29.3402 28.8938L24.6366 26.0268C24.432 26.5098 24.148 26.9551 23.7962 27.3442L28.4943 30.2079C28.7009 29.7257 28.9868 29.2815 29.3402 28.8938ZM6.56739 16.8427L15.9363 22.5534C16.1226 22.0631 16.3899 21.6075 16.7271 21.2057L7.42415 15.5351C7.21364 16.0158 6.92404 16.4578 6.56739 16.8427ZM13.2106 29.0348L9.51043 32.1862C9.88748 32.5528 10.2004 32.98 10.4363 33.4501L14.1323 30.3024L19.2788 37.3832C19.6421 37.0049 20.066 36.69 20.5331 36.4515L15.3251 29.2862L17.1861 27.7014C16.7949 27.3518 16.4649 26.9393 16.2095 26.4809L14.4039 28.0186L6.40572 17.0144C6.03062 17.3812 5.59679 17.6827 5.12219 17.9064L13.2106 29.0348Z" fill="white"/>
</svg>
