<svg width="50" height="50" viewBox="0 0 50 50" fill="none" xmlns="http://www.w3.org/2000/svg">
<path fill-rule="evenodd" clip-rule="evenodd" d="M39.064 39.8441C39.064 38.9811 38.364 38.2816 37.5006 38.2816H12.5009C11.6374 38.2816 10.9374 38.9811 10.9374 39.8441V42.9691C10.9374 45.5582 13.0374 47.6566 15.6258 47.6566C20.4296 47.6566 29.5718 47.6566 34.3756 47.6566C36.9641 47.6566 39.064 45.5582 39.064 42.9691C39.064 41.4066 39.064 39.8441 39.064 39.8441ZM21.8057 10.4602C20.887 9.60391 20.3127 8.38438 20.3127 7.03125C20.3127 4.44453 22.4135 2.34375 25.0002 2.34375C27.587 2.34375 29.6877 4.44453 29.6877 7.03125C29.6877 8.38438 29.1135 9.60391 28.1948 10.4602L32.4159 20.168C32.6221 20.6422 33.0495 20.9836 33.5573 21.0797C34.0651 21.1766 34.5877 21.0156 34.9534 20.65L38.7385 16.8641C38.4456 16.2523 38.2815 15.5672 38.2815 14.8438C38.2815 12.257 40.3823 10.1562 42.969 10.1562C45.5557 10.1562 47.6565 12.257 47.6565 14.8438C47.6565 17.218 45.8877 19.182 43.5971 19.4891L41.1104 31.425C40.6581 33.5984 38.7424 35.1562 36.5213 35.1562C31.1768 35.1562 18.8237 35.1562 13.4792 35.1562C11.2581 35.1562 9.34243 33.5984 8.89009 31.425L6.40337 19.4891C4.11274 19.182 2.34399 17.218 2.34399 14.8438C2.34399 12.257 4.44478 10.1562 7.03149 10.1562C9.61821 10.1562 11.719 12.257 11.719 14.8438C11.719 15.5672 11.5549 16.2523 11.262 16.8641L15.0471 20.65C15.4127 21.0156 15.9354 21.1766 16.4432 21.0797C16.951 20.9836 17.3784 20.6422 17.5846 20.168L21.8057 10.4602ZM42.969 13.2812C43.8315 13.2812 44.5315 13.9812 44.5315 14.8438C44.5315 15.7063 43.8315 16.4062 42.969 16.4062C42.1065 16.4062 41.4065 15.7063 41.4065 14.8438C41.4065 13.9812 42.1065 13.2812 42.969 13.2812ZM7.03149 13.2812C7.89399 13.2812 8.59399 13.9812 8.59399 14.8438C8.59399 15.7063 7.89399 16.4062 7.03149 16.4062C6.16899 16.4062 5.46899 15.7063 5.46899 14.8438C5.46899 13.9812 6.16899 13.2812 7.03149 13.2812ZM25.0002 5.46875C25.8627 5.46875 26.5627 6.16875 26.5627 7.03125C26.5627 7.89375 25.8627 8.59375 25.0002 8.59375C24.1377 8.59375 23.4377 7.89375 23.4377 7.03125C23.4377 6.16875 24.1377 5.46875 25.0002 5.46875Z" fill="white"/>
</svg>
