<svg width="612" height="806" viewBox="0 0 612 806" fill="none" xmlns="http://www.w3.org/2000/svg">
<g clipPath="url(#clip0_2969_142)">
<path d="M434.121 410.039L438.971 297.416L510.598 294.549L505.748 407.175" fill="white"/>
<path d="M435.224 410.039H433.021L437.868 296.313L511.701 293.227V294.552L506.851 407.175H504.648L509.495 295.652L440.074 298.518L435.224 410.039Z" fill="black"/>
<path d="M543.656 213.223C546.571 210.445 550.261 208.621 554.235 207.991C558.213 207.361 562.286 207.956 565.915 209.696C569.468 211.548 572.534 214.207 574.869 217.461C577.205 220.716 578.743 224.473 579.358 228.43C580.582 236.371 579.191 244.493 575.392 251.572C571.232 259.843 564.61 266.618 556.438 270.968C548.159 275.053 538.653 275.919 529.771 273.393C540.908 255.416 545.789 234.262 543.656 213.223Z" fill="white"/>
<path d="M544.978 186.554C547.403 230.414 541.231 293.227 502.224 322.099C492.524 329.33 480.807 333.346 468.715 333.583C456.623 333.819 444.756 330.266 434.782 323.421C391.367 293.888 391.809 220.716 397.316 175.535C398.529 166.237 402.01 157.38 407.454 149.748C450.65 90.0195 537.046 106.55 544.978 186.554Z" fill="white"/>
<path d="M467.402 334.662C455.517 334.651 443.916 331.039 434.124 324.305C388.942 293.449 390.925 217.851 396.217 175.535C397.466 166.007 401.023 156.929 406.574 149.087C427.511 120.214 460.791 106.99 491.644 115.145C522.5 123.3 542.556 149.968 546.081 186.555C547.844 216.749 546.964 290.583 502.885 322.983C492.582 330.514 480.164 334.602 467.402 334.662ZM473.132 114.925C448.89 114.925 424.647 127.708 408.338 150.409C403.02 157.926 399.617 166.626 398.419 175.755C394.233 209.476 389.384 291.244 435.224 322.541C445.053 329.229 456.718 332.696 468.605 332.46C480.49 332.223 492.008 328.294 501.563 321.219C544.759 289.48 545.42 216.529 543.878 186.775C540.351 151.291 520.516 125.284 490.983 117.349C485.163 115.771 479.162 114.957 473.132 114.925Z" fill="black"/>
<path d="M453.297 246.503C449.011 244.23 445.255 241.075 442.276 237.247L441.615 236.365L442.718 235.704C447.804 232.585 452.169 228.416 455.511 223.475C458.857 218.533 461.109 212.934 462.113 207.052C463.069 201.149 462.717 195.108 461.08 189.356C459.443 183.605 456.559 178.284 452.636 173.771L454.178 172.449C458.335 177.189 461.397 182.786 463.15 188.842C464.902 194.898 465.3 201.265 464.316 207.493C463.294 213.456 461.039 219.142 457.7 224.188C454.363 229.235 450.009 233.531 444.923 236.806C447.391 240.124 450.647 242.775 454.4 244.52L453.297 246.503ZM433.241 224.463C437.014 224.463 440.074 221.404 440.074 217.631C440.074 213.857 437.014 210.798 433.241 210.798C429.468 210.798 426.408 213.857 426.408 217.631C426.408 221.404 429.468 224.463 433.241 224.463ZM493.627 224.463C497.4 224.463 500.46 221.404 500.46 217.631C500.46 213.857 497.4 210.798 493.627 210.798C489.854 210.798 486.794 213.857 486.794 217.631C486.794 221.404 489.854 224.463 493.627 224.463Z" fill="black"/>
<path d="M274.339 706.699C266.625 605.755 257.81 574.016 281.613 463.598C290.868 421.06 320.182 367.504 463.655 388.66C594.346 388.66 651.868 410.481 645.036 540.736C641.95 600.244 639.306 639.916 625.643 699.424" fill="white"/>
<path d="M273.239 706.699C271.914 691.27 270.814 677.385 269.711 664.822C263.54 595.398 260.234 557.045 280.73 463.376C289.987 420.618 319.079 366.401 463.874 387.56H464.096C535.062 387.56 588.616 393.951 618.149 425.026C640.186 448.388 649.002 485.196 646.138 540.958C643.052 600.466 640.408 639.916 626.743 699.647L624.54 698.983C638.203 639.696 640.847 600.244 643.933 540.738C646.799 485.638 638.203 449.272 616.605 426.571C587.513 396.154 534.398 389.763 463.655 389.763C320.401 368.826 291.751 421.941 282.713 463.817C262.437 557.268 265.523 593.192 271.914 664.822C273.016 677.165 274.119 691.27 275.441 706.476L273.239 706.699Z" fill="black"/>
<path d="M530.213 630.219C527.441 593.512 533.882 556.693 548.947 523.104L550.93 523.987C535.951 557.207 529.583 593.668 532.418 630L530.213 630.219ZM584.208 466.903C588.711 466.903 592.363 463.252 592.363 458.748C592.363 454.245 588.711 450.594 584.208 450.594C579.704 450.594 576.053 454.245 576.053 458.748C576.053 463.252 579.704 466.903 584.208 466.903ZM498.035 444.864C502.538 444.864 506.19 441.212 506.19 436.709C506.19 432.206 502.538 428.554 498.035 428.554C493.532 428.554 489.88 432.206 489.88 436.709C489.88 441.212 493.532 444.864 498.035 444.864ZM623.879 555.945C628.382 555.945 632.034 552.294 632.034 547.791C632.034 543.285 628.382 539.636 623.879 539.636C619.376 539.636 615.724 543.285 615.724 547.791C615.724 552.294 619.376 555.945 623.879 555.945ZM545.639 210.799C523.547 206.797 503.742 194.693 490.102 176.857C476.659 159.225 466.74 134.32 468.724 113.823C487.897 108.533 522.719 121.757 537.706 141.152C545.131 150.993 549.781 162.644 551.178 174.893C552.573 187.141 550.662 199.54 545.639 210.799Z" fill="black"/>
<path d="M476.218 114.925C470.707 156.14 432.799 194.269 391.809 201.762C387.401 177.518 392.689 150.85 408.776 132.116C424.867 113.382 460.569 107.872 476.218 114.925Z" fill="black"/>
<path d="M263.101 388.441V308.437C263.326 299.875 266.839 291.732 272.915 285.699C278.989 279.665 287.158 276.204 295.717 276.037L295.275 277.14C325.47 268.985 306.074 311.961 308.28 329.154C310.482 346.345 326.35 388.441 326.35 388.441C326.353 392.589 325.528 396.694 323.928 400.522C322.326 404.346 319.982 407.816 317.029 410.729C314.076 413.641 310.575 415.936 306.727 417.484C302.879 419.031 298.763 419.796 294.614 419.738C290.486 419.767 286.393 418.979 282.571 417.42C278.749 415.858 275.274 413.558 272.344 410.648C269.414 407.741 267.09 404.28 265.502 400.47C263.918 396.656 263.101 392.569 263.101 388.441Z" fill="white"/>
<path d="M294.615 420.841C290.342 420.87 286.108 420.053 282.15 418.436C278.195 416.823 274.595 414.441 271.564 411.427C268.533 408.417 266.126 404.834 264.486 400.891C262.844 396.945 261.998 392.713 261.998 388.441V308.437C262.223 299.584 265.855 291.16 272.136 284.919C278.417 278.678 286.864 275.102 295.717 274.934H297.481V275.595C302.992 274.496 306.958 275.157 309.824 277.579C315.993 283.089 313.568 296.535 311.366 309.537C309.957 315.98 309.293 322.561 309.383 329.155C311.146 344.139 327.453 387.56 327.676 387.999V388.441C327.647 392.742 326.766 396.997 325.086 400.958C323.406 404.918 320.961 408.509 317.887 411.52C314.815 414.531 311.175 416.906 307.183 418.506C303.188 420.105 298.919 420.899 294.615 420.841ZM293.953 277.14C277.866 278.242 264.201 292.347 264.201 308.437V388.441C264.824 396.091 268.297 403.229 273.929 408.443C279.563 413.656 286.95 416.566 294.626 416.592C302.302 416.621 309.706 413.766 315.378 408.593C321.051 403.42 324.572 396.307 325.251 388.66C323.929 385.136 308.941 344.362 307.177 329.374C306.516 324.086 307.619 316.811 308.941 309.317C311.146 297.416 313.349 283.972 308.061 279.123C302.769 274.273 301.447 276.698 295.498 278.242L293.073 278.903L293.953 277.14Z" fill="black"/>
<path d="M294.615 252.895C296.378 251.352 303.208 239.01 300.564 233.5C300.065 232.718 299.291 232.149 298.396 231.905C297.498 231.66 296.546 231.757 295.717 232.177C293.792 233.075 292.068 234.349 290.648 235.924C272.797 252.674 258.69 276.917 251.86 302.926" fill="white"/>
<path d="M252.963 303.146L250.757 302.704C257.59 276.479 271.914 251.793 289.768 235.042C291.399 233.457 293.255 232.12 295.276 231.075C298.142 230.194 300.567 230.855 301.667 233.059C304.533 239.23 297.259 252.234 295.498 253.556L293.953 252.013C295.498 250.911 302.108 239.01 299.683 233.941C297.259 228.871 296.378 233.059 296.159 233.28C294.32 234.017 292.666 235.145 291.309 236.585C273.677 253.115 259.793 277.359 252.963 303.146Z" fill="black"/>
<path d="M325.251 389.543C342.221 370.367 337.152 340.615 336.269 316.15C336.263 314.046 335.891 311.956 335.166 309.978C334.863 309.101 334.246 308.365 333.431 307.917C332.617 307.47 331.665 307.34 330.758 307.554C325.028 309.537 321.062 323.202 321.723 325.185C321.062 331.576 317.315 337.309 314.01 342.598C310.705 347.886 307.177 354.058 307.4 360.449" fill="white"/>
<path d="M326.131 390.205L324.367 388.66C338.472 372.792 337.149 350.092 335.827 328.052C335.608 324.086 335.166 320.116 335.166 316.37C335.163 314.337 334.791 312.32 334.064 310.42C334.064 310.198 332.961 307.995 331.2 308.437C329.436 308.876 322.384 323.202 322.604 324.966H322.826C322.165 331.357 318.637 336.648 315.332 341.937L314.89 342.817C311.585 347.886 308.28 353.619 308.499 359.788H306.294C306.075 352.958 309.602 346.786 312.907 341.276L313.349 340.615C316.654 335.546 319.959 330.477 320.62 324.524C321.281 318.575 324.148 307.995 330.317 305.79C331.515 305.441 332.805 305.565 333.913 306.139C335.022 306.714 335.865 307.695 336.269 308.876C336.973 311.012 337.346 313.24 337.369 315.489C337.369 319.236 337.81 323.202 338.03 327.169C339.355 349.431 340.677 373.676 326.131 390.205Z" fill="black"/>
<path d="M297.92 330.035C293.073 358.907 306.516 391.746 288.004 418.855H287.562C280.883 417.221 274.633 414.17 269.235 409.912C263.834 405.654 259.412 400.285 256.268 394.171C234.889 356.702 237.975 311.081 273.016 267.221C284.257 252.895 304.753 231.296 312.027 236.585C319.298 241.875 312.027 253.115 306.736 257.964C323.926 244.52 327.673 261.272 314.01 275.376C321.282 266.341 334.725 265.238 328.995 279.784C320.179 298.077 302.55 309.978 297.92 329.816" fill="white"/>
<path d="M287.785 420.177H287.343C280.493 418.609 274.073 415.544 268.548 411.199C263.023 406.855 258.528 401.341 255.388 395.051C232.687 355.38 238.856 308.656 272.136 267.002C277.205 260.608 302.992 229.092 312.688 236.145C313.669 236.788 314.469 237.673 315.012 238.715C315.551 239.758 315.814 240.922 315.774 242.095C315.71 246.309 314.322 250.396 311.807 253.776C317.757 250.911 320.623 253.115 321.723 254.217C322.826 255.319 323.929 263.032 320.182 269.424C321.472 268.661 322.927 268.223 324.425 268.145C325.92 268.067 327.416 268.355 328.775 268.985C330.539 269.865 333.183 272.951 330.097 280.664C326.148 288.175 321.342 295.201 315.774 301.604C308.499 310.639 301.669 319.236 299.022 330.477C296.378 341.717 297.923 352.075 298.584 362.874C299.683 382.269 301.008 402.106 288.884 419.738C288.446 419.957 288.223 420.177 287.785 420.177ZM309.16 237.026C301.889 237.026 286.24 252.454 273.9 268.101C240.619 309.759 234.889 354.499 257.148 393.951C260.229 399.817 264.509 404.967 269.711 409.069C274.913 413.171 280.92 416.13 287.343 417.755C298.584 401.004 297.481 381.608 296.378 362.654C295.717 351.855 295.056 340.392 296.82 329.815C299.464 318.133 306.958 308.876 314.01 300.06C319.408 293.781 324.067 286.905 327.895 279.564C329.878 275.156 329.659 271.629 327.675 270.526C325.692 269.424 320.401 270.749 316.215 274.715C315.756 275.283 315.24 275.8 314.671 276.256L313.13 274.934L314.671 273.17C320.843 265.899 322.606 258.184 320.182 255.54C317.757 252.895 313.13 254.658 307.399 259.066L305.855 257.303C309.821 253.776 314.01 246.724 313.568 241.875C313.591 241.047 313.398 240.227 313.014 239.494C312.627 238.761 312.059 238.139 311.366 237.687C310.734 237.21 309.951 236.975 309.16 237.026Z" fill="black"/>
<path d="M264.423 316.37L262.217 315.931C265.231 302.464 271.686 290.008 280.952 279.784C289.352 270.495 298.737 262.144 308.941 254.879L310.263 256.642C300.235 263.876 290.934 272.068 282.493 281.106C273.623 291.169 267.41 303.293 264.423 316.37ZM283.154 325.185L280.952 324.747C284.918 301.824 300.567 286.836 314.229 273.612L315.774 272.071L317.315 273.612L315.774 275.157C302.328 288.158 286.901 302.926 283.154 325.185ZM316.435 390.643C304.68 371.542 302.916 356.335 311.143 345.023L312.907 346.345C305.413 356.702 307.177 371.251 318.418 389.544L316.435 390.643Z" fill="black"/>
<path d="M399.299 689.728C401.283 631.322 392.908 595.395 384.092 555.284C362.275 456.324 339.355 396.376 334.725 393.51C317.757 383.372 243.705 400.784 243.925 408.275C247.23 499.081 259.573 559.47 270.592 676.724C277.205 748.573 294.173 783.397 350.154 794.638C387.401 801.91 442.937 802.793 476.218 758.272" fill="white"/>
<path d="M387.178 799.485C374.673 799.416 362.203 798.16 349.932 795.738C290.429 783.839 275.661 744.826 269.489 676.724C265.084 630.88 260.454 593.192 256.487 559.912C250.316 508.116 244.808 463.598 242.822 408.278C242.822 406.953 243.925 405.631 246.349 404.309C259.132 396.596 319.518 383.153 335.166 392.629C340.896 395.935 364.258 460.29 385.195 555.062L385.856 558.809C394.453 596.939 402.385 633.083 400.402 689.728H398.2C400.183 633.525 392.247 597.6 383.873 559.47L382.993 555.723C359.85 451.255 337.591 396.815 334.064 394.613C319.74 386.235 261.776 397.918 247.452 406.292C245.247 407.836 245.027 408.497 245.027 408.497C247.01 463.598 252.521 508.116 258.69 559.912C262.659 593.192 267.286 630.88 271.475 676.724C277.866 743.726 292.19 782.075 350.373 793.755C382.332 800.149 440.954 803.893 475.334 757.83L477.098 759.152C453.075 791.111 417.592 799.485 387.178 799.485Z" fill="black"/>
<path d="M257.59 486.299H248.333V484.093C289.326 485.415 326.792 477.922 359.631 461.393L360.511 463.376C329.878 478.585 295.276 486.299 257.59 486.299Z" fill="black"/>
<path d="M276.322 484.535C263.961 457.998 259.816 428.372 264.42 399.459L266.406 399.901C262.015 428.381 266.155 457.524 278.305 483.655L276.322 484.535ZM292.126 389.477L289.993 390.028L312.29 476.256L314.426 475.702L292.126 389.477ZM336.05 472.414C334.759 443.706 326.761 415.7 312.688 390.643L314.671 389.543C328.816 414.9 336.887 443.189 338.252 472.192L336.05 472.414Z" fill="black"/>
<path d="M500.902 357.363H441.174C428.761 357.363 418.695 367.429 418.695 379.844V387.448C418.695 399.863 428.761 409.929 441.174 409.929H500.902C513.317 409.929 523.38 399.863 523.38 387.448V379.844C523.38 367.429 513.317 357.363 500.902 357.363Z" fill="white"/>
<path d="M500.679 411.142H441.173C438.059 411.142 434.973 410.524 432.098 409.326C429.222 408.128 426.613 406.37 424.422 404.156C422.228 401.945 420.496 399.318 419.324 396.431C418.152 393.544 417.563 390.453 417.592 387.338V380.067C417.592 373.791 420.069 367.769 424.485 363.312C428.902 358.852 434.901 356.321 441.173 356.263H500.679C506.955 356.321 512.95 358.852 517.367 363.312C521.784 367.769 524.26 373.791 524.26 380.067V387.338C524.289 390.453 523.703 393.544 522.531 396.431C521.359 399.318 519.624 401.945 517.433 404.156C515.239 406.37 512.63 408.128 509.755 409.326C506.88 410.524 503.794 411.142 500.679 411.142ZM441.173 358.466C438.347 358.466 435.55 359.026 432.943 360.114C430.334 361.202 427.967 362.798 425.978 364.805C423.992 366.814 422.421 369.198 421.359 371.816C420.3 374.435 419.769 377.24 419.797 380.067V387.338C419.769 390.164 420.3 392.967 421.359 395.588C422.421 398.206 423.992 400.591 425.978 402.6C427.967 404.606 430.334 406.202 432.943 407.291C435.55 408.379 438.347 408.939 441.173 408.939H500.679C503.505 408.939 506.302 408.379 508.912 407.291C511.519 406.202 513.886 404.606 515.875 402.6C517.863 400.591 519.434 398.206 520.493 395.588C521.556 392.967 522.087 390.164 522.058 387.338V380.067C522.087 377.24 521.556 374.435 520.493 371.816C519.434 369.198 517.863 366.814 515.875 364.805C513.886 362.798 511.519 361.202 508.912 360.114C506.302 359.026 503.505 358.466 500.679 358.466H441.173ZM463.213 305.79C450.431 305.79 440.073 295.874 435.224 278.681C434.782 274.273 435.443 268.543 438.971 265.238C440.221 264.138 441.699 263.33 443.301 262.874C444.903 262.415 446.583 262.319 448.225 262.594L453.736 263.474C462.994 265.016 471.81 266.341 480.184 264.796C481.792 264.542 483.437 264.649 484.999 265.105C486.56 265.561 488.004 266.361 489.219 267.44C490.4 268.511 491.3 269.854 491.837 271.352C492.374 272.853 492.536 274.461 492.305 276.037C490.541 291.905 479.303 304.468 465.418 305.57L463.213 305.79ZM446.023 264.796C444.002 264.753 442.039 265.46 440.512 266.779C439.222 268.367 438.281 270.206 437.747 272.18C437.216 274.155 437.106 276.222 437.426 278.239C442.057 294.991 452.633 304.468 465.196 303.365C477.759 302.265 488.339 292.788 490.102 275.817C490.25 274.602 490.108 273.367 489.687 272.218C489.265 271.069 488.575 270.035 487.678 269.204C486.757 268.306 485.64 267.64 484.416 267.258C483.189 266.875 481.89 266.785 480.625 267.002C471.81 268.543 462.771 267.221 453.294 265.677L447.787 264.796H446.023Z" fill="black"/>
<path d="M438.971 410.261C435.888 392.638 437.64 374.51 444.04 357.805L446.023 358.466C439.811 374.836 438.137 392.577 441.173 409.82L438.971 410.261Z" fill="black"/>
<path d="M420.459 268.324C418.695 266.56 413.407 253.116 418.695 248.046C419.694 247.378 420.851 246.986 422.052 246.908C423.25 246.831 424.451 247.072 425.528 247.606C427.675 248.83 429.609 250.392 431.258 252.234C449.894 271.978 460.705 297.831 461.672 324.966" fill="white"/>
<path d="M460.569 325.185C459.538 298.238 448.817 272.57 430.374 252.895C428.92 251.15 427.118 249.725 425.086 248.707C424.243 248.208 423.276 247.963 422.298 248.003C421.322 248.042 420.375 248.363 419.575 248.928C418.851 249.773 418.305 250.754 417.965 251.814C417.624 252.873 417.497 253.99 417.592 255.099C417.705 259.476 418.998 263.74 421.339 267.44L419.798 268.985C418.253 267.663 415.39 261.049 415.39 255.099C415.271 253.7 415.447 252.292 415.901 250.964C416.357 249.636 417.084 248.418 418.034 247.385C419.137 246.488 420.482 245.946 421.899 245.828C423.314 245.71 424.734 246.022 425.966 246.724C428.284 247.884 430.377 249.452 432.138 251.352C450.832 271.433 461.701 297.551 462.774 324.966L460.569 325.185Z" fill="black"/>
<path d="M427.289 414.888C467.179 381.389 477.317 335.765 444.92 286.394C434.121 270.307 414.068 245.401 402.385 249.589C390.706 253.776 397.536 265.899 403.046 271.629C384.315 255.319 374.177 271.409 387.839 287.497C380.787 277.578 363.597 274.054 366.683 289.48C372.413 309.098 392.247 323.863 392.247 344.139C389.603 373.672 362.275 404.97 378.804 434.945C399.522 429.656 417.812 423.043 427.289 414.888Z" fill="white"/>
<path d="M378.143 436.267L377.704 435.606C366.905 415.769 374.619 395.493 382.109 375.878C386.079 365.518 390.264 354.5 391.148 344.139C392.028 333.782 384.757 323.202 377.924 313.064C371.091 302.926 368.005 298.077 365.58 289.922C363.158 281.767 367.344 279.342 369.55 278.462C371.752 277.579 377.924 278.24 382.332 280.887C379.246 274.493 380.126 268.985 382.993 266.118C385.856 263.255 390.925 262.372 398.2 266.78C396.101 263.191 395.322 258.981 395.994 254.878C396.344 253.352 397.103 251.95 398.191 250.823C399.279 249.697 400.653 248.889 402.166 248.487C417.154 243.197 442.937 281.325 445.804 285.733C476.879 332.899 470.265 380.286 427.953 415.769C419.137 423.263 402.608 430.096 379.026 436.048L378.143 436.267ZM373.074 280.003C372.15 279.989 371.238 280.217 370.43 280.664C366.905 281.986 367.125 286.175 367.786 289.261C369.988 297.196 375.057 304.69 379.688 311.742C384.315 318.794 393.35 332.018 393.35 344.139C393.35 356.263 388.281 365.96 384.095 376.759C376.821 395.493 369.55 415.108 379.246 433.623C401.947 427.893 418.256 421.06 426.63 414.008C468.504 378.742 474.673 333.782 443.821 287.055C433.902 271.629 413.848 246.724 402.827 250.47C401.667 250.811 400.622 251.463 399.805 252.357C398.988 253.251 398.434 254.352 398.2 255.54C397.097 260.169 400.183 267.002 403.71 270.749L402.166 272.51C393.35 264.796 387.181 265.016 384.534 267.663C381.89 270.307 381.671 277.359 387.181 285.072C387.805 285.554 388.33 286.152 388.723 286.836L386.959 288.158L385.637 286.394C382.401 282.766 377.915 280.483 373.074 280.003Z" fill="black"/>
<path d="M443.379 336.207H441.176C442.057 320.558 434.563 307.112 428.172 298.518C421.781 289.922 409.437 278.239 399.299 269.424L400.621 267.882C410.982 276.698 421.781 285.956 429.936 297.196C438.09 308.434 444.259 320.116 443.379 336.207ZM415.831 341.937H413.626C415.609 319.236 399.741 302.043 386.078 287.055L384.534 285.294L386.078 283.75L387.62 285.514C401.724 300.943 417.814 318.353 415.831 341.937Z" fill="black"/>
<path d="M518.091 695.9C518.753 637.494 509.276 601.789 499.579 561.895C475.115 463.598 450.873 404.309 446.023 401.665C428.833 391.968 355.223 411.364 355.665 418.635C361.172 509.219 373.954 598.703 393.569 714.854C403.046 771.054 461.449 806.098 523.16 801.029C584.869 795.96 611.536 763.341 625.64 699.424" fill="white"/>
<path d="M511.259 802.571C485.403 802.718 460.032 795.533 438.09 781.853C413.184 765.766 396.878 741.962 392.47 715.073C373.957 605.094 360.292 512.747 354.562 418.635C354.562 417.313 355.665 415.991 357.867 414.669C370.649 406.734 430.597 391.746 446.465 400.562C452.414 403.87 477.32 467.564 500.46 561.676L501.563 565.642C510.82 603.55 519.855 639.255 519.194 695.897H516.989C517.65 639.477 508.615 603.772 499.357 566.084L498.477 562.337C472.69 458.307 449.109 404.531 445.362 402.545C431.038 394.39 373.296 407.614 359.189 416.433C356.764 417.755 356.764 418.635 356.764 418.635C362.494 512.527 375.941 604.875 394.453 714.631C403.71 768.629 459.027 805.218 523.161 799.927C579.8 795.299 610.214 765.105 624.54 699.205L626.743 699.644C611.978 766.646 581.125 797.282 523.38 802.132L511.259 802.571Z" fill="black"/>
<path d="M364.039 496.437H362.053V494.231H364.039C404.368 494.231 440.735 485.638 472.69 468.667L473.793 470.65C441.615 487.621 404.591 496.437 364.039 496.437Z" fill="black"/>
<path d="M390.045 494.231C377.014 467.977 372.032 438.458 375.718 409.378H377.924C374.139 438.008 379.052 467.111 392.028 492.909L390.045 494.231ZM403.364 404.222L401.245 404.825L425.643 490.482L427.762 489.878L403.364 404.222ZM455.061 479.908H452.856C454.065 450.729 444.407 422.143 425.747 399.681L427.511 398.137C446.393 421.103 456.196 450.198 455.061 479.908ZM468.282 409.819C467.806 392.54 468.323 375.246 469.827 358.024H472.029C470.522 375.174 470.006 392.393 470.488 409.6L468.282 409.819ZM498.477 409.378H496.271C498.881 392.569 498.734 375.448 495.833 358.688H498.035C500.89 375.451 501.04 392.566 498.477 409.378ZM434.121 538.752C438.625 538.752 442.276 535.101 442.276 530.598C442.276 526.094 438.625 522.443 434.121 522.443C429.618 522.443 425.967 526.094 425.967 530.598C425.967 535.101 429.618 538.752 434.121 538.752ZM472.471 598.261C476.974 598.261 480.626 594.609 480.626 590.106C480.626 585.603 476.974 581.951 472.471 581.951C467.968 581.951 464.316 585.603 464.316 590.106C464.316 594.609 467.968 598.261 472.471 598.261ZM436.105 714.854C440.611 714.854 444.259 711.202 444.259 706.699C444.259 702.193 440.611 698.544 436.105 698.544C431.601 698.544 427.953 702.193 427.953 706.699C427.953 711.202 431.601 714.854 436.105 714.854ZM529.771 767.749C534.274 767.749 537.926 764.097 537.926 759.594C537.926 755.091 534.274 751.439 529.771 751.439C525.268 751.439 521.619 755.091 521.619 759.594C521.619 764.097 525.268 767.749 529.771 767.749ZM584.208 658.869C588.711 658.869 592.363 655.221 592.363 650.715C592.363 646.211 588.711 642.56 584.208 642.56C579.705 642.56 576.053 646.211 576.053 650.715C576.053 655.221 579.705 658.869 584.208 658.869ZM290.207 524.206C294.713 524.206 298.361 520.555 298.361 516.052C298.361 511.548 294.713 507.897 290.207 507.897C285.703 507.897 282.055 511.548 282.055 516.052C282.055 520.555 285.703 524.206 290.207 524.206ZM346.849 614.571C351.352 614.571 355.004 610.919 355.004 606.416C355.004 601.913 351.352 598.261 346.849 598.261C342.343 598.261 338.694 601.913 338.694 606.416C338.694 610.919 342.343 614.571 346.849 614.571ZM313.791 698.544C318.294 698.544 321.946 694.892 321.946 690.389C321.946 685.886 318.294 682.234 313.791 682.234C309.285 682.234 305.636 685.886 305.636 690.389C305.636 694.892 309.285 698.544 313.791 698.544ZM382.109 759.594C386.616 759.594 390.264 755.942 390.264 751.439C390.264 746.936 386.616 743.284 382.109 743.284C377.606 743.284 373.957 746.936 373.957 751.439C373.957 755.942 377.606 759.594 382.109 759.594Z" fill="black"/>
<path d="M90.5338 394.832C91.8562 345.903 113.455 354.719 106.182 402.326C112.132 401.223 132.629 394.171 133.73 404.089C133.73 407.175 132.188 411.361 128.661 411.803C135.934 411.803 138.799 424.146 134.832 427.451C130.865 430.756 145.191 430.979 135.714 439.794C132.408 442.877 141.444 440.894 140.342 448.388C139.24 455.882 110.369 460.951 102.214 459.629C94.0599 458.307 73.1229 447.288 83.0406 412.464C85.024 405.189 90.3136 401.445 90.5338 394.832Z" fill="white"/>
<path d="M105.52 460.951H101.993C94.7546 459.104 88.5139 454.523 84.5826 448.169C78.8525 438.911 77.7507 426.79 81.9381 412.464C82.8113 409.482 84.1504 406.656 85.9052 404.09C87.6684 401.004 89.4313 398.579 89.4313 395.051C89.8721 376.759 93.1779 364.196 98.4674 361.771C99.1536 361.367 99.9509 361.191 100.743 361.272C101.536 361.35 102.283 361.682 102.875 362.213C107.503 365.518 110.589 378.964 107.503 401.223L110.148 400.562C116.98 398.798 127.339 396.154 132.187 399.682C132.953 400.146 133.594 400.79 134.055 401.558C134.516 402.326 134.783 403.195 134.832 404.09C134.903 405.469 134.684 406.849 134.191 408.14C133.697 409.43 132.94 410.602 131.967 411.583C133.152 412.227 134.194 413.108 135.027 414.167C135.861 415.229 136.47 416.45 136.815 417.755C137.523 419.325 137.852 421.043 137.775 422.766C137.698 424.487 137.219 426.17 136.375 427.671C137.464 428.185 138.414 428.955 139.143 429.914C139.871 430.875 140.358 431.995 140.562 433.181C140.782 435.387 139.46 438.031 136.595 440.675H136.375L137.036 441.117C138.552 441.622 139.834 442.658 140.644 444.038C141.455 445.415 141.739 447.04 141.444 448.611C141.229 449.534 140.824 450.403 140.255 451.162C139.686 451.922 138.964 452.554 138.138 453.019C131.306 458.088 114.335 460.951 105.52 460.951ZM100.451 363.315H99.349C95.8227 365.079 92.0761 375.437 91.6353 394.613C91.2658 398.256 89.9763 401.743 87.8884 404.751C86.163 407.144 84.8932 409.831 84.1421 412.686C80.1749 426.349 81.0565 437.812 86.5663 446.405C90.1408 452.161 95.7118 456.399 102.214 458.307C108.605 459.41 129.322 456.543 136.815 451.035C137.404 450.706 137.922 450.265 138.338 449.736C138.754 449.205 139.061 448.599 139.24 447.95C139.404 447.413 139.454 446.847 139.384 446.293C139.315 445.736 139.128 445.199 138.836 444.719C138.545 444.24 138.155 443.83 137.693 443.513C137.23 443.195 136.706 442.979 136.154 442.881C135.052 442.439 134.171 441.997 133.95 440.895C133.73 439.795 134.611 439.134 135.052 438.692C135.493 438.25 138.579 434.503 138.358 432.962C138.138 431.418 136.154 429.657 135.052 428.993C133.95 428.332 133.73 428.112 133.73 427.232V426.79L134.391 426.349C135.934 425.027 136.154 421.502 135.052 417.974C133.95 414.447 132.849 412.686 128.881 412.686V410.481C131.746 410.039 132.848 406.292 132.848 403.867C132.798 403.287 132.613 402.724 132.306 402.228C132 401.728 131.582 401.31 131.085 401.004C127.118 398.137 116.98 400.784 110.809 402.106L106.622 403.206H105.079V401.665C108.605 378.081 105.079 365.74 101.553 363.315C101.38 363.235 101.192 363.194 101.002 363.194C100.812 363.194 100.624 363.235 100.451 363.315Z" fill="black"/>
<path d="M129.66 410.351L115.696 412.608L116.049 414.79L130.012 412.533L129.66 410.351ZM122.931 430.318V428.112C127.024 427.974 131.089 427.382 135.052 426.348L135.714 428.554C131.506 429.475 127.231 430.067 122.931 430.318ZM123.813 444.641L123.372 442.439C127.196 441.922 130.96 441.036 134.613 439.795L135.494 441.778C131.721 443.169 127.802 444.13 123.813 444.641Z" fill="black"/>
<path d="M234.009 202.203C237.092 177.738 247.452 183.248 241.281 206.611C244.366 206.39 254.946 203.966 254.946 208.815C254.969 209.673 254.698 210.513 254.175 211.195C253.656 211.878 252.914 212.36 252.079 212.561C255.826 212.782 256.487 219.173 254.285 220.496C252.079 221.818 259.354 222.92 254.285 226.667C249.216 230.414 256.929 227.549 256.046 231.295C255.165 235.042 240.4 235.924 236.431 234.822C232.465 233.72 222.549 227.328 229.379 210.578C230.701 207.051 233.567 205.509 234.009 202.203Z" fill="white"/>
<path d="M241.5 236.365C239.724 236.5 237.94 236.351 236.211 235.924C234.384 235.304 232.698 234.321 231.258 233.033C229.82 231.745 228.657 230.18 227.837 228.431C225.412 223.361 225.412 217.19 228.279 210.138C228.94 208.661 229.751 207.258 230.701 205.95C231.806 204.87 232.574 203.491 232.906 201.983C234.009 192.506 236.431 186.555 239.517 185.453C239.952 185.258 240.435 185.196 240.905 185.274C241.376 185.353 241.814 185.568 242.161 185.893C244.808 188.318 245.027 196.032 242.825 205.289H243.486C247.01 204.848 252.521 203.966 254.724 206.17C255.148 206.465 255.491 206.862 255.722 207.324C255.953 207.786 256.066 208.299 256.046 208.815C255.985 210.1 255.523 211.332 254.724 212.342C255.486 213.342 256.08 214.458 256.487 215.647C256.834 217.292 256.6 219.005 255.826 220.496C256.487 221.158 257.59 222.259 257.368 223.582C257.327 224.281 257.128 224.962 256.782 225.573C256.438 226.184 255.962 226.709 255.385 227.108C256.115 227.555 256.681 228.225 256.998 229.019C257.316 229.814 257.371 230.69 257.148 231.516C256.736 232.566 255.95 233.428 254.946 233.941C251.86 235.704 246.13 236.365 241.5 236.365ZM235.109 202.203C234.785 204.13 233.859 205.904 232.464 207.272C231.803 208.374 230.923 209.476 230.262 210.799C227.837 217.411 227.618 222.921 229.82 227.329C230.478 228.794 231.422 230.113 232.594 231.21C233.766 232.308 235.146 233.161 236.653 233.72C239.739 234.602 249.877 234.381 253.843 231.957C257.809 229.533 254.946 231.296 254.946 231.076C254.946 230.855 254.724 229.533 253.843 228.872C253.531 228.746 253.263 228.534 253.067 228.261C252.873 227.987 252.758 227.664 252.74 227.329C252.671 227.008 252.72 226.672 252.885 226.387C253.046 226.102 253.309 225.888 253.624 225.786C254.724 224.904 255.165 224.243 255.165 223.582C255.165 222.921 254.504 222.26 254.063 221.819C253.811 221.699 253.595 221.513 253.439 221.28C253.283 221.047 253.194 220.776 253.182 220.496V220.056L253.624 219.615C254.06 219.153 254.357 218.575 254.472 217.949C254.591 217.323 254.524 216.677 254.285 216.088C254.063 215.647 253.624 213.664 252.079 213.664V211.46C252.619 211.27 253.084 210.909 253.404 210.432C253.722 209.955 253.875 209.387 253.843 208.815C253.829 208.408 253.673 208.019 253.401 207.713C251.638 206.391 246.569 207.052 243.705 207.493H239.958L240.4 206.17C243.264 194.93 242.161 188.538 240.839 187.436H240.178C239.078 187.877 236.431 191.624 235.109 202.203Z" fill="black"/>
<path d="M252.925 211.459L245.885 211.841L246.003 214.042L253.046 213.66L252.925 211.459ZM249.877 222.039H248.113V219.835C250.105 219.908 252.103 219.76 254.063 219.394L254.504 221.598L249.877 222.039ZM248.113 229.092V226.888C249.969 226.898 251.82 226.676 253.621 226.226L254.282 228.21C252.287 228.835 250.203 229.132 248.113 229.092ZM112.573 200.219C124.033 172.67 153.345 150.409 144.75 192.285C138.799 221.378 119.846 252.895 109.708 247.385C60.5603 221.378 74.2249 131.234 112.573 200.219ZM217.699 373.453L216.158 373.012C205.356 365.299 201.831 347.006 204.256 338.409C205.356 334.885 206.9 334.001 208.222 334.001C209.544 334.001 214.394 337.529 217.919 345.023C220.785 337.307 225.632 330.254 229.159 331.138C232.687 332.018 232.687 335.984 231.365 344.139C229.379 356.263 223.871 371.029 219.021 373.234L217.699 373.453ZM208.442 336.207C207.561 336.207 206.9 337.307 206.459 338.851C204.475 346.122 207.12 363.757 217.48 371.251H218.141C221.446 369.706 227.176 357.363 229.159 343.92C230.701 333.782 228.718 333.34 228.718 333.34C228.718 333.34 221.888 339.07 219.021 348.328L218.141 351.194L217.038 348.547C211.969 336.868 209.103 336.207 208.442 336.207ZM79.7344 507.455C83.9218 496.437 95.1616 487.621 91.8558 504.15C89.6519 515.832 82.3792 528.173 78.412 525.97C59.679 515.832 64.9682 479.908 79.7344 507.455ZM140.122 317.031C144.53 306.012 155.77 297.196 152.464 313.945C150.039 325.408 142.987 337.97 139.02 335.765C120.066 325.408 125.356 289.702 140.122 317.031ZM323.487 112.059C332.742 88.4764 356.987 69.3017 349.932 105.227C344.863 130.132 329.436 157.021 321.062 152.392C280.51 130.132 291.751 52.9921 323.487 112.059ZM359.631 310.198C301.799 280.52 236.307 269.144 171.857 277.579V275.376C236.688 266.904 302.564 278.358 360.731 308.215L359.631 310.198ZM205.578 458.749L203.814 457.426C243.232 405.299 297.579 366.404 359.631 345.903L360.292 347.886C298.69 368.332 244.742 406.988 205.578 458.749ZM359.412 263.033C306.819 224.203 267.243 170.33 245.911 108.533L247.894 107.652C269.079 169.105 308.43 222.675 360.734 261.269L359.412 263.033Z" fill="black"/>
<path d="M180.453 156.58C193.841 156.58 204.695 145.726 204.695 132.336C204.695 118.946 193.841 108.092 180.453 108.092C167.064 108.092 156.21 118.946 156.21 132.336C156.21 145.726 167.064 156.58 180.453 156.58Z" fill="white"/>
<path d="M180.453 157.462C175.431 157.462 170.522 155.97 166.349 153.175C162.177 150.38 158.929 146.408 157.017 141.764C155.105 137.12 154.617 132.012 155.613 127.09C156.608 122.167 159.044 117.651 162.611 114.116C166.177 110.58 170.714 108.183 175.645 107.23C180.576 106.278 185.677 106.811 190.305 108.763C194.932 110.716 198.875 113.998 201.635 118.195C204.392 122.392 205.841 127.314 205.797 132.336C205.797 135.655 205.139 138.94 203.863 142.003C202.588 145.065 200.717 147.845 198.361 150.181C196.006 152.517 193.209 154.363 190.134 155.613C187.06 156.863 183.769 157.491 180.453 157.462ZM180.453 109.195C175.876 109.195 171.402 110.552 167.597 113.094C163.791 115.637 160.825 119.252 159.074 123.48C157.322 127.709 156.864 132.362 157.757 136.851C158.65 141.34 160.854 145.464 164.09 148.7C167.326 151.937 171.45 154.141 175.938 155.034C180.427 155.927 185.08 155.468 189.309 153.717C193.538 151.965 197.152 148.999 199.695 145.193C202.235 141.388 203.595 136.913 203.595 132.336C203.595 126.199 201.156 120.313 196.817 115.972C192.476 111.633 186.59 109.195 180.453 109.195Z" fill="black"/>
<path d="M192.574 128.81C195.253 128.81 197.423 126.639 197.423 123.961C197.423 121.283 195.253 119.112 192.574 119.112C189.898 119.112 187.727 121.283 187.727 123.961C187.727 126.639 189.898 128.81 192.574 128.81ZM167.891 132.336C170.569 132.336 172.739 130.166 172.739 127.488C172.739 124.81 170.569 122.639 167.891 122.639C165.213 122.639 163.043 124.81 163.043 127.488C163.043 130.166 165.213 132.336 167.891 132.336ZM180.452 153.054C173.179 153.054 165.686 147.984 163.923 136.303V134.54L165.466 135.201C178.469 139.169 183.98 136.965 195.218 132.557L196.54 132.116V133.438C197.862 144.899 190.591 151.731 182.656 152.834L180.452 153.054ZM166.348 137.846C168.551 147.764 175.824 151.511 182.436 150.63C186.041 150.083 189.3 148.183 191.552 145.316C193.804 142.45 194.88 138.833 194.557 135.201C184.419 139.169 178.249 141.152 166.348 137.846ZM42.709 334.443C61.5751 334.443 76.8692 319.146 76.8692 300.279C76.8692 281.415 61.5751 266.118 42.709 266.118C23.8426 266.118 8.54846 281.415 8.54846 300.279C8.54846 319.146 23.8426 334.443 42.709 334.443Z" fill="black"/>
<path d="M42.7081 335.546C35.7339 335.546 28.9165 333.476 23.1177 329.602C17.3187 325.728 12.7991 320.22 10.1304 313.774C7.46134 307.331 6.76305 300.242 8.12353 293.4C9.48431 286.562 12.8424 280.277 17.774 275.344C22.7055 270.414 28.9889 267.054 35.8292 265.694C42.6694 264.334 49.7591 265.033 56.2024 267.7C62.6457 270.37 68.1532 274.891 72.028 280.69C75.9024 286.487 77.9705 293.305 77.9705 300.279C77.9705 309.632 74.2553 318.604 67.6426 325.217C61.0295 331.83 52.0603 335.546 42.7081 335.546ZM42.7081 267.221C36.1698 267.221 29.7784 269.161 24.342 272.792C18.9055 276.424 14.6685 281.588 12.1663 287.63C9.66415 293.669 9.00974 300.317 10.2854 306.731C11.5607 313.142 14.7092 319.034 19.3325 323.658C23.9557 328.28 29.8463 331.429 36.259 332.705C42.6717 333.981 49.3186 333.326 55.3592 330.823C61.3998 328.323 66.5626 324.085 70.1952 318.647C73.8278 313.211 75.7665 306.82 75.7665 300.279C75.7665 291.512 72.284 283.103 66.0843 276.903C59.8846 270.702 51.4758 267.221 42.7081 267.221Z" fill="white"/>
<path d="M59.8993 295.433C63.6728 295.433 66.7315 292.373 66.7315 288.6C66.7315 284.827 63.6728 281.767 59.8993 281.767C56.1259 281.767 53.0672 284.827 53.0672 288.6C53.0672 292.373 56.1259 295.433 59.8993 295.433ZM24.8569 300.279C28.6301 300.279 31.6888 297.222 31.6888 293.449C31.6888 289.674 28.6301 286.617 24.8569 286.617C21.0838 286.617 18.0248 289.674 18.0248 293.449C18.0248 297.222 21.0838 300.279 24.8569 300.279ZM42.7084 329.155C32.7909 329.155 22.2125 322.322 19.788 306.012V304.248L21.3306 304.909C39.8436 310.64 48.2182 307.334 63.6457 301.163L65.1886 300.721V302.043C66.9517 317.692 56.8135 327.61 46.0145 328.932L42.7084 329.155ZM22.2122 307.334C25.2977 322.541 35.8765 328.052 45.3534 326.73C54.8301 325.408 63.8662 317.253 62.9846 303.807C48.4387 309.537 39.6231 312.623 22.2122 307.334ZM187.285 510.541C211.75 451.916 121.829 471.972 150.701 503.931C161.279 515.613 174.944 501.948 185.083 516.713C185.302 516.052 186.183 513.408 187.285 510.541Z" fill="white"/>
<path d="M185.744 519.357L184.2 517.374C179.131 510.102 173.401 510.102 167.009 510.322C160.618 510.541 155.109 510.541 149.819 504.811C144.53 499.081 141.885 488.502 147.395 481.669C152.904 474.836 173.401 468.887 183.758 475.278C189.491 478.805 197.865 488.063 188.388 510.983C186.624 515.61 186.183 516.713 186.183 516.935L185.744 519.357ZM169.434 508.116C174.723 508.116 180.013 508.78 184.641 514.51L186.183 510.102C192.796 494.232 191.474 482.552 182.657 477.261C173.842 471.973 156.431 474.397 149.158 483.213C144.349 491.322 148.171 498.105 151.582 503.27C157.974 510.322 161.5 508.339 167.009 508.116H169.434Z" fill="black"/>
<path d="M198.084 65.3349C236.211 -26.3515 95.8226 4.94528 140.782 54.9758C157.091 73.0487 178.91 51.8903 194.779 75.0324C195.714 71.7456 196.817 68.5088 198.084 65.3349Z" fill="white"/>
<path d="M195.218 77.6771L193.676 75.6934C185.741 64.0122 176.266 64.0122 166.348 64.2328C156.431 64.453 148.056 64.6736 140.122 55.8574C125.135 39.3275 131.306 26.7647 136.375 20.5936C148.496 5.82684 176.045 0.978105 192.135 10.6756C200.948 15.9651 213.733 30.2911 198.965 65.7754C197.204 70.8447 195.879 74.371 195.66 75.2526L195.218 77.6771ZM170.095 62.0288C178.469 62.0288 186.844 63.1306 194.337 72.6078C194.779 70.8447 195.66 68.4205 196.982 64.8938C207.342 39.7683 205.356 21.0344 191.032 12.4388C176.706 3.84312 149.598 8.03081 137.918 22.1365C130.204 31.6137 131.526 43.0744 141.664 54.3148C151.802 65.5551 157.312 62.2491 166.348 62.0288H170.095Z" fill="black"/>
</g>
<defs>
<clipPath id="clip0_2969_142">
<rect width="612" height="806" fill="white"/>
</clipPath>
</defs>
</svg>
