<svg width="978" height="803" viewBox="0 0 978 803" fill="none" xmlns="http://www.w3.org/2000/svg">
<g clip-path="url(#clip0_3204_140)">
<path d="M295.08 726.046C299.731 649.612 314.694 436.691 248.374 399.083C195.399 368.952 80.3493 372.389 38.8992 425.368C-2.55064 478.347 -19.737 655.477 64.578 727.864C71.8572 734.134 82.9779 734.134 92.28 732.718C101.782 731.304 117.756 725.641 124.226 721.799L295.283 726.046H295.08Z" fill="white"/>
<path d="M296.092 726.046H294.069L294.473 719.371C299.124 641.928 311.861 436.287 247.767 399.889C197.622 371.381 81.967 371.783 39.506 425.975C19.0843 452.059 5.53743 510.495 6.14391 568.327C6.75039 609.17 15.0405 684.188 64.9827 727.058C70.644 731.909 79.5405 733.527 91.8753 731.706C101.377 730.293 117.149 724.63 123.416 720.788L124.428 722.609C118.161 726.451 101.984 732.313 92.0777 733.73C78.934 735.548 69.6331 733.73 63.5671 728.674C13.0187 685.2 4.52653 609.575 3.91976 568.327C3.11093 510.09 17.0625 451.047 37.6863 424.761C56.6926 400.496 93.4913 384.117 138.783 380.073C180.032 376.231 222.089 383.311 248.577 398.273C313.682 435.275 301.55 634.447 296.294 719.574L295.89 726.248L296.092 726.046Z" fill="#101216"/>
<path d="M186.299 393.42L182.052 335.793L117.149 339.635L121.396 397.059L186.299 393.42Z" fill="white"/>
<path d="M185.29 393.42L181.246 337.004L118.363 340.444L122.404 397.059L120.384 397.262L116.137 338.623L183.064 334.781L187.31 393.42H185.29Z" fill="#101216"/>
<path d="M79.5405 249.046C74.2834 243.991 65.5892 243.385 59.1188 246.822C52.6485 250.26 48.4026 257.337 47.5937 264.616C46.5828 271.895 48.807 279.377 52.4464 285.644C56.6926 292.923 62.9606 298.991 70.846 302.428C78.5296 305.865 87.6282 306.27 95.5148 303.44C84.5953 287.668 78.5296 268.458 79.9449 249.046H79.5405Z" fill="white"/>
<path d="M86.4152 306.27C80.9558 306.674 75.4966 305.663 70.2395 303.44C62.5562 300.002 55.8838 293.935 51.4355 286.251C47.3916 279.175 45.5719 271.491 46.5828 264.616C47.5937 256.73 52.2443 249.451 58.7144 246.013C65.7912 242.171 74.8901 243.182 80.3493 248.439L80.7537 248.844V249.248C79.5405 267.649 84.9996 286.656 96.1218 303.035L96.9283 304.047L95.7171 304.451C92.6818 305.46 89.6503 306.27 86.4152 306.472V306.27ZM67.0045 245.609C64.5783 245.609 61.9497 246.418 59.7256 247.631C53.8617 250.866 49.6158 257.337 48.6049 264.616C47.796 271.086 49.4137 278.366 53.2552 285.04C57.5014 292.319 63.7694 298.181 71.0483 301.416C78.3272 304.654 86.6173 305.055 93.6936 302.832C82.7755 286.454 77.5184 267.649 78.5296 249.451C75.4966 246.62 71.2504 245.407 66.8021 245.609H67.0045Z" fill="#101216"/>
<path d="M77.1143 224.782C77.1143 265.021 85.6064 322.446 122.809 346.913C142.018 359.451 166.485 358.844 184.683 344.89C222.895 315.572 219.054 248.844 211.775 207.595C210.159 199.102 206.722 191.014 201.261 184.341C158.802 131.768 80.5514 151.18 77.1143 224.782Z" fill="white"/>
<path d="M155.767 356.618C144.244 357.225 132.516 354.395 122.205 347.723C80.3494 320.223 76.1031 252.686 76.1031 224.782C77.7208 191.216 95.1101 165.739 122.607 156.842C150.511 147.742 181.65 158.257 202.071 183.734C207.531 190.407 211.171 198.698 212.787 207.393C219.661 246.013 225.324 315.167 185.29 345.699C176.594 352.371 166.283 356.011 155.767 356.618ZM78.1252 224.782C78.1252 252.282 82.3711 319.009 123.416 345.902C142.221 358.236 166.485 357.427 184.076 344.083C224.717 313.144 216.224 238.532 210.766 207.797C209.349 199.304 205.71 191.419 200.452 184.948C180.436 160.077 150.107 149.764 123.214 158.662C96.5237 167.356 79.7429 192.025 78.1252 224.782Z" fill="#101216"/>
<path d="M164.057 275.332L163.048 273.513C166.283 271.491 169.113 269.064 171.336 266.031C161.632 260.572 154.353 250.866 152.127 239.947C149.702 228.623 152.532 216.491 159.608 207.392L161.227 208.605C154.353 217.3 151.725 228.826 154.151 239.542C156.374 250.259 163.653 259.763 173.36 264.818L174.369 265.424L173.764 266.436C171.336 270.075 167.899 273.108 164.26 275.535L164.057 275.332ZM169.113 324.874C148.69 326.086 142.221 298.991 142.221 298.788V297.577L187.917 292.926V294.137C187.917 295.351 187.108 323.66 169.113 324.874ZM144.446 299.395C145.86 304.249 152.532 323.863 168.911 322.851C183.266 322.041 185.489 300.609 185.894 295.351L144.446 299.395ZM182.457 242.373C185.92 242.373 188.727 239.567 188.727 236.105C188.727 232.643 185.92 229.837 182.457 229.837C178.997 229.837 176.19 232.643 176.19 236.105C176.19 239.567 178.997 242.373 182.457 242.373ZM123.012 245.204C126.474 245.204 129.282 242.398 129.282 238.936C129.282 235.474 126.474 232.668 123.012 232.668C119.552 232.668 116.744 235.474 116.744 238.936C116.744 242.398 119.552 245.204 123.012 245.204ZM93.0866 390.387C-16.0975 418.696 16.2537 523.437 -2.55061 595.624C-21.3546 667.812 46.9872 622.112 65.1848 622.719C100.365 623.731 119.574 604.32 120.182 608.971C123.214 631.212 136.56 710.679 136.56 710.679L106.838 729.685C106.838 729.685 263.537 728.067 295.283 726.248C304.38 680.953 302.157 585.111 302.966 546.892C304.987 453.07 277.692 387.76 204.496 384.322C196.613 412.426 175.987 437.905 163.45 458.935C135.549 438.715 119.777 412.426 93.0866 390.792V390.387Z" fill="#101216"/>
<path d="M446.407 319.602L420.167 321.161C409.354 321.802 401.109 331.09 401.75 341.903L404.426 386.916C405.068 397.729 414.353 405.974 425.166 405.33L451.406 403.771C462.219 403.13 470.464 393.842 469.822 383.029L467.146 338.019C466.505 327.203 457.22 318.958 446.407 319.602Z" fill="white"/>
<path d="M329.859 403.531C367.667 351.564 489.995 365.111 362.209 405.35C371.913 402.924 393.75 393.622 396.985 409.596C397.794 414.652 396.381 422.538 390.515 423.749C402.648 422.74 411.343 439.524 402.243 447.812C413.162 444.375 419.226 460.551 410.129 465.405C397.39 472.279 368.274 495.128 352.704 504.43C349.47 504.835 339.563 505.442 337.742 503.013C290.631 443.363 265.965 478.347 329.657 403.329L329.859 403.531Z" fill="white"/>
<path d="M349.47 506.046C345.426 506.248 338.956 506.248 337.138 503.823C322.982 485.825 310.65 476.526 302.562 470.256C295.283 464.798 291.036 461.361 290.631 456.507C289.822 449.026 298.113 439.521 320.152 413.438C322.982 410.203 326.017 406.564 329.252 402.722C349.874 374.413 397.592 364.301 414.578 369.964C419.229 371.58 420.238 374.008 420.238 375.827C420.238 382.299 407.097 390.387 382.832 399.484C386.674 399.282 390.111 399.484 392.944 401.306C395.774 402.924 397.39 405.552 398.199 409.394C398.806 413.438 398.199 419.907 394.56 422.94C399.818 423.952 403.862 428.198 405.883 432.647C408.109 437.501 407.704 442.756 405.073 446.598C409.724 446.598 413.364 449.633 414.78 453.272C416.599 457.721 416.194 463.786 410.736 466.616C404.064 470.256 392.539 478.546 381.418 486.432C371.306 493.714 360.793 501.195 353.514 505.641H353.109C353.109 505.641 351.696 506.046 349.47 506.046ZM399.008 370.976C378.585 372.187 347.044 381.894 330.868 404.338C327.633 408.18 324.601 411.819 321.771 415.054C300.74 439.724 292.048 450.038 292.655 456.507C293.057 460.551 297.101 463.584 303.978 468.842C312.266 475.109 324.601 484.614 338.956 502.811C340.17 504.43 347.854 504.632 352.704 503.823C359.983 499.374 370.298 492.095 380.406 484.816C392.134 476.526 403.053 468.437 409.927 464.798C414.173 462.37 414.578 457.519 413.162 454.082C411.748 450.844 408.308 447.407 403.053 449.026H402.243L401.434 447.812L402.041 447.205C406.287 443.161 405.883 437.501 404.267 433.456C402.243 428.805 397.39 424.356 391.123 424.761V422.738C395.774 421.729 397.187 414.45 396.381 409.596C395.774 406.564 394.357 404.338 391.932 402.921C385.864 399.282 374.544 402.722 367.063 404.945C365.444 405.35 364.028 405.957 362.614 406.159L362.007 404.136C403.457 391.194 418.217 380.882 418.217 375.624C418.217 373.604 415.992 372.389 413.971 371.782C410.534 370.773 405.478 370.166 399.211 370.571L399.008 370.976Z" fill="#101216"/>
<path d="M390.205 422.658L367.456 428.372L367.949 430.333L390.698 424.619L390.205 422.658ZM384.451 456.912L383.844 454.891C390.313 452.868 396.785 450.038 402.85 446.601L403.862 448.419C397.794 451.856 391.325 454.689 384.653 456.71L384.451 456.912Z" fill="#101216"/>
<path d="M91.2682 627.168C160.822 551.139 238.465 473.898 293.866 439.524C319.949 423.348 354.93 483.805 349.47 509.486C332.108 533.805 224.717 651.635 136.156 711.893L91.2682 627.168Z" fill="white"/>
<path d="M136.763 712.7L135.549 711.084C223.503 651.231 346.437 518.586 348.461 509.284C352.303 491.286 335.519 456.103 317.119 442.961C311.459 438.917 302.764 435.278 294.473 440.331C247.565 469.247 177.606 534.156 92.0777 627.775L90.6613 626.359C150.511 561.048 234.219 475.315 293.462 438.715C300.74 434.266 309.436 435.075 318.334 441.343C337.742 454.891 354.526 490.682 350.481 509.688C349.267 515.551 314.492 554.174 275.871 592.39C245.744 622.315 187.513 677.921 136.561 712.497L136.763 712.7Z" fill="#101216"/>
<path d="M113.51 603.106H111.486C111.891 597.041 112.498 591.176 113.307 584.908C116.947 549.927 120.789 513.732 99.7612 488.456L101.377 487.242C122.809 512.923 118.967 551.341 115.328 585.111C114.724 591.378 114.117 597.243 113.51 603.106Z" fill="white"/>
<path d="M324.196 541.232C285.98 517.574 268.997 472.886 264.548 459.742L266.369 459.138C270.616 472.077 287.599 516.158 325.208 539.411L324.196 541.03V541.232ZM334.102 513.53C329.454 513.732 325.41 510.295 325.208 505.644C325.005 500.993 328.442 496.949 333.094 496.746C337.742 496.544 341.786 499.981 341.988 504.632C342.191 509.284 338.754 513.328 334.102 513.53ZM333.296 498.565C329.657 498.767 327.026 501.802 327.228 505.442C327.431 509.081 330.463 511.709 334.102 511.507C337.742 511.304 340.373 508.272 340.17 504.632C339.968 500.993 336.935 498.365 333.296 498.565ZM162.441 458.733C159.608 443.366 157.588 427.594 156.576 412.024H158.599C159.608 427.392 161.632 442.961 164.462 458.328L162.441 458.733Z" fill="#101216"/>
<path d="M165.878 487.646L165.069 486.837C134.942 456.305 104.41 426.987 74.6878 398.476L76.1031 397.059C105.421 425.368 135.751 454.487 165.676 484.614C186.501 453.07 206.115 420.11 223.907 386.748L225.728 387.76C207.733 421.526 187.917 454.891 166.688 486.837L166.081 487.849L165.878 487.646Z" fill="white"/>
<path d="M104.951 397.469L88.0865 407.481L89.1188 409.22L105.983 399.208L104.951 397.469ZM123.319 419.115L109.468 429.29L110.665 430.92L124.516 420.743L123.319 419.115ZM143.409 443.104L134.716 452.688L136.213 454.048L144.905 444.46L143.409 443.104ZM166.688 486.03H164.664C164.462 476.728 163.855 468.842 162.441 459.742L164.462 459.337C165.878 468.437 166.485 476.526 166.688 486.03ZM189.938 449.835C185.29 447.005 180.841 443.768 176.594 440.331L177.808 438.715C182.052 442.152 186.299 445.184 190.95 448.014L189.938 449.633V449.835ZM193.538 412.392L192.343 414.025L205.724 423.818L206.918 422.185L193.538 412.392ZM203.969 389.968L202.809 391.624L216.226 401.018L217.386 399.362L203.969 389.968ZM112.903 589.557C77.5184 579.65 34.2488 580.662 0.0779129 591.985L-0.528564 590.164C34.0468 578.841 77.7207 577.829 113.51 587.738L112.903 589.759V589.557Z" fill="white"/>
<path d="M113.914 582.278C93.6936 564.485 23.3305 564.688 3.5153 578.638L2.30206 577.022C23.1282 562.259 94.0983 562.057 115.328 580.662L113.914 582.075V582.278ZM13.4228 620.901L11.401 620.496C11.401 620.294 10.7942 619.282 10.3898 618.473C7.55917 614.024 1.89765 604.724 10.7942 587.131L12.6139 587.941C4.32412 604.724 9.58096 613.215 12.2095 617.461C13.2207 619.08 13.8272 619.889 13.6251 620.901H13.4228ZM37.2818 627.775C35.0577 615.238 35.6644 595.422 42.1345 581.873L43.9542 582.682C37.6862 595.827 37.0798 615.036 39.3039 627.37L37.2818 627.775ZM64.3759 626.561L62.5562 625.752C69.2286 612.003 73.0701 595.422 72.4636 582.48H74.4857C75.0922 595.827 71.2504 612.81 64.3759 626.763V626.561ZM91.6729 621.91L90.2565 620.496C97.7377 612.61 102.591 597.445 102.794 587.131H104.814C104.814 597.645 99.7612 613.42 91.8753 621.707L91.6729 621.91ZM208.338 195.868C225.324 183.331 225.931 143.699 199.038 150.574C189.331 122.266 150.714 111.953 128.27 131.769C101.984 120.648 70.0374 140.464 68.2177 168.974C15.2425 192.026 69.8351 295.351 100.77 224.985C133.728 239.746 148.488 216.29 151.118 192.026C161.227 220.941 183.064 214.47 208.338 195.868Z" fill="white"/>
<path d="M75.4967 250.058C74.6879 250.058 73.879 250.058 73.0705 250.058C60.3321 248.238 48.2005 231.657 45.572 212.245C42.7411 192.025 50.8291 175.646 67.2066 168.367C68.2178 154.819 76.1034 142.283 88.4371 134.599C100.77 126.915 115.53 125.5 128.067 130.555C138.783 121.254 153.948 118.221 168.709 122.062C183.266 125.904 194.792 136.015 199.645 149.36C208.742 147.338 215.414 150.371 219.054 157.853C224.717 169.58 219.661 188.992 208.945 196.676C190.545 210.223 177.201 215.076 166.887 211.841C160.418 209.819 155.365 204.562 151.725 196.069C149.297 210.628 142.828 221.749 133.728 227.006C125.035 232.062 114.117 231.859 101.377 226.198C92.6848 245.407 82.9779 250.058 75.4967 250.058ZM112.498 129.544C104.612 129.544 96.726 131.768 89.4483 136.217C77.5188 143.698 70.0375 155.831 69.2287 168.974V169.58H68.6222C52.8509 176.658 44.9652 192.429 47.5937 211.841C50.0202 230.444 61.343 246.216 73.2725 247.833C83.18 249.249 92.4824 241.161 99.7613 224.378L100.163 223.367L101.175 223.771C113.712 229.433 124.226 229.837 132.719 224.984C142.018 219.525 148.488 207.393 150.107 191.621L150.511 187.172L151.928 191.419C155.365 201.529 160.418 207.595 167.292 209.617C176.797 212.65 189.938 207.797 207.531 194.654C217.438 187.374 222.089 169.378 217.033 158.257C214.81 153.606 209.957 148.349 199.038 151.18H198.229V150.573C193.375 137.632 182.255 127.522 167.899 123.882C153.746 120.04 138.986 123.276 128.675 132.375L128.27 132.779H127.663C122.809 130.555 117.554 129.544 112.296 129.544H112.498Z" fill="#101216"/>
<path d="M85.4793 238.181L57.8093 236.876C54.5745 236.723 51.8285 239.222 51.6761 242.457L51.4475 247.305C51.2947 250.54 53.7936 253.285 57.0284 253.438L84.6982 254.743C87.9332 254.896 90.6783 252.397 90.8322 249.162L91.0602 244.315C91.2141 241.08 88.7141 238.333 85.4793 238.181Z" fill="#101216"/>
<path d="M102.389 267.245C95.7171 267.245 90.2565 261.988 89.8524 255.315L88.4371 230.039C88.0327 223.165 93.2889 217.098 100.365 216.694L217.438 209.819C220.875 209.617 224.11 210.83 226.535 213.054C228.963 215.278 230.579 218.312 230.781 221.749L232.198 247.025C232.198 250.462 231.186 253.698 228.963 256.124C226.737 258.55 223.705 260.168 220.268 260.37L103.198 267.245C102.996 267.245 102.794 267.245 102.389 267.245ZM95.9195 254.911C96.1218 258.55 99.3566 261.381 102.794 261.179L219.863 254.304C221.684 254.304 223.3 253.495 224.312 252.08C225.526 250.867 226.133 249.047 225.931 247.227L224.514 221.951C224.514 220.131 223.705 218.514 222.291 217.503C221.077 216.29 219.256 215.683 217.438 215.885L100.365 222.76C96.726 222.962 93.896 226.198 94.0983 229.635L95.5148 254.911H95.9195Z" fill="#101216"/>
<path d="M211.729 194.129L179.433 196.048C177.204 196.18 175.503 198.095 175.637 200.324L176.355 212.435C176.489 214.665 178.404 216.365 180.633 216.233L212.926 214.314C215.158 214.181 216.856 212.266 216.725 210.037L216.004 197.926C215.873 195.697 213.958 193.997 211.729 194.129Z" fill="#101216"/>
<path d="M196.208 211.841C192.164 211.841 188.524 208.606 188.322 204.359C188.12 200.113 191.355 196.271 195.601 196.069C199.848 195.867 203.689 199.102 203.892 203.348C204.091 207.594 200.856 211.437 196.61 211.639H196.208V211.841ZM196.208 198.091C196.208 198.091 196.006 198.091 195.803 198.091C192.569 198.091 190.14 201.124 190.343 204.157C190.343 207.392 193.375 209.819 196.41 209.617C199.645 209.617 202.071 206.584 201.868 203.55C201.868 200.517 199.038 198.091 196.006 198.091H196.208Z" fill="white"/>
<path d="M87.8306 209.212C83.1799 209.212 78.7317 207.797 74.8901 204.966L76.1031 203.348C82.3711 207.999 91.0659 208.403 98.3448 204.359C105.826 200.315 110.073 192.833 109.668 185.15V183.33L111.084 184.139C118.161 187.778 123.012 185.15 125.642 182.319C131.505 176.253 133.123 164.12 128.877 156.437L130.695 155.426C135.346 163.918 133.728 176.859 127.056 183.734C122.809 187.98 117.351 189.194 111.486 186.767C111.486 194.855 106.838 202.135 99.1542 206.381C95.5147 208.403 91.4706 209.414 87.6282 209.414L87.8306 209.212Z" fill="#101216"/>
<path d="M384.248 241.337L358.008 242.896C347.198 243.538 338.953 252.825 339.594 263.638L342.268 308.652C342.912 319.465 352.197 327.71 363.01 327.066L389.25 325.507C400.063 324.866 408.308 315.578 407.664 304.765L404.991 259.753C404.349 248.94 395.061 240.694 384.248 241.337Z" fill="white"/>
<path d="M350.481 287.668C345.024 280.187 357.76 272.301 362.412 280.389C361.602 270.684 375.755 267.65 378.99 276.75C395.167 254.911 411.343 288.072 380.811 294.14C373.128 295.554 357.558 297.375 350.481 287.668Z" fill="white"/>
<path d="M362.209 295.553C358.57 290.093 367.262 284.23 370.297 290.093C369.69 283.017 379.395 280.59 381.62 287.263C392.539 271.087 403.457 295.351 382.629 300.205C377.576 301.416 366.86 302.63 362.209 295.553Z" fill="white"/>
<path d="M194.387 188.992C189.331 188.992 183.671 186.161 177.201 180.499C168.506 180.095 162.441 177.264 159.811 172.411C156.981 167.356 158.195 160.279 162.846 151.989L164.664 152.999C160.215 160.683 159.207 166.952 161.632 171.4C163.855 175.646 169.518 178.073 177.606 178.477H178.21C184.683 184.746 190.747 187.576 195.399 186.97C198.633 186.566 201.261 184.746 203.689 181.51L205.305 182.723C202.678 186.565 199.443 188.587 195.601 189.194C195.196 189.194 194.589 189.194 194.185 189.194L194.387 188.992Z" fill="#101216"/>
<path d="M153.746 413.033C142.221 413.033 128.877 408.989 120.586 397.261L122.205 396.05C131.909 410.001 149.499 412.429 161.43 410.406C173.764 408.183 182.862 401.508 185.29 392.613L187.31 393.217C184.683 402.722 174.976 410.203 161.834 412.429C159.406 412.831 156.778 413.033 153.948 413.033H153.746ZM212.789 201.379L212.071 203.269L335.878 250.3L336.596 248.41L212.789 201.379ZM187.37 208.868L185.649 209.93L263.636 336.206L265.355 335.143L187.37 208.868ZM269.182 235.861L268.39 237.721L303.169 252.556L303.961 250.696L269.182 235.861ZM222.896 293.943L221.143 294.955L240.05 327.701L241.8 326.69L222.896 293.943Z" fill="#101216"/>
<path d="M319.046 300.857L292.769 301.456C281.939 301.701 273.36 310.679 273.606 321.509L274.629 366.59C274.874 377.417 283.851 385.998 294.681 385.753L320.958 385.158C331.788 384.91 340.367 375.932 340.122 365.102L339.099 320.024C338.853 309.194 329.876 300.612 319.046 300.857Z" fill="white"/>
</g>
<path d="M782.644 165.696C864.218 219.468 856.485 237.883 852.616 252.062C850.223 260.165 846.357 261.638 843.594 269.741C838.806 284.105 875.452 280.79 868.821 295.89C865.324 301.967 852.434 302.335 850.593 308.781C848.198 317.067 866.613 321.119 866.243 329.59C865.876 336.035 850.408 348.189 843.042 351.136C808.792 364.763 695.361 389.255 662.399 339.166C651.534 322.592 676.394 317.804 672.158 308.597C667.187 297.916 641.037 294.049 653.19 282.263C673.446 262.375 647.483 274.713 647.483 250.589C647.483 226.465 652.638 226.097 656.505 215.785C665.344 192.582 727.768 129.602 782.644 165.696Z" fill="white"/>
<path d="M742.132 370.286C708.618 370.286 676.761 362.738 661.662 339.718C654.849 329.406 661.293 323.144 666.45 318.172C670.317 314.489 672.71 311.911 671.421 308.965C669.58 305.098 664.607 301.967 660.004 299.205C654.664 296.074 649.694 292.944 649.324 288.708C649.139 286.498 650.246 284.104 652.638 281.526C657.978 276.37 660.374 273.055 660.189 271.214C660.189 270.109 658.9 269.372 656.874 268.083C652.823 265.689 646.746 262.19 646.746 250.405C646.746 238.619 653.19 222.414 655.953 215.232C661.478 200.5 689.099 168.642 723.902 157.409C745.631 150.411 765.518 152.805 783.563 164.591C863.85 217.442 858.141 236.778 854.09 251.141L853.722 252.062C852.434 256.482 850.775 259.06 849.119 261.454C847.646 263.664 845.987 266.058 844.698 269.741C842.673 275.449 848.382 278.028 857.037 281.342C862.744 283.368 868.638 285.578 870.294 289.629C871.031 291.47 871.031 293.68 869.927 295.89C868.084 299.205 864.218 300.862 860.351 302.335C856.3 303.993 852.616 305.65 851.697 308.596C850.59 312.279 854.642 315.042 858.878 318.172C863.114 321.303 867.717 324.433 867.35 329.037C866.98 336.035 850.96 348.556 843.594 351.503C824.442 359.054 782.274 369.734 742.317 369.734L742.132 370.286ZM746.92 155.751C739.554 155.751 732.004 157.04 724.086 159.618C690.388 170.483 662.766 202.342 657.426 216.337C655.401 221.862 648.402 240.645 648.402 250.773C648.402 260.901 653.742 264.584 657.611 266.978C659.819 268.267 661.662 269.372 661.845 271.398C662.214 273.976 659.819 277.291 653.927 283.184C651.902 285.209 650.982 287.051 651.165 288.708C651.534 292.023 656.138 294.785 660.926 297.732C665.896 300.862 671.054 303.993 673.079 308.412C675.105 312.832 671.606 316.146 667.739 319.83C662.582 324.802 657.059 329.774 663.134 338.981C695.728 388.518 807.87 364.394 842.673 350.582C850.408 347.452 865.139 335.482 865.324 329.774C865.324 326.275 861.455 323.328 857.589 320.382C852.986 317.067 848.382 313.568 849.671 308.78C850.775 304.913 855.196 303.072 859.43 301.415C862.929 299.941 866.613 298.468 868.084 295.706C868.821 293.864 869.006 292.391 868.454 290.918C866.98 287.603 861.455 285.578 856.115 283.552C848.567 280.79 840.095 277.659 842.673 269.741C843.962 265.689 845.62 263.295 847.276 260.901C848.934 258.507 850.408 256.113 851.697 252.062L852.064 251.141C855.93 237.514 861.455 218.731 782.274 166.8C771.41 159.618 759.626 155.935 747.102 155.935L746.92 155.751Z" fill="#101216"/>
<path d="M755.205 431.977L738.448 347.085L796.269 332.904L813.026 417.613L755.205 431.977Z" fill="white"/>
<path d="M754.47 433.082L814.132 418.351L797.006 331.615L737.344 346.348L754.47 433.082ZM811.922 417.062L755.942 430.874L739.554 347.822L795.532 334.009L811.922 417.062Z" fill="#101216"/>
<path d="M805.293 240.46C808.792 234.752 816.158 231.989 822.786 233.463C829.23 234.936 834.755 240.092 837.333 246.169C839.91 252.246 839.91 259.428 838.254 265.873C836.414 273.239 832.362 280.237 826.286 285.025C820.391 289.813 812.658 292.575 804.923 292.023C810.448 275.449 811.185 257.218 805.293 240.46Z" fill="white"/>
<path d="M807.134 293.128C814.132 293.128 821.128 290.55 826.838 285.946C832.73 281.158 837.148 274.16 838.991 266.242C840.832 259.06 840.465 251.878 837.885 245.985C834.94 239.172 829.23 234.2 822.786 232.727C815.606 231.069 807.87 234.2 804.371 240.092V240.829C809.896 256.666 809.711 274.713 804.004 291.839L803.634 292.944H804.741C805.478 292.944 806.214 293.128 806.949 293.128H807.134ZM819.102 234.016C820.209 234.016 821.313 234.016 822.602 234.384C828.494 235.673 833.834 240.461 836.414 246.538C838.806 252.062 839.174 258.876 837.333 265.689C835.492 273.24 831.256 279.869 825.734 284.473C820.209 289.077 813.026 291.47 806.214 291.286C811.737 274.345 811.737 256.298 806.214 240.645C808.792 236.594 813.762 234.016 818.92 234.016H819.102Z" fill="#101216"/>
<path d="M801.426 218.547C811.554 253.904 817.998 306.202 791.481 336.771C777.856 352.425 756.126 357.95 736.792 350.399C696.095 334.193 682.838 274.528 679.156 236.777C678.419 228.859 679.523 220.941 682.653 213.759C706.775 157.224 780.249 154.83 801.426 218.547Z" fill="white"/>
<path d="M754.47 354.818C768.647 354.818 782.459 348.741 792.218 337.508C822.05 303.072 809.344 242.671 802.346 218.363C792.772 189.267 771.227 171.22 744.894 170.299C718.194 169.195 693.518 186.136 681.734 213.575C678.602 220.941 677.313 229.043 678.234 236.962C681.734 272.503 693.887 334.561 736.422 351.319C742.317 353.714 748.394 354.818 754.47 354.818ZM800.505 218.915C807.318 243.039 820.024 302.519 790.746 336.219C777.304 351.688 755.759 357.028 736.977 349.478C693.702 332.352 682.653 264.769 679.893 236.593C679.156 228.859 680.26 221.125 683.39 214.127C694.806 187.425 718.931 170.852 744.71 171.957C770.306 173.062 791.114 190.556 800.505 218.731V218.915Z" fill="#101216"/>
<path d="M737.711 284.288L738.266 282.447C734.951 281.526 731.819 280.053 729.057 277.843C736.24 270.661 740.106 260.349 739.554 250.22C738.818 239.724 733.478 229.78 724.823 223.519L723.717 224.992C731.819 230.885 736.977 240.276 737.529 250.405C738.081 260.349 734.214 270.477 726.849 277.291L726.112 278.027L726.849 278.764C729.978 281.342 733.662 283.184 737.529 284.288H737.711ZM751.523 304.729C758.337 302.519 764.781 299.02 770.306 294.601L769.202 293.127C758.889 301.598 745.262 306.202 731.819 305.65V307.491C738.448 307.676 745.077 306.755 751.523 304.729ZM713.589 259.612C716.742 259.612 719.298 257.056 719.298 253.903C719.298 250.751 716.742 248.195 713.589 248.195C710.438 248.195 707.882 250.751 707.882 253.903C707.882 257.056 710.438 259.612 713.589 259.612ZM762.94 253.904C766.094 253.904 768.647 251.348 768.647 248.195C768.647 245.042 766.094 242.486 762.94 242.486C759.786 242.486 757.23 245.042 757.23 248.195C757.23 251.348 759.786 253.904 762.94 253.904ZM660.189 404.723C739.922 370.47 841.017 360.894 913.569 410.985C965.128 446.709 1000.85 708.94 940.269 755.346C900.309 785.915 751.708 746.138 690.94 729.748C651.35 719.068 701.253 633.438 670.132 596.238C636.434 635.464 537.55 737.668 491.146 669.347C443.821 599.555 597.58 431.793 660.374 404.723H660.189Z" fill="#101216"/>
<path d="M712.67 605.999C728.874 631.965 727.401 730.855 689.651 727.723C653.742 724.778 691.125 571.749 712.67 605.999ZM574.194 600.107C624.65 626.81 567.196 716.858 516.926 690.155C466.655 663.455 511.402 566.776 574.194 600.107Z" fill="#101216"/>
<path d="M564.619 656.642C576.772 661.245 601.447 638.778 600.342 608.762C599.44 605.08 596.66 605.262 595.371 607.473C590.03 616.497 587.637 626.44 579.719 635.464C578.245 640.252 541.233 647.618 564.619 656.457V656.642Z" fill="white"/>
<path d="M568.117 658.115C571.8 658.115 576.22 656.457 580.639 653.327C591.503 645.592 602 628.65 601.263 608.762C601.263 607.106 600.158 605.817 598.501 605.447C596.843 605.08 595.186 605.632 594.45 607.106C592.608 610.42 590.951 613.919 589.478 617.234C586.716 623.126 583.954 629.387 578.982 635.097V635.464C578.429 636.568 574.01 638.594 570.327 640.067C563.146 643.199 555.964 646.514 555.964 650.75C555.964 653.327 558.726 655.535 564.25 657.561C565.355 657.93 566.644 658.298 568.117 658.298V658.115ZM597.58 607.106C597.58 607.106 597.948 607.106 598.133 607.106C598.685 607.106 599.422 607.842 599.422 608.762C600.158 628.098 589.846 644.303 579.534 651.854C574.194 655.72 568.854 657.194 564.987 655.72C559.095 653.51 557.806 651.669 557.806 650.565C557.806 647.618 565.355 644.118 571.064 641.726C576.588 639.33 579.718 637.857 580.455 636.201C585.611 630.309 588.373 624.047 591.135 617.97C592.608 614.471 594.081 611.339 596.107 608.025C596.475 607.473 597.028 607.106 597.58 607.106Z" fill="#101216"/>
<path d="M719.298 631.228L696.28 623.125C690.755 603.237 673.079 580.403 653.927 571.194C647.483 568.065 646.194 573.774 648.22 577.641C651.902 584.27 660.189 590.898 660.189 597.16C660.189 605.999 649.139 627.914 639.196 627.729C633.304 625.521 634.96 600.292 628.331 601.029C618.758 602.133 628.883 647.802 628.883 647.802C628.883 647.802 623.728 636.201 622.254 631.228C620.966 626.992 620.229 609.498 613.785 608.21C607.341 606.921 607.523 633.253 607.523 633.253C607.523 633.253 604.762 622.574 600.342 624.784C594.818 627.546 596.844 657.009 602 661.614C607.156 666.218 609.549 667.322 609.918 666.954C611.022 672.662 614.706 675.976 621.518 672.846C627.227 670.269 628.331 665.111 634.041 662.533C661.293 663.64 675.657 649.091 679.708 650.565C688.73 653.879 708.803 657.563 719.666 669.347C719.114 656.272 719.483 644.855 718.929 631.413L719.298 631.228Z" fill="white"/>
<path d="M617.099 674.687C618.573 674.687 620.414 674.32 622.254 673.398C625.386 671.925 627.042 669.899 628.886 668.058C630.542 666.217 632.015 664.374 634.593 663.27C653.008 663.822 665.529 657.561 672.894 653.879C676.024 652.221 678.786 650.932 679.708 651.302C681.549 652.036 683.944 652.59 686.522 653.51C696.832 656.642 710.826 660.693 719.298 669.899L720.954 671.742V669.162C720.587 662.718 720.587 656.457 720.402 650.565C720.402 644.488 720.402 638.042 720.035 631.228V630.676L696.832 622.573C690.94 601.581 672.525 579.297 654.112 570.642C650.246 568.802 648.22 570.09 647.483 570.827C645.642 572.668 646.01 575.982 647.483 578.193C648.957 580.77 650.982 583.348 653.008 585.743C656.322 589.794 659.452 593.661 659.452 597.16C659.452 603.052 653.927 616.127 647.114 622.758C644.536 625.336 641.774 626.81 639.566 626.81C637.355 625.703 636.251 619.626 635.33 614.102C634.041 606.551 632.752 599.555 628.331 600.107C627.227 600.107 626.306 600.844 625.569 601.948C621.518 607.657 624.28 627.361 626.49 639.145C625.202 636.201 624.098 633.069 623.543 630.861C623.361 629.939 622.991 628.281 622.624 626.255C621.518 619.074 619.862 608.209 614.337 607.105C613.233 606.921 612.311 607.106 611.392 607.84C607.893 610.787 607.156 621.285 606.971 627.913C606.051 626.073 604.946 624.414 603.289 623.678C602.368 623.31 601.263 623.31 600.342 623.678C598.501 624.599 597.396 627.362 596.844 631.78C595.739 640.989 597.396 658.298 601.816 661.982C601.816 661.982 606.787 666.218 609.549 667.137C610.286 670.451 611.759 672.662 613.97 673.768C614.889 674.32 615.995 674.502 617.284 674.502L617.099 674.687ZM634.226 661.245H634.041C630.911 662.718 629.253 664.744 627.412 666.77C625.754 668.61 624.098 670.451 621.518 671.742C618.758 673.031 616.547 673.214 614.706 672.294C612.496 671.188 611.574 668.61 611.207 666.585L610.838 665.111L610.103 665.848C608.812 665.111 604.394 661.982 603.105 660.878C599.79 658.115 597.396 642.462 598.685 632.15C599.422 626.992 600.711 625.703 601.263 625.518C601.816 625.336 602.184 625.336 602.736 625.518C604.946 626.44 606.603 631.597 607.156 633.438L609.182 641.356V633.069C608.812 627.544 609.182 612.445 612.496 609.313C612.863 608.946 613.418 608.762 613.97 608.946C618.203 609.683 619.862 620.178 620.783 626.44C621.15 628.466 621.335 630.306 621.702 631.228C623.176 636.383 628.149 647.618 628.331 647.987L629.99 647.433C627.779 637.12 622.624 608.946 627.042 602.87C627.412 602.318 627.964 601.948 628.516 601.763C631.094 601.396 632.382 608.21 633.489 614.286C634.593 620.915 635.882 627.177 639.011 628.281H639.381C642.143 628.281 645.273 626.81 648.402 623.678C655.586 616.497 661.293 603.237 661.293 596.793C661.293 592.557 657.978 588.506 654.479 584.27C652.638 581.877 650.613 579.482 649.139 577.089C648.035 575.246 648.035 572.853 649.139 571.749C650.061 570.827 651.534 571.012 653.745 571.749C671.973 580.403 690.021 602.5 695.728 622.941V623.493L718.746 631.413C718.929 638.042 719.114 644.118 719.114 650.013C719.114 655.353 719.114 660.693 719.483 666.218C710.644 657.746 697.386 653.879 687.626 650.932C685.048 650.195 682.653 649.458 680.812 648.722C678.971 648.17 676.576 649.276 672.525 651.302C665.159 654.983 652.823 661.245 634.778 660.508H634.593L634.226 661.245Z" fill="#101216"/>
<path d="M649.509 645.959C649.876 645.959 650.428 645.959 650.798 645.959L650.428 644.118C644.906 645.222 640.3 634.543 638.092 624.967H637.17L636.249 625.336C637.54 630.306 641.774 645.959 649.509 645.959ZM634.593 653.327C634.96 653.327 635.514 653.327 635.882 653.142L635.33 651.302C634.041 651.669 632.567 650.932 631.646 650.01C630.542 648.906 629.99 647.433 629.438 645.777L627.779 646.514C628.516 648.17 629.253 650.01 630.542 651.302C631.83 652.59 633.304 653.327 634.778 653.327H634.593ZM609.366 666.77H611.207C610.286 655.535 609.734 647.433 608.997 637.305L608.63 631.228H606.787L607.156 637.49C607.893 647.802 608.26 655.905 609.366 666.954V666.77ZM680.627 650.38C688.914 643.197 694.991 633.254 697.938 622.756L696.095 622.204C693.335 632.517 687.441 641.908 679.338 649.091L680.627 650.565V650.38Z" fill="#101216"/>
<path d="M642.328 640.434C645.273 638.778 670.502 624.599 670.502 609.683C670.502 604.343 667.185 599.737 660.556 596.238L659.637 597.897C665.529 601.211 668.658 605.262 668.658 609.865C668.658 620.915 651.534 633.438 641.406 638.963L642.328 640.619V640.434Z" fill="#101216"/>
<path d="M552.466 647.25C579.903 656.272 601.447 599.186 583.217 610.05C576.772 613.919 572.721 627.914 558.358 631.598C557.253 631.413 589.11 610.051 578.614 602.87C573.274 599.186 567.197 607.473 559.831 612.998C556.885 615.208 549.703 617.601 546.573 617.601C537.182 602.318 549.151 585.376 553.018 570.275C551.729 530.683 498.144 629.572 552.466 647.433V647.25Z" fill="white"/>
<path d="M558.542 649.091C571.8 649.091 581.376 635.464 584.322 630.676C589.478 622.389 592.792 611.891 589.662 608.577C588.741 607.473 586.716 606.736 582.849 609.129C581.928 609.683 581.191 610.235 580.455 610.972C581.375 609.314 581.928 607.658 581.744 606.184C581.744 604.343 580.823 602.87 579.166 601.763C574.562 598.634 569.775 602.87 564.803 607.288C562.961 608.946 561.304 610.42 559.278 611.891C556.701 613.734 550.256 616.127 547.125 616.312C540.864 605.632 545.284 593.846 549.703 582.614C551.36 578.56 553.018 574.142 553.938 570.09C553.754 563.277 552.097 559.962 549.151 559.778C542.706 559.226 532.578 576.719 528.895 595.319C526.317 608.025 523.371 638.594 552.281 647.985C554.491 648.722 556.516 649.091 558.542 649.091ZM587.483 609.314C587.851 609.314 588.005 609.498 588.189 609.866C590.214 611.891 588.373 620.548 582.665 629.754C579.534 634.912 567.933 651.302 552.649 646.329C525.212 637.305 528.159 608.025 530.552 595.871C534.419 576.534 544.547 561.436 548.967 561.803C550.808 561.803 551.913 564.933 552.097 570.09C551.176 573.957 549.519 578.008 547.862 582.244C543.258 594.03 538.655 606.369 545.836 617.97V618.338H546.573C550.072 618.338 557.437 615.76 560.384 613.55C562.409 612.076 564.25 610.42 566.092 608.762C571.432 603.974 574.931 601.211 578.245 603.422C579.35 604.158 579.903 605.078 579.903 606.369C580.087 612.813 566.644 623.493 560.752 628.098C557.437 630.861 557.253 630.861 557.437 631.598V632.15H558.542C568.117 629.939 573.273 622.941 577.509 617.416C579.718 614.471 581.56 611.891 583.769 610.602C584.69 610.05 585.979 609.314 587.268 609.314H587.483ZM573.826 619.259C571.064 622.941 567.565 626.625 562.593 629.018C565.724 626.44 569.959 622.941 573.826 619.259Z" fill="#101216"/>
<path d="M880.607 703.6L881.896 702.311C829.782 654.431 769.569 619.626 707.882 601.763L707.33 603.607C768.832 621.285 828.678 655.905 880.607 703.6ZM836.229 660.141H838.07C835.492 599.738 846.172 538.6 869.19 482.802L867.532 482.066C844.514 538.048 833.651 599.738 836.414 660.141H836.229Z" fill="white"/>
<path d="M692.966 613.365C695.543 609.498 698.121 606.921 700.883 605.262C705.119 602.87 710.459 603.054 715.432 605.999L716.351 604.343C711.011 601.029 704.752 600.844 699.964 603.606C697.017 605.447 694.07 608.21 691.492 612.261L692.966 613.182V613.365Z" fill="white"/>
<path d="M801.554 359.186L744.098 367.158C736.946 368.15 731.954 374.754 732.945 381.906L733.78 387.926C734.774 395.078 741.376 400.072 748.528 399.078L805.982 391.106C813.134 390.114 818.128 383.51 817.134 376.358L816.299 370.338C815.308 363.186 808.706 358.192 801.554 359.186Z" fill="#101216"/>
<path d="M726.664 159.066C739.002 177.481 729.978 206.209 710.092 216.153C727.031 227.754 707.882 247.458 693.335 250.773C680.075 285.762 651.165 266.978 649.509 262.559C633.304 219.099 692.414 166.248 726.664 159.066Z" fill="white"/>
<path d="M669.395 272.503C658.9 272.503 649.694 265.689 648.772 262.927C643.617 248.932 645.642 232.726 654.849 215.969C671.236 186.136 704.934 162.749 726.479 158.145H727.031L727.401 158.514C733.108 166.985 734.766 178.402 731.819 189.451C728.874 201.052 721.324 210.813 711.933 216.153C717.825 220.756 718.194 226.097 717.458 229.78C715.432 239.724 703.646 248.932 694.07 251.326C687.441 268.636 677.13 272.319 669.58 272.319L669.395 272.503ZM726.294 160.171C704.934 164.959 672.527 187.794 656.505 216.889C647.483 233.095 645.458 248.747 650.428 262.191C651.165 264.032 659.267 270.661 669.395 270.661C679.523 270.661 687.441 263.664 692.414 250.405V249.852H693.15C702.357 247.642 713.774 238.619 715.614 229.596C716.536 224.624 714.51 220.388 709.538 216.889L708.249 215.969L709.722 215.232C719.298 210.444 727.031 200.5 729.978 188.899C732.741 178.402 731.452 167.905 726.294 159.803V160.171Z" fill="#101216"/>
<path d="M727.583 159.066C725.19 181.164 736.607 219.283 764.596 212.469C757.23 229.78 779.697 245.985 793.876 233.647C791.85 259.244 852.618 253.167 838.439 210.628C829.048 182.269 795.902 168.273 783.563 162.749C771.227 157.224 741.58 150.411 727.583 159.25V159.066Z" fill="white"/>
<path d="M812.106 249.484C808.055 249.484 804.189 248.747 800.874 247.09C795.902 244.512 793.139 240.46 792.954 235.304C785.589 240.645 776.567 238.987 770.673 234.752C764.781 230.516 760.362 222.414 763.125 213.574C755.205 215.048 748.209 213.206 742.132 208.05C730.163 197.553 724.823 174.903 726.479 158.882V158.513H726.849C741.21 149.122 770.858 155.935 783.563 161.644L784.67 162.196C798.112 168.273 829.6 182.269 838.991 210.26C844.883 228.122 837.518 237.882 832.545 242.302C827.022 247.09 819.287 249.668 811.922 249.668L812.106 249.484ZM794.98 231.253V233.463C794.243 240.092 798.294 243.591 801.794 245.433C810.448 249.852 823.523 247.826 831.626 240.829C839.543 233.831 841.754 223.334 837.518 210.812C828.494 183.742 797.558 169.931 784.3 163.854L783.196 163.301C771.227 157.961 742.317 151.147 728.505 159.434C727.031 174.903 732.189 196.633 743.606 206.577C749.498 211.733 756.496 213.39 764.596 211.365L766.439 210.996L765.702 212.654C761.836 221.677 766.622 229.411 771.962 233.278C777.304 237.146 786.141 239.171 793.506 232.726L795.165 231.253H794.98Z" fill="#101216"/>
<path d="M594.634 631.78H592.792C593.529 617.785 589.662 607.473 581.007 601.211C568.854 592.372 549.887 593.845 542.89 596.423L542.153 594.767C548.046 592.557 568.117 589.609 582.112 599.737C591.319 606.369 595.371 617.233 594.634 631.78ZM565.723 685.37L564.619 683.896C578.614 672.294 589.109 649.091 592.977 632.334L594.818 632.702C590.951 649.643 580.271 673.216 565.908 685.185L565.723 685.37ZM659.637 557.385C652.086 524.421 652.823 489.801 661.478 457.206L663.318 457.758C654.664 489.986 653.927 524.421 661.478 557.015L659.637 557.385Z" fill="white"/>
<path d="M668.843 254.088H668.476V252.246C671.973 252.431 674.553 248.563 675.472 244.88C675.657 243.96 675.842 243.223 676.024 242.302C676.761 238.987 677.498 235.673 679.893 233.279C681.734 231.253 684.311 230.516 686.704 229.596C688.73 228.859 690.573 228.307 692.046 227.202C695.176 224.808 697.017 220.573 697.202 214.495C697.202 213.206 697.202 211.733 697.202 210.444C697.202 206.761 697.202 202.894 698.306 199.395C699.964 194.239 704.934 189.451 710.274 190.372L709.907 192.213C705.489 191.477 701.253 195.528 699.964 199.948C698.858 203.262 698.858 206.761 698.858 210.444C698.858 211.917 698.858 213.206 698.858 214.495C698.49 221.125 696.65 225.913 692.966 228.675C691.125 229.964 689.099 230.701 687.258 231.437C684.863 232.358 682.655 233.095 680.997 234.752C678.971 236.778 678.234 239.724 677.682 242.855C677.498 243.775 677.313 244.696 677.13 245.617C676.024 250.037 672.894 254.272 668.658 254.272L668.843 254.088ZM806.766 230.148C804.189 228.491 804.189 225.729 804.189 222.967C804.189 221.125 804.189 219.283 803.452 217.81C801.426 214.311 797.006 214.864 792.402 215.416C787.432 215.969 782.459 216.705 779.697 212.286C778.593 210.444 778.593 208.418 778.593 206.577C778.593 205.288 778.593 204.183 778.223 203.078C777.119 198.659 772.146 196.449 767.543 194.239C761.282 191.293 754.101 187.978 756.863 179.323L758.704 179.875C756.311 187.057 762.018 189.635 768.28 192.582C773.435 194.976 778.775 197.37 780.064 202.71C780.434 203.999 780.434 205.288 780.434 206.577C780.434 208.418 780.434 210.076 781.355 211.365C783.563 214.68 787.799 214.127 792.402 213.575C797.19 213.022 802.53 212.286 805.293 216.889C806.214 218.731 806.397 220.757 806.397 222.967C806.397 225.545 806.397 227.57 808.24 228.675L807.318 230.148H806.766Z" fill="#101216"/>
<path d="M601.263 579.114C630.858 579.114 654.849 555.122 654.849 525.525C654.849 495.93 630.858 471.938 601.263 471.938C571.669 471.938 547.677 495.93 547.677 525.525C547.677 555.122 571.669 579.114 601.263 579.114Z" fill="white"/>
<path d="M601.263 580.034C571.248 580.034 546.757 555.542 546.757 525.525C546.757 495.51 571.248 471.018 601.263 471.018C631.278 471.018 655.77 495.51 655.77 525.525C655.77 555.542 631.278 580.034 601.263 580.034ZM601.263 472.859C572.168 472.859 548.598 496.43 548.598 525.525C548.598 554.622 572.168 578.193 601.263 578.193C630.357 578.193 653.927 554.622 653.927 525.525C653.927 496.43 630.357 472.859 601.263 472.859Z" fill="#101216"/>
<path d="M590.646 495.7L586.979 496.038L592.745 558.201L596.412 557.86L590.646 495.7Z" fill="#101216"/>
<path d="M581.376 553.149V549.465C584.138 549.465 587.084 549.28 590.399 549.28C600.342 549.28 611.759 549.098 619.862 544.492C622.254 543.203 623.728 540.811 623.728 538.415C623.728 536.39 622.991 534.919 621.518 533.445C615.995 528.472 601.263 528.105 593.345 529.209L592.792 525.525C610.47 523.132 618.021 517.792 619.31 513.741C619.862 512.083 619.31 510.427 617.836 508.953C613.418 504.717 598.869 501.403 577.324 509.69L576.036 506.191C597.765 497.903 614.152 500.481 620.414 506.191C622.991 508.583 623.913 511.715 622.991 514.66C621.702 518.896 616.914 522.58 609.366 525.158C615.074 525.895 620.598 527.368 624.098 530.498C626.49 532.523 627.594 535.101 627.412 538.233C627.412 541.915 625.017 545.414 621.518 547.439C612.681 552.412 600.711 552.597 590.399 552.597C587.268 552.597 584.138 552.597 581.376 552.779V553.149Z" fill="#101216"/>
<path d="M603.707 492.736L600.042 493.096L601.012 502.991L604.678 502.634L603.707 492.736ZM606.221 551.267L602.552 551.582L603.024 557.087L606.693 556.773L606.221 551.267Z" fill="#101216"/>
<path d="M611.207 383.546C630.429 383.546 646.01 367.962 646.01 348.741C646.01 329.52 630.429 313.937 611.207 313.937C591.986 313.937 576.404 329.52 576.404 348.741C576.404 367.962 591.986 383.546 611.207 383.546Z" fill="white"/>
<path d="M611.207 384.467C591.503 384.467 575.483 368.445 575.483 348.741C575.483 329.038 591.503 313.016 611.207 313.016C630.909 313.016 646.931 329.038 646.931 348.741C646.931 368.445 630.909 384.467 611.207 384.467ZM611.207 314.858C592.424 314.858 577.324 330.143 577.324 348.741C577.324 367.341 592.608 382.626 611.207 382.626C629.805 382.626 645.088 367.341 645.088 348.741C645.088 330.143 629.805 314.858 611.207 314.858Z" fill="#101216"/>
<path d="M610.286 372.129C605.13 372.129 600.342 369.181 596.844 363.657L599.974 361.816C604.025 368.445 608.997 368.814 611.574 368.445C615.441 367.893 618.94 365.13 619.862 361.631C620.783 358.317 619.492 355.002 616.178 352.24C614.706 350.951 612.681 350.214 610.655 349.295C607.893 348.189 605.13 347.085 603.104 344.874C599.606 341.008 598.685 336.588 600.527 332.72C602.736 328.117 608.26 324.986 613.785 325.17C619.125 325.354 623.361 328.853 625.386 334.562L621.887 335.851C620.414 331.616 617.466 329.221 613.6 329.037C609.549 328.853 605.498 331.247 603.841 334.378C602.552 336.956 603.289 339.902 605.682 342.482C607.156 344.138 609.364 345.059 611.759 345.978C613.97 346.9 616.362 347.821 618.388 349.477C622.809 353.161 624.65 358.134 623.176 362.737C621.702 367.71 617.099 371.392 611.759 372.129C611.207 372.129 610.47 372.129 609.918 372.129H610.286Z" fill="#101216"/>
<path d="M611.39 327.748C611.39 326.828 611.39 325.723 611.39 324.802C611.39 323.881 611.39 322.776 611.39 322.04H615.074C615.074 322.776 615.074 323.881 615.074 324.986C615.074 325.907 615.074 327.012 615.074 327.748H611.39ZM611.022 375.995L609.182 375.81L609.549 370.655H613.233L612.863 375.81L611.022 375.995Z" fill="#101216"/>
<path d="M527.422 473.963C551.932 473.963 571.8 454.094 571.8 429.582C571.8 405.074 551.932 385.202 527.422 385.202C502.912 385.202 483.044 405.074 483.044 429.582C483.044 454.094 502.912 473.963 527.422 473.963Z" fill="white"/>
<path d="M527.422 474.885C502.378 474.885 482.123 454.629 482.123 429.582C482.123 404.538 502.378 384.282 527.422 384.282C552.465 384.282 572.721 404.538 572.721 429.582C572.721 454.629 552.465 474.885 527.422 474.885ZM527.422 386.123C503.483 386.123 483.964 405.645 483.964 429.582C483.964 453.522 503.483 473.042 527.422 473.042C551.36 473.042 570.879 453.522 570.879 429.582C570.879 405.645 551.36 386.123 527.422 386.123Z" fill="#101216"/>
<path d="M526.501 466.598L502.931 429.03L526.133 392.57L549.335 429.03L526.501 466.598Z" fill="#101216"/>
<path d="M526.501 470.097L500.721 429.215L526.133 389.255L551.545 429.215L526.501 470.097ZM504.957 429.215L526.317 463.098L547.125 429.215L526.133 396.069L505.141 429.215H504.957Z" fill="#101216"/>
<path d="M525.212 393.858L502.931 428.846V429.03L525.949 429.4V394.043C525.949 393.489 525.396 393.306 525.028 393.674L525.212 393.858Z" fill="white"/>
<path d="M527.974 431.426L502.01 430.871L501.458 429.952C501.09 429.4 501.09 428.478 501.458 427.926L523.739 392.937C524.292 392.015 525.396 391.648 526.317 392.015C527.238 392.385 527.974 393.306 527.974 394.41V431.608V431.426ZM506.246 427.374L524.291 427.742V399.014L506.246 427.374Z" fill="#101216"/>
<path d="M527.054 462.546L525.949 430.871L503.299 429.03C503.115 429.03 502.931 429.4 503.115 429.582L524.66 463.65C525.396 464.939 527.054 464.202 527.054 462.546Z" fill="white"/>
<path d="M525.765 466.046C524.844 466.046 523.739 465.494 523.187 464.572L501.642 430.504C501.274 429.767 501.274 428.846 501.642 428.109C502.01 427.374 502.747 427.005 503.668 427.19L527.974 429.215L529.079 462.731C529.079 464.387 528.159 465.676 526.685 466.046C526.317 466.046 526.133 466.046 525.765 466.046ZM506.43 431.056L525.212 460.706L524.291 432.345L506.43 430.871V431.056Z" fill="#101216"/>
<path d="M551.729 427.742H524.66V431.426H551.729V427.742ZM718.192 386.86L738.818 395.515C769.569 410.248 805.293 409.878 835.677 394.595L855.011 385.756C855.011 385.756 864.402 387.782 871.216 390.359C878.582 393.122 890.183 399.014 890.183 399.014L825.179 435.662C801.794 449.104 772.698 448.919 749.498 435.107L683.759 397.173C683.759 397.173 697.017 392.385 701.62 391.096C705.671 389.807 718.562 386.86 718.562 386.86H718.192ZM715.432 605.815L742.132 614.102C742.132 614.102 745.814 651.669 743.606 674.32C742.132 690.892 732.189 738.957 732.189 738.957C732.189 738.957 721.691 736.562 718.194 735.642C715.062 734.906 706.041 732.326 706.041 732.326C706.041 732.326 719.483 680.764 720.402 664.559C721.324 649.459 715.247 605.999 715.247 605.999L715.432 605.815Z" fill="white"/>
<path d="M719.666 667.874H717.825C719.483 655.905 719.666 639.515 715.984 629.018L717.64 628.466C721.324 639.33 721.139 656.087 719.483 668.058L719.666 667.874Z" fill="#101216"/>
<path d="M529.816 599.738C522.818 600.659 509.376 617.234 505.141 622.574C499.432 629.754 493.171 641.726 489.489 649.276C487.095 654.246 487.463 659.586 490.041 664.374C491.33 667.137 493.355 670.084 495.749 673.214C502.931 682.238 518.031 688.866 518.031 688.866C518.031 688.866 501.458 671.006 505.877 648.539C513.059 612.446 530 599.555 530 599.555L529.816 599.738Z" fill="white"/>
<defs>
<clipPath id="clip0_3204_140">
<rect width="652.254" height="803" fill="white"/>
</clipPath>
</defs>
</svg>
