<svg width="523" height="838" viewBox="0 0 523 838" fill="none" xmlns="http://www.w3.org/2000/svg">
<path d="M199.333 89.6173C203.429 91.6467 207.951 91.9395 212.763 90.4725C217.357 89.0722 222.182 86.0813 227.105 81.628C232.034 77.1945 237.015 71.2908 241.98 64.0458C253.451 47.284 256.137 24.2999 256.687 11.5624C244.834 15.7403 222.017 25.5839 209.333 42.7155C192.928 64.7588 192.47 76.7951 193.649 82.0151C194.448 85.5056 196.406 88.0782 199.333 89.6173ZM138.933 155.25C141.198 156.621 143.582 156.893 146.207 156.093C147.917 155.572 149.651 154.63 151.396 153.295C163.771 143.704 170.05 122.099 168.609 93.9909C167.785 74.3998 155.353 59.4981 147.948 52.3119C139.542 68.0088 121.745 107.584 126.737 130.159C126.761 130.239 126.779 130.298 126.784 130.384C130.037 147.606 135.791 153.363 138.933 155.25ZM181.974 163.207C182.96 166.511 184.494 168.692 186.679 169.871C189.72 171.505 194.35 171.44 200.117 169.682C205.046 168.179 210.594 165.489 216.539 161.744C232.233 151.489 249.282 128.359 257.492 116.803C248.13 113.318 233.843 109.945 219.984 114.171C217.538 114.916 215.145 115.906 212.952 117.053C188.837 129.832 178.27 150.551 181.974 163.207ZM99.3263 232.496C106.722 247.631 115.842 255.661 123.12 253.443C125.23 252.8 127.332 251.29 129.212 249.045C138.632 237.815 139.021 216.986 130.222 191.837C124.221 174.15 108.121 162.971 98.9792 157.856C95.1011 174.298 89.0829 212.933 99.3263 232.496ZM161.114 251.824C164.368 257.15 168.657 258.664 175.04 256.718C180.786 254.966 187.491 250.447 194.375 243.724C206.761 231.243 216.79 207.54 221.682 195.215C214.102 194.161 203.004 193.615 192.545 196.804C187.256 198.416 182.589 200.859 178.726 204.013C159.177 220.155 154.417 240.97 161.114 251.824ZM162.34 339.808C165.882 343.374 169.522 344.413 173.799 343.109C179.824 341.272 186.664 334.91 192.954 325.308C201.994 310.98 205.947 286.807 207.631 274.375C199.925 274.901 193.898 276.304 189.842 277.541C180.238 280.469 172.87 285.103 167.967 291.33C153.07 310.33 153.407 330.895 162.34 339.808ZM97.7759 334.265C107.735 346.187 117.642 352.089 124.321 350.053C127.584 349.058 129.605 346.206 130.761 344.008C137.284 331.338 132.671 311.708 118.078 290.084C107.97 274.821 89.6496 267.62 79.3997 264.644C79.7552 281.143 83.42 317.757 97.7759 334.265ZM119.445 432.429C130.56 441.089 140.579 444.938 146.922 443.004C150.183 442.01 152.416 439.354 153.533 435.105C157.146 421.651 148.094 403.222 129.292 385.747C115.996 373.215 96.6473 370.126 85.935 369.419C90.147 385.437 101.962 419.414 119.445 432.429ZM183.492 424.452C186.828 426.626 189.904 427.23 192.925 426.309C199.129 424.418 205.374 416.239 209.998 404.04C215.668 388.287 214.014 364.108 212.859 351.977C212.334 352.115 211.817 352.273 211.26 352.443C199.689 355.97 184.512 363.007 178.053 376.396C167.941 397.823 172.856 417.643 183.492 424.452ZM221.938 502.934C224.794 504.039 227.367 504.274 229.594 503.596C235.997 501.644 241.132 491.828 243.284 477.43C245.576 460.71 238.933 437.639 235.131 425.879C224.819 431.413 210.143 441.725 206.587 456.857C201.245 479.976 210.181 498.442 221.938 502.934ZM115.634 469.107C122.92 483.385 141.122 514.438 161.393 523.973C176.414 531.399 184.592 530.708 188.111 529.635C192.406 528.326 194.71 524.975 194.96 519.666C195.673 505.316 183.339 489.451 161.105 476.124C146.142 467.033 126.818 467.521 115.634 469.107ZM165.239 560.816C175.283 573.448 199.437 600.496 220.844 605.844C233.387 609.206 240.791 608.469 244.767 607.256C250.872 605.395 253.327 601.26 252.304 594.625C250.099 580.405 234.548 566.886 210.649 558.432C196.261 553.223 180.725 555.941 170.226 559.142C168.395 559.702 166.726 560.276 165.239 560.816ZM275.2 572.708C277.379 573.084 279.295 573.023 280.926 572.526L280.945 572.52C287.766 570.441 291.479 559.105 290.606 543.046C289.726 530.679 283.525 514.117 272.143 493.748C263.293 501.287 251.346 514.351 250.961 530.056C250.535 554.112 262.917 570.633 275.2 572.708ZM340.739 631.077C342.055 631.045 343.257 630.852 344.33 630.525C353.616 627.694 353.137 612.014 349.595 598.394C346.294 586.353 336.985 571.216 321.908 553.343C314.891 562.69 306.02 578.073 308.829 593.629C313.194 617.57 328.472 631.474 340.739 631.077ZM231.787 641.453C244.359 652.252 273.651 673.911 294.87 674.866C302.421 675.323 308.759 674.8 313.712 673.29C315.341 672.793 317.222 672.048 318.921 670.988C320.619 669.927 322.132 668.552 323.036 666.735C324.637 663.511 323.873 659.793 322.921 657.24C317.828 643.379 300.519 633.372 275.366 629.773C268.174 628.709 260.369 629.417 252.159 631.92C243.925 634.433 236.689 638.354 231.787 641.453ZM312.577 707.852C326.781 715.959 359.704 731.563 380.587 728.06C384.289 727.52 387.668 726.769 390.692 725.847C394.769 724.605 398.176 723.023 400.775 721.21C403.346 719.385 405.11 717.325 405.956 715.115C407.411 711.263 405.805 707.344 404.214 704.768C396.351 692.166 377.502 685.798 352.436 687.338C348.934 687.539 345.372 688.189 341.793 689.28C329.269 693.103 318.612 701.844 312.577 707.852ZM455.012 681.34C467.739 700.559 485.488 707.24 496.464 703.893C497.319 703.633 498.148 703.293 498.982 702.887C502.273 701.276 504.203 699.059 504.879 696.139C506.334 689.726 502.237 679.773 493.671 668.926C482.688 655.426 461.919 644.045 450.588 638.316C447.944 649.888 446.155 667.758 455.012 681.34ZM377.639 644.967C386.775 667.734 404.363 678.304 416.151 675.34C419.765 674.436 422.099 672.68 423.358 669.824C425.966 663.838 424.006 653.344 418.046 641.137C412.33 629.875 400.271 616.835 382.128 602.305C377.193 612.995 371.763 629.975 377.639 644.967ZM404.524 756.889C419.214 761.591 452.021 769.545 472.045 763.441C473.059 763.132 474.02 762.793 475.064 762.368C487.742 757.548 495.841 751.106 497.244 744.73C498.213 740.353 495.713 736.643 493.427 734.277C483.119 723.634 463.389 721.443 439.2 728.275C438.796 728.376 438.418 728.491 438.021 728.612C422.132 733.459 410.3 747.899 404.524 756.889Z" fill="#191C22" fill-opacity="0.05"/>
</svg>
