<svg width="1883" height="581" viewBox="0 0 1883 581" fill="none" xmlns="http://www.w3.org/2000/svg">
<path d="M0 575.5H656.007C694.742 575.5 732.551 563.661 764.369 541.569L898.516 448.428C927.454 428.336 964.179 423.087 997.587 434.269V434.269C1038.97 448.12 1084.63 436.58 1114.46 404.732L1231.49 279.793C1283.38 224.395 1364.17 205.524 1435.57 231.293V231.293C1496.71 253.36 1565.65 242.913 1617.06 203.146L1876.5 2.5" stroke="url(#paint0_linear_2995_156)" stroke-width="6"/>
<path d="M830 496L898.578 448.385C927.476 428.32 964.153 423.078 997.516 434.245V434.245C1038.92 448.105 1084.61 436.505 1114.4 404.57L1236.52 273.617C1287.45 219.014 1367.27 202.455 1435.71 232.297V232.297C1495.29 258.276 1564.34 249.324 1615.33 209.008L1704.5 138.5" stroke="#177DE5" stroke-width="11" stroke-linecap="round"/>
<path d="M0 575.5H634.568C685.458 575.5 733.318 551.312 763.502 510.34V510.34C804.886 454.163 877.881 431.247 943.948 453.69L1039.94 486.3C1105.65 508.622 1178.3 493.344 1229.45 446.446L1304.14 377.971C1370.02 317.575 1469.08 311.253 1542.1 362.785L1568.24 381.235C1600.29 403.856 1638.56 416 1677.79 416H1883" stroke="url(#paint1_linear_2995_156)" stroke-width="6"/>
<path d="M0 575.5H594.026C668.087 575.5 735.399 532.465 766.482 465.242L810.895 369.193C859.478 264.124 989.925 226.547 1086.96 289.67L1111.26 305.482C1183.36 352.383 1277.97 345.002 1341.92 287.486L1392.5 242L1508.2 120.534C1518.04 110.211 1529 101.027 1540.89 93.1564L1546.45 89.4739C1578.4 68.32 1616 57.3215 1654.32 57.9222L1882.5 61.5" stroke="url(#paint2_linear_2995_156)" stroke-width="6"/>
<path d="M1838 61.5H1645.8C1592.7 61.5 1542.03 83.7137 1506.06 122.76L1422 214L1341.99 286.586C1278.06 344.579 1183.07 352.195 1110.72 305.128L1086.96 289.67C989.925 226.547 859.478 264.124 810.895 369.193L809.25 372.75" stroke="#31DD8C" stroke-width="10" stroke-linecap="round"/>
<path d="M1617.5 416L1542.1 362.785C1469.08 311.253 1370.02 317.575 1304.14 377.971L1229.45 446.446C1178.3 493.344 1105.65 508.622 1039.94 486.3L943.948 453.69C877.881 431.247 804.886 454.163 763.502 510.34V510.34C733.318 551.312 685.458 575.5 634.568 575.5H536.625" stroke="#FE7024" stroke-width="11" stroke-linecap="round"/>
<defs>
<linearGradient id="paint0_linear_2995_156" x1="938.25" y1="2.5" x2="938.25" y2="575.5" gradientUnits="userSpaceOnUse">
<stop stop-color="#101216"/>
<stop offset="1" stop-color="#23272F" stop-opacity="0.37"/>
</linearGradient>
<linearGradient id="paint1_linear_2995_156" x1="938.25" y1="2.50005" x2="938.25" y2="575.5" gradientUnits="userSpaceOnUse">
<stop stop-color="#101216"/>
<stop offset="1" stop-color="#23272F" stop-opacity="0.37"/>
</linearGradient>
<linearGradient id="paint2_linear_2995_156" x1="938.25" y1="2.50001" x2="938.25" y2="575.5" gradientUnits="userSpaceOnUse">
<stop stop-color="#101216"/>
<stop offset="1" stop-color="#23272F" stop-opacity="0.37"/>
</linearGradient>
</defs>
</svg>
