<svg width="41" height="40" viewBox="0 0 41 40" fill="none" xmlns="http://www.w3.org/2000/svg">
<path d="M20.011 3.93457C11.1391 3.93457 3.94629 11.1273 3.94629 19.9993C3.94629 28.8715 11.1388 36.0646 20.011 36.0646C28.8835 36.0646 36.0766 28.8715 36.0766 19.9993C36.0763 11.1273 28.8835 3.93457 20.011 3.93457ZM13.3449 11.1801C14.4377 11.1801 15.3241 11.9885 15.3241 12.9857C15.3241 13.9829 14.4377 14.7912 13.3449 14.7912C12.2516 14.7912 11.3657 13.9829 11.3657 12.9857C11.3657 11.9885 12.2516 11.1801 13.3449 11.1801ZM15.3391 26.6232H11.4285V16.419H15.3391V26.6232V26.6232ZM28.6274 26.6232H24.698V21.0121C24.698 20.3715 24.5791 19.9182 24.3421 19.6521C24.1049 19.3865 23.7718 19.2532 23.3432 19.2532C22.8691 19.2532 22.4843 19.4326 22.1899 19.7915C21.8952 20.1504 21.7482 20.794 21.7482 21.7229V26.6232H17.8374V16.419H21.4788V18.081C22.023 17.4023 22.5741 16.9171 23.1313 16.6254C23.6885 16.334 24.3671 16.1885 25.168 16.1885C26.2507 16.1885 27.0977 16.5101 27.7096 17.154C28.321 17.7976 28.6271 18.7921 28.6271 20.1373V26.6232H28.6274Z" fill="white"/>
</svg>
