<svg width="41" height="40" viewBox="0 0 41 40" fill="none" xmlns="http://www.w3.org/2000/svg">
<path d="M25.6682 14.125H23.1904V16.6775H25.6682V14.125Z" fill="white"/>
<path d="M24.1472 19.972C24.1472 22.2395 22.3022 24.0845 20.0347 24.0845C17.7669 24.0845 15.9219 22.2395 15.9219 19.972C15.9219 19.3584 16.0608 18.7775 16.3027 18.2539H13.585V25.3134C13.585 25.9542 14.1064 26.4756 14.7472 26.4756H25.3222C25.963 26.4756 26.4844 25.9542 26.4844 25.3134V18.2542H23.7664C24.0083 18.7778 24.1472 19.3584 24.1472 19.972Z" fill="white"/>
<path d="M20.035 22.4178C21.3833 22.4178 22.4808 21.3206 22.4808 19.972C22.4808 19.3028 22.2103 18.6961 21.7733 18.2539H18.2961C17.8594 18.6959 17.5889 19.3028 17.5889 19.972C17.5889 21.3206 18.6861 22.4178 20.035 22.4178Z" fill="white"/>
<path d="M20.0349 3.93457C11.1627 3.93457 3.97021 11.1273 3.97021 19.9996C3.97021 28.8715 11.1627 36.0651 20.0349 36.0651C28.9072 36.0651 36.1002 28.8718 36.1002 19.9996C36.0999 11.1273 28.9072 3.93457 20.0349 3.93457ZM28.1513 25.3135C28.1513 26.8732 26.8824 28.1423 25.3224 28.1423H14.7474C13.1877 28.1423 11.9185 26.8735 11.9185 25.3135V14.6898C11.9185 13.1301 13.1874 11.861 14.7474 11.861H25.3224C26.8822 11.861 28.1513 13.1298 28.1513 14.6898V25.3135Z" fill="white"/>
</svg>
