<svg width="41" height="40" viewBox="0 0 41 40" fill="none" xmlns="http://www.w3.org/2000/svg">
<path d="M20.0803 3.93457C11.2081 3.93457 4.01562 11.1273 4.01562 19.9996C4.01562 28.8715 11.2081 36.0651 20.0803 36.0651C28.9528 36.0651 36.1456 28.8718 36.1456 19.9996C36.1456 11.1273 28.9528 3.93457 20.0803 3.93457ZM27.9226 16.0085C27.9226 16.0085 28.3045 17.9015 26.934 21.2271C25.5628 24.5526 22.1701 27.6985 17.4967 27.9907C12.8231 28.2826 10.3059 26.2154 10.3059 26.2154C13.8115 26.4851 15.3617 25.0471 16.1931 24.5751C12.9351 24.1482 12.4631 21.699 12.4631 21.699C12.7776 21.834 13.7437 21.789 14.2606 21.6543C11.0703 20.8679 11.0028 17.6548 11.0028 17.6548C11.0028 17.6548 12.1934 18.2615 12.8676 18.149C9.78896 15.8121 11.587 12.7562 11.587 12.7562C15.654 17.2054 19.9678 16.9582 19.9678 16.9582L19.9873 16.9873C19.909 16.674 19.8667 16.3462 19.8667 16.0087C19.8667 13.7843 21.6701 11.9812 23.8945 11.9812C25.0695 11.9812 26.127 12.4848 26.8634 13.2876L26.889 13.2732C28.3267 13.1832 29.3831 12.4193 29.3831 12.4193C28.9453 13.6982 28.0153 14.294 27.627 14.4946C27.632 14.5065 27.6367 14.5185 27.6412 14.5301C28.1437 14.4085 29.4917 14.0787 29.8553 13.9698C29.0684 15.4076 27.9226 16.0085 27.9226 16.0085Z" fill="white"/>
</svg>
