<svg width="41" height="40" viewBox="0 0 41 40" fill="none" xmlns="http://www.w3.org/2000/svg">
<path d="M20.0574 3.93457C11.1852 3.93457 3.99268 11.1273 3.99268 19.9996C3.99268 28.8715 11.1852 36.0651 20.0574 36.0651C28.9296 36.0651 36.1227 28.8718 36.1227 19.9996C36.1224 11.1273 28.9296 3.93457 20.0574 3.93457ZM25.5438 14.211C25.5438 14.3643 25.4196 14.4887 25.266 14.4887H21.3552V16.5907H25.2657C25.4193 16.5907 25.5435 16.7151 25.5435 16.8685V20.7787C25.5435 20.9323 25.4193 21.0565 25.2657 21.0565H21.633V29.6376C21.633 29.7912 21.5088 29.9154 21.3552 29.9154H17.6593C17.5057 29.9154 17.3816 29.7912 17.3816 29.6376V21.0568H14.8491C14.6955 21.0568 14.5713 20.9326 14.5713 20.779V16.8687C14.5713 16.7154 14.6955 16.591 14.8491 16.591H17.3816V15.0054C17.3816 14.9826 17.3843 14.9607 17.3893 14.9396C17.3916 12.681 17.8746 10.0971 21.5749 10.0854C21.583 10.0848 21.5916 10.0843 21.5999 10.0843H25.2657C25.4193 10.0843 25.5435 10.2087 25.5435 10.3621V14.211H25.5438Z" fill="white"/>
</svg>
