<svg width="265" height="432" viewBox="0 0 265 432" fill="none" xmlns="http://www.w3.org/2000/svg">
<path d="M2.5972 395.967C2.5972 415.583 61.0912 431.134 133.322 431.134C205.553 431.134 264.048 417.974 264.048 398.359C264.048 397.162 263.575 392.617 263.575 391.658C258.601 346.204 263.575 208.641 263.575 208.641H3.07007V392.617C3.07007 392.617 2.5972 394.77 2.5972 395.967Z" fill="white"/>
<path d="M5.32897 219.392L10.7253 223.359L128.994 209.255L8.47681 199.118L3.08052 203.966L1.73145 207.933V212.34L5.32897 219.392Z" stroke="black"/>
<path d="M132.339 432C196.127 432 264.914 421.308 264.914 398.261C264.914 396.834 264.438 392.32 264.438 391.605C259.44 346.933 264.438 211.254 264.438 209.827V208.641H0.238342V392.557C0.238342 392.557 0.000732422 394.696 0.000732422 395.885C-0.236908 416.083 58.0774 432 132.339 432ZM262.058 211.017C261.582 224.799 257.298 349.309 262.058 391.845C262.344 393.971 262.502 396.112 262.534 398.261C262.534 416.082 206.6 429.624 132.339 429.624C58.0774 429.624 2.14276 414.419 2.14276 395.885C2.14276 394.696 2.38037 392.557 2.38037 392.557V211.017H262.058Z" fill="black"/>
<path d="M69.1429 241.315C90.3967 244.42 111.848 245.941 133.322 245.865C205.553 245.865 264.048 229.817 264.048 209.937C264.048 190.056 205.553 174.012 133.322 174.012C61.0913 174.012 2.5972 190.056 2.5972 209.937C2.5972 214.968 6.14716 219.757 12.7808 224.068" fill="white"/>
<path d="M132.457 246.726C206.652 246.726 264.914 230.586 264.914 209.934C264.914 189.286 206.652 173.146 132.457 173.146C58.2622 173.146 0 189.286 0 209.934C0 215.157 3.56796 220.377 10.938 224.889L12.1285 222.99C5.7081 218.718 2.37753 214.443 2.37753 209.934C2.37753 191.422 61.8291 175.519 132.457 175.519C203.085 175.519 262.536 191.422 262.536 209.934C262.536 228.447 203.085 244.35 132.457 244.35C110.891 244.495 89.3464 242.987 68.0121 239.841V242.214C89.3477 245.347 110.892 246.854 132.457 246.726Z" fill="black"/>
<path d="M132.216 208.641L69.2585 240.42L86.47 243.598L108.664 245.868H125.875H134.934L137.651 211.819L132.216 208.641Z" fill="black" stroke="black"/>
<path d="M133.322 209.935H264.048C264.048 209.935 264.521 224.786 227.814 234.841C185.186 246.577 133.322 245.859 133.322 245.859V209.935ZM133.322 209.935H2.59726C2.59726 209.935 2.36081 195.327 38.8308 185.269C81.4585 173.533 133.322 174.015 133.322 174.015V209.935Z" fill="black"/>
<path d="M130.587 203.314L148.153 209.051L147.528 211.352L129.961 205.614L130.587 203.314ZM127.007 196.876L168.989 209.313L168.364 211.613L126.381 199.176L127.007 196.876ZM125.097 190.712L189.459 209.012L188.834 211.312L124.471 193.012L125.097 190.712ZM128.945 185.233L212.64 208.751L212.014 211.051L128.32 187.533L128.945 185.233ZM119.217 175.784L242.07 209.531L241.444 211.831L118.592 178.084L119.217 175.784ZM143.461 173.146L264.048 205.667L263.427 207.971L142.839 175.447L143.461 173.146ZM178.932 175.965L255.054 195.514L254.465 197.821L178.342 178.276L178.932 175.965ZM65.5839 425.94L67.9698 241.936L131.192 210.238L130.237 208.09L65.5839 240.505L63.1984 425.94H65.5839Z" fill="black"/>
<path d="M10.9738 409.491H13.3897L11.9389 224.271L129.86 210.773L129.618 208.641L9.52295 222.14L10.9738 409.491Z" fill="black"/>
<path d="M65.4578 398.031L65.8725 400.367L15.3016 409.491L14.8869 407.152L65.4578 398.031ZM12.6403 343.423L65.0001 332.941L66.6612 330.374L12.1577 341.051L12.6403 343.423ZM66.6613 302.14L66.6612 330.374L12.1577 341.051L11.2544 309.678L66.6613 302.14Z" fill="black"/>
<path d="M178.554 98.9495H180.938V195.655H178.554V98.9495ZM65.7956 21.6433H68.1797V194.558H65.7956V21.6433Z" fill="black"/>
<path d="M179.639 145.443C165.056 145.443 153.234 133.62 153.234 119.038C153.234 104.456 165.056 92.6333 179.639 92.6333C194.222 92.6333 206.044 104.456 206.044 119.038C206.044 133.62 194.222 145.443 179.639 145.443Z" fill="white"/>
<path d="M178.559 145.443C183.995 145.443 189.308 143.853 193.828 140.879C198.348 137.906 201.871 133.675 203.952 128.73C206.032 123.781 206.577 118.339 205.516 113.087C204.455 107.835 201.837 103.014 197.993 99.2271C194.149 95.4405 189.252 92.8617 183.92 91.8171C178.589 90.7726 173.063 91.3079 168.04 93.3579C163.018 95.4078 158.725 98.8778 155.705 103.327C152.685 107.78 151.073 113.015 151.073 118.369C151.073 125.55 153.968 132.435 159.123 137.514C164.278 142.59 171.269 145.443 178.559 145.443ZM178.559 93.6517C183.522 93.6517 188.374 95.101 192.501 97.8169C196.628 100.533 199.844 104.394 201.744 108.909C203.643 113.427 204.14 118.398 203.171 123.19C202.203 127.985 199.813 132.392 196.304 135.849C192.794 139.306 188.322 141.66 183.454 142.613C178.586 143.566 173.54 143.076 168.955 141.206C164.369 139.335 160.45 136.166 157.692 132.102C154.935 128.038 153.463 123.259 153.463 118.369C153.463 111.814 156.107 105.527 160.813 100.892C165.519 96.2565 171.903 93.6517 178.559 93.6517ZM65.4549 76.0691C44.1274 76.0691 26.8377 59.0406 26.8377 38.0345C26.8377 17.0285 44.1274 0 65.4549 0C86.782 0 104.071 17.0285 104.071 38.0345C104.071 59.0406 86.782 76.0691 65.4549 76.0691Z" fill="black"/>
<path d="M177.224 135.92L178.183 135.438C185.85 131.096 193.516 119.032 193.037 113.481C193.09 112.882 192.957 112.284 192.656 111.765C192.356 111.246 191.903 110.835 191.36 110.587C188.964 109.38 184.891 111.551 178.662 116.619C174.35 107.69 172.193 106.486 170.756 106.486C170.258 106.472 169.772 106.633 169.379 106.941C168.985 107.249 168.71 107.683 168.6 108.175C166.444 112.759 169.797 127.717 176.745 135.438L177.224 135.92ZM189.922 112.518H190.401C190.64 112.518 190.641 112.759 190.641 113.481C190.641 114.204 184.891 128.198 177.704 132.785C173.047 126.315 170.456 118.573 170.277 110.587C170.356 109.925 170.517 109.276 170.756 108.657C170.756 108.657 172.672 109.38 177.224 118.791L177.943 120.236L179.141 119.272C186.089 113.481 188.964 112.518 189.922 112.518Z" fill="black"/>
<path d="M55.9836 36.9298C54.4531 36.9298 52.9857 36.3068 51.9033 35.1982C50.821 34.0896 50.2124 32.5858 50.2124 31.0178C50.2124 29.4502 50.821 27.9464 51.9033 26.8375C52.9857 25.7289 54.4531 25.1062 55.9836 25.1062C57.5142 25.1062 58.9823 25.7289 60.0647 26.8375C61.147 27.9464 61.7549 29.4502 61.7549 31.0178C61.6979 32.5671 61.0718 34.0371 60.0016 35.1333C58.9314 36.2297 57.4959 36.8711 55.9836 36.9298ZM55.9836 27.471C55.5201 27.4356 55.055 27.5031 54.6193 27.6687C54.1836 27.8346 53.7876 28.0946 53.4588 28.4314C53.13 28.7681 52.8762 29.1734 52.7142 29.6197C52.5525 30.0663 52.4863 30.543 52.5208 31.0178C52.5208 31.9586 52.8861 32.8609 53.5353 33.5259C54.1848 34.1912 55.0652 34.565 55.9836 34.565C56.9021 34.565 57.7831 34.1912 58.4326 33.5259C59.0819 32.8609 59.4465 31.9586 59.4465 31.0178C59.4465 30.0771 59.0819 29.1751 58.4326 28.5098C57.7831 27.8445 56.9021 27.471 55.9836 27.471ZM75.6075 53.4826C74.0769 53.4826 72.6095 52.86 71.5271 51.7513C70.4448 50.6427 69.8362 49.139 69.8362 47.571C69.8362 46.003 70.4448 44.4993 71.5271 43.3906C72.6095 42.282 74.0769 41.6594 75.6075 41.6594C77.1383 41.6594 78.6064 42.282 79.6888 43.3906C80.7708 44.4993 81.3787 46.003 81.3787 47.571C81.3218 49.1203 80.6956 50.5899 79.6254 51.6864C78.5552 52.7826 77.1201 53.4242 75.6075 53.4826ZM75.6075 44.0238C75.1439 43.9887 74.6788 44.0563 74.2431 44.2219C73.8074 44.3878 73.4114 44.6478 73.0826 44.9845C72.7539 45.3213 72.5 45.7266 72.338 46.1728C72.1764 46.6191 72.1104 47.0962 72.1447 47.571C72.1447 48.5117 72.5099 49.4141 73.1591 50.0791C73.8087 50.7444 74.689 51.1182 75.6075 51.1182C76.5259 51.1182 77.4069 50.7444 78.0565 50.0791C78.706 49.4141 79.0703 48.5117 79.0703 47.571C79.0703 47.105 78.9813 46.644 78.8072 46.2135C78.633 45.7833 78.3779 45.3921 78.0565 45.0629C77.7347 44.7334 77.3531 44.472 76.9331 44.294C76.5131 44.1156 76.0624 44.0238 75.6075 44.0238ZM74.8449 25.7784L54.2329 53.095L56.0595 54.5411L76.6716 27.2244L74.8449 25.7784Z" fill="white"/>
<path d="M129.86 210.833L11.655 224.224L7.12608 219.314L3.50295 215.743L2.59717 212.618V209.047L3.50295 205.03L7.57898 200.119L12.5608 195.655L70.5309 198.78L118.99 196.548L129.86 210.833Z" fill="black" stroke="black"/>
</svg>
