<svg width="12" height="18" viewBox="0 0 12 18" fill="none" xmlns="http://www.w3.org/2000/svg">
<path d="M5.5734 0V6.62552C5.5734 6.65396 5.54497 6.6824 5.51653 6.6824C5.31748 6.7677 5.14686 6.85301 4.94781 6.93832C4.69189 7.05206 4.40754 7.1658 4.15162 7.30798L3.21324 7.73452L2.44547 8.07575L1.50709 8.50228C1.25117 8.61602 0.99525 8.72977 0.710893 8.87195C0.511843 8.95725 0.284357 9.071 0.0853072 9.1563C0.0568714 9.1563 0.0568714 9.18474 0.0284357 9.1563H0C0.0853072 9.01412 0.170614 8.90038 0.255921 8.7582C0.710893 7.99044 1.1943 7.22267 1.64927 6.45491C2.13268 5.63027 2.64452 4.80564 3.12793 3.981C3.5829 3.21324 4.03787 2.44547 4.49284 1.70614C4.83407 1.13743 5.1753 0.59715 5.48809 0.0284357C5.54496 0.0284357 5.54497 0 5.5734 0C5.5734 0 5.54497 0 5.5734 0Z" fill="white"/>
<path opacity="0.6" d="M11.0904 9.15615C10.6638 9.44051 10.2089 9.69643 9.78233 9.95235C8.38898 10.777 7.02407 11.5732 5.63072 12.3978C5.60228 12.3978 5.60228 12.4263 5.57385 12.4263C5.54541 12.4263 5.54541 12.3978 5.54541 12.3978V12.3125V6.76755V6.68224C5.54541 6.65381 5.57385 6.65381 5.60228 6.65381C5.71602 6.71068 5.82977 6.76755 5.97195 6.82442C6.31317 6.99504 6.68284 7.13722 7.02407 7.30783C7.33686 7.45001 7.62122 7.59219 7.93401 7.70593C8.2468 7.84811 8.53116 7.99029 8.84395 8.13247C9.09988 8.24621 9.38423 8.35995 9.64015 8.50213C9.89608 8.61587 10.1804 8.72962 10.4364 8.87179C10.6354 8.9571 10.8345 9.07084 11.0619 9.15615C11.0619 9.12772 11.0619 9.15615 11.0904 9.15615Z" fill="white"/>
<path d="M5.5728 18.0003C5.5728 18.0003 5.54436 18.0003 5.5728 18.0003C5.54436 18.0003 5.54436 18.0003 5.51593 17.9718C4.94721 17.1756 4.40693 16.4079 3.83822 15.6117L2.13208 13.2231C1.5918 12.4553 1.02308 11.6875 0.482804 10.8913L0.0562677 10.2942C0.0562677 10.2657 0.027832 10.2657 0.027832 10.2373C0.0562678 10.2373 0.0562677 10.2657 0.0847035 10.2657C0.852468 10.7207 1.64867 11.1757 2.41643 11.6307C3.29794 12.1709 4.20788 12.6828 5.08939 13.2231C5.23157 13.3084 5.40218 13.3937 5.54436 13.479C5.5728 13.479 5.5728 13.5074 5.5728 13.5358V18.0003Z" fill="white"/>
<path d="M0.027832 9.15674C0.027832 9.15674 0.0562678 9.15674 0.027832 9.15674C0.0562678 9.15674 0.0562678 9.15674 0.027832 9.15674C0.027832 9.18517 0.027832 9.18517 0.027832 9.15674Z" fill="white"/>
<path opacity="0.9" d="M0.0581055 9.18519C0.0581055 9.15675 0.0581055 9.15675 0.0581055 9.18519C0.342463 9.04301 0.62682 8.92927 0.911177 8.78709L2.02017 8.27525C2.30453 8.13307 2.58889 8.01933 2.87324 7.87715C3.27134 7.6781 3.69788 7.50748 4.09598 7.30843C4.38034 7.19469 4.66469 7.05251 4.94905 6.93877C5.1481 6.85346 5.34715 6.76816 5.5462 6.65441C5.57464 6.65441 5.57464 6.62598 5.60307 6.62598V12.4269C5.57464 12.4553 5.57464 12.4269 5.5462 12.4269C5.46089 12.37 5.37559 12.3416 5.31871 12.2847L0.114977 9.21363C0.0865412 9.18519 0.0581055 9.18519 0.0581055 9.18519ZM11.0627 10.2373C11.0627 10.2657 11.0627 10.2657 11.0343 10.2942C9.38502 12.6259 7.73575 14.9292 6.08648 17.2609C5.91586 17.5169 5.74525 17.7443 5.57464 18.0003V17.9718V17.915V13.5643V13.479C5.9443 13.2515 6.31396 13.024 6.68363 12.825L11.0343 10.2657C11.0343 10.2373 11.0627 10.2373 11.0627 10.2373Z" fill="white"/>
<path opacity="0.8" d="M5.57324 6.65336V6.59648V0.0847035V0.027832L11.0329 9.07039C11.0613 9.09883 11.0898 9.12726 11.0898 9.1557C10.976 9.09883 10.8623 9.04196 10.7201 8.98508C10.5779 8.92821 10.4358 8.84291 10.2936 8.78603C10.2083 8.7576 10.123 8.70073 10.0092 8.67229C9.86704 8.61542 9.69642 8.53011 9.55424 8.47324C9.46894 8.44481 9.38363 8.38793 9.29832 8.3595L8.70117 8.10358C8.58743 8.0467 8.50212 8.01827 8.38838 7.9614C8.2462 7.90453 8.10402 7.81922 7.96184 7.76235C7.87654 7.73391 7.79123 7.67704 7.70592 7.6486L7.10877 7.39268C6.99503 7.33581 6.90972 7.30738 6.79598 7.2505C6.6538 7.19363 6.51162 7.10833 6.36944 7.05146C6.28413 6.99458 6.17039 6.96615 6.08508 6.90928L5.57324 6.65336Z" fill="white"/>
</svg>
