<svg width="100" height="100" viewBox="0 0 100 100" fill="none" xmlns="http://www.w3.org/2000/svg">
<path fill-rule="evenodd" clip-rule="evenodd" d="M83.5223 87.0984C93.6417 77.9488 100 64.7169 100 50C100 22.3858 77.6142 0 50 0C22.3858 0 0 22.3858 0 50C0 58.1736 1.96125 65.8891 5.43882 72.7016L5.01143 68.1225C5.00384 68.0412 5.00624 67.9592 5.01857 67.8785L10.3847 32.7549C10.4528 32.3092 10.8089 31.9596 11.2595 31.9441C15.7705 31.7889 23.59 34.5207 23.9976 46.9234C23.9992 46.9732 24.0045 47.0247 24.0134 47.0738L25.8507 57.179C25.9372 57.6545 26.3513 58.0001 26.8346 58.0001H28.6256C29.1263 58.0001 29.5499 57.6297 29.6167 57.1335L32.9058 32.6997C32.9623 32.2803 33.2753 31.9389 33.6934 31.873C36.9923 31.3535 42.3725 31.6576 42 36.5001C41.6103 41.5658 36.1276 62.227 33.2252 72.69C33.0948 73.1604 32.6445 73.4627 32.159 73.4116L24.1775 72.5713C23.7688 72.5283 23.428 72.2395 23.3184 71.8434L18.436 54.1919C18.1405 53.1234 16.5846 53.258 16.4769 54.3614L13.5621 84.2388C22.6822 93.9409 35.6335 100 50 100C58.6887 100 66.8598 97.7838 73.9788 93.8857L82.193 55.1617C82.4292 54.0482 80.9184 53.4683 80.3489 54.4539L70.7887 71.0004C70.6101 71.3096 70.28 71.5001 69.9229 71.5001H65.2847C64.824 71.5001 64.4229 71.1854 64.3134 70.738L59.6487 51.6906C59.3905 50.6363 57.8733 50.6909 57.6915 51.7611L54.1414 72.6675C54.0597 73.1483 53.6432 73.5001 53.1555 73.5001H49.5621C48.9861 73.5001 48.5292 73.0149 48.5639 72.44L50.9584 32.6901C50.9834 32.2748 51.2596 31.9151 51.664 31.8177C56.6903 30.6072 65.8526 32.0838 67 47V53.5C67 54.0523 67.4477 54.5 68 54.5H69.9229C70.28 54.5 70.6101 54.3095 70.7887 54.0003L83.2779 32.3845C83.4193 32.1397 83.6572 31.9638 83.9359 31.9164C88.6746 31.1092 96.6027 33.0378 93.5 47C91.1419 57.6113 86.829 74.4854 83.5223 87.0984Z" fill="black"/>
</svg>
