<svg width="100" height="100" viewBox="0 0 100 100" fill="none" xmlns="http://www.w3.org/2000/svg">
<rect width="100" height="100" rx="10" fill="#096FFA"/>
<g clip-path="url(#clip0_3118_146)">
<path d="M31.8393 46.3509C31.8393 47.9342 32.8407 48.6009 34.176 49.1009L35.5947 49.6009C36.5127 49.9342 36.93 50.2675 36.93 51.0175C36.93 51.8509 36.1789 52.2675 35.0105 52.2675C33.8422 52.2675 32.7573 51.8509 31.9227 51.1842V52.8509C32.5904 53.3509 33.7587 53.6842 35.0105 53.6842C37.0134 53.6842 38.5156 52.6842 38.5156 50.9342C38.5156 49.5175 37.8479 48.6842 36.2623 48.1009L34.6767 47.5175C33.8422 47.2675 33.4249 46.9342 33.4249 46.2675C33.4249 45.5175 34.176 45.1009 35.1774 45.1009C36.3458 45.1009 37.1803 45.5175 38.0149 46.1009V44.4342C37.2638 43.9342 36.1789 43.6842 35.094 43.6842C33.3414 43.6842 31.8393 44.6009 31.8393 46.3509ZM81.7447 46.3509C81.7447 47.9342 82.7461 48.6009 84.0814 49.1009L85.5001 49.6009C86.4181 49.9342 86.8354 50.2675 86.8354 51.0175C86.8354 51.8509 86.0843 52.2675 84.9159 52.2675C83.7476 52.2675 82.6627 51.8509 81.8281 51.1842V52.8509C82.4958 53.3509 83.6641 53.6842 84.9159 53.6842C86.9188 53.6842 88.421 52.6842 88.421 50.9342C88.421 49.5175 87.7534 48.6842 86.2512 48.1009L84.6656 47.5175C83.831 47.2675 83.4138 46.9342 83.4138 46.2675C83.4138 45.5175 84.1648 45.1009 85.1663 45.1009C86.2512 45.1009 87.0857 45.5175 87.9203 46.1842V44.5175C87.1692 43.9342 86.1677 43.6842 85.0828 43.6842C83.2469 43.6842 81.7447 44.6009 81.7447 46.3509ZM71.7302 46.3509C71.7302 47.9342 72.7317 48.6009 74.0669 49.1009L75.4022 49.6009C76.3202 49.9342 76.7375 50.2675 76.7375 51.0175C76.7375 51.8509 75.9864 52.2675 74.818 52.2675C73.6497 52.2675 72.5648 51.8509 71.7302 51.1842V52.8509C72.3979 53.3509 73.5662 53.6842 74.818 53.6842C76.8209 53.6842 78.3231 52.6842 78.3231 50.9342C78.3231 49.5175 77.6555 48.6842 76.0698 48.1009L74.5677 47.6009C73.7331 47.3509 73.3158 47.0175 73.3158 46.3509C73.3158 45.6009 74.0669 45.1842 75.0684 45.1842C76.1533 45.1009 77.0713 45.5175 77.9058 46.1842V44.5175C77.1547 43.9342 76.1533 43.6842 74.9849 43.6842C73.2324 43.6842 71.7302 44.6009 71.7302 46.3509ZM61.9661 43.6842V53.6842H67.8913V52.1842H63.5517V49.1009H67.3906V47.6009H63.5517V45.1842H67.8913V43.6842H61.9661ZM9.47363 43.6842V53.6842H13.2291C15.3154 53.6842 16.5672 52.6842 16.5672 50.8509C16.5672 49.7675 15.8996 48.8509 14.9816 48.5175C15.7327 48.2675 16.2334 47.4342 16.2334 46.4342C16.2334 44.6842 14.9816 43.6842 12.8952 43.6842H9.47363ZM11.0593 45.1842H12.8952C14.0636 45.1842 14.6478 45.6009 14.6478 46.5175C14.6478 47.4342 14.0636 47.8509 12.8952 47.8509H11.0593V45.1842ZM11.0593 49.2675H13.1456C14.2305 49.2675 14.8981 49.8509 14.8981 50.7675C14.8981 51.6842 14.314 52.2675 13.1456 52.2675H11.0593V49.2675ZM42.7717 53.6842H44.4408V43.6842H42.7717V53.6842ZM26.3313 43.6842V49.4342C26.3313 51.3509 25.4968 52.1842 24.0781 52.1842C22.5759 52.1842 21.8248 51.2675 21.8248 49.4342V43.6842H20.1557V49.6009C20.1557 52.2675 21.7414 53.6842 24.0781 53.6842C26.4148 53.6842 28.0004 52.2675 28.0004 49.6009V43.6842H26.3313ZM55.9574 43.8509V50.0175L49.1977 43.6842V53.5175H50.7833V47.1842L57.5431 53.6842V43.8509H55.9574Z" fill="white"/>
</g>
<defs>
<clipPath id="clip0_3118_146">
<rect width="78.9474" height="10" fill="white" transform="translate(9.47363 43.6842)"/>
</clipPath>
</defs>
</svg>
