<svg width="310" height="47" viewBox="0 0 310 47" fill="none" xmlns="http://www.w3.org/2000/svg">
<path d="M7.39784 40.9488C3.69897 37.4238 1.76147 32.3125 1.76147 25.7913V1.46877H16.5569V25.2625C16.5569 28.435 17.0853 30.9025 18.3183 32.3125C19.5512 33.7225 21.1365 34.4275 23.2501 34.4275C25.3637 34.4275 27.1251 33.7225 28.1819 32.3125C29.4149 30.9025 29.9433 28.435 29.9433 25.2625V1.46877H44.5626V25.615C44.5626 32.1363 42.6251 37.2475 38.9262 40.9488C35.0512 44.65 29.9433 46.4125 23.074 46.4125C16.3808 46.4125 11.0967 44.65 7.39784 40.9488V40.9488ZM56.8922 5.87502C58.4774 5.87502 59.3581 6.40377 59.7103 6.93252C60.2387 7.46127 60.7672 7.99002 60.7672 9.57627C60.7672 11.1625 60.2387 11.8675 59.7103 12.22C59.1819 12.7488 58.4774 13.2775 56.8922 13.2775C55.3069 13.2775 54.6024 12.7488 54.074 12.22C53.5456 11.6913 53.0172 10.9863 53.0172 9.57627C53.0172 8.16627 53.5456 7.46127 54.074 6.93252C54.6024 6.58002 55.3069 5.87502 56.8922 5.87502ZM56.8922 1.46877C54.6024 1.46877 52.6649 2.35002 51.0797 3.76002C49.4944 5.17002 48.7899 7.10877 48.7899 9.57627C48.7899 12.0438 49.4944 13.9825 51.0797 15.3925C52.6649 16.9788 54.6024 17.6838 57.0683 17.6838C59.5342 17.6838 61.4717 16.9788 63.0569 15.3925C64.6422 13.8063 65.3467 11.8675 65.3467 9.57627C65.3467 7.28502 64.6422 5.17002 63.0569 3.76002C61.2956 2.35002 59.3581 1.46877 56.8922 1.46877V1.46877ZM82.6081 13.1013H69.7501V1.46877H110.261V12.925H97.4035V45.355H82.6081V13.1013V13.1013ZM123.824 43.5925C120.225 41.7144 117.187 38.9174 115.017 35.485C112.904 31.96 111.847 28.0825 111.847 23.6763C111.847 19.27 112.904 15.3925 115.017 11.8675C117.131 8.34253 120.125 5.69877 123.824 3.76002C127.523 1.46877 131.75 0.587524 136.506 0.587524C141.261 0.587524 145.489 1.64502 149.188 3.58377C152.786 5.46186 155.825 8.25893 157.994 11.6913C160.108 15.04 161.165 19.0938 161.165 23.5C161.165 27.9063 160.108 31.7838 157.994 35.3088C155.881 38.8338 152.886 41.4775 149.188 43.4163C145.489 45.355 141.261 46.4125 136.506 46.4125C131.75 46.4125 127.523 45.5313 123.824 43.5925V43.5925ZM141.438 33.1938C142.953 32.2586 144.174 30.9146 144.96 29.3163C145.841 27.73 146.193 25.7913 146.193 23.5C146.193 21.2088 145.841 19.27 144.96 17.6838C144.08 16.0975 142.847 14.6875 141.438 13.8063C140.029 12.925 138.267 12.3963 136.506 12.3963C134.745 12.4036 133.02 12.9024 131.527 13.8364C130.033 14.7705 128.83 16.1029 128.051 17.6838C127.171 19.27 126.818 21.2088 126.818 23.5C126.818 25.7913 127.347 27.73 128.051 29.3163C128.932 30.9025 130.165 32.3125 131.574 33.1938C132.983 34.075 134.744 34.6038 136.506 34.6038C138.267 34.4275 140.029 34.075 141.438 33.1938V33.1938ZM166.625 1.46877H188.29C193.222 1.46877 197.449 2.35002 201.324 4.11252C204.891 5.79463 207.935 8.414 210.131 11.6913C212.244 15.04 213.301 18.9175 213.301 23.3238C213.301 27.73 212.244 31.6075 210.131 34.9563C208.017 38.305 205.199 40.7725 201.324 42.535C197.625 44.2975 193.222 45.1788 188.29 45.1788H166.625V1.46877ZM187.761 33.8988C190.932 33.8988 193.398 33.0175 195.335 31.255C197.273 29.4925 198.154 26.8488 198.154 23.5C198.154 20.1513 197.273 17.6838 195.335 15.745C193.398 13.9825 190.932 13.1013 187.761 13.1013H181.421V33.8988H187.761ZM247.824 37.7763H231.091L228.097 45.355H213.125L232.324 1.46877H246.943L265.966 45.5313H250.642L247.824 37.7763V37.7763ZM243.773 27.2013L239.546 16.0975L235.318 27.2013H243.773V27.2013ZM291.682 29.4925V45.355H276.886V29.14L260.33 1.29252H276.006L284.989 16.45L293.972 1.29252H308.239L291.682 29.4925V29.4925Z" fill="#263238"/>
</svg>
