<svg width="670" height="418" viewBox="0 0 670 418" fill="none" xmlns="http://www.w3.org/2000/svg">
<rect y="0.129028" width="670" height="414.409" rx="30" fill="#101216"/>
<path d="M423.157 218.651C474.969 218.651 516.971 176.196 516.971 123.824C516.971 71.4526 474.969 28.9975 423.157 28.9975C371.345 28.9975 329.343 71.4526 329.343 123.824C329.343 176.196 371.345 218.651 423.157 218.651Z" fill="white"/>
<path d="M423.157 219.227C404.49 219.227 386.242 213.633 370.721 203.15C355.199 192.666 343.101 177.766 335.957 160.333C328.813 142.901 326.944 123.718 330.586 105.212C334.229 86.705 343.217 69.7058 356.417 56.3632C369.617 43.0207 386.435 33.9344 404.745 30.2532C423.053 26.572 442.03 28.4614 459.277 35.6823C476.524 42.9031 491.266 55.1314 501.637 70.8204C512.008 86.5095 517.543 104.955 517.543 123.824C517.482 149.108 507.519 173.338 489.832 191.217C472.143 209.096 448.171 219.166 423.157 219.227ZM423.157 29.5751C404.717 29.5751 386.689 35.1026 371.355 45.4589C356.022 55.8151 344.07 70.5348 337.013 87.7566C329.956 104.978 328.11 123.929 331.707 142.211C335.305 160.493 344.185 177.288 357.225 190.468C370.265 203.649 386.879 212.626 404.966 216.262C423.055 219.898 441.802 218.032 458.84 210.899C475.877 203.764 490.441 191.685 500.687 176.186C510.932 160.687 516.4 142.465 516.4 123.824C516.369 98.837 506.536 74.8822 489.057 57.2138C471.578 39.5452 447.878 29.6057 423.157 29.5751Z" fill="black"/>
<path d="M423.157 213.799C472.318 213.799 512.172 173.517 512.172 123.824C512.172 74.132 472.318 33.8486 423.157 33.8486C373.996 33.8486 334.142 74.132 334.142 123.824C334.142 173.517 373.996 213.799 423.157 213.799Z" fill="black"/>
<path d="M423.157 201.325C465.503 201.325 499.831 166.627 499.831 123.824C499.831 81.0213 465.503 46.3228 423.157 46.3228C380.811 46.3228 346.483 81.0213 346.483 123.824C346.483 166.627 380.811 201.325 423.157 201.325Z" fill="white"/>
<path d="M423.157 201.787C407.876 201.787 392.937 197.205 380.231 188.621C367.526 180.036 357.625 167.835 351.781 153.561C345.939 139.287 344.416 123.582 347.405 108.433C350.395 93.2844 357.764 79.3722 368.578 68.4574C379.393 57.5425 393.166 50.1154 408.158 47.1157C423.149 44.1161 438.685 45.6787 452.798 51.606C466.91 57.5334 478.966 67.5589 487.44 80.4141C495.914 93.2692 500.425 108.376 500.403 123.824C500.372 144.512 492.22 164.341 477.737 178.959C463.254 193.576 443.625 201.787 423.157 201.787ZM423.157 46.8999C408.107 46.8999 393.392 51.4115 380.878 59.8639C368.363 68.3164 358.609 80.3304 352.849 94.3864C347.088 108.442 345.581 123.909 348.517 138.831C351.454 153.753 358.702 167.459 369.346 178.217C379.988 188.975 393.549 196.301 408.311 199.27C423.073 202.237 438.375 200.714 452.28 194.892C466.187 189.069 478.072 179.21 486.434 166.561C494.797 153.91 499.261 139.038 499.261 123.824C499.261 113.722 497.292 103.719 493.467 94.3864C489.643 85.0534 484.036 76.5735 476.97 69.4305C469.904 62.2874 461.513 56.6213 452.28 52.7555C443.048 48.8898 433.151 46.8999 423.157 46.8999Z" fill="black"/>
<path d="M423.157 175.569C451.429 175.569 474.349 152.401 474.349 123.824C474.349 95.2462 451.429 72.0794 423.157 72.0794C394.885 72.0794 371.965 95.2462 371.965 123.824C371.965 152.401 394.885 175.569 423.157 175.569Z" fill="black"/>
<path d="M423.157 170.717C448.78 170.717 469.55 149.722 469.55 123.824C469.55 97.9255 448.78 76.9306 423.157 76.9306C397.536 76.9306 376.766 97.9255 376.766 123.824C376.766 149.722 397.536 170.717 423.157 170.717Z" fill="white"/>
<path d="M423.157 171.295C413.868 171.295 404.788 168.511 397.064 163.294C389.342 158.079 383.322 150.664 379.768 141.99C376.214 133.316 375.284 123.771 377.096 114.563C378.908 105.354 383.381 96.8959 389.948 90.257C396.517 83.6179 404.884 79.0968 413.995 77.2651C423.104 75.4335 432.547 76.3735 441.129 79.9665C449.71 83.5595 457.046 89.6439 462.206 97.4505C467.366 105.257 470.12 114.435 470.12 123.824C470.12 136.414 465.173 148.488 456.366 157.391C447.559 166.293 435.613 171.295 423.157 171.295ZM423.157 77.5081C414.094 77.5081 405.236 80.2244 397.7 85.3137C390.165 90.403 384.292 97.6365 380.823 106.1C377.356 114.563 376.448 123.875 378.216 132.86C379.985 141.844 384.348 150.097 390.756 156.575C397.165 163.052 405.329 167.463 414.218 169.251C423.106 171.037 432.319 170.12 440.692 166.614C449.065 163.109 456.222 157.172 461.256 149.556C466.29 141.939 468.978 132.984 468.978 123.824C468.978 111.54 464.15 99.7596 455.558 91.0737C446.965 82.3876 435.309 77.5081 423.157 77.5081Z" fill="black"/>
<path d="M423.157 138.493C431.172 138.493 437.67 131.925 437.67 123.824C437.67 115.723 431.172 109.156 423.157 109.156C415.142 109.156 408.646 115.723 408.646 123.824C408.646 131.925 415.142 138.493 423.157 138.493Z" fill="black"/>
<path d="M423.157 129.83C426.438 129.83 429.1 127.141 429.1 123.824C429.1 120.507 426.438 117.818 423.157 117.818C419.876 117.818 417.216 120.507 417.216 123.824C417.216 127.141 419.876 129.83 423.157 129.83Z" fill="white"/>
<path d="M423.157 130.292C421.46 130.292 419.832 129.611 418.633 128.397C417.433 127.185 416.759 125.539 416.759 123.824C416.636 122.894 416.711 121.948 416.979 121.051C417.248 120.153 417.703 119.323 418.313 118.617C418.926 117.911 419.679 117.346 420.524 116.958C421.37 116.571 422.286 116.37 423.214 116.37C424.143 116.37 425.06 116.571 425.905 116.958C426.75 117.346 427.503 117.911 428.116 118.617C428.726 119.323 429.182 120.153 429.45 121.051C429.718 121.948 429.793 122.894 429.67 123.824C429.67 124.683 429.501 125.534 429.173 126.326C428.844 127.118 428.362 127.837 427.756 128.439C427.15 129.041 426.431 129.515 425.642 129.833C424.851 130.151 424.008 130.307 423.157 130.292ZM423.157 118.395C422.095 118.395 421.057 118.714 420.173 119.31C419.29 119.907 418.602 120.755 418.196 121.747C417.789 122.739 417.682 123.83 417.89 124.883C418.098 125.936 418.609 126.903 419.36 127.663C420.111 128.422 421.068 128.939 422.109 129.148C423.151 129.358 424.231 129.25 425.212 128.839C426.194 128.428 427.032 127.733 427.623 126.84C428.213 125.947 428.528 124.898 428.528 123.824C428.528 122.384 427.962 121.003 426.955 119.985C425.949 118.967 424.582 118.395 423.157 118.395ZM425.099 130.177L407.846 207.678H442.239L425.099 130.177Z" fill="black"/>
<path d="M419.615 127.867L353.226 170.371L377.564 194.972L419.615 127.867ZM417.331 122.323L340.657 104.997V139.763L417.331 122.323ZM419.615 116.778L377.564 49.6722L353.226 74.274L419.615 116.778ZM425.099 114.584L442.239 36.9673H407.846L425.099 114.584ZM430.47 116.778L496.974 74.274L472.635 49.6722L430.47 116.778ZM432.756 122.323L509.428 139.763V104.997L432.756 122.323ZM430.47 127.867L472.635 194.972L496.974 170.371L430.47 127.867Z" fill="black"/>
<path d="M417.101 77.6236L415.844 72.4261L434.356 73.2345L433.099 78.3167L417.101 77.6236ZM450.239 85.5931L452.981 81.0886L465.437 94.8332L461.093 97.4898L450.239 85.5931ZM468.293 114.584L473.321 112.967L474.006 131.678L468.864 130.754L468.293 114.584ZM462.123 148.773L466.808 151.198L454.01 164.711L451.153 160.553L462.123 148.773ZM433.327 169.331L434.926 174.413L415.159 174.875L416.187 169.793L433.327 169.331ZM397.79 162.863L395.161 167.368L381.564 152.585L386.021 150.043L397.79 162.863ZM377.793 131.101L372.652 132.486L373.452 112.274L378.478 113.544L377.793 131.101ZM386.363 95.5264L381.907 92.7544L396.076 79.4717L398.704 83.9762L386.363 95.5264ZM413.101 49.0946L411.159 40.7786L440.984 42.049L439.04 50.1341L413.101 49.0946ZM466.808 61.9155L471.265 54.6388L491.489 76.9307L484.405 81.2043L466.808 61.9155ZM496.175 109.155L504.287 106.499L505.316 136.76L497.089 135.374L496.175 109.155ZM486.118 164.48L493.66 168.408L472.977 190.352L468.293 183.423L486.118 164.48ZM439.384 197.745L442.011 205.945L410.016 206.87L411.617 198.554L439.384 197.745ZM381.792 187.235L377.451 194.626L355.511 170.603L362.71 166.443L381.792 187.235ZM349.34 135.836L341.113 137.915L342.37 105.228L350.369 107.423L349.34 135.836ZM363.281 78.0857L355.968 73.5812L379.05 52.0979L383.279 59.3745L363.281 78.0857ZM310.032 227.313C310.832 222.228 312.875 217.424 315.975 213.337C316.41 212.604 317.009 211.982 317.723 211.521C318.436 211.06 319.247 210.772 320.088 210.681C321.803 210.681 323.06 212.182 323.86 213.685C324.896 215.668 325.334 217.918 325.117 220.152C325.058 221.452 324.529 222.685 323.63 223.617C322.88 224.043 322.071 224.355 321.231 224.542C317.453 225.272 313.716 226.196 310.032 227.313Z" fill="white"/>
<path d="M309.347 228.121V227.197C310.134 222.018 312.219 217.127 315.403 212.991C316.432 211.72 317.917 210.103 319.974 210.103C322.03 210.103 323.745 212.414 324.202 213.453C325.327 215.533 325.805 217.908 325.572 220.268C325.482 221.708 324.873 223.064 323.859 224.079C323.056 224.592 322.164 224.946 321.231 225.118C317.492 225.85 313.792 226.776 310.147 227.891L309.347 228.121ZM319.974 211.258C318.831 211.258 317.689 212.066 316.432 213.685C313.564 217.435 311.642 221.836 310.832 226.505C314.603 225.35 317.917 224.656 321.116 223.964C321.849 223.838 322.548 223.562 323.173 223.155C323.604 222.785 323.951 222.325 324.186 221.806C324.424 221.288 324.546 220.724 324.544 220.152C324.758 217.993 324.32 215.818 323.287 213.915C323.06 213.337 321.803 211.258 320.088 211.258H319.974ZM128.004 417.658C93.0378 363.835 99.4369 270.857 123.205 243.599C146.972 216.34 213.362 216.802 242.272 235.745C278.494 259.422 265.925 372.382 260.784 415.811" fill="white"/>
<path d="M207.42 230.432L207.077 197.398H170.283L170.74 230.316" fill="white"/>
<path d="M206.848 230.432L206.506 197.976H170.854L171.311 230.316H170.169L169.711 196.821H207.648L207.991 230.432H206.848Z" fill="black"/>
<path d="M152.115 144.499C149.372 141.38 144.459 140.802 140.688 142.535C138.822 143.457 137.204 144.82 135.971 146.509C134.737 148.198 133.925 150.163 133.604 152.237C132.926 156.423 133.607 160.719 135.546 164.48C137.671 168.837 141.112 172.397 145.373 174.645C149.636 176.88 154.585 177.376 159.199 176.03C153.432 166.609 150.939 155.513 152.115 144.499Z" fill="white"/>
<path d="M154.057 177.416C150.909 177.388 147.813 176.597 145.03 175.107C140.677 172.84 137.183 169.187 135.089 164.712C133.044 160.861 132.321 156.432 133.032 152.122C133.385 149.954 134.242 147.902 135.533 146.135C136.825 144.367 138.513 142.936 140.46 141.958C144.573 140.11 149.715 140.918 152.572 144.037L152.801 144.268V144.499C151.66 155.386 154.11 166.349 159.771 175.684L160.114 176.378L159.428 176.608C157.682 177.12 155.875 177.393 154.057 177.416ZM145.145 142.073C143.688 142.091 142.25 142.406 140.917 142.997C139.135 143.898 137.592 145.218 136.419 146.846C135.246 148.474 134.477 150.362 134.175 152.353C133.54 156.388 134.222 160.524 136.118 164.134C138.112 168.438 141.443 171.966 145.602 174.183C149.528 176.16 154.013 176.691 158.285 175.684C152.769 166.381 150.403 155.514 151.544 144.729C150.71 143.873 149.713 143.196 148.613 142.739C147.514 142.283 146.333 142.056 145.145 142.073Z" fill="black"/>
<path d="M151.543 130.523C150.172 153.507 153.143 186.426 173.254 201.671C178.246 205.513 184.302 207.678 190.572 207.864C196.843 208.051 203.014 206.249 208.22 202.712C230.845 187.349 230.845 149.003 228.103 125.326C227.546 120.419 225.778 115.732 222.961 111.696C200.793 80.2801 156 88.5961 151.543 130.523Z" fill="white"/>
<path d="M191.537 208.37C184.822 208.396 178.283 206.205 172.911 202.134C150.172 185.04 150.058 146.346 150.972 130.523C153.029 111.465 163.656 97.6053 179.539 93.4472C195.422 89.2891 212.676 96.2192 223.418 111.465C226.29 115.568 228.097 120.334 228.674 125.326C231.302 147.617 232.102 187.235 208.563 203.288C203.508 206.646 197.584 208.413 191.537 208.37ZM152.115 130.523C151.201 146.232 151.315 184.462 173.597 201.209C178.509 204.943 184.449 207.036 190.591 207.202C196.734 207.368 202.776 205.596 207.877 202.134C231.874 185.848 229.588 142.997 227.531 125.441C226.982 120.622 225.254 116.018 222.504 112.043C212.105 97.2587 195.308 90.3286 179.767 94.3712C164.227 98.4137 154.057 112.043 152.115 130.523Z" fill="black"/>
<path d="M198.85 162.285L198.393 161.247C200.275 160.233 201.943 158.861 203.307 157.203C200.637 155.508 198.365 153.246 196.649 150.573C194.932 147.9 193.811 144.881 193.365 141.727C192.863 138.463 193.073 135.129 193.981 131.956C194.889 128.784 196.473 125.85 198.622 123.362L199.536 124.17C197.463 126.508 195.927 129.281 195.041 132.29C194.154 135.298 193.938 138.468 194.408 141.572C194.877 144.675 196.022 147.634 197.758 150.238C199.494 152.84 201.779 155.022 204.449 156.627L205.021 156.973L204.563 157.435C203.046 159.467 201.092 161.126 198.85 162.285ZM205.249 177.878C196.578 177.764 188.232 174.529 181.709 168.754L182.395 167.946C188.757 173.493 196.847 176.602 205.249 176.724V177.878ZM347.545 215.793H255.785V232.87H347.545V215.793Z" fill="black"/>
<path d="M372.08 224.31L347.627 216.456V232.049L372.08 224.31Z" fill="white"/>
<path d="M347.545 233.003V215.793L374.512 224.455L347.545 233.003ZM348.687 217.41V231.386L370.628 224.455L348.687 217.41Z" fill="black"/>
<path d="M393.38 223.36L368.47 222.577V226.042L393.38 225.102V223.36Z" fill="black"/>
<path d="M293.121 215.532L276.666 197.745L247.071 196.475L255.87 215.532H293.121Z" fill="white"/>
<path d="M294.492 216.11H255.526L246.156 195.897L276.895 197.167L294.492 216.11ZM256.326 214.955H291.864L276.323 198.322L247.986 197.051L256.326 214.955Z" fill="black"/>
<path d="M293.121 232.742L276.666 250.414L247.071 251.798L255.87 232.742H293.121Z" fill="white"/>
<path d="M246.156 252.377L255.526 232.163H294.492L276.895 250.99L246.156 252.377ZM256.326 233.32L247.986 251.106L276.323 249.951L291.864 233.32H256.326Z" fill="black"/>
<path d="M293.121 224.31L276.666 220.384L247.071 220.152L255.87 224.31H293.121Z" fill="white"/>
<path d="M298.148 224.888H255.641L244.442 219.69L276.781 219.921L298.148 224.888ZM256.098 223.733H288.093L276.552 220.96L249.813 220.73L256.098 223.733Z" fill="black"/>
<path d="M338.713 215.764H322.373V232.707H338.713V215.764Z" fill="white"/>
<path d="M339.175 232.87H321.815V215.637H339.175V232.87ZM322.957 231.772H338.033V216.735H322.957V231.772ZM212.905 148.195C214.861 148.195 216.447 146.592 216.447 144.614C216.447 142.637 214.861 141.034 212.905 141.034C210.949 141.034 209.363 142.637 209.363 144.614C209.363 146.592 210.949 148.195 212.905 148.195Z" fill="black"/>
<path d="M288.093 241.057C311.176 212.644 379.735 224.656 306.261 243.136C311.746 241.982 324.43 237.592 325.802 246.718C326.029 249.72 325.002 254.109 321.688 254.571C328.544 254.456 332.887 264.274 327.516 268.778C333.914 267.277 336.656 276.632 331.4 279.173C323.859 282.638 306.718 294.65 297.691 299.502C295.863 299.616 290.265 299.616 289.236 298.115C264.668 262.541 249.7 281.598 288.093 241.057Z" fill="white"/>
<path d="M295.749 300.078C293.349 300.078 289.693 299.848 288.778 298.462C283.643 290.829 277.446 283.983 270.381 278.134C266.497 274.785 264.211 272.706 264.096 269.933C263.983 267.161 268.896 260.462 282.265 246.37L287.636 240.711C300.32 225.118 327.516 221.076 336.886 224.772C339.513 225.812 339.97 227.313 339.97 228.352C339.628 231.933 331.972 236.207 318.031 240.481C319.994 240.359 321.945 240.843 323.63 241.866C324.386 242.42 325.022 243.127 325.493 243.943C325.966 244.758 326.265 245.663 326.372 246.602C326.601 249.027 325.915 252.608 323.859 254.34C325.258 254.731 326.539 255.463 327.595 256.469C328.651 257.476 329.447 258.728 329.915 260.116C330.43 261.416 330.616 262.826 330.456 264.217C330.297 265.609 329.796 266.937 329.001 268.086C330.213 268.126 331.382 268.551 332.344 269.295C333.307 270.041 334.015 271.072 334.372 272.243C335.171 274.785 334.714 278.134 331.63 279.635C328.544 281.136 320.888 285.872 314.375 290.03C307.862 294.188 302.262 297.769 297.92 299.963H295.749V300.078ZM328.201 224.772C316.66 224.772 298.491 229.162 288.55 241.404L283.065 247.18C270.381 260.578 265.011 266.121 265.24 269.817C265.468 273.514 267.525 274.091 271.181 277.326C278.269 283.263 284.534 290.141 289.808 297.769C290.378 298.808 294.721 299.154 297.578 298.924C301.805 296.613 307.862 292.803 313.803 288.991C319.746 285.179 327.172 280.443 331.058 278.595C332.116 278.07 332.933 277.153 333.338 276.033C333.742 274.915 333.704 273.68 333.229 272.59C332.908 271.412 332.138 270.41 331.089 269.804C330.041 269.198 328.796 269.037 327.629 269.356H327.172L326.829 268.546L327.172 268.2C329.801 266.121 329.686 262.771 328.886 260.462C328.362 258.933 327.395 257.598 326.112 256.63C324.828 255.662 323.288 255.106 321.688 255.034V253.877C324.545 253.531 325.572 249.489 325.344 246.718C325.276 245.916 325.036 245.14 324.642 244.441C324.247 243.744 323.708 243.141 323.058 242.674C319.746 240.481 313.231 241.982 309.004 243.02L306.49 243.599L306.261 242.444C330.028 236.437 338.713 231.125 338.943 228.121C338.943 226.967 337.685 226.158 336.656 225.812C333.925 224.941 331.059 224.589 328.201 224.772Z" fill="black"/>
<path d="M321.617 253.787L308.592 256.274L308.804 257.41L321.829 254.922L321.617 253.787ZM317.232 273.282L316.889 272.243C320.645 271.189 324.314 269.837 327.858 268.2L328.316 269.24C324.772 270.979 321.057 272.333 317.232 273.282ZM146.058 360.486C187.88 319.483 234.159 278.134 266.61 260.462C281.923 252.146 299.635 287.721 295.636 302.157C294.149 307.702 220.561 378.966 168.569 410.383" fill="white"/>
<path d="M168.798 410.845L168.226 409.805C219.875 378.734 293.692 307.24 295.178 302.043C297.92 291.878 289.578 271.203 279.638 263.234C276.552 260.692 271.753 258.267 266.953 260.924C239.529 275.823 197.821 310.473 146.401 360.948L145.601 360.14C181.596 324.796 231.645 278.827 266.382 259.884C270.724 257.575 275.524 258.383 280.323 262.309C290.835 270.741 299.177 291.647 296.206 302.273C295.291 305.623 274.38 326.528 251.412 346.972C233.358 363.143 198.736 392.827 168.798 410.845Z" fill="black"/>
<path d="M159.428 347.55L158.285 347.318C161.278 325.137 155.623 302.648 142.516 284.601L143.43 283.909C156.729 302.222 162.466 325.042 159.428 347.55Z" fill="black"/>
<path d="M207.077 210.681H173.483C168.371 210.681 164.227 214.869 164.227 220.036V231.772C164.227 236.939 168.371 241.128 173.483 241.128H207.077C212.189 241.128 216.333 236.939 216.333 231.772V220.036C216.333 214.869 212.189 210.681 207.077 210.681Z" fill="black"/>
<path d="M190.28 238.516H185.481C178.898 238.164 172.501 236.18 166.855 232.742L167.426 231.817C172.947 235.129 179.183 237.033 185.595 237.362C191.994 237.824 198.507 237.131 204.906 236.553C208.448 236.207 212.676 235.399 214.048 232.165L215.076 232.626C213.591 236.323 208.906 237.246 205.021 237.708C201.135 238.17 195.193 238.516 190.28 238.516ZM204.906 228.005L203.763 227.659C205.242 223.398 205.597 218.82 204.792 214.377L205.934 214.147C206.737 218.781 206.383 223.544 204.906 228.005ZM174.282 228.584C172.8 224.162 172.447 219.436 173.254 214.839H174.397C173.611 219.274 173.925 223.838 175.311 228.121L174.282 228.584ZM191.08 225.234C190.812 221.424 190.889 217.597 191.308 213.799H192.451C192.032 217.518 191.956 221.269 192.223 225.004L191.08 225.234ZM284.779 314.401C269.933 302.974 258.922 287.207 253.241 269.24L254.271 268.894C259.875 286.649 270.77 302.22 285.464 313.477L284.779 314.401ZM279.636 301.349L279.408 300.194C282.601 299.596 285.599 298.206 288.132 296.151C290.665 294.094 292.653 291.437 293.92 288.413L294.949 288.875C293.579 292.048 291.472 294.838 288.806 297.009C286.14 299.182 282.995 300.671 279.636 301.349ZM274.724 289.107L274.038 288.183C279.075 284.106 283.882 279.749 288.436 275.131L289.235 275.939C284.643 280.597 279.799 284.993 274.724 289.107ZM263.983 275.131L262.954 274.437C266.593 269.035 271.5 264.631 277.237 261.617L277.694 262.657C272.141 265.557 267.419 269.853 263.983 275.131ZM148.801 132.371C146.858 138.031 147.886 148.195 155.542 147.04C163.198 145.886 158.97 130.754 166.969 129.599C170.169 129.253 172.454 132.256 175.196 134.104C184.909 140.225 195.879 132.025 202.164 124.517C208.448 117.009 214.39 118.973 221.018 126.019C233.587 133.873 245.699 118.396 243.985 105.806C245.357 94.7177 231.302 82.3592 224.56 94.7177C221.589 75.5445 162.513 68.9609 167.084 92.6387C145.373 83.7451 125.262 118.858 148.801 132.371Z" fill="black"/>
<path d="M154.4 147.733C153.477 147.75 152.563 147.551 151.73 147.15C150.897 146.749 150.168 146.158 149.601 145.422C147.087 142.304 146.858 136.644 148.115 132.717C136.574 125.787 135.774 113.544 140.231 104.42C144.687 95.295 155.085 87.7874 166.398 91.7146C166.137 89.8991 166.336 88.0465 166.975 86.3298C167.615 84.6129 168.674 83.0879 170.054 81.8969C178.282 74.9669 197.022 75.7755 209.82 80.6265C218.047 83.7449 223.303 88.1339 224.789 93.1006C227.303 89.52 230.731 88.134 234.615 89.4045C238.501 90.6749 245.471 98.6446 244.557 105.806C245.586 113.429 241.586 122.322 235.302 126.365C233.185 127.882 230.658 128.707 228.063 128.728C225.468 128.748 222.93 127.964 220.789 126.48H220.675C216.79 122.438 213.59 119.781 210.277 119.897C206.963 120.012 205.363 121.629 202.621 124.979C195.422 133.641 184.338 140.687 174.854 134.681C174.084 134.208 173.357 133.667 172.683 133.064C170.854 131.447 169.14 130.061 166.969 130.292C164.798 130.523 162.398 134.565 161.484 138.608C160.57 142.651 159.542 146.578 155.771 147.733H154.4ZM159.999 91.83C151.772 91.83 144.687 97.6051 141.259 104.882C137.831 112.158 137.031 124.979 149.029 131.909L149.486 132.14V132.602C148.229 136.182 148.229 141.842 150.515 144.614C151.104 145.359 151.885 145.925 152.772 146.251C153.659 146.576 154.617 146.65 155.542 146.462C158.742 145.538 159.542 141.957 160.456 138.146C161.37 134.334 162.513 129.599 166.969 129.021C169.597 128.79 171.54 130.407 173.482 132.024L175.539 133.641C184.338 139.185 194.965 132.371 201.821 124.17C204.792 120.474 207.534 118.742 210.391 118.626C213.248 118.511 217.475 121.283 221.475 125.556C223.468 126.865 225.799 127.553 228.177 127.532C230.554 127.511 232.873 126.784 234.845 125.441C237.879 123.263 240.285 120.306 241.812 116.874C243.339 113.443 243.931 109.662 243.529 105.921C244.442 99.222 239.416 92.292 234.387 90.6751C229.359 89.058 227.417 91.0215 225.131 95.0641L224.332 96.5656L224.103 94.833C223.303 89.7511 218.161 85.0155 209.477 81.7814C197.136 77.1615 178.853 76.2375 170.969 82.9365C169.573 84.0746 168.529 85.5936 167.962 87.3135C167.395 89.0332 167.328 90.8814 167.769 92.6384L167.998 93.6781L166.969 93.3315C164.78 92.3293 162.402 91.8172 159.999 91.83Z" fill="black"/>
<path d="M205.82 113.775L205.249 112.736C208.412 111.092 210.827 108.279 211.991 104.882C212.416 103.33 212.482 101.7 212.185 100.118C211.888 98.5357 211.235 97.0438 210.277 95.7572L211.191 95.0643C212.255 96.4987 212.975 98.1639 213.292 99.9281C213.61 101.692 213.516 103.507 213.019 105.228C212.445 107.067 211.512 108.77 210.275 110.238C209.039 111.706 207.524 112.909 205.82 113.775ZM173.711 124.286L173.14 123.362C179.196 119.435 182.053 113.313 180.339 107.769L181.482 107.423C183.31 113.544 180.225 120.128 173.711 124.286ZM182.967 148.887C181.485 148.859 180.033 148.463 178.739 147.733L179.31 146.692C180.757 147.512 182.424 147.841 184.069 147.632C185.713 147.426 187.249 146.691 188.452 145.538L189.252 146.346C187.556 147.975 185.306 148.884 182.967 148.887Z" fill="black"/>
</svg>
