<svg width="912" height="809" viewBox="0 0 912 809" fill="none" xmlns="http://www.w3.org/2000/svg">
<path d="M471.971 334.839C440.009 334.613 408.35 328.625 378.512 317.166C316.114 293.192 263.108 249.74 227.357 193.258L229.273 192.193C294.205 296.515 442.805 371.668 569.687 310.78C589.551 301.041 607.905 288.494 624.19 273.521C613.631 269.861 603.497 265.079 593.96 259.257C581.439 249.118 571.776 235.896 565.915 220.89C560.054 205.884 558.201 189.61 560.533 173.67C563.941 142.161 597.579 105.755 631.214 97.6645C651.225 92.7678 668.046 98.9422 678.478 114.697C691.89 134.923 695.081 158.129 687.843 184.103C679.117 216.251 655.483 247.76 628.447 272.67C663.999 284.167 704.025 282.036 749.369 266.283C801.53 248.399 851.985 216.038 896.477 187.509L910.742 178.354L911.806 180.057L897.544 189.212C853.049 217.954 802.38 250.315 750.222 268.412C703.811 284.381 662.935 286.297 626.531 274.373C609.84 289.717 591.061 302.617 570.754 312.697C539.901 327.384 506.142 334.953 471.971 334.839ZM644.415 98.0903C640.1 98.0903 635.803 98.6631 631.641 99.7937C598.853 107.671 566.068 143.012 562.663 173.883C559.258 204.754 570.754 238.18 595.234 257.554C604.989 263.449 615.336 268.302 626.106 272.031C653.356 247.122 676.986 215.612 685.716 183.464C692.74 158.129 689.76 135.561 676.772 115.974C667.618 102.135 655.483 98.0903 644.415 98.0903Z" fill="black"/>
<path d="M399.163 89.7869C375.318 95.5351 373.188 120.658 376.807 140.883C374.893 164.302 335.932 176.651 344.022 202.625C348.28 214.547 364.033 219.231 368.719 230.941C377.021 253.934 347.429 268.838 342.958 289.063C338.487 309.289 360.203 329.09 380.001 320.999C379.576 332.709 392.35 343.141 403.845 340.371C427.051 327.598 434.503 320.574 459.197 338.669C483.892 356.767 492.621 343.566 506.886 322.487C519.871 312.908 540.735 316.316 551.167 302.051C573.095 269.263 518.382 273.947 538.608 238.818C558.405 211.141 543.076 198.793 531.156 172.606C536.477 102.135 454.301 94.8963 399.163 89.7869Z" fill="black"/>
<path d="M676.133 700.389C681.458 663.982 689.121 621.829 684.649 583.508C684.013 577.973 694.017 579.036 700.192 579.461C706.366 579.886 717.648 579.461 722.758 579.886C775.983 586.488 860.501 610.544 876.255 592.235C921.813 539.435 791.523 377.631 607.583 314.399C552.445 295.663 412.575 234.987 235.66 481.528C157.954 589.68 123.465 685.913 177.966 724.873C220.332 755.106 299.102 718.488 420.877 692.937" fill="white"/>
<path d="M219.906 737.221C203.087 737.221 188.823 734.027 177.327 725.725C165.83 717.421 154.547 701.242 151.567 683.144C143.903 637.158 172.643 567.327 234.808 480.889C405.762 242.651 542.863 290.766 601.409 311.205L607.797 313.547C675.79 337.183 738.6 373.684 792.8 421.062C840.486 463.216 873.699 508.353 883.493 544.757C889.028 564.985 886.684 581.589 877.104 592.874C867.525 604.159 818.348 597.77 773.214 589.469C754.905 586.061 737.659 582.866 722.759 580.953H698.914C694.656 580.525 688.057 580.1 686.354 582.017C685.924 582.562 685.698 583.24 685.716 583.933C689.76 618.424 684.01 656.319 678.903 689.743C678.264 693.576 677.836 697.409 677.2 701.028H675.069C675.708 697.195 676.133 693.362 676.772 689.532C681.883 656.319 687.629 618.424 683.585 584.358C683.489 583.713 683.534 583.056 683.718 582.429C683.902 581.806 684.218 581.227 684.649 580.739C687.204 578.184 693.803 578.609 699.128 579.036H709.132C713.749 578.931 718.368 579.076 722.969 579.461C738.084 581.164 755.33 584.358 773.428 587.763C818.134 596.068 864.545 604.583 875.402 591.81C886.259 579.036 886.684 565.41 881.362 545.823C871.783 509.841 838.784 465.132 791.309 423.193C737.358 375.968 674.844 339.54 607.158 315.888L600.77 313.761C542.652 293.321 406.612 245.631 236.511 482.592C174.772 568.39 146.032 637.796 153.696 683.358C154.782 691.557 157.556 699.44 161.843 706.512C166.131 713.585 171.837 719.693 178.604 724.448C208.622 745.951 258.865 732.75 328.481 714.655C355.732 707.416 386.6 699.326 420.663 692.299L421.088 694.215C387.239 701.453 356.37 709.544 329.119 716.571C285.05 727.853 248.646 737.221 219.906 737.221Z" fill="black"/>
<path d="M436.844 334.411L427.901 246.057L496.026 239.031L504.97 327.598" fill="white"/>
<path d="M435.778 334.625L426.623 244.992L496.879 237.967L497.093 239.031L506.034 327.387L503.903 327.598L494.963 240.308L428.968 246.909L437.908 334.411L435.778 334.625Z" fill="black"/>
<path d="M519.66 157.49C522.176 154.578 525.515 152.492 529.236 151.505C532.958 150.518 536.89 150.674 540.521 151.955C544.101 153.352 547.31 155.56 549.896 158.404C552.481 161.248 554.373 164.651 555.425 168.348C557.45 175.882 557.004 183.868 554.147 191.129C551.005 199.517 545.261 206.68 537.755 211.567C534.082 214.058 529.95 215.792 525.602 216.67C521.251 217.547 516.77 217.549 512.419 216.677C521.26 198.276 523.803 177.479 519.66 157.49Z" fill="white"/>
<path d="M518.593 218.38C516.448 218.378 514.308 218.164 512.208 217.741H510.93L511.355 216.464C520.208 198.371 522.758 177.837 518.593 158.129V157.49L519.021 157.064C523.704 150.89 533.069 148.335 541.16 151.103C544.921 152.561 548.284 154.88 550.984 157.876C553.683 160.871 555.642 164.458 556.703 168.348C558.74 176.111 558.219 184.325 555.211 191.767C552.065 200.384 546.247 207.77 538.605 212.845C532.605 216.571 525.656 218.492 518.593 218.38ZM513.91 216.038C522.095 217.016 530.369 215.136 537.327 210.716C544.607 205.926 550.137 198.904 553.084 190.703C555.868 183.731 556.389 176.059 554.572 168.774C553.551 165.177 551.716 161.865 549.203 159.095C546.693 156.325 543.577 154.173 540.096 152.806C536.718 151.683 533.087 151.568 529.649 152.476C526.208 153.383 523.107 155.274 520.724 157.916C524.81 177.516 522.417 197.914 513.91 216.038Z" fill="black"/>
<path d="M518.168 131.942C524.981 173.671 525.62 234.774 490.919 266.283C482.367 274.287 471.516 279.397 459.899 280.885C448.283 282.377 436.492 280.171 426.198 274.586C381.703 250.529 374.465 180.484 375.318 136.413C375.478 127.308 377.892 118.384 382.342 110.439C417.683 48.6973 502.415 55.9359 518.168 131.942Z" fill="white"/>
<path d="M452.598 282.25C443.254 282.262 434.045 279.999 425.773 275.65C379.151 250.528 373.402 177.716 374.254 136.412C374.354 127.136 376.846 118.042 381.492 110.013C398.524 80.2063 429.179 64.0259 459.622 68.7098C490.066 73.3938 511.994 97.0258 519.232 131.729C523.918 160.683 530.728 231.58 491.768 267.135C481.041 276.861 467.077 282.25 452.598 282.25ZM448.979 69.9872C423.004 69.9872 397.885 85.316 383.195 111.077C378.91 118.848 376.575 127.541 376.382 136.412C375.743 169.199 379.362 248.186 426.837 273.734C436.959 279.086 448.482 281.181 459.839 279.731C471.193 278.284 481.827 273.364 490.28 265.644C528.386 230.728 521.787 160.683 517.105 132.154C510.077 98.3032 488.577 75.5227 459.197 70.8387C455.825 70.2382 452.402 69.9531 448.979 69.9872Z" fill="black"/>
<path d="M436.206 198.793C431.903 197.025 427.994 194.419 424.707 191.129L423.857 190.277L424.921 189.425C429.504 185.948 433.283 181.524 436.004 176.453C438.722 171.383 440.316 165.786 440.674 160.045C440.982 154.292 440.011 148.543 437.842 143.207C435.669 137.871 432.349 133.079 428.115 129.174L429.606 127.471C433.994 131.55 437.45 136.53 439.734 142.071C442.015 147.612 443.073 153.581 442.829 159.568C442.588 165.556 441.051 171.42 438.327 176.757C435.603 182.095 431.755 186.78 427.051 190.49C429.977 193.199 433.367 195.362 437.055 196.877L436.206 198.793ZM550.423 418.311L450.724 423.711C423.134 425.203 401.977 448.782 403.472 476.375L410.327 602.971C411.822 630.565 435.401 651.718 462.991 650.224L562.69 644.824C590.28 643.332 611.437 619.753 609.942 592.16L603.084 465.563C601.592 437.97 578.013 416.817 550.423 418.311ZM414.488 169.625C418.135 169.625 421.088 166.671 421.088 163.025C421.088 159.38 418.135 156.426 414.488 156.426C410.845 156.426 407.889 159.38 407.889 163.025C407.889 166.671 410.845 169.625 414.488 169.625ZM473.035 169.625C476.681 169.625 479.634 166.671 479.634 163.025C479.634 159.38 476.681 156.426 473.035 156.426C469.388 156.426 466.435 159.38 466.435 163.025C466.435 166.671 469.388 169.625 473.035 169.625ZM435.992 227.322V225.193C445.336 224.299 454.358 221.316 462.391 216.464L463.455 218.38C455.066 223.339 445.692 226.392 435.992 227.322ZM421.302 95.9612C414.064 123.851 369.144 166.858 367.866 156.426C359.989 96.8131 399.16 54.0195 443.868 54.0195C445.999 54.0195 421.94 95.7485 421.302 95.9612Z" fill="black"/>
<path d="M417.897 84.4645C412.147 116.826 494.324 169.839 521.787 169.839C521.573 162.174 522.64 163.238 522.64 155.574C533.922 152.38 530.517 106.819 512.422 78.9293C487.3 40.3939 399.374 42.7358 417.897 84.4645ZM472.61 375.501C464.404 375.564 456.28 373.895 448.765 370.604C427.262 361.664 413.639 341.863 411.297 316.527L417.683 315.888C419.813 338.883 431.948 356.767 451.32 364.858C470.693 372.946 490.066 369.755 504.117 358.256C518.168 346.76 525.831 322.701 520.085 295.024L526.47 293.746C532.433 323.979 526.045 348.676 508.161 363.366C498.006 371.279 485.486 375.552 472.61 375.501ZM417.683 691.66C416.619 656.106 404.056 598.409 380.426 587.552C371.271 583.294 267.381 587.127 211.177 637.372L209.899 635.88C266.529 584.997 371.91 581.164 381.489 585.636C408.528 597.984 418.96 662.28 419.813 691.66H417.683Z" fill="black"/>
<path d="M291.651 597.77L289.948 596.282C324.224 554.764 353.177 500.476 369.358 447.037L371.274 447.676C355.093 501.326 325.927 556.042 291.651 597.77Z" fill="black"/>
<path d="M724.675 580.1C693.592 577.759 664.212 582.441 636.538 580.1C633.844 579.793 631.349 578.527 629.511 576.535C627.676 574.54 626.615 571.952 626.531 569.243C625.042 531.558 623.337 492.81 621.848 455.339C621.779 453.413 621.92 451.485 622.273 449.59C624.403 435.327 636.538 435.327 646.542 436.177C709.705 442.309 771.614 457.735 830.271 481.953" fill="white"/>
<path d="M655.058 581.803C648.814 581.803 642.64 581.592 636.538 581.164C633.597 580.863 630.861 579.513 628.83 577.364C626.796 575.216 625.606 572.41 625.467 569.454C624.828 552.637 624.189 535.816 623.34 518.999C622.487 497.707 621.634 476.204 620.784 455.339C620.688 453.344 620.832 451.344 621.209 449.379C623.764 432.986 639.304 434.475 646.756 435.114C709.988 441.243 771.966 456.668 830.696 480.889L829.843 483.017C771.336 458.801 709.566 443.376 646.542 437.244C635.685 436.18 625.253 437.03 623.34 449.804C622.951 451.624 622.806 453.483 622.912 455.339C623.764 476.204 624.614 497.496 625.467 518.785C626.32 535.816 626.959 552.637 627.597 569.243C627.64 571.717 628.601 574.089 630.291 575.9C631.982 577.708 634.284 578.826 636.749 579.037C650.93 579.889 665.15 579.889 679.327 579.037C694.502 578.184 709.714 578.184 724.889 579.037V581.164C709.783 580.314 694.644 580.314 679.541 581.164L655.058 581.803ZM376.596 704.009C355.518 682.719 333.803 602.242 349.132 585.211L350.835 586.699C336.358 602.667 358.073 682.294 378.084 702.52L376.596 704.009Z" fill="black"/>
<path d="M675.069 580.739L673.153 579.886C691.887 543.268 683.16 471.732 662.935 438.733L664.851 437.669C685.288 471.093 694.017 543.693 675.069 580.739ZM624.614 444.268H625.039C639.729 475.14 647.395 513.888 648.884 551.359C649.45 556.102 649.378 560.899 648.67 565.624C647.82 570.307 645.051 577.12 640.582 579.036C636.11 580.953 630.361 577.973 627.808 573.926C626.666 571.464 626.154 568.758 626.317 566.049C625.253 534.753 624.4 503.242 623.337 471.946C623.123 462.791 620.995 450.232 624.614 444.268Z" fill="black"/>
<path d="M631.852 464.069C581.397 470.243 560.747 453.851 526.684 500.687C526.313 501.283 526.105 501.965 526.078 502.664C526.051 503.366 526.205 504.062 526.527 504.683C526.85 505.306 527.326 505.834 527.913 506.216C528.501 506.599 529.179 506.819 529.878 506.861C549.465 507.714 564.794 481.1 585.016 483.869C553.937 498.346 541.799 513.463 560.961 527.515C566.282 531.348 568.837 536.455 577.567 541.78C592.257 550.72 618.229 537.094 643.99 516.654C641.646 500.687 638.027 480.037 631.852 464.069Z" fill="white"/>
<path d="M588.421 545.61C584.446 545.772 580.514 544.733 577.139 542.629C572.948 540.149 569.145 537.067 565.857 533.475C564.221 531.555 562.362 529.841 560.322 528.364C553.509 523.257 550.101 517.932 550.739 512.186C551.378 506.436 561.596 494.088 580.544 484.933C572.242 485.358 564.366 490.894 556.703 496.218C549.037 501.54 539.457 508.353 529.664 507.928C528.754 507.916 527.865 507.654 527.097 507.169C526.328 506.68 525.711 505.99 525.313 505.171C524.915 504.354 524.752 503.441 524.846 502.537C524.936 501.633 525.28 500.771 525.831 500.048C551.378 465.133 569.687 464.922 597.576 464.708C608.954 464.807 620.329 464.238 631.638 463.005H632.491L632.916 463.855C639.09 480.461 642.709 501.964 645.051 516.654V517.293L644.626 517.721C627.383 531.134 605.241 545.61 588.421 545.61ZM581.822 482.592L585.23 483.017L588.635 483.442L585.441 484.933C565.004 494.513 553.72 503.881 552.87 512.397C552.445 517.293 555.425 522.19 561.599 526.662C563.661 528.268 565.586 530.049 567.346 531.983C570.633 535.346 574.273 538.344 578.203 540.927C593.746 550.295 621.845 532.836 642.709 516.23C640.582 501.754 637.174 481.1 631.213 465.133C620.046 466.368 608.812 466.935 597.576 466.838C569.476 467.049 552.445 467.263 527.534 501.326C527.205 501.745 527.006 502.251 526.958 502.781C526.907 503.314 527.015 503.848 527.262 504.318C527.51 504.791 527.886 505.183 528.35 505.445C528.814 505.707 529.345 505.828 529.878 505.797C538.819 506.222 546.909 500.476 555.425 494.513C563.941 488.552 572.242 482.592 581.822 482.592ZM377.446 585.422C377.446 618.635 393.838 658.447 406.401 683.997C407.678 686.763 408.528 690.171 410.659 692.299C411.807 693.414 413.31 694.089 414.907 694.206C416.501 694.324 418.089 693.875 419.385 692.938C421.516 691.021 421.302 687.402 421.091 684.422C416.619 651.848 409.595 591.596 377.446 585.422Z" fill="black"/>
<path d="M561.385 526.237L559.469 525.809C560.469 520.831 562.576 516.139 565.637 512.086C568.696 508.033 572.625 504.719 577.139 502.392L578.203 504.306C573.948 506.481 570.227 509.579 567.319 513.373C564.408 517.167 562.383 521.56 561.385 526.237ZM573.52 536.88L571.393 536.241C573.96 527.68 579.366 520.246 586.719 515.166L587.785 516.868C580.879 521.711 575.843 528.774 573.52 536.88Z" fill="black"/>
<path d="M466.435 444.696L483.467 674.204C483.678 675.053 484.316 673.565 485.169 672.926L567.56 598.837L468.563 441.502C467.924 440.435 466.435 443.419 466.435 444.696Z" fill="white"/>
<path d="M483.681 675.481H483.467C483.042 675.481 482.614 675.053 482.403 674.204L465.372 444.907C465.372 443.418 466.221 440.649 467.713 440.224C468.026 440.128 468.364 440.137 468.674 440.254C468.982 440.369 469.241 440.583 469.415 440.863L569.048 599.048L568.199 599.473L485.808 673.565L485.169 674.415C484.744 675.053 484.319 675.481 483.681 675.481ZM468.138 442.78C467.767 443.352 467.547 444.012 467.499 444.696L484.53 672.073L566.282 598.623L468.138 442.78Z" fill="black"/>
<path d="M629.3 562.43L563.727 589.894C563.302 590.108 562.877 589.894 562.877 589.68L468.352 438.947C467.927 438.094 468.352 435.967 469.205 436.605L629.939 560.514C630.364 560.939 629.939 562.002 629.3 562.43Z" fill="white"/>
<path d="M563.302 590.957C563.022 590.966 562.741 590.915 562.485 590.803C562.226 590.695 561.997 590.529 561.81 590.318L467.499 439.585C467.201 438.971 467.083 438.284 467.159 437.606C467.234 436.928 467.502 436.286 467.927 435.752C468.195 435.526 468.533 435.403 468.882 435.403C469.235 435.403 469.572 435.526 469.84 435.752L630.575 559.661C630.789 559.89 630.957 560.155 631.066 560.447C631.177 560.739 631.225 561.053 631.213 561.363C630.981 562.225 630.454 562.978 629.725 563.494L564.152 590.957H563.302ZM469.202 437.88C469.202 438.094 469.202 438.308 469.415 438.308L563.513 588.83L628.872 561.363C628.929 561.363 628.984 561.342 629.023 561.303C629.062 561.261 629.086 561.206 629.086 561.152L469.202 437.88Z" fill="black"/>
<path d="M549.037 477.056C540.41 483.728 532.867 491.701 526.684 500.687C526.313 501.283 526.105 501.964 526.078 502.663C526.051 503.366 526.205 504.062 526.527 504.682C526.85 505.306 527.326 505.833 527.913 506.216C528.501 506.596 529.179 506.819 529.878 506.861C540.521 507.289 550.104 499.412 559.897 492.81" fill="white"/>
<path d="M530.517 507.925H529.664C528.754 507.916 527.865 507.654 527.097 507.168C526.328 506.68 525.711 505.99 525.313 505.171C524.915 504.354 524.752 503.441 524.846 502.537C524.936 501.633 525.28 500.771 525.831 500.048C533.708 489.405 540.946 481.525 548.398 476.203L549.676 477.906C541.166 484.562 533.702 492.454 527.534 501.326C527.205 501.744 527.006 502.251 526.958 502.781C526.907 503.311 527.015 503.848 527.262 504.318C527.51 504.791 527.886 505.183 528.35 505.445C528.814 505.707 529.345 505.827 529.878 505.797C538.819 506.222 546.909 500.476 555.425 494.512L559.255 491.746L560.533 493.663L556.703 496.218C548.398 501.964 540.096 507.925 530.517 507.925Z" fill="black"/>
<path d="M497.518 536.241C499.859 536.455 513.058 531.983 513.486 524.959C513.696 522.618 511.569 520.701 509.653 519.635C507.489 518.737 505.181 518.23 502.839 518.146C476.548 516.977 450.712 525.288 430.031 541.566" fill="white"/>
<path d="M430.67 542.415L429.392 540.713C450.23 524.248 476.31 515.856 502.839 517.082C505.319 517.164 507.766 517.67 510.077 518.571C511.355 519.098 512.455 519.981 513.248 521.111C514.04 522.244 514.492 523.579 514.549 524.959C514.429 526.324 514.001 527.647 513.302 528.825C512.603 530.003 511.644 531.013 510.505 531.772C506.034 535.391 499.22 537.519 497.518 537.308V535.177C501.725 534.487 505.681 532.728 509.014 530.067C509.891 529.506 510.635 528.756 511.186 527.873C511.738 526.99 512.087 525.993 512.208 524.959C512.166 523.953 511.819 522.985 511.21 522.187C510.599 521.385 509.758 520.792 508.8 520.487C506.751 519.737 504.596 519.306 502.415 519.21C476.5 518.164 451.061 526.39 430.67 542.415Z" fill="black"/>
<path d="M385.536 623.107C385.109 572.648 412.361 536.669 468.991 529.642C487.511 527.515 518.382 526.662 522.64 537.733C526.898 548.804 513.91 551.57 506.034 551.145C529.664 554.978 524.343 572.223 503.903 572.223C515.613 571.16 529.025 581.803 515.613 589.255C497.732 597.132 474.312 591.81 459.408 604.584C439.397 625.023 433.436 664.621 401.076 671.434C391.922 652.7 385.536 635.027 385.536 623.107Z" fill="white"/>
<path d="M400.44 672.501V671.862C390.008 650.57 384.684 634.177 384.684 623.106C384.259 569.668 415.127 535.177 469.205 528.578C474.101 527.939 518.382 523.043 523.918 537.308C524.487 538.733 524.689 540.282 524.502 541.807C524.315 543.334 523.749 544.787 522.854 546.037C520.205 548.957 516.704 550.967 512.847 551.784C520.51 554.339 523.279 558.811 522.854 562.43C522.426 566.049 519.021 570.307 512.633 572.223C517.318 573.712 521.148 576.695 522.215 580.314C523.279 583.933 523.065 586.488 516.466 590.107C509.866 593.726 499.859 594.576 491.557 595.429C479.848 596.921 468.777 598.198 460.261 605.436C451.745 612.674 447.915 622.468 442.591 632.047C432.797 649.72 422.793 668.029 401.504 672.287L400.44 672.501ZM490.919 529.431C483.663 529.491 476.415 529.919 469.205 530.709C415.555 537.308 386.175 570.093 386.6 623.106C386.6 633.539 391.711 649.931 401.715 670.157C421.516 665.688 431.095 648.015 440.463 630.983C445.785 621.19 451.32 611.183 458.772 603.734C466.224 596.282 479.637 594.79 491.133 593.512C502.628 592.235 507.95 591.385 515.188 588.191C517.957 586.699 520.937 584.144 519.871 580.953C518.807 577.759 512.422 573.501 506.034 573.287H503.906V571.16H506.247C515.402 570.521 520.51 566.263 520.724 562.216C520.937 558.172 517.318 554.125 506.247 552.209V550.081C511.358 550.506 518.168 548.59 520.937 544.76C521.661 543.835 522.104 542.72 522.218 541.551C522.33 540.381 522.107 539.206 521.576 538.158C519.021 531.344 505.184 529.431 490.919 529.431Z" fill="black"/>
<path d="M434.714 563.494L433.225 562.002C444.721 551.145 459.622 548.165 470.268 547.312C480.911 546.462 497.304 548.59 510.291 550.506V552.637C497.304 550.72 483.892 548.59 470.693 549.443C457.495 550.292 445.571 553.276 434.714 563.494ZM447.701 587.338L446.21 585.85C462.388 569.668 485.383 570.521 505.395 571.16H507.736V573.287H505.395C485.594 572.648 463.241 571.799 447.701 587.338ZM248.433 464.069C267.806 466.835 299.315 461.727 312.514 442.141C323.371 425.959 328.268 398.282 322.094 379.759C298.889 402.754 266.742 437.03 248.433 464.069ZM727.655 372.521C710.835 382.528 679.752 389.552 660.166 376.354C643.987 365.494 629.086 341.438 627.808 322.062C658.038 334.625 700.617 354.426 727.655 372.521Z" fill="black"/>
<path d="M380.851 750.209L513.91 807.266C514.549 807.48 513.91 806.842 513.91 806.203L512.205 748.082H380.001C379.148 748.292 380.001 749.784 380.851 750.209Z" fill="white"/>
<path d="M514.124 808.544H513.486L380.426 751.272C379.576 750.848 378.298 749.57 378.509 748.506C378.606 748.187 378.802 747.91 379.073 747.717C379.341 747.524 379.67 747.427 380.001 747.442H513.272L514.974 806.627C515.098 806.736 515.173 806.89 515.188 807.052C515.188 807.266 515.613 808.119 514.974 808.544C514.842 808.601 514.697 808.634 514.549 808.634C514.402 808.634 514.257 808.601 514.124 808.544ZM381.703 749.356L512.847 805.778L511.141 749.145L381.703 749.356Z" fill="black"/>
<path d="M521.148 709.969L505.606 747.229L504.97 747.654H378.509C377.87 747.654 376.807 746.801 377.66 746.59L520.51 709.119C520.935 709.119 521.362 709.544 521.148 709.969Z" fill="white"/>
<path d="M504.97 748.717H378.509C378 748.678 377.512 748.497 377.099 748.196C376.686 747.898 376.364 747.488 376.168 747.015C376.186 746.692 376.295 746.379 376.484 746.114C376.671 745.852 376.933 745.647 377.232 745.523L520.296 708.266C520.591 708.176 520.907 708.167 521.209 708.242C521.507 708.317 521.781 708.474 522.001 708.694C522.182 708.932 522.3 709.215 522.336 709.517C522.375 709.815 522.333 710.119 522.212 710.397L506.458 747.653C506.338 747.955 506.133 748.214 505.868 748.404C505.606 748.591 505.292 748.702 504.97 748.717ZM381.917 746.59H504.756L519.871 710.397L381.917 746.59Z" fill="black"/>
<path d="M203.726 249.89L225.015 210.716L100.047 216.464L203.726 249.89Z" fill="white"/>
<path d="M204.152 251.167H203.3L98.7695 217.528V215.825H99.8338L226.718 209.864L204.152 251.167ZM105.795 217.316L203.087 248.612L223.099 211.78L105.795 217.316Z" fill="black"/>
<path d="M103.453 217.316L248.221 209.225C248.859 209.012 248.008 208.8 247.795 208.161L220.332 156.851L101.963 215.825C101.111 216.251 102.602 217.316 103.453 217.316Z" fill="white"/>
<path d="M103.454 218.38C102.602 218.38 100.899 217.741 100.686 216.464C100.618 216.154 100.667 215.83 100.824 215.555C100.982 215.279 101.236 215.072 101.538 214.974L220.758 155.574L248.647 207.735H249.073C249.273 207.92 249.419 208.158 249.494 208.421C249.569 208.683 249.571 208.962 249.498 209.225C249.498 209.438 249.073 209.864 248.434 210.077L103.667 218.167L103.454 218.38ZM219.906 158.342L103.88 216.038L246.518 208.161L219.906 158.342Z" fill="black"/>
<path d="M211.39 118.742L213.945 159.193C213.955 159.309 213.941 159.425 213.904 159.534C213.868 159.644 213.809 159.745 213.732 159.832L100.473 216.038C99.8342 216.251 98.5568 216.038 98.9826 215.399L210.326 118.316C210.751 118.103 211.39 118.316 211.39 118.742Z" fill="white"/>
<path d="M99.8338 217.102C98.9822 217.102 98.3437 216.889 98.1307 216.463C97.9484 216.204 97.8691 215.886 97.9086 215.571C97.9478 215.256 98.103 214.967 98.3434 214.761L209.687 117.465C209.926 117.281 210.21 117.165 210.509 117.128C210.809 117.091 211.113 117.133 211.39 117.251C211.691 117.373 211.951 117.577 212.139 117.841C212.328 118.105 212.437 118.418 212.454 118.742L215.009 158.98C215.009 159.832 214.796 160.47 214.157 160.684L100.898 216.889L99.8338 217.102ZM210.326 119.806L103.027 213.483L212.88 158.98L210.326 119.806Z" fill="black"/>
</svg>
