<svg width="335" height="72" viewBox="0 0 335 72" fill="none" xmlns="http://www.w3.org/2000/svg">
<g clip-path="url(#clip0_2363_3111)">
<path d="M102.657 48.7892H96.7031V13.7463H102.657V48.7892Z" fill="black"/>
<path d="M115.16 26.5787C116.244 24.5546 118.854 22.5806 123.041 22.5806C129.234 22.5806 132.547 26.7267 132.547 32.6989V48.7893H126.685V33.4388C126.685 29.9348 125.109 27.6146 121.612 27.6146C117.918 27.6146 115.603 29.9348 115.603 33.9329V48.7893H109.742V23.1725H115.16V26.5787Z" fill="black"/>
<path d="M185.595 23.1726H191.454V48.7894H186.038V45.493C184.954 47.5147 182.394 49.3909 178.255 49.3909C172.062 49.3909 168.85 45.2949 168.85 39.3227V23.1726H174.711V38.5231C174.711 42.0271 176.14 44.3472 179.684 44.3472C183.328 44.3472 185.595 42.125 185.595 37.9311V23.1726Z" fill="black"/>
<path d="M202.504 37.6827C202.947 41.7405 205.557 44.3471 209.649 44.3471C212.357 44.3471 214.672 42.965 215.603 40.6951H221.514C219.988 45.7793 215.455 49.3812 209.496 49.3812C201.763 49.3812 196.74 43.6071 196.74 35.9546C196.74 28.5025 201.863 22.5876 209.446 22.5876C217.03 22.5876 222.005 28.3617 222.005 35.8663C222.005 36.8043 221.957 37.6923 221.957 37.6923L202.504 37.6827ZM202.602 33.3409H216.194C215.703 29.7867 213.24 27.3735 209.446 27.3735C205.652 27.3735 203.195 29.8344 202.604 33.3409H202.602Z" fill="black"/>
<path d="M232.201 26.5787C233.285 24.5546 235.895 22.5806 240.08 22.5806C246.272 22.5806 249.585 26.7267 249.585 32.6989V48.7893H243.724V33.4388C243.724 29.9348 242.147 27.6146 238.651 27.6146C234.959 27.6146 232.644 29.9348 232.644 33.9329V48.7893H226.785V23.1725H232.201V26.5787Z" fill="black"/>
<path d="M266.965 22.5781C274.548 22.5781 278.397 27.8581 279.081 32.4482H273.072C272.383 29.6841 270.068 27.7602 266.915 27.7602C262.731 27.7602 260.07 31.1664 260.07 36.0023C260.07 40.7906 262.731 44.1967 266.915 44.1967C270.068 44.1967 272.393 42.2705 273.072 39.5064H279.081C278.39 44.0989 274.556 49.3788 266.965 49.3788C259.43 49.3788 254.209 43.4114 254.209 36.0119C254.209 28.5455 259.425 22.5781 266.965 22.5781Z" fill="black"/>
<path d="M163.587 43.2109C162.306 43.2109 161.42 42.619 161.42 41.2369V11.77H148.959C144.083 11.77 140.685 14.4362 140.685 20.4561V23.1725H136.586V27.8605H140.673V48.7892H146.537V27.8605H150.947V23.1725H146.537V20.8022C146.537 17.988 147.473 17.0022 149.835 17.0022H155.551V41.1391C155.551 46.271 157.718 48.8871 162.841 48.8871H165.328V43.2109H163.587Z" fill="black"/>
<path d="M283.316 15.5127C283.316 13.3406 284.843 11.8105 287.01 11.8105C289.13 11.8105 290.657 13.3406 290.657 15.5127C290.657 17.6347 289.13 19.117 287.01 19.117C284.843 19.117 283.316 17.6347 283.316 15.5127ZM284.057 23.1724H289.911V48.7892H284.052L284.057 23.1724Z" fill="black"/>
<path d="M328.89 23.1724L321.847 41.731L314.903 23.1724H302.494V16.5081H296.633V41.3849C296.633 46.2232 298.898 48.9372 304.118 48.9372H309.096V43.8028H305.35C303.33 43.8028 302.492 42.817 302.492 40.7929V27.8604H310.546L318.942 48.5958L314.607 59.0602H320.418L334.997 23.1772L328.89 23.1724Z" fill="black"/>
<path d="M73.8959 40.1461H48.0405L51.4868 31.8562H60.4942C62.6147 31.8556 64.6953 31.279 66.5147 30.1876C68.3342 29.0962 69.8244 27.531 70.8269 25.6583C71.8294 23.7857 72.3066 21.6757 72.2079 19.5529C72.1091 17.4301 71.438 15.3738 70.266 13.6028C69.0939 11.8317 67.4648 10.4123 65.5519 9.49534C63.639 8.57841 61.5139 8.19831 59.4026 8.39549C57.2913 8.59267 55.2728 9.35974 53.5619 10.6151C51.851 11.8705 50.5116 13.5672 49.6863 15.5247L46.2067 23.9316H37.697L47.6095 0H39.0355L29.1349 23.9316H3.28193L0 31.8562H25.8553L22.4162 40.1461H13.4183C11.2978 40.1463 9.21693 40.7226 7.3972 41.8137C5.57747 42.9048 4.0869 44.4699 3.08408 46.3425C2.08126 48.215 1.6037 50.3251 1.70222 52.448C1.80073 54.5709 2.47163 56.6274 3.64353 58.3986C4.81544 60.1698 6.44451 61.5895 8.35744 62.5067C10.2704 63.4238 12.3956 63.804 14.507 63.6069C16.6184 63.4099 18.637 62.6428 20.348 61.3874C22.059 60.1321 23.3985 58.4353 24.2239 56.4776L27.7059 48.0732H36.1989L26.2721 72H34.8461L44.7586 48.0732H70.6235L73.8959 40.1461ZM56.9646 18.592C57.2357 17.9589 57.6726 17.4112 58.2289 17.0067C58.7853 16.6022 59.4405 16.3561 60.1251 16.2944C60.8096 16.2327 61.4981 16.3577 62.1176 16.6562C62.7371 16.9547 63.2644 17.4155 63.6439 17.9899C64.0233 18.5643 64.2406 19.2309 64.2729 19.919C64.3051 20.6071 64.1511 21.2911 63.827 21.8986C63.503 22.5061 63.0211 23.0145 62.4323 23.3699C61.8434 23.7252 61.1697 23.9144 60.4823 23.9173H54.7663L56.9646 18.592ZM16.917 53.3913C16.6467 54.0261 16.2098 54.5756 15.6529 54.9814C15.0959 55.3872 14.4396 55.6342 13.7538 55.696C13.0679 55.7579 12.3782 55.6324 11.7578 55.3328C11.1375 55.0332 10.6098 54.5707 10.2307 53.9946C9.85166 53.4184 9.63547 52.7501 9.60513 52.0606C9.57479 51.3711 9.73143 50.6863 10.0584 50.0789C10.3854 49.4715 10.8704 48.9643 11.462 48.6111C12.0536 48.258 12.7297 48.0721 13.4183 48.0732H19.1343L16.917 53.3913ZM39.4689 40.1366H30.9807L34.415 31.8467H42.908L39.4689 40.1366Z" fill="black"/>
</g>
<defs>
<clipPath id="clip0_2363_3111">
<rect width="335" height="72" fill="white"/>
</clipPath>
</defs>
</svg>
