<svg width="730" height="682" viewBox="0 0 730 682" fill="none" xmlns="http://www.w3.org/2000/svg">
<path d="M470.862 70.063C458.35 166.119 438.845 248.605 439.692 324.941C445.416 319.639 525.778 300.132 556.099 301.826C599.567 303.948 631.16 337.028 678.656 348.902C631.796 249.24 696.042 -52.7104 470.862 70.063Z" fill="black"/>
<path d="M588.27 202.153L595.07 290.527L527.059 295.76L520.259 207.386L588.27 202.153Z" fill="white"/>
<path d="M526.839 296.525L597.022 291.011L590.025 200.682L519.841 205.983L526.839 296.525ZM594.69 289.105L528.747 294.193L522.174 207.893L588.117 202.801L594.69 289.105Z" fill="black"/>
<path d="M614.197 98.0527C619.073 91.9036 627.979 90.2072 635.188 92.7516C638.759 94.2756 641.934 96.5964 644.47 99.5368C647.006 102.477 648.836 105.959 649.818 109.715C651.567 117.239 650.823 125.128 647.698 132.192C644.411 140.462 638.631 147.503 631.159 152.336C623.454 156.946 614.311 158.533 605.503 156.789C614.888 138.734 617.95 118.053 614.197 98.0527Z" fill="white"/>
<path d="M612.712 158.485C619.373 158.507 625.908 156.671 631.583 153.184C639.331 148.308 645.342 141.11 648.758 132.616C651.833 125.315 652.574 117.242 650.878 109.503C649.903 105.573 648.011 101.929 645.358 98.8706C642.704 95.8117 639.365 93.4243 635.612 91.9037C631.817 90.4346 627.66 90.1759 623.712 91.1631C619.764 92.1502 616.218 94.3344 613.56 97.4168H613.136V98.0529C616.679 117.78 613.624 138.125 604.443 155.941L603.807 157.213L605.079 157.637C607.594 158.142 610.148 158.426 612.712 158.485ZM628.403 92.7517C630.641 92.6888 632.871 93.0486 634.976 93.8119C638.329 95.3 641.308 97.5196 643.693 100.308C646.077 103.096 647.808 106.383 648.758 109.927C650.434 117.227 649.766 124.869 646.85 131.768C643.593 139.825 637.88 146.65 630.523 151.276C623.596 155.669 615.283 157.332 607.199 155.941C616.042 138.091 618.939 117.88 615.469 98.2648C617.105 96.4747 619.106 95.0561 621.338 94.1049C623.569 93.154 625.978 92.6925 628.403 92.7517Z" fill="black"/>
<path d="M613.561 72.3955C619.286 114.168 618.225 175.025 583.028 205.558C574.297 213.285 563.372 218.09 551.778 219.306C540.185 220.521 528.501 218.087 518.357 212.344C474.466 187.111 469.165 117.137 471.072 73.4557C471.426 64.3987 474.052 55.5757 478.707 47.7984C515.389 -12.8462 599.566 -3.72828 613.561 72.3955Z" fill="white"/>
<path d="M545.922 220.615C559.809 220.615 573.222 215.566 583.664 206.408C623.526 171.844 618.438 101.022 614.621 72.1836H614.409C608.26 37.6204 586.632 13.6594 556.735 8.14632C526.838 2.63323 495.67 17.9004 477.857 47.1625C473.137 55.0777 470.44 64.0367 470.012 73.2439C468.317 114.38 472.134 187.112 517.933 213.194C526.48 218.008 536.113 220.561 545.922 220.615ZM612.501 72.6078C616.317 101.022 621.194 170.996 582.392 204.711C573.806 212.236 563.095 216.911 551.738 218.09C540.382 219.266 528.94 216.889 518.993 211.284C472.556 184.779 470.649 106.111 472.134 73.4558C472.522 64.5379 475.146 55.8605 479.767 48.2227C496.943 19.8089 527.05 4.7537 556.311 10.0549C585.572 15.3557 606.351 38.8928 612.501 72.6078Z" fill="black"/>
<path d="M530.23 137.069L531.079 135.16C527.464 133.471 524.166 131.176 521.325 128.375C526.076 124.791 529.997 120.224 532.821 114.986C535.644 109.747 537.304 103.961 537.687 98.0226C538.069 92.0839 537.166 86.1325 535.037 80.5752C532.908 75.0179 529.606 69.9856 525.354 65.822L523.87 67.3064C528.044 71.2804 531.281 76.1351 533.345 81.5167C535.409 86.8986 536.248 92.6727 535.801 98.4195C535.355 104.166 533.633 109.741 530.762 114.739C527.891 119.738 523.943 124.033 519.205 127.315L518.145 128.163L518.993 129.011C522.169 132.414 525.989 135.152 530.23 137.069Z" fill="black"/>
<path d="M578.787 675.237C578.787 675.237 599.142 679.691 606.139 680.113C632.643 681.385 683.32 673.752 704.735 641.523C720.658 617.394 728.866 588.999 728.271 560.096L721.274 429.901C720.638 384.735 707.704 329.182 670.598 303.311C655.795 293.139 638.076 288.076 620.133 288.892L593.841 290.164H595.749L591.721 235.88L523.445 243.516L526.414 293.346C526.414 293.346 477.01 297.163 461.954 299.069C435.026 302.889 387.743 313.913 368.448 330.454C338.126 356.535 327.736 438.384 325.192 477.399C323.072 512.176 315.227 617.984 323.92 652.335" fill="white"/>
<path d="M611.44 681.173C637.732 681.173 684.804 673.327 705.584 641.945C721.689 617.737 729.978 589.166 729.332 560.096L722.334 429.902C722.122 408.062 717.458 334.483 671.022 302.464C656.135 292.111 638.245 286.968 620.134 287.833L596.81 289.105L592.569 234.608L522.385 242.666L525.354 292.287C516.873 292.921 475.313 296.313 461.957 298.01C438.42 301.404 388.378 312.007 367.811 329.604C333.25 359.08 325.404 457.68 324.132 477.187C323.92 479.944 323.71 483.338 323.497 486.942C320.741 530.411 314.802 620.741 323.072 652.548L324.982 652.123C316.924 620.528 323.072 527.017 325.617 486.942C325.9 483.267 326.113 480.086 326.254 477.4C327.526 458.105 335.159 360.139 369.295 331.089C389.44 313.913 438.842 303.311 462.166 300.132C476.373 298.222 521.325 294.831 526.414 294.406H527.474V293.346L524.506 244.789L590.661 237.153L594.689 289.317H593.841V291.437L619.922 290.164C637.631 289.38 655.117 294.363 669.75 304.371C715.125 335.965 719.79 408.484 720.002 430.114L727.423 560.096C727.735 588.792 719.465 616.924 703.675 640.886C682.26 673.54 630.523 680.113 606.139 679.054C597.012 677.915 587.952 676.285 578.999 674.177L578.575 676.297C579.423 676.509 599.142 680.751 606.139 681.173H611.44ZM550.586 170.148H556.523V168.027C541.015 169.384 525.53 165.175 512.843 156.153L511.571 157.849C523.007 165.853 536.628 170.146 550.586 170.148ZM500.759 104.414C497.127 104.414 494.186 101.471 494.186 97.8409C494.186 94.2105 497.127 91.2675 500.759 91.2675C504.389 91.2675 507.331 94.2105 507.331 97.8409C507.331 101.471 504.389 104.414 500.759 104.414ZM565.428 100.174C561.798 100.174 558.855 97.2303 558.855 93.5999C558.855 89.9696 561.798 87.0266 565.428 87.0266C569.058 87.0266 572.001 89.9696 572.001 93.5999C572.001 97.2303 569.058 100.174 565.428 100.174Z" fill="black"/>
<path d="M618.861 513.448C619.706 468.982 624.174 424.66 632.22 380.919H630.099C622.043 424.728 617.576 469.123 616.741 513.661L618.861 513.448Z" fill="white"/>
<path d="M542.105 4.54174C600.415 -13.0581 636.036 32.5314 636.036 91.0556C618.225 97.4167 601.051 91.6917 585.572 86.3905C574.546 82.3618 535.108 60.0972 542.105 4.54174Z" fill="black"/>
<path d="M550.586 2.42088C546.557 56.28 513.904 70.063 470.649 71.7594C470.649 22.777 519.205 0.300418 550.586 2.42088Z" fill="black"/>
<path d="M582.391 494.575L401.312 565.822L92.3766 488.849C92.2916 488.792 92.218 488.713 92.1698 488.62C92.1188 488.529 92.0933 488.424 92.0933 488.319C92.0933 488.214 92.1188 488.112 92.1698 488.019C92.218 487.925 92.2916 487.849 92.3766 487.789L267.732 421.844L581.967 489.699C582.511 489.804 583.005 490.082 583.376 490.492C583.747 490.903 583.974 491.425 584.021 491.977C584.069 492.53 583.936 493.079 583.642 493.55C583.348 494.017 582.909 494.38 582.391 494.575Z" fill="white"/>
<path d="M401.312 566.882L582.815 495.635C583.539 495.363 584.157 494.867 584.577 494.218C584.997 493.569 585.197 492.801 585.148 492.031C585.091 491.252 584.796 490.506 584.303 489.9C583.81 489.294 583.143 488.852 582.391 488.639L267.732 420.784H267.307L91.9545 486.942C91.6371 487.036 91.3595 487.234 91.1696 487.503C90.977 487.769 90.8806 488.095 90.8948 488.427C90.9515 488.764 91.1017 489.081 91.3255 489.345C91.5493 489.605 91.8383 489.801 92.167 489.911L401.312 566.882ZM267.944 422.903L581.755 490.759C582.077 490.801 582.376 490.951 582.606 491.181C582.836 491.41 582.984 491.708 583.027 492.031C583.046 492.362 582.978 492.694 582.829 492.991C582.68 493.289 582.456 493.544 582.179 493.728L401.102 564.762L94.2863 488.214L267.944 422.903Z" fill="black"/>
<path d="M620.77 242.244L586.42 487.789L265.187 421.843L283.845 206.83C284.59 200.747 287.698 195.202 292.501 191.393C297.3 187.584 303.409 185.817 309.504 186.475L599.779 215.526C602.937 215.838 606 216.784 608.783 218.311C611.566 219.838 614.011 221.912 615.972 224.406C617.933 226.902 619.369 229.769 620.194 232.835C621.018 235.9 621.214 239.099 620.77 242.244Z" fill="white"/>
<path d="M587.268 489.062L621.829 242.454C622.273 239.161 622.05 235.813 621.174 232.605C620.298 229.398 618.787 226.4 616.73 223.791C614.673 221.181 612.113 219.008 609.2 217.407C606.288 215.806 603.084 214.803 599.778 214.466L309.501 185.415C303.171 184.81 296.853 186.681 291.872 190.634C286.891 194.588 283.635 200.316 282.785 206.621L263.915 422.693L587.268 489.062ZM307.169 187.536H309.291L599.566 216.586C602.573 216.9 605.486 217.812 608.136 219.269C610.785 220.725 613.116 222.697 614.993 225.068C616.87 227.44 618.253 230.16 619.064 233.073C619.873 235.985 620.093 239.031 619.709 242.032L585.359 486.517L266.247 420.996L284.695 206.83C285.508 201.455 288.222 196.551 292.348 193.009C296.473 189.468 301.732 187.525 307.169 187.536Z" fill="black"/>
<path d="M580.059 418.874L594.266 281.047C596.81 257.51 580.695 236.518 558.22 233.974L363.147 213.404C340.883 210.859 320.953 228.248 319.043 251.997L309.291 367.56C307.594 388.764 321.165 408.272 341.095 412.726L531.503 455.982C554.827 461.284 577.515 444.108 580.059 418.874ZM309.104 188.238L311.215 188.452L286.899 427.847L284.788 427.635L309.104 188.238Z" fill="black"/>
<path d="M439.463 183.269L473.004 186.676L471.23 204.122L437.689 200.716L439.463 183.269Z" fill="white"/>
<path d="M471.496 203.864L473.406 184.143L437.783 180.538L435.663 200.047L471.496 203.864ZM471.071 186.051L469.59 201.529L437.995 198.138L439.692 182.87L471.071 186.051Z" fill="black"/>
<path d="M214.085 544.83L272.82 499.029L231.048 466.585C221.356 459.048 212.473 450.52 204.545 441.141L198.607 433.506C188.687 420.549 180.754 406.184 175.073 390.887L162.139 357.382L103.404 403.183L138.602 470.192C143.513 479.714 150.208 488.209 158.323 495.213L214.085 544.83Z" fill="white"/>
<path d="M214.088 546.102L274.518 499.029L231.899 465.737C222.169 458.317 213.281 449.857 205.393 440.504L199.457 432.871C189.58 419.996 181.717 405.696 176.133 390.461L162.561 355.685L102.132 402.973L137.755 470.614C142.66 480.267 149.352 488.9 157.473 496.06L214.088 546.102ZM271.123 499.029L214.088 543.345L158.957 494.575C151.132 487.438 144.541 479.054 139.45 469.766L104.889 403.396L161.714 359.079L174.014 391.309C179.87 406.634 187.866 421.056 197.76 434.143L203.698 441.776C211.703 451.219 220.656 459.816 230.414 467.435L271.123 499.029Z" fill="black"/>
<path d="M214.723 536.984L265.822 497.119L231.048 471.464C218.893 462.646 207.982 452.234 198.607 440.504L197.547 439.232C185.089 423.243 175.609 405.144 169.559 385.795L162.986 365.228L111.672 405.305L112.097 405.94C113.156 408.484 137.965 466.162 150.687 482.276C163.408 498.392 211.966 534.862 214.085 536.559L214.723 536.984ZM262.218 497.119L214.723 534.228C208.784 529.774 164.046 496.06 152.384 481.003C140.722 465.95 117.398 412.938 114.428 405.94L161.926 368.832L167.437 386.432C173.586 406.016 183.21 424.331 195.85 440.504L196.912 441.988C206.435 453.789 217.488 464.273 229.776 473.158L262.218 497.119Z" fill="black"/>
<path d="M180.584 476.34C185.514 476.354 190.274 474.541 193.943 471.251C194.909 470.571 195.714 469.684 196.301 468.659C196.887 467.633 197.241 466.491 197.335 465.312C197.335 461.921 194.156 458.952 190.552 455.77L185.038 450.469L180.374 444.32C177.83 440.716 175.92 437.959 172.951 437.534C171.724 437.503 170.503 437.733 169.37 438.209C168.236 438.685 167.216 439.393 166.378 440.291C164.335 442.039 162.66 444.173 161.445 446.573C160.232 448.973 159.507 451.588 159.309 454.268C159.113 456.951 159.447 459.643 160.297 462.196C161.147 464.746 162.493 467.103 164.258 469.129C166.335 471.393 168.857 473.2 171.667 474.441C174.478 475.682 177.513 476.328 180.584 476.34ZM172.316 439.657H172.739C174.648 439.869 176.558 442.413 178.677 445.592C180.796 448.774 181.647 449.621 183.553 451.744C185.228 453.735 187.072 455.58 189.067 457.254C192.459 460.224 195.215 462.768 195.215 465.312C194.96 467.066 194.054 468.659 192.671 469.766C188.775 472.957 183.8 474.515 178.779 474.121C173.761 473.725 169.089 471.407 165.743 467.644C164.173 465.831 162.983 463.723 162.241 461.445C161.499 459.164 161.215 456.761 161.414 454.37C161.612 451.982 162.284 449.655 163.391 447.53C164.499 445.403 166.018 443.518 167.862 441.988C168.979 440.651 170.582 439.812 172.316 439.657ZM214.51 508.569C216.216 508.552 217.891 508.116 219.387 507.297C220.645 506.69 221.767 505.832 222.679 504.775C223.588 503.715 224.274 502.483 224.688 501.148C225.155 499.797 225.348 498.369 225.26 496.944C225.169 495.519 224.798 494.125 224.169 492.844C223.537 491.56 222.659 490.419 221.582 489.478C220.509 488.537 219.256 487.82 217.905 487.364C216.573 486.851 215.148 486.625 213.723 486.698C212.298 486.772 210.906 487.143 209.634 487.789C208.336 488.427 207.18 489.319 206.234 490.413C205.285 491.504 204.568 492.776 204.121 494.15C203.237 496.879 203.452 499.845 204.718 502.418C205.985 504.993 208.203 506.971 210.906 507.934C212.062 508.348 213.281 508.563 214.51 508.569ZM214.51 488.849L217.267 489.274C218.922 489.809 220.375 490.832 221.444 492.204C222.512 493.575 223.144 495.238 223.257 496.972C223.373 498.709 222.962 500.437 222.084 501.939C221.206 503.438 219.897 504.639 218.327 505.39C217.327 505.931 216.222 506.251 215.088 506.325C213.952 506.399 212.816 506.223 211.754 505.812C210.649 505.481 209.626 504.922 208.742 504.18C207.861 503.435 207.138 502.52 206.622 501.488C206.107 500.454 205.806 499.329 205.741 498.176C205.676 497.026 205.846 495.87 206.243 494.788C206.571 493.697 207.115 492.685 207.844 491.813C208.572 490.937 209.47 490.217 210.481 489.699C211.737 489.095 213.119 488.806 214.51 488.849ZM150.052 428.204C152.625 428.085 155.084 427.116 157.05 425.447C159.243 423.566 160.598 420.886 160.816 418.004C161.034 415.12 160.099 412.27 158.215 410.077C156.331 407.884 153.653 406.526 150.772 406.308C147.887 406.09 145.037 407.025 142.844 408.909C140.73 410.853 139.376 413.482 139.025 416.33C138.934 417.758 139.13 419.186 139.603 420.534C140.076 421.883 140.818 423.121 141.781 424.175C142.779 425.413 144.037 426.416 145.468 427.113C146.896 427.81 148.463 428.182 150.052 428.204ZM150.052 408.484H150.687C151.831 408.566 152.945 408.872 153.971 409.385C154.993 409.898 155.909 410.609 156.657 411.476C157.404 412.343 157.974 413.349 158.334 414.437C158.691 415.525 158.833 416.673 158.745 417.814C158.535 420.203 157.393 422.413 155.566 423.966C154.687 424.694 153.673 425.241 152.579 425.566C151.486 425.895 150.338 426 149.205 425.872C148.06 425.827 146.938 425.541 145.915 425.028C144.893 424.515 143.989 423.793 143.266 422.903C141.813 421.11 141.059 418.851 141.147 416.542C141.229 415.386 141.558 414.259 142.105 413.236C142.651 412.213 143.411 411.318 144.326 410.606C145.884 409.176 147.938 408.413 150.052 408.484ZM126.048 394.499L128.156 394.728L124.439 428.961L122.331 428.734L126.048 394.499ZM193.581 517.089L228.159 520.786L227.932 522.894L193.357 519.2L193.581 517.089ZM149.038 375.142L166.752 378.457L166.361 380.542L148.647 377.224L149.038 375.142ZM253.568 491.804L255.599 492.422L249.341 513.014L247.312 512.397L253.568 491.804Z" fill="black"/>
<path d="M339.401 445.593L413.611 449.834L403.647 397.882C401.213 385.886 400.148 373.649 400.465 361.411C400.465 358.02 400.677 354.838 400.89 351.659C402.1 335.416 405.599 319.424 411.28 304.161L423.789 270.232L349.366 266.203L331.555 339.785C329.19 350.211 328.617 360.969 329.858 371.589L339.401 445.593Z" fill="white"/>
<path d="M414.884 450.894L404.706 397.672C402.326 385.735 401.261 373.578 401.524 361.411C401.524 358.232 401.737 354.838 401.949 351.659C403.111 335.478 406.61 319.549 412.339 304.371L425.273 269.385L348.516 265.143L330.705 339.572C328.167 350.118 327.521 361.029 328.798 371.801L338.338 446.652L414.884 450.894ZM422.304 271.294L410.22 303.736C404.567 319.081 401.071 335.138 399.83 351.446C399.618 354.838 399.405 358.02 399.405 361.199C399.13 373.578 400.196 385.948 402.587 398.094L412.339 448.562L340.248 444.533L330.918 371.379C329.682 360.896 330.258 350.282 332.615 339.994L350.213 267.265L422.304 271.294Z" fill="black"/>
<path d="M409.582 443.686L400.252 401.489C397.051 386.872 395.696 371.912 396.223 356.96V355.263C397.311 334.976 402.128 315.067 410.43 296.525L418.913 276.805L354.029 273.201V273.839C353.182 276.383 333.887 336.39 332.825 356.748C331.765 377.102 344.277 436.687 344.699 439.232V440.079L409.582 443.686ZM415.943 278.715L408.523 295.678C400.213 314.44 395.399 334.56 394.316 355.051V356.96C393.755 372.065 395.181 387.178 398.558 401.911L407.038 441.351L346.609 438.172C345.124 430.749 333.887 375.83 334.947 356.748C336.006 337.662 353.395 282.531 355.726 275.321L415.943 278.715Z" fill="black"/>
<path d="M372.477 377.102H372.69C373.854 377.199 375.027 377.04 376.126 376.638C377.226 376.235 378.223 375.598 379.05 374.771C381.382 372.226 380.745 367.985 380.323 363.109C379.883 360.587 379.668 358.034 379.685 355.476C379.685 352.719 379.898 350.174 380.11 347.84C380.323 345.508 380.957 339.994 379.05 337.662C378.124 336.863 377.044 336.26 375.877 335.897C374.71 335.532 373.48 335.41 372.265 335.543C360.603 335.756 351.485 344.661 351.697 355.685C351.91 366.713 361.237 377.102 372.477 377.102ZM372.477 337.662C374.231 337.526 375.973 338.056 377.353 339.147C378.838 340.632 378.413 343.811 377.991 347.63C377.566 351.447 377.566 352.719 377.566 355.476C377.549 358.102 377.761 360.729 378.2 363.321C378.625 367.772 379.05 371.589 377.566 373.286C376.917 373.895 376.146 374.36 375.308 374.652C374.466 374.943 373.576 375.057 372.69 374.983C370.182 374.955 367.706 374.433 365.402 373.45C363.096 372.464 361.008 371.036 359.257 369.243C357.503 367.452 356.123 365.333 355.188 363.007C354.256 360.68 353.788 358.193 353.817 355.685C353.845 353.291 354.344 350.925 355.287 348.724C356.228 346.522 357.594 344.528 359.308 342.853C361.022 341.179 363.048 339.861 365.269 338.969C367.493 338.079 369.87 337.634 372.265 337.662H372.477ZM370.78 421.209C372.653 421.22 374.489 420.707 376.081 419.724C377.336 419.039 378.436 418.101 379.311 416.967C380.187 415.837 380.821 414.536 381.17 413.151C381.589 411.777 381.708 410.326 381.527 408.901C381.343 407.476 380.861 406.107 380.11 404.88C379.424 403.625 378.487 402.526 377.356 401.65C376.223 400.775 374.925 400.143 373.537 399.792C372.163 399.375 370.715 399.253 369.29 399.438C367.864 399.619 366.493 400.101 365.269 400.851C364.022 401.557 362.929 402.5 362.053 403.631C361.175 404.759 360.529 406.051 360.155 407.433C359.781 408.813 359.682 410.255 359.869 411.672C360.056 413.091 360.52 414.457 361.24 415.695C362.206 417.37 363.597 418.761 365.272 419.73C366.946 420.696 368.848 421.206 370.78 421.209ZM370.57 401.489C372.123 401.48 373.65 401.888 374.993 402.673C376.336 403.455 377.444 404.583 378.203 405.94C378.815 406.909 379.209 407.997 379.354 409.133C379.501 410.269 379.396 411.423 379.05 412.513C378.838 413.65 378.362 414.721 377.665 415.641C376.965 416.562 376.058 417.307 375.021 417.815C374.041 418.415 372.947 418.809 371.811 418.973C370.672 419.138 369.513 419.07 368.403 418.772C367.292 418.475 366.252 417.953 365.348 417.242C364.447 416.531 363.697 415.644 363.147 414.636C362.549 413.655 362.152 412.562 361.988 411.423C361.824 410.286 361.895 409.125 362.192 408.014C362.487 406.903 363.008 405.866 363.719 404.963C364.43 404.059 365.317 403.311 366.329 402.761C367.584 401.925 369.06 401.483 370.57 401.489ZM375.021 318.155C377.852 318.183 380.586 317.118 382.654 315.186C384.706 313.16 385.918 310.434 386.046 307.553C386.074 306.116 385.816 304.685 385.284 303.348C384.754 302.013 383.963 300.795 382.955 299.769C381.949 298.741 380.748 297.925 379.422 297.37C378.096 296.811 376.67 296.525 375.234 296.525H375.021C373.61 296.497 372.208 296.752 370.899 297.27C369.587 297.792 368.394 298.568 367.386 299.557C366.38 300.543 365.581 301.722 365.034 303.022C364.487 304.323 364.207 305.719 364.207 307.128C364.181 308.584 364.45 310.026 364.997 311.375C365.544 312.723 366.357 313.947 367.388 314.973C368.366 316.01 369.553 316.826 370.868 317.376C372.182 317.923 373.596 318.189 375.021 318.155ZM375.021 298.647H375.234C376.979 298.645 378.685 299.169 380.13 300.149C381.575 301.132 382.691 302.526 383.332 304.15C383.972 305.776 384.108 307.555 383.723 309.261C383.337 310.964 382.448 312.511 381.17 313.701C380.359 314.491 379.396 315.103 378.336 315.506C377.28 315.908 376.152 316.087 375.021 316.036C373.874 316.072 372.732 315.866 371.672 315.426C370.61 314.987 369.655 314.327 368.873 313.491C368.054 312.689 367.408 311.732 366.972 310.675C366.536 309.618 366.315 308.485 366.329 307.34C366.329 306.198 366.553 305.068 366.989 304.014C367.425 302.96 368.066 301.999 368.873 301.192C369.681 300.387 370.638 299.747 371.695 299.308C372.749 298.871 373.88 298.647 375.021 298.647ZM372.097 274.595L373.534 276.156L348.187 299.466L346.75 297.905L372.097 274.595ZM342.509 411.281L366.091 436.838L364.532 438.277L340.951 412.72L342.509 411.281ZM400.598 278.038L411.77 292.182L410.107 293.496L398.935 279.352L400.598 278.038ZM404.182 431.59L405.301 433.389L387.032 444.762L385.91 442.963L404.182 431.59Z" fill="black"/>
<path d="M474.253 599.536C521.961 612.26 558.431 554.373 524.929 517.899C523.657 516.627 522.385 515.142 520.9 513.87C510.723 504.752 497.152 498.817 489.732 487.364C482.311 475.915 482.521 462.556 481.249 449.196C480.342 438.563 476.069 428.493 469.054 420.449C462.039 412.406 452.646 406.804 442.237 404.455C416.156 398.519 390.5 402.761 372.69 357.807C353.392 309.459 319.256 282.106 286.177 324.941C281.249 331.352 274.829 336.461 267.474 339.824C260.121 343.187 252.055 344.7 243.983 344.236C222.99 342.963 200.939 337.875 188.217 352.719C169.56 374.133 195.215 408.909 185.038 435.415C176.768 456.62 143.479 465.312 143.479 488.002C143.479 544.192 226.385 582.573 257.554 588.724C284.695 593.813 312.045 583.632 339.61 580.241C384.139 574.94 428.24 587.239 474.253 599.536Z" fill="white"/>
<path d="M487.613 602.293C496.495 602.284 505.219 599.95 512.918 595.521C520.618 591.095 527.025 584.732 531.503 577.059C537.287 567.859 539.863 557.005 538.827 546.187C537.791 535.369 533.203 525.198 525.778 517.264C524.47 515.814 523.052 514.468 521.538 513.235C517.678 509.756 513.567 506.568 509.239 503.693C502.031 498.604 495.246 493.938 490.582 486.73C485.915 479.519 483.584 465.312 482.736 453.863C482.524 452.378 482.524 450.681 482.311 449.196C481.436 438.305 477.095 427.978 469.918 419.735C462.744 411.49 453.117 405.764 442.449 403.396C438.208 402.336 433.754 401.698 429.515 401.064C408.31 397.672 388.168 394.278 373.537 357.382C360.815 325.363 343.005 305.433 324.557 302.886C310.985 300.979 297.842 308.187 285.33 324.303C280.487 330.57 274.195 335.563 266.989 338.852C259.787 342.139 251.891 343.624 243.983 343.176L233.805 342.326C216.42 340.632 198.397 339.147 187.37 352.081C176.345 365.015 180.162 380.706 183.341 396.61C186.523 412.513 188.642 423.328 183.978 434.99C179.312 446.652 171.891 451.106 163.621 457.679C155.353 464.253 142.419 474.855 142.419 488.002C142.419 543.77 224.475 583.423 257.342 589.784C276.212 593.388 295.719 589.571 314.38 585.755C322.647 584.057 331.343 582.36 339.611 581.301C382.867 576.212 425.274 587.449 470.437 599.536L473.828 600.595C478.348 601.669 482.969 602.239 487.613 602.293ZM320.316 304.796H324.132C341.945 307.34 359.118 326.635 371.63 358.02C386.684 395.975 407.251 399.367 429.09 402.971C433.332 403.608 437.783 404.246 442.024 405.305C452.241 407.583 461.458 413.074 468.329 420.971C475.197 428.87 479.353 438.764 480.192 449.196C480.402 450.681 480.402 452.166 480.614 453.863C481.464 465.737 482.524 477.824 488.885 487.789C495.246 497.757 500.969 500.301 508.179 505.177C512.208 508.147 516.449 511.113 520.266 514.507C524.082 517.899 523.022 517.052 524.294 518.537C531.412 526.133 535.796 535.885 536.756 546.252C537.716 556.619 535.197 567.012 529.595 575.787C524.204 585.123 515.86 592.396 505.879 596.467C495.897 600.536 484.847 601.168 474.466 598.264L470.862 597.204C425.699 585.117 383.08 573.667 339.398 578.969C330.918 580.028 322.225 581.726 313.955 583.423C295.507 587.239 276.212 591.056 257.554 587.449C225.538 581.088 144.538 542.498 144.538 487.789C144.538 475.702 154.506 467.644 164.896 459.164C175.283 450.681 182.281 445.167 186.098 435.628C189.914 426.085 188.007 409.334 185.463 395.975C182.919 382.616 179.099 364.593 188.855 353.141C198.607 341.691 215.995 342.538 233.593 344.236L243.77 345.083C252.041 345.567 260.306 344.023 267.842 340.586C275.382 337.149 281.966 331.925 287.027 325.363C297.842 311.794 308.866 304.796 320.316 304.796Z" fill="black"/>
<path d="M439.061 541.586C419.278 521.455 412.994 495.553 425.021 483.735C437.049 471.914 462.835 478.652 482.617 498.78C502.397 518.911 508.683 544.813 496.654 556.631C484.626 568.452 458.843 561.714 439.061 541.586Z" fill="white"/>
<path d="M480.827 562.218C487.001 562.445 493.016 560.238 497.577 556.067C510.087 543.77 503.726 517.052 483.584 496.695C474.772 487.345 463.657 480.471 451.354 476.765C440.115 473.796 430.575 475.493 424.426 481.641C411.914 493.728 418.275 520.443 438.42 541.013C447.3 550.233 458.395 557.025 470.649 560.733C473.973 561.612 477.39 562.11 480.827 562.218ZM441.177 477.612C444.467 477.657 447.739 478.082 450.929 478.884C461.532 481.641 472.556 488.427 482.099 498.179C501.394 517.899 507.755 543.133 496.093 554.585C490.579 559.883 481.674 561.368 471.072 558.611C460.472 555.857 449.445 549.071 439.905 539.529C420.61 519.809 414.246 494.363 425.908 483.126C427.948 481.219 430.351 479.746 432.975 478.799C435.601 477.85 438.389 477.448 441.177 477.612Z" fill="black"/>
<path d="M474.041 560.521L478.705 556.067C480.422 554.687 482.051 553.2 483.583 551.616L482.099 550.131L477.432 554.582L472.556 559.036L474.041 560.521ZM451.776 549.706L457.29 544.83L462.591 539.741L461.319 538.257L455.805 543.133L450.295 548.222L451.776 549.706ZM433.966 534.44C437.655 531.154 441.551 528.108 445.628 525.323L444.568 523.625C440.395 526.374 436.428 529.42 432.694 532.743L433.966 534.44Z" fill="black"/>
<path d="M450.419 530.431C430.64 510.3 421.78 486.928 430.634 478.227C439.488 469.528 462.699 478.793 482.481 498.924C502.264 519.052 511.121 542.424 502.266 551.126C493.415 559.827 470.202 550.562 450.419 530.431Z" fill="white"/>
<path d="M493.123 553.948C496.852 554.086 500.493 552.797 503.301 550.344C507.967 545.89 508.391 537.619 504.363 527.442C499.606 515.882 492.534 505.418 483.583 496.694C463.016 475.702 439.692 466.585 430.15 475.915C425.486 480.369 425.273 488.639 429.09 498.817C432.906 508.994 440.327 519.809 449.87 529.774C458.528 538.769 468.819 546.037 480.189 551.191C484.297 552.891 488.681 553.826 493.123 553.948ZM440.327 474.43C451.142 474.43 467.467 483.338 482.099 498.179C491.429 507.722 498.849 518.324 502.453 528.079C506.057 537.832 505.845 545.042 501.819 548.859C497.79 552.675 490.366 552.888 481.039 549.071C469.884 544.141 459.803 537.084 451.354 528.289C442.73 519.627 435.822 509.41 430.997 498.179C427.393 488.639 427.605 481.428 431.634 477.399C432.807 476.343 434.181 475.532 435.675 475.022C437.171 474.512 438.752 474.311 440.327 474.43Z" fill="black"/>
<path d="M453.292 527.606C435.893 509.901 427.676 489.756 434.944 482.613C442.208 475.473 462.206 484.038 479.608 501.746C497.008 519.455 505.224 539.6 497.957 546.74C490.689 553.883 470.695 545.315 453.292 527.606Z" fill="white"/>
<path d="M491.004 548.859C492.443 548.91 493.88 548.675 495.226 548.165C496.574 547.655 497.804 546.881 498.849 545.89C506.694 538.257 498.637 517.899 480.614 499.451C462.591 481.004 442.446 472.736 434.601 480.369C426.758 488.002 434.813 508.359 452.836 526.807C466.408 540.589 481.039 548.859 491.004 548.859ZM442.446 479.731C451.564 479.731 466.408 487.789 479.129 500.936C495.88 517.899 504.151 537.832 497.365 544.405C490.579 550.978 470.859 542.286 454.321 525.323C437.57 508.359 429.303 488.427 436.086 481.854C436.947 481.086 437.955 480.502 439.049 480.137C440.143 479.771 441.299 479.635 442.446 479.731ZM424.214 516.205L429.515 512.176L434.813 508.147L433.541 506.45L428.243 510.479L422.942 514.508L424.214 516.205ZM426.243 490.113L427.277 491.963L419.281 496.434L418.247 494.581L426.243 490.113ZM488.46 561.156C490.729 559.028 492.789 556.685 494.608 554.16L492.914 552.888C491.16 555.274 489.171 557.475 486.975 559.461L488.46 561.156Z" fill="black"/>
<path d="M475.525 524.897C477.067 524.957 478.568 524.413 479.716 523.384C480.863 522.356 481.566 520.922 481.674 519.384L479.554 518.962C479.529 519.508 479.39 520.047 479.149 520.54C478.908 521.033 478.568 521.472 478.152 521.829C477.735 522.189 477.248 522.455 476.724 522.619C476.2 522.781 475.647 522.835 475.1 522.778C467.892 522.141 456.655 511.963 456.23 505.39C456.23 502.846 457.928 501.148 461.744 500.514L461.319 498.392C454.746 499.664 454.111 503.48 454.111 505.602C454.533 513.023 466.833 524.263 474.891 524.685L475.525 524.897Z" fill="black"/>
<path d="M189.39 490.713C180.434 483.916 176.447 474.093 180.482 468.778C184.517 463.46 195.048 464.661 204.004 471.458C212.958 478.255 216.944 488.076 212.91 493.391C208.875 498.709 198.343 497.511 189.39 490.713Z" fill="white"/>
<path d="M204.755 497.119C206.359 497.264 207.971 497.012 209.45 496.383C210.929 495.754 212.23 494.768 213.238 493.515C215.358 490.759 215.57 486.942 213.873 482.488C211.785 477.824 208.49 473.798 204.333 470.826C195.215 463.828 184.188 462.768 179.949 468.282C175.708 473.795 177.827 474.855 179.524 479.309C181.55 484.012 184.857 488.053 189.067 490.971C193.504 494.646 199.004 496.802 204.755 497.119ZM188.43 465.737C194.014 466.069 199.355 468.146 203.696 471.673C207.662 474.563 210.804 478.436 212.813 482.913C214.51 486.942 214.298 490.546 212.391 492.878C210.481 495.21 198.394 496.907 189.702 490.121C185.625 487.299 182.397 483.412 180.372 478.884C179.638 477.312 179.292 475.583 179.366 473.849C179.439 472.115 179.932 470.424 180.797 468.916C181.749 467.848 182.93 467.007 184.25 466.457C185.574 465.907 187.002 465.661 188.43 465.737Z" fill="black"/>
<path d="M204.333 496.695L205.818 494.788L207.515 492.665L206.665 492.031L205.18 493.941L203.486 496.06L204.333 496.695ZM194.79 493.728L196.7 491.393L198.607 489.274L197.76 488.427C197.187 489.254 196.55 490.033 195.853 490.759L193.943 493.091L194.79 493.728ZM186.945 488.636L190.974 484.398L190.339 483.76C188.855 485.032 187.582 486.517 186.098 488.002L186.945 488.636Z" fill="black"/>
<path d="M193.235 485.361C184.279 478.564 179.431 469.877 182.406 465.961C185.378 462.043 195.048 464.377 204.002 471.175C212.958 477.972 217.806 486.659 214.833 490.574C211.858 494.493 202.188 492.158 193.235 485.361Z" fill="white"/>
<path d="M209.847 493.091C210.836 493.193 211.833 493.054 212.757 492.683C213.68 492.314 214.499 491.725 215.148 490.971C216.842 488.849 216.42 485.67 214.298 481.854C211.765 477.536 208.373 473.784 204.333 470.826C200.423 467.746 195.961 465.443 191.186 464.04C186.732 462.981 183.553 463.615 181.856 465.738C180.162 467.857 180.584 471.039 182.919 475.068C185.404 479.36 188.806 483.055 192.884 485.883C199.032 490.546 205.393 493.091 209.847 493.091ZM187.157 464.678L190.761 465.1C195.445 466.469 199.831 468.698 203.696 471.673C207.597 474.549 210.909 478.15 213.451 482.276C215.358 485.883 215.783 488.637 214.298 490.334C212.813 492.031 202.001 491.606 193.518 485.033C189.563 482.219 186.239 478.607 183.766 474.43C181.856 471.039 181.434 468.069 182.706 466.372C183.298 465.808 183.995 465.366 184.76 465.077C185.525 464.786 186.341 464.65 187.157 464.678Z" fill="black"/>
<path d="M194.224 484.293C186.387 478.343 182.046 470.877 184.522 467.61C187.002 464.346 195.36 466.522 203.197 472.47C211.031 478.417 215.375 485.885 212.895 489.149C210.419 492.413 202.058 490.24 194.224 484.293Z" fill="white"/>
<path d="M208.997 491.184C209.784 491.235 210.575 491.107 211.309 490.815C212.043 490.521 212.703 490.067 213.238 489.487C215.995 486.095 211.541 478.247 203.273 472.098C195.003 465.95 186.523 463.618 183.976 467.222C181.431 470.826 185.673 478.459 193.731 484.61C197.241 487.305 201.185 489.385 205.393 490.759L208.997 491.184ZM188.217 466.585C191.821 466.585 197.547 468.919 202.636 472.948C207.725 476.975 214.723 485.883 212.388 488.849C210.056 491.818 208.997 490.546 205.605 489.699C201.503 488.484 197.68 486.466 194.365 483.76C186.945 478.037 182.494 470.826 184.826 467.857C185.242 467.381 185.769 467.015 186.361 466.794C186.953 466.571 187.591 466.5 188.217 466.585ZM182.069 482.063L183.978 480.156L185.885 478.247L185.038 477.612C184.35 478.193 183.712 478.83 183.128 479.519L181.434 481.216L182.069 482.063ZM181.542 471.617L182.188 472.458L178.915 475.017L178.269 474.175L181.542 471.617ZM210.056 496.06C210.816 495.153 211.456 494.156 211.966 493.091L211.119 492.456L209.209 495.422L210.056 496.06Z" fill="black"/>
<path d="M340.662 472.404C331.331 465.324 327.215 455.047 331.462 449.451C335.712 443.853 346.716 445.057 356.044 452.137C365.371 459.218 369.491 469.494 365.241 475.09C360.994 480.689 349.989 479.485 340.662 472.404Z" fill="white"/>
<path d="M356.786 479.097C358.466 479.213 360.152 478.927 361.699 478.264C363.249 477.601 364.617 476.578 365.691 475.28C370.142 469.554 365.904 458.952 356.361 451.741C352.185 448.415 347.218 446.222 341.942 445.38C337.066 444.958 333.25 446.23 330.918 448.987C329.847 450.69 329.243 452.645 329.17 454.654C329.096 456.665 329.552 458.657 330.493 460.436C332.581 465.335 335.95 469.585 340.248 472.736C344.948 476.55 350.74 478.779 356.786 479.097ZM339.823 446.443H341.73C346.833 447.298 351.644 449.412 355.726 452.591C364.844 459.377 368.87 469.342 364.841 474.643C360.815 479.944 350 478.884 340.883 471.886C336.709 468.84 333.417 464.743 331.343 460.011C330.493 458.396 330.085 456.583 330.161 454.761C330.235 452.937 330.787 451.163 331.765 449.622C332.774 448.508 334.023 447.638 335.423 447.089C336.82 446.536 338.327 446.315 339.823 446.443Z" fill="black"/>
<path d="M356.149 478.672C356.829 478.063 357.401 477.346 357.846 476.552L359.543 474.43L358.905 473.796C358.228 474.405 357.656 475.119 357.211 475.915L355.514 478.037L356.149 478.672ZM346.396 475.49L348.306 473.158L350.425 470.826L349.575 470.189L347.456 472.523L345.549 474.855L346.396 475.49ZM338.126 470.192C339.61 468.707 340.883 467.222 342.367 465.95L341.733 465.1L337.491 469.554L338.126 470.192Z" fill="black"/>
<path d="M344.492 466.684C335.123 459.657 330.034 450.619 333.128 446.496C336.219 442.374 346.32 444.728 355.687 451.755C365.057 458.782 370.143 467.82 367.051 471.943C363.96 476.065 353.859 473.71 344.492 466.684Z" fill="white"/>
<path d="M362.087 474.855C363.107 474.974 364.144 474.844 365.105 474.473C366.065 474.104 366.921 473.507 367.601 472.736C370.992 468.282 366.116 458.952 356.361 451.741C346.609 444.533 336.431 441.989 333.037 446.443C329.646 450.894 334.522 460.011 344.277 467.435C350.638 472.311 357.421 474.855 362.087 474.855ZM338.551 445.168C343.002 445.168 349.575 447.924 355.726 452.591C361.875 457.255 369.72 468.282 366.751 472.098C363.782 475.915 353.817 473.371 344.912 466.585C336.006 459.799 330.918 450.894 333.887 447.077C334.445 446.397 335.162 445.867 335.978 445.533C336.791 445.199 337.675 445.074 338.551 445.168Z" fill="black"/>
<path d="M345.725 465.31C337.517 459.079 332.927 451.305 335.477 447.947C338.027 444.59 346.745 446.919 354.953 453.149C363.164 459.38 367.751 467.151 365.201 470.512C362.654 473.869 353.933 471.54 345.725 465.31Z" fill="white"/>
<path d="M361.24 472.945C362.079 472.988 362.915 472.838 363.685 472.509C364.459 472.178 365.144 471.673 365.691 471.039C366.963 469.341 366.538 466.372 364.632 462.981C362.164 459.11 359.002 455.73 355.301 453.016C351.675 450.202 347.586 448.052 343.217 446.652C339.401 445.592 336.431 446.017 334.947 447.924C333.462 449.834 334.1 452.591 336.006 456.195C338.531 460.02 341.684 463.391 345.337 466.162C351.06 470.401 356.999 472.945 361.24 472.945ZM339.398 447.29L343.005 447.715C347.212 449.086 351.156 451.166 354.667 453.863C358.174 456.492 361.189 459.722 363.572 463.406C365.479 466.585 365.904 469.129 364.844 470.401C363.784 471.673 353.817 471.251 345.971 465.312C342.449 462.615 339.435 459.311 337.066 455.56C335.159 452.591 334.734 450.046 335.794 448.562C336.786 447.686 338.078 447.23 339.398 447.29ZM333.037 463.406L334.947 461.496L337.066 459.377L336.219 458.739L334.309 460.649L332.402 462.556L333.037 463.406ZM332.521 452.251L333.167 453.092L330.139 455.416L329.493 454.574L332.521 452.251ZM362.3 478.037L364.501 474.379L363.442 474.025L361.45 477.399L362.3 478.037Z" fill="black"/>
<path fill-rule="evenodd" clip-rule="evenodd" d="M344.745 456.498C344.141 458.031 344.903 459.974 347.496 462.136C349.66 463.941 352.097 464.295 353.752 463.723C354.576 463.44 355.265 462.898 355.54 462.131C355.823 461.337 355.613 460.462 354.959 459.646L354.075 460.354C354.554 460.955 354.588 461.425 354.471 461.748C354.35 462.094 353.995 462.439 353.383 462.652C352.162 463.071 350.136 462.859 348.221 461.264C345.714 459.175 345.484 457.719 345.801 456.914C346.141 456.045 347.278 455.467 348.425 455.467V454.333C347.023 454.333 345.325 455.03 344.745 456.498Z" fill="black"/>
<path d="M366.626 437.925C360.557 422.24 376.911 401.29 403.159 391.13C429.405 380.97 455.604 385.446 461.673 401.129C467.745 416.814 451.388 437.764 425.143 447.924C398.895 458.085 372.698 453.608 366.626 437.925Z" fill="white"/>
<path d="M397.073 454.288C406.579 454.237 415.994 452.438 424.848 448.987C451.567 438.807 468.53 417.18 462.379 400.851C459.2 392.793 451.354 387.28 439.905 385.373C428.455 383.463 415.309 384.948 402.374 389.827C375.446 400.004 358.483 421.631 364.844 437.96C367.811 446.018 375.869 451.531 387.318 453.438C390.534 454.044 393.801 454.331 397.073 454.288ZM429.937 386.645C433.139 386.603 436.338 386.886 439.48 387.492C450.082 389.402 457.503 394.278 460.259 401.701C466.195 416.755 449.87 437.112 424.001 447.077C411.492 451.744 398.558 453.438 387.531 451.319C376.506 449.199 369.508 444.533 366.751 437.112C361.028 422.056 377.353 401.701 403.009 391.946C411.577 388.515 420.709 386.719 429.937 386.645Z" fill="black"/>
<path d="M454.958 424.813L457.078 424.178C456.443 422.481 455.593 420.359 454.958 418.027C454.128 416.024 453.42 413.97 452.836 411.879L450.717 412.726C451.354 414.423 452.201 416.542 452.836 418.877C453.663 420.809 454.372 422.793 454.958 424.813ZM436.372 442.345L438.208 440.291C437.273 438.016 436.493 435.679 435.876 433.296C435.026 430.749 434.179 428.417 433.544 426.297L431.422 426.932C432.272 429.054 432.906 431.599 433.754 433.93C434.604 436.262 435.734 440.223 436.372 442.345ZM414.884 451.106L417.003 450.469C415.479 445.751 414.274 440.932 413.399 436.05L411.28 436.475C412.178 441.422 413.382 446.306 414.884 451.106Z" fill="black"/>
<path d="M363.173 429.87C358.764 418.268 376.577 400.735 402.961 390.714C429.342 380.689 454.304 381.973 458.713 393.578C463.118 405.184 445.305 422.713 418.924 432.738C392.54 442.759 367.578 441.476 363.173 429.87Z" fill="white"/>
<path d="M385.624 440.929C397.116 440.583 408.455 438.214 419.125 433.93C446.478 423.541 464.076 405.73 459.412 393.431C454.746 381.131 429.728 379.437 402.374 389.827C375.021 400.217 357.211 418.027 361.875 430.539C364.419 437.325 373.537 440.929 385.624 440.929ZM435.876 385.16C447.113 385.16 455.171 388.13 457.503 394.066C461.744 405.305 444.144 422.268 418.275 432.024C392.407 441.776 368.023 440.716 363.994 429.689C359.965 418.664 377.353 401.701 403.009 391.946C413.461 387.708 424.599 385.407 435.876 385.16Z" fill="black"/>
<path d="M368.918 427.689C365.303 418.163 381.184 403.297 404.392 394.479C427.6 385.662 449.345 386.237 452.964 395.76C456.582 405.286 440.701 420.155 417.493 428.969C394.285 437.787 372.537 437.212 368.918 427.689Z" fill="white"/>
<path d="M387.106 436.475C408.605 435.509 429.181 427.456 445.628 413.576C452.839 407 455.593 400.639 453.686 395.55C451.776 390.461 445.416 387.705 435.663 387.28C424.695 387.452 413.847 389.609 403.647 393.643C379.685 402.761 363.782 418.027 367.811 428.204C369.72 433.296 376.081 436.262 385.624 436.475H387.106ZM434.179 389.402H435.663C444.356 389.614 450.082 392.159 451.567 396.4C453.049 400.639 450.504 406.152 444.356 412.091C427.843 425.912 407.149 433.758 385.624 434.355C377.141 434.143 371.205 431.599 369.72 427.57C366.329 418.664 382.229 404.033 404.494 395.55C413.98 391.867 424.01 389.787 434.179 389.402ZM394.316 452.945L396.436 452.52C396.014 450.613 395.376 447.924 394.741 445.592C394.104 443.261 393.682 441.141 393.257 439.232L391.347 439.657C391.772 441.563 392.197 443.686 392.832 446.017C393.469 448.349 393.891 451.038 394.316 452.945ZM377.444 439.317L378.317 449.242L376.206 449.446L375.333 439.521L377.444 439.317ZM461.319 411.879L463.229 411.241C462.175 408.323 460.897 405.487 459.412 402.761L457.715 403.821C458.987 406.365 460.259 409.122 461.319 411.879Z" fill="black"/>
<path d="M402.375 420.996C410.008 420.996 421.457 415.27 424.636 409.122C425.05 408.414 425.319 407.632 425.424 406.818C425.531 406.005 425.475 405.181 425.257 404.39C425.038 403.6 424.667 402.86 424.16 402.217C423.653 401.574 423.021 401.036 422.304 400.639L421.245 402.336C423.364 404.033 424.001 405.728 422.729 408.062C419.547 414.423 405.554 420.571 399.405 418.452C396.861 417.392 396.226 415.27 397.073 411.454L394.951 411.029C393.469 417.392 396.648 419.724 398.768 420.359C399.915 420.812 401.142 421.03 402.375 420.996Z" fill="black"/>
<path d="M258.56 515.397C244.368 501.106 239.801 482.627 248.36 474.13C256.917 465.63 275.362 470.325 289.554 484.619C303.746 498.91 308.314 517.386 299.754 525.886C291.197 534.386 272.752 529.691 258.56 515.397Z" fill="white"/>
<path d="M287.874 532.956C290.118 533.089 292.368 532.763 294.481 531.995C296.598 531.23 298.533 530.043 300.173 528.502C304.625 524.05 305.897 517.265 303.777 508.994C301.329 500.197 296.572 492.215 289.993 485.883C283.638 479.134 275.583 474.226 266.672 471.673C258.614 469.767 251.616 470.826 247.165 475.28C242.711 479.731 241.438 486.517 243.558 494.788C246.031 503.684 250.868 511.745 257.554 518.112C267.094 527.654 278.544 532.956 287.874 532.956ZM259.461 472.946C261.751 472.94 264.031 473.226 266.247 473.796C274.736 476.272 282.42 480.955 288.511 487.367C294.799 493.518 299.397 501.185 301.868 509.632C303.565 517.052 302.505 523.2 298.689 527.017C290.631 535.075 272.82 530.411 259.036 516.627C252.718 510.499 248.114 502.823 245.68 494.363C243.77 486.942 244.83 480.581 248.649 476.765C251.619 474.136 255.497 472.764 259.461 472.946Z" fill="black"/>
<path d="M283.423 531.896L286.814 528.714L290.206 525.535L288.721 524.05L285.33 527.229L281.938 530.411L283.423 531.896ZM267.519 524.26L271.336 520.656C272.608 519.384 274.093 518.324 275.152 517.052L273.668 515.567L269.851 519.171L266.035 522.778L267.519 524.26ZM254.798 513.448C257.416 511.091 260.178 508.895 263.065 506.875L261.793 505.177L253.313 511.751L254.798 513.448Z" fill="black"/>
<path d="M266.836 507.353C252.641 493.062 246.255 476.391 252.571 470.121C258.886 463.848 275.512 470.35 289.704 484.644C303.896 498.936 310.283 515.607 303.967 521.877C297.652 528.15 281.029 521.648 266.836 507.353Z" fill="white"/>
<path d="M296.779 527.229C298.139 527.289 299.496 527.076 300.771 526.603C302.043 526.13 303.211 525.405 304.202 524.473C310.985 517.69 304.837 500.724 289.996 485.883C275.152 471.039 258.189 464.465 251.403 471.251C248.012 474.643 247.587 480.581 250.556 488.002C254.018 496.304 259.141 503.806 265.612 510.054L266.459 509.206L265.612 510.054C276.424 520.868 288.299 527.229 296.779 527.229ZM258.826 470.614C266.459 470.614 278.121 476.975 288.511 487.367C298.901 497.757 308.441 517.265 302.718 522.988C296.991 528.714 280.666 522.141 267.094 508.569C260.883 502.443 255.914 495.17 252.466 487.155C249.921 480.791 250.134 475.493 252.888 472.736C254.523 471.291 256.648 470.532 258.826 470.614Z" fill="black"/>
<path d="M268.941 505.262C256.48 492.716 250.559 478.397 255.71 473.28C260.861 468.163 275.138 474.186 287.599 486.735C300.057 499.284 305.982 513.604 300.831 518.718C295.68 523.835 281.402 517.811 268.941 505.262Z" fill="white"/>
<path d="M295.085 523.413C296.167 523.504 297.258 523.359 298.281 522.994C299.306 522.628 300.238 522.05 301.02 521.294C303.99 518.537 303.99 513.448 301.233 506.875C298.037 499.721 293.504 493.241 287.874 487.789C274.73 474.643 260.099 468.707 254.372 474.43C248.649 480.156 254.585 494.788 267.732 507.934C277.484 517.687 288.086 523.413 295.085 523.413ZM260.311 474.43C266.884 474.43 277.271 480.156 286.389 489.274C291.872 494.513 296.269 500.783 299.323 507.722C301.658 513.236 301.658 517.687 299.536 519.809C297.416 521.928 281.091 518.324 269.216 506.45C257.342 494.575 251.193 480.581 255.857 475.915C257.098 474.872 258.69 474.34 260.311 474.43ZM247.587 500.514L251.403 497.545L255.22 494.788L253.947 493.091L250.131 495.847L246.314 498.817L247.587 500.514Z" fill="black"/>
<path d="M257.18 475.538L258.22 477.383L252.52 480.593L251.48 478.748L257.18 475.538ZM293.81 532.108C295.337 530.581 296.753 528.952 298.051 527.229L296.357 525.957C295.127 527.609 293.781 529.167 292.328 530.624L293.81 532.108ZM284.057 506.45C284.644 506.478 285.227 506.39 285.777 506.192C286.33 505.996 286.837 505.69 287.27 505.297C287.704 504.903 288.055 504.427 288.305 503.897C288.554 503.367 288.696 502.795 288.721 502.208H286.602C286.389 503.905 285.542 504.54 283.845 504.54C278.969 504.33 270.911 497.12 270.489 492.668C270.489 492.031 270.489 490.121 274.093 489.486V487.367C269.216 488.214 268.579 491.184 268.579 492.668C269.004 498.179 277.909 506.237 283.845 506.662L284.057 506.45ZM200.942 482.551C201.262 482.568 201.582 482.519 201.885 482.412C202.188 482.304 202.466 482.14 202.704 481.924C202.942 481.712 203.134 481.454 203.27 481.165C203.406 480.876 203.486 480.564 203.5 480.247H202.335C202.219 481.168 201.755 481.514 200.825 481.514C198.151 481.4 193.731 477.482 193.495 475.062C193.495 474.719 193.498 473.682 195.473 473.337V472.183C192.798 472.645 192.45 474.257 192.45 475.062C192.682 478.06 197.567 482.437 200.825 482.667L200.942 482.551Z" fill="black"/>
<path d="M257.764 470.826L327.948 446.443L298.901 402.336C292.152 392.088 286.536 381.14 282.15 369.682C280.878 366.712 279.816 363.743 278.756 360.564C273.71 345.063 270.857 328.933 270.276 312.641L268.791 276.805L198.607 301.192L210.269 376.043C211.901 386.622 215.42 396.819 220.659 406.152L257.764 470.826Z" fill="white"/>
<path d="M257.129 472.311L329.646 447.077L299.961 401.911C293.152 391.666 287.466 380.718 282.998 369.257L279.816 360.139C274.645 344.817 271.786 328.808 271.336 312.641L269.851 275.321L197.335 300.554L209.209 376.255C210.912 386.911 214.502 397.179 219.812 406.578L257.129 472.311ZM326.251 445.805L258.189 469.554L221.718 405.518C216.361 396.392 212.83 386.308 211.329 375.83L199.667 302.039L267.944 278.29L269.216 312.641C269.789 329.072 272.645 345.344 277.697 360.986C278.756 363.956 279.816 367.138 281.088 370.104C285.511 381.656 291.197 392.677 298.051 402.974L326.251 445.805Z" fill="black"/>
<path d="M260.733 463.828L322.013 442.413L297.204 407.002C288.698 394.709 281.785 381.383 276.637 367.35L275.999 365.653C269.307 346.519 266.145 326.332 266.672 306.068L267.094 284.441L205.818 305.855V306.705C206.027 309.25 210.906 372.014 217.689 391.309C224.475 410.606 258.826 460.861 260.308 462.981L260.733 463.828ZM318.618 441.351L261.58 461.283C257.342 455.135 225.96 408.697 219.811 390.461C213.66 372.226 208.572 314.973 207.937 307.34L264.975 287.407L264.55 305.855C264.006 326.397 267.168 346.868 273.88 366.287L274.515 367.985C279.768 382.188 286.823 395.658 295.507 408.062L318.618 441.351Z" fill="black"/>
<path d="M254.585 396.4C257.206 396.46 259.81 395.953 262.218 394.916C263.385 394.564 264.462 393.966 265.377 393.159C266.292 392.354 267.023 391.363 267.519 390.249C268.579 387.07 266.46 383.463 264.128 379.012C262.756 376.845 261.549 374.575 260.521 372.226C259.583 369.877 258.804 367.469 258.189 365.015C256.917 360.777 255.857 357.382 253.1 356.11C251.956 355.711 250.74 355.561 249.533 355.671C248.326 355.779 247.156 356.147 246.102 356.748C241.144 358.827 237.137 362.684 234.865 367.56C233.817 370.045 233.276 372.711 233.276 375.408C233.276 378.103 233.817 380.769 234.865 383.254C236.517 387.124 239.262 390.433 242.764 392.768C246.266 395.103 250.375 396.363 254.585 396.4ZM250.769 357.807H252.253C254.16 358.655 255.01 361.624 256.07 365.44C256.758 367.965 257.608 370.444 258.614 372.861C259.643 375.278 260.847 377.618 262.218 379.859C264.337 383.676 266.247 387.07 265.4 389.402C264.55 391.734 263.703 391.734 261.371 392.793C259.104 393.7 256.685 394.148 254.245 394.111C251.806 394.074 249.4 393.556 247.165 392.581C242.538 390.515 238.84 386.818 236.775 382.191C235.877 379.964 235.432 377.584 235.457 375.181C235.486 372.782 235.984 370.41 236.931 368.203C237.877 365.999 239.248 363.998 240.968 362.324C242.688 360.649 244.722 359.332 246.952 358.442C248.168 357.972 249.465 357.756 250.769 357.807ZM273.243 437.322C274.914 437.294 276.558 436.9 278.059 436.166C279.561 435.432 280.884 434.381 281.938 433.083C283.649 430.766 284.383 427.87 283.987 425.017C283.593 422.164 282.094 419.58 279.816 417.815C278.694 416.931 277.405 416.276 276.025 415.894C274.645 415.508 273.206 415.403 271.786 415.582C270.364 415.758 268.995 416.217 267.752 416.928C266.511 417.639 265.423 418.588 264.55 419.724C262.816 422.028 262.057 424.921 262.431 427.782C262.612 429.207 263.079 430.582 263.81 431.823C264.539 433.061 265.513 434.14 266.672 434.99C268.545 436.472 270.854 437.294 273.243 437.322ZM273.243 417.602C275.178 417.616 277.048 418.291 278.544 419.512C279.467 420.189 280.244 421.045 280.825 422.028C281.408 423.011 281.788 424.105 281.938 425.238C282.165 427.493 281.561 429.754 280.241 431.599C279.552 432.525 278.685 433.307 277.691 433.897C276.696 434.486 275.594 434.871 274.45 435.03C273.302 435.186 272.138 435.115 271.021 434.817C269.905 434.52 268.857 434.001 267.944 433.296C267.015 432.605 266.233 431.738 265.644 430.743C265.054 429.749 264.669 428.646 264.513 427.502C264.354 426.357 264.425 425.193 264.723 424.073C265.023 422.957 265.539 421.912 266.247 420.996C267.08 419.94 268.143 419.084 269.355 418.495C270.568 417.908 271.897 417.602 273.243 417.602ZM238.047 340.419C239.438 340.448 240.815 340.159 242.076 339.572C243.399 339.042 244.603 338.257 245.623 337.263C246.643 336.268 247.456 335.081 248.017 333.772C248.578 332.463 248.876 331.055 248.893 329.63C248.91 328.208 248.646 326.794 248.119 325.471C247.59 324.147 246.805 322.943 245.81 321.923C244.816 320.903 243.629 320.09 242.32 319.529C241.011 318.968 239.602 318.668 238.18 318.651C236.755 318.634 235.341 318.897 234.018 319.427C232.698 319.937 231.491 320.705 230.471 321.688C229.451 322.671 228.637 323.85 228.082 325.153C227.476 326.479 227.144 327.913 227.107 329.372C227.073 330.828 227.331 332.279 227.87 333.633C229.043 336.283 231.159 338.399 233.805 339.572C235.137 340.176 236.588 340.465 238.047 340.419ZM238.047 320.699C240.022 320.827 241.897 321.609 243.379 322.921C244.861 324.232 245.861 326 246.227 327.944C246.592 329.891 246.298 331.902 245.394 333.662C244.487 335.421 243.022 336.829 241.229 337.662C239.061 338.507 236.65 338.456 234.522 337.521C232.397 336.586 230.726 334.846 229.884 332.679C229.04 330.514 229.091 328.103 230.026 325.975C230.961 323.847 232.7 322.178 234.865 321.334C235.877 320.92 236.956 320.705 238.047 320.699ZM222.699 300.237L224.623 301.132L210.068 332.344L208.147 331.446L222.699 300.237ZM246.759 439.6L280.142 455.183L277.357 456.271L246.759 442.15V439.6ZM248.408 291.417L266.162 301.461L265.125 303.311L247.371 293.267L248.408 291.417ZM309.506 427.983L311.45 428.831L302.84 448.556L300.896 447.709L309.506 427.983Z" fill="black"/>
<path d="M390.075 525.745L392.197 542.92L329.858 561.581L338.338 498.179L355.726 497.12L369.295 504.118L381.382 514.295L390.075 525.745Z" fill="white"/>
<path d="M328.586 563.065L393.257 543.558L390.922 525.322L382.017 513.658L369.72 503.268L355.939 496.06L337.491 497.119L328.586 563.065ZM390.922 542.073L331.13 560.096L339.398 499.029L355.514 498.392L368.661 505.177L380.535 515.142L389.015 526.17L390.922 542.073Z" fill="black"/>
<path d="M379.26 519.809L375.021 533.803L350 511.326L363.572 505.39L379.26 519.809Z" fill="white"/>
<path d="M375.447 535.712L380.535 519.384L363.785 504.118L348.094 511.113L375.447 535.712ZM377.991 520.021L374.387 531.896L351.91 511.751L363.36 506.662L377.991 520.021Z" fill="black"/>
<path d="M330.28 560.946L349.788 511.538L375.234 534.015L330.28 560.946Z" fill="white"/>
<path d="M328.161 563.49L376.928 534.228L349.366 509.841L328.161 563.49ZM373.324 533.803L332.402 558.402L350.213 513.448L373.324 533.803Z" fill="black"/>
<path d="M338.763 498.392L349.788 511.326L363.572 505.39L355.514 497.12L338.763 498.392Z" fill="white"/>
<path d="M349.366 512.598L365.479 505.812L355.939 496.06L336.644 497.544L349.366 512.598ZM361.662 504.965L350 510.054L340.883 499.239L355.089 498.392L361.662 504.965Z" fill="black"/>
<path d="M389.862 525.957L379.263 519.809L375.021 533.803L392.197 542.498L389.862 525.957Z" fill="white"/>
<path d="M393.469 544.405L390.713 525.323L378.626 518.112L373.749 534.228L393.469 544.405ZM388.803 526.595L390.713 540.589L376.294 533.168L379.898 521.294L388.803 526.595Z" fill="black"/>
<path d="M329.858 330.664L347.031 333.846L345.971 398.945L288.086 371.589L292.328 354.838L303.14 344.023L316.499 335.543L329.858 330.664Z" fill="white"/>
<path d="M347.034 400.639L348.094 332.999L329.858 329.604L316.077 334.693L302.505 343.176L291.481 354.203L286.814 372.014L347.034 400.639ZM345.762 334.693L344.912 397.247L289.359 370.954L293.388 355.263L303.777 344.661L316.924 336.603L330.071 331.726L345.762 334.693Z" fill="black"/>
<path d="M321.163 339.147L333.037 347.417L304.199 364.593L302.505 349.749L321.163 339.147Z" fill="white"/>
<path d="M303.352 366.287L335.159 347.63L321.163 337.875L301.445 349.112L303.352 366.287ZM331.13 347.417L305.049 362.896L303.777 350.384L320.953 340.419L331.13 347.417Z" fill="black"/>
<path d="M345.549 398.094L304.415 364.806L333.462 347.417L345.549 398.094Z" fill="white"/>
<path d="M347.244 401.064L334.1 345.72L302.505 364.593L347.244 401.064ZM332.828 349.112L343.852 395.338L306.109 364.806L332.828 349.112Z" fill="black"/>
<path d="M288.511 371.166L303.99 364.593L302.505 349.749L292.328 354.838L288.511 371.166Z" fill="white"/>
<path d="M287.027 373.073L305.262 365.44L303.565 348.052L291.481 354.203L287.027 373.073ZM302.93 363.956L289.996 369.469L293.387 355.685L301.658 351.447L302.93 363.956Z" fill="black"/>
<path d="M330.071 330.876L321.163 339.147L333.037 347.417L346.609 333.633L330.071 330.876Z" fill="white"/>
<path d="M333.25 348.902L348.728 332.999L329.858 329.817L319.256 339.36L333.25 348.902ZM344.487 334.481L333.037 346.145L322.86 339.147L330.493 332.149L344.487 334.481Z" fill="black"/>
<path d="M162.349 273.201L158.532 285.501H146.448L156.2 292.921L152.384 305.008L162.349 297.588L172.104 305.008L168.287 292.921L178.252 285.501H165.956L162.349 273.201Z" fill="white"/>
<path d="M150.477 307.977L162.349 298.86L174.223 307.977L169.56 293.346L181.434 284.441H166.803L162.349 269.597L157.685 284.441H143.266L154.928 293.346L150.477 307.977ZM175.073 286.56L167.228 292.496L170.194 302.251L162.349 296.313L154.506 302.251L157.473 292.496L149.417 286.56H159.382L162.349 276.805L165.318 286.56H175.073Z" fill="black"/>
<path d="M478.495 271.929L470.862 296.103H446.478L466.195 311.156L458.775 335.543L478.495 320.487L498.002 335.543L490.579 311.156L510.299 296.103H485.915L478.495 271.929Z" fill="white"/>
<path d="M456.655 338.509L478.495 321.971L500.122 338.509L491.851 311.581L513.479 295.04H486.762L478.495 268.325L470.012 295.04H443.509L464.923 311.581L456.655 338.509ZM478.495 319.214L460.682 332.786L467.467 310.944L449.657 297.163H471.709L478.495 275.533L485.068 297.163H507.118L489.307 310.944L496.093 332.786L478.495 319.214Z" fill="black"/>
<path d="M282.363 144.278L265.4 118.197L248.012 142.794L264.34 170.784L282.363 144.278Z" fill="white"/>
<path d="M264.337 172.905L283.635 144.279L265.4 116.289L246.739 142.794L264.337 172.905ZM281.091 144.279L264.337 168.876L249.284 143.006L265.4 120.105L281.091 144.279Z" fill="black"/>
<path d="M517.933 418.452L507.331 402.124L496.518 417.602L506.695 435.203L517.933 418.452Z" fill="white"/>
<path d="M506.695 437.112L519.205 418.452L507.331 400.429L495.246 417.602L506.695 437.112ZM516.661 418.452L506.695 433.083L497.79 417.602L507.331 404.033L516.661 418.452Z" fill="black"/>
<path d="M72.022 326L58.2407 304.583L43.8218 324.728L57.3935 347.84L72.022 326Z" fill="white"/>
<path d="M57.1811 349.749L73.2942 326L58.2407 302.676L42.5497 324.728L57.1811 349.749ZM70.7499 326L57.3907 345.72L45.094 324.941L58.0282 306.493L70.7499 326ZM60.5187 232.432L123.339 295.256L121.841 296.755L59.0199 233.931L60.5187 232.432ZM0.964844 443.742L88.291 460.088L87.9029 462.17L0.576721 445.828L0.964844 443.742ZM214.323 170.478L245.782 252.433L243.804 253.192L212.346 171.238L214.323 170.478Z" fill="black"/>
<path d="M357.846 238.003C356.361 240.122 365.479 257.085 373.112 251.149C381.17 235.033 373.749 212.131 359.118 192.625" fill="white"/>
<path d="M369.72 253.481C371.194 253.467 372.619 252.943 373.749 251.997V251.572C381.595 236.518 376.294 214.254 359.756 191.989L358.058 193.261C373.962 214.676 379.263 236.093 372.052 250.512C371.123 251.124 370.018 251.413 368.907 251.336C367.797 251.26 366.74 250.821 365.904 250.09C361.24 247.12 358.058 239.697 358.483 238.425L356.786 237.365C355.302 239.487 359.118 246.695 362.935 250.299C363.793 251.26 364.836 252.039 366.003 252.586C367.168 253.133 368.434 253.436 369.72 253.481Z" fill="black"/>
<path d="M336.219 180.75C325.314 180.044 314.363 180.542 303.565 182.234C295.932 183.295 293.175 189.02 296.782 195.381C303.565 207.468 298.264 219.977 303.565 232.489C308.866 244.998 320.106 238.85 321.378 231.852C320.741 244.364 336.432 252.209 342.155 238.637C341.823 240.408 341.869 242.227 342.288 243.975C342.71 245.726 343.498 247.367 344.6 248.789C345.702 250.212 347.093 251.385 348.683 252.232C350.272 253.076 352.023 253.575 353.817 253.694C372.69 249.665 369.508 212.769 359.118 191.776C356.786 187.111 351.063 183.295 344.912 182.022C342.05 181.392 339.143 180.966 336.219 180.75Z" fill="white"/>
<path d="M353.817 254.753H354.029C356.497 254.178 358.798 253.033 360.75 251.416C362.699 249.795 364.246 247.744 365.266 245.423C371.84 231.642 367.601 206.621 359.965 191.14C358.367 188.478 356.217 186.19 353.655 184.434C351.094 182.678 348.184 181.494 345.124 180.962L336.432 179.69C325.384 178.937 314.289 179.435 303.352 181.174C301.644 181.307 299.995 181.861 298.553 182.786C297.11 183.711 295.918 184.978 295.085 186.475C294.393 188.005 294.107 189.686 294.255 191.358C294.405 193.029 294.983 194.634 295.932 196.017C299.323 202.167 299.536 208.528 299.748 215.101C299.641 221.153 300.573 227.177 302.505 232.914C305.262 238.003 309.713 240.547 314.167 239.7C316.754 239.283 319.097 237.923 320.741 235.881C321.248 238.402 322.449 240.731 324.209 242.604C325.971 244.48 328.22 245.823 330.705 246.483C332.59 246.99 334.581 246.896 336.409 246.211C338.234 245.525 339.798 244.287 340.883 242.666C341.339 245.024 342.277 247.262 343.64 249.24C344.804 250.875 346.326 252.223 348.091 253.178C349.853 254.133 351.814 254.671 353.817 254.753ZM336.219 181.598L344.699 182.871C347.45 183.422 350.054 184.535 352.352 186.141C354.653 187.746 356.594 189.809 358.058 192.2C365.479 207.043 369.72 231.429 363.36 244.576C362.515 246.576 361.212 248.347 359.554 249.747C357.894 251.147 355.931 252.135 353.817 252.634C352.154 252.509 350.533 252.028 349.071 251.223C347.606 250.418 346.334 249.308 345.337 247.968C344.348 246.69 343.648 245.214 343.283 243.641C342.917 242.066 342.894 240.434 343.215 238.85L341.095 238.215C338.976 243.091 335.369 245.423 331.13 244.576C328.447 243.763 326.124 242.057 324.543 239.745C322.962 237.43 322.22 234.648 322.438 231.852H320.316C319.987 233.373 319.202 234.756 318.063 235.815C316.927 236.878 315.493 237.566 313.955 237.79C310.138 238.425 306.747 236.518 304.412 232.277C302.652 226.797 301.794 221.068 301.868 215.313C301.658 208.528 301.445 201.742 297.629 195.169C296.94 194.035 296.507 192.765 296.362 191.446C296.215 190.128 296.357 188.793 296.779 187.536C297.499 186.364 298.493 185.386 299.675 184.684C300.859 183.982 302.193 183.578 303.565 183.507C314.354 181.741 325.297 181.101 336.219 181.598Z" fill="black"/>
<path d="M342.367 241.607C349.575 225.278 348.516 198.774 331.977 179.69L330.28 181.174C346.184 199.622 347.456 225.069 340.248 240.76L342.367 241.607ZM322.013 233.124C326.464 212.344 321.588 194.745 307.594 181.174L306.109 182.659C319.468 195.805 324.132 212.557 320.103 232.702L322.013 233.124ZM384.561 558.612L90.6822 488.427L83.8964 537.619C83.0747 548.491 85.7494 559.337 91.5294 568.579L95.3459 574.515C98.3322 579.227 102.239 583.287 106.829 586.458C111.419 589.625 116.599 591.838 122.061 592.963L374.809 642.158C386.754 644.462 399.093 643.66 410.642 639.826L563.519 590.206C568.43 588.631 572.764 585.636 575.972 581.596C579.18 577.558 581.118 572.659 581.543 567.52L587.904 486.305L419.547 556.28C408.477 560.955 396.155 561.776 384.561 558.612Z" fill="black"/>
<path d="M181.916 554.004L280.504 574.6L276.917 591.764L178.329 571.169L181.916 554.004Z" fill="white"/>
<path d="M277.062 591.056L281.091 571.97L180.584 550.766L176.558 570.064L277.062 591.056ZM278.546 573.455L275.365 588.724L178.89 568.366L182.069 553.31L278.546 573.455Z" fill="black"/>
<path d="M354.454 475.49C358.693 494.788 385.199 510.904 390.713 528.079C390.5 528.079 336.432 496.907 298.689 492.243C279.606 489.699 296.992 508.994 303.14 509.631C272.82 493.09 273.668 512.598 288.934 522.566C282.785 517.477 271.336 521.716 277.697 529.139C290.843 545.042 308.866 549.071 336.219 565.61C330.071 560.946 284.482 552.463 285.755 566.882C285.885 567.973 286.338 568.998 287.055 569.831C287.775 570.661 288.724 571.259 289.784 571.548C351.698 590.206 386.471 592.54 440.752 611.201C440.115 586.389 435.876 545.89 432.907 520.021C420.607 515.78 368.023 470.614 354.454 475.49Z" fill="white"/>
<path d="M442.024 612.683V611.198C441.599 592.54 438.842 561.793 434.179 519.809V519.171H433.541C429.303 517.687 419.972 511.113 408.945 503.48C387.743 488.427 363.782 471.464 354.454 474.855H353.604V475.915C355.939 486.305 364.632 495.847 373.112 505.177C381.595 514.508 385.624 518.959 388.803 525.745C377.353 519.384 331.977 495.213 299.111 491.184C294.447 490.546 291.268 491.184 289.996 493.09C288.724 495 288.724 495.847 289.996 498.817C290.823 500.695 291.971 502.418 293.387 503.905C282.998 500.301 279.606 503.268 278.544 504.965C277.484 506.662 278.544 514.508 283.423 519.384C282.173 519.259 280.912 519.384 279.711 519.746C278.512 520.112 277.393 520.71 276.424 521.506C274.305 523.838 274.515 526.807 277.059 529.774C285.754 540.376 296.566 545.89 310.563 552.675L325.829 560.733C313.742 557.764 296.144 556.067 288.721 560.308C287.466 560.912 286.426 561.887 285.743 563.099C285.06 564.315 284.768 565.709 284.904 567.094C285.074 568.395 285.63 569.616 286.5 570.596C287.369 571.579 288.511 572.279 289.783 572.608C318.406 581.088 340.883 586.177 362.722 591.268C384.561 596.357 411.492 602.08 440.752 612.048L442.024 612.683ZM431.847 520.868C436.511 561.156 439.055 591.056 439.692 609.716C411.067 599.961 387.743 594.66 363.147 589.146C338.551 583.632 318.618 579.181 289.996 570.486C289.163 570.279 288.412 569.823 287.845 569.18C287.276 568.536 286.916 567.735 286.814 566.882C286.732 565.916 286.95 564.944 287.446 564.108C287.939 563.272 288.681 562.612 289.571 562.218C299.323 556.704 327.736 562.428 334.734 565.822L335.794 566.457L336.854 564.762L335.794 563.912C326.464 558.611 318.409 554.373 311.198 550.766C297.629 543.98 286.814 538.679 278.334 528.501C277.062 527.017 275.999 524.897 277.696 523.2C279.062 522.197 280.686 521.605 282.374 521.495C284.066 521.381 285.752 521.752 287.239 522.566C287.449 522.988 287.874 523.2 288.511 523.625L289.571 521.716L288.299 520.868C281.513 515.78 278.334 509.206 280.028 506.237C281.725 503.268 287.027 503.058 297.629 507.934C299.15 509.26 300.967 510.207 302.93 510.691L308.228 511.113L303.565 508.569L298.689 506.025C295.804 503.874 293.416 501.126 291.69 497.967C291.265 496.694 290.843 495.213 291.478 494.363C292.115 493.515 293.6 492.665 298.689 493.303C335.159 497.757 387.743 527.654 390.075 528.926H390.712L391.772 528.289V527.442C389.228 519.384 382.229 511.538 374.596 503.48C366.963 495.422 358.483 485.67 355.936 476.127C365.054 474.643 389.44 492.031 407.673 504.752C418.063 512.385 427.18 518.959 431.847 520.868Z" fill="black"/>
<path d="M347.456 533.38L348.516 531.471C332.825 522.778 316.499 514.508 299.961 507.084L299.111 508.994C315.652 516.414 331.765 524.685 347.456 533.38ZM285.839 520.605L339.69 549.845L338.678 551.709L284.828 522.466L285.839 520.605Z" fill="black"/>
<path d="M680.776 552.038L660.208 540.163C594.478 502.633 514.328 495.635 440.752 511.538C438.454 512.037 436.406 513.332 434.969 515.193C433.536 517.058 432.805 519.367 432.907 521.716C434.391 546.737 440.117 619.893 442.871 638.766C443.721 643.217 444.569 647.884 447.75 651.063C450.929 654.245 455.383 654.67 459.622 655.517L579.423 675.662" fill="white"/>
<path d="M579.211 676.722L579.635 674.599L459.625 654.457C455.171 653.607 451.142 652.76 448.598 650.216C446.053 647.672 444.781 643.005 443.934 638.554C441.177 619.893 435.663 547.374 433.966 521.716C433.91 519.625 434.575 517.576 435.848 515.916C437.122 514.256 438.927 513.085 440.964 512.598C519.841 495.422 597.446 505.602 659.572 541.013L680.14 552.888L681.2 551.191L660.633 539.316C598.082 503.48 519.841 493.303 440.539 510.479C438.018 511.065 435.777 512.502 434.193 514.55C432.609 516.596 431.779 519.129 431.847 521.716C433.544 547.374 439.055 620.106 442.024 638.976C442.662 643.642 443.721 648.519 447.113 651.701C450.507 654.88 455.383 655.942 459.412 656.577L579.211 676.722ZM612.254 306.87L721.554 416.174L720.055 417.673L610.755 308.368L612.254 306.87ZM598.757 403.92L727.697 532.868L726.198 534.366L597.257 405.419L598.757 403.92Z" fill="black"/>
<path d="M580.738 504.594L709.679 633.539L708.18 635.038L579.239 506.093L580.738 504.594ZM441.817 509.062L609.303 677.727L607.798 679.221L440.313 510.555L441.817 509.062Z" fill="black"/>
</svg>
