<svg width="301" height="41" viewBox="0 0 301 41" fill="none" xmlns="http://www.w3.org/2000/svg">
<path d="M0.107813 1.5H16.8828V2.545H13.8578V19.925L14.2978 19.815L29.8078 2.545H25.4628V1.5H35.0878V2.545H31.7878L22.3278 13.105L35.5278 38.955H38.4978V40H20.8428V38.955H23.4278L14.3528 21.41L13.8578 21.52V38.955H16.8828V40H0.107813V38.955H3.13281V2.545H0.107813V1.5ZM66.6613 23.005V18.935C66.6613 12.225 66.3313 7.99 65.6713 6.23C64.9379 4.21333 63.8929 2.96666 62.5363 2.49C61.7663 2.19666 60.8313 2.05 59.7313 2.05C58.6313 2.05 57.6779 2.19666 56.8713 2.49C56.1013 2.78333 55.4596 3.29666 54.9463 4.03C54.4329 4.76333 54.0113 5.53333 53.6813 6.34C53.3879 7.14666 53.1496 8.28333 52.9663 9.75C52.7463 11.8767 52.6363 15.0117 52.6363 19.155V23.115C52.6363 27.5883 52.8013 30.7783 53.1313 32.685C53.4979 34.555 53.9379 35.8933 54.4513 36.7C55.5879 38.4967 57.3479 39.395 59.7313 39.395C62.6279 39.395 64.4979 38.185 65.3413 35.765C66.2213 33.3083 66.6613 29.055 66.6613 23.005ZM59.6213 40.55C53.4979 40.55 48.9146 38.9 45.8713 35.6C42.8646 32.2633 41.3613 27.46 41.3613 21.19C41.3613 14.8833 42.9746 9.93333 46.2013 6.34C49.4646 2.71 54.0663 0.894999 60.0063 0.894999C65.9463 0.894999 70.4196 2.61833 73.4263 6.065C76.4696 9.475 77.9913 14.3333 77.9913 20.64C77.9913 26.9467 76.4513 31.8417 73.3713 35.325C70.3279 38.8083 65.7446 40.55 59.6213 40.55ZM85.4738 1.5H102.249V2.545H99.2238V38.955H102.249V40H85.4738V38.955H88.4988V2.545H85.4738V1.5ZM139.95 2.545V40H132.25L113.385 4.415V38.955H116.41V40H108.875V38.955H111.9V2.545H108.875V1.5H124.055L138.465 29.11V2.545H135.44V1.5H142.975V2.545H139.95ZM149.02 1.5H165.19C170.727 1.5 174.852 2.30666 177.565 3.92C180.279 5.49667 181.635 8.33833 181.635 12.445C181.635 16.9917 179.985 20.1267 176.685 21.85C173.605 23.4267 169.297 24.215 163.76 24.215H163.32V38.955H170.195V40H149.02V38.955H152.595V2.545H149.02V1.5ZM163.32 2.545V23.17H164.475C166.675 23.17 168.197 22.4183 169.04 20.915C169.884 19.4117 170.305 16.9733 170.305 13.6V10.96C170.305 7.84333 169.902 5.66167 169.095 4.415C168.325 3.16833 166.895 2.545 164.805 2.545H163.32ZM213.922 23.005V18.935C213.922 12.225 213.592 7.99 212.932 6.23C212.198 4.21333 211.153 2.96666 209.797 2.49C209.027 2.19666 208.092 2.05 206.992 2.05C205.892 2.05 204.938 2.19666 204.132 2.49C203.362 2.78333 202.72 3.29666 202.207 4.03C201.693 4.76333 201.272 5.53333 200.942 6.34C200.648 7.14666 200.41 8.28333 200.227 9.75C200.007 11.8767 199.897 15.0117 199.897 19.155V23.115C199.897 27.5883 200.062 30.7783 200.392 32.685C200.758 34.555 201.198 35.8933 201.712 36.7C202.848 38.4967 204.608 39.395 206.992 39.395C209.888 39.395 211.758 38.185 212.602 35.765C213.482 33.3083 213.922 29.055 213.922 23.005ZM206.882 40.55C200.758 40.55 196.175 38.9 193.132 35.6C190.125 32.2633 188.622 27.46 188.622 21.19C188.622 14.8833 190.235 9.93333 193.462 6.34C196.725 2.71 201.327 0.894999 207.267 0.894999C213.207 0.894999 217.68 2.61833 220.687 6.065C223.73 9.475 225.252 14.3333 225.252 20.64C225.252 26.9467 223.712 31.8417 220.632 35.325C217.588 38.8083 213.005 40.55 206.882 40.55ZM248.697 39.395C250.53 39.395 252.144 38.9 253.537 37.91C254.967 36.92 255.682 35.435 255.682 33.455C255.682 31.4383 254.912 29.8983 253.372 28.835C251.869 27.7717 249.705 26.855 246.882 26.085C244.095 25.2783 242.06 24.5817 240.777 23.995C239.53 23.4083 238.339 22.6383 237.202 21.685C234.929 19.7783 233.792 16.8267 233.792 12.83C233.792 9.56667 234.947 6.76167 237.257 4.415C239.604 2.06833 242.794 0.894999 246.827 0.894999C248.77 0.894999 250.787 1.18833 252.877 1.775C255.004 2.325 256.324 2.6 256.837 2.6C257.35 2.6 257.809 2.23333 258.212 1.5H258.817L259.202 12.61H258.322C256.562 9.42 254.71 6.87166 252.767 4.965C250.86 3.02166 248.77 2.05 246.497 2.05C244.26 2.05 242.519 2.58166 241.272 3.645C240.025 4.67167 239.402 6.065 239.402 7.825C239.402 9.54833 240.135 10.8867 241.602 11.84C243.105 12.7567 244.939 13.5083 247.102 14.095C249.265 14.6817 250.677 15.085 251.337 15.305C252.034 15.525 252.877 15.8367 253.867 16.24C254.894 16.6067 255.719 17.01 256.342 17.45C257.002 17.8533 257.68 18.385 258.377 19.045C259.11 19.6683 259.679 20.365 260.082 21.135C261.072 22.895 261.567 24.985 261.567 27.405C261.567 31.365 260.32 34.555 257.827 36.975C255.37 39.3583 252.125 40.55 248.092 40.55C246.002 40.55 243.6 40.275 240.887 39.725C238.21 39.175 236.725 38.9 236.432 38.9C235.919 38.9 235.424 39.45 234.947 40.55H234.177L233.627 27.46H234.562C236.175 30.65 238.229 33.4367 240.722 35.82C243.252 38.2033 245.91 39.395 248.697 39.395ZM300.16 1.5L300.71 15.305H299.665C298.052 10.4283 296.622 7.11 295.375 5.35C294.128 3.55333 292.332 2.655 289.985 2.655H289.325V38.845H294V40H273.925V38.845H278.6V2.655H277.885C275.538 2.655 273.723 3.59 272.44 5.46C271.157 7.29333 269.745 10.575 268.205 15.305H267.16L267.71 1.5H300.16Z" fill="white"/>
</svg>
