<svg width="123" height="23" viewBox="0 0 123 23" fill="none" xmlns="http://www.w3.org/2000/svg">
<g clipPath="url(#clip0_2025_1403)">
<path fill-rule="evenodd" clip-rule="evenodd" d="M13.9583 0.879639L12.2156 1.87524V10.3335L13.1673 10.8779V4.43641L16.4341 6.30346L16.4372 6.30197L17.0715 6.66392L17.6011 6.36329V5.85487L13.1673 3.32437V2.4437L13.9583 1.99189L18.55 4.61653V6.95255L16.3457 8.20525L16.2713 8.16816C16.1372 8.10169 15.9982 8.06781 15.8584 8.06781C15.334 8.06781 14.907 8.50311 14.907 9.0379C14.907 9.57269 15.334 10.0082 15.8584 10.0082C16.3451 10.0082 16.7498 9.63358 16.7996 9.13696L16.8081 9.05333L19.0327 7.78905L21.096 8.96841V14.1864L19.0304 15.3657L10.6357 10.5661V1.87589L8.89306 0.879639L3.35002 4.04808V6.93946L0.803955 8.39288V14.7482L3.35002 16.2036V19.1001L8.89306 22.2685L10.6357 21.2724V12.796L9.68409 12.2523V18.7119L5.77999 16.4842L5.25021 16.7849V17.2935L9.68409 19.8242V20.704L8.89306 21.1563L4.30148 18.5316V16.1952L6.50579 14.9431L6.57981 14.98C6.71463 15.0464 6.85323 15.0804 6.99266 15.0804C7.5174 15.0804 7.94434 14.6453 7.94434 14.1103C7.94434 13.575 7.5174 13.1401 6.99266 13.1401C6.50641 13.1401 6.10219 13.5146 6.05172 14.0114L6.04372 14.0949L3.8186 15.3593L1.75542 14.1797V8.96177L3.82112 7.78261L12.2156 12.5816V21.2724L13.9583 22.2685L19.5015 19.1001V16.2087L22.0476 14.7555V8.39996L19.5015 6.94505V4.04808L13.9583 0.879639ZM4.30148 4.61659L8.89306 1.99196L9.68409 2.44398V3.324L4.30148 6.39617V4.61659ZM4.79498 7.22685L9.68391 4.43581V10.0217L4.79498 7.22685ZM13.1672 13.1259L18.0566 15.9214L13.1672 18.7125V13.1259ZM13.1672 20.7041V19.8245L18.55 16.7519V18.5317L13.9582 21.1563L13.1672 20.7041Z" fill="#101216"/>
<path fill-rule="evenodd" clip-rule="evenodd" d="M57.1101 6.42428C56.6985 6.42428 56.339 6.26924 56.0304 5.95935C55.7221 5.64925 55.5678 5.28797 55.5678 4.87444C55.5678 4.46111 55.7221 4.09897 56.0304 3.78909C56.339 3.47921 56.6985 3.32416 57.1101 3.32416C57.5213 3.32416 57.8811 3.47921 58.1897 3.78909C58.4982 4.09897 58.6525 4.46111 58.6525 4.87444C58.6525 5.28797 58.4982 5.64925 58.1897 5.95935C57.8811 6.26924 57.5213 6.42428 57.1101 6.42428ZM37.4758 6.55552C37.2386 5.97554 36.8983 5.47039 36.4555 5.04115C36.0126 4.61213 35.4864 4.27795 34.8774 4.03946C34.2685 3.80119 33.5924 3.68184 32.8488 3.68184C32.042 3.68184 31.3184 3.80119 30.678 4.03946C30.0369 4.27795 29.4916 4.59214 29.0405 4.98159C28.5897 5.37125 28.2416 5.82802 27.9966 6.35295C27.7511 6.87745 27.6288 7.42603 27.6288 7.99827C27.6288 8.87287 27.8183 9.5763 28.1982 10.1087C28.5777 10.6419 29.0525 11.0747 29.6219 11.4087C30.1912 11.7425 30.8117 12.0049 31.4846 12.1958C32.1567 12.3863 32.7776 12.5813 33.347 12.7798C33.9165 12.979 34.3911 13.2054 34.7707 13.4594C35.1505 13.714 35.3405 14.0717 35.3405 14.5327C35.3405 15.0097 35.1347 15.427 34.7234 15.7847C34.3117 16.1425 33.6871 16.3213 32.8488 16.3213C32.0737 16.3213 31.4643 16.1107 31.0218 15.6894C30.5787 15.2684 30.3573 14.7234 30.3573 14.0557H27.51C27.51 14.7712 27.6324 15.427 27.878 16.023C28.1228 16.6193 28.4748 17.1363 28.9337 17.5732C29.3925 18.0109 29.9501 18.3483 30.6067 18.5868C31.263 18.8255 32.0101 18.9444 32.8488 18.9444C33.6713 18.9444 34.4185 18.8216 35.091 18.5752C35.7633 18.3285 36.3369 18.0022 36.8114 17.5973C37.2861 17.1915 37.6536 16.735 37.9149 16.2257C38.1757 15.7174 38.3062 15.1925 38.3062 14.6521C38.3062 13.7459 38.1164 13.0106 37.7368 12.4461C37.3571 11.8818 36.8827 11.4246 36.3129 11.0747C35.7436 10.7253 35.1226 10.447 34.4504 10.2399C33.7779 10.0337 33.1572 9.83478 32.5878 9.64382C32.0185 9.45307 31.5437 9.23867 31.1641 8.99996C30.7845 8.76148 30.5948 8.41977 30.5948 7.97462C30.5948 7.5613 30.7925 7.17959 31.1879 6.82971C31.583 6.48025 32.137 6.30521 32.8488 6.30521C33.5607 6.30521 34.1142 6.49617 34.5099 6.87745C34.7786 7.13679 34.9536 7.46388 35.0396 7.85548H37.7968C37.7471 7.39721 37.6423 6.96304 37.4758 6.55552ZM87.811 15.784C87.3895 16.1999 86.8446 16.4073 86.1763 16.4073H82.8357V12.0905H86.1763C86.8446 12.0905 87.3895 12.2985 87.811 12.7139C88.2323 13.1301 88.4435 13.6415 88.4435 14.2489C88.4435 14.8567 88.2323 15.3683 87.811 15.784ZM85.9377 9.93174H82.8357V6.33421H85.9377C86.4785 6.33421 86.9317 6.51399 87.298 6.87398C87.6636 7.23375 87.8469 7.65331 87.8469 8.13287C87.8469 8.61285 87.6636 9.03241 87.298 9.39218C86.9317 9.75196 86.4785 9.93174 85.9377 9.93174ZM90.1138 11.7066C89.7639 11.3707 89.3658 11.0991 88.9207 10.8914C89.2389 10.7155 89.5331 10.4918 89.8035 10.2197C90.0263 9.99588 90.2331 9.7004 90.4241 9.33224C90.6147 8.96473 90.7106 8.52517 90.7106 8.01314C90.7106 7.43747 90.5993 6.89791 90.3763 6.39405C90.1534 5.89084 89.8394 5.44698 89.4338 5.06312C89.0281 4.67948 88.5467 4.37605 87.9902 4.15197C87.433 3.9281 86.8286 3.81606 86.1764 3.81606H79.9721V18.9257H86.415C87.1311 18.9257 87.7872 18.8057 88.3837 18.566C88.9802 18.3262 89.4974 18.0105 89.935 17.6184C90.3721 17.2271 90.7106 16.7712 90.9493 16.2514C91.1881 15.732 91.3075 15.1843 91.3075 14.6086C91.3075 13.9213 91.1836 13.3375 90.9367 12.8577C90.6898 12.3782 90.4159 11.9943 90.1138 11.7066ZM44.712 18.8255L46.729 12.2674L48.7459 18.8255H51.1185L54.6778 7.85547H51.9491L49.8135 14.8903L47.5595 7.85547H45.8984L43.6444 14.8903L41.5089 7.85547H38.7801L42.3391 18.8255H44.712ZM55.7451 18.8253H58.4737V7.85529H55.7451V18.8253ZM102.893 15.5224C103.185 14.8472 103.332 14.1194 103.332 13.3405C103.332 12.5614 103.185 11.8341 102.893 11.1584C102.6 10.483 102.205 9.89073 101.706 9.38172C101.208 8.87313 100.63 8.47163 99.9745 8.17723C99.3179 7.88326 98.6179 7.73595 97.8744 7.73595C97.1301 7.73595 96.431 7.88326 95.7744 8.17723C95.1178 8.47163 94.5408 8.87313 94.0424 9.38172C93.5441 9.89073 93.148 10.483 92.8558 11.1584C92.5628 11.8341 92.4172 12.5614 92.4172 13.3405C92.4172 14.1194 92.5628 14.8472 92.8558 15.5224C93.148 16.1983 93.5441 16.7905 94.0424 17.2992C94.5408 17.8081 95.1178 18.2096 95.7744 18.5034C96.431 18.7978 97.1301 18.9447 97.8744 18.9447C98.6179 18.9447 99.3179 18.7978 99.9745 18.5034C100.63 18.2096 101.208 17.8081 101.706 17.2992C102.205 16.7905 102.6 16.1983 102.893 15.5224ZM95.1449 13.3403C95.1449 14.2464 95.4063 14.97 95.9281 15.5105C96.4509 16.051 97.0984 16.3212 97.8744 16.3212C98.6486 16.3212 99.298 16.051 99.8198 15.5105C100.342 14.97 100.603 14.2464 100.603 13.3403C100.603 12.4339 100.342 11.711 99.8198 11.1701C99.298 10.6297 98.6486 10.3594 97.8744 10.3594C97.0984 10.3594 96.4509 10.6297 95.9281 11.1701C95.4063 11.711 95.1449 12.4339 95.1449 13.3403ZM110.185 7.75988C110.09 7.74439 109.979 7.73601 109.852 7.73601C109.441 7.73601 109.074 7.80375 108.749 7.93859C108.425 8.07406 108.152 8.22912 107.931 8.40373C107.662 8.59448 107.432 8.8091 107.242 9.0478L106.768 7.85557H104.752V18.8254H107.48V12.9823C107.48 12.2673 107.689 11.6912 108.109 11.2537C108.527 10.8166 109.07 10.598 109.734 10.598C109.877 10.598 110.007 10.606 110.126 10.6217C110.244 10.6378 110.343 10.6536 110.422 10.6695C110.517 10.6854 110.604 10.7015 110.684 10.717V7.85557L110.446 7.8074C110.366 7.79192 110.279 7.77601 110.185 7.75988ZM76.8398 13.0303C77.251 13.2847 77.5949 13.6143 77.872 14.02C78.1485 14.4253 78.2871 14.9543 78.2871 15.6057C78.2871 16.0511 78.1923 16.4763 78.0023 16.8816C77.8125 17.287 77.5433 17.6412 77.1957 17.9428C76.8476 18.2453 76.4243 18.4875 75.9263 18.6704C75.4279 18.8529 74.8703 18.9443 74.2535 18.9443C72.8297 18.9443 71.7503 18.619 71.0145 17.9669C70.5994 17.5988 70.2871 17.1598 70.0709 16.6549L72.3554 15.3676C72.4185 15.7335 72.5924 16.0431 72.8772 16.2975C73.1618 16.5517 73.5416 16.6788 74.0161 16.6788C74.4905 16.6788 74.8662 16.556 75.1431 16.3093C75.4198 16.0629 75.5584 15.7889 75.5584 15.4865C75.5584 15.2324 75.4198 15.0334 75.1431 14.8902C74.8662 14.7472 74.5221 14.6161 74.1112 14.4972C73.6995 14.3776 73.2527 14.2548 72.7705 14.1273C72.2875 14.0002 71.841 13.8135 71.43 13.5669C71.0183 13.3204 70.6741 13.0027 70.3976 12.6129C70.1205 12.2235 69.9825 11.711 69.9825 11.0746C69.9825 10.6295 70.0733 10.2043 70.2551 9.79879C70.4369 9.39343 70.7018 9.03989 71.0502 8.73775C71.3979 8.43561 71.8096 8.19304 72.2841 8.01045C72.7587 7.82767 73.2959 7.73584 73.8977 7.73584C75.2103 7.73584 76.2187 8.05433 76.9226 8.69001C77.2905 9.02225 77.5773 9.39902 77.7874 9.81815L75.5584 11.0744C75.4948 10.8362 75.3247 10.5977 75.0485 10.3594C74.7714 10.1207 74.4272 10.0014 74.0161 10.0014C73.6047 10.0014 73.2844 10.105 73.0553 10.3117C72.8257 10.5183 72.7112 10.7728 72.7112 11.0746C72.7112 11.3291 72.8494 11.5277 73.1263 11.671C73.4028 11.8138 73.747 11.9452 74.1587 12.0645C74.5694 12.1837 75.0162 12.3112 75.4991 12.446C75.9814 12.5813 76.4284 12.7761 76.8398 13.0303ZM68.2624 14.02C67.9853 13.6143 67.6415 13.2847 67.2302 13.0303C66.8188 12.7761 66.3719 12.5813 65.8895 12.446C65.4069 12.3112 64.9599 12.1837 64.549 12.0645C64.1374 11.9452 63.7931 11.8138 63.5167 11.671C63.2398 11.5277 63.1016 11.3291 63.1016 11.0746C63.1016 10.7728 63.2161 10.5183 63.4456 10.3117C63.6748 10.105 63.9951 10.0014 64.4066 10.0014C64.8176 10.0014 65.1618 10.1207 65.439 10.3594C65.7152 10.5977 65.8853 10.8362 65.9488 11.0744L68.1779 9.81815C67.9678 9.39902 67.6808 9.02225 67.3133 8.69001C66.6091 8.05433 65.6007 7.73584 64.288 7.73584C63.6864 7.73584 63.1491 7.82767 62.6745 8.01045C62.1999 8.19304 61.7883 8.43561 61.4406 8.73775C61.0925 9.03989 60.8274 9.39343 60.6455 9.79879C60.4636 10.2043 60.3729 10.6295 60.3729 11.0746C60.3729 11.711 60.5109 12.2235 60.788 12.6129C61.0644 13.0027 61.4087 13.3204 61.8204 13.5669C62.2314 13.8135 62.6782 14.0002 63.1608 14.1273C63.6432 14.2548 64.0899 14.3776 64.5015 14.4972C64.9126 14.6161 65.2566 14.7472 65.5335 14.8902C65.8101 15.0334 65.9488 15.2324 65.9488 15.4865C65.9488 15.7889 65.8101 16.0629 65.5335 16.3093C65.2566 16.556 64.8809 16.6788 64.4066 16.6788C63.932 16.6788 63.5524 16.5517 63.2676 16.2975C62.9828 16.0431 62.8088 15.7335 62.7458 15.3676L60.4613 16.6549C60.6776 17.1598 60.9898 17.5988 61.4048 17.9669C62.1407 18.619 63.2203 18.9443 64.6438 18.9443C65.2607 18.9443 65.8183 18.8529 66.3166 18.6704C66.8149 18.4875 67.2379 18.2453 67.586 17.9428C67.934 17.6412 68.2031 17.287 68.3929 16.8816C68.5827 16.4763 68.6775 16.0511 68.6775 15.6057C68.6775 14.9543 68.5388 14.4253 68.2624 14.02ZM119.704 8.92823L120.179 7.85536H122.196V18.1099C122.196 19.5409 121.741 20.6933 120.831 21.5679C119.921 22.442 118.636 22.8796 116.976 22.8796C115.963 22.8796 115.144 22.6964 114.519 22.3311C113.894 21.9651 113.4 21.5518 113.037 21.0907C112.898 20.9135 112.775 20.7251 112.66 20.5315L114.84 19.3025C114.951 19.5088 115.101 19.6916 115.291 19.8509C115.464 19.9776 115.686 20.0972 115.955 20.2086C116.224 20.3195 116.564 20.3754 116.976 20.3754C117.751 20.3754 118.36 20.1647 118.803 19.7436C119.246 19.3223 119.467 18.7776 119.467 18.1099V17.275C119.246 17.4981 118.992 17.6968 118.708 17.8712C118.454 18.0306 118.154 18.1694 117.806 18.2888C117.458 18.4081 117.062 18.4677 116.619 18.4677C115.939 18.4677 115.294 18.3327 114.686 18.0622C114.077 17.792 113.547 17.4183 113.096 16.9413C112.645 16.4643 112.289 15.9 112.028 15.248C111.767 14.5963 111.637 13.8812 111.637 13.1018C111.637 12.3232 111.767 11.6078 112.028 10.9555C112.289 10.3037 112.645 9.73896 113.096 9.2622C113.547 8.78544 114.077 8.4119 114.686 8.14137C115.294 7.87128 115.939 7.73601 116.619 7.73601C117.094 7.73601 117.521 7.79967 117.901 7.92675C118.281 8.05428 118.604 8.18911 118.874 8.33212C119.174 8.5076 119.451 8.70566 119.704 8.92823ZM118.803 15.0455C119.039 14.7989 119.229 14.509 119.372 14.1751C119.514 13.8413 119.586 13.4833 119.586 13.1019C119.586 12.72 119.514 12.3624 119.372 12.0289C119.229 11.6949 119.039 11.405 118.803 11.1581C118.565 10.9119 118.288 10.717 117.971 10.574C117.656 10.4308 117.323 10.3594 116.976 10.3594C116.611 10.3594 116.271 10.4308 115.955 10.574C115.639 10.717 115.362 10.9119 115.124 11.1581C114.887 11.405 114.701 11.6949 114.567 12.0289C114.432 12.3624 114.365 12.72 114.365 13.1019C114.365 13.4833 114.432 13.8413 114.567 14.1751C114.701 14.509 114.887 14.7989 115.124 15.0455C115.362 15.292 115.639 15.4868 115.955 15.6298C116.271 15.7731 116.611 15.8445 116.976 15.8445C117.323 15.8445 117.656 15.7731 117.971 15.6298C118.288 15.4868 118.565 15.292 118.803 15.0455Z" fill="#101216"/>
</g>
<defs>
<clipPath id="clip0_2025_1403">
<rect width="123" height="22" fill="white" transform="translate(0 0.879639)"/>
</clipPath>
</defs>
</svg>
