<svg width="91" height="29" viewBox="0 0 91 29" fill="none" xmlns="http://www.w3.org/2000/svg">
<path d="M78.9587 15.8944C78.9587 17.5331 78.006 18.2952 76.9009 18.2952C75.853 18.2952 75.2623 17.7045 75.2623 15.7801V11.8169H72.6329V17.0186C72.6329 19.3622 73.6618 20.7531 75.8148 20.7531C77.0343 20.7531 78.1013 20.2006 78.9778 19.4384L79.1111 20.5816H81.5691V11.8169H78.9587V15.8944ZM21.6641 10.6547C20.6924 10.6547 20.6924 12.1027 21.6641 12.1027C22.6358 12.1027 22.6358 10.6547 21.6641 10.6547ZM14.4427 0.079834C10.6129 0.079834 6.93556 1.60413 4.22993 4.30976C1.5243 7.01539 0 10.6928 0 14.5226C0 18.3524 1.5243 22.0297 4.22993 24.7354C6.93556 27.441 10.6129 28.9653 14.4427 28.9653C22.4263 28.9653 28.8855 22.5061 28.8855 14.5226C28.9045 6.5581 22.4263 0.079834 14.4427 0.079834ZM21.0163 20.5816C19.3205 22.468 16.9007 23.535 14.3665 23.554H14.3475C11.7943 23.554 9.35539 22.468 7.64055 20.5626C5.90666 18.6572 5.08735 16.104 5.39221 13.5508C5.86855 9.39711 9.1458 6.10081 13.2995 5.60542C13.6425 5.56731 14.0045 5.54825 14.3475 5.54825C16.3291 5.54825 18.2725 6.19608 19.8349 7.43457C19.9874 7.5489 20.0445 7.75849 19.9683 7.94902C19.9493 8.00618 19.9112 8.06335 19.854 8.10145L18.9013 8.95887C18.806 9.05414 18.6727 9.09225 18.5393 9.09225C18.425 9.09225 18.3106 9.05414 18.2154 8.99698C16.2719 7.62511 13.7377 7.39647 11.5656 8.38726C10.6891 8.78739 9.90795 9.359 9.27917 10.064C7.98352 11.5121 7.3738 13.4365 7.60244 15.38C7.96446 18.5048 10.4415 20.9818 13.5853 21.3438C13.8521 21.3628 14.0998 21.3819 14.3665 21.3819C16.1766 21.3819 17.9105 20.6579 19.1871 19.3622C19.2824 19.2479 19.4348 19.1907 19.5872 19.1907C19.7016 19.1907 19.7968 19.2288 19.8921 19.286L20.9591 19.991C21.0544 20.0672 21.1306 20.1625 21.1497 20.2958C21.1497 20.3721 21.1115 20.4864 21.0163 20.5816ZM21.6641 13.5508C18.7489 13.5508 18.7489 9.18752 21.6641 9.18752C24.5793 9.18752 24.5793 13.5508 21.6641 13.5508ZM69.5843 10.7499C70.0987 10.7499 70.556 10.4451 70.7465 9.96872C70.9371 9.49238 70.8418 8.95887 70.4798 8.59685C69.9082 8.02524 68.9745 8.12051 68.5363 8.78739C68.4029 8.99698 68.3267 9.24468 68.3267 9.49238C68.3267 10.0068 68.6316 10.4641 69.1079 10.6737C69.2604 10.7118 69.4318 10.7499 69.5843 10.7499ZM49.6541 11.6264C46.9675 11.6264 45.2717 13.7032 45.2717 16.1421C45.2717 18.6382 47.0627 20.7531 49.8255 20.7531C52.3216 20.7531 53.6934 18.943 53.903 17.7807L51.6356 17.533C51.2355 18.1237 50.5496 18.4476 49.8446 18.4286C48.4918 18.4286 47.9583 17.6855 47.9011 16.9805H54.0555V16.3136C54.0364 13.7604 52.3787 11.6264 49.6541 11.6264ZM47.8821 15.2085C47.9392 14.5416 48.6061 13.9509 49.6541 13.9509C50.702 13.9509 51.3689 14.5416 51.426 15.2085H47.8821ZM88.3331 15.3419C86.4278 14.7131 85.9895 14.6559 85.9895 14.2939C85.9895 13.9319 86.4849 13.7985 86.9041 13.7985C87.3233 13.7985 87.9521 13.9509 87.9521 14.4845H90.6005C90.5624 12.9411 89.1906 11.6264 86.8279 11.6264C85.0178 11.6264 83.3601 12.6362 83.3601 14.2939C83.3601 15.742 84.4462 16.5232 86.0848 16.9805C87.8187 17.4759 88.3713 17.5521 88.3713 18.0284C88.3713 18.4286 87.7615 18.562 87.2852 18.562C86.3897 18.562 85.7799 18.238 85.7228 17.7236H83.1124C83.1696 19.7623 84.8463 20.7341 87.228 20.7341C89.2668 20.7341 90.9816 19.8195 90.9816 18.0856C90.9816 17.1329 90.5053 16.0278 88.3331 15.3419ZM55.2368 20.5816H57.8472V7.587H55.2368V20.5816ZM68.2886 20.5816H70.899V11.8169H68.2886V20.5816ZM34.1062 14.4273C34.1062 18.0284 36.8499 20.7531 40.2796 20.7531C42.2612 20.7531 43.4425 19.9148 43.8617 19.5527V16.9233C43.5759 17.2854 42.4517 18.2571 40.6035 18.2571C38.5076 18.2571 36.7166 16.7518 36.7166 14.4082C36.7166 12.0646 38.5076 10.5403 40.6035 10.5403C42.4517 10.5403 43.5759 11.5311 43.8617 11.8931V9.28278C43.4425 8.92076 42.2421 8.0824 40.2796 8.0824C36.8499 8.10146 34.1062 10.8261 34.1062 14.4273ZM64.4016 15.3419C62.4963 14.7131 62.058 14.675 62.058 14.2939C62.058 13.9319 62.5534 13.7985 62.9726 13.7985C63.3918 13.7985 64.0206 13.9509 64.0206 14.4845H66.65C66.6119 12.9411 65.24 11.6264 62.8773 11.6264C61.0672 11.6264 59.4096 12.6362 59.4096 14.2939C59.4096 15.7611 60.4956 16.5232 62.1343 16.9805C63.8681 17.4759 64.4207 17.5521 64.4207 18.0284C64.4207 18.4286 63.811 18.562 63.3346 18.562C62.4201 18.562 61.8294 18.238 61.7722 17.7236H59.1619C59.219 19.7623 60.8958 20.7341 63.2965 20.7341C65.3353 20.7341 67.0501 19.8195 67.0501 18.0856C67.0501 17.1329 66.5928 16.0469 64.4016 15.3419Z" fill="#101216"/>
</svg>
