<svg width="128" height="29" viewBox="0 0 128 29" fill="none" xmlns="http://www.w3.org/2000/svg">
<path d="M124.917 16.3145C124.917 14.6558 123.939 13.401 122.387 13.401C120.834 13.401 119.856 14.6558 119.856 16.3145C119.856 17.9733 120.834 19.228 122.387 19.228C123.939 19.228 124.917 17.9733 124.917 16.3145ZM124.832 12.2952V7.93564C124.832 7.63792 125.024 7.40399 125.3 7.31893L127.597 6.70221V21.4184H125.045V20.1637C124.407 21.0994 123.237 21.6523 121.791 21.6523C118.814 21.6523 117.091 19.2705 117.091 16.2932C117.091 13.316 118.835 10.9342 121.791 10.9342C123.259 10.9554 124.301 11.5722 124.832 12.2952ZM109.095 11.1894V12.4441C109.563 11.5722 110.627 10.9554 112.136 10.9554C114.603 10.9554 115.901 12.5929 115.901 15.0385V21.4397H113.136V15.3575C113.136 14.1666 112.626 13.3373 111.392 13.3373C110.052 13.3373 109.308 14.1879 109.308 15.5702V21.4397H106.543V11.2106H109.095V11.1894ZM100.057 21.6736C97.0587 21.6736 95.4 20.3763 95.4 17.0588V11.1894H98.1646V17.1014C98.1646 18.5262 98.8025 19.1854 100.036 19.1854C101.269 19.1854 101.907 18.5262 101.907 17.1014V11.1894H104.672V17.0588C104.693 20.3763 103.035 21.6736 100.057 21.6736ZM86.2342 16.3145C86.2342 18.1434 87.3614 19.228 88.8287 19.228C90.2961 19.228 91.4232 18.1434 91.4232 16.3145C91.4232 14.4856 90.2961 13.401 88.8287 13.401C87.3826 13.401 86.2342 14.4644 86.2342 16.3145ZM88.8287 21.6736C85.5537 21.6736 83.4484 19.228 83.4484 16.3145C83.4484 13.4011 85.5325 10.9554 88.8287 10.9554C92.1037 10.9554 94.2091 13.4011 94.2091 16.3145C94.2091 19.228 92.125 21.6736 88.8287 21.6736ZM75.0057 16.3145C75.0057 17.9733 75.984 19.228 77.5364 19.228C79.0888 19.228 80.0671 17.9733 80.0671 16.3145C80.0671 14.6558 79.0888 13.401 77.5364 13.401C75.984 13.401 75.0057 14.6558 75.0057 16.3145ZM75.0908 20.3338V24.587C75.0908 24.8848 74.8994 25.1187 74.6229 25.2038L72.3262 25.7992V11.1894H74.8781V12.4441C75.5161 11.5084 76.6857 10.9554 78.1318 10.9554C81.1091 10.9554 82.8317 13.3373 82.8317 16.3145C82.8317 19.2918 81.0878 21.6736 78.1318 21.6736C76.6645 21.6736 75.6224 21.0356 75.0908 20.3338ZM64.0749 15.6127V21.4397H61.3103V15.3575C61.3103 14.2304 60.9063 13.3373 59.6728 13.3373C58.3756 13.3373 57.6738 14.1666 57.6738 15.5489V21.4397H54.9092V11.1894H57.4611V12.4441C57.929 11.5722 58.9498 10.9554 60.4171 10.9554C61.7994 10.9554 62.7989 11.5084 63.3944 12.4015C64.2876 11.402 65.3296 10.9554 66.797 10.9554C69.2639 10.9554 70.5186 12.6567 70.5186 15.0385V21.4397H67.754V15.3575C67.754 14.2304 67.3499 13.3373 66.1165 13.3373C64.7554 13.3373 64.0749 14.1879 64.0749 15.6127ZM45.6372 16.3145C45.6372 18.1434 46.7643 19.228 48.2316 19.228C49.699 19.228 50.8261 18.1434 50.8261 16.3145C50.8261 14.4856 49.699 13.401 48.2316 13.401C46.7643 13.401 45.6372 14.4644 45.6372 16.3145ZM48.2316 21.6736C44.9566 21.6736 42.8513 19.228 42.8513 16.3145C42.8513 13.4011 44.9354 10.9554 48.2316 10.9554C51.5279 10.9554 53.612 13.4011 53.612 16.3145C53.612 19.228 51.5066 21.6736 48.2316 21.6736ZM28.4541 14.4644C28.4541 10.1261 31.4526 7.25513 35.4294 7.25513C38.8958 7.25513 41.6179 9.29668 42.1495 12.678H39.1084C38.7044 10.9342 37.3008 9.95593 35.4294 9.95593C32.8987 9.95593 31.4526 11.721 31.4526 14.4431C31.4526 17.1864 32.8775 18.9302 35.4294 18.9302C37.2796 18.9302 38.6831 17.952 39.1084 16.2082H42.1495C41.6179 19.5895 38.8958 21.6311 35.4294 21.6311C31.4526 21.6948 28.4541 18.8026 28.4541 14.4644Z" fill="white"/>
<path d="M1.14837 22.2903C0.446589 21.865 0 21.0781 0 20.27V15.6553C0 15.4851 0.0425324 15.315 0.127597 15.1661C0.404057 14.6983 1.02078 14.5282 1.48863 14.8046L11.909 20.8867C12.5258 21.2483 12.8873 21.8862 12.8873 22.6093V27.3942C12.8873 27.6068 12.8235 27.8195 12.7172 28.0109C12.3769 28.5638 11.6326 28.7552 11.0797 28.4149L1.14837 22.2903ZM16.6939 13.5286C17.3106 13.8902 17.6722 14.5282 17.6722 15.2512V24.9698C17.6722 25.2676 17.5233 25.5228 17.2681 25.6716L14.9926 26.9476C14.9714 26.9689 14.9288 26.9688 14.9076 26.9901V21.6098C14.9076 20.908 14.5461 20.27 13.9506 19.9085L4.80615 14.4431V8.29717C4.80615 8.12704 4.84868 7.95691 4.93375 7.80805C5.21021 7.34019 5.82693 7.17006 6.29478 7.44652L16.6939 13.5286ZM21.2449 6.34068C21.8616 6.7022 22.2231 7.34019 22.2231 8.06324V22.2478C22.2231 22.5455 22.053 22.8007 21.7978 22.9495L19.6287 24.1192V14.2517C19.6287 13.5499 19.2671 12.9119 18.6717 12.5504L9.31458 6.93614V1.17301C9.31458 1.00288 9.35711 0.832751 9.44217 0.683888C9.71863 0.216033 10.3354 0.0459009 10.8032 0.322361L21.2449 6.34068Z" fill="white"/>
</svg>
