<svg width="72" height="23" viewBox="0 0 72 23" fill="none" xmlns="http://www.w3.org/2000/svg">
<g clipPath="url(#clip0_2047_258)">
<path d="M44.6574 18.0667C40.4784 21.1851 34.4211 22.8488 29.2059 22.8488C21.8934 22.8488 15.3102 20.1108 10.3298 15.5568C9.93852 15.1987 10.2891 14.7107 10.7587 14.9895C16.1335 18.1554 22.7793 20.06 29.6442 20.06C34.274 20.06 39.3671 19.0903 44.0502 17.078C44.7576 16.7737 45.3493 17.547 44.6574 18.0667Z" fill="white"/>
<path d="M46.3953 16.0544C45.8631 15.3635 42.8642 15.728 41.5181 15.8896C41.1081 15.9403 41.0455 15.579 41.4148 15.3191C43.8033 13.6174 47.7225 14.1086 48.1796 14.679C48.6366 15.2526 48.0606 19.2298 45.8161 21.128C45.4718 21.4196 45.1431 21.2643 45.2965 20.8777C45.8005 19.6037 46.9306 16.7484 46.3953 16.0544Z" fill="white"/>
<path d="M41.6117 3.30518V1.65092C41.6117 1.40057 41.7995 1.2326 42.0249 1.2326H49.3405C49.5753 1.2326 49.7631 1.40373 49.7631 1.65092V3.0675C49.76 3.30518 49.5628 3.61574 49.2122 4.10695L45.4213 9.58627C46.83 9.55141 48.3169 9.76374 49.5941 10.4926C49.8821 10.6574 49.9603 10.8983 49.9823 11.1359V12.9011C49.9823 13.142 49.7193 13.424 49.4438 13.2782C47.1931 12.0835 44.2036 11.9536 41.715 13.2909C41.4614 13.4304 41.1953 13.1515 41.1953 12.9106V11.2342C41.1953 10.9648 41.1984 10.5053 41.4645 10.0965L45.8564 3.72032H42.0343C41.7995 3.72032 41.6117 3.55236 41.6117 3.30518Z" fill="white"/>
<path d="M14.925 13.6269H12.6993C12.4865 13.611 12.3174 13.4494 12.3018 13.2434V1.67949C12.3018 1.44815 12.4927 1.26434 12.7306 1.26434H14.8061C15.022 1.27384 15.1942 1.44181 15.2099 1.65097V3.16262H15.2506C15.7921 1.70167 16.8095 1.02032 18.1806 1.02032C19.5736 1.02032 20.4438 1.70167 21.0699 3.16262C21.6083 1.70167 22.8323 1.02032 24.1439 1.02032C25.0768 1.02032 26.0973 1.41012 26.7202 2.28478C27.4246 3.25769 27.2806 4.67109 27.2806 5.9102L27.2774 13.2086C27.2774 13.4399 27.0865 13.6269 26.8486 13.6269H24.626C24.4038 13.611 24.2253 13.4304 24.2253 13.2086V7.07959C24.2253 6.59155 24.2692 5.37463 24.1627 4.91194C23.9968 4.13552 23.4991 3.91685 22.8542 3.91685C22.3158 3.91685 21.7523 4.2813 21.5238 4.86441C21.2953 5.44752 21.3172 6.42359 21.3172 7.07959V13.2086C21.3172 13.4399 21.1263 13.6269 20.8884 13.6269H18.6658C18.4404 13.611 18.2651 13.4304 18.2651 13.2086L18.262 7.07959C18.262 5.78977 18.4717 3.8915 16.8909 3.8915C15.2913 3.8915 15.3539 5.74224 15.3539 7.07959V13.2086C15.3539 13.4399 15.1629 13.6269 14.925 13.6269Z" fill="white"/>
<path d="M56.0613 1.02032C59.3639 1.02032 61.1513 3.8915 61.1513 7.54227C61.1513 11.0694 59.176 13.8677 56.0613 13.8677C52.8183 13.8677 51.0527 10.9966 51.0527 7.41868C51.0527 3.81861 52.8402 1.02032 56.0613 1.02032ZM56.0801 3.38128C54.4398 3.38128 54.3365 5.644 54.3365 7.05423C54.3365 8.46764 54.3146 11.4846 56.0613 11.4846C57.7862 11.4846 57.8676 9.05075 57.8676 7.56762C57.8676 6.59155 57.8269 5.42533 57.5357 4.49996C57.2853 3.69502 56.7876 3.38128 56.0801 3.38128Z" fill="white"/>
<path d="M65.4336 13.6269H63.2173C62.995 13.611 62.8166 13.4304 62.8166 13.2086L62.8135 1.64146C62.8323 1.42913 63.0169 1.26434 63.2423 1.26434H65.3052C65.4993 1.27384 65.659 1.40695 65.7028 1.58759V3.35593H65.7435C66.3664 1.77456 67.2398 1.02032 68.7768 1.02032C69.7754 1.02032 70.749 1.38477 71.375 2.38302C71.9573 3.30839 71.9573 4.86441 71.9573 5.98309V13.2624C71.9322 13.4653 71.7475 13.6269 71.5284 13.6269H69.2965C69.093 13.611 68.924 13.4589 68.902 13.2624V6.98134C68.902 5.71689 69.046 3.86615 67.509 3.86615C66.9675 3.86615 66.4697 4.23376 66.2224 4.79152C65.9094 5.49822 65.8687 6.20175 65.8687 6.98134V13.2086C65.8656 13.4399 65.6715 13.6269 65.4336 13.6269Z" fill="white"/>
<path d="M6.60207 8.10321V7.61518C4.99306 7.61518 3.29327 7.96377 3.29327 9.88423C3.29327 10.8571 3.791 11.5163 4.64559 11.5163C5.27166 11.5163 5.832 11.1265 6.18573 10.4927C6.62398 9.7131 6.60207 8.98104 6.60207 8.10321ZM8.84655 13.5952C8.69942 13.7283 8.48655 13.7378 8.32064 13.6491C7.58188 13.0279 7.4504 12.7396 7.04345 12.1469C5.82261 13.4082 4.95863 13.7854 3.37466 13.7854C1.5027 13.7854 0.0439453 12.616 0.0439453 10.274C0.0439453 8.44547 1.02375 7.20003 2.41676 6.59157C3.62509 6.05282 5.31236 5.95775 6.60207 5.80881V5.51725C6.60207 4.98168 6.64277 4.34786 6.33286 3.88518C6.06051 3.47003 5.54087 3.2989 5.08384 3.2989C4.23551 3.2989 3.47796 3.7394 3.29327 4.65209C3.2557 4.85492 3.10858 5.05457 2.90823 5.06407L0.748279 4.82956C0.566717 4.78837 0.366373 4.63942 0.416459 4.35737C0.914188 1.70803 3.27762 0.909424 5.39375 0.909424C6.47685 0.909424 7.89178 1.20098 8.74637 2.03127C9.82948 3.05488 9.72618 4.42075 9.72618 5.90705V9.41838C9.72618 10.4737 10.1582 10.9364 10.5651 11.5068C10.7091 11.7096 10.7404 11.9536 10.5589 12.1057C10.105 12.4892 9.29732 13.2022 8.8528 13.6015L8.84655 13.5952" fill="white"/>
<path d="M35.8687 8.10321V7.61518C34.2597 7.61518 32.5599 7.96377 32.5599 9.88423C32.5599 10.8571 33.0576 11.5163 33.9122 11.5163C34.5383 11.5163 35.0986 11.1265 35.4523 10.4927C35.8906 9.7131 35.8687 8.98104 35.8687 8.10321ZM38.1131 13.5952C37.966 13.7283 37.7532 13.7378 37.5872 13.6491C36.8485 13.0279 36.717 12.7396 36.3101 12.1469C35.0892 13.4082 34.2252 13.7854 32.6413 13.7854C30.7693 13.7854 29.3105 12.616 29.3105 10.274C29.3105 8.44547 30.2904 7.20003 31.6834 6.59157C32.8917 6.05282 34.579 5.95775 35.8687 5.80881V5.51725C35.8687 4.98168 35.9094 4.34786 35.5995 3.88518C35.3271 3.47003 34.8075 3.2989 34.3504 3.2989C33.5021 3.2989 32.7446 3.7394 32.5599 4.65209C32.5223 4.85492 32.3752 5.05457 32.1748 5.06407L30.0149 4.82956C29.8333 4.78837 29.633 4.63942 29.6831 4.35737C30.1808 1.70803 32.5442 0.909424 34.6603 0.909424C35.7435 0.909424 37.1584 1.20098 38.013 2.03127C39.0961 3.05488 38.9928 4.42075 38.9928 5.90705V9.41838C38.9928 10.4737 39.4248 10.9364 39.8317 11.5068C39.9757 11.7096 40.007 11.9536 39.8255 12.1057C39.3716 12.4892 38.5639 13.2022 38.1194 13.6015L38.1131 13.5952" fill="white"/>
</g>
<defs>
<clipPath id="clip0_2047_258">
<rect width="72" height="22" fill="white" transform="translate(0 0.879639)"/>
</clipPath>
</defs>
</svg>
