<svg width="78" height="19" viewBox="0 0 78 19" fill="none" xmlns="http://www.w3.org/2000/svg">
<path d="M11.2473 6.17316C10.8991 5.8939 10.4638 5.73681 10.0286 5.73681C9.45402 5.73681 8.91429 5.99862 8.54866 6.43497L4.70089 11.0777C4.10893 11.7933 4.10893 12.8231 4.70089 13.5387L8.56607 18.1815C8.9317 18.6178 9.47143 18.8796 10.0286 18.8796C11.0732 18.8796 11.9438 18.0069 11.9438 16.9597C11.9438 16.5059 11.7871 16.0696 11.4911 15.7379L8.65312 12.317L11.4911 8.89598C11.7696 8.5469 11.9438 8.11055 11.9438 7.6742C11.9438 7.08077 11.6826 6.5397 11.2473 6.17316ZM1.91518 5.73681C0.870536 5.73681 0 6.60951 0 7.65675V16.9597C0.0174107 17.9895 0.887946 18.8447 1.91518 18.8447C2.94241 18.8447 3.81295 18.0069 3.83036 16.9597V7.65675C3.83036 6.60951 2.95982 5.73681 1.91518 5.73681ZM35.5179 9.57668C36.5451 9.55923 37.3982 8.68653 37.3982 7.65675C37.3982 6.60951 36.5625 5.75427 35.5179 5.73681H27.4045C26.3598 5.73681 25.4893 6.60951 25.4893 7.65675V11.1475C25.4893 12.0028 26.0638 12.7533 26.8821 12.9977L33.6027 14.9176V15.0398H27.4045C27.3871 15.0398 27.3696 15.0398 27.3696 15.0398C26.325 15.0398 25.4545 15.9125 25.4545 16.9597C25.4545 18.0069 26.325 18.8796 27.3696 18.8796C27.3871 18.8796 27.4045 18.8796 27.4045 18.8796H35.5179C36.5625 18.8796 37.433 18.0069 37.433 16.9597V13.4689C37.433 12.6137 36.8585 11.8632 36.0402 11.6188L29.3196 9.69886V9.57668H35.5179ZM22.7732 5.73681C21.7286 5.73681 20.858 6.60951 20.858 7.65675V15.0223H16.575V7.65675C16.575 7.6393 16.575 7.62184 16.575 7.62184C16.575 6.5746 15.7045 5.70191 14.6598 5.70191C13.6152 5.70191 12.7446 6.5746 12.7446 7.62184C12.7446 7.6393 12.7446 7.65675 12.7446 7.65675V16.9597C12.7446 18.0069 13.6152 18.8796 14.6598 18.8796H22.7732C23.8179 18.8796 24.6884 18.0069 24.6884 16.9597V7.65675C24.6884 6.60951 23.8179 5.73681 22.7732 5.73681ZM45.1112 6.43497C44.7455 5.99862 44.2058 5.73681 43.6487 5.73681H40.1665C39.1219 5.73681 38.2513 6.60951 38.2513 7.65675V16.9597C38.2513 18.0069 39.1219 18.8796 40.1665 18.8796H44.9545C45.9817 18.8622 46.8348 17.9895 46.8348 16.9597C46.8348 15.9125 45.9991 15.0572 44.9545 15.0398H42.0817V9.59414H42.7433L47.5138 15.3365V16.9597C47.5312 17.9895 48.4018 18.8447 49.429 18.8447C50.4562 18.8447 51.3268 18.0069 51.3442 16.9597V14.6383C51.3442 14.1845 51.1875 13.7482 50.8915 13.4166L45.1112 6.43497ZM77.5647 13.3991L71.767 6.43497C71.4013 5.99862 70.8616 5.73681 70.3045 5.73681H66.8223C65.7777 5.73681 64.9071 6.60951 64.9071 7.65675V16.9597C64.9071 18.0069 65.7777 18.8796 66.8223 18.8796H71.6103C72.6375 18.8622 73.4906 17.9895 73.4906 16.9597C73.4906 15.9125 72.6549 15.0572 71.6103 15.0398H68.7375V9.59414H69.3991L74.1696 15.3365V16.9597C74.1871 17.9895 75.0576 18.8447 76.0848 18.8447C77.1121 18.8447 77.9826 18.0069 78 16.9597V14.6383C78 14.1845 77.8433 13.7482 77.5647 13.3991ZM62.9746 5.91135C62.2955 5.59718 61.4946 5.71936 60.9201 6.19062L58.117 8.59926L55.2964 6.19062C54.9482 5.8939 54.5129 5.73681 54.0429 5.73681C52.9982 5.73681 52.1277 6.60951 52.1277 7.65675V16.9597C52.1451 17.9895 53.0156 18.8447 54.0429 18.8447C55.0701 18.8447 55.9406 18.0069 55.958 16.9597V11.8282L56.8634 12.5962C57.5772 13.2071 58.6393 13.2071 59.3531 12.5962L60.2411 11.8282V16.9422C60.2411 17.9895 61.1116 18.8622 62.1563 18.8622C63.2009 18.8622 64.0714 17.9895 64.0714 16.9422V7.63929C64.1063 6.90623 63.6536 6.22553 62.9746 5.91135ZM49.5509 4.86412V4.93393C49.5509 4.93393 52.1799 3.8867 52.7022 4.16596L52.3888 4.25323C52.4237 4.25323 52.9112 4.28814 52.9112 4.28814C52.9286 4.49758 53.0504 4.68958 53.2246 4.7943C53.5205 4.98629 53.5379 5.10847 53.5379 5.10847C53.5379 5.10847 53.3813 5.17829 53.3813 5.2481C53.5205 5.2132 53.6772 5.17829 53.8339 5.17829C53.9732 5.17829 54.1125 5.2132 54.2344 5.2481C54.3737 5.28301 54.217 5.16083 54.008 5.10847C53.7991 5.03866 53.5902 4.82921 53.4857 4.68958C53.3638 4.53249 53.329 4.30559 53.3987 4.1136C53.4683 3.9216 53.7295 3.81688 54.2518 3.55507C54.8612 3.2409 55.0004 2.99655 55.0875 2.82201C55.1746 2.63001 55.2964 2.26348 55.3661 2.10639C55.4183 1.94931 55.5228 1.80968 55.6621 1.6875C55.7491 1.61768 56.167 1.4606 56.167 1.4606C56.167 1.4606 55.8536 1.18133 55.7491 1.11152C55.6272 0.989341 55.4531 0.90207 55.279 0.884617C55.0527 0.849709 54.8438 1.00679 54.6871 1.09406C54.5304 1.19879 54.2518 1.47805 54.1299 1.56532C54.008 1.65259 53.7121 1.72241 53.2246 2.01912C52.7371 2.31584 50.8393 3.53762 50.8393 3.53762H51.3268L49.1156 4.68958H49.342L49.0286 4.93393C49.2201 4.98629 49.3942 4.95139 49.5509 4.86412Z" fill="#101216"/>
</svg>
