<svg width="93" height="15" viewBox="0 0 93 15" fill="none" xmlns="http://www.w3.org/2000/svg">
<g clip-path="url(#clip0_2025_1397)">
<path d="M88.297 7.02859V8.93439H89.6597V10.8252C89.6639 10.9942 89.6546 11.1764 89.625 11.3223C89.5709 11.675 89.23 12.2755 88.2627 12.2755C87.3012 12.2755 86.9664 11.675 86.9084 11.3223C86.884 11.1764 86.8736 10.9942 86.8736 10.8252V4.85298C86.8736 4.64173 86.8881 4.41051 86.9337 4.2355C86.9997 3.9172 87.2867 3.28948 88.2555 3.28948C89.2725 3.28948 89.5264 3.95126 89.5846 4.2355C89.6228 4.42377 89.625 4.73955 89.625 4.73955V5.46476H92.9733V5.03605C92.9733 5.03605 92.9885 4.58871 92.9479 4.17124C92.6962 1.71995 90.6413 0.944406 88.2851 0.944406C85.9246 0.944406 83.9113 1.72716 83.618 4.17124C83.5915 4.39474 83.5511 4.79677 83.5511 5.03605V10.5299C83.5511 10.7692 83.5589 10.9545 83.604 11.3917C83.8225 13.7756 85.9246 14.6206 88.2757 14.6206C90.6413 14.6206 92.7288 13.7756 92.9511 11.3917C92.9905 10.9545 92.9946 10.7692 92.9999 10.5299V7.02859H88.297ZM65.2101 1.29593H61.8476V10.963C61.8529 11.1315 61.8476 11.3207 61.8181 11.4595C61.7479 11.784 61.4681 12.4085 60.5404 12.4085C59.6247 12.4085 59.3376 11.784 59.2727 11.4595C59.2391 11.3207 59.2348 11.1315 59.2391 10.963V1.29593H55.8776V10.663C55.8734 10.9044 55.8927 11.3978 55.9072 11.527C56.1392 13.9678 58.0964 14.7603 60.5404 14.7603C62.9892 14.7603 64.9453 13.9678 65.1816 11.527C65.2002 11.3978 65.2246 10.9044 65.2101 10.663V1.29593ZM34.3154 1.29593L32.6381 11.5105L30.9618 1.29593H25.5379L25.2503 14.3633H28.5731L28.6631 2.26645L30.9493 14.3633H34.3207L36.609 2.26645L36.6993 14.3633H40.0305L39.7331 1.29593H34.3154ZM14.2337 1.29593L11.771 14.3633H15.3623L17.2182 2.26645L19.0295 14.3633H22.596L20.1434 1.29593H14.2337ZM76.9612 11.8167L73.8303 1.29593H68.8965V14.2271H72.1603L71.9708 3.36969L75.3333 14.2271H80.065V1.29593H76.7799L76.9612 11.8167ZM46.7719 4.69677C46.7128 4.4387 46.7299 4.16453 46.7605 4.02123C46.8556 3.60292 47.1415 3.14669 47.9654 3.14669C48.7333 3.14669 49.1835 3.61718 49.1835 4.32326V5.12229H52.4612V4.21151C52.4612 1.39594 49.893 0.953634 48.0335 0.953634C45.6916 0.953634 43.7791 1.7124 43.4298 3.83095C43.3374 4.40749 43.3146 4.91926 43.4615 5.57231C44.0311 8.21388 48.7099 8.98019 49.389 10.6507C49.5089 10.9672 49.4745 11.3707 49.4134 11.6085C49.3117 12.0433 49.0141 12.4805 48.132 12.4805C47.3047 12.4805 46.8067 12.0131 46.8067 11.3085L46.8057 10.0544H43.2777V11.0513C43.2777 13.9398 45.5796 14.8113 48.059 14.8113C50.4335 14.8113 52.3947 14.0138 52.7093 11.852C52.8594 10.735 52.7462 10.0074 52.6859 9.73342C52.1362 7.02406 47.1494 6.20909 46.7719 4.69677ZM3.53384 4.66472C3.46948 4.40128 3.48451 4.12325 3.52036 3.97828C3.61118 3.56198 3.89883 3.0977 4.73723 3.0977C5.51484 3.0977 5.97271 3.57272 5.97271 4.2845V5.09326H9.28889V4.17527C9.28889 1.33268 6.68136 0.879637 4.80159 0.879637C2.44006 0.879637 0.510444 1.65014 0.157401 3.78397C0.0607749 4.36974 0.0442099 4.88503 0.183857 5.5453C0.759515 8.2169 5.48463 8.98942 6.17211 10.6799C6.30083 10.9942 6.2619 11.3978 6.19806 11.6448C6.08897 12.084 5.78902 12.5275 4.89958 12.5275C4.06904 12.5275 3.57226 12.052 3.57226 11.3377L3.56765 10.0802H0V11.0795C0 14.0011 2.33455 14.8796 4.83317 14.8796C7.23533 14.8796 9.20797 14.0751 9.52977 11.8882C9.68973 10.761 9.56973 10.0274 9.51578 9.74919C8.95463 7.00661 3.91232 6.19432 3.53384 4.66472Z" fill="#101216"/>
</g>
<defs>
<clipPath id="clip0_2025_1397">
<rect width="93" height="14" fill="white" transform="translate(0 0.879639)"/>
</clipPath>
</defs>
</svg>
