<svg width="113" height="15" viewBox="0 0 113 15" fill="none" xmlns="http://www.w3.org/2000/svg">
<g clipPath="url(#clip0_2025_1422)">
<path d="M48.7171 9.98897H56.1722L52.2343 3.9223L44.9945 14.8796H41.7023L50.5075 1.73364C50.6995 1.47131 50.9545 1.25669 51.2513 1.10775C51.5481 0.958817 51.878 0.8799 52.2133 0.877615C52.5487 0.87533 52.8797 0.949743 53.1787 1.09462C53.4777 1.2395 53.7359 1.45062 53.9318 1.7103L62.7614 14.8796H59.4693L57.9186 12.4296H50.3755L48.7318 9.98897H48.7171ZM82.94 12.4296V1.0103H80.1419V13.5543C80.1414 13.7286 80.178 13.9012 80.2495 14.0617C80.3209 14.2221 80.4258 14.367 80.5577 14.4876C80.6901 14.6169 80.8484 14.7195 81.0232 14.7892C81.198 14.8589 81.3857 14.8945 81.5752 14.8936H94.2938L95.9521 12.4436H82.9253L82.94 12.4296ZM36.6785 10.3903C37.9824 10.3903 39.2328 9.89618 40.1548 9.01663C41.0768 8.13709 41.5947 6.94417 41.5947 5.7003C41.5947 4.45644 41.0768 3.26352 40.1548 2.38397C39.2328 1.50443 37.9824 1.0103 36.6785 1.0103H24.449V14.8796H27.2423V3.46497H36.5073C37.1313 3.46497 37.7298 3.70146 38.1711 4.12242C38.6123 4.54337 38.8602 5.11431 38.8602 5.70964C38.8602 6.30496 38.6123 6.8759 38.1711 7.29686C37.7298 7.71781 37.1313 7.9543 36.5073 7.9543H28.6266L36.972 14.8796H41.0273L35.4213 10.3903H36.6785ZM7.26913 14.8796H15.7172C17.6118 14.8327 19.4123 14.0818 20.735 12.7868C22.0576 11.4919 22.7979 9.75534 22.7979 7.9473C22.7979 6.13927 22.0576 4.40272 20.735 3.10777C19.4123 1.81282 17.6118 1.06187 15.7172 1.01497H7.26913C6.29899 0.990956 5.33362 1.1525 4.42997 1.49009C3.52632 1.82768 2.70267 2.33446 2.0076 2.98056C1.31253 3.62667 0.760107 4.399 0.382917 5.25203C0.00572649 6.10505 -0.188599 7.02149 -0.188599 7.9473C-0.188599 8.87312 0.00572649 9.78956 0.382917 10.6426C0.760107 11.4956 1.31253 12.2679 2.0076 12.914C2.70267 13.5601 3.52632 14.0669 4.42997 14.4045C5.33362 14.7421 6.29899 14.9037 7.26913 14.8796ZM15.5265 12.439H7.45502C6.23385 12.4014 5.07586 11.9122 4.22595 11.0748C3.37604 10.2374 2.90084 9.11756 2.90084 7.95197C2.90084 6.78638 3.37604 5.66649 4.22595 4.82912C5.07586 3.99175 6.23385 3.50255 7.45502 3.46497H15.5265C16.1569 3.44557 16.785 3.54728 17.3734 3.76404C17.9618 3.9808 18.4985 4.3082 18.9516 4.72677C19.4048 5.14534 19.7651 5.64655 20.0112 6.2006C20.2572 6.75465 20.384 7.35024 20.384 7.95197C20.384 8.5537 20.2572 9.14929 20.0112 9.70334C19.7651 10.2574 19.4048 10.7586 18.9516 11.1772C18.4985 11.5957 17.9618 11.9231 17.3734 12.1399C16.785 12.3567 16.1569 12.4584 15.5265 12.439ZM68.5973 14.8796H77.2215L78.8554 12.439H68.7881C68.1577 12.4584 67.5296 12.3567 66.9412 12.1399C66.3528 11.9231 65.816 11.5957 65.3629 11.1772C64.9098 10.7586 64.5494 10.2574 64.3034 9.70334C64.0573 9.14929 63.9305 8.5537 63.9305 7.95197C63.9305 7.35024 64.0573 6.75465 64.3034 6.2006C64.5494 5.64655 64.9098 5.14534 65.3629 4.72677C65.816 4.3082 66.3528 3.9808 66.9412 3.76404C67.5296 3.54728 68.1577 3.44557 68.7881 3.46497H76.9818L78.6352 1.01497H68.5973C67.6272 0.990956 66.6618 1.1525 65.7581 1.49009C64.8545 1.82768 64.0308 2.33446 63.3358 2.98056C62.6407 3.62667 62.0883 4.399 61.7111 5.25203C61.3339 6.10505 61.1396 7.02149 61.1396 7.9473C61.1396 8.87312 61.3339 9.78956 61.7111 10.6426C62.0883 11.4956 62.6407 12.2679 63.3358 12.914C64.0308 13.5601 64.8545 14.0669 65.7581 14.4045C66.6618 14.7421 67.6272 14.9037 68.5973 14.8796ZM102.776 12.439C101.751 12.4393 100.754 12.1205 99.9366 11.5309C99.119 10.9412 98.5255 10.1131 98.2464 9.1723H110.192L111.836 6.72697H98.2464C98.5248 5.78577 99.1181 4.95719 99.9358 4.36746C100.754 3.77772 101.751 3.45916 102.776 3.4603H110.975L112.614 1.0103H102.585C100.691 1.0572 98.8903 1.80815 97.5676 3.1031C96.2449 4.39805 95.5047 6.1346 95.5047 7.94264C95.5047 9.75068 96.2449 11.4872 97.5676 12.7822C98.8903 14.0771 100.691 14.8281 102.585 14.875H111.21L112.848 12.4343H102.771" fill="#101216"/>
</g>
<defs>
<clipPath id="clip0_2025_1422">
<rect width="113" height="14" fill="white" transform="translate(0 0.879639)"/>
</clipPath>
</defs>
</svg>
