<svg width="72" height="23" viewBox="0 0 72 23" fill="none" xmlns="http://www.w3.org/2000/svg">
<g clipPath="url(#clip0_2025_1439)">
<path d="M44.6574 18.0667C40.4784 21.1851 34.4211 22.8488 29.2059 22.8488C21.8934 22.8488 15.3102 20.1108 10.3298 15.5568C9.93852 15.1987 10.2891 14.7107 10.7587 14.9896C16.1335 18.1555 22.7793 20.0601 29.6442 20.0601C34.274 20.0601 39.3671 19.0903 44.0502 17.078C44.7576 16.7737 45.3493 17.547 44.6574 18.0667Z" fill="#101216"/>
<path d="M46.3948 16.0544C45.8627 15.3635 42.8638 15.7279 41.5177 15.8896C41.1076 15.9403 41.045 15.579 41.4144 15.3191C43.8029 13.6173 47.7221 14.1086 48.1791 14.679C48.6362 15.2526 48.0602 19.2298 45.8157 21.128C45.4714 21.4196 45.1427 21.2643 45.2961 20.8777C45.8001 19.6037 46.9301 16.7484 46.3948 16.0544Z" fill="#101216"/>
<path d="M41.6117 3.3052V1.65094C41.6117 1.40059 41.7995 1.23263 42.0249 1.23263H49.3405C49.5753 1.23263 49.7631 1.40376 49.7631 1.65094V3.06752C49.76 3.3052 49.5628 3.61577 49.2122 4.10697L45.4213 9.58629C46.83 9.55143 48.3169 9.76376 49.5941 10.4926C49.8821 10.6574 49.9603 10.8983 49.9823 11.136V12.9011C49.9823 13.142 49.7193 13.424 49.4438 13.2783C47.1931 12.0835 44.2036 11.9536 41.715 13.2909C41.4614 13.4304 41.1953 13.1515 41.1953 12.9106V11.2342C41.1953 10.9648 41.1984 10.5053 41.4645 10.0965L45.8564 3.72035H42.0343C41.7995 3.72035 41.6117 3.55239 41.6117 3.3052Z" fill="#101216"/>
<path d="M14.9252 13.6269H12.6996C12.4867 13.611 12.3177 13.4494 12.302 13.2434V1.67947C12.302 1.44812 12.493 1.26432 12.7309 1.26432H14.8063C15.0223 1.27382 15.1945 1.44178 15.2101 1.65094V3.16259H15.2508C15.7924 1.70165 16.8097 1.0203 18.1808 1.0203C19.5738 1.0203 20.4441 1.70165 21.0702 3.16259C21.6086 1.70165 22.8326 1.0203 24.1442 1.0203C25.077 1.0203 26.0975 1.41009 26.7205 2.28476C27.4248 3.25766 27.2808 4.67107 27.2808 5.91017L27.2777 13.2085C27.2777 13.4399 27.0867 13.6269 26.8488 13.6269H24.6263C24.404 13.611 24.2256 13.4304 24.2256 13.2085V7.07956C24.2256 6.59152 24.2694 5.3746 24.163 4.91191C23.9971 4.13549 23.4993 3.91683 22.8545 3.91683C22.316 3.91683 21.7526 4.28127 21.5241 4.86438C21.2955 5.44749 21.3175 6.42356 21.3175 7.07956V13.2085C21.3175 13.4399 21.1265 13.6269 20.8886 13.6269H18.666C18.4407 13.611 18.2654 13.4304 18.2654 13.2085L18.2622 7.07956C18.2622 5.78975 18.472 3.89147 16.8911 3.89147C15.2915 3.89147 15.3541 5.74221 15.3541 7.07956V13.2085C15.3541 13.4399 15.1632 13.6269 14.9252 13.6269Z" fill="#101216"/>
<path d="M56.0614 1.0203C59.3639 1.0203 61.1514 3.89147 61.1514 7.54224C61.1514 11.0694 59.1761 13.8677 56.0614 13.8677C52.8183 13.8677 51.0528 10.9965 51.0528 7.41865C51.0528 3.81859 52.8402 1.0203 56.0614 1.0203ZM56.0802 3.38126C54.4399 3.38126 54.3366 5.64397 54.3366 7.05421C54.3366 8.46761 54.3146 11.4846 56.0614 11.4846C57.7862 11.4846 57.8676 9.05072 57.8676 7.5676C57.8676 6.59152 57.8269 5.42531 57.5358 4.49994C57.2854 3.69499 56.7876 3.38126 56.0802 3.38126Z" fill="#101216"/>
<path d="M65.4338 13.6269H63.2175C62.9952 13.611 62.8168 13.4304 62.8168 13.2085L62.8137 1.64144C62.8324 1.42911 63.0171 1.26432 63.2425 1.26432H65.3054C65.4995 1.27382 65.6592 1.40693 65.703 1.58756V3.3559H65.7437C66.3666 1.77454 67.24 1.0203 68.777 1.0203C69.7756 1.0203 70.7491 1.38474 71.3752 2.383C71.9575 3.30837 71.9575 4.86438 71.9575 5.98306V13.2624C71.9324 13.4652 71.7477 13.6269 71.5286 13.6269H69.2966C69.0932 13.611 68.9241 13.4589 68.9022 13.2624V6.98132C68.9022 5.71686 69.0462 3.86612 67.5092 3.86612C66.9677 3.86612 66.4699 4.23374 66.2226 4.79149C65.9096 5.49819 65.8689 6.20173 65.8689 6.98132V13.2085C65.8658 13.4399 65.6717 13.6269 65.4338 13.6269Z" fill="#101216"/>
<path d="M6.60158 8.10318V7.61514C4.99257 7.61514 3.29278 7.96374 3.29278 9.8842C3.29278 10.8571 3.79051 11.5163 4.6451 11.5163C5.27117 11.5163 5.83151 11.1265 6.18524 10.4927C6.62349 9.71307 6.60158 8.98101 6.60158 8.10318ZM8.84606 13.5952C8.69893 13.7283 8.48606 13.7378 8.32015 13.6491C7.58139 13.0279 7.44991 12.7395 7.04296 12.1469C5.82212 13.4082 4.95814 13.7853 3.37417 13.7853C1.50221 13.7853 0.043457 12.6159 0.043457 10.274C0.043457 8.44544 1.02326 7.2 2.41628 6.59154C3.6246 6.05279 5.31187 5.95772 6.60158 5.80878V5.51722C6.60158 4.98165 6.64228 4.34783 6.33237 3.88515C6.06003 3.47 5.54039 3.29887 5.08335 3.29887C4.23502 3.29887 3.47747 3.73937 3.29278 4.65206C3.25521 4.85489 3.10809 5.05454 2.90775 5.06404L0.74779 4.82953C0.566228 4.78834 0.365885 4.63939 0.41597 4.35734C0.9137 1.708 3.27713 0.909393 5.39326 0.909393C6.47637 0.909393 7.89129 1.20095 8.74588 2.03124C9.82899 3.05485 9.72569 4.42072 9.72569 5.90702V9.41835C9.72569 10.4736 10.1577 10.9363 10.5646 11.5068C10.7086 11.7096 10.7399 11.9536 10.5584 12.1057C10.1045 12.4892 9.29683 13.2022 8.85232 13.6015L8.84606 13.5952" fill="#101216"/>
<path d="M35.8691 8.10318V7.61514C34.2601 7.61514 32.5603 7.96374 32.5603 9.8842C32.5603 10.8571 33.058 11.5163 33.9126 11.5163C34.5387 11.5163 35.099 11.1265 35.4528 10.4927C35.891 9.71307 35.8691 8.98101 35.8691 8.10318ZM38.1136 13.5952C37.9664 13.7283 37.7536 13.7378 37.5877 13.6491C36.8489 13.0279 36.7174 12.7395 36.3105 12.1469C35.0896 13.4082 34.2257 13.7853 32.6417 13.7853C30.7697 13.7853 29.311 12.6159 29.311 10.274C29.311 8.44544 30.2908 7.2 31.6838 6.59154C32.8921 6.05279 34.5794 5.95772 35.8691 5.80878V5.51722C35.8691 4.98165 35.9098 4.34783 35.5999 3.88515C35.3275 3.47 34.8079 3.29887 34.3509 3.29887C33.5025 3.29887 32.745 3.73937 32.5603 4.65206C32.5227 4.85489 32.3756 5.05454 32.1753 5.06404L30.0153 4.82953C29.8337 4.78834 29.6334 4.63939 29.6835 4.35734C30.1812 1.708 32.5446 0.909393 34.6608 0.909393C35.7439 0.909393 37.1588 1.20095 38.0134 2.03124C39.0965 3.05485 38.9932 4.42072 38.9932 5.90702V9.41835C38.9932 10.4736 39.4252 10.9363 39.8321 11.5068C39.9761 11.7096 40.0074 11.9536 39.8259 12.1057C39.372 12.4892 38.5643 13.2022 38.1198 13.6015L38.1136 13.5952" fill="#101216"/>
</g>
<defs>
<clipPath id="clip0_2025_1439">
<rect width="72" height="22" fill="white" transform="translate(0 0.879639)"/>
</clipPath>
</defs>
</svg>
