<svg width="244" height="73" viewBox="0 0 244 73" fill="none" xmlns="http://www.w3.org/2000/svg">
<path d="M124.116 10.0159H127.768V9.13061L126.827 8.18994H122.29L121.349 9.13061V16.4348L122.29 17.3202H126.827L127.768 16.4348V15.5494H124.116V13.7234H127.768V11.8973H124.116V10.0159Z" fill="#191C22"/>
<path d="M127.159 0H122.013V5.14616H127.159V0Z" fill="#191C22"/>
<path d="M117.144 8.18935V11.8414H114.432V8.18935H112.606L111.666 9.13002V16.4343L112.606 17.3196H114.432V13.6675H117.144V17.3196H118.97L119.855 16.4343V9.0747L118.97 8.13403H117.144V8.18935Z" fill="#191C22"/>
<path d="M102.867 8.18994L101.927 9.13061V10.0159H104.638V16.3795L105.579 17.2649H106.464L107.35 16.3795V10.0159H110.061V9.13061L109.176 8.18994H102.867Z" fill="#191C22"/>
<path d="M3.6521 20.4187L0 24.0708V38.6792L3.6521 42.3313H18.2605V49.6355H10.9563V45.9834H0V53.2876L3.6521 56.9397H25.5093L29.1614 53.2876V38.6792L25.5093 35.0271H10.9563V27.7229H18.2605V31.375H29.2168V24.0708L25.5647 20.4187H3.6521Z" fill="#191C22"/>
<path d="M102.093 20.4187V56.8844H127.602L131.254 53.2323V24.0708L127.602 20.4187H102.093ZM113.049 27.7229H120.353V49.5801H113.049V27.7229Z" fill="#191C22"/>
<path d="M134.906 20.4184V56.884H160.416L164.068 53.2319V42.2756L160.416 38.6235L164.068 34.9714V24.0151L160.416 20.363L134.906 20.4184ZM145.863 42.3309H153.167V49.6352H145.863V42.3309ZM145.863 35.0268V27.7225H153.167V35.0268H145.863Z" fill="#191C22"/>
<path d="M171.372 20.4187L167.72 24.0708V53.2323L171.372 56.8844H193.229L196.881 53.2323V24.0708L193.229 20.4187H171.372ZM178.676 27.7229H185.98V49.5801H178.676V27.7229Z" fill="#191C22"/>
<path d="M236.611 31.7667L229.724 38.6531L236.611 45.5395L243.497 38.6531L236.611 31.7667Z" fill="#191C22"/>
<path d="M46.9718 58.9117L40.0854 65.7981L46.9719 72.6845L53.8583 65.7981L46.9718 58.9117Z" fill="#191C22"/>
<path d="M218.794 20.4187V31.375L215.142 35.0271L211.49 31.375V20.4187H204.186L200.534 24.0708V35.0271L204.186 38.6792L200.534 42.3313V53.2876L204.186 56.9397H211.49V45.9834L215.142 42.3313L218.794 45.9834V56.9397H226.098L229.75 53.2876V42.3313L226.098 38.6792L229.75 35.0271V24.0708L226.098 20.4187H218.794Z" fill="#191C22"/>
<path d="M87.4844 20.4187V31.375L76.5281 20.4187H69.2239L65.5718 24.0708V53.2323L69.2239 56.8844H76.5281V35.0271L87.4844 45.9834V56.9397H94.7886L98.4407 53.2876V24.1261L94.7886 20.474H87.4844V20.4187Z" fill="#191C22"/>
<path d="M58.3228 20.5291H36.4656L32.8135 24.1812V53.3426L36.4656 56.9947H43.7698V42.3863H51.074V56.9947H58.3782L62.0303 53.3426V24.1812L58.3228 20.5291ZM47.4219 36.4102L42.7737 31.762L47.4219 27.1139L52.07 31.762L47.4219 36.4102Z" fill="#191C22"/>
</svg>
