<svg width="81" height="23" viewBox="0 0 81 23" fill="none" xmlns="http://www.w3.org/2000/svg">
<g clipPath="url(#clip0_2025_1412)">
<path d="M10.3682 18.2704L10.3104 18.3264C9.37984 19.2774 8.30275 19.7815 7.1929 19.7815C4.87624 19.7815 3.19459 18.0382 3.19459 15.633C3.19459 13.2321 4.87624 11.4864 7.1929 11.4864C8.30275 11.4864 9.37984 11.9925 10.3104 12.946L10.3682 13.0037L11.858 11.1967L11.8182 11.1477C10.5792 9.67903 9.09251 8.96409 7.26482 8.96409C5.4308 8.96409 3.75428 9.58319 2.546 10.6997C1.23319 11.9088 0.540039 13.6139 0.540039 15.633C0.540039 17.651 1.23319 19.3604 2.546 20.5698C3.75428 21.6914 5.4308 22.3071 7.26482 22.3071C9.09251 22.3071 10.5792 21.5926 11.8182 20.1234L11.858 20.0777L10.3682 18.2704Z" fill="#101216"/>
<path d="M13.3636 22.0612H15.9957V9.17348H13.3636V22.0612Z" fill="#101216"/>
<path d="M26.3055 19.2589C25.6033 19.6877 24.9498 19.9034 24.3629 19.9034C23.5125 19.9034 23.1283 19.4532 23.1283 18.4504V11.6121H25.8088V9.18524H23.1283V5.17516L20.5485 6.55996V9.18524H18.323V11.6121H20.5485V18.8866C20.5485 20.8686 21.7189 22.2225 23.4661 22.2577C24.6525 22.281 25.3677 21.9266 25.802 21.6674L25.8275 21.6484L26.4611 19.1635L26.3055 19.2589Z" fill="#101216"/>
<path d="M28.4854 22.0612H31.1191V9.17348H28.4854V22.0612Z" fill="#101216"/>
<path d="M73.0974 4.26978V16.5633L73.9173 15.2832C73.9166 15.2889 77.6009 9.93765 78.073 9.2553H79.715C79.3655 9.72632 76.4687 13.725 76.4687 13.725C76.4687 13.725 80.2421 21.6119 80.4601 22.0612H78.8477C78.759 21.8772 75.5175 14.994 75.5175 14.994L73.0974 18.3952V22.0612H71.5952V5.13027C71.7266 5.0546 72.7438 4.46969 73.0974 4.26978ZM60.7573 10.782C61.5321 9.62012 62.7462 8.97945 64.1666 8.97945C66.999 8.97945 68.5 10.7913 68.5 14.22V22.0612H66.994V14.5447C66.994 11.6276 65.9842 10.2736 63.7966 10.2736C61.7029 10.2736 60.4528 11.8709 60.4528 14.5447V22.0612H58.951V9.2553H60.4528V11.2412L60.7573 10.782ZM51.5243 8.97945C54.4389 8.97945 55.8557 10.3163 55.8557 13.0671V22.0612H54.3534V20.1929L54.0611 20.5162C52.9555 21.7397 51.6865 22.338 50.1754 22.338C48.9914 22.338 46.2365 21.9449 46.2365 18.2993C46.2365 15.3195 48.6888 14.2618 50.9862 14.2618C52.1397 14.2618 53.2792 14.5282 54.1062 14.993L54.3534 15.1305V13.292C54.3534 11.2537 53.3609 10.2215 51.3997 10.2215C50.1903 10.2215 49.0988 10.5276 47.9796 11.1604C47.8809 10.9328 47.5338 10.1629 47.4371 9.94333C48.6069 9.32497 50.0512 8.97945 51.5243 8.97945ZM47.7095 18.1738C47.7095 20.0882 48.6984 21.1431 50.495 21.1431C52.0242 21.1431 53.3823 20.4185 54.3251 19.1008L54.3534 19.0556V16.2479L54.27 16.1994C53.3111 15.6511 52.329 15.43 50.8855 15.43C48.8985 15.43 47.7095 16.4555 47.7095 18.1738ZM36.1097 4.26978V11.1202L36.4006 10.8008C37.5069 9.5751 38.7316 8.97945 40.1396 8.97945C42.9572 8.97945 44.5744 11.3351 44.5744 15.4434C44.5744 19.6315 42.7376 22.338 39.8938 22.338C38.5081 22.338 37.3986 21.7988 36.4021 20.6429L36.1097 20.3016V22.0612H34.6106V5.13027C34.7382 5.0546 35.7573 4.46969 36.1097 4.26978ZM36.1454 12.236L36.1097 12.2833V18.9494L36.1366 18.9902C36.9652 20.2765 38.3152 21.0456 39.752 21.0456C41.9709 21.0456 43.0957 19.1697 43.0957 15.4707C43.0957 12.1663 41.8495 10.2736 39.6769 10.2736C38.3599 10.2736 37.1717 10.9335 36.1454 12.236Z" fill="#101216"/>
<path fill-rule="evenodd" clip-rule="evenodd" d="M32.6957 6.88671C30.2863 3.4636 26.2851 1.42129 22.2141 1.42129C18.1448 1.42129 14.1428 3.4636 11.7374 6.88671L11.614 7.06284H14.6477L14.6814 7.02631C16.7462 4.88868 19.4416 3.75822 22.2141 3.75822C24.987 3.75822 27.6819 4.88868 29.7507 7.02631L29.7842 7.06284H32.817L32.6957 6.88671Z" fill="#101216"/>
</g>
<defs>
<clipPath id="clip0_2025_1412">
<rect width="81" height="22" fill="white" transform="translate(0 0.879639)"/>
</clipPath>
</defs>
</svg>
