<svg width="124" height="29" viewBox="0 0 124 29" fill="none" xmlns="http://www.w3.org/2000/svg">
<path d="M17.9068 21.0912L12.7671 23.3321V23.106C11.7803 23.3527 10.6701 23.4966 9.64215 23.5583C4.79024 23.5171 0.966271 20.9678 0.904594 17.9662V16.856C2.48763 19.1586 5.73595 20.7211 9.64215 20.6594C10.9579 20.7211 12.3148 20.5155 13.4456 20.2072L13.8979 19.097C12.5615 19.5081 11.0813 19.7754 9.64215 19.7754C4.79024 19.7754 0.966271 17.2467 0.904594 14.1834V13.2788C2.48763 15.4169 5.73595 16.9588 9.64215 16.856C11.4102 16.9588 13.1166 16.5888 14.5763 15.9515L14.8024 14.8413C13.3839 15.5814 11.5541 16.0131 9.66271 15.9515C4.81079 16.0131 0.98683 13.4844 0.925153 10.3594V9.45482C2.50819 11.6341 5.75651 13.1966 9.66271 13.2582C11.8831 13.1966 13.9801 12.6003 15.707 11.6957L15.9332 10.3594C14.3707 11.5107 12.0887 12.2714 9.66271 12.3742C4.81079 12.2714 0.98683 9.72209 0.925153 6.55601C0.966271 3.53384 4.81079 1.00509 9.66271 0.963977C12.541 1.00509 15.2342 2.01248 16.8172 3.6572L16.9817 3.92446H18.1124L17.948 3.6572C16.3649 1.49851 13.1783 0.0799412 9.66271 0.0799412C4.27626 0.0593822 0 2.99931 0 6.53545V6.7616V18.1718C0.185031 21.6257 4.3585 24.4423 9.62159 24.4423C13.0961 24.4629 16.2416 23.0854 17.9068 21.0912Z" fill="#101216"/>
<path d="M15.8099 28.9653L17.6191 21.2762L12.4177 23.5377L15.5837 10.2155H9.49829L11.0813 3.65723H30.5095L28.9265 10.2155H22.5943L21.2375 13.8339L28.2481 10.894L15.8099 28.9653ZM18.976 19.7138L18.0714 24.2367L25.5343 12.9499L19.4283 15.6637L22.142 9.3315H28.2481L29.3788 4.58238H11.7392L10.6085 9.3315H16.7145L13.7746 21.9753L18.976 19.7138Z" fill="#101216"/>
<path d="M43.3997 8.05677V8.07733C43.4203 8.79689 43.1941 9.35198 42.7418 9.76316C42.2895 10.1743 41.6728 10.3799 40.871 10.3799C40.0692 10.3799 39.4113 10.1127 38.9179 9.59869C38.4244 9.08471 38.1777 8.40627 38.1777 7.58391V6.24758C38.1777 5.42522 38.4244 4.74678 38.8973 4.2328C39.3907 3.71883 40.028 3.45156 40.8093 3.45156C41.6316 3.45156 42.269 3.65715 42.7418 4.04777C43.2147 4.45895 43.4408 5.01404 43.4203 5.7336V5.75416H42.1045C42.1045 5.32242 42.0017 4.99349 41.7961 4.7879C41.5905 4.58231 41.2616 4.47951 40.8298 4.47951C40.4187 4.47951 40.1103 4.64398 39.8841 4.97292C39.658 5.30187 39.5346 5.71305 39.5346 6.22702V7.58391C39.5346 8.09788 39.658 8.52962 39.8841 8.85857C40.1308 9.18751 40.4598 9.35198 40.8915 9.35198C41.3027 9.35198 41.5905 9.24918 41.7961 9.04359C42.0017 8.83801 42.1045 8.50907 42.1045 8.07733H43.3997V8.05677ZM50.842 7.52223C50.842 8.34459 50.5748 9.0436 50.0608 9.57813C49.5468 10.1127 48.8684 10.3799 48.0255 10.3799C47.1826 10.3799 46.5247 10.1127 45.9901 9.57813C45.4762 9.0436 45.2089 8.34459 45.2089 7.52223V6.30926C45.2089 5.4869 45.4762 4.80845 45.9901 4.25336C46.5041 3.71883 47.1826 3.431 48.0049 3.431C48.8478 3.431 49.5263 3.69827 50.0402 4.25336C50.5748 4.78789 50.8215 5.4869 50.8215 6.30926V7.52223H50.842ZM49.4852 6.2887C49.4852 5.75416 49.3618 5.34299 49.0945 4.99349C48.8273 4.66454 48.4778 4.47951 48.0049 4.47951C47.5526 4.47951 47.1826 4.64398 46.9358 4.99349C46.6891 5.32243 46.5452 5.75416 46.5452 6.2887V7.50167C46.5452 8.03621 46.6686 8.46794 46.9358 8.81744C47.1826 9.14639 47.5526 9.33142 48.0049 9.33142C48.4778 9.33142 48.8273 9.16695 49.0945 8.81744C49.3618 8.4885 49.4852 8.03621 49.4852 7.50167V6.2887ZM54.3371 10.2771H52.9802V3.5338H54.3371V10.2771ZM62.1289 10.2771H60.772L58.0582 5.7336H58.0377V10.2771H56.6808V3.5338H58.0377L60.7515 8.07733H60.772V3.5338H62.1289V10.2771ZM68.9339 4.58231H67.0014V10.2771H65.6445V4.58231H63.7531V3.5338H68.9339V4.58231ZM74.526 7.31664H72.0178V9.24918H74.9988V10.2771H70.6814V3.5338H74.9988V4.58231H72.0383V6.26814H74.5465V7.31664H74.526ZM78.2882 9.24918H81.3104V10.2771H76.9314V3.5338H78.2882V9.24918ZM87.0669 7.31664H84.5587V9.24918H87.5398V10.2771H83.2224V3.5338H87.5398V4.58231H84.5793V6.26814H87.0875V7.31664H87.0669ZM94.6532 9.37254C94.4476 9.63981 94.1392 9.88651 93.7075 10.0921C93.2963 10.2977 92.7617 10.4005 92.1039 10.4005C91.2815 10.4005 90.6236 10.1538 90.1096 9.6398C89.5957 9.12583 89.3284 8.46795 89.3284 7.64559V6.22702C89.3284 5.40466 89.5751 4.74678 90.0891 4.2328C90.5825 3.71883 91.2404 3.45156 92.0216 3.45156C92.844 3.45156 93.4813 3.65715 93.913 4.04777C94.3448 4.43839 94.5709 4.95237 94.5504 5.61025V5.63081H93.2757C93.2757 5.28131 93.1729 4.99349 92.9673 4.7879C92.7618 4.58231 92.4534 4.47951 92.0627 4.47951C91.6516 4.47951 91.3226 4.64398 91.0554 4.95236C90.8087 5.28131 90.6853 5.69249 90.6853 6.1859V7.60447C90.6853 8.11844 90.8086 8.52962 91.0759 8.85857C91.3432 9.18751 91.6927 9.33142 92.1244 9.33142C92.4534 9.33142 92.7001 9.2903 92.8851 9.22862C93.0701 9.16695 93.2141 9.08471 93.3168 8.98192V7.66615H92.0216V6.72044H94.6737V9.37254H94.6532ZM98.1482 7.58391V10.2771H96.7913V3.5338H99.135C99.8957 3.5338 100.512 3.71883 100.944 4.06833C101.376 4.41783 101.602 4.91124 101.602 5.52801C101.602 5.87751 101.52 6.16535 101.335 6.43261C101.15 6.67932 100.883 6.88491 100.533 7.04938C100.924 7.17273 101.211 7.35776 101.397 7.64559C101.561 7.91285 101.664 8.26236 101.664 8.67354V9.16695C101.664 9.35198 101.684 9.55757 101.746 9.76316C101.787 9.96875 101.89 10.1127 102.013 10.2155V10.3183H100.615C100.492 10.2155 100.41 10.051 100.369 9.82484C100.327 9.59869 100.307 9.37254 100.307 9.16695V8.6941C100.307 8.36515 100.225 8.09788 100.04 7.91285C99.8546 7.72782 99.5873 7.62503 99.2584 7.62503H98.1482V7.58391ZM98.1482 6.55596H99.1145C99.4845 6.55596 99.7724 6.47373 99.9574 6.30926C100.142 6.14478 100.245 5.91864 100.245 5.58969C100.245 5.28131 100.142 5.0346 99.9574 4.84957C99.7724 4.66454 99.5051 4.58231 99.135 4.58231H98.1482V6.55596ZM107.338 8.83801H105.159L104.706 10.2977H103.288L105.57 3.55436H106.947L109.209 10.2977H107.79L107.338 8.83801ZM105.488 7.76894H107.009L106.269 5.3841H106.248L105.488 7.76894ZM112.211 7.83062V10.2771H110.854V3.5338H113.444C114.225 3.5338 114.822 3.73939 115.274 4.13001C115.726 4.52063 115.932 5.05516 115.932 5.69249C115.932 6.32982 115.706 6.86435 115.274 7.25497C114.822 7.64559 114.225 7.85118 113.444 7.85118H112.211V7.83062ZM112.211 6.80267H113.444C113.814 6.80267 114.102 6.69988 114.308 6.49429C114.493 6.2887 114.595 6.02143 114.595 5.71305C114.595 5.38411 114.493 5.11683 114.308 4.91124C114.122 4.70565 113.835 4.60286 113.444 4.60286H112.211V6.80267ZM123.353 10.2771H121.997V7.48111H119.242V10.2771H117.885V3.5338H119.242V6.43261H121.997V3.5338H123.353V10.2771Z" fill="#101216"/>
<path d="M40.645 21.2968H39.8021V16.8561H38.2808V16.1365H42.1664V16.8561H40.645V21.2968ZM46.2988 21.2968H45.4558V18.8914C45.4558 18.583 45.3942 18.3569 45.2708 18.213C45.1475 18.0691 44.9624 17.9868 44.6952 17.9868C44.3457 17.9868 44.0989 18.0896 43.9345 18.2952C43.77 18.5008 43.6878 18.8503 43.6878 19.3437V21.2763H42.8654V15.787H43.6878V17.185C43.6878 17.4112 43.6672 17.6373 43.6466 17.9046H43.7083C43.8111 17.7196 43.9756 17.5756 44.1812 17.4729C44.3868 17.3701 44.6129 17.3084 44.8802 17.3084C45.8259 17.3084 46.2988 17.7812 46.2988 18.7475V21.2968ZM49.1564 21.3585C48.5397 21.3585 48.0668 21.1735 47.7379 20.824C47.3884 20.4745 47.2239 19.981 47.2239 19.3643C47.2239 18.727 47.3884 18.2335 47.6968 17.8635C48.0051 17.4934 48.4574 17.3084 49.0125 17.3084C49.5265 17.3084 49.9377 17.4729 50.2255 17.7812C50.5339 18.0896 50.6778 18.5214 50.6778 19.0765V19.5287H48.0668C48.0874 19.8988 48.1902 20.2072 48.3752 20.3922C48.5602 20.5978 48.8481 20.7006 49.1976 20.7006C49.4237 20.7006 49.6499 20.68 49.8349 20.6389C50.0405 20.5978 50.2461 20.5156 50.4722 20.4128V21.0912C50.2666 21.194 50.061 21.2557 49.8555 21.2968C49.6704 21.3379 49.4237 21.3585 49.1564 21.3585ZM49.0125 17.9457C48.7453 17.9457 48.5397 18.0279 48.3752 18.1924C48.2107 18.3569 48.1285 18.6036 48.0874 18.9325H49.8555C49.8555 18.6036 49.7732 18.3569 49.6293 18.1924C49.4854 18.0279 49.2798 17.9457 49.0125 17.9457ZM55.4475 18.0074H54.5018V21.2968H53.6589V18.0074H53.0215V17.6168L53.6589 17.3701V17.1234C53.6589 16.6711 53.7617 16.3216 53.9878 16.0954C54.2139 15.8693 54.5429 15.7665 54.9746 15.7665C55.2625 15.7665 55.5503 15.8076 55.8381 15.9104L55.612 16.5477C55.4064 16.486 55.2213 16.4449 55.0157 16.4449C54.8307 16.4449 54.6868 16.5066 54.6046 16.6094C54.5223 16.7327 54.4812 16.8972 54.4812 17.1234V17.3701H55.4269V18.0074H55.4475ZM58.8808 21.2968L58.7575 20.7828H58.7164C58.593 20.9679 58.4285 21.1118 58.2229 21.2146C58.0174 21.3174 57.7706 21.3791 57.5034 21.3791C57.0305 21.3791 56.681 21.2557 56.4343 21.0296C56.1876 20.8034 56.0848 20.4333 56.0848 19.9605V17.3906H56.9277V19.796C56.9277 20.1044 56.9894 20.31 57.1128 20.4745C57.2361 20.6184 57.4211 20.7006 57.6884 20.7006C58.0379 20.7006 58.2846 20.5978 58.4491 20.3922C58.6136 20.1866 58.6958 19.8371 58.6958 19.3437V17.3906H59.5387V21.2968H58.8808ZM62.1703 20.6801C62.3759 20.6801 62.5814 20.6389 62.787 20.5773V21.194C62.7048 21.2351 62.5814 21.2763 62.4375 21.2968C62.2936 21.3174 62.1497 21.3379 61.9852 21.3379C61.204 21.3379 60.8134 20.9268 60.8134 20.1044V18.0074H60.2788V17.6373L60.8545 17.3289L61.1423 16.5066H61.6563V17.3701H62.7665V18.0074H61.6563V20.1044C61.6563 20.31 61.6974 20.4539 61.8002 20.5567C61.8619 20.6389 62.0058 20.6801 62.1703 20.6801ZM66.3026 21.2968L66.1793 20.7828H66.1381C66.0148 20.9679 65.8503 21.1118 65.6447 21.2146C65.4391 21.3174 65.1924 21.3791 64.9252 21.3791C64.4523 21.3791 64.1028 21.2557 63.8561 21.0296C63.63 20.8034 63.5066 20.4333 63.5066 19.9605V17.3906H64.3495V19.796C64.3495 20.1044 64.4112 20.31 64.5345 20.4745C64.6579 20.6184 64.8429 20.7006 65.1102 20.7006C65.4597 20.7006 65.7064 20.5978 65.8709 20.3922C66.0353 20.1866 66.1176 19.8371 66.1176 19.3437V17.3906H66.9605V21.2968H66.3026ZM70.1266 17.3084C70.291 17.3084 70.435 17.3289 70.5378 17.3495L70.4555 18.1307C70.3322 18.1102 70.2088 18.0896 70.0855 18.0896C69.7565 18.0896 69.4893 18.1924 69.2837 18.4186C69.0781 18.6447 68.9753 18.912 68.9753 19.2615V21.2968H68.1529V17.3906H68.8108L68.9136 18.0691H68.9547C69.0781 17.8429 69.2631 17.6579 69.4687 17.514C69.6537 17.3906 69.8799 17.3084 70.1266 17.3084ZM72.8198 21.3585C72.203 21.3585 71.7302 21.1735 71.4012 20.824C71.0517 20.4745 70.8873 19.981 70.8873 19.3643C70.8873 18.727 71.0517 18.2335 71.3601 17.8635C71.6685 17.4934 72.1208 17.3084 72.6759 17.3084C73.1899 17.3084 73.601 17.4729 73.8889 17.7812C74.1973 18.0896 74.3412 18.5214 74.3412 19.0765V19.5287H71.7302C71.7507 19.8988 71.8535 20.2072 72.0386 20.3922C72.2236 20.5978 72.5114 20.7006 72.8609 20.7006C73.0871 20.7006 73.3132 20.68 73.4982 20.6389C73.7038 20.5978 73.9094 20.5156 74.1356 20.4128V21.0912C73.93 21.194 73.7244 21.2557 73.5188 21.2968C73.3132 21.3379 73.0871 21.3585 72.8198 21.3585ZM72.6759 17.9457C72.4086 17.9457 72.203 18.0279 72.0386 18.1924C71.8741 18.3569 71.7919 18.6036 71.7507 18.9325H73.5188C73.5188 18.6036 73.4366 18.3569 73.2927 18.1924C73.1282 18.0279 72.9226 17.9457 72.6759 17.9457ZM80.6116 19.3232C80.6116 19.9605 80.4472 20.4539 80.1182 20.824C79.7893 21.1735 79.337 21.3585 78.7613 21.3585C78.3913 21.3585 78.0829 21.2763 77.7951 21.1118C77.5072 20.9473 77.3017 20.7006 77.1577 20.3922C77.0138 20.0838 76.9316 19.7343 76.9316 19.3232C76.9316 18.6858 77.0961 18.1924 77.425 17.8429C77.754 17.4934 78.2062 17.3084 78.8025 17.3084C79.3575 17.3084 79.8098 17.4934 80.1388 17.8635C80.4677 18.2335 80.6116 18.7064 80.6116 19.3232ZM77.7745 19.3232C77.7745 20.2278 78.1035 20.6801 78.7819 20.6801C79.4398 20.6801 79.7687 20.2278 79.7687 19.3232C79.7687 18.4391 79.4398 17.9868 78.7819 17.9868C78.4324 17.9868 78.1857 18.1102 78.0212 18.3363C77.8567 18.5625 77.7745 18.8914 77.7745 19.3232ZM83.531 18.0074H82.5853V21.2968H81.7424V18.0074H81.1051V17.6168L81.7424 17.3701V17.1234C81.7424 16.6711 81.8452 16.3216 82.0713 16.0954C82.2975 15.8693 82.6264 15.7665 83.0582 15.7665C83.346 15.7665 83.6338 15.8076 83.9216 15.9104L83.6955 16.5477C83.4899 16.486 83.3049 16.4449 83.0993 16.4449C82.9142 16.4449 82.7703 16.5066 82.6881 16.6094C82.6059 16.7122 82.5647 16.8972 82.5647 17.1234V17.3701H83.5105V18.0074H83.531ZM89.3698 21.2968H88.5268V18.8914C88.5268 18.583 88.4652 18.3774 88.3624 18.213C88.2596 18.0691 88.0745 17.9868 87.8278 17.9868C87.4989 17.9868 87.2727 18.0896 87.1288 18.2952C86.9849 18.5008 86.9027 18.8503 86.9027 19.3437V21.2968H86.0803V17.3906H86.7382L86.8616 17.9046H86.9027C87.0055 17.7196 87.1699 17.5756 87.3755 17.4729C87.5811 17.3701 87.8073 17.3289 88.054 17.3289C88.6502 17.3289 89.0614 17.5345 89.2464 17.9457H89.3081C89.4314 17.7607 89.5959 17.5962 89.8015 17.4934C90.0071 17.3906 90.2538 17.3289 90.5211 17.3289C90.9939 17.3289 91.3229 17.4523 91.549 17.6784C91.7546 17.9046 91.8779 18.2747 91.8779 18.7475V21.2968H91.0556V18.8914C91.0556 18.583 90.9939 18.3774 90.8911 18.213C90.7678 18.0691 90.6033 17.9868 90.3566 17.9868C90.0276 17.9868 89.8015 18.0896 89.6576 18.2952C89.5137 18.5008 89.4314 18.8092 89.4314 19.2204V21.2968H89.3698ZM96.442 19.3232C96.442 19.9605 96.2776 20.4539 95.9486 20.824C95.6197 21.1735 95.1674 21.3585 94.5917 21.3585C94.2217 21.3585 93.9133 21.2763 93.6255 21.1118C93.3376 20.9473 93.132 20.7006 92.9881 20.3922C92.8442 20.0838 92.762 19.7343 92.762 19.3232C92.762 18.6858 92.9265 18.1924 93.2554 17.8429C93.5843 17.4934 94.0366 17.3084 94.6328 17.3084C95.1879 17.3084 95.6402 17.4934 95.9692 17.8635C96.2776 18.2335 96.442 18.7064 96.442 19.3232ZM93.6049 19.3232C93.6049 20.2278 93.9338 20.6801 94.6123 20.6801C95.2702 20.6801 95.5991 20.2278 95.5991 19.3232C95.5991 18.4391 95.2702 17.9868 94.6123 17.9868C94.2628 17.9868 94.0161 18.1102 93.8516 18.3363C93.6871 18.5625 93.6049 18.8914 93.6049 19.3232ZM100.842 21.2968H99.9987V18.8914C99.9987 18.583 99.9371 18.3569 99.8137 18.213C99.6903 18.0691 99.5053 17.9868 99.2381 17.9868C98.8885 17.9868 98.6213 18.0896 98.4774 18.2952C98.3335 18.5008 98.2307 18.8503 98.2307 19.3437V21.2968H97.4083V17.3906H98.0662L98.1895 17.9046H98.2307C98.354 17.7196 98.5185 17.5756 98.7241 17.4729C98.9297 17.3701 99.1764 17.3289 99.4436 17.3289C100.389 17.3289 100.842 17.8018 100.842 18.7681V21.2968ZM103.699 21.3585C103.083 21.3585 102.61 21.1735 102.281 20.824C101.931 20.4745 101.767 19.981 101.767 19.3643C101.767 18.727 101.931 18.2335 102.24 17.8635C102.548 17.4934 103 17.3084 103.555 17.3084C104.069 17.3084 104.481 17.4729 104.768 17.7812C105.077 18.0896 105.221 18.5214 105.221 19.0765V19.5287H102.61C102.63 19.8988 102.733 20.2072 102.918 20.3922C103.103 20.5978 103.391 20.7006 103.74 20.7006C103.967 20.7006 104.193 20.68 104.378 20.6389C104.563 20.5978 104.789 20.5156 105.015 20.4128V21.0912C104.81 21.194 104.604 21.2557 104.398 21.2968C104.193 21.3379 103.967 21.3585 103.699 21.3585ZM103.535 17.9457C103.268 17.9457 103.062 18.0279 102.898 18.1924C102.733 18.3569 102.651 18.6036 102.61 18.9325H104.378C104.378 18.6036 104.296 18.3569 104.152 18.1924C104.008 18.0279 103.802 17.9457 103.535 17.9457ZM105.426 17.3906H106.331L107.133 19.611C107.256 19.9194 107.338 20.2278 107.379 20.495H107.4C107.421 20.3717 107.462 20.2072 107.523 20.0222C107.585 19.8371 107.873 18.9531 108.428 17.3906H109.332L107.667 21.8108C107.359 22.6126 106.865 23.0238 106.146 23.0238C105.961 23.0238 105.776 23.0032 105.611 22.9621V22.3042C105.735 22.3248 105.879 22.3453 106.043 22.3453C106.434 22.3453 106.722 22.1192 106.886 21.6463L107.03 21.2763L105.426 17.3906Z" fill="#101216"/>
</svg>
