<svg width="113" height="15" viewBox="0 0 113 15" fill="none" xmlns="http://www.w3.org/2000/svg">
<g clipPath="url(#clip0_2047_241)">
<path d="M48.7173 9.98897H56.1723L52.2345 3.9223L44.9946 14.8796H41.7025L50.5077 1.73364C50.6996 1.47131 50.9547 1.25669 51.2514 1.10775C51.5482 0.958817 51.8781 0.8799 52.2135 0.877615C52.5488 0.87533 52.8798 0.949743 53.1788 1.09462C53.4778 1.2395 53.736 1.45062 53.9319 1.7103L62.7616 14.8796H59.4694L57.9187 12.4296H50.3756L48.7319 9.98897H48.7173ZM82.9401 12.4296V1.0103H80.142V13.5543C80.1415 13.7286 80.1781 13.9012 80.2496 14.0617C80.3211 14.2221 80.4259 14.367 80.5578 14.4876C80.6903 14.6169 80.8486 14.7195 81.0234 14.7892C81.1981 14.8589 81.3858 14.8945 81.5753 14.8936H94.2939L95.9522 12.4436H82.9254L82.9401 12.4296ZM36.6786 10.3903C37.9825 10.3903 39.2329 9.89618 40.1549 9.01663C41.0769 8.13709 41.5948 6.94417 41.5948 5.7003C41.5948 4.45644 41.0769 3.26352 40.1549 2.38397C39.2329 1.50443 37.9825 1.0103 36.6786 1.0103H24.4492V14.8796H27.2424V3.46497H36.5074C37.1314 3.46497 37.7299 3.70146 38.1712 4.12242C38.6124 4.54337 38.8603 5.11431 38.8603 5.70964C38.8603 6.30496 38.6124 6.8759 38.1712 7.29686C37.7299 7.71781 37.1314 7.9543 36.5074 7.9543H28.6267L36.9721 14.8796H41.0274L35.4214 10.3903H36.6786ZM7.26926 14.8796H15.7174C17.612 14.8327 19.4125 14.0818 20.7351 12.7868C22.0578 11.4919 22.798 9.75534 22.798 7.9473C22.798 6.13927 22.0578 4.40272 20.7351 3.10777C19.4125 1.81282 17.612 1.06187 15.7174 1.01497H7.26926C6.29911 0.990956 5.33375 1.1525 4.43009 1.49009C3.52644 1.82768 2.70279 2.33446 2.00772 2.98056C1.31265 3.62667 0.76023 4.399 0.383039 5.25203C0.00584856 6.10505 -0.188477 7.02149 -0.188477 7.9473C-0.188477 8.87312 0.00584856 9.78956 0.383039 10.6426C0.76023 11.4956 1.31265 12.2679 2.00772 12.914C2.70279 13.5601 3.52644 14.0669 4.43009 14.4045C5.33375 14.7421 6.29911 14.9037 7.26926 14.8796ZM15.5266 12.439H7.45514C6.23397 12.4014 5.07598 11.9122 4.22607 11.0748C3.37616 10.2374 2.90096 9.11756 2.90096 7.95197C2.90096 6.78638 3.37616 5.66649 4.22607 4.82912C5.07598 3.99175 6.23397 3.50255 7.45514 3.46497H15.5266C16.157 3.44557 16.7851 3.54728 17.3735 3.76404C17.9619 3.9808 18.4986 4.3082 18.9518 4.72677C19.4049 5.14534 19.7652 5.64655 20.0113 6.2006C20.2574 6.75465 20.3842 7.35024 20.3842 7.95197C20.3842 8.5537 20.2574 9.14929 20.0113 9.70334C19.7652 10.2574 19.4049 10.7586 18.9518 11.1772C18.4986 11.5957 17.9619 11.9231 17.3735 12.1399C16.7851 12.3567 16.157 12.4584 15.5266 12.439ZM68.5974 14.8796H77.2216L78.8555 12.439H68.7882C68.1578 12.4584 67.5297 12.3567 66.9413 12.1399C66.3529 11.9231 65.8162 11.5957 65.363 11.1772C64.9099 10.7586 64.5496 10.2574 64.3035 9.70334C64.0574 9.14929 63.9306 8.5537 63.9306 7.95197C63.9306 7.35024 64.0574 6.75465 64.3035 6.2006C64.5496 5.64655 64.9099 5.14534 65.363 4.72677C65.8162 4.3082 66.3529 3.9808 66.9413 3.76404C67.5297 3.54728 68.1578 3.44557 68.7882 3.46497H76.9819L78.6354 1.01497H68.5974C67.6273 0.990956 66.6619 1.1525 65.7583 1.49009C64.8546 1.82768 64.031 2.33446 63.3359 2.98056C62.6408 3.62667 62.0884 4.399 61.7112 5.25203C61.334 6.10505 61.1397 7.02149 61.1397 7.9473C61.1397 8.87312 61.334 9.78956 61.7112 10.6426C62.0884 11.4956 62.6408 12.2679 63.3359 12.914C64.031 13.5601 64.8546 14.0669 65.7583 14.4045C66.6619 14.7421 67.6273 14.9037 68.5974 14.8796ZM102.776 12.439C101.751 12.4393 100.754 12.1205 99.9367 11.5309C99.1191 10.9412 98.5256 10.1131 98.2465 9.1723H110.192L111.836 6.72697H98.2465C98.5249 5.78577 99.1182 4.95719 99.936 4.36746C100.754 3.77772 101.751 3.45916 102.776 3.4603H110.975L112.614 1.0103H102.585C100.691 1.0572 98.8904 1.80815 97.5677 3.1031C96.2451 4.39805 95.5049 6.1346 95.5049 7.94264C95.5049 9.75068 96.2451 11.4872 97.5677 12.7822C98.8904 14.0771 100.691 14.8281 102.585 14.875H111.21L112.848 12.4343H102.771" fill="white"/>
</g>
<defs>
<clipPath id="clip0_2047_241">
<rect width="113" height="14" fill="white" transform="translate(0 0.879639)"/>
</clipPath>
</defs>
</svg>
