<svg width="62" height="23" viewBox="0 0 62 23" fill="none" xmlns="http://www.w3.org/2000/svg">
<g clipPath="url(#clip0_2025_1424)">
<path d="M43.9433 14.5436C43.9393 14.5336 43.937 14.5229 43.9365 14.5111C43.937 14.5143 43.937 14.5152 43.937 14.5171C43.9472 14.6284 43.9757 14.8378 43.9989 14.9944C44.0349 14.9242 44.0706 14.8495 44.1085 14.7705C44.137 14.7104 44.1227 14.6918 44.0978 14.6823C44.0261 14.656 43.953 14.6008 43.9432 14.5436L43.9433 14.5436Z" fill="#101216"/>
<path d="M45.1872 12.8567C45.1975 12.9761 45.2864 12.9906 45.359 12.8857C45.3782 12.8567 45.4 12.8212 45.4259 12.7811C45.4053 12.7529 45.3845 12.7256 45.3626 12.6977C45.2611 12.5752 45.0201 12.3109 44.7869 12.1035C45.0189 12.329 45.1605 12.6043 45.1872 12.8567Z" fill="#101216"/>
<path d="M40.5341 4.63321C40.5456 4.64858 40.5557 4.66496 40.5658 4.68252C40.5557 4.66368 40.5456 4.64635 40.5341 4.63321Z" fill="#101216"/>
<path d="M31.0011 0.879585C13.8795 0.879585 0 5.80361 0 11.8797C0 17.9548 13.8793 22.8796 31.0011 22.8796C48.1211 22.8796 62 17.9548 62 11.8797C62 5.80361 48.1211 0.879585 31.0011 0.879585ZM31.0011 1.83236C47.5211 1.83236 60.9111 6.3297 60.9111 11.8796C60.9111 17.4295 47.5211 21.9277 31.0011 21.9277C14.4809 21.9277 1.09014 17.4295 1.09014 11.8796C1.09014 6.3297 14.4809 1.83236 31.0011 1.83236ZM22.9129 3.61936C22.4729 3.62078 22.0308 3.63842 21.5856 3.67593C18.6287 3.92967 15.8143 5.62708 15.8091 8.20387C15.8061 9.5104 16.7171 10.5693 18.1289 10.5226C19.788 10.4656 21.15 9.11045 21.8629 7.40201C22.1337 6.7538 21.6323 6.48455 21.3941 6.85773C20.9685 7.53013 20.3686 8.05204 19.7199 8.37615C18.9391 8.76572 18.1049 8.66058 17.8521 8.01411C17.4964 7.10262 18.2357 5.73854 19.9228 5.09649C22.3593 4.17686 24.9091 4.78512 27.3623 5.25505C27.3973 5.25505 27.5279 5.32891 27.4122 5.39031C26.9728 5.63429 26.5406 5.83314 25.8665 6.42425C25.3836 6.84616 24.7511 7.40773 24.2618 8.01942C23.7764 8.62228 23.4321 9.16008 22.9766 9.75607C22.9132 9.84212 22.835 9.83826 22.8359 9.83826C21.7261 10.0293 20.6393 10.1573 19.6446 10.8627C19.4389 11.0074 19.3496 11.2642 19.4744 11.4611C19.5866 11.6353 19.8428 11.6539 20.0209 11.5217C20.6392 11.0504 21.2756 10.8285 22.0053 10.808C22.0371 10.81 22.0523 10.8155 22.0613 10.8353C22.067 10.8467 22.0635 10.8703 22.0504 10.888C20.9572 12.4341 20.6837 12.7834 19.8613 13.7421C19.4407 14.2347 19.0267 14.6506 18.5644 15.0833C16.6971 16.852 14.6889 16.8214 13.9683 15.7123C13.5378 15.047 13.5946 14.3484 13.8767 13.7689C14.224 13.0589 14.9263 12.5389 15.5099 12.235C15.7265 12.1222 15.7891 11.8396 15.5721 11.5823C15.434 11.4144 15.0996 11.3847 14.8506 11.4312C14.0856 11.5752 13.182 12.1646 12.6479 12.8739C12.0462 13.6699 11.7455 14.6364 11.8464 15.7207C12.0276 17.6776 13.6081 18.8081 15.4023 18.795C16.8301 18.7836 18.1753 18.3428 19.7935 16.6678C21.3021 15.1058 22.6761 12.7727 23.9629 10.6091C24.0032 10.54 24.0321 10.5027 24.2275 10.4779C25.0348 10.375 26.2263 10.2577 26.9903 10.2127C27.1602 10.2034 27.1944 10.2053 27.2626 10.2918C27.4618 10.5478 27.7605 10.7648 28 10.897C28.1166 10.9616 28.1723 10.9938 28.2639 10.9957C28.377 10.998 28.465 10.9359 28.5218 10.8701C28.6029 10.7795 28.6255 10.6611 28.5816 10.5848C28.5359 10.5047 28.003 10.2035 27.9873 10.0817C27.9755 10.0058 28.0572 9.9875 28.0572 9.9875C28.4487 9.86225 28.8562 9.60476 29.103 9.12274C29.3456 8.6478 29.3849 8.01442 28.9413 7.66217C28.5517 7.35284 27.9633 7.40175 27.4937 7.83122C27.0347 8.24847 26.8825 8.85487 26.9447 9.38679C26.9557 9.47877 26.951 9.51016 26.8278 9.52062C26.1217 9.57818 25.4414 9.59799 24.6851 9.63893C24.6344 9.64264 24.6183 9.60861 24.6478 9.57291C25.5189 8.02984 26.8195 6.93126 28.2582 5.84916C28.3536 5.77625 28.3245 5.63765 28.3207 5.52182C30.9182 6.09723 33.4284 7.16812 36.1232 7.14534C37.2375 7.13603 38.3045 6.96309 39.3243 6.39279C40.2213 5.89402 40.585 5.4327 40.6117 4.95346C40.6327 4.62203 40.4068 4.4127 40.0849 4.48387C37.362 5.12184 34.7647 5.11461 32.0556 4.78028C28.9617 4.39757 25.9926 3.60943 22.9129 3.61936ZM28.3476 8.09074C28.4112 8.09424 28.4707 8.11596 28.519 8.15805C28.6625 8.28294 28.5947 8.59484 28.4497 8.81079C28.2913 9.04884 28.0227 9.25459 27.7777 9.30459C27.7285 9.3139 27.686 9.29255 27.6656 9.1815C27.6257 8.88774 27.7197 8.49406 28.0274 8.21694C28.124 8.12994 28.2416 8.08491 28.3476 8.09074ZM50.2062 8.14769C49.7111 8.14769 49.0617 8.14886 48.5459 8.14886C48.423 8.14886 48.3594 8.16422 48.3014 8.2805C48.1112 8.65251 45.7908 12.1974 45.3588 12.8858C45.2862 12.9907 45.1974 12.9761 45.1871 12.8567C45.1434 12.4478 44.7969 11.9779 44.2514 11.7531C43.8355 11.581 43.4288 11.5499 43.0062 11.6071C42.2432 11.7116 41.5633 12.1223 40.9655 12.5849C40.0646 13.2833 39.2874 14.1882 38.284 14.8569C37.7361 15.2208 36.9862 15.5382 36.4843 15.0644C36.0301 14.6351 36.0813 13.6814 36.7762 12.944C36.8496 12.8667 36.9374 12.9312 36.9236 13.0006C36.8581 13.3343 36.9387 13.666 37.1869 13.8986C37.4901 14.1754 37.9239 14.2069 38.2953 14.0222C38.7335 13.8007 38.9911 13.3733 39.0661 12.8882C39.1825 12.1354 38.6142 11.4714 37.9031 11.4183C37.3255 11.377 36.7716 11.5819 36.2318 12.0362C35.9613 12.265 35.8073 12.4341 35.5735 12.7735C35.5164 12.8569 35.4288 12.8654 35.4315 12.742C35.4587 11.7783 35.0675 11.2362 34.286 11.2184C33.6796 11.2039 33.0315 11.5391 32.5264 11.9498C31.9727 12.4031 31.4887 13.0039 30.9699 13.5684C30.9053 13.6379 30.8489 13.6347 30.8309 13.4998C30.8152 12.8613 30.6576 12.2428 30.3678 11.8038C30.2652 11.6509 30.0496 11.5752 29.8682 11.6786C29.7845 11.7253 29.4928 11.8619 29.281 12.0361C29.1756 12.1245 29.1349 12.2523 29.1809 12.4164C29.461 13.3701 29.3993 14.4546 29.0199 15.3706C28.6714 16.2094 27.994 16.9663 27.1979 17.2222C26.6734 17.3917 26.128 17.3087 25.7907 16.8347C25.3273 16.1803 25.5144 15.0426 26.2049 14.0978C26.8147 13.266 27.6962 12.7375 28.5758 12.3972C28.6794 12.3565 28.7006 12.2888 28.6714 12.1992C28.6235 12.0515 28.5476 11.8511 28.5162 11.7594C28.4355 11.5406 28.2095 11.5049 27.9339 11.5356C27.2949 11.6114 26.7185 11.8346 26.1491 12.1453C24.6581 12.9594 23.9105 14.5351 23.5826 15.378C23.425 15.7827 23.29 16.0355 23.1156 16.2595C22.8805 16.5607 22.5857 16.8347 22.046 17.3179C21.9973 17.3622 21.9609 17.4547 22.0019 17.5405C22.057 17.6568 22.3375 18.0606 22.4167 18.0967C22.5046 18.1408 22.6066 18.0793 22.6474 18.0493C23.025 17.7884 23.4766 17.375 23.6978 17.0945C23.7752 16.9984 23.8548 17.0387 23.8959 17.1845C24.1023 17.935 24.6425 18.5476 25.3894 18.8038C26.7566 19.274 28.175 18.5934 29.2453 17.409C29.9257 16.6562 30.1712 16.172 30.4317 15.8429C30.8735 15.2846 31.7452 14.0359 32.7834 13.234C33.1641 12.9385 33.6148 12.713 33.8413 12.8627C34.0231 12.9826 34.0819 13.262 33.7902 13.803C32.7317 15.7736 31.1742 18.089 30.8886 18.6505C30.8364 18.748 30.8818 18.8245 30.9818 18.8245C31.5356 18.8218 32.0848 18.8231 32.5876 18.8231C32.6714 18.819 32.7089 18.7802 32.7508 18.7199C33.5631 17.4235 34.3276 16.1894 35.1471 14.9138C35.1929 14.8387 35.2352 14.8969 35.2371 14.9298C35.254 15.2257 35.3253 15.6307 35.4975 15.8965C35.8072 16.3881 36.2463 16.5992 36.7331 16.6023C37.1205 16.6069 37.3163 16.5468 37.734 16.3879C38.0739 16.2594 38.3468 16.0905 38.5563 15.9379C38.6785 15.8514 38.7 15.9964 38.6968 16.0186C38.5091 17.0478 38.741 18.2672 39.7445 18.7729C40.945 19.3763 42.2642 18.5281 43.0232 17.7624C43.0973 17.6885 43.1772 17.6963 43.1847 17.8553C43.2008 18.1476 43.3304 18.4947 43.5676 18.7375C44.2037 19.3883 45.4872 19.1304 46.7751 18.114C47.6021 17.4633 48.4673 16.5439 49.249 15.5702C49.278 15.5328 49.2995 15.4718 49.2436 15.4108C49.1246 15.2838 48.9523 15.1383 48.8344 15.0263C48.7805 14.9798 48.7016 14.9933 48.6561 15.0283C47.855 15.8051 47.1338 16.6909 46.0915 17.4236C45.7399 17.6736 45.1798 17.8755 44.928 17.5283C44.8301 17.3937 44.8411 17.2069 44.9379 16.9623C45.2421 16.1893 50.0535 8.72113 50.3033 8.2805C50.3461 8.20398 50.3011 8.14769 50.2062 8.14769ZM43.4642 12.817C43.5901 12.8159 43.7081 12.8405 43.8155 12.8932C44.4081 13.1815 44.219 13.881 43.9539 14.4303C43.9341 14.4727 43.9328 14.5088 43.9432 14.5435C43.953 14.6007 44.0261 14.656 44.0977 14.6823C44.1227 14.6918 44.1369 14.7104 44.1084 14.7704C43.9037 15.2175 43.7158 15.4752 43.4594 15.8635C43.2237 16.2224 42.9579 16.5024 42.6361 16.7716C42.1509 17.1811 41.4769 17.6269 40.9197 17.3272C40.6722 17.1961 40.5653 16.8433 40.5702 16.5573C40.5831 15.7535 40.9328 14.9282 41.5803 14.1172C42.2218 13.312 42.9183 12.8218 43.4642 12.817Z" fill="#101216"/>
</g>
<defs>
<clipPath id="clip0_2025_1424">
<rect width="62" height="22" fill="white" transform="translate(0 0.879639)"/>
</clipPath>
</defs>
</svg>
