<svg width="107" height="23" viewBox="0 0 107 23" fill="none" xmlns="http://www.w3.org/2000/svg">
<path d="M4.85402 11.8796L2.43866 14.3501L0 11.8796L2.43777 9.38722L4.85402 11.8796ZM10.7588 5.84247L14.9189 10.0958L17.3576 7.60431L10.7588 0.879639L4.16007 7.62631L6.59874 10.1178L10.7588 5.84247ZM19.0799 9.38722L16.6636 11.8796L19.1014 14.3721L21.5382 11.8796L19.0799 9.38722ZM10.7588 17.9168L6.59874 13.6415L4.16007 16.1339L10.7588 22.8796L17.3576 16.133L14.9189 13.6415L10.7588 17.9168ZM10.7588 14.351L13.1966 11.8576L10.7588 9.38814L8.32105 11.8796L10.7588 14.3501V14.351ZM36.3953 14.6076V14.5655C36.3953 12.954 35.5543 12.1372 34.1888 11.6001C35.0289 11.128 35.7435 10.3534 35.7435 9.00039V8.95822C35.7435 7.06714 34.2516 5.84247 31.856 5.84247H26.3716V17.8957H31.9824C34.6506 17.9168 36.3953 16.7994 36.3953 14.6086V14.6076ZM33.1587 9.45231C33.1587 10.3543 32.4441 10.7191 31.2884 10.7191H28.8937V8.16256H31.457C32.5499 8.16256 33.1587 8.61356 33.1587 9.40922V9.45231ZM33.8105 14.2648C33.8105 15.1668 33.1174 15.5756 31.9815 15.5756H28.8937V12.932H31.8981C33.2223 12.932 33.8105 13.427 33.8105 14.2428V14.2648ZM41.8374 17.9168V5.84247H39.232V17.8957H41.8374V17.9168ZM55.7907 17.9168V5.84247H53.2265V13.2766L47.7001 5.84247H45.3045V17.8957H47.8687V10.2471L53.5843 17.9168H55.7898H55.7907ZM70.1627 17.9168L65.0998 5.77831H62.7051L57.6404 17.9168H60.3094L61.3808 15.2099H66.3613L67.4327 17.9168H70.1645H70.1627ZM65.4351 12.8678H62.3043L63.8805 8.95822L65.4351 12.8678ZM82.5407 17.9168V5.84247H79.9765V13.2766L74.4501 5.84247H72.0545V17.8957H74.6187V10.2471L80.3343 17.9168H82.5398H82.5407ZM95.9256 15.9616L94.266 14.2648C93.3408 15.1237 92.5213 15.682 91.1559 15.682C89.1386 15.682 87.731 13.9632 87.731 11.9007V11.8366C87.731 9.77406 89.1592 8.07731 91.1559 8.07731C92.3322 8.07731 93.2574 8.59247 94.1818 9.43031L95.8413 7.47506C94.7493 6.37964 93.4251 5.60597 91.198 5.60597C87.5839 5.60597 85.0413 8.42014 85.0413 11.8366V11.8796C85.0413 15.3382 87.6252 18.0882 91.0931 18.0882C93.3623 18.1102 94.7072 17.2935 95.9256 15.9616ZM107 17.9168V15.5536H100.59V13.0181H106.159V10.655H100.59V8.20564H106.916V5.84247H98.0271V17.8957H107V17.9168Z" fill="white"/>
</svg>
