<svg width="123" height="23" viewBox="0 0 123 23" fill="none" xmlns="http://www.w3.org/2000/svg">
<g clipPath="url(#clip0_2908_142)">
<path fill-rule="evenodd" clip-rule="evenodd" d="M13.958 0.879639L12.2154 1.87524V10.3335L13.167 10.8779V4.43641L16.4338 6.30346L16.437 6.30197L17.0713 6.66392L17.6009 6.36329V5.85487L13.167 3.32437V2.4437L13.958 1.99189L18.5498 4.61653V6.95255L16.3455 8.20525L16.271 8.16816C16.1369 8.10169 15.9979 8.06781 15.8582 8.06781C15.3337 8.06781 14.9067 8.50311 14.9067 9.0379C14.9067 9.57269 15.3337 10.0082 15.8582 10.0082C16.3448 10.0082 16.7496 9.63358 16.7994 9.13696L16.8078 9.05333L19.0325 7.78905L21.0957 8.96841V14.1864L19.0301 15.3657L10.6355 10.5661V1.87589L8.89282 0.879639L3.34978 4.04808V6.93946L0.803711 8.39288V14.7482L3.34978 16.2036V19.1001L8.89282 22.2685L10.6355 21.2724V12.796L9.68385 12.2523V18.7119L5.77974 16.4842L5.24997 16.7849V17.2935L9.68385 19.8242V20.704L8.89282 21.1563L4.30124 18.5316V16.1952L6.50554 14.9431L6.57957 14.98C6.71438 15.0464 6.85298 15.0804 6.99242 15.0804C7.51716 15.0804 7.94409 14.6453 7.94409 14.1103C7.94409 13.575 7.51716 13.1401 6.99242 13.1401C6.50617 13.1401 6.10195 13.5146 6.05147 14.0114L6.04348 14.0949L3.81835 15.3593L1.75517 14.1797V8.96177L3.82088 7.78261L12.2154 12.5816V21.2724L13.958 22.2685L19.5012 19.1001V16.2087L22.0473 14.7555V8.39996L19.5012 6.94505V4.04808L13.958 0.879639ZM4.30124 4.61659L8.89282 1.99196L9.68385 2.44398V3.324L4.30124 6.39617V4.61659ZM4.79474 7.22685L9.68367 4.43581V10.0217L4.79474 7.22685ZM13.1669 13.1259L18.0564 15.9214L13.1669 18.7125V13.1259ZM13.1669 20.7041V19.8245L18.5497 16.7519V18.5317L13.9579 21.1563L13.1669 20.7041Z" fill="white"/>
<path fill-rule="evenodd" clip-rule="evenodd" d="M57.1103 6.42428C56.6988 6.42428 56.3392 6.26923 56.0306 5.95935C55.7223 5.64925 55.568 5.28797 55.568 4.87443C55.568 4.46111 55.7223 4.09897 56.0306 3.78909C56.3392 3.4792 56.6988 3.32416 57.1103 3.32416C57.5215 3.32416 57.8814 3.4792 58.19 3.78909C58.4985 4.09897 58.6528 4.46111 58.6528 4.87443C58.6528 5.28797 58.4985 5.64925 58.19 5.95935C57.8814 6.26923 57.5215 6.42428 57.1103 6.42428ZM37.4761 6.55552C37.2388 5.97553 36.8986 5.47039 36.4557 5.04115C36.0128 4.61213 35.4866 4.27795 34.8777 4.03946C34.2687 3.80119 33.5926 3.68184 32.8491 3.68184C32.0423 3.68184 31.3186 3.80119 30.6782 4.03946C30.0372 4.27795 29.4918 4.59214 29.0408 4.98158C28.5899 5.37125 28.2418 5.82801 27.9968 6.35294C27.7514 6.87744 27.629 7.42603 27.629 7.99827C27.629 8.87287 27.8186 9.57629 28.1984 10.1087C28.5779 10.6419 29.0527 11.0747 29.6221 11.4087C30.1915 11.7425 30.812 12.0049 31.4849 12.1958C32.1569 12.3863 32.7778 12.5813 33.3472 12.7798C33.9167 12.979 34.3914 13.2054 34.771 13.4594C35.1507 13.714 35.3407 14.0717 35.3407 14.5327C35.3407 15.0097 35.1349 15.427 34.7237 15.7847C34.312 16.1425 33.6874 16.3213 32.8491 16.3213C32.0739 16.3213 31.4645 16.1107 31.0221 15.6894C30.5789 15.2684 30.3575 14.7234 30.3575 14.0557H27.5103C27.5103 14.7712 27.6326 15.427 27.8783 16.023C28.1231 16.6193 28.4751 17.1363 28.934 17.5732C29.3927 18.0109 29.9504 18.3483 30.607 18.5868C31.2632 18.8255 32.0103 18.9444 32.8491 18.9444C33.6716 18.9444 34.4188 18.8216 35.0912 18.5752C35.7636 18.3285 36.3371 18.0022 36.8117 17.5973C37.2863 17.1915 37.6539 16.735 37.9151 16.2257C38.176 15.7174 38.3065 15.1925 38.3065 14.6521C38.3065 13.7459 38.1167 13.0106 37.7371 12.4461C37.3573 11.8818 36.8829 11.4246 36.3132 11.0747C35.7438 10.7253 35.1229 10.447 34.4506 10.2399C33.7781 10.0337 33.1574 9.83477 32.5881 9.64381C32.0187 9.45306 31.5439 9.23867 31.1643 8.99996C30.7848 8.76148 30.595 8.41976 30.595 7.97462C30.595 7.56129 30.7927 7.17958 31.1881 6.8297C31.5833 6.48025 32.1372 6.3052 32.8491 6.3052C33.561 6.3052 34.1144 6.49616 34.5101 6.87744C34.7788 7.13679 34.9538 7.46388 35.0398 7.85548H37.797C37.7474 7.39721 37.6426 6.96303 37.4761 6.55552ZM87.8113 15.784C87.3897 16.1999 86.8448 16.4073 86.1766 16.4073H82.8359V12.0905H86.1766C86.8448 12.0905 87.3897 12.2985 87.8113 12.7139C88.2326 13.1301 88.4437 13.6415 88.4437 14.2489C88.4437 14.8567 88.2326 15.3683 87.8113 15.784ZM85.938 9.93174H82.8359V6.33421H85.938C86.4787 6.33421 86.9319 6.51398 87.2982 6.87398C87.6639 7.23375 87.8472 7.65331 87.8472 8.13286C87.8472 8.61285 87.6639 9.03241 87.2982 9.39218C86.9319 9.75195 86.4787 9.93174 85.938 9.93174ZM90.114 11.7066C89.7642 11.3707 89.3661 11.0991 88.921 10.8914C89.2392 10.7155 89.5334 10.4918 89.8038 10.2197C90.0265 9.99588 90.2334 9.7004 90.4243 9.33224C90.615 8.96473 90.7108 8.52517 90.7108 8.01314C90.7108 7.43746 90.5996 6.8979 90.3766 6.39405C90.1536 5.89083 89.8397 5.44697 89.4341 5.06312C89.0283 4.67948 88.5469 4.37604 87.9904 4.15196C87.4332 3.92809 86.8288 3.81606 86.1766 3.81606H79.9724V18.9257H86.4152C87.1313 18.9257 87.7874 18.8057 88.3839 18.566C88.9804 18.3262 89.4976 18.0105 89.9352 17.6184C90.3723 17.2271 90.7108 16.7712 90.9496 16.2514C91.1884 15.732 91.3077 15.1843 91.3077 14.6086C91.3077 13.9213 91.1838 13.3375 90.9369 12.8577C90.69 12.3782 90.4162 11.9943 90.114 11.7066ZM44.7123 18.8255L46.7293 12.2674L48.7461 18.8255H51.1187L54.6781 7.85546H51.9494L49.8138 14.8903L47.5597 7.85546H45.8987L43.6446 14.8903L41.5092 7.85546H38.7803L42.3394 18.8255H44.7123ZM55.7454 18.8253H58.474V7.85529H55.7454V18.8253ZM102.893 15.5224C103.185 14.8472 103.332 14.1194 103.332 13.3405C103.332 12.5614 103.185 11.8341 102.893 11.1584C102.6 10.483 102.205 9.89073 101.707 9.38171C101.208 8.87313 100.63 8.47163 99.9747 8.17723C99.3181 7.88325 98.6181 7.73595 97.8747 7.73595C97.1303 7.73595 96.4312 7.88325 95.7746 8.17723C95.118 8.47163 94.541 8.87313 94.0427 9.38171C93.5443 9.89073 93.1482 10.483 92.8561 11.1584C92.5631 11.8341 92.4174 12.5614 92.4174 13.3405C92.4174 14.1194 92.5631 14.8472 92.8561 15.5224C93.1482 16.1983 93.5443 16.7905 94.0427 17.2992C94.541 17.8081 95.118 18.2096 95.7746 18.5034C96.4312 18.7978 97.1303 18.9447 97.8747 18.9447C98.6181 18.9447 99.3181 18.7978 99.9747 18.5034C100.63 18.2096 101.208 17.8081 101.707 17.2992C102.205 16.7905 102.6 16.1983 102.893 15.5224ZM95.1451 13.3403C95.1451 14.2464 95.4065 14.97 95.9284 15.5105C96.4511 16.051 97.0987 16.3212 97.8747 16.3212C98.6488 16.3212 99.2982 16.051 99.8201 15.5105C100.342 14.97 100.603 14.2464 100.603 13.3403C100.603 12.4339 100.342 11.711 99.8201 11.1701C99.2982 10.6297 98.6488 10.3594 97.8747 10.3594C97.0987 10.3594 96.4511 10.6297 95.9284 11.1701C95.4065 11.711 95.1451 12.4339 95.1451 13.3403ZM110.186 7.75988C110.091 7.74439 109.979 7.73601 109.853 7.73601C109.441 7.73601 109.074 7.80374 108.749 7.93858C108.426 8.07406 108.152 8.22911 107.931 8.40373C107.662 8.59448 107.432 8.8091 107.243 9.0478L106.769 7.85557H104.752V18.8254H107.48V12.9823C107.48 12.2673 107.689 11.6912 108.109 11.2537C108.528 10.8166 109.07 10.598 109.734 10.598C109.877 10.598 110.007 10.606 110.126 10.6217C110.244 10.6378 110.343 10.6536 110.422 10.6695C110.517 10.6854 110.604 10.7015 110.684 10.717V7.85557L110.446 7.8074C110.366 7.79192 110.28 7.776 110.186 7.75988ZM76.84 13.0303C77.2513 13.2847 77.5951 13.6143 77.8722 14.02C78.1487 14.4253 78.2874 14.9543 78.2874 15.6057C78.2874 16.0511 78.1926 16.4763 78.0026 16.8816C77.8127 17.287 77.5436 17.6412 77.1959 17.9428C76.8478 18.2452 76.4246 18.4875 75.9265 18.6704C75.4282 18.8529 74.8705 18.9443 74.2537 18.9443C72.83 18.9443 71.7506 18.619 71.0147 17.9669C70.5996 17.5988 70.2874 17.1598 70.0711 16.6549L72.3556 15.3676C72.4187 15.7335 72.5927 16.0431 72.8775 16.2975C73.1621 16.5517 73.5418 16.6788 74.0164 16.6788C74.4907 16.6788 74.8664 16.556 75.1434 16.3093C75.42 16.0629 75.5587 15.7889 75.5587 15.4865C75.5587 15.2324 75.42 15.0334 75.1434 14.8902C74.8664 14.7472 74.5224 14.6161 74.1114 14.4972C73.6997 14.3776 73.253 14.2548 72.7707 14.1273C72.2878 14.0002 71.8413 13.8135 71.4302 13.5669C71.0185 13.3204 70.6743 13.0027 70.3978 12.6129C70.1207 12.2235 69.9828 11.711 69.9828 11.0746C69.9828 10.6295 70.0735 10.2043 70.2554 9.79879C70.4372 9.39343 70.7021 9.03989 71.0504 8.73774C71.3981 8.4356 71.8098 8.19303 72.2843 8.01045C72.759 7.82767 73.2962 7.73584 73.8979 7.73584C75.2106 7.73584 76.219 8.05432 76.9229 8.69C77.2907 9.02225 77.5776 9.39902 77.7877 9.81814L75.5587 11.0744C75.4951 10.8362 75.325 10.5977 75.0488 10.3594C74.7716 10.1207 74.4274 10.0014 74.0164 10.0014C73.605 10.0014 73.2846 10.105 73.0555 10.3117C72.8259 10.5183 72.7114 10.7728 72.7114 11.0746C72.7114 11.3291 72.8497 11.5277 73.1265 11.671C73.403 11.8138 73.7472 11.9452 74.1589 12.0645C74.5697 12.1837 75.0165 12.3112 75.4993 12.446C75.9817 12.5813 76.4286 12.7761 76.84 13.0303ZM68.2627 14.02C67.9856 13.6143 67.6417 13.2847 67.2305 13.0303C66.8191 12.7761 66.3721 12.5813 65.8898 12.446C65.4071 12.3112 64.9601 12.1837 64.5493 12.0645C64.1377 11.9452 63.7934 11.8138 63.517 11.671C63.24 11.5277 63.1018 11.3291 63.1018 11.0746C63.1018 10.7728 63.2163 10.5183 63.4459 10.3117C63.6751 10.105 63.9953 10.0014 64.4068 10.0014C64.8179 10.0014 65.1621 10.1207 65.4392 10.3594C65.7154 10.5977 65.8855 10.8362 65.949 11.0744L68.1781 9.81814C67.968 9.39902 67.6811 9.02225 67.3135 8.69C66.6093 8.05432 65.6009 7.73584 64.2883 7.73584C63.6866 7.73584 63.1493 7.82767 62.6748 8.01045C62.2001 8.19303 61.7885 8.4356 61.4408 8.73774C61.0927 9.03989 60.8276 9.39343 60.6457 9.79879C60.4639 10.2043 60.3731 10.6295 60.3731 11.0746C60.3731 11.711 60.5112 12.2235 60.7883 12.6129C61.0647 13.0027 61.409 13.3204 61.8207 13.5669C62.2316 13.8135 62.6784 14.0002 63.1611 14.1273C63.6434 14.2548 64.0901 14.3776 64.5018 14.4972C64.9128 14.6161 65.2569 14.7472 65.5337 14.8902C65.8104 15.0334 65.949 15.2324 65.949 15.4865C65.949 15.7889 65.8104 16.0629 65.5337 16.3093C65.2569 16.556 64.8812 16.6788 64.4068 16.6788C63.9323 16.6788 63.5527 16.5517 63.2679 16.2975C62.9831 16.0431 62.8091 15.7335 62.746 15.3676L60.4615 16.6549C60.6778 17.1598 60.99 17.5988 61.4051 17.9669C62.1409 18.619 63.2206 18.9443 64.644 18.9443C65.2609 18.9443 65.8185 18.8529 66.3168 18.6704C66.8152 18.4875 67.2382 18.2452 67.5863 17.9428C67.9342 17.6412 68.2034 17.287 68.3932 16.8816C68.5829 16.4763 68.6777 16.0511 68.6777 15.6057C68.6777 14.9543 68.5391 14.4253 68.2627 14.02ZM119.704 8.92823L120.179 7.85536H122.196V18.1099C122.196 19.5409 121.741 20.6933 120.831 21.5679C119.922 22.442 118.636 22.8796 116.976 22.8796C115.963 22.8796 115.144 22.6964 114.519 22.3311C113.895 21.9651 113.401 21.5518 113.037 21.0907C112.898 20.9135 112.775 20.7251 112.66 20.5315L114.841 19.3025C114.951 19.5088 115.101 19.6916 115.291 19.8509C115.465 19.9776 115.686 20.0972 115.956 20.2086C116.224 20.3195 116.564 20.3754 116.976 20.3754C117.751 20.3754 118.36 20.1647 118.803 19.7436C119.246 19.3223 119.467 18.7776 119.467 18.1099V17.275C119.246 17.4981 118.993 17.6968 118.708 17.8712C118.455 18.0306 118.154 18.1694 117.806 18.2888C117.458 18.4081 117.063 18.4677 116.62 18.4677C115.939 18.4677 115.295 18.3327 114.686 18.0622C114.077 17.792 113.547 17.4183 113.096 16.9413C112.646 16.4643 112.289 15.9 112.029 15.248C111.767 14.5963 111.637 13.8812 111.637 13.1018C111.637 12.3232 111.767 11.6078 112.029 10.9555C112.289 10.3037 112.646 9.73896 113.096 9.2622C113.547 8.78544 114.077 8.4119 114.686 8.14137C115.295 7.87127 115.939 7.73601 116.62 7.73601C117.094 7.73601 117.521 7.79966 117.901 7.92675C118.281 8.05428 118.605 8.18911 118.874 8.33212C119.174 8.5076 119.451 8.70565 119.704 8.92823ZM118.803 15.0455C119.04 14.7989 119.23 14.509 119.373 14.1751C119.515 13.8413 119.586 13.4833 119.586 13.1019C119.586 12.72 119.515 12.3624 119.373 12.0289C119.23 11.6949 119.04 11.405 118.803 11.1581C118.565 10.9119 118.288 10.717 117.972 10.574C117.656 10.4308 117.323 10.3594 116.976 10.3594C116.611 10.3594 116.271 10.4308 115.955 10.574C115.639 10.717 115.362 10.9119 115.125 11.1581C114.888 11.405 114.701 11.6949 114.567 12.0289C114.433 12.3624 114.366 12.72 114.366 13.1019C114.366 13.4833 114.433 13.8413 114.567 14.1751C114.701 14.509 114.888 14.7989 115.125 15.0455C115.362 15.292 115.639 15.4868 115.955 15.6298C116.271 15.7731 116.611 15.8445 116.976 15.8445C117.323 15.8445 117.656 15.7731 117.972 15.6298C118.288 15.4868 118.565 15.292 118.803 15.0455Z" fill="white"/>
</g>
<defs>
<clipPath id="clip0_2908_142">
<rect width="123" height="22" fill="white" transform="translate(0 0.879639)"/>
</clipPath>
</defs>
</svg>
