<svg width="81" height="23" viewBox="0 0 81 23" fill="none" xmlns="http://www.w3.org/2000/svg">
<g clip-path="url(#clip0_2047_231)">
<path d="M10.3682 18.2703L10.3104 18.3264C9.37984 19.2774 8.30275 19.7814 7.1929 19.7814C4.87624 19.7814 3.19459 18.0382 3.19459 15.6329C3.19459 13.232 4.87624 11.4863 7.1929 11.4863C8.30275 11.4863 9.37984 11.9924 10.3104 12.9459L10.3682 13.0036L11.858 11.1966L11.8182 11.1476C10.5792 9.67897 9.09251 8.96402 7.26482 8.96402C5.4308 8.96402 3.75428 9.58312 2.546 10.6996C1.23319 11.9087 0.540039 13.6138 0.540039 15.6329C0.540039 17.651 1.23319 19.3603 2.546 20.5697C3.75428 21.6914 5.4308 22.3071 7.26482 22.3071C9.09251 22.3071 10.5792 21.5925 11.8182 20.1233L11.858 20.0777L10.3682 18.2703Z" fill="white"/>
<path d="M13.3633 22.0612H15.9953V9.17342H13.3633V22.0612Z" fill="white"/>
<path d="M26.3057 19.2589C25.6035 19.6877 24.95 19.9033 24.3631 19.9033C23.5128 19.9033 23.1285 19.4531 23.1285 18.4504V11.6121H25.8091V9.18522H23.1285V5.17513L20.5487 6.55994V9.18522H18.3232V11.6121H20.5487V18.8866C20.5487 20.8685 21.7192 22.2225 23.4664 22.2577C24.6527 22.281 25.3679 21.9265 25.8023 21.6674L25.8277 21.6484L26.4614 19.1635L26.3057 19.2589Z" fill="white"/>
<path d="M28.4854 22.0612H31.1191V9.17342H28.4854V22.0612Z" fill="white"/>
<path d="M73.0971 4.26974V16.5633L73.917 15.2832C73.9164 15.2889 77.6006 9.93761 78.0728 9.25525H79.7148C79.3652 9.72627 76.4685 13.725 76.4685 13.725C76.4685 13.725 80.2418 21.6119 80.4598 22.0612H78.8474C78.7587 21.8772 75.5172 14.9939 75.5172 14.9939L73.0971 18.3951V22.0612H71.5949V5.13023C71.7263 5.05455 72.7436 4.46965 73.0971 4.26974ZM60.757 10.782C61.5319 9.62008 62.746 8.97941 64.1664 8.97941C66.9987 8.97941 68.4997 10.7913 68.4997 14.2199V22.0612H66.9938V14.5446C66.9938 11.6276 65.9839 10.2735 63.7964 10.2735C61.7027 10.2735 60.4525 11.8708 60.4525 14.5446V22.0612H58.9508V9.25525H60.4525V11.2411L60.757 10.782ZM51.5241 8.97941C54.4387 8.97941 55.8555 10.3163 55.8555 13.0671V22.0612H54.3532V20.1928L54.0609 20.5162C52.9553 21.7397 51.6862 22.338 50.1752 22.338C48.9912 22.338 46.2362 21.9449 46.2362 18.2993C46.2362 15.3194 48.6886 14.2617 50.9859 14.2617C52.1395 14.2617 53.279 14.5282 54.1059 14.993L54.3532 15.1304V13.292C54.3532 11.2537 53.3607 10.2214 51.3995 10.2214C50.1901 10.2214 49.0986 10.5276 47.9794 11.1603C47.8806 10.9327 47.5335 10.1629 47.4369 9.94329C48.6066 9.32492 50.051 8.97941 51.5241 8.97941ZM47.7093 18.1738C47.7093 20.0881 48.6982 21.1431 50.4948 21.1431C52.0239 21.1431 53.382 20.4185 54.3249 19.1007L54.3532 19.0555V16.2479L54.2697 16.1994C53.3108 15.6511 52.3288 15.4299 50.8853 15.4299C48.8983 15.4299 47.7093 16.4554 47.7093 18.1738ZM36.1095 4.26974V11.1202L36.4004 10.8008C37.5067 9.57506 38.7313 8.97941 40.1393 8.97941C42.9569 8.97941 44.5742 11.335 44.5742 15.4434C44.5742 19.6315 42.7374 22.338 39.8935 22.338C38.5079 22.338 37.3983 21.7987 36.4019 20.6428L36.1095 20.3015V22.0612H34.6104V5.13023C34.738 5.05455 35.7571 4.46965 36.1095 4.26974ZM36.1452 12.2359L36.1095 12.2832V18.9493L36.1363 18.9902C36.965 20.2765 38.3149 21.0456 39.7518 21.0456C41.9707 21.0456 43.0954 19.1697 43.0954 15.4707C43.0954 12.1663 41.8493 10.2735 39.6766 10.2735C38.3597 10.2735 37.1715 10.9335 36.1452 12.2359Z" fill="white"/>
<path fill-rule="evenodd" clip-rule="evenodd" d="M32.6959 6.88667C30.2866 3.46356 26.2853 1.42125 22.2144 1.42125C18.1451 1.42125 14.143 3.46356 11.7377 6.88667L11.6143 7.06281H14.648L14.6816 7.02627C16.7464 4.88864 19.4418 3.75818 22.2144 3.75818C24.9872 3.75818 27.6821 4.88864 29.7509 7.02627L29.7845 7.06281H32.8173L32.6959 6.88667Z" fill="white"/>
</g>
<defs>
<clipPath id="clip0_2047_231">
<rect width="81" height="22" fill="white" transform="translate(0 0.879639)"/>
</clipPath>
</defs>
</svg>
