<svg xmlns="http://www.w3.org/2000/svg" xmlns:xlink="http://www.w3.org/1999/xlink" viewBox="0 0 75.58 76"><defs><style>.cls-1{fill:#1e1f25;}.cls-2{fill:#f90;}.cls-3{fill:url(#linear-gradient);}.cls-4{fill:url(#linear-gradient-2);}.cls-5{fill:url(#linear-gradient-3);}.cls-6{fill:url(#linear-gradient-4);}.cls-7{fill:url(#linear-gradient-5);}</style><linearGradient id="linear-gradient" x1="6.18" y1="375.87" x2="67.22" y2="419.08" gradientTransform="matrix(1, 0, 0, -1, 0, 436.23)" gradientUnits="userSpaceOnUse"><stop offset="0" stop-color="#c64ef1"/><stop offset="0.1" stop-color="#bc55ed"/><stop offset="0.28" stop-color="#a26be3"/><stop offset="0.5" stop-color="#778dd3"/><stop offset="0.76" stop-color="#3cbdbd"/><stop offset="1" stop-color="#00efa7"/></linearGradient><linearGradient id="linear-gradient-2" x1="6.33" y1="375.66" x2="67.37" y2="418.87" xlink:href="#linear-gradient"/><linearGradient id="linear-gradient-3" x1="14.48" y1="391.78" x2="40.53" y2="421.46" xlink:href="#linear-gradient"/><linearGradient id="linear-gradient-4" x1="23.72" y1="383.67" x2="49.77" y2="413.36" xlink:href="#linear-gradient"/><linearGradient id="linear-gradient-5" x1="31.7" y1="376.67" x2="57.75" y2="406.36" xlink:href="#linear-gradient"/></defs><title>Asset 1</title><g id="Layer_2" data-name="Layer 2"><g id="Layer_1-2" data-name="Layer 1"><path class="cls-1" d="M37.79,76A38,38,0,1,0,0,38,37.89,37.89,0,0,0,37.79,76Z"/><path class="cls-2" d="M54.43,61.69a2,2,0,0,0-1.54.27,28.07,28.07,0,0,1-36.62-5.64,28.43,28.43,0,0,1,4.66-41.06,2.08,2.08,0,0,0,.41-2.89A2,2,0,0,0,18.48,12a32.62,32.62,0,0,0-5.34,47,32,32,0,0,0,22,11.38c.91.07,1.83.11,2.74.11a31.9,31.9,0,0,0,17.23-5,2.06,2.06,0,0,0-.65-3.74Z"/><path class="cls-2" d="M62.43,17A32.21,32.21,0,0,0,32.61,5.93,2.06,2.06,0,0,0,33.27,10a28.16,28.16,0,0,1,26,9.68,28.49,28.49,0,0,1,2.64,33,2,2,0,1,0,3.5,2.13,32.64,32.64,0,0,0-3-37.75Z"/><path class="cls-2" d="M30.9,21.1c-.22,4-.47,8.06-.53,12.09a47,47,0,0,0-5.3,11.23c-.19-2.79-.33-5.59-.36-8.38-.06-5,.25-10,.53-14.93a2.88,2.88,0,0,1,3-2.74,2.5,2.5,0,0,1,2.67,2.74Z"/><path class="cls-2" d="M41.88,24.48a24.32,24.32,0,0,0-2.75,10.25,37.52,37.52,0,0,0-6,10.84c-.35.93-.65,1.88-.94,2.83q-.49,1.73-.87,3.48a4.36,4.36,0,0,0-.11.52,2.83,2.83,0,0,1-.73,1.4,2.83,2.83,0,0,1-1.76.57,3.26,3.26,0,0,1-1.79-.52.1.1,0,0,1-.05,0,1.92,1.92,0,0,1-.21-.16,1.94,1.94,0,0,1-.21-.2l-.19-.21L26.09,53a2.15,2.15,0,0,1-.14-.26,2.83,2.83,0,0,1-.21-1.85A50.56,50.56,0,0,1,30.4,37.69c.36-.67.73-1.33,1.12-2s.75-1.21,1.15-1.81a34.44,34.44,0,0,1,9.21-9.43Z"/><path class="cls-2" d="M52.51,55.48A2.6,2.6,0,0,1,51,55c-6.28-4.28-9.71-11.86-9.62-19.34a15.84,15.84,0,0,1,.09-1.82c0-.64.13-1.27.24-1.9a20.65,20.65,0,0,1,3.87-9,3.36,3.36,0,0,1,2.15-1.37,2.1,2.1,0,0,1,.36,0h0a2.53,2.53,0,0,1,1.34.38,3.19,3.19,0,0,1,1.3,1.75h0a3.11,3.11,0,0,1-.26,2.1l0,0,0,.06c-.09.12-.19.24-.27.37a15.91,15.91,0,0,0-1.28,2.08A14.7,14.7,0,0,0,48.09,30a16,16,0,0,0-.94,8.42c.69,4.32,3.06,9.09,6.73,11.6,2.51,1.7.95,5.41-1.38,5.41Z"/><path class="cls-1" d="M37.79,76A38,38,0,1,0,0,38,37.89,37.89,0,0,0,37.79,76Z"/><path class="cls-3" d="M54.43,61.69a2,2,0,0,0-1.54.27,28.07,28.07,0,0,1-36.62-5.64,28.43,28.43,0,0,1,4.66-41.06,2.08,2.08,0,0,0,.41-2.89A2,2,0,0,0,18.48,12a32.62,32.62,0,0,0-5.34,47,32,32,0,0,0,22,11.38c.91.07,1.83.11,2.74.11a31.9,31.9,0,0,0,17.23-5,2.06,2.06,0,0,0-.65-3.74Z"/><path class="cls-4" d="M62.43,17A32.21,32.21,0,0,0,32.61,5.93,2.06,2.06,0,0,0,33.27,10a28.16,28.16,0,0,1,26,9.68,28.49,28.49,0,0,1,2.64,33,2,2,0,1,0,3.5,2.13,32.64,32.64,0,0,0-3-37.75Z"/><path class="cls-5" d="M30.9,21.1c-.22,4-.47,8.06-.53,12.09a47,47,0,0,0-5.3,11.23c-.19-2.79-.33-5.59-.36-8.38-.06-5,.25-10,.53-14.93a2.88,2.88,0,0,1,3-2.74,2.5,2.5,0,0,1,2.67,2.74Z"/><path class="cls-6" d="M41.88,24.48a24.32,24.32,0,0,0-2.75,10.25,37.52,37.52,0,0,0-6,10.84c-.35.93-.65,1.88-.94,2.83q-.49,1.73-.87,3.48a4.36,4.36,0,0,0-.11.52,2.83,2.83,0,0,1-.73,1.4,2.83,2.83,0,0,1-1.76.57,3.26,3.26,0,0,1-1.79-.52.1.1,0,0,1-.05,0,1.92,1.92,0,0,1-.21-.16,1.94,1.94,0,0,1-.21-.2l-.19-.21L26.09,53a2.15,2.15,0,0,1-.14-.26,2.83,2.83,0,0,1-.21-1.85A50.56,50.56,0,0,1,30.4,37.69c.36-.67.73-1.33,1.12-2s.75-1.21,1.15-1.81a34.44,34.44,0,0,1,9.21-9.43Z"/><path class="cls-7" d="M52.51,55.48A2.6,2.6,0,0,1,51,55c-6.28-4.28-9.71-11.86-9.62-19.34a15.84,15.84,0,0,1,.09-1.82c0-.64.13-1.27.24-1.9a20.65,20.65,0,0,1,3.87-9,3.36,3.36,0,0,1,2.15-1.37,2.1,2.1,0,0,1,.36,0h0a2.53,2.53,0,0,1,1.34.38,3.19,3.19,0,0,1,1.3,1.75h0a3.11,3.11,0,0,1-.26,2.1l0,0,0,.06c-.09.12-.19.24-.27.37a15.91,15.91,0,0,0-1.28,2.08A14.7,14.7,0,0,0,48.09,30a16,16,0,0,0-.94,8.42c.69,4.32,3.06,9.09,6.73,11.6,2.51,1.7.95,5.41-1.38,5.41Z"/></g></g></svg>