<svg width="90" height="90" viewBox="0 0 90 90" fill="none" xmlns="http://www.w3.org/2000/svg">
<rect width="90" height="90" rx="30" fill="#F7F7F7"/>
<path d="M33.9599 41.0466C34.0097 40.9065 34.0662 40.7701 34.1212 40.633C34.1835 40.4783 34.2451 40.3235 34.3133 40.1725C34.3749 40.0353 34.4424 39.9026 34.5091 39.7684C34.5825 39.6217 34.6558 39.4751 34.7335 39.3357C34.8069 39.2045 34.8802 39.0769 34.9601 38.9485C35.0401 38.8202 35.1273 38.675 35.2153 38.5415C35.3033 38.4081 35.384 38.2951 35.4713 38.1749C35.5585 38.0546 35.659 37.9175 35.7565 37.7921C35.8541 37.6667 35.9428 37.5596 36.0389 37.4459C36.1349 37.3323 36.2457 37.2054 36.3535 37.0888C36.4613 36.9722 36.5551 36.8732 36.6585 36.7683C36.7619 36.6635 36.8859 36.5439 37.0025 36.4347C37.1191 36.3254 37.2173 36.2367 37.3281 36.1413C37.4498 36.0357 37.5745 35.9345 37.6999 35.8348C37.8135 35.7439 37.9272 35.6544 38.0438 35.5686C38.1751 35.4718 38.3085 35.3801 38.4427 35.2892C38.5615 35.2093 38.6803 35.1286 38.8021 35.0531C38.9414 34.9658 39.0844 34.8844 39.2281 34.803C39.3506 34.7297 39.4731 34.6622 39.5992 34.5969C39.7459 34.5192 39.8991 34.4503 40.0509 34.3769C40.1778 34.3175 40.3032 34.2567 40.4315 34.2024C40.5885 34.1349 40.7498 34.0763 40.9097 34.0161C41.0387 33.9677 41.1663 33.9171 41.2969 33.8695C41.4641 33.8137 41.6349 33.7668 41.8051 33.7184C41.9327 33.6817 42.0595 33.6414 42.1886 33.6091C42.3697 33.5644 42.5553 33.5299 42.7386 33.4933C42.8611 33.4691 42.9828 33.4397 43.1053 33.4199C43.3121 33.3862 43.5218 33.3642 43.7323 33.3407C43.8357 33.3297 43.9383 33.3121 44.0425 33.3041C44.3593 33.2791 44.6785 33.2667 45.0002 33.2667C45.383 33.2667 45.7621 33.2872 46.1383 33.3224C46.263 33.3349 46.3847 33.3576 46.5094 33.3737C46.7587 33.4053 47.0073 33.4375 47.253 33.4845C47.3997 33.5131 47.539 33.5512 47.682 33.5849C47.902 33.6363 48.122 33.6869 48.3369 33.7507C48.4872 33.7954 48.6339 33.8482 48.782 33.8973C48.9851 33.9663 49.1875 34.0359 49.3863 34.1173C49.5329 34.1775 49.6796 34.2449 49.8263 34.3117C50.0169 34.3982 50.2069 34.4869 50.3924 34.5837C50.5391 34.6571 50.6806 34.7399 50.8229 34.8221C51.0025 34.9262 51.18 35.034 51.3545 35.1477C51.4929 35.2381 51.63 35.3315 51.7659 35.4278C51.9361 35.5495 52.1025 35.6771 52.2661 35.8077C52.3959 35.9118 52.5249 36.0159 52.6503 36.1252C52.7097 36.1773 52.7735 36.2227 52.8329 36.2719L59.1249 30.0935C55.3199 26.4644 50.2584 24.4481 45.0002 24.4667C40.6389 24.4744 36.3928 25.8667 32.8738 28.4431C29.3549 31.0194 26.7449 34.6467 25.4202 38.8019L33.9166 41.1625C33.9269 41.1229 33.9459 41.0862 33.9599 41.0466ZM46.2395 56.6673L45.9902 56.6893C45.6675 56.7113 45.3302 56.7333 45.0002 56.7333C41.8896 56.7293 38.9075 55.4918 36.708 53.2922C34.5084 51.0927 33.2709 48.1106 33.2669 45C33.2679 44.6375 33.2875 44.2752 33.3255 43.9147C33.3329 43.8267 33.3402 43.746 33.3475 43.658C33.3915 43.2987 33.4429 42.9467 33.5162 42.5947C33.5157 42.5907 33.5161 42.5867 33.5174 42.5829C33.5187 42.5791 33.5208 42.5756 33.5235 42.5727L32.5775 42.316L25.0242 40.2187C24.3068 43.2367 24.2816 46.3779 24.9505 49.4069C25.6194 52.436 26.965 55.2745 28.8867 57.7097C30.8083 60.1449 33.2561 62.1137 36.0466 63.4686C38.8372 64.8235 41.8981 65.5294 45.0002 65.5333C46.4869 65.5319 47.9693 65.3721 49.4222 65.0567L47.2149 56.528C46.8922 56.5867 46.5695 56.6307 46.2395 56.6673ZM25.9922 46.5253C25.9555 46.0267 25.9335 45.5133 25.9335 45C25.9335 44.8055 26.0108 44.619 26.1483 44.4815C26.2859 44.3439 26.4724 44.2667 26.6669 44.2667C26.8614 44.2667 27.0479 44.3439 27.1854 44.4815C27.3229 44.619 27.4002 44.8055 27.4002 45C27.4002 45.4693 27.4222 45.946 27.4589 46.408C27.4725 46.6021 27.4095 46.7937 27.2833 46.9418C27.1572 47.0899 26.978 47.1826 26.7842 47.2H26.7255C26.5408 47.2006 26.3626 47.1314 26.2267 47.0064C26.0907 46.8813 26.007 46.7095 25.9922 46.5253ZM42.0522 63.1133C42.0184 63.279 41.9284 63.4279 41.7974 63.5348C41.6665 63.6417 41.5026 63.7001 41.3335 63.7C41.2844 63.6988 41.2353 63.6939 41.1869 63.6853C37.6576 62.9553 34.406 61.2438 31.8062 58.7478C29.2065 56.2518 27.364 53.0727 26.4909 49.576C26.4665 49.4826 26.4611 49.3852 26.4749 49.2896C26.4888 49.194 26.5216 49.1022 26.5715 49.0195C26.6214 48.9368 26.6873 48.865 26.7654 48.8081C26.8435 48.7513 26.9322 48.7107 27.0262 48.6887C27.2149 48.6422 27.4143 48.6724 27.5806 48.7728C27.747 48.8731 27.8667 49.0354 27.9135 49.224C28.7198 52.4517 30.4207 55.3864 32.8207 57.6904C35.2207 59.9943 38.2223 61.5741 41.4802 62.248C41.5746 62.2673 41.6643 62.3049 41.7441 62.3588C41.8239 62.4127 41.8924 62.4818 41.9455 62.5622C41.9986 62.6425 42.0354 62.7326 42.0537 62.8271C42.072 62.9217 42.0715 63.019 42.0522 63.1133ZM45.0002 64.0667C44.7435 64.0667 44.4942 64.0593 44.2375 64.052C44.1412 64.0482 44.0466 64.0255 43.959 63.9851C43.8715 63.9447 43.7928 63.8875 43.7274 63.8167C43.662 63.7458 43.6112 63.6628 43.578 63.5723C43.5447 63.4818 43.5296 63.3857 43.5335 63.2893C43.5452 63.0963 43.6311 62.9152 43.7733 62.784C43.9154 62.6528 44.1028 62.5816 44.2962 62.5854C44.5309 62.5927 44.7655 62.6 45.0002 62.6C45.1947 62.6 45.3812 62.6773 45.5187 62.8148C45.6563 62.9523 45.7335 63.1389 45.7335 63.3333C45.7335 63.5278 45.6563 63.7144 45.5187 63.8519C45.3812 63.9894 45.1947 64.0667 45.0002 64.0667ZM53.8625 37.3235C53.9109 37.3785 53.952 37.4386 53.9989 37.4943C54.106 37.6219 54.2079 37.7532 54.3099 37.8845C54.4316 38.0421 54.5497 38.2013 54.6626 38.3648C54.7604 38.5032 54.853 38.6437 54.9405 38.7865C55.0454 38.9522 55.1444 39.1201 55.2405 39.291C55.3226 39.4377 55.4025 39.5843 55.4781 39.731C55.5668 39.907 55.6489 40.0859 55.7289 40.2663C55.7956 40.413 55.8623 40.5663 55.9225 40.7188C55.9958 40.908 56.0611 41.1001 56.1256 41.293C56.1755 41.4397 56.2283 41.5922 56.2723 41.7447C56.3324 41.9508 56.3793 42.1605 56.4277 42.371C56.4607 42.5177 56.5011 42.657 56.526 42.8029C56.5707 43.0405 56.5993 43.2811 56.6309 43.5216C56.6463 43.6448 56.669 43.7658 56.6807 43.8883C56.7152 44.2549 56.7343 44.6216 56.7343 44.9963C56.7343 45.3234 56.7196 45.6475 56.6932 45.9695C56.6844 46.078 56.6661 46.1843 56.6543 46.2921C56.6309 46.5033 56.6089 46.7153 56.5744 46.9243C56.5531 47.0497 56.5231 47.1729 56.5011 47.2975C56.4644 47.4845 56.4277 47.6715 56.3823 47.8556C56.3493 47.9869 56.3089 48.1152 56.2708 48.2457C56.2209 48.4181 56.1733 48.5911 56.1153 48.7591C56.0706 48.8911 56.0185 49.0201 55.9687 49.1507C55.9071 49.3127 55.8469 49.4755 55.778 49.6347C55.7223 49.7652 55.6592 49.8921 55.5991 50.0197C55.5257 50.1729 55.4524 50.3262 55.3747 50.4765C55.3079 50.6027 55.2353 50.7259 55.1642 50.8498C55.0806 50.9965 54.9963 51.1432 54.9068 51.2817C54.8298 51.4035 54.7484 51.5215 54.667 51.6403C54.5724 51.7767 54.4778 51.9132 54.3781 52.0459C54.2908 52.1618 54.1999 52.2747 54.1089 52.3869C54.0048 52.5152 53.8999 52.6421 53.7907 52.7653C53.6929 52.8748 53.5951 52.9821 53.4973 53.0872C53.3837 53.206 53.2685 53.3233 53.1505 53.4377C53.0449 53.5397 52.9378 53.6387 52.8285 53.7369C52.7058 53.8465 52.5809 53.9535 52.4538 54.0581C52.3401 54.1513 52.225 54.2437 52.1077 54.3331C51.9764 54.4329 51.8429 54.5282 51.708 54.6228C51.5863 54.7079 51.4638 54.7915 51.3413 54.8722C51.202 54.9609 51.0605 55.0459 50.9175 55.1288C50.7877 55.2021 50.6586 55.2755 50.5259 55.3488C50.3792 55.4265 50.2289 55.4999 50.0778 55.5688C49.9421 55.6341 49.8072 55.6994 49.6679 55.7595C49.5131 55.8262 49.3555 55.8864 49.1971 55.9472C49.0548 56.0015 48.914 56.0565 48.7695 56.1056C48.7277 56.1195 48.6881 56.1371 48.6463 56.1511L48.8099 56.784L50.85 64.6856C54.1865 63.694 57.2164 61.8709 59.6553 59.3874C62.0941 56.904 63.862 53.8416 64.793 50.4876C65.724 47.1337 65.7876 43.5982 64.9778 40.2129C64.168 36.8277 62.5113 33.7037 60.1633 31.1341L53.8625 37.3235Z" fill="#101216"/>
</svg>
