<svg width="90" height="90" viewBox="0 0 90 90" fill="none" xmlns="http://www.w3.org/2000/svg">
<rect width="90" height="90" rx="30" fill="#F7F7F7"/>
<path d="M45.9978 67.9387C47.4261 67.9387 48.6351 66.9958 49.0319 65.6982H42.9638C43.3606 66.9958 44.5695 67.9387 45.9978 67.9387ZM51.8318 59.3713H40.1537C39.4235 59.3713 38.8203 59.9743 38.8203 60.7359C38.8203 61.4659 39.4235 62.0689 40.1537 62.0689H41.4227C40.6929 62.0689 40.0901 62.6718 40.0901 63.4017C40.0901 64.1633 40.6928 64.7663 41.4227 64.7663H50.5623C51.3239 64.7663 51.9271 64.1633 51.9271 63.4017C51.9271 62.6718 51.324 62.0689 50.5623 62.0689H51.8318C52.5934 62.0689 53.1961 61.4659 53.1961 60.7359C53.1961 59.9743 52.5934 59.3713 51.8318 59.3713ZM63.0034 53.0715L60.8053 51.8024C60.3817 51.5578 59.8402 51.703 59.5957 52.1265C59.3695 52.5185 59.4801 53.0086 59.8333 53.2736C60.0185 53.4747 59.9646 53.3802 62.237 54.7124C62.6605 54.9568 63.2021 54.8118 63.4465 54.3884C63.7246 53.9064 63.4888 53.3519 63.0034 53.0715ZM30.1645 44.3191C30.1645 43.8301 29.768 43.4337 29.279 43.4337H26.7408C26.2519 43.4337 25.8555 43.8301 25.8555 44.3191C25.8555 44.8081 26.2519 45.2045 26.7408 45.2045H29.2789C29.768 45.2045 30.1645 44.8081 30.1645 44.3191ZM65.259 43.4303H62.7209C62.232 43.4303 61.8355 43.8267 61.8355 44.3157C61.8355 44.8047 62.232 45.2011 62.7209 45.2011H65.259C65.7479 45.2011 66.1445 44.8047 66.1445 44.3157C66.1445 43.8267 65.7479 43.4303 65.259 43.4303ZM31.0862 51.8706L28.8881 53.1396C28.4647 53.384 28.3196 53.9256 28.564 54.349C28.8085 54.7725 29.3501 54.9176 29.7735 54.6732L31.9716 53.404C32.3951 53.1595 32.5402 52.618 32.2957 52.1945C32.0513 51.7711 31.5097 51.626 31.0862 51.8706ZM60.9315 36.6803L63.1297 35.4113C63.5531 35.1669 63.6984 34.6252 63.4539 34.2017C63.2094 33.7782 62.6677 33.6332 62.2442 33.8777L60.0462 35.1467C59.6228 35.3912 59.4777 35.9327 59.7221 36.3562C59.9666 36.7797 60.5081 36.9247 60.9315 36.6803ZM53.9121 30.5197C54.3356 30.7643 54.8771 30.6191 55.1215 30.1957L56.3905 27.9976C56.635 27.5741 56.49 27.0325 56.0665 26.788C55.643 26.5435 55.1014 26.6887 54.857 27.1121L53.5879 29.3103C53.3434 29.7337 53.4886 30.2753 53.9121 30.5197ZM45.9622 28.3703C46.4512 28.3703 46.8475 27.9738 46.8475 27.4849V24.9467C46.8475 24.4578 46.4512 24.0613 45.9622 24.0613C45.4732 24.0613 45.0768 24.4579 45.0768 24.9467V27.4849C45.0767 27.9738 45.4732 28.3703 45.9622 28.3703ZM36.7931 30.1597C37.0376 30.5831 37.5791 30.7282 38.0026 30.4837C38.4261 30.2392 38.5711 29.6977 38.3266 29.2743L37.0576 27.0762C36.8132 26.6528 36.2716 26.5075 35.8481 26.752C35.4246 26.9965 35.2796 27.5381 35.524 27.9616L36.7931 30.1597ZM28.7586 35.3488L30.9566 36.6179C31.38 36.8623 31.9216 36.7172 32.1661 36.2937C32.4106 35.8702 32.2655 35.3287 31.842 35.0843L29.6439 33.8152C29.2205 33.5708 28.6789 33.7157 28.4344 34.1393C28.19 34.5627 28.3352 35.1043 28.7586 35.3488ZM50.5975 46.573L49.8405 47.101C49.3625 47.4346 48.725 47.4346 48.2469 47.101L46.0805 45.592C46.0308 45.5571 45.966 45.5571 45.9162 45.592L43.7448 47.101C43.2667 47.4346 42.6293 47.4346 42.1512 47.101L41.3992 46.578C41.2848 46.4921 41.1367 46.6167 41.185 46.7373L44.9306 58.44H47.1075L50.8116 46.7325C50.8598 46.6359 50.7449 46.4989 50.5975 46.573Z" fill="#101216"/>
<path d="M46.5718 30.5035C38.674 30.1815 32.1719 36.5016 32.1719 44.3201C32.1719 49.0998 34.6131 53.3241 38.3052 55.812C39.2528 56.4375 39.9669 57.3523 40.2656 58.4399H43.5925L39.9895 47.116C39.5856 45.8496 41.0245 44.7881 42.116 45.5521L42.8681 46.075C42.9178 46.1099 42.9826 46.1099 43.0324 46.075L45.2038 44.5659C45.6769 44.2322 46.3193 44.2322 46.7924 44.5659L48.9637 46.075C49.0135 46.1099 49.0783 46.1099 49.123 46.075L49.885 45.5471C50.9921 44.7831 52.4059 45.8691 52.0065 47.1109V47.1159L48.4036 58.4398H51.7388C52.0703 57.3382 52.8171 56.4093 53.7739 55.7512C57.4194 53.2773 59.7999 49.1137 59.8233 44.3712C59.8468 37.043 53.9001 30.7976 46.5718 30.5035Z" fill="#101216"/>
</svg>
