<svg width="90" height="90" viewBox="0 0 90 90" fill="none" xmlns="http://www.w3.org/2000/svg">
<rect width="90" height="90" rx="30" fill="#F7F7F7"/>
<path d="M64.0313 35.6389C63.6379 35.3105 63.1601 35.0993 62.6524 35.0294C62.1447 34.9595 61.6276 35.0338 61.1601 35.2436L52.466 39.1078L47.4039 29.9959C47.1657 29.5672 46.8173 29.2099 46.3946 28.9612C45.9719 28.7125 45.4904 28.5813 45 28.5813C44.5096 28.5813 44.028 28.7125 43.6054 28.9612C43.1827 29.2099 42.8342 29.5672 42.5961 29.9959L37.5338 39.1076L28.8384 35.243C28.3705 35.0351 27.8539 34.9619 27.3467 35.0317C26.8396 35.1016 26.362 35.3115 25.9677 35.6381C25.5734 35.9646 25.2781 36.3948 25.115 36.88C24.9519 37.3653 24.9275 37.8865 25.0445 38.3849L29.4179 57.0046C29.5011 57.3651 29.657 57.7048 29.8759 58.003C30.0948 58.3013 30.3722 58.5517 30.6912 58.7391C31.0119 58.9279 31.3672 59.0503 31.736 59.0991C32.1049 59.1478 32.4798 59.1219 32.8385 59.023C40.7946 56.8265 49.1969 56.8257 57.1534 59.0206C57.5119 59.1195 57.8867 59.1453 58.2554 59.0965C58.6241 59.0478 58.9792 58.9254 59.2997 58.7368C59.6185 58.5495 59.8959 58.2993 60.1148 58.0013C60.3337 57.7033 60.4896 57.3638 60.573 57.0036L64.9539 38.3864C65.0731 37.888 65.0498 37.3661 64.8867 36.8803C64.7235 36.3945 64.4271 35.9644 64.0313 35.6389ZM51.8674 50.9324C51.8488 51.1121 51.7948 51.2863 51.7087 51.4451C51.6226 51.6039 51.506 51.7441 51.3657 51.8578C51.2253 51.9715 51.0638 52.0563 50.8906 52.1075C50.7174 52.1587 50.5358 52.1752 50.3561 52.156C46.7952 51.7821 43.2048 51.7821 39.6438 52.156C39.2818 52.1928 38.92 52.0847 38.6376 51.8552C38.3553 51.6258 38.1753 51.2938 38.1373 50.9319C38.0992 50.5701 38.2061 50.2079 38.4346 49.9247C38.663 49.6415 38.9944 49.4605 39.3561 49.4211C43.1084 49.027 46.8916 49.027 50.6438 49.4211C50.8234 49.44 50.9975 49.4941 51.1562 49.5802C51.3149 49.6664 51.455 49.783 51.5687 49.9233C51.6823 50.0637 51.7672 50.225 51.8184 50.3982C51.8697 50.5713 51.8863 50.7528 51.8674 50.9324Z" fill="#101216"/>
</svg>
