<svg width="665" height="758" viewBox="0 0 665 758" fill="none" xmlns="http://www.w3.org/2000/svg">
<g clipPath="url(#clip0_2986_150)">
<path d="M145.903 329.362C146.383 326.724 141.824 311.607 134.145 310.889C131.507 310.648 129.107 312.807 127.907 314.965C126.707 317.365 126.228 320.006 125.99 322.644C123.111 351.679 131.266 381.91 148.3 405.665L145.903 329.362Z" fill="white"/>
<path d="M147.342 406.385L149.262 404.944C132.466 381.43 124.307 351.437 127.187 322.644C127.187 320.244 127.669 317.606 128.866 315.448C129.828 313.527 131.986 311.607 133.907 311.848C135.824 311.848 137.745 313.527 139.666 315.927C143.262 320.727 144.942 327.682 144.704 329.123L147.103 329.603C147.583 327.444 145.424 319.765 141.583 314.727C139.424 311.607 136.786 309.927 134.145 309.689C130.786 309.21 128.148 312.089 126.707 314.486C125.269 317.127 125.028 319.765 124.79 322.644C121.91 351.917 130.066 382.63 147.342 406.385Z" fill="black"/>
<path d="M237.555 460.13C180.931 457.733 141.583 425.34 136.786 361.037C135.107 340.161 136.066 305.13 148.783 301.051C159.579 297.451 163.897 311.848 162.938 320.486C168.217 294.093 187.649 301.051 186.452 324.086C185.731 310.889 198.448 296.251 206.124 311.607C214.042 332.244 206.845 358.158 220.521 375.672C242.355 399.426 286.742 408.064 292.5 444.775C271.145 454.133 250.752 460.371 237.314 459.892L237.555 460.13Z" fill="white"/>
<path d="M239.476 461.33C251.952 461.33 269.945 456.292 293.218 446.216L294.179 445.733V444.775C290.341 420.54 270.186 408.303 250.752 396.306C240.193 389.83 229.397 383.351 221.721 374.951C214.042 365.113 213.324 352.637 212.362 339.441C211.645 329.844 211.162 320.244 207.566 311.368C203.724 303.689 199.166 303.689 196.769 304.169C192.928 305.13 189.331 309.448 187.169 314.727C185.49 307.289 181.172 302.969 176.614 302.489C172.296 302.01 167.255 304.651 163.897 313.289C163.179 308.727 161.259 304.169 157.9 301.769C155.259 299.61 151.9 299.131 148.303 300.331C131.748 305.848 135.107 355.758 135.586 361.516C140.145 422.699 177.334 459.171 237.314 461.571C238.035 461.571 238.755 461.571 239.235 461.571L239.476 461.33ZM291.3 444.295C268.028 454.371 249.311 459.412 237.555 458.933C177.814 456.533 142.545 421.74 137.986 361.037C136.545 341.12 137.266 306.33 149.021 302.251C151.9 301.289 154.3 301.769 156.459 303.451C160.538 306.81 162.459 314.727 161.738 320.486L164.138 320.965C166.776 308.489 172.293 304.651 176.135 305.13C180.693 305.61 185.252 311.607 185.252 321.924C185.252 322.886 185.252 323.606 185.252 324.565H187.652C187.652 323.606 187.652 322.886 187.652 321.924C188.131 314.968 192.21 308.01 197.007 306.81C200.848 305.848 203.486 309.448 205.166 312.568C208.283 320.965 209.004 330.562 209.724 339.92C210.683 352.878 211.645 366.554 219.562 376.872C227.479 385.509 238.514 392.227 249.073 398.706C267.786 410.223 287.221 421.981 291.059 444.536L291.3 444.295Z" fill="black"/>
<path d="M171.335 403.026L173.255 401.347C162.217 388.389 159.579 371.833 159.338 360.316C159.1 345.44 161.979 330.562 165.097 315.927L162.697 315.448C159.579 330.082 156.459 344.958 156.938 360.316C157.179 372.313 160.059 389.589 171.335 402.785V403.026ZM198.928 389.83L200.607 388.147C184.052 369.913 185.972 344.72 187.89 322.406V319.765H185.731V322.165C183.572 344.958 181.414 370.633 198.686 389.589L198.928 389.83Z" fill="black"/>
<path d="M228.438 90.3827L213.562 49.8325L173.014 64.709L187.649 105.259L228.2 90.3827H228.438Z" fill="white"/>
<path d="M187.89 106.698H188.369L230.117 91.3423L214.283 48.6328L171.576 64.4689L186.931 106.458L187.89 106.938V106.698ZM227 89.9026L188.61 104.059L174.693 65.6686L213.083 51.5121L227.238 89.9026H227Z" fill="black"/>
<path d="M187.89 105.259L173.255 65.1888L155.738 62.0698L170.617 102.62L187.89 105.739C187.89 105.739 188.131 105.739 187.89 105.499V105.259Z" fill="white"/>
<path d="M188.131 106.699L188.849 105.979C189.09 105.499 189.331 105.019 189.09 104.539L174.214 63.7494H173.493L155.259 60.1501L154.3 61.3501V62.0698L169.655 103.34L188.131 106.699ZM172.296 65.9087L186.211 103.82L171.335 101.18L157.421 63.2694L172.296 65.9087Z" fill="black"/>
<path d="M213.321 49.3529L195.807 45.9937L155.259 61.1098L173.014 64.9491L213.321 49.3529Z" fill="white"/>
<path d="M173.255 66.6283L214.521 50.5525V48.6329H213.562L195.807 45.0339H195.569L154.3 60.6297V62.5497H155.259L173.493 66.8683L173.255 66.6283ZM209.245 50.0725L173.014 64.229L159.338 61.3497L196.048 47.6732L209.483 50.0725H209.245ZM248.593 187.798C240.642 187.798 234.197 181.353 234.197 173.402C234.197 165.451 240.642 159.005 248.593 159.005C256.544 159.005 262.99 165.451 262.99 173.402C262.99 181.353 256.544 187.798 248.593 187.798Z" fill="black"/>
<path d="M248.593 188.998C257.231 188.998 264.187 182.04 264.187 173.402C264.187 164.764 257.231 157.806 248.593 157.806C239.955 157.806 232.997 164.764 232.997 173.402C232.997 182.04 239.955 188.998 248.593 188.998ZM248.593 160.206C255.79 160.206 261.79 166.204 261.79 173.402C261.79 180.6 255.79 186.599 248.593 186.599C241.393 186.599 235.397 180.6 235.397 173.402C235.397 166.204 241.393 160.206 248.593 160.206ZM38.6551 184.439C32.5576 184.439 27.6172 179.498 27.6172 173.402C27.6172 167.306 32.5576 162.365 38.6551 162.365C44.7495 162.365 49.6898 167.306 49.6898 173.402C49.6898 179.498 44.7495 184.439 38.6551 184.439Z" fill="white"/>
<path d="M38.6551 185.639C45.3725 185.639 50.8898 180.12 50.8898 173.402C50.8898 166.684 45.3725 161.165 38.6551 161.165C31.9348 161.165 26.4174 166.684 26.4174 173.402C26.4174 180.12 31.9348 185.639 38.6551 185.639ZM38.6551 163.564C44.1725 163.564 48.4899 167.883 48.4899 173.402C48.4899 178.92 44.1725 183.24 38.6551 183.24C33.1347 183.24 28.8173 178.92 28.8173 173.402C28.8173 167.883 33.1347 163.564 38.6551 163.564ZM187.411 296.972L222.441 216.352L141.824 181.32L106.793 261.462C106.793 261.462 106.793 261.7 106.793 261.941L187.411 296.972Z" fill="black"/>
<path d="M106.314 263.141L187.89 298.651L223.879 215.872L141.104 179.881L105.355 261.7V262.42C105.593 262.9 106.073 263.141 106.314 263.141ZM186.69 295.531L107.993 261.462L142.304 183.24L220.762 217.311L186.69 295.772V295.531Z" fill="white"/>
<path d="M107.035 261.7L141.583 182.04C141.583 182.04 141.583 181.8 141.583 181.56L120.469 152.287L85.4413 232.907L106.314 261.7C106.314 261.941 106.793 261.7 107.035 261.7Z" fill="black"/>
<path d="M106.073 262.9C106.314 262.9 106.555 262.9 106.793 262.9C107.273 262.9 107.755 262.42 107.993 261.941L142.545 182.28C142.545 181.8 142.545 181.08 142.545 180.6L120.949 150.847H119.51V151.567L84.0002 232.669L105.355 261.941C105.355 261.941 105.835 262.42 106.073 262.42V262.9ZM140.383 181.8L106.555 259.779L86.8795 232.669L120.71 154.686L140.383 181.8Z" fill="white"/>
<path d="M222.679 215.392L201.566 185.879L120.948 151.328C120.948 151.328 120.469 151.327 120.71 151.567L141.583 182.04L222.679 215.392C222.679 215.392 223.159 215.392 222.921 215.152L222.679 215.392Z" fill="black"/>
<path d="M140.624 183.479L221.959 217.072C222.441 217.31 223.159 217.072 223.638 216.59C224.121 216.111 224.121 215.391 223.638 214.912L202.286 185.159L121.431 150.368C120.948 150.128 120.231 150.368 119.748 150.848C119.269 151.327 119.269 152.047 119.748 152.527L140.862 183.479H140.624ZM219.8 213.472L142.303 181.56L123.589 153.967L200.845 187.078L219.8 213.472Z" fill="white"/>
<path d="M408.866 88.2231C381.993 168.123 377.914 217.072 387.031 292.651C393.99 287.855 457.093 264.1 490.203 263.141C537.228 261.7 591.693 256.903 642.078 267.7C611.847 105.019 649.995 -36.5462 408.866 88.4631V88.2231Z" fill="black"/>
<path d="M584.014 674.159C671.109 761.255 756.284 708.711 765.161 700.073C843.139 622.091 721.254 369.913 661.512 326.003C607.527 286.413 386.073 302.489 375.276 372.072C359.441 474.047 356.321 570.984 363.038 674.397L584.254 673.918L584.014 674.159Z" fill="white"/>
<path d="M691.264 724.787C695.822 724.787 699.901 724.787 703.979 724.066C736.61 720.707 760.843 705.832 765.882 700.79C785.796 680.877 794.194 648.963 790.835 605.777C782.677 498.522 705.899 356.958 662.232 325.044C622.403 295.772 494.759 296.493 422.783 326.244C393.749 338.241 376.955 354.078 374.076 372.072C358.721 470.93 354.883 567.146 361.838 674.639H364.238C357.279 566.905 361.121 470.929 376.476 372.313C379.114 355.278 395.431 340.161 423.741 328.403C493.8 299.372 622.163 298.651 660.792 326.965C703.259 358.158 780.517 501.402 788.435 606.015C791.794 648.484 783.636 679.918 764.202 699.111C744.768 718.307 738.529 718.307 703.74 721.666C674.468 724.545 630.081 718.549 584.734 673.198L583.055 674.877C622.883 714.708 662.232 724.787 691.264 724.787Z" fill="black"/>
<path d="M694.382 362.716L518.752 459.892L371.197 398.947L364.479 459.892L520.914 511.24L729.892 421.261L694.382 362.716Z" fill="black"/>
<path d="M550.101 232.965L560.235 332.745L483.373 340.552L473.239 240.772L550.101 232.965Z" fill="white"/>
<path d="M481.565 341.12L483.962 340.882L473.886 242.265L548.266 234.586L558.342 333.203L560.741 332.962L550.424 231.948L471.248 240.107L481.565 341.12Z" fill="black"/>
<path d="M581.376 126.853C586.654 119.895 596.731 117.495 604.889 120.375C613.046 123.254 619.284 130.692 621.684 139.09C624.083 147.488 623.123 156.606 620.004 164.764C616.405 174.121 610.167 182.519 601.77 187.798C593.372 193.317 582.815 195.476 573.218 193.557C583.055 172.922 586.414 149.408 581.376 126.853Z" fill="white"/>
<path d="M580.415 195.236C588.093 195.236 596.011 192.837 602.728 188.518C611.126 183.239 617.844 174.842 621.443 164.764C624.802 155.646 625.522 146.289 623.122 138.37C620.483 129.253 613.765 121.815 605.607 118.935C596.49 115.816 586.174 118.695 580.655 125.894V126.853C585.214 148.208 582.335 171.482 572.258 192.837L571.538 194.277H572.978C575.377 194.996 577.776 195.236 580.176 195.236H580.415ZM597.93 120.135C600.329 120.135 602.489 120.615 604.648 121.335C612.086 123.974 618.324 130.692 620.723 139.09C622.883 146.528 622.403 155.406 619.044 164.044C615.445 173.402 609.207 181.56 601.289 186.598C593.372 191.637 583.775 193.797 574.897 192.357C584.495 171.242 587.374 147.968 582.575 126.853C586.174 122.534 591.692 120.135 597.691 120.135H597.93Z" fill="black"/>
<path d="M579.696 97.8208C587.374 145.089 588.094 213.712 548.986 249.462C528.831 267.7 500.038 271.779 476.045 258.821C425.662 231.707 417.745 152.527 418.462 103.099C418.462 92.7822 421.342 82.7046 426.38 73.8268C466.21 4.24405 561.701 12.1619 579.456 97.8208H579.696Z" fill="white"/>
<path d="M506.038 267.458C521.873 267.458 537.707 261.7 549.945 250.424C593.852 210.353 586.174 130.212 580.896 97.8206C572.738 58.7104 547.786 32.3168 513.714 26.7982C479.407 21.2796 444.855 39.5151 425.662 73.3469C420.621 82.2245 417.742 92.542 417.503 103.1C416.545 149.648 423.021 231.707 475.566 260.02C485.162 265.058 495.48 267.7 505.797 267.7L506.038 267.458ZM578.736 98.0606C584.014 130.213 591.453 209.153 548.504 248.503C528.831 266.5 500.038 270.099 477.007 257.62C423.741 228.828 419.424 139.81 420.142 102.86C420.142 92.782 423.021 82.7045 428.059 74.3066C446.776 41.4347 480.365 23.679 513.714 28.9576C546.586 34.2365 571.058 59.9101 578.976 98.0606H578.736Z" fill="black"/>
<path d="M487.562 173.402L488.521 171.242C484.445 169.563 480.604 167.164 477.486 164.044C487.803 155.886 494.521 143.17 495.238 129.973C495.959 116.296 490.442 102.619 480.366 93.2619L478.686 94.9415C488.283 103.819 493.559 116.776 492.841 129.733C492.121 142.69 485.404 155.166 475.086 162.845L473.886 163.564L474.845 164.524C478.445 168.363 483.004 171.242 487.803 173.402H487.562ZM518.514 14.561C515.876 49.5925 497.879 70.7072 484.683 81.9844C465.969 97.8205 424.941 132.852 402.628 132.852C400.228 76.7058 428.059 47.1932 446.055 33.0364C464.049 18.88 494.041 10.0021 518.752 14.321L518.514 14.561ZM487.562 207.714C498.121 207.714 508.438 205.074 517.555 199.795L516.355 197.636C502.917 205.314 486.604 207.234 471.248 202.915L470.528 205.314C476.045 206.994 481.804 207.714 487.562 207.714ZM457.331 142.929C453.224 142.929 449.893 139.599 449.893 135.491C449.893 131.383 453.224 128.053 457.331 128.053C461.438 128.053 464.769 131.383 464.769 135.491C464.769 139.599 461.438 142.929 457.331 142.929ZM526.431 139.81C522.324 139.81 518.993 136.48 518.993 132.372C518.993 128.264 522.324 124.934 526.431 124.934C530.538 124.934 533.869 128.264 533.869 132.372C533.869 136.48 530.538 139.81 526.431 139.81ZM518.273 370.633C518.273 370.633 593.132 349.037 600.09 308.489L592.892 307.289C586.654 343.999 517.793 364.154 517.793 364.154C517.793 364.154 460.69 353.596 448.455 318.565L441.497 320.485C452.052 357.196 518.273 370.872 518.273 370.872V370.633Z" fill="black"/>
<path d="M510.596 15.0412C533.869 11.6819 557.383 21.0397 575.377 35.6762C605.368 60.1502 604.888 72.387 611.606 94.7014C618.324 117.016 616.165 111.257 622.403 141.97C602.488 114.137 571.778 133.812 554.262 122.055C538.186 111.257 500.038 77.4256 510.355 15.0412H510.596Z" fill="black"/>
<path d="M508.676 405.664C505.317 395.588 499.079 386.468 491.162 379.271C488.521 376.871 485.162 374.713 481.804 375.433C478.445 376.151 476.045 379.512 475.086 382.871C473.645 387.43 473.645 392.227 475.086 396.547C475.807 399.185 477.007 401.826 479.404 403.026C480.845 403.744 482.762 403.985 484.442 403.985C492.121 404.226 499.559 404.706 508.676 405.664Z" fill="white"/>
<path d="M510.355 407.106L509.635 405.423C506.038 395.106 500.038 385.751 491.88 378.551C489.483 376.392 485.642 373.513 481.565 374.472C476.766 375.433 474.607 380.71 473.886 382.871C472.448 387.43 472.448 392.709 473.886 397.268C474.845 400.865 476.524 403.265 478.924 404.465C480.845 405.426 482.762 405.423 484.442 405.423C491.88 405.665 499.559 406.144 508.435 407.106H510.355ZM483.245 376.633C485.404 376.633 487.803 377.83 490.442 380.471C497.879 386.951 503.397 395.347 506.997 404.706C498.838 403.744 491.641 403.506 484.683 403.265C483.004 403.265 481.324 403.265 480.124 402.544C478.445 401.585 477.007 399.668 476.286 396.789C475.086 392.468 475.086 387.909 476.286 383.589C476.766 382.151 478.445 377.592 482.045 376.872C482.283 376.872 482.765 376.872 483.004 376.872L483.245 376.633Z" fill="black"/>
<path d="M394.231 554.908C378.876 502.84 315.293 411.423 283.142 398.468C272.345 394.147 195.569 438.295 193.41 469.009C190.049 517.236 306.897 653.042 355.6 673.439C360.4 675.359 385.352 676.797 390.631 676.318L394.231 554.908Z" fill="white"/>
<path d="M388.472 677.518C389.431 677.518 390.152 677.518 390.631 677.518V675.118C385.593 675.359 360.638 674.159 356.08 672.239C333.048 662.642 292.741 625.932 255.79 580.822C216.441 532.833 192.928 490.123 194.607 469.009C195.807 452.212 220.762 430.857 243.793 416.223C263.469 403.744 279.062 397.985 282.662 399.426C313.373 411.664 377.435 501.881 393.031 555.146L395.431 554.429C379.593 500.681 314.814 409.744 283.621 397.268C277.624 394.868 258.19 404.464 242.593 414.302C231.079 421.502 193.89 446.695 192.21 468.771C188.852 516.036 303.776 652.804 355.121 674.397C359.68 676.318 380.555 677.518 388.472 677.518ZM481.385 354.787L462.583 350.927L429.537 511.929L448.339 515.789C457.035 517.575 465.533 511.972 467.319 503.273L493.852 374.001C495.638 365.305 490.036 356.808 481.34 355.022L481.385 354.787Z" fill="black"/>
<path d="M495 300.089C524.99 306.33 546.345 325.044 542.986 342.079C539.387 359.116 512.276 367.992 482.283 361.754C452.293 355.516 430.938 336.803 434.297 319.765C437.897 302.73 465.01 293.851 495 300.089ZM487.804 335.603C500.038 338.002 511.794 335.123 519.232 332.482C526.669 329.844 522.593 326.723 519.232 325.524C512.514 322.885 502.438 319.286 490.921 316.886C479.886 314.727 469.807 314.006 463.09 313.768C459.49 313.768 457.573 318.086 460.211 320.486C465.969 326.003 475.566 332.961 487.562 335.603H487.804Z" fill="black"/>
<path d="M475.328 390.068C477.966 390.068 480.604 388.868 482.762 386.468C485.162 383.83 486.603 380.471 487.083 376.392C487.562 372.554 487.083 368.713 485.404 365.595C483.724 362.475 481.083 360.554 478.207 360.075C475.328 359.596 472.207 361.037 469.807 363.675C467.407 366.313 465.969 369.672 465.49 373.751C465.01 377.592 465.49 381.43 467.169 384.551C468.848 387.668 471.486 389.589 474.366 390.068C474.607 390.068 475.086 390.068 475.328 390.068ZM477.007 362.475C477.007 362.475 477.486 362.475 477.724 362.475C479.886 362.716 481.804 364.154 483.004 366.795C484.445 369.434 484.924 372.792 484.442 376.151C483.962 379.51 482.762 382.63 480.845 384.789C478.924 386.95 476.766 387.909 474.607 387.668C472.448 387.43 470.528 385.989 469.328 383.351C467.89 380.709 467.407 377.351 467.89 373.992C468.369 370.633 469.569 367.513 471.486 365.354C473.166 363.434 475.086 362.475 477.007 362.475Z" fill="white"/>
<path d="M512.035 407.344C482.045 376.63 445.097 373.992 442.935 395.827C440.776 417.661 444.135 411.182 474.607 414.782C462.849 413.582 435.497 406.385 434.297 425.82C434.297 432.057 437.176 440.937 444.376 441.416C429.98 442.137 422.542 463.492 434.538 471.888C421.103 469.729 416.783 489.643 428.3 493.964C444.614 499.96 482.524 521.795 502.197 529.953C506.038 529.953 517.793 528.995 519.473 525.636C564.82 447.654 599.37 484.364 511.797 407.344H512.035Z" fill="white"/>
<path d="M501.959 531.153H502.197C502.197 531.153 518.035 530.915 520.673 526.354C534.349 502.84 547.066 489.643 555.462 481.005C562.9 473.329 567.459 468.768 567.219 462.771C566.979 453.892 555.462 444.054 525.231 417.423C521.393 414.061 517.314 410.464 512.755 406.385C490.921 384.071 465.969 377.113 452.773 381.671C446.294 383.83 442.214 388.868 441.497 395.588C440.776 402.785 442.456 407.585 451.573 411.185C446.294 411.185 441.256 412.382 437.656 415.261C434.776 417.661 433.097 421.02 432.859 425.578C432.859 430.619 434.779 437.816 439.338 440.937C433.338 443.095 429.259 448.613 427.58 454.133C425.9 460.371 427.1 466.13 430.7 470.209C425.18 470.688 421.583 475.009 420.383 479.806C418.942 485.326 420.383 492.285 427.341 494.681C435.738 497.802 450.614 505.481 465.249 512.919C478.445 519.636 491.88 526.836 501.479 530.674L501.959 531.153ZM461.649 382.871C474.845 382.871 493.8 390.789 511.076 408.303C515.635 412.382 519.714 415.982 523.552 419.34C552.583 444.775 564.58 455.333 564.82 463.009C564.82 467.809 560.742 472.129 553.783 479.326C545.145 488.205 532.19 501.402 518.514 525.157C517.314 527.315 508.197 528.754 502.438 528.754C493.08 524.916 479.645 517.957 466.69 511.24C451.573 503.319 437.176 495.881 428.538 492.764C423.021 490.843 421.821 485.085 423.021 480.526C423.98 476.447 427.58 471.888 434.059 472.847H435.018L435.738 471.168L435.018 470.688C429.259 466.85 428.78 459.892 430.218 454.854C431.9 449.095 436.938 442.854 444.135 442.375V439.975C438.138 439.737 435.259 431.337 435.259 425.578C435.259 421.74 436.697 419.102 439.338 416.94C445.094 412.144 456.611 413.344 465.49 414.544C467.649 415.023 470.287 415.261 472.928 415.502C473.407 415.502 473.886 415.502 474.366 415.502V413.102C474.366 413.102 473.645 413.102 473.407 413.102C472.207 413.102 470.766 412.864 469.566 412.623C468.369 412.623 467.407 412.382 466.207 412.144C444.855 408.544 443.655 403.026 444.376 395.588C445.094 389.589 448.452 385.509 453.973 383.589C456.373 382.871 459.011 382.392 462.131 382.392L461.649 382.871Z" fill="black"/>
<path d="M443.292 439.837L470.983 442.65L470.741 445.037L443.051 442.225L443.292 439.837ZM456.372 480.285L456.852 477.888C448.935 475.968 441.255 473.329 433.817 469.968L432.859 472.129C440.297 475.488 448.455 478.367 456.372 480.285ZM505.418 416.788L507.681 417.582L505.143 424.827L502.878 424.033L505.418 416.788ZM497.779 447.743L500.044 448.533L497.507 455.782L495.241 454.988L497.779 447.743ZM490.588 476.615L492.854 477.409L490.313 484.657L488.051 483.863L490.588 476.615Z" fill="black"/>
<path d="M717.656 561.625C673.029 496.602 593.612 444.774 559.542 448.133C525.473 451.492 491.162 531.394 494.042 542.912C497.88 558.026 572.498 661.68 585.934 676.318L717.656 561.625Z" fill="white"/>
<path d="M584.974 677.277L586.653 675.597C573.457 660.963 498.838 557.308 495 542.671C493.8 537.633 506.759 513.398 524.511 487.964C540.348 465.409 554.262 449.813 559.3 449.333C592.652 445.975 671.828 497.561 716.455 562.346L718.374 560.905C673.268 495.402 593.132 443.575 559.062 446.933C550.183 447.895 528.831 477.406 522.352 486.526C506.756 508.84 490.683 536.191 492.362 543.15C496.438 559.226 572.258 663.601 584.494 677.039L584.974 677.277Z" fill="black"/>
<path d="M526.431 593.298C564.34 558.026 593.132 513.639 609.447 464.45L607.288 463.73C590.973 512.678 562.421 556.829 524.752 591.86L526.19 593.539L526.431 593.298ZM219.321 534.753C260.828 509.56 297.779 475.488 325.849 435.898L323.931 434.457C295.859 473.809 259.39 507.64 218.121 532.594L219.321 534.753ZM530.99 424.381C556.662 411.902 619.044 376.63 643.037 318.327L640.878 317.365C617.125 374.951 555.462 409.744 530.031 422.22L530.99 424.381ZM443.414 391.747L444.855 389.83C425.659 376.392 411.266 360.075 400.228 338.482L398.069 339.682C409.586 361.754 423.98 378.313 443.655 391.988L443.414 391.747ZM523.793 419.102L525.952 417.902C520.431 407.823 517.314 385.509 518.993 368.954H516.593C515.155 383.83 517.555 407.585 523.793 419.102Z" fill="black"/>
<path d="M571.778 154.927L550.904 85.3439C550.183 82.9445 550.904 81.0249 552.104 80.5452L596.73 61.3499C599.37 63.0295 611.846 81.2649 614.485 97.341L578.976 159.246C577.296 161.885 572.977 159.246 571.538 154.927H571.778Z" fill="white"/>
<path d="M577.297 161.645C578.496 161.645 579.696 160.925 580.176 159.966L615.925 97.8207V97.341C613.285 81.0249 600.81 62.3095 597.69 60.3901H597.21L551.865 79.5852C549.945 80.3052 548.986 82.9445 549.945 85.8238L570.818 155.407C571.778 158.526 574.417 161.165 576.816 161.645C576.816 161.645 577.057 161.645 577.297 161.645ZM613.286 97.341L578.016 158.766C578.016 159.246 577.536 159.246 577.056 159.246C575.617 159.246 573.698 157.326 572.978 154.687L552.104 85.1038C551.624 83.4242 551.865 81.9849 552.583 81.7449L596.731 62.7894C599.849 65.6687 610.887 82.2248 613.286 97.341Z" fill="black"/>
<path d="M392.552 143.65L392.069 138.131C389.672 111.977 408.386 88.703 434.297 86.3037L541.066 75.9862C566.74 73.5869 589.533 92.782 592.173 118.936L592.652 124.454C595.052 150.608 576.337 173.882 550.424 176.281L443.655 186.599C417.983 188.998 395.19 169.803 392.552 143.65Z" fill="white"/>
<path d="M439.097 187.799C440.538 187.799 442.217 187.799 443.655 187.799L550.424 177.481C576.816 174.842 596.251 151.087 593.612 124.214L593.132 118.696C591.932 105.499 585.694 93.7419 575.617 85.5837C565.78 77.4258 553.304 73.5868 540.828 74.7865L434.059 85.104C407.666 87.7433 388.231 111.497 390.869 138.371L391.352 143.89C392.552 157.086 398.79 168.843 408.866 177.001C417.504 184.199 428.059 188.039 439.097 188.039V187.799ZM545.386 76.7061C555.704 76.7061 565.78 80.3051 574.178 87.0233C583.775 94.9415 589.533 106.219 590.733 118.696L591.212 124.214C593.612 149.648 575.137 172.442 550.183 174.842L443.417 185.159C431.421 186.359 419.662 182.76 410.307 175.082C400.707 167.164 394.71 155.886 393.752 143.41L393.269 137.891C390.869 112.457 409.345 89.6629 434.297 87.2633L541.066 76.9461C542.507 76.9461 543.945 76.9461 545.386 76.9461V76.7061Z" fill="black"/>
<path d="M425.421 123.255C425.662 123.255 426.141 123.255 426.38 123.255C431.9 122.775 435.976 117.736 435.497 111.977C435.259 109.338 433.818 106.698 431.9 105.019C429.738 103.339 427.1 102.62 424.462 102.86C418.942 103.339 414.862 108.378 415.345 114.137C415.583 116.776 417.024 119.415 418.942 121.095C420.862 122.535 423.021 123.495 425.421 123.495V123.255ZM425.421 105.259C427.1 105.259 428.78 105.979 430.221 106.938C431.9 108.378 432.859 110.058 433.097 112.217C433.579 116.536 430.459 120.375 426.141 120.855C424.221 120.855 422.062 120.375 420.621 119.176C418.942 117.736 417.983 116.056 417.742 113.897C417.262 109.578 420.383 105.739 424.7 105.259C424.942 105.259 425.18 105.259 425.421 105.259ZM481.083 117.976C481.324 117.976 481.804 117.976 482.045 117.976C487.562 117.496 491.642 112.457 491.162 106.699C490.921 104.059 489.483 101.42 487.562 99.7406C485.404 98.0609 482.762 97.3409 480.124 97.5809C474.607 98.0609 470.528 103.1 471.007 108.858C471.248 111.497 472.686 114.137 474.607 115.816C476.524 117.256 478.686 118.216 481.083 118.216V117.976ZM481.083 99.9803C482.762 99.9803 484.442 100.7 485.883 101.66C487.562 103.1 488.521 104.779 488.762 106.939C489.242 111.258 486.124 115.097 481.804 115.576C479.883 115.576 477.724 115.097 476.286 113.897C474.607 112.457 473.645 110.778 473.407 108.618C472.928 104.299 476.045 100.46 480.366 99.9803C480.604 99.9803 480.845 99.9803 481.083 99.9803ZM536.748 112.457C536.987 112.457 537.469 112.457 537.707 112.457C543.228 111.977 547.304 106.938 546.824 101.18C546.583 98.5406 545.145 95.9013 543.225 94.2217C541.066 92.542 538.428 91.8224 535.79 92.0623C530.269 92.5423 526.19 97.5809 526.669 103.34C526.911 105.979 528.352 108.618 530.269 110.298C532.19 111.737 534.349 112.697 536.748 112.697V112.457ZM536.748 94.4616C538.428 94.4616 540.107 95.1816 541.545 96.1413C543.225 97.5809 544.186 99.2603 544.425 101.42C544.904 105.739 541.786 109.578 537.469 110.058C535.548 110.058 533.39 109.578 531.949 108.378C530.269 106.938 529.311 105.259 529.069 103.1C528.59 98.7806 531.71 94.9416 536.028 94.4616C536.269 94.4616 536.507 94.4616 536.748 94.4616ZM460.69 166.444C460.931 166.444 461.411 166.444 461.649 166.444C467.169 165.964 471.248 160.925 470.766 155.167C470.528 152.527 469.087 149.888 467.169 148.208C465.01 146.529 462.61 145.809 459.731 146.049C454.214 146.529 450.135 151.568 450.614 157.326C450.852 159.966 452.293 162.605 454.214 164.284C456.131 165.724 458.29 166.684 460.69 166.684V166.444ZM460.69 148.448C462.369 148.448 464.049 149.168 465.49 150.128C467.169 151.568 468.128 153.247 468.369 155.406C468.848 159.725 465.728 163.565 461.411 164.045C459.49 164.045 457.331 163.565 455.893 162.365C454.211 160.925 453.252 159.246 453.014 157.086C452.531 152.767 455.652 148.928 459.969 148.448C460.211 148.448 460.452 148.448 460.69 148.448ZM515.873 161.165C516.114 161.165 516.593 161.165 516.835 161.165C522.352 160.685 526.431 155.646 525.952 149.888C525.711 147.249 524.273 144.609 522.352 142.93C520.193 141.25 517.555 140.53 514.914 140.77C509.397 141.25 505.317 146.289 505.797 152.048C506.038 154.687 507.476 157.326 509.397 159.006C511.314 160.445 513.476 161.405 515.873 161.405V161.165ZM515.873 143.17C517.552 143.17 519.235 143.89 520.673 144.849C522.352 146.289 523.311 147.969 523.552 150.128C524.031 154.447 520.914 158.286 516.593 158.766C514.676 158.766 512.514 158.286 511.076 157.086C509.397 155.646 508.438 153.967 508.197 151.808C507.717 147.489 510.835 143.65 515.155 143.17C515.393 143.17 515.635 143.17 515.873 143.17ZM696.781 534.991L599.61 688.315C599.61 688.315 588.093 678.718 584.014 674.159C578.975 668.401 563.381 647.284 563.381 647.284L659.592 498.281L697.021 534.991H696.781ZM373.597 507.64L289.859 620.891L257.469 584.901L351.521 471.409L373.597 507.64Z" fill="black"/>
<path d="M265.148 231.707L305.935 301.772C306.414 302.489 305.935 303.451 304.976 303.451L236.597 309.927C236.597 309.927 236.117 309.927 236.355 309.448L263.707 231.707C263.707 230.989 264.669 230.989 265.148 231.707Z" fill="white"/>
<path d="M236.835 311.368L305.217 304.889C305.935 304.889 306.655 304.41 307.135 303.689C307.614 302.972 307.376 302.251 307.135 301.53L266.348 231.469C265.869 230.748 265.148 230.507 264.428 230.507C263.707 230.507 262.99 230.989 262.748 231.707L235.397 309.448C235.397 309.927 235.397 310.409 235.397 310.889C235.638 311.368 236.117 311.368 236.597 311.368H236.835ZM264.669 233.148L304.976 302.489L238.035 308.73L264.669 233.148Z" fill="black"/>
<path d="M263.948 231.707L236.597 309.689C236.597 309.927 236.117 309.927 236.117 309.689L216.203 282.814L264.19 231.469L263.948 231.707Z" fill="white"/>
<path d="M236.117 311.127C236.597 311.127 237.076 310.648 237.317 310.168L265.148 231.228L263.469 230.028L262.749 230.748L214.283 282.814L234.917 310.41C235.156 310.889 235.635 311.127 236.117 311.127ZM260.828 236.507L235.635 307.768L217.162 283.055L260.59 236.507H260.828Z" fill="black"/>
<path d="M47.0519 302.489L94.0762 294.334C94.7968 294.334 95.5173 294.813 95.2761 295.772L84.7208 335.123C84.7208 335.123 84.4795 335.361 84.2414 335.123L46.5725 303.93C46.0931 303.451 46.3313 302.73 47.0519 302.489Z" fill="white"/>
<path d="M84.4795 336.323C84.4795 336.323 84.7208 336.323 84.9589 336.323C85.4413 336.323 85.9207 335.841 85.9207 335.361L96.4761 296.013C96.4761 295.292 96.4761 294.331 95.9967 293.851C95.5173 293.372 94.5586 292.893 93.838 293.134L46.8106 301.289C46.0931 301.289 45.3725 302.01 45.1313 302.73C45.1313 303.451 45.1312 304.169 45.8518 304.651L83.5208 335.841C83.762 335.841 84.2414 336.082 84.4795 336.082V336.323ZM94.3173 295.531L84.0002 333.441L48.2518 303.689L94.3173 295.772V295.531Z" fill="black"/>
<path d="M46.0899 303.21L84.4795 335.123C84.4795 335.123 84.4795 335.362 84.4795 335.603L65.045 341.361L46.0899 303.451V303.21Z" fill="white"/>
<path d="M64.5656 342.799L85.6795 336.561V335.603C86.1589 335.123 85.6795 334.641 85.6795 334.162L46.5724 301.531L45.1312 302.73L45.6106 303.689L65.045 342.561L64.5656 342.799ZM82.562 335.123L66.0068 339.92L49.931 307.768L82.562 334.882V335.123ZM517.555 363.196C513.476 364.634 503.638 366.796 495.959 365.354L517.555 363.196Z" fill="black"/>
<path d="M501.479 367.034C507.955 367.034 514.676 365.595 518.035 364.396L517.314 362.237C513.235 363.675 503.879 365.595 496.2 364.396L495.721 366.795C497.641 367.034 499.559 367.275 501.479 367.275V367.034ZM600.856 72.342L609.597 87.2426L595.112 95.7419L586.37 80.8413L600.856 72.342Z" fill="white"/>
<path d="M591.212 100.7L607.767 90.8622L597.691 73.8264L581.135 83.6643L591.212 100.7ZM604.408 90.1425L591.932 97.3408L584.254 84.3839L596.731 77.1857L604.408 90.1425Z" fill="black"/>
</g>
<defs>
<clipPath id="clip0_2986_150">
<rect width="665" height="758" fill="white" transform="matrix(-1 0 0 1 665 0)"/>
</clipPath>
</defs>
</svg>
