<svg width="920" height="498" viewBox="0 0 920 498" fill="none" xmlns="http://www.w3.org/2000/svg">
<rect width="920" height="498" fill="white"/>
<path d="M109 411C115.649 376.391 144.907 307.172 208.74 307.172C288.533 307.172 324.254 361.867 417.5 282.142C492.096 218.361 580.5 76.0001 780 80.0001" stroke="black" stroke-width="6"/>
<rect x="163" y="302.372" width="29" height="30" transform="rotate(-20.9568 163 302.372)" fill="white"/>
<rect x="419.639" y="259.747" width="29" height="30" transform="rotate(-45.2755 419.639 259.747)" fill="white"/>
<rect x="671" y="73" width="29" height="30" fill="white"/>
<circle cx="183" cy="312" r="5" fill="white" stroke="black" stroke-width="4"/>
<circle cx="442" cy="259" r="5" fill="white" stroke="black" stroke-width="4"/>
<circle cx="686" cy="90" r="5" fill="white" stroke="black" stroke-width="4"/>
<path d="M173.44 235.2V252H177.28V235.2H173.44ZM187.079 239.664C185.495 239.664 184.295 240.24 183.647 241.128V240H180.047V252H183.647V245.448C183.647 243.744 184.559 242.976 185.879 242.976C187.031 242.976 187.967 243.672 187.967 245.16V252H191.567V244.632C191.567 241.392 189.503 239.664 187.079 239.664ZM199.799 252.336C202.151 252.336 204.191 251.112 205.223 249.24L202.079 247.44C201.695 248.28 200.807 248.784 199.751 248.784C198.191 248.784 197.039 247.656 197.039 246C197.039 244.344 198.191 243.216 199.751 243.216C200.807 243.216 201.671 243.72 202.079 244.56L205.223 242.736C204.191 240.888 202.127 239.664 199.799 239.664C196.151 239.664 193.439 242.424 193.439 246C193.439 249.576 196.151 252.336 199.799 252.336ZM210.389 242.136V240H206.789V252H210.389V246.576C210.389 244.2 212.501 243.6 213.989 243.84V239.76C212.477 239.76 210.869 240.528 210.389 242.136ZM218.536 247.44H227.056C227.152 246.984 227.2 246.504 227.2 246C227.2 242.376 224.608 239.664 221.104 239.664C217.312 239.664 214.72 242.424 214.72 246C214.72 249.576 217.264 252.336 221.368 252.336C223.648 252.336 225.424 251.496 226.6 249.864L223.72 248.208C223.24 248.736 222.4 249.12 221.416 249.12C220.096 249.12 218.992 248.688 218.536 247.44ZM218.464 244.752C218.8 243.528 219.712 242.856 221.08 242.856C222.16 242.856 223.24 243.36 223.624 244.752H218.464ZM237.837 240V241.128C237.045 240.216 235.869 239.664 234.261 239.664C231.117 239.664 228.525 242.424 228.525 246C228.525 249.576 231.117 252.336 234.261 252.336C235.869 252.336 237.045 251.784 237.837 250.872V252H241.437V240H237.837ZM234.981 248.928C233.325 248.928 232.125 247.8 232.125 246C232.125 244.2 233.325 243.072 234.981 243.072C236.637 243.072 237.837 244.2 237.837 246C237.837 247.8 236.637 248.928 234.981 248.928ZM247.369 243.504C247.369 243.072 247.753 242.832 248.377 242.832C249.169 242.832 249.649 243.264 249.985 243.888L253.057 242.232C252.049 240.528 250.321 239.664 248.377 239.664C245.881 239.664 243.673 240.984 243.673 243.6C243.673 247.752 249.577 247.056 249.577 248.376C249.577 248.856 249.145 249.12 248.281 249.12C247.225 249.12 246.553 248.616 246.241 247.704L243.121 249.48C244.057 251.424 245.881 252.336 248.281 252.336C250.873 252.336 253.273 251.16 253.273 248.4C253.273 243.96 247.369 244.872 247.369 243.504ZM258.169 247.44H266.689C266.785 246.984 266.833 246.504 266.833 246C266.833 242.376 264.241 239.664 260.737 239.664C256.945 239.664 254.353 242.424 254.353 246C254.353 249.576 256.897 252.336 261.001 252.336C263.281 252.336 265.057 251.496 266.233 249.864L263.353 248.208C262.873 248.736 262.033 249.12 261.049 249.12C259.729 249.12 258.625 248.688 258.169 247.44ZM258.097 244.752C258.433 243.528 259.345 242.856 260.713 242.856C261.793 242.856 262.873 243.36 263.257 244.752H258.097ZM181.456 276.336C186.28 276.336 190.192 272.544 190.192 267.6C190.192 262.656 186.28 258.864 181.456 258.864C176.632 258.864 172.72 262.656 172.72 267.6C172.72 272.544 176.632 276.336 181.456 276.336ZM181.456 272.592C178.72 272.592 176.56 270.6 176.56 267.6C176.56 264.6 178.72 262.608 181.456 262.608C184.192 262.608 186.352 264.6 186.352 267.6C186.352 270.6 184.192 272.592 181.456 272.592ZM195.834 266.136V264H192.234V276H195.834V270.576C195.834 268.2 197.946 267.6 199.434 267.84V263.76C197.922 263.76 196.314 264.528 195.834 266.136ZM209.573 264V265.224C208.781 264.24 207.629 263.664 206.069 263.664C202.661 263.664 200.165 266.448 200.165 269.76C200.165 273.072 202.661 275.856 206.069 275.856C207.629 275.856 208.781 275.28 209.573 274.296V275.4C209.573 277.104 208.541 277.968 206.861 277.968C205.277 277.968 204.581 277.296 204.125 276.456L201.053 278.232C202.157 280.2 204.245 281.136 206.741 281.136C209.933 281.136 213.077 279.432 213.077 275.4V264H209.573ZM206.669 272.544C204.965 272.544 203.765 271.416 203.765 269.76C203.765 268.104 204.965 266.976 206.669 266.976C208.373 266.976 209.573 268.104 209.573 269.76C209.573 271.416 208.373 272.544 206.669 272.544ZM224.43 264V265.128C223.638 264.216 222.462 263.664 220.854 263.664C217.71 263.664 215.118 266.424 215.118 270C215.118 273.576 217.71 276.336 220.854 276.336C222.462 276.336 223.638 275.784 224.43 274.872V276H228.03V264H224.43ZM221.574 272.928C219.918 272.928 218.718 271.8 218.718 270C218.718 268.2 219.918 267.072 221.574 267.072C223.23 267.072 224.43 268.2 224.43 270C224.43 271.8 223.23 272.928 221.574 272.928ZM237.704 263.664C236.12 263.664 234.92 264.24 234.272 265.128V264H230.672V276H234.272V269.448C234.272 267.744 235.184 266.976 236.504 266.976C237.656 266.976 238.592 267.672 238.592 269.16V276H242.192V268.632C242.192 265.392 240.128 263.664 237.704 263.664ZM246.464 262.944C247.64 262.944 248.624 261.96 248.624 260.784C248.624 259.608 247.64 258.624 246.464 258.624C245.288 258.624 244.304 259.608 244.304 260.784C244.304 261.96 245.288 262.944 246.464 262.944ZM244.664 276H248.264V264H244.664V276ZM256.658 276.336C259.01 276.336 261.05 275.112 262.082 273.24L258.938 271.44C258.554 272.28 257.666 272.784 256.61 272.784C255.05 272.784 253.898 271.656 253.898 270C253.898 268.344 255.05 267.216 256.61 267.216C257.666 267.216 258.53 267.72 258.938 268.56L262.082 266.736C261.05 264.888 258.986 263.664 256.658 263.664C253.01 263.664 250.298 266.424 250.298 270C250.298 273.576 253.01 276.336 256.658 276.336ZM281.048 259.2H268.568V262.896H272.888V276H276.728V262.896H281.048V259.2ZM284.779 266.136V264H281.179V276H284.779V270.576C284.779 268.2 286.891 267.6 288.379 267.84V263.76C286.867 263.76 285.259 264.528 284.779 266.136ZM298.423 264V265.128C297.631 264.216 296.455 263.664 294.847 263.664C291.703 263.664 289.111 266.424 289.111 270C289.111 273.576 291.703 276.336 294.847 276.336C296.455 276.336 297.631 275.784 298.423 274.872V276H302.023V264H298.423ZM295.567 272.928C293.911 272.928 292.711 271.8 292.711 270C292.711 268.2 293.911 267.072 295.567 267.072C297.223 267.072 298.423 268.2 298.423 270C298.423 271.8 297.223 272.928 295.567 272.928ZM322.424 264H315.752V263.76C315.752 262.368 316.64 262.08 317.984 262.08C318.896 262.08 319.904 262.152 320.984 262.272V258.96C319.952 258.744 318.968 258.624 317.984 258.624C314 258.624 312.152 260.4 312.152 263.76V264H309.032C309.032 262.608 309.92 262.2 311.264 262.32V258.864C307.28 258.624 305.432 260.64 305.432 264H303.824V267.456H305.432V276H309.032V267.456H312.152V276H315.752V267.456H318.824V276H322.424V264ZM330.814 276.336C333.166 276.336 335.206 275.112 336.238 273.24L333.094 271.44C332.71 272.28 331.822 272.784 330.766 272.784C329.206 272.784 328.054 271.656 328.054 270C328.054 268.344 329.206 267.216 330.766 267.216C331.822 267.216 332.686 267.72 333.094 268.56L336.238 266.736C335.206 264.888 333.142 263.664 330.814 263.664C327.166 263.664 324.454 266.424 324.454 270C324.454 273.576 327.166 276.336 330.814 276.336Z" fill="black"/>
<path d="M457.28 308.304V305.328H463.28V301.68H457.28V298.896H463.88V295.2H453.44V312H464V308.304H457.28ZM473.079 299.664C471.495 299.664 470.295 300.24 469.647 301.128V300H466.047V312H469.647V305.448C469.647 303.744 470.559 302.976 471.879 302.976C473.031 302.976 473.967 303.672 473.967 305.16V312H477.567V304.632C477.567 301.392 475.503 299.664 473.079 299.664ZM488.847 300V301.224C488.055 300.24 486.903 299.664 485.343 299.664C481.935 299.664 479.439 302.448 479.439 305.76C479.439 309.072 481.935 311.856 485.343 311.856C486.903 311.856 488.055 311.28 488.847 310.296V311.4C488.847 313.104 487.815 313.968 486.135 313.968C484.551 313.968 483.855 313.296 483.399 312.456L480.327 314.232C481.431 316.2 483.519 317.136 486.015 317.136C489.207 317.136 492.351 315.432 492.351 311.4V300H488.847ZM485.943 308.544C484.239 308.544 483.039 307.416 483.039 305.76C483.039 304.104 484.239 302.976 485.943 302.976C487.647 302.976 488.847 304.104 488.847 305.76C488.847 307.416 487.647 308.544 485.943 308.544ZM503.704 300V301.128C502.912 300.216 501.736 299.664 500.128 299.664C496.984 299.664 494.392 302.424 494.392 306C494.392 309.576 496.984 312.336 500.128 312.336C501.736 312.336 502.912 311.784 503.704 310.872V312H507.304V300H503.704ZM500.848 308.928C499.192 308.928 497.992 307.8 497.992 306C497.992 304.2 499.192 303.072 500.848 303.072C502.504 303.072 503.704 304.2 503.704 306C503.704 307.8 502.504 308.928 500.848 308.928ZM518.753 300V301.224C517.961 300.24 516.809 299.664 515.249 299.664C511.841 299.664 509.345 302.448 509.345 305.76C509.345 309.072 511.841 311.856 515.249 311.856C516.809 311.856 517.961 311.28 518.753 310.296V311.4C518.753 313.104 517.721 313.968 516.041 313.968C514.457 313.968 513.761 313.296 513.305 312.456L510.233 314.232C511.337 316.2 513.425 317.136 515.921 317.136C519.113 317.136 522.257 315.432 522.257 311.4V300H518.753ZM515.849 308.544C514.145 308.544 512.945 307.416 512.945 305.76C512.945 304.104 514.145 302.976 515.849 302.976C517.553 302.976 518.753 304.104 518.753 305.76C518.753 307.416 517.553 308.544 515.849 308.544ZM528.114 307.44H536.634C536.73 306.984 536.778 306.504 536.778 306C536.778 302.376 534.186 299.664 530.682 299.664C526.89 299.664 524.298 302.424 524.298 306C524.298 309.576 526.842 312.336 530.946 312.336C533.226 312.336 535.002 311.496 536.178 309.864L533.298 308.208C532.818 308.736 531.978 309.12 530.994 309.12C529.674 309.12 528.57 308.688 528.114 307.44ZM528.042 304.752C528.378 303.528 529.29 302.856 530.658 302.856C531.738 302.856 532.818 303.36 533.202 304.752H528.042ZM554.3 295.2V304.32L547.82 295.2H544.94V312H548.78V302.88L555.26 312H558.14V295.2H554.3ZM564.114 307.44H572.634C572.73 306.984 572.778 306.504 572.778 306C572.778 302.376 570.186 299.664 566.682 299.664C562.89 299.664 560.298 302.424 560.298 306C560.298 309.576 562.842 312.336 566.946 312.336C569.226 312.336 571.002 311.496 572.178 309.864L569.298 308.208C568.818 308.736 567.978 309.12 566.994 309.12C565.674 309.12 564.57 308.688 564.114 307.44ZM564.042 304.752C564.378 303.528 565.29 302.856 566.658 302.856C567.738 302.856 568.818 303.36 569.202 304.752H564.042ZM587.551 300L585.823 306.432L583.951 300H580.591L578.719 306.432L576.991 300H573.151L576.991 312H580.351L582.271 305.592L584.191 312H587.551L591.391 300H587.551ZM464.12 336H468.32L462.608 319.2H457.712L452 336H456.2L457.04 333.36H463.28L464.12 336ZM458.192 329.76L460.16 323.592L462.128 329.76H458.192ZM477.267 324V330.552C477.267 332.256 476.355 333.024 475.035 333.024C473.883 333.024 472.947 332.328 472.947 330.84V324H469.347V331.368C469.347 334.608 471.411 336.336 473.835 336.336C475.419 336.336 476.619 335.76 477.267 334.872V336H480.867V324H477.267ZM492.22 319.2V325.128C491.428 324.216 490.252 323.664 488.644 323.664C485.5 323.664 482.908 326.424 482.908 330C482.908 333.576 485.5 336.336 488.644 336.336C490.252 336.336 491.428 335.784 492.22 334.872V336H495.82V319.2H492.22ZM489.364 332.928C487.708 332.928 486.508 331.8 486.508 330C486.508 328.2 487.708 327.072 489.364 327.072C491.02 327.072 492.22 328.2 492.22 330C492.22 331.8 491.02 332.928 489.364 332.928ZM500.261 322.944C501.437 322.944 502.421 321.96 502.421 320.784C502.421 319.608 501.437 318.624 500.261 318.624C499.085 318.624 498.101 319.608 498.101 320.784C498.101 321.96 499.085 322.944 500.261 322.944ZM498.461 336H502.061V324H498.461V336ZM507.911 331.44H516.431C516.527 330.984 516.575 330.504 516.575 330C516.575 326.376 513.983 323.664 510.479 323.664C506.687 323.664 504.095 326.424 504.095 330C504.095 333.576 506.639 336.336 510.743 336.336C513.023 336.336 514.799 335.496 515.975 333.864L513.095 332.208C512.615 332.736 511.775 333.12 510.791 333.12C509.471 333.12 508.367 332.688 507.911 331.44ZM507.839 328.752C508.175 327.528 509.087 326.856 510.455 326.856C511.535 326.856 512.615 327.36 512.999 328.752H507.839ZM525.649 323.664C524.065 323.664 522.865 324.24 522.217 325.128V324H518.617V336H522.217V329.448C522.217 327.744 523.129 326.976 524.449 326.976C525.601 326.976 526.537 327.672 526.537 329.16V336H530.137V328.632C530.137 325.392 528.073 323.664 525.649 323.664ZM538.369 336.336C540.721 336.336 542.761 335.112 543.793 333.24L540.649 331.44C540.265 332.28 539.377 332.784 538.321 332.784C536.761 332.784 535.609 331.656 535.609 330C535.609 328.344 536.761 327.216 538.321 327.216C539.377 327.216 540.241 327.72 540.649 328.56L543.793 326.736C542.761 324.888 540.697 323.664 538.369 323.664C534.721 323.664 532.009 326.424 532.009 330C532.009 333.576 534.721 336.336 538.369 336.336ZM548.224 331.44H556.744C556.84 330.984 556.888 330.504 556.888 330C556.888 326.376 554.296 323.664 550.792 323.664C547 323.664 544.408 326.424 544.408 330C544.408 333.576 546.952 336.336 551.056 336.336C553.336 336.336 555.112 335.496 556.288 333.864L553.408 332.208C552.928 332.736 552.088 333.12 551.104 333.12C549.784 333.12 548.68 332.688 548.224 331.44ZM548.152 328.752C548.488 327.528 549.4 326.856 550.768 326.856C551.848 326.856 552.928 327.36 553.312 328.752H548.152Z" fill="black"/>
<path d="M697.24 120.2H693.4L688.84 127.664L684.28 120.2H680.44V137H684.28V127.232L688.624 134.36H689.056L693.4 127.232V137H697.24V120.2ZM708.72 125V126.128C707.928 125.216 706.752 124.664 705.144 124.664C702 124.664 699.408 127.424 699.408 131C699.408 134.576 702 137.336 705.144 137.336C706.752 137.336 707.928 136.784 708.72 135.872V137H712.32V125H708.72ZM705.864 133.928C704.208 133.928 703.008 132.8 703.008 131C703.008 129.2 704.208 128.072 705.864 128.072C707.52 128.072 708.72 129.2 708.72 131C708.72 132.8 707.52 133.928 705.864 133.928ZM726.361 137L722.065 130.904L726.217 125H722.089L720.001 127.976L717.913 125H713.785L717.937 130.904L713.641 137H717.769L720.001 133.832L722.233 137H726.361ZM729.487 123.944C730.663 123.944 731.647 122.96 731.647 121.784C731.647 120.608 730.663 119.624 729.487 119.624C728.311 119.624 727.327 120.608 727.327 121.784C727.327 122.96 728.311 123.944 729.487 123.944ZM727.687 137H731.287V125H727.687V137ZM747.362 124.664C745.658 124.664 744.554 125.288 743.882 126.248C743.21 125.24 742.154 124.664 740.738 124.664C739.13 124.664 738.074 125.288 737.522 126.104V125H733.922V137H737.522V130.232C737.522 128.816 738.194 127.976 739.394 127.976C740.546 127.976 741.122 128.744 741.122 129.944V137H744.722V130.232C744.722 128.816 745.394 127.976 746.594 127.976C747.746 127.976 748.322 128.744 748.322 129.944V137H751.922V129.632C751.922 126.632 750.122 124.664 747.362 124.664ZM756.183 123.944C757.359 123.944 758.343 122.96 758.343 121.784C758.343 120.608 757.359 119.624 756.183 119.624C755.007 119.624 754.023 120.608 754.023 121.784C754.023 122.96 755.007 123.944 756.183 123.944ZM754.383 137H757.983V125H754.383V137ZM765.081 133.64L769.617 127.4V125H760.497V128.36H764.793L760.257 134.6V137H769.857V133.64H765.081ZM774.497 132.44H783.017C783.113 131.984 783.161 131.504 783.161 131C783.161 127.376 780.569 124.664 777.065 124.664C773.273 124.664 770.681 127.424 770.681 131C770.681 134.576 773.225 137.336 777.329 137.336C779.609 137.336 781.385 136.496 782.561 134.864L779.681 133.208C779.201 133.736 778.361 134.12 777.377 134.12C776.057 134.12 774.953 133.688 774.497 132.44ZM774.425 129.752C774.761 128.528 775.673 127.856 777.041 127.856C778.121 127.856 779.201 128.36 779.585 129.752H774.425ZM688.456 161.336C691.528 161.336 694.216 159.824 695.656 157.448L692.344 155.528C691.624 156.824 690.16 157.592 688.456 157.592C685.48 157.592 683.56 155.6 683.56 152.6C683.56 149.6 685.48 147.608 688.456 147.608C690.16 147.608 691.6 148.376 692.344 149.672L695.656 147.752C694.192 145.376 691.504 143.864 688.456 143.864C683.392 143.864 679.72 147.656 679.72 152.6C679.72 157.544 683.392 161.336 688.456 161.336ZM697.57 161H701.17V143.48H697.57V161ZM705.604 147.944C706.78 147.944 707.764 146.96 707.764 145.784C707.764 144.608 706.78 143.624 705.604 143.624C704.428 143.624 703.444 144.608 703.444 145.784C703.444 146.96 704.428 147.944 705.604 147.944ZM703.804 161H707.404V149H703.804V161ZM713.255 156.44H721.775C721.871 155.984 721.919 155.504 721.919 155C721.919 151.376 719.327 148.664 715.823 148.664C712.031 148.664 709.439 151.424 709.439 155C709.439 158.576 711.983 161.336 716.087 161.336C718.367 161.336 720.143 160.496 721.319 158.864L718.439 157.208C717.959 157.736 717.119 158.12 716.135 158.12C714.815 158.12 713.711 157.688 713.255 156.44ZM713.183 153.752C713.519 152.528 714.431 151.856 715.799 151.856C716.879 151.856 717.959 152.36 718.343 153.752H713.183ZM730.993 148.664C729.409 148.664 728.209 149.24 727.561 150.128V149H723.961V161H727.561V154.448C727.561 152.744 728.473 151.976 729.793 151.976C730.945 151.976 731.881 152.672 731.881 154.16V161H735.481V153.632C735.481 150.392 733.417 148.664 730.993 148.664ZM744.985 152.456V149H742.513V145.64L738.913 146.72V149H736.993V152.456H738.913V156.704C738.913 160.064 740.281 161.48 744.985 161V157.736C743.401 157.832 742.513 157.736 742.513 156.704V152.456H744.985ZM762.21 161H766.338L762.762 154.832C764.609 153.896 765.858 152.024 765.858 149.96C765.858 146.768 763.29 144.2 760.098 144.2H753.378V161H757.218V155.48H759.042L762.21 161ZM757.218 147.8H760.098C761.154 147.8 762.018 148.736 762.018 149.96C762.018 151.184 761.154 152.12 760.098 152.12H757.218V147.8ZM770.63 156.44H779.15C779.246 155.984 779.294 155.504 779.294 155C779.294 151.376 776.702 148.664 773.198 148.664C769.406 148.664 766.814 151.424 766.814 155C766.814 158.576 769.358 161.336 773.462 161.336C775.742 161.336 777.518 160.496 778.694 158.864L775.814 157.208C775.334 157.736 774.494 158.12 773.51 158.12C772.19 158.12 771.086 157.688 770.63 156.44ZM770.558 153.752C770.894 152.528 771.806 151.856 773.174 151.856C774.254 151.856 775.334 152.36 775.718 153.752H770.558ZM788.523 149L786.027 156.608L783.531 149H779.547L783.987 161H788.067L792.507 149H788.523ZM796.575 156.44H805.095C805.191 155.984 805.239 155.504 805.239 155C805.239 151.376 802.647 148.664 799.143 148.664C795.351 148.664 792.759 151.424 792.759 155C792.759 158.576 795.303 161.336 799.407 161.336C801.687 161.336 803.463 160.496 804.639 158.864L801.759 157.208C801.279 157.736 800.439 158.12 799.455 158.12C798.135 158.12 797.031 157.688 796.575 156.44ZM796.503 153.752C796.839 152.528 797.751 151.856 799.119 151.856C800.199 151.856 801.279 152.36 801.663 153.752H796.503ZM814.313 148.664C812.729 148.664 811.529 149.24 810.881 150.128V149H807.281V161H810.881V154.448C810.881 152.744 811.793 151.976 813.113 151.976C814.265 151.976 815.201 152.672 815.201 154.16V161H818.801V153.632C818.801 150.392 816.737 148.664 814.313 148.664ZM829.025 149V155.552C829.025 157.256 828.113 158.024 826.793 158.024C825.641 158.024 824.705 157.328 824.705 155.84V149H821.105V156.368C821.105 159.608 823.169 161.336 825.593 161.336C827.177 161.336 828.377 160.76 829.025 159.872V161H832.625V149H829.025ZM838.481 156.44H847.001C847.097 155.984 847.145 155.504 847.145 155C847.145 151.376 844.553 148.664 841.049 148.664C837.257 148.664 834.665 151.424 834.665 155C834.665 158.576 837.209 161.336 841.313 161.336C843.593 161.336 845.369 160.496 846.545 158.864L843.665 157.208C843.185 157.736 842.345 158.12 841.361 158.12C840.041 158.12 838.937 157.688 838.481 156.44ZM838.409 153.752C838.745 152.528 839.657 151.856 841.025 151.856C842.105 151.856 843.185 152.36 843.569 153.752H838.409Z" fill="black"/>
<path d="M768.5 72.5L780.5 80.5L768.5 87" stroke="black" stroke-width="6"/>
</svg>
