<svg width="703" height="800" viewBox="0 0 703 800" fill="none" xmlns="http://www.w3.org/2000/svg">
<path d="M370.872 624.677C333.093 645.16 283.33 645.917 244.642 626.346L138.894 573.089C100.661 557.159 101.572 513.613 140.563 498.744L332.791 425.763C349.782 419.392 369.506 419.24 386.65 425.613L545.652 484.633C574.023 495.103 576.146 526.51 549.294 539.406L370.872 624.677Z" fill="white"/>
<path d="M306.089 641.366C284.696 641.366 263.152 636.663 244.187 627.105L138.439 573.848C120.385 566.413 109.613 552.151 109.916 535.916C110.22 519.682 121.75 505.268 140.26 498.29L332.486 425.309C349.782 418.785 369.506 418.633 386.802 425.157L545.805 484.178C559.459 489.186 568.411 499.806 568.865 511.944C569.472 523.628 562.189 534.4 549.444 540.317L371.025 625.587C351.451 636.206 328.695 641.519 305.936 641.519L306.089 641.366ZM359.948 421.667C350.694 421.667 341.59 423.336 333.093 426.523L140.867 499.503C122.964 506.33 111.737 520.136 111.585 535.764C111.282 551.392 121.75 565.049 139.198 572.332L244.946 625.739C283.482 645.158 332.791 644.553 370.568 624.07L548.989 538.799C561.128 533.034 567.954 522.869 567.499 511.792C567.044 500.263 558.7 490.4 545.348 485.392L386.348 426.37C378.003 423.336 368.899 421.667 359.948 421.667Z" fill="#101216"/>
<path d="M370.872 601.159C333.093 620.276 283.33 620.883 244.642 602.676L138.894 552.91C100.661 538.042 101.572 497.378 140.563 483.571L332.791 415.598C349.782 409.529 369.506 409.529 386.65 415.448L545.652 470.371C574.023 480.234 576.146 509.516 549.294 521.503L370.872 601.159Z" fill="#101216"/>
<path d="M363.437 592.663C329.302 609.959 284.242 610.566 249.345 594.027L153.763 549.117C119.171 535.764 120.081 498.897 155.28 486.453L328.997 425.007C344.32 419.544 362.223 419.544 377.549 424.854L521.378 474.62C547.016 483.571 548.989 509.971 524.715 520.743L363.437 592.663Z" fill="white"/>
<path d="M376.182 622.704L387.105 597.518H387.409L480.868 555.793L473.433 576.276H473.131L376.182 622.857V622.704ZM388.169 598.58L379.065 619.517L472.069 574.91L477.986 558.373L388.169 598.427V598.58Z" fill="#101216"/>
<path d="M432.122 576.529L422.918 598.005L424.314 598.603L433.517 577.126L432.122 576.529ZM205.026 597.174C209.503 595.283 211.995 591.06 210.593 587.739C209.191 584.421 204.426 583.264 199.949 585.155C195.472 587.046 192.979 591.271 194.381 594.589C195.783 597.909 200.549 599.067 205.026 597.174ZM242.645 615.592C247.06 613.56 249.42 609.26 247.913 605.989C246.408 602.716 241.609 601.708 237.195 603.737C232.778 605.769 230.419 610.069 231.925 613.343C233.431 616.616 238.23 617.624 242.645 615.592ZM221.173 608.042C225.734 606.362 228.423 602.261 227.179 598.879C225.935 595.498 221.229 594.118 216.668 595.796C212.107 597.474 209.418 601.574 210.662 604.956C211.906 608.337 216.612 609.72 221.173 608.042Z" fill="#101216"/>
<path d="M382.252 670.801L364.651 643.642L552.176 555.643L569.775 582.802L382.252 670.801Z" fill="white"/>
<path d="M381.645 672.469L362.678 643.339L552.933 553.974L571.9 583.104L381.645 672.469ZM366.776 644.099L383.008 669.133L567.801 582.345L551.569 557.311L366.776 644.099Z" fill="#101216"/>
<path d="M591.774 559.284C594.504 555.945 591.774 552.001 587.223 552.303L553.692 553.67C552.783 553.67 551.112 554.884 551.569 555.49C551.569 555.49 547.928 562.167 552.631 571.725C558.395 583.559 569.774 583.407 569.774 583.407C570.229 584.014 571.748 583.407 572.354 583.104L591.926 559.434L591.774 559.284ZM353.728 670.194L350.087 664.58C345.838 658.056 349.48 649.409 358.127 645.31L365.105 641.974L384.222 671.408L377.244 674.745C368.445 678.843 357.975 676.87 353.728 670.347V670.194Z" fill="#101216"/>
<path d="M523.899 570.746L494.706 584.606L501.279 598.451L530.472 584.588L523.899 570.746Z" fill="white"/>
<path d="M500.44 600.855L491.943 582.952L525.169 567.172L533.666 585.077L500.44 600.855ZM498.012 585.077L502.563 594.786L527.597 582.952L523.046 573.241L498.012 585.077Z" fill="#101216"/>
<path d="M433.835 0.93335H285.91V186.341H433.835V0.93335Z" fill="white"/>
<path d="M434.442 187.1H284.999V0.174561H434.442V187.1ZM286.517 185.583H432.924V1.69182H286.517V185.583Z" fill="#101216"/>
<path d="M423.518 13.678H366.169V83.3202H423.518V13.678Z" fill="#101216"/>
<path d="M405.615 48.4233H331.122V112.603H405.615V48.4233Z" fill="#101216"/>
<path d="M406.374 113.514H330.363V47.8164H406.374V113.514ZM331.879 111.996H404.858V49.3337H331.879V111.996Z" fill="white"/>
<path d="M375.575 36.5884H298.199V83.3196H375.575V36.5884Z" fill="white"/>
<path d="M376.335 84.0784H297.439V35.8296H376.335V84.0784ZM298.958 82.561H374.816V37.3469H298.958V82.561Z" fill="#101216"/>
<path d="M336.887 129.141C347.612 129.141 356.306 120.446 356.306 109.72C356.306 98.994 347.612 90.2988 336.887 90.2988C326.162 90.2988 317.468 98.994 317.468 109.72C317.468 120.446 326.162 129.141 336.887 129.141Z" fill="white"/>
<path d="M336.887 129.899C325.812 129.899 316.708 120.796 316.708 109.72C316.708 98.6441 325.812 89.5405 336.887 89.5405C347.962 89.5405 357.065 98.6441 357.065 109.72C357.065 120.796 347.962 129.899 336.887 129.899ZM336.887 91.0578C326.569 91.0578 318.225 99.4027 318.225 109.72C318.225 120.037 326.569 128.382 336.887 128.382C347.205 128.382 355.549 120.037 355.549 109.72C355.549 99.4027 347.205 91.0578 336.887 91.0578Z" fill="#101216"/>
<path d="M286.667 1.69214V185.583H433.076V1.69214H286.667ZM419.269 128.99H300.324V20.6578H419.269V128.99Z" fill="white"/>
<path d="M379.217 140.521H297.439V147.652H379.217V140.521Z" fill="#101216"/>
<path d="M379.976 148.411H296.682V139.762H379.976V148.411ZM298.199 146.893H378.458V141.28H298.199V146.893Z" fill="white"/>
<path d="M345.232 151.597H298.199V158.728H345.232V151.597Z" fill="#101216"/>
<path d="M345.991 159.486H297.439V150.838H345.991V159.486ZM298.958 157.969H344.472V152.355H298.958V157.969Z" fill="white"/>
<path d="M314.735 113.209H129.488V345.502H314.735V113.209Z" fill="white"/>
<path d="M315.342 346.259H128.578V112.451H315.342V346.259ZM130.095 344.743H313.826V113.968H130.095V344.743Z" fill="#101216"/>
<path d="M206.409 172.23C202.767 199.996 197.154 223.97 197.457 245.969C199.126 244.453 222.339 238.838 231.139 239.293C243.732 239.9 252.834 249.458 266.641 252.947C253.139 224.12 271.649 136.575 206.409 172.23Z" fill="white"/>
<path d="M267.248 253.404H266.641C260.422 251.733 255.262 249.003 250.256 246.273C244.035 242.934 238.118 239.9 231.291 239.597C222.795 239.14 199.43 244.755 197.761 246.273L197.306 246.728V245.969C197.154 231.1 199.733 215.169 202.464 198.176C203.83 189.831 205.195 181.182 206.409 172.079V171.776C222.339 163.127 234.022 161.155 242.519 165.707C256.326 172.989 258.601 196.052 260.724 218.355C262.09 231.86 263.304 244.603 267.096 252.797L267.4 253.404H267.248ZM230.229 238.99C230.532 238.99 230.987 238.99 231.291 238.99C238.422 239.293 244.339 242.48 250.559 245.816C255.414 248.397 260.422 250.977 266.186 252.493C262.545 244.3 261.331 231.707 259.965 218.507C257.842 196.355 255.566 173.596 242.062 166.465C233.87 162.065 222.339 164.038 206.712 172.534C205.499 181.638 204.133 190.134 202.768 198.479C200.037 215.169 197.61 230.948 197.61 245.514C201.402 243.693 221.126 238.99 230.077 238.99H230.229Z" fill="#101216"/>
<path d="M163.624 224.424C163.169 221.694 162.107 219.114 160.438 216.99C159.832 216.231 159.225 215.625 158.314 215.625C157.404 215.625 156.645 216.383 156.342 217.142C155.735 218.204 155.584 219.418 155.735 220.631C155.735 221.39 156.039 221.997 156.494 222.451C156.797 222.756 157.252 222.756 157.707 222.908C159.528 223.363 161.5 223.817 163.776 224.424H163.624Z" fill="white"/>
<path d="M164.08 224.729H163.624C161.349 223.97 159.528 223.515 157.556 223.06C157.1 223.06 156.645 222.908 156.19 222.603C155.583 222.149 155.28 221.542 155.28 220.632C155.28 219.418 155.28 218.052 156.038 216.99C156.342 216.535 157.1 215.322 158.314 215.17C159.376 215.17 160.287 216.08 160.742 216.687C162.411 218.963 163.624 221.542 163.928 224.274V224.729H164.08ZM158.466 215.777C157.859 215.777 157.1 216.384 156.645 217.142C156.19 218.204 155.886 219.266 156.038 220.48C156.038 221.239 156.342 221.847 156.797 222.149C157.1 222.453 157.555 222.453 157.859 222.603C159.528 223.06 161.349 223.363 163.473 223.97C163.018 221.542 161.955 219.115 160.438 217.142C159.68 216.232 159.225 215.928 158.466 215.928V215.777ZM261.483 325.473C280.295 296.95 276.959 247.487 264.061 232.921C250.559 217.597 215.664 218.659 200.037 228.673C180.617 241.266 187.293 301.349 190.175 324.412L261.483 325.473Z" fill="#101216"/>
<path d="M218.85 225.943L219.002 208.493H238.725L238.572 225.943H218.85Z" fill="white"/>
<path d="M219.153 225.943H218.547L218.698 208.19H239.029L238.877 225.943H238.27L238.422 208.797H219.305L219.153 225.943Z" fill="#101216"/>
<path d="M248.588 180.272C250.104 178.603 252.684 178.3 254.807 179.21C256.78 180.121 258.144 182.245 258.601 184.369C259.055 186.493 258.601 188.921 257.539 190.894C256.325 193.169 254.505 195.142 252.227 196.356C249.952 197.569 247.222 197.873 244.794 197.114C247.829 192.107 249.345 186.19 248.588 180.272Z" fill="white"/>
<path d="M247.524 197.872C246.615 197.872 245.553 197.872 244.642 197.417H244.339V196.962C247.676 191.803 248.89 185.886 248.283 180.424V180.121C249.952 178.452 252.684 177.997 254.959 179.059C256.932 179.969 258.449 182.093 258.903 184.521C259.36 186.645 258.903 188.921 257.842 191.197C256.628 193.624 254.655 195.597 252.532 196.81C251.013 197.569 249.345 198.024 247.676 198.024L247.524 197.872ZM245.249 196.962C247.524 197.569 249.952 197.266 252.077 196.203C254.2 195.141 256.021 193.169 257.235 190.893C258.296 188.769 258.601 186.493 258.296 184.672C257.842 182.397 256.475 180.576 254.655 179.665C252.684 178.755 250.406 179.21 248.89 180.576C249.497 186.038 248.283 191.955 245.249 197.114V196.962Z" fill="#101216"/>
<path d="M248.89 172.838C249.649 185.128 248.131 202.576 237.209 210.618C231.594 214.714 224.16 215.018 218.395 211.073C206.257 202.88 206.257 182.548 207.774 169.955C208.078 167.376 208.988 164.797 210.506 162.673C222.34 145.983 246.462 150.383 248.89 172.686V172.838Z" fill="white"/>
<path d="M227.346 214.259C224.16 214.259 220.974 213.348 218.243 211.528C205.65 203.031 205.954 181.941 207.471 170.107C207.774 167.376 208.836 164.796 210.354 162.672C216.119 154.631 225.374 150.838 234.022 153.114C242.519 155.389 248.283 162.672 249.345 172.838C249.802 181.335 249.799 201.817 237.511 210.921C234.476 213.197 230.987 214.259 227.498 214.259H227.346ZM228.863 153.114C222.036 153.114 215.208 156.755 210.809 163.127C209.292 165.252 208.381 167.679 208.078 170.259C207.016 179.666 205.802 202.424 218.698 211.073C224.312 214.866 231.746 214.562 237.209 210.618C249.195 201.666 249.195 181.335 248.738 173.141C247.676 163.279 242.064 156.148 233.87 153.872C232.201 153.417 230.684 153.265 229.015 153.265L228.863 153.114Z" fill="#101216"/>
<path d="M223.402 189.831C222.188 189.225 221.126 188.314 220.367 187.252V186.949C223.25 185.128 225.222 182.094 225.678 178.755C226.133 175.418 225.222 172.08 222.946 169.5L223.402 169.045C225.678 171.624 226.74 175.266 226.284 178.755C225.829 182.094 223.705 185.128 220.974 186.949C221.733 187.859 222.643 188.618 223.553 189.073L223.25 189.68L223.402 189.831Z" fill="#101216"/>
<path d="M227.043 153.114C243.885 147.955 254.2 161.155 254.2 178.148C249.042 179.969 244.035 178.3 239.636 176.783C236.449 175.72 225.071 169.196 227.043 153.114Z" fill="white"/>
<path d="M249.345 179.362C245.706 179.362 242.214 178.148 239.484 177.086C239.484 177.086 224.312 171.473 226.74 153.114V152.81C233.719 150.686 239.939 151.597 244.946 155.238C251.016 159.79 254.505 168.134 254.505 178.3V178.604C252.684 179.21 251.016 179.362 249.345 179.362ZM227.195 153.417C225.071 171.169 239.484 176.479 239.636 176.631C244.642 178.452 249.042 179.666 253.898 178.148C253.898 168.438 250.409 160.093 244.492 155.845C239.789 152.355 233.87 151.597 227.346 153.569L227.195 153.417ZM224.919 200.149C223.098 200.149 221.277 199.845 219.609 199.39V198.783C224.008 199.997 228.863 199.694 232.808 197.721L233.111 198.328C230.532 199.542 227.801 200.149 224.919 200.149Z" fill="#101216"/>
<path d="M229.47 152.81C228.257 168.438 218.85 172.383 206.257 172.838C206.257 158.727 220.367 152.203 229.47 152.81Z" fill="white"/>
<path d="M205.954 173.141V172.838C205.954 167.376 208.078 162.672 212.022 158.879C216.574 154.631 223.401 152.051 229.47 152.355H229.774V152.659C228.408 169.803 217.181 172.534 206.257 172.99H205.954V173.141ZM228.408 152.962C223.705 152.962 217.181 154.783 212.478 159.334C208.685 162.824 206.712 167.376 206.712 172.535C217.181 172.079 227.953 169.348 229.319 153.113C229.015 153.113 228.863 153.113 228.56 153.113L228.408 152.962ZM215.967 180.728C217.056 180.728 217.939 179.844 217.939 178.755C217.939 177.666 217.056 176.783 215.967 176.783C214.878 176.783 213.995 177.666 213.995 178.755C213.995 179.844 214.878 180.728 215.967 180.728ZM232.96 180.576C234.049 180.576 234.931 179.693 234.931 178.604C234.931 177.514 234.049 176.631 232.96 176.631C231.87 176.631 230.988 177.514 230.988 178.604C230.988 179.693 231.87 180.576 232.96 180.576Z" fill="#101216"/>
<path d="M175.459 231.707C163.018 216.687 126.15 222.908 165.748 232.769C162.714 232.162 156.038 229.734 155.28 234.742C155.28 236.26 155.735 238.688 157.556 238.99C153.914 238.99 151.487 244.148 154.37 246.576C151.032 245.819 149.515 250.674 152.397 252.038C155.28 253.404 165.597 260.383 170.452 262.81C171.362 262.81 174.396 262.81 175.003 262.053C188.203 243.086 196.244 253.252 175.61 231.707H175.459Z" fill="white"/>
<path d="M171.362 263.115C170.755 263.115 170.3 263.115 170.3 263.115C168.024 261.901 164.686 259.776 161.5 257.805C158.011 255.527 154.369 253.252 152.245 252.343C150.576 251.583 150.273 249.763 150.728 248.397C151.183 247.183 152.094 246.273 153.611 246.121C152.7 245.06 152.549 243.541 153.156 241.873C153.611 240.507 154.824 239.143 156.342 238.686C155.28 237.777 154.825 235.956 154.976 234.59C155.128 233.376 155.583 232.619 156.494 232.012C157.252 231.405 158.466 231.253 159.528 231.253C151.942 228.977 147.846 226.7 147.694 224.729C147.694 224.122 147.846 223.363 149.363 222.908C154.369 220.935 169.086 223.058 175.762 231.405C176.824 232.467 177.734 233.528 178.644 234.437C185.775 241.873 188.506 244.605 188.354 246.88C188.354 248.397 186.989 249.46 185.016 251.281C182.589 253.252 179.1 256.439 175.155 262.053C174.7 262.81 172.727 262.963 171.513 262.963L171.362 263.115ZM170.451 262.508C171.969 262.508 174.244 262.508 174.548 261.901C178.644 256.134 182.134 253.1 184.561 250.977C186.534 249.308 187.747 248.247 187.747 247.033C187.747 245.06 185.016 242.025 178.189 235.044C177.279 234.135 176.369 233.073 175.306 232.012C168.327 223.515 153.762 221.997 149.514 223.817C148.908 224.122 148.301 224.424 148.301 225.031C148.301 226.7 153.004 229.432 165.9 232.619V233.226C165.445 233.226 164.99 233.073 164.383 232.921C162.107 232.314 158.618 231.555 156.797 232.921C156.19 233.376 155.735 234.135 155.583 235.044C155.583 236.563 156.038 238.686 157.555 238.838V239.445C155.583 239.445 154.218 240.811 153.611 242.327C153.156 243.541 153.156 245.362 154.521 246.426H154.673L154.369 247.033H154.066C152.397 246.576 151.487 247.64 151.032 248.701C150.576 249.763 150.88 251.279 152.245 251.886C154.369 252.95 157.859 255.073 161.5 257.348C164.686 259.321 167.872 261.447 170.3 262.66L170.451 262.508Z" fill="#101216"/>
<path d="M156.859 237.746L156.746 238.341L163.753 239.665L163.866 239.07L156.859 237.746ZM159.831 248.851C157.707 248.247 155.735 247.64 153.914 246.728L154.218 246.121C156.038 247.033 158.011 247.79 160.135 248.247V248.851H159.831ZM251.772 295.127C229.318 273.28 204.437 251.279 186.989 241.873C178.796 237.472 169.238 256.439 171.362 264.024C172.121 266.907 211.719 304.838 239.636 321.527L251.772 294.977V295.127Z" fill="#101216"/>
<path d="M239.484 321.984C223.401 312.426 204.74 296.646 195.03 287.997C182.741 277.072 171.362 265.997 170.907 264.177C169.39 258.562 173.79 247.335 179.403 242.934C181.982 240.811 184.562 240.507 186.837 241.72C205.499 251.736 232.353 276.163 251.772 294.977L251.318 295.432C223.705 268.577 201.251 250.217 186.534 242.327C183.955 240.961 181.375 242.327 179.706 243.541C174.396 247.79 169.845 258.867 171.362 264.177C172.121 266.907 211.871 304.99 239.484 321.53L239.179 321.984H239.484Z" fill="white"/>
<path d="M244.642 288.301C242.973 276.467 246.16 264.177 253.139 254.466L253.593 254.77C246.615 264.329 243.428 276.467 245.096 288.149H244.489L244.642 288.301Z" fill="white"/>
<path d="M234.022 215.473H222.036C217.595 215.473 213.995 219.073 213.995 223.515V223.667C213.995 228.108 217.595 231.707 222.036 231.707H234.022C238.462 231.707 242.062 228.108 242.062 223.667V223.515C242.062 219.073 238.462 215.473 234.022 215.473Z" fill="#101216"/>
<path d="M228.105 230.341C225.374 230.341 222.794 230.039 220.215 229.887C218.091 229.734 215.664 229.127 214.753 227.157L215.36 226.852C216.119 228.52 218.395 228.975 220.215 229.127C223.553 229.432 227.194 229.734 230.532 229.582C234.325 229.28 237.663 228.368 240.243 226.7L240.545 227.157C237.815 228.825 234.476 229.887 230.532 230.189C229.622 230.189 228.863 230.189 227.953 230.189L228.105 230.341ZM220.215 224.729C219.457 222.301 219.153 219.873 219.608 217.445H220.215C219.76 219.873 219.912 222.301 220.67 224.577H220.063L220.215 224.729ZM236.602 225.031H235.995C236.752 222.603 236.904 220.176 236.449 217.749H237.056C237.511 220.025 237.359 222.603 236.449 225.031H236.602ZM227.649 223.213H227.043C227.043 221.239 227.043 219.115 227.043 217.142H227.649C227.801 219.115 227.953 221.087 227.649 223.213ZM177.279 270.7L176.976 270.246C184.865 264.329 190.782 255.984 193.665 246.576H194.271C191.237 256.287 185.32 264.783 177.279 270.7ZM180.01 263.722C176.369 262.963 173.183 260.535 171.817 257.046L172.424 256.741C173.79 259.928 176.824 262.356 180.162 262.963V263.57L180.01 263.722ZM182.589 257.198C180.617 255.68 176.52 251.888 174.852 250.217L175.307 249.763C176.976 251.431 181.072 255.225 183.045 256.743L182.741 257.198H182.589ZM188.506 249.763C186.686 247.033 184.106 244.605 181.072 243.087L181.375 242.48C184.41 243.998 187.14 246.426 188.961 249.308L188.506 249.61V249.763Z" fill="white"/>
<path d="M130.246 113.969V344.743H313.976V113.969H130.246ZM296.378 273.433H147.846V138.093H296.378V273.433Z" fill="white"/>
<path d="M246.31 287.997H144.053V296.95H246.31V287.997Z" fill="#101216"/>
<path d="M247.069 297.707H143.294V287.24H247.069V297.707ZM144.811 296.191H245.553V288.756H144.811V296.191Z" fill="white"/>
<path d="M203.678 301.956H144.811V310.907H203.678V301.956Z" fill="#101216"/>
<path d="M204.437 311.667H144.052V301.197H204.437V311.667ZM145.57 310.15H202.919V302.715H145.57V310.15ZM454.773 250.37H251.165V505.723H454.773V250.37Z" fill="white"/>
<path d="M455.53 506.482H250.406V249.61H455.53V506.482ZM251.925 504.963H454.014V251.126H251.925V504.963Z" fill="#101216"/>
<path d="M336.887 295.734C287.124 309.239 330.818 315.156 311.399 320.92C306.695 322.286 297.744 324.107 299.412 330.783C300.324 334.577 307.909 334.273 309.123 338.066C310.944 344.893 294.102 345.045 296.832 352.176C298.199 355.06 303.508 355.21 304.42 358.245C305.482 362.191 297.744 364.012 297.896 368.108C297.896 371.143 302.295 372.204 305.482 372.509C316.861 371.295 381.947 386.618 385.741 369.17C387.712 360.066 375.878 362.493 377.698 358.093C379.519 353.694 391.96 348.686 385.588 345.652C365.865 336.398 388.925 336.7 387.864 330.631C387.257 326.535 380.885 327.749 379.367 323.805C378.003 320.163 383.008 319.1 383.008 315.308C383.008 303.624 354.942 272.673 336.887 295.584V295.734Z" fill="#101216"/>
<path d="M347.812 382.37L353.576 353.087L333.7 348.232L327.935 377.514L347.812 382.37Z" fill="white"/>
<path d="M348.114 382.827L327.481 377.819L333.398 347.93L354.031 352.935L348.114 382.827ZM328.24 377.212L347.507 381.915L353.122 353.24L333.852 348.537L328.24 377.212Z" fill="#101216"/>
<path d="M330.515 316.369C329.302 314.396 326.722 313.487 324.446 313.942C322.171 314.396 320.35 316.217 319.439 318.343C318.529 320.466 318.529 322.893 319.136 325.169C319.743 327.749 321.259 330.176 323.232 331.845C325.205 333.516 327.935 334.425 330.668 334.272C328.695 328.508 328.542 322.286 330.668 316.522L330.515 316.369Z" fill="white"/>
<path d="M329.909 334.577C327.481 334.577 325.053 333.666 323.08 332.15C321.109 330.481 319.591 328.053 318.834 325.321C318.227 322.893 318.377 320.316 319.136 318.343C320.045 316.067 322.171 314.247 324.294 313.79C326.722 313.183 329.454 314.247 330.668 316.37V316.674C328.695 322.137 328.695 328.356 330.668 334.273V334.73H330.363C330.061 334.73 329.909 334.73 329.604 334.73L329.909 334.577ZM325.812 314.247C325.358 314.247 325.053 314.247 324.599 314.247C322.625 314.701 320.652 316.37 319.743 318.495C318.984 320.466 318.832 322.743 319.439 325.019C320.045 327.599 321.564 329.874 323.385 331.543C325.358 333.059 327.783 333.97 330.061 333.818C328.24 327.901 328.088 321.832 330.061 316.37C329.149 315.003 327.481 314.094 325.66 314.094L325.812 314.247Z" fill="#101216"/>
<path d="M331.879 308.782C328.39 320.92 326.115 338.976 335.368 349.598C340.072 355.058 347.659 356.879 354.333 354.301C368.445 348.686 372.995 328.203 374.209 315.156C374.514 312.423 374.209 309.693 372.995 307.266C364.651 287.692 339.315 286.935 332.032 308.934L331.879 308.782Z" fill="white"/>
<path d="M348.114 355.817C343.258 355.817 338.403 353.694 335.066 349.9C324.748 338.066 329.149 317.129 331.577 308.782C334.914 298.769 342.349 292.547 351.451 292.093C360.707 291.638 369.204 297.555 373.148 306.963C374.209 309.541 374.664 312.273 374.362 315.003C373.148 327.294 368.899 348.686 354.335 354.453C352.362 355.21 350.237 355.667 348.114 355.667V355.817ZM332.184 308.934C329.756 317.279 325.508 337.762 335.521 349.446C340.074 354.756 347.659 356.576 354.031 353.996C368.899 348.08 372.693 324.714 373.755 315.003C374.057 312.273 373.755 309.693 372.541 307.266C368.597 298.009 360.252 292.397 351.451 292.7C342.652 293.004 335.368 299.073 332.184 308.934Z" fill="#101216"/>
<path d="M356.458 287.239C350.846 284.659 344.018 285.114 338.403 287.694C332.791 290.274 328.24 294.825 324.901 300.135C321.564 305.295 319.289 311.212 317.618 317.129C324.749 311.514 330.211 315.003 335.825 311.514C337.948 310.15 354.638 303.929 356.611 287.239H356.458Z" fill="#101216"/>
<path d="M354.485 286.63C352.515 295.734 356.156 299.833 359.795 304.536C363.437 309.239 371.025 312.121 376.637 313.79C376.942 307.72 374.968 301.653 371.479 296.798C367.99 291.943 361.009 287.39 354.335 286.783L354.485 286.63ZM353.878 331.543V330.936C354.79 330.631 356.004 330.024 356.913 329.417C354.485 326.99 353.122 323.348 353.272 319.859C353.424 316.217 355.397 312.728 358.279 310.605L358.584 311.06C355.852 313.03 354.031 316.37 353.729 319.859C353.576 323.348 354.942 326.837 357.37 329.115L357.672 329.417L357.37 329.722C356.306 330.631 355.092 331.238 353.729 331.693L353.878 331.543ZM350.542 341.708C348.114 341.708 345.534 341.253 343.258 340.342L343.563 339.735C347.812 341.403 352.817 341.403 357.218 339.887V340.494C355.245 341.253 352.969 341.708 350.694 341.708H350.542ZM362.223 323.046C363.313 323.046 364.196 322.162 364.196 321.073C364.196 319.983 363.313 319.1 362.223 319.1C361.133 319.1 360.252 319.983 360.252 321.073C360.252 322.162 361.133 323.046 362.223 323.046ZM345.232 320.92C346.321 320.92 347.205 320.037 347.205 318.95C347.205 317.86 346.321 316.977 345.232 316.977C344.142 316.977 343.258 317.86 343.258 318.95C343.258 320.037 344.142 320.92 345.232 320.92Z" fill="#101216"/>
<path d="M380.279 372.963C352.817 361.13 317.922 357.79 292.889 375.086C275.138 387.377 262.697 477.956 283.635 493.889C297.439 504.356 348.721 490.702 369.659 485.087C390.596 479.475 366.017 451.861 376.789 438.963C388.471 452.468 422.608 487.667 438.538 464.15C454.923 440.025 401.823 382.22 380.126 372.811L380.279 372.963Z" fill="white"/>
<path d="M301.081 498.137C293.343 498.137 287.124 497.076 283.482 494.191C273.165 486.301 272.103 462.481 272.405 448.979C273.165 419.542 281.357 382.674 292.736 374.937C304.57 366.742 318.984 362.646 335.673 362.798C350.237 362.798 365.712 366.287 380.431 372.661C397.422 379.942 432.469 415.903 440.511 443.06C443.089 451.861 442.635 459.144 438.993 464.454C435.656 469.462 431.103 472.192 425.793 472.494C407.89 473.558 384.222 447.915 377.092 439.57C372.236 445.792 373.602 455.805 374.816 464.607C376.182 474.315 377.396 483.419 369.961 485.392C355.397 489.336 322.928 498.137 301.233 498.137H301.081ZM334.612 363.557C320.045 363.557 305.329 366.894 293.041 375.391C288.033 378.88 283.178 388.743 279.386 403.31C275.745 417.266 273.469 433.806 273.012 448.979C272.558 471.737 276.352 487.972 283.785 493.736C297.592 504.206 349.935 490.095 369.506 484.937C376.335 483.116 375.121 474.62 373.907 464.756C372.693 455.653 371.327 445.185 376.637 438.963L376.942 438.661L377.244 438.963C383.92 446.853 406.981 472.04 424.731 472.04C425.036 472.04 425.491 472.04 425.793 472.04C430.953 471.737 435.351 469.157 438.538 464.302C442.028 459.144 442.482 452.163 439.905 443.517C432.015 416.51 397.12 380.701 380.278 373.57C367.078 367.956 350.844 363.86 334.764 363.86L334.612 363.557Z" fill="#101216"/>
<path d="M315.19 365.68C324.901 378.578 328.845 393.294 330.515 409.377C332.184 425.461 331.425 440.33 329.909 456.717C330.363 457.474 344.472 445.944 364.348 441.391C369.811 440.177 360.555 467.489 362.223 467.489C367.078 467.489 368.445 464 371.782 460.358C374.362 457.474 372.845 453.682 374.209 450.193C383.768 426.523 381.188 400.882 373.3 377.212C370.72 369.474 370.568 369.17 360.402 366.742C341.135 362.191 330.818 361.887 315.19 365.68Z" fill="#101216"/>
<path d="M362.528 442.453C356.913 451.404 357.37 485.542 370.418 484.48C382.858 483.419 369.811 430.619 362.528 442.453ZM410.318 440.482C392.872 449.736 412.745 480.689 430.042 471.585C436.415 468.246 432.015 428.95 410.318 440.482Z" fill="#101216"/>
<path d="M413.505 459.901C409.256 461.572 400.759 453.682 401.216 443.364C401.216 442.453 402.43 442.15 402.885 442.91C404.705 446.094 405.465 449.433 408.195 452.618C408.802 454.289 421.395 456.866 413.352 459.901H413.505Z" fill="white"/>
<path d="M412.443 460.508C411.229 460.508 409.711 459.901 408.195 458.84C404.401 456.11 400.759 450.343 401.064 443.364C401.064 442.757 401.518 442.3 401.973 442.3C402.58 442.3 403.037 442.303 403.339 442.907C403.946 443.971 404.553 445.185 405.008 446.399C405.919 448.522 406.981 450.647 408.649 452.618C408.649 453.075 410.318 453.832 411.532 454.289C413.959 455.35 416.539 456.412 416.539 457.93C416.539 458.84 415.628 459.599 413.657 460.356C413.202 460.356 412.745 460.508 412.291 460.508H412.443ZM402.278 442.907C402.278 442.907 402.278 442.907 402.125 442.907C401.973 442.907 401.671 443.06 401.671 443.514C401.366 450.19 405.008 455.805 408.497 458.385C410.318 459.751 412.138 460.206 413.505 459.749C415.478 458.992 415.932 458.385 415.932 457.93C415.932 456.866 413.352 455.653 411.382 454.896C409.561 454.136 408.347 453.53 408.195 452.923C406.374 450.797 405.465 448.674 404.553 446.701C403.946 445.487 403.492 444.426 402.885 443.212C402.885 443.06 402.58 442.907 402.43 442.907H402.278Z" fill="#101216"/>
<path d="M360.252 451.254L368.14 448.522C369.961 441.696 376.182 433.806 382.706 430.619C389.23 427.432 385.284 431.53 384.679 432.894C383.465 435.169 380.581 437.447 380.581 439.57C380.581 442.605 384.375 450.193 387.864 450.04C389.837 449.281 389.382 440.482 391.658 440.784C394.995 441.239 391.505 456.866 391.505 456.866C391.505 456.866 393.326 452.923 393.781 451.102C394.235 449.736 394.54 443.516 396.663 443.212C399.091 442.757 398.788 451.861 398.788 451.861C398.788 451.861 399.698 448.219 401.216 448.976C402.732 449.736 402.43 460.053 400.609 461.722C398.788 463.39 398.029 463.695 397.877 463.543C397.422 465.516 396.208 466.577 393.933 465.516C391.96 464.604 391.658 462.936 389.685 462.026C380.278 462.329 375.271 457.323 373.907 457.93C370.72 458.992 363.894 460.358 360.1 464.454C360.252 459.901 360.1 455.957 360.402 451.404L360.252 451.254Z" fill="white"/>
<path d="M395.449 466.275C394.842 466.275 394.388 466.275 393.628 465.818C392.567 465.363 391.96 464.604 391.353 463.997C390.746 463.39 390.292 462.783 389.382 462.329C383.009 462.481 378.76 460.358 376.182 459.144C375.121 458.537 374.209 458.08 373.755 458.233C373.148 458.535 372.236 458.687 371.327 458.992C367.838 460.053 362.982 461.419 359.948 464.604L359.341 465.211V464.302C359.341 462.026 359.493 459.901 359.493 457.93C359.493 455.805 359.493 453.682 359.493 451.254L367.533 448.219C369.659 440.936 375.878 433.349 382.252 430.314C383.615 429.707 384.222 430.164 384.527 430.314C385.134 430.921 384.982 432.135 384.527 432.894C384.072 433.806 383.313 434.715 382.706 435.474C381.645 436.84 380.431 438.204 380.431 439.418C380.431 441.543 382.402 445.942 384.677 448.219C385.588 449.129 386.498 449.583 387.257 449.583C388.016 449.281 388.318 447.156 388.775 445.185C389.23 442.605 389.685 440.177 391.203 440.329C391.658 440.329 391.96 440.632 392.112 440.936C393.479 442.909 392.567 449.736 391.81 453.682C392.265 452.618 392.719 451.556 392.872 450.797C392.872 450.495 393.022 449.888 393.174 449.281C393.628 446.853 394.085 443.059 396.056 442.757C396.361 442.757 396.815 442.757 397.12 443.059C398.334 444.121 398.636 447.763 398.636 449.888C398.941 449.281 399.395 448.674 399.85 448.369C400.152 448.219 400.609 448.369 400.912 448.369C401.518 448.674 401.973 449.583 402.125 451.102C402.58 454.289 401.973 460.206 400.457 461.569C400.457 461.569 398.789 463.088 397.877 463.39C397.575 464.454 397.12 465.363 396.361 465.668C396.056 465.818 395.602 465.97 395.299 465.97L395.449 466.275ZM389.532 461.722C390.596 462.176 391.203 462.936 391.81 463.543C392.415 464.149 392.872 464.756 393.933 465.211C394.842 465.668 395.602 465.668 396.209 465.363C396.968 464.909 397.27 463.997 397.422 463.39V462.936H397.877C398.334 462.936 399.85 461.874 400.305 461.419C401.518 460.508 402.278 455.046 401.823 451.556C401.671 449.736 401.216 449.281 400.912 449.281C400.759 449.281 400.609 449.281 400.457 449.281C399.698 449.583 399.091 451.404 398.938 452.011L398.182 454.743V451.861C398.332 449.888 398.182 444.728 396.968 443.666C396.815 443.666 396.663 443.514 396.513 443.666C394.995 443.971 394.54 447.613 394.085 449.736C394.085 450.495 393.933 451.102 393.781 451.404C393.326 453.225 391.505 457.019 391.505 457.171H390.898C391.658 453.377 393.479 443.666 391.96 441.543C391.96 441.391 391.658 441.239 391.353 441.239C390.444 441.239 389.989 443.516 389.685 445.639C389.23 447.915 388.925 450.04 387.712 450.495C386.802 450.495 385.741 450.04 384.527 448.976C382.099 446.549 380.126 441.846 380.126 439.723C380.126 438.356 381.34 436.84 382.554 435.322C383.161 434.563 383.92 433.653 384.375 432.742C384.679 432.135 384.679 431.226 384.375 430.921C384.072 430.619 383.465 430.619 382.859 430.921C376.637 433.956 370.418 441.543 368.445 448.674L360.555 451.556C360.555 453.832 360.555 455.957 360.555 457.93C360.555 459.749 360.555 461.569 360.555 463.543C363.589 460.66 368.14 459.294 371.629 458.233C372.541 457.928 373.3 457.778 373.907 457.473C374.514 457.321 375.423 457.626 376.789 458.385C379.367 459.599 383.615 461.874 389.837 461.569L389.532 461.722Z" fill="#101216"/>
<path d="M384.375 456.262C384.375 456.262 384.072 456.262 383.92 456.262V455.655C385.891 456.109 387.562 452.316 388.318 449.129H388.925C388.471 450.949 386.955 456.412 384.375 456.412V456.262ZM389.532 458.839C389.382 458.839 389.23 458.839 389.078 458.839V458.233C389.685 458.233 390.292 458.233 390.596 457.778C390.898 457.323 391.203 456.869 391.353 456.412L391.96 456.716C391.81 457.323 391.505 457.93 391.051 458.385C390.596 458.839 390.139 458.992 389.532 458.992V458.839ZM398.182 463.543H397.575C397.877 459.599 398.029 456.866 398.334 453.377V451.254H399.091V453.377C398.788 456.866 398.484 459.751 398.182 463.543ZM373.602 457.778C370.72 455.198 368.597 451.861 367.685 448.219H368.292C369.204 451.556 371.327 454.896 374.057 457.323L373.602 457.778Z" fill="#101216"/>
<path d="M386.802 454.441C385.741 453.834 377.092 448.979 377.092 443.819C377.092 441.998 378.305 440.482 380.431 439.116L380.733 439.723C378.61 440.936 377.698 442.303 377.698 443.819C377.698 447.613 383.615 451.861 387.107 453.834L386.802 454.441Z" fill="#101216"/>
<path d="M417.753 456.716C408.195 459.749 400.912 440.025 407.133 443.819C409.408 445.185 410.775 450.04 415.78 451.254C416.235 451.254 405.16 443.819 408.802 441.391C410.622 440.025 412.745 442.907 415.325 444.88C417.905 446.853 418.815 446.399 419.876 446.399C423.063 441.089 418.967 435.322 417.601 430.012C418.055 416.357 436.565 450.495 417.753 456.564V456.716Z" fill="white"/>
<path d="M415.78 457.323C411.229 457.323 407.892 452.62 406.828 450.949C405.008 448.067 403.946 444.426 405.008 443.364C405.312 443.062 406.072 442.757 407.435 443.516C407.74 443.669 408.042 443.971 408.195 444.123C407.892 443.516 407.74 443.062 407.74 442.455C407.74 441.848 408.042 441.391 408.649 440.936C410.168 439.875 411.836 441.241 413.657 442.91C414.264 443.516 414.871 443.971 415.63 444.578C416.539 445.185 418.662 445.944 419.876 446.094C422.002 442.453 420.483 438.356 418.967 434.565C418.36 433.199 417.905 431.68 417.448 430.316C417.448 428.039 418.055 426.825 419.119 426.675C421.395 426.523 424.884 432.592 426.098 438.963C427.007 443.364 427.918 453.834 418.055 457.171C417.298 457.476 416.539 457.476 415.932 457.476L415.78 457.323ZM405.919 443.666C405.767 443.666 405.615 443.666 405.465 443.666C404.705 444.426 405.465 447.308 407.435 450.495C408.497 452.316 412.595 457.93 417.753 456.262C427.159 453.227 426.25 443.062 425.338 438.813C423.972 432.137 420.483 426.977 418.967 427.129C418.36 427.129 417.905 428.191 417.905 430.012C418.208 431.378 418.815 432.744 419.269 434.26C420.788 438.356 422.456 442.605 420.028 446.551H419.726C418.512 446.701 415.932 445.792 415.023 445.033C414.264 444.578 413.657 443.971 413.05 443.364C411.229 441.696 410.015 440.784 408.954 441.543C408.497 441.846 408.347 442.15 408.347 442.605C408.347 444.73 412.898 448.522 414.871 450.193C416.085 451.102 416.085 451.102 416.085 451.406L415.78 451.709C412.443 450.799 410.622 448.522 409.256 446.551C408.499 445.487 407.892 444.578 407.133 444.273C406.828 444.123 406.374 443.819 405.919 443.819V443.666ZM410.47 447.006C411.382 448.219 412.595 449.586 414.264 450.343C413.202 449.433 411.684 448.219 410.47 447.006ZM304.57 476.136L304.115 475.681C322.171 459.144 342.804 447.158 364.196 440.936V441.543C343.106 447.613 322.473 459.599 304.57 476.136ZM319.895 461.115H319.289C320.198 440.329 316.556 419.087 308.516 399.97L309.123 399.668C317.011 418.937 320.805 440.177 319.895 461.115Z" fill="#101216"/>
<path d="M369.506 444.88C368.445 443.666 367.383 442.91 366.472 442.453C364.955 441.846 363.135 442.15 361.616 443.364L361.162 442.907C362.83 441.543 364.955 441.089 366.776 441.846C367.838 442.3 368.899 443.212 370.113 444.426L369.658 444.88H369.506ZM320.805 355.213C312.158 365.073 334.459 379.792 344.777 375.693C349.48 373.873 330.97 343.681 320.805 355.213Z" fill="white"/>
<path d="M340.679 376.757C333.548 376.757 324.599 371.75 320.652 366.135C317.77 362.039 317.77 358.095 320.652 355.06C323.08 352.328 325.962 351.721 329.452 352.935C337.646 355.97 345.839 369.322 345.991 374.177C345.991 375.391 345.534 375.846 345.079 375.998C343.865 376.453 342.349 376.757 340.983 376.757H340.679ZM320.957 355.515C317.618 359.157 319.289 363.253 321.107 365.833C325.66 372.357 337.646 378.121 344.625 375.391C344.927 375.391 345.232 374.784 345.232 374.177C345.232 369.474 337.039 356.424 329.149 353.542C325.962 352.328 323.232 353.087 321.107 355.515H320.957Z" fill="#101216"/>
<path d="M363.135 360.066C370.265 367.653 351.908 379.033 343.411 375.846C339.617 374.479 354.79 351.114 363.135 360.066Z" fill="white"/>
<path d="M346.9 376.757C345.686 376.757 344.472 376.605 343.411 376.15C343.109 376.15 342.652 375.693 342.652 374.784C342.652 370.99 349.328 360.977 355.699 358.397C358.734 357.183 361.314 357.638 363.437 359.916C365.562 362.191 365.715 365.073 363.742 368.108C360.707 372.659 352.969 376.907 346.9 376.907V376.757ZM358.734 358.397C357.825 358.397 356.913 358.55 355.852 359.004C349.48 361.584 343.109 371.445 343.109 374.784C343.109 375.543 343.411 375.543 343.563 375.693C349.328 377.819 359.645 372.963 363.135 367.803C364.349 365.985 365.41 363.1 362.982 360.523C361.769 359.309 360.402 358.55 358.734 358.55V358.397Z" fill="#101216"/>
<path d="M342.804 371.143C337.189 374.784 335.978 383.281 340.376 388.289C339.01 384.495 343.865 379.792 344.777 375.543C345.079 374.025 344.927 370.383 342.804 371.143Z" fill="white"/>
<path d="M341.285 389.805L340.224 388.591C338.101 386.163 337.039 382.674 337.494 379.185C337.949 375.696 339.922 372.661 342.652 370.84C343.411 370.536 344.018 370.84 344.32 370.99C345.384 371.902 345.384 374.177 345.079 375.543C344.777 377.212 343.713 379.033 342.804 380.853C341.285 383.583 339.922 386.011 340.678 388.137L341.285 389.653V389.805ZM342.956 371.447C340.376 373.116 338.555 375.998 338.101 379.337C337.646 382.22 338.403 384.95 339.922 387.225C339.922 385.102 341.135 382.827 342.349 380.701C343.258 379.033 344.17 377.212 344.625 375.696C344.927 374.482 344.777 372.357 344.018 371.75C343.713 371.447 343.411 371.447 342.956 371.75V371.447Z" fill="#101216"/>
<path d="M345.536 371.445C351.908 373.723 354.79 381.763 351.603 387.68C352.06 383.736 346.445 380.094 344.625 376.148C343.865 374.632 343.258 371.143 345.686 371.445H345.536Z" fill="white"/>
<path d="M350.996 389.198V387.53C351.453 385.252 349.632 383.129 347.507 380.853C346.141 379.335 344.927 377.819 344.17 376.3C343.563 375.087 343.109 372.811 343.865 371.75C344.17 371.445 344.625 370.99 345.384 371.143C348.419 372.357 350.996 374.784 352.21 378.121C353.424 381.46 353.272 384.95 351.603 387.832L350.846 389.198H350.996ZM345.232 371.597C344.927 371.597 344.625 371.597 344.472 371.902C343.865 372.659 344.32 374.784 344.777 375.846C345.534 377.364 346.748 378.88 348.114 380.247C349.782 382.067 351.453 384.038 351.908 386.163C352.969 383.736 352.969 380.853 351.908 378.121C350.694 374.937 348.419 372.659 345.534 371.445C345.534 371.445 345.534 371.445 345.384 371.445L345.232 371.597Z" fill="#101216"/>
<path d="M343.411 373.57C346.427 373.57 348.873 371.124 348.873 368.108C348.873 365.092 346.427 362.646 343.411 362.646C340.395 362.646 337.948 365.092 337.948 368.108C337.948 371.124 340.395 373.57 343.411 373.57Z" fill="white"/>
<path d="M343.411 373.873C340.224 373.873 337.646 371.295 337.646 368.108C337.646 364.921 340.224 362.344 343.411 362.344C346.598 362.344 349.175 364.921 349.175 368.108C349.175 371.295 346.598 373.873 343.411 373.873ZM343.411 362.95C340.529 362.95 338.253 365.226 338.253 368.108C338.253 370.99 340.529 373.266 343.411 373.266C346.293 373.266 348.569 370.99 348.569 368.108C348.569 365.226 346.293 362.95 343.411 362.95Z" fill="#101216"/>
<path d="M356.156 444.124H355.549C355.699 422.427 355.092 399.364 344.777 378.426L345.384 378.124C355.852 399.214 356.458 422.274 356.306 444.124H356.156Z" fill="white"/>
<path d="M323.232 360.37C324.069 360.37 324.748 359.691 324.748 358.852C324.748 358.015 324.069 357.336 323.232 357.336C322.393 357.336 321.714 358.015 321.714 358.852C321.714 359.691 322.393 360.37 323.232 360.37ZM332.184 360.825C333.02 360.825 333.7 360.148 333.7 359.309C333.7 358.47 333.02 357.79 332.184 357.79C331.345 357.79 330.665 358.47 330.665 359.309C330.665 360.148 331.345 360.825 332.184 360.825ZM359.191 362.191C360.027 362.191 360.707 361.512 360.707 360.673C360.707 359.836 360.027 359.156 359.191 359.156C358.352 359.156 357.672 359.836 357.672 360.673C357.672 361.512 358.352 362.191 359.191 362.191ZM358.432 369.929C359.268 369.929 359.948 369.249 359.948 368.41C359.948 367.574 359.268 366.894 358.432 366.894C357.593 366.894 356.913 367.574 356.913 368.41C356.913 369.249 357.593 369.929 358.432 369.929ZM352.969 368.715C353.806 368.715 354.485 368.035 354.485 367.196C354.485 366.36 353.806 365.68 352.969 365.68C352.13 365.68 351.451 366.36 351.451 367.196C351.451 368.035 352.13 368.715 352.969 368.715ZM342.197 367.501C343.036 367.501 343.713 366.822 343.713 365.985C343.713 365.146 343.036 364.466 342.197 364.466C341.358 364.466 340.681 365.146 340.681 365.985C340.681 366.822 341.358 367.501 342.197 367.501ZM345.534 371.447C346.373 371.447 347.052 370.768 347.052 369.929C347.052 369.092 346.373 368.413 345.534 368.413C344.697 368.413 344.018 369.092 344.018 369.929C344.018 370.768 344.697 371.447 345.534 371.447ZM340.831 379.033C341.67 379.033 342.349 378.353 342.349 377.514C342.349 376.678 341.67 375.998 340.831 375.998C339.994 375.998 339.315 376.678 339.315 377.514C339.315 378.353 339.994 379.033 340.831 379.033ZM348.873 378.728C349.71 378.728 350.389 378.048 350.389 377.212C350.389 376.373 349.71 375.693 348.873 375.693C348.034 375.693 347.355 376.373 347.355 377.212C347.355 378.048 348.034 378.728 348.873 378.728ZM327.935 367.501C328.774 367.501 329.454 366.822 329.454 365.985C329.454 365.146 328.774 364.466 327.935 364.466C327.099 364.466 326.419 365.146 326.419 365.985C326.419 366.822 327.099 367.501 327.935 367.501ZM335.825 371.447C336.662 371.447 337.342 370.768 337.342 369.929C337.342 369.092 336.662 368.413 335.825 368.413C334.987 368.413 334.307 369.092 334.307 369.929C334.307 370.768 334.987 371.447 335.825 371.447Z" fill="#101216"/>
<path d="M252.227 251.129V504.966H454.316V251.129H252.227ZM434.897 426.523H271.801V277.983H434.897V426.523Z" fill="white"/>
<path d="M383.92 445.942H271.344V455.805H383.92V445.942Z" fill="#101216"/>
<path d="M384.679 456.564H270.587V445.185H384.679V456.564ZM272.103 455.046H383.161V446.701H272.103V455.046Z" fill="white"/>
<path d="M337.039 461.267H272.255V471.13H337.039V461.267Z" fill="#101216"/>
<path d="M337.796 471.887H271.496V460.508H337.796V471.887ZM273.012 470.371H336.28V462.027H273.012V470.371ZM468.73 484.178H233.87V526.056H468.73V484.178Z" fill="white"/>
<path d="M305.329 496.621C302.902 496.621 300.474 496.469 298.046 495.862C293.041 494.8 288.338 492.675 283.785 490.552C277.565 487.667 271.799 484.937 265.275 484.937C264.213 484.937 262.999 484.937 261.633 484.937C254.048 484.937 243.58 484.937 239.179 479.78C237.359 477.502 236.602 474.467 237.359 470.826L238.877 471.13C238.27 474.467 238.877 476.895 240.393 478.868C244.339 483.571 254.352 483.571 261.785 483.421C263.152 483.421 264.365 483.421 265.427 483.421C272.255 483.421 278.475 486.453 284.544 489.186C289.095 491.309 293.648 493.434 298.501 494.343C310.337 496.771 321.564 492.523 333.55 487.972C342.652 484.483 352.21 480.993 361.921 480.689C369.506 480.537 376.942 482.205 384.072 483.723C388.318 484.633 392.872 485.697 397.27 486.303C420.788 489.488 461.297 491.613 468.275 470.676L469.641 471.13C462.358 493.13 420.94 491.007 396.968 487.82C392.417 487.213 387.864 486.151 383.615 485.24C376.182 483.571 369.354 482.055 361.768 482.205C352.21 482.51 342.956 485.999 333.852 489.488C324.598 492.98 315.04 496.621 305.177 496.621H305.329Z" fill="#101216"/>
<path d="M329.454 535.917C324.142 535.917 318.832 535.16 313.522 533.187C308.516 531.366 303.813 528.483 299.26 525.751C293.648 522.262 287.881 518.773 281.357 517.407C272.405 516.345 262.09 518.468 252.077 520.441C230.684 524.842 210.354 528.938 204.285 502.386L205.802 502.083C211.568 527.27 231.139 523.323 251.772 519.075C261.786 517.104 272.256 514.979 281.509 516.04C288.338 517.559 294.255 521.2 299.867 524.69C304.268 527.42 308.971 530.304 313.826 531.973C330.211 537.89 346.748 532.58 362.83 527.42C372.541 524.385 382.706 521.2 392.567 520.441C400.762 519.834 408.954 520.896 416.841 521.807C425.643 522.869 434.745 523.93 443.696 522.869C468.428 519.987 490.122 498.29 493.157 473.558H494.673C491.488 499.503 469.641 521.353 443.848 524.385C434.745 525.449 425.643 524.385 416.692 523.323C408.802 522.414 400.609 521.503 392.567 521.957C382.706 522.717 372.843 525.751 363.135 528.938C351.908 532.427 340.529 536.069 328.997 536.069L329.454 535.917ZM266.339 559.737C260.422 559.737 254.352 557.613 250.104 553.365L251.166 552.303C257.994 558.98 269.221 560.193 277.413 555.338L278.172 556.704C274.683 558.827 270.435 559.889 266.339 559.889V559.737ZM371.025 562.771C366.776 562.771 362.528 561.71 359.039 559.434L359.798 558.22C367.838 563.228 379.217 562.014 386.043 555.49L387.105 556.552C382.858 560.648 376.942 562.771 371.025 562.771ZM178.796 517.407C170.907 517.407 163.018 513.31 158.77 506.634L159.983 505.875C164.99 513.917 175.61 517.861 184.714 514.979L185.169 516.497C183.044 517.104 180.769 517.559 178.645 517.559L178.796 517.407Z" fill="#101216"/>
<path d="M339.922 514.524C334.612 514.524 329.454 512.856 325.205 509.517L326.115 508.303C333.55 514.372 344.777 514.674 352.515 509.062L353.424 510.276C349.48 513.158 344.625 514.524 339.769 514.524H339.922Z" fill="#101216"/>
</svg>
