<svg width="16" height="20" viewBox="0 0 16 20" fill="none" xmlns="http://www.w3.org/2000/svg">
<path d="M0.00195312 7.17856C0.00195312 6.33873 0.178777 5.5049 0.534433 4.67906C0.89009 3.85323 1.39846 3.08538 2.06155 2.37952C2.72464 1.67367 3.59469 1.09978 4.67371 0.659868C5.75274 0.219956 6.94831 4.76837e-07 8.26042 4.76837e-07C10.3903 4.76837e-07 12.1385 0.65387 13.5049 1.95961C14.8712 3.26535 15.5544 4.80504 15.5544 6.57868C15.5544 8.85823 14.9757 10.7419 13.8163 12.2276C12.6569 13.7133 11.1599 14.4571 9.32538 14.4571C8.72257 14.4571 8.15594 14.3171 7.62747 14.0372C7.09901 13.7572 6.72728 13.4173 6.51228 13.0174L5.70853 16.1768C5.64223 16.4307 5.55381 16.6867 5.44732 16.9466C5.34082 17.2066 5.22227 17.4565 5.09568 17.6965C4.96909 17.9364 4.84049 18.1624 4.7139 18.3763C4.58731 18.5903 4.45871 18.7902 4.33212 18.9762C4.20553 19.1622 4.09502 19.3201 4.00058 19.4461C3.90614 19.5721 3.81974 19.6821 3.73936 19.776L3.6188 19.936C3.57861 19.99 3.52436 20.01 3.45805 19.996C3.39174 19.982 3.35156 19.942 3.33749 19.876C3.33749 19.862 3.32744 19.77 3.30735 19.5961C3.28726 19.4221 3.26716 19.2402 3.24707 19.0462C3.22698 18.8522 3.20688 18.6023 3.18679 18.2963C3.16669 17.9904 3.16067 17.6925 3.16669 17.4065C3.17272 17.1206 3.19282 16.8026 3.22698 16.4567C3.26113 16.1108 3.31137 15.7908 3.37768 15.4969C3.52436 14.871 4.02067 12.7834 4.8646 9.23815C4.75811 9.02419 4.6697 8.76825 4.60339 8.46831C4.53708 8.16837 4.50292 7.92441 4.50292 7.73845L4.48283 7.43851C4.48283 6.58468 4.69984 5.87483 5.13587 5.30894C5.5719 4.74305 6.09634 4.45911 6.71321 4.45911C7.20953 4.45911 7.59331 4.62308 7.8686 4.94901C8.14388 5.27494 8.28052 5.68486 8.28052 6.17876C8.28052 6.4847 8.22425 6.86263 8.10972 7.30854C7.99519 7.75445 7.84448 8.26835 7.65761 8.84823C7.47074 9.42811 7.33612 9.89802 7.25574 10.2579C7.12111 10.8578 7.23967 11.3777 7.60738 11.8176C7.97509 12.2575 8.46739 12.4775 9.08426 12.4775C10.1432 12.4775 11.0173 11.8816 11.7065 10.6879C12.3957 9.4941 12.7413 8.05239 12.7413 6.35873C12.7413 5.06499 12.3193 4.0092 11.4754 3.18936C10.6315 2.36953 9.45197 1.95961 7.93892 1.95961C6.25106 1.95961 4.88068 2.4995 3.82978 3.57928C2.77889 4.65907 2.25244 5.95281 2.25244 7.45851C2.25244 8.35233 2.50762 9.10418 3.01599 9.71806C3.19081 9.91802 3.24305 10.132 3.17674 10.3579C3.15062 10.4239 3.11043 10.5779 3.05618 10.8178C3.00193 11.0578 2.96174 11.2118 2.93562 11.2777C2.9095 11.4237 2.84118 11.5217 2.73468 11.5677C2.62819 11.6137 2.50762 11.6117 2.373 11.5577C1.58332 11.2378 0.990558 10.6879 0.594714 9.90802C0.19887 9.12817 0.00195312 8.21836 0.00195312 7.17856Z" fill="black"/>
</svg>
