<svg width="48" height="48" viewBox="0 0 48 48" fill="none" xmlns="http://www.w3.org/2000/svg">
<g filter="url(#filter0_d_3404_140)">
<rect x="4" y="1" width="40" height="40" rx="10" fill="white"/>
</g>
<g clip-path="url(#clip0_3404_140)">
<path d="M16.002 18.1786C16.002 17.3387 16.1788 16.5049 16.5344 15.6791C16.8901 14.8532 17.3985 14.0854 18.0615 13.3795C18.7246 12.6737 19.5947 12.0998 20.6737 11.6599C21.7527 11.22 22.9483 11 24.2604 11C26.3903 11 28.1385 11.6539 29.5049 12.9596C30.8712 14.2653 31.5544 15.805 31.5544 17.5787C31.5544 19.8582 30.9757 21.7419 29.8163 23.2276C28.6569 24.7133 27.1599 25.4571 25.3254 25.4571C24.7226 25.4571 24.1559 25.3171 23.6275 25.0372C23.099 24.7572 22.7273 24.4173 22.5123 24.0174L21.7085 27.1768C21.6422 27.4307 21.5538 27.6867 21.4473 27.9466C21.3408 28.2066 21.2223 28.4565 21.0957 28.6965C20.9691 28.9364 20.8405 29.1624 20.7139 29.3763C20.5873 29.5903 20.4587 29.7902 20.3321 29.9762C20.2055 30.1622 20.095 30.3201 20.0006 30.4461C19.9061 30.5721 19.8197 30.6821 19.7394 30.776L19.6188 30.936C19.5786 30.99 19.5244 31.01 19.4581 30.996C19.3917 30.982 19.3516 30.942 19.3375 30.876C19.3375 30.862 19.3274 30.77 19.3073 30.5961C19.2873 30.4221 19.2672 30.2402 19.2471 30.0462C19.227 29.8522 19.2069 29.6023 19.1868 29.2963C19.1667 28.9904 19.1607 28.6925 19.1667 28.4065C19.1727 28.1206 19.1928 27.8026 19.227 27.4567C19.2611 27.1108 19.3114 26.7908 19.3777 26.4969C19.5244 25.871 20.0207 23.7834 20.8646 20.2382C20.7581 20.0242 20.6697 19.7682 20.6034 19.4683C20.5371 19.1684 20.5029 18.9244 20.5029 18.7385L20.4828 18.4385C20.4828 17.5847 20.6998 16.8748 21.1359 16.3089C21.5719 15.7431 22.0963 15.4591 22.7132 15.4591C23.2095 15.4591 23.5933 15.6231 23.8686 15.949C24.1439 16.2749 24.2805 16.6849 24.2805 17.1788C24.2805 17.4847 24.2243 17.8626 24.1097 18.3085C23.9952 18.7544 23.8445 19.2683 23.6576 19.8482C23.4707 20.4281 23.3361 20.898 23.2557 21.2579C23.1211 21.8578 23.2397 22.3777 23.6074 22.8176C23.9751 23.2575 24.4674 23.4775 25.0843 23.4775C26.1432 23.4775 27.0173 22.8816 27.7065 21.6879C28.3957 20.4941 28.7413 19.0524 28.7413 17.3587C28.7413 16.065 28.3193 15.0092 27.4754 14.1894C26.6315 13.3695 25.452 12.9596 23.9389 12.9596C22.2511 12.9596 20.8807 13.4995 19.8298 14.5793C18.7789 15.6591 18.2524 16.9528 18.2524 18.4585C18.2524 19.3523 18.5076 20.1042 19.016 20.7181C19.1908 20.918 19.2431 21.132 19.1767 21.3579C19.1506 21.4239 19.1104 21.5779 19.0562 21.8178C19.0019 22.0578 18.9617 22.2118 18.9356 22.2777C18.9095 22.4237 18.8412 22.5217 18.7347 22.5677C18.6282 22.6137 18.5076 22.6117 18.373 22.5577C17.5833 22.2378 16.9906 21.6879 16.5947 20.908C16.1989 20.1282 16.002 19.2184 16.002 18.1786Z" fill="black"/>
</g>
<defs>
<filter id="filter0_d_3404_140" x="0" y="0" width="48" height="48" filterUnits="userSpaceOnUse" color-interpolation-filters="sRGB">
<feFlood flood-opacity="0" result="BackgroundImageFix"/>
<feColorMatrix in="SourceAlpha" type="matrix" values="0 0 0 0 0 0 0 0 0 0 0 0 0 0 0 0 0 0 127 0" result="hardAlpha"/>
<feOffset dy="3"/>
<feGaussianBlur stdDeviation="2"/>
<feComposite in2="hardAlpha" operator="out"/>
<feColorMatrix type="matrix" values="0 0 0 0 0 0 0 0 0 0 0 0 0 0 0 0 0 0 0.1 0"/>
<feBlend mode="normal" in2="BackgroundImageFix" result="effect1_dropShadow_3404_140"/>
<feBlend mode="normal" in="SourceGraphic" in2="effect1_dropShadow_3404_140" result="shape"/>
</filter>
<clipPath id="clip0_3404_140">
<rect width="15.5556" height="20" fill="white" transform="translate(16 11)"/>
</clipPath>
</defs>
</svg>
