<svg width="905" height="559" viewBox="0 0 905 559" fill="none" xmlns="http://www.w3.org/2000/svg">
<g clip-path="url(#clip0_2959_164)">
<circle cx="452.538" cy="454.538" r="447" stroke="url(#paint0_linear_2959_164)" stroke-width="6"/>
<mask id="path-2-inside-1_2959_164" fill="white">
<path d="M120.338 157.698C118.485 156.042 118.325 153.195 119.999 151.358C182.963 82.2967 265.897 34.5223 357.309 14.7295C450.187 -5.38093 547.048 4.42822 634.009 42.7511C720.969 81.0739 793.566 145.943 841.393 228.061C888.465 308.882 909.165 402.328 900.679 495.397C900.453 497.872 898.243 499.675 895.771 499.424V499.424C893.298 499.174 891.499 496.965 891.724 494.49C900.019 403.312 879.731 311.769 833.616 232.591C786.745 152.115 715.601 88.5432 630.379 50.9868C545.158 13.4304 450.234 3.81744 359.213 23.5257C269.66 42.9162 188.407 89.7109 126.711 157.355C125.036 159.191 122.192 159.354 120.338 157.698V157.698Z"/>
</mask>
<path d="M120.338 157.698C118.485 156.042 118.325 153.195 119.999 151.358C182.963 82.2967 265.897 34.5223 357.309 14.7295C450.187 -5.38093 547.048 4.42822 634.009 42.7511C720.969 81.0739 793.566 145.943 841.393 228.061C888.465 308.882 909.165 402.328 900.679 495.397C900.453 497.872 898.243 499.675 895.771 499.424V499.424C893.298 499.174 891.499 496.965 891.724 494.49C900.019 403.312 879.731 311.769 833.616 232.591C786.745 152.115 715.601 88.5432 630.379 50.9868C545.158 13.4304 450.234 3.81744 359.213 23.5257C269.66 42.9162 188.407 89.7109 126.711 157.355C125.036 159.191 122.192 159.354 120.338 157.698V157.698Z" fill="#31DD8C" stroke="#31DD8C" stroke-width="12" mask="url(#path-2-inside-1_2959_164)"/>
<circle cx="452.538" cy="454.538" r="247" stroke="url(#paint1_linear_2959_164)" stroke-width="6"/>
<circle cx="449.038" cy="454.038" r="346.5" stroke="url(#paint2_linear_2959_164)" stroke-width="6"/>
<mask id="path-5-inside-2_2959_164" fill="white">
<path d="M265.503 294.118C263.396 292.334 263.131 289.175 264.957 287.104C289.92 258.797 320.985 236.493 355.833 221.888C392.22 206.64 431.699 200.219 471.042 203.152C510.386 206.084 548.477 218.286 582.201 238.761C614.499 258.37 641.914 285.033 662.405 316.727C663.904 319.046 663.173 322.131 660.825 323.584V323.584C658.476 325.036 655.399 324.307 653.898 321.989C634.239 291.636 607.96 266.099 577.011 247.309C544.636 227.653 508.069 215.939 470.299 213.124C432.529 210.309 394.63 216.473 359.698 231.111C326.305 245.105 296.532 266.465 272.59 293.568C270.762 295.638 267.61 295.903 265.503 294.118V294.118Z"/>
</mask>
<path d="M265.503 294.118C263.396 292.334 263.131 289.175 264.957 287.104C289.92 258.797 320.985 236.493 355.833 221.888C392.22 206.64 431.699 200.219 471.042 203.152C510.386 206.084 548.477 218.286 582.201 238.761C614.499 258.37 641.914 285.033 662.405 316.727C663.904 319.046 663.173 322.131 660.825 323.584V323.584C658.476 325.036 655.399 324.307 653.898 321.989C634.239 291.636 607.96 266.099 577.011 247.309C544.636 227.653 508.069 215.939 470.299 213.124C432.529 210.309 394.63 216.473 359.698 231.111C326.305 245.105 296.532 266.465 272.59 293.568C270.762 295.638 267.61 295.903 265.503 294.118V294.118Z" stroke="#FE7024" stroke-width="12" mask="url(#path-5-inside-2_2959_164)"/>
<mask id="path-6-inside-3_2959_164" fill="white">
<path d="M114.375 519.61C111.531 520.174 108.764 518.326 108.243 515.474C100.298 472.014 100.651 427.426 109.3 384.068C118.292 338.994 136.074 296.131 161.63 257.929C187.186 219.726 220.017 186.931 258.248 161.417C296.478 135.902 339.36 118.168 384.444 109.226C429.529 100.283 475.933 100.309 521.007 109.3C566.082 118.292 608.944 136.073 647.147 161.63C685.349 187.186 718.144 220.017 743.659 258.248C768.201 295.022 785.545 336.1 794.79 379.302C795.397 382.137 793.544 384.901 790.7 385.466V385.466C787.856 386.03 785.097 384.18 784.489 381.345C775.514 339.495 758.702 299.704 734.925 264.076C710.176 226.993 678.365 195.147 641.308 170.357C604.252 145.567 562.676 128.319 518.953 119.597C475.231 110.876 430.219 110.851 386.487 119.525C342.755 128.199 301.16 145.401 264.076 170.151C226.993 194.9 195.147 226.711 170.357 263.767C145.567 300.824 128.319 342.4 119.598 386.122C111.218 428.128 110.866 471.324 118.543 513.431C119.063 516.283 117.219 519.046 114.375 519.61V519.61Z"/>
</mask>
<path d="M114.375 519.61C111.531 520.174 108.764 518.326 108.243 515.474C100.298 472.014 100.651 427.426 109.3 384.068C118.292 338.994 136.074 296.131 161.63 257.929C187.186 219.726 220.017 186.931 258.248 161.417C296.478 135.902 339.36 118.168 384.444 109.226C429.529 100.283 475.933 100.309 521.007 109.3C566.082 118.292 608.944 136.073 647.147 161.63C685.349 187.186 718.144 220.017 743.659 258.248C768.201 295.022 785.545 336.1 794.79 379.302C795.397 382.137 793.544 384.901 790.7 385.466V385.466C787.856 386.03 785.097 384.18 784.489 381.345C775.514 339.495 758.702 299.704 734.925 264.076C710.176 226.993 678.365 195.147 641.308 170.357C604.252 145.567 562.676 128.319 518.953 119.597C475.231 110.876 430.219 110.851 386.487 119.525C342.755 128.199 301.16 145.401 264.076 170.151C226.993 194.9 195.147 226.711 170.357 263.767C145.567 300.824 128.319 342.4 119.598 386.122C111.218 428.128 110.866 471.324 118.543 513.431C119.063 516.283 117.219 519.046 114.375 519.61V519.61Z" fill="#177DE5" stroke="#177DE5" stroke-width="12" mask="url(#path-6-inside-3_2959_164)"/>
</g>
<defs>
<linearGradient id="paint0_linear_2959_164" x1="452.538" y1="4.5376" x2="452.538" y2="904.538" gradientUnits="userSpaceOnUse">
<stop stop-color="#101216"/>
<stop offset="1" stop-opacity="0"/>
</linearGradient>
<linearGradient id="paint1_linear_2959_164" x1="452.538" y1="204.538" x2="452.538" y2="704.538" gradientUnits="userSpaceOnUse">
<stop stop-color="#101216"/>
<stop offset="1" stop-opacity="0"/>
</linearGradient>
<linearGradient id="paint2_linear_2959_164" x1="449.038" y1="104.538" x2="449.038" y2="803.538" gradientUnits="userSpaceOnUse">
<stop stop-color="#101216"/>
<stop offset="1" stop-opacity="0"/>
</linearGradient>
<clipPath id="clip0_2959_164">
<rect width="905" height="559" fill="white"/>
</clipPath>
</defs>
</svg>
