<svg width="78" height="55" viewBox="0 0 78 55" fill="none" xmlns="http://www.w3.org/2000/svg">
<mask id="mask0_514_411" style="mask-type:alpha" maskUnits="userSpaceOnUse" x="0" y="0" width="78" height="55">
<path d="M0.0170898 0.143982H77.7314V54.856H0.0170898V0.143982Z" fill="white"/>
</mask>
<g mask="url(#mask0_514_411)">
<path fill-rule="evenodd" clip-rule="evenodd" d="M32.2854 6.13349C34.794 3.50155 38.2854 1.87171 42.1426 1.87171C47.2854 1.87171 51.7426 4.75129 54.1426 9.04186C56.2729 8.08203 58.5804 7.58648 60.914 7.58768C70.1711 7.58768 77.6854 15.2186 77.6854 24.6348C77.6854 34.051 70.1711 41.6819 60.914 41.6819C59.7826 41.6819 58.6797 41.5673 57.5997 41.3507C55.4997 45.123 51.4854 47.6858 46.914 47.6858C45.0528 47.6895 43.2155 47.264 41.5426 46.4418C39.414 51.4811 34.4569 55.023 28.6854 55.023C22.6569 55.023 17.5426 51.1931 15.5711 45.8083C14.6937 45.995 13.7993 46.0888 12.9026 46.0882C5.73115 46.0882 -0.0688477 40.1563 -0.0688477 32.871C-0.0688477 27.9757 2.54258 23.7139 6.41687 21.4102C5.59493 19.5019 5.17186 17.4435 5.17401 15.3631C5.17401 6.95474 11.9454 0.158936 20.2883 0.158936C25.174 0.158936 29.5454 2.50579 32.2883 6.14846" fill="black"/>
<path fill-rule="evenodd" clip-rule="evenodd" d="M11.2569 28.5942C11.2081 28.7227 11.2744 28.7494 11.2901 28.7722C11.4361 28.8787 11.5844 28.9559 11.7329 29.0426C12.5272 29.4659 13.2758 29.5897 14.0586 29.5897C15.6529 29.5897 16.6444 28.7345 16.6444 27.358V27.331C16.6444 26.0582 15.5244 25.5946 14.4786 25.2634L14.3418 25.2188C13.5504 24.9602 12.8675 24.735 12.8675 24.2109V24.1842C12.8675 23.7349 13.2675 23.4038 13.8846 23.4038C14.5704 23.4038 15.3875 23.6339 15.9104 23.925C15.9104 23.925 16.0652 24.0258 16.1215 23.8752C16.1521 23.7937 16.4186 23.0747 16.4472 22.994C16.4775 22.9097 16.4244 22.846 16.3698 22.8132C15.7698 22.4446 14.9412 22.1941 14.0841 22.1941L13.9249 22.1947C12.4649 22.1947 11.4449 23.0844 11.4449 24.3572V24.3846C11.4449 25.7265 12.5706 26.1642 13.6221 26.4665L13.7912 26.5195C14.5569 26.7568 15.2198 26.963 15.2198 27.5043V27.5314C15.2198 28.0295 14.7884 28.401 14.0969 28.401C13.8281 28.401 12.9712 28.3964 12.0426 27.8049C11.9304 27.739 11.8664 27.6915 11.7798 27.6382C11.7341 27.6103 11.6198 27.5599 11.5701 27.7108L11.2558 28.5919L11.2569 28.5942ZM34.5986 28.5919C34.5498 28.7204 34.6161 28.7471 34.6324 28.7699C34.7778 28.8764 34.9266 28.9536 35.0752 29.0403C35.8695 29.4636 36.6181 29.5874 37.4009 29.5874C38.9952 29.5874 39.9866 28.7322 39.9866 27.3557V27.3287C39.9866 26.0559 38.8695 25.5923 37.8209 25.2611L37.6841 25.2165C36.8926 24.9579 36.2098 24.7327 36.2098 24.2086V24.1819C36.2098 23.7326 36.6098 23.4015 37.2269 23.4015C37.9126 23.4015 38.7269 23.6316 39.2526 23.9227C39.2526 23.9227 39.4075 24.0235 39.4641 23.8729C39.4944 23.7914 39.7612 23.0723 39.7869 22.9917C39.8175 22.9073 39.7641 22.8437 39.7098 22.8109C39.1098 22.4423 38.2812 22.1918 37.4241 22.1918L37.2646 22.1923C35.8046 22.1923 34.7846 23.0821 34.7846 24.3549V24.3823C34.7846 25.7242 35.9104 26.1619 36.9618 26.4642L37.1306 26.5172C37.8992 26.7545 38.5592 26.9606 38.5592 27.502V27.5291C38.5592 28.0272 38.1278 28.3987 37.4364 28.3987C37.1669 28.3987 36.3078 28.3941 35.3821 27.8026C35.2698 27.7367 35.2041 27.6912 35.1189 27.6359C35.0901 27.6175 34.9555 27.5645 34.9095 27.7085L34.5952 28.5896L34.5986 28.5919ZM50.5381 25.8943C50.5381 26.6718 50.3941 27.2852 50.1124 27.72C49.8312 28.1491 49.4066 28.3593 48.8152 28.3593C48.2238 28.3593 47.8009 28.1508 47.5238 27.7229C47.2446 27.2909 47.1038 26.6747 47.1038 25.8972C47.1038 25.1197 47.2455 24.5093 47.5238 24.0802C47.8004 23.654 48.2209 23.4496 48.8152 23.4496C49.4095 23.4496 49.8324 23.656 50.1124 24.0802C50.3958 24.5093 50.5381 25.1197 50.5381 25.8972V25.8943ZM51.8695 24.4545C51.7384 24.0082 51.5352 23.6166 51.2638 23.2883C50.9921 22.96 50.6495 22.6951 50.2409 22.5051C49.8352 22.3136 49.3552 22.2171 48.8124 22.2171C48.2695 22.2171 47.7923 22.3142 47.3838 22.5051C46.9781 22.6963 46.6324 22.96 46.3609 23.2883C46.0901 23.6166 45.8866 24.0082 45.7552 24.4545C45.6252 24.898 45.5592 25.3818 45.5592 25.8972C45.5592 26.4127 45.6252 26.8964 45.7552 27.3399C45.8858 27.7862 46.0895 28.1778 46.3609 28.5061C46.6326 28.8344 46.9781 29.0964 47.3838 29.2836C47.7923 29.4702 48.2724 29.5652 48.8124 29.5652C49.3523 29.5652 49.8324 29.4702 50.2381 29.2836C50.6438 29.097 50.9895 28.8344 51.2609 28.5061C51.5321 28.1778 51.7352 27.7862 51.8666 27.3399C51.9963 26.8964 52.0624 26.4127 52.0624 25.8972C52.0624 25.3847 51.9963 24.898 51.8666 24.4545H51.8695ZM62.8095 28.1404C62.7658 28.01 62.6395 28.0592 62.6395 28.0592C62.4461 28.1338 62.2395 28.2029 62.0195 28.2375C61.7978 28.2726 61.5509 28.2902 61.2909 28.2902C60.6481 28.2902 60.1338 28.0969 59.7681 27.7142C59.3995 27.3313 59.1938 26.715 59.1966 25.8799C59.1986 25.1197 59.3809 24.5496 59.7081 24.1119C60.0309 23.6799 60.5281 23.4553 61.1852 23.4553C61.7338 23.4553 62.1538 23.5195 62.5938 23.6583C62.5938 23.6583 62.6981 23.7041 62.7481 23.5656C62.8649 23.2402 62.9512 23.007 63.0766 22.6499C63.1121 22.5477 63.0252 22.5045 62.9935 22.4921C62.8209 22.4242 62.4135 22.3127 62.1049 22.2658C61.8163 22.2214 61.4821 22.1984 61.1049 22.1984C60.5449 22.1984 60.0478 22.2949 59.6221 22.4861C59.1963 22.677 58.8363 22.941 58.5506 23.2693C58.2649 23.5976 58.0478 23.9892 57.9021 24.4355C57.7578 24.879 57.6849 25.3656 57.6849 25.8811C57.6849 26.9926 57.9821 27.8939 58.5706 28.5533C59.1592 29.2156 60.0449 29.5497 61.1992 29.5497C61.8821 29.5497 62.5821 29.4106 63.0849 29.2099C63.0849 29.2099 63.1809 29.1632 63.1392 29.0504L62.8106 28.1404H62.8095ZM65.1392 25.1456C65.2029 24.7137 65.3204 24.3538 65.5049 24.0744C65.7812 23.6483 66.2021 23.415 66.7935 23.415C67.3849 23.415 67.7763 23.6494 68.0563 24.0744C68.2421 24.3552 68.3232 24.7281 68.3535 25.1456L65.1249 25.1451L65.1392 25.1456ZM69.6249 24.1954C69.5115 23.7663 69.2306 23.3315 69.0478 23.1328C68.7563 22.8189 68.4735 22.5972 68.1906 22.4763C67.7823 22.3013 67.343 22.2114 66.8992 22.2122C66.3363 22.2122 65.8249 22.3081 65.4106 22.5031C64.9963 22.6994 64.6478 22.9667 64.3735 23.3007C64.0995 23.6347 63.8935 24.0292 63.7621 24.4813C63.6306 24.9277 63.5644 25.4172 63.5644 25.9298C63.5644 26.4538 63.6332 26.9405 63.7686 27.3811C63.9055 27.8245 64.1258 28.2133 64.4229 28.5358C64.7201 28.8612 65.1001 29.1146 65.5572 29.2931C66.0115 29.4702 66.5629 29.5621 67.1943 29.56C68.4972 29.5557 69.1829 29.2634 69.4629 29.1051C69.5129 29.0769 69.5601 29.0282 69.5012 28.888L69.2069 28.0558C69.1618 27.9316 69.0372 27.9766 69.0372 27.9766C68.7143 28.0981 68.2572 28.3164 67.1858 28.3135C66.4858 28.3123 65.9686 28.1041 65.6429 27.7779C65.3115 27.4438 65.1458 26.9572 65.1201 26.2661L69.6343 26.2695C69.6343 26.2695 69.7532 26.2684 69.7655 26.1515C69.7703 26.1031 69.9201 25.2185 69.6309 24.1962L69.6249 24.1954ZM29.0535 25.1456C29.1172 24.7137 29.2349 24.3538 29.4192 24.0744C29.6958 23.6483 30.1164 23.415 30.7078 23.415C31.2992 23.415 31.6906 23.6494 31.9706 24.0744C32.1561 24.3552 32.2372 24.7281 32.2678 25.1456L29.0392 25.1451L29.0535 25.1456ZM33.5392 24.1954C33.4261 23.7663 33.1449 23.3315 32.9621 23.1328C32.6706 22.8189 32.3878 22.5972 32.1049 22.4763C31.6966 22.3013 31.2572 22.2114 30.8135 22.2122C30.2506 22.2122 29.7392 22.3081 29.3249 22.5031C28.9106 22.6994 28.5621 22.9667 28.2878 23.3007C28.0144 23.6347 27.8078 24.0292 27.6764 24.4813C27.5452 24.9277 27.4792 25.4172 27.4792 25.9298C27.4792 26.4538 27.5475 26.9405 27.6838 27.3811C27.8204 27.8245 28.0409 28.2133 28.3352 28.5358C28.6324 28.8612 29.0124 29.1146 29.4695 29.2931C29.9238 29.4702 30.4724 29.5621 31.1066 29.56C32.4095 29.5557 33.0952 29.2634 33.3752 29.1051C33.4249 29.0769 33.4724 29.0282 33.4132 28.888L33.1189 28.0558C33.0735 27.9316 32.9489 27.9766 32.9489 27.9766C32.6261 28.0981 32.1689 28.3164 31.0975 28.3135C30.4004 28.3123 29.8804 28.1041 29.5546 27.7779C29.2232 27.4438 29.0575 26.9572 29.0318 26.2661L33.5461 26.2695C33.5461 26.2695 33.6649 26.2684 33.6772 26.1515C33.6821 26.1031 33.8318 25.2185 33.5424 24.1962L33.5392 24.1954ZM19.3106 28.1116C19.1338 27.9694 19.1092 27.9345 19.0506 27.8421C18.9612 27.703 18.9155 27.5052 18.9155 27.2518C18.9155 26.8544 19.0469 26.5664 19.3184 26.3735C19.3155 26.3741 19.7069 26.0337 20.6269 26.0452C21.0364 26.0526 21.445 26.0877 21.8498 26.1503V28.215H21.8504C21.8504 28.215 21.2789 28.3391 20.6332 28.3783C19.7161 28.4338 19.3104 28.1122 19.3132 28.1131L19.3106 28.1116ZM21.1049 24.9153C20.9221 24.9017 20.6849 24.8951 20.4021 24.8951C20.0164 24.8951 19.6421 24.9435 19.2935 25.0385C18.9421 25.1341 18.6249 25.2821 18.3535 25.4791C18.0813 25.6748 17.8575 25.931 17.6992 26.2278C17.5395 26.5273 17.4581 26.8786 17.4581 27.276C17.4581 27.6791 17.5275 28.0275 17.6646 28.3126C17.799 28.5954 18.0013 28.8399 18.2532 29.0239C18.5038 29.2076 18.8132 29.3435 19.1704 29.4241C19.5246 29.5056 19.9246 29.5468 20.3646 29.5468C20.8275 29.5468 21.2875 29.5076 21.7332 29.4319C22.1128 29.3659 22.491 29.2918 22.8675 29.2096C23.0178 29.1748 23.1846 29.129 23.1846 29.129C23.2961 29.1005 23.2875 28.9804 23.2875 28.9804L23.2849 24.8338C23.2849 23.9238 23.0438 23.2471 22.5678 22.8296C22.0935 22.4121 21.3992 22.2018 20.4992 22.2018C20.1621 22.2018 19.6164 22.2479 19.2906 22.3139C19.2906 22.3139 18.3078 22.5062 17.9021 22.8264C17.9021 22.8264 17.8129 22.8817 17.8615 23.007L18.1815 23.8709C18.2212 23.9829 18.3295 23.9446 18.3295 23.9446C18.3295 23.9446 18.3635 23.931 18.4035 23.9071C19.2692 23.432 20.3664 23.4464 20.3664 23.4464C20.8521 23.4464 21.2292 23.5458 21.4806 23.7401C21.7266 23.9305 21.8521 24.2181 21.8521 24.8228V25.0149C21.4664 24.9585 21.1092 24.9259 21.1092 24.9259L21.1049 24.9153ZM57.3906 22.5742C57.3971 22.559 57.4005 22.5426 57.4006 22.5261C57.4007 22.5096 57.3975 22.4932 57.3912 22.4779C57.3849 22.4627 57.3756 22.4488 57.3638 22.4373C57.3521 22.4257 57.3382 22.4166 57.3229 22.4106C57.2461 22.3812 56.8629 22.2998 56.5686 22.2813C56.0029 22.2456 55.6886 22.3418 55.4058 22.4697C55.1264 22.5966 54.8172 22.8008 54.6458 23.0369L54.6452 22.484C54.6452 22.408 54.5918 22.3467 54.5158 22.3467H53.3615C53.2866 22.3467 53.2323 22.408 53.2323 22.484V29.2511C53.2324 29.2876 53.2469 29.3227 53.2725 29.3485C53.2982 29.3744 53.3329 29.3889 53.3692 29.389H54.5521C54.5883 29.3889 54.6231 29.3744 54.6487 29.3485C54.6743 29.3226 54.6886 29.2876 54.6886 29.2511V25.8532C54.6886 25.3982 54.7384 24.9461 54.8375 24.661C54.9352 24.3791 55.0681 24.1542 55.2318 23.993C55.388 23.8372 55.5791 23.7216 55.7889 23.656C55.9859 23.5991 56.1897 23.5702 56.3946 23.5702C56.6304 23.5702 56.8889 23.6313 56.8889 23.6313C56.9758 23.6411 57.0241 23.5875 57.0535 23.5086C57.1309 23.301 57.3506 22.6793 57.3935 22.5555" fill="white"/>
<path fill-rule="evenodd" clip-rule="evenodd" d="M46.3431 19.451C46.1968 19.4065 46.0481 19.3709 45.8976 19.3445C45.6952 19.3104 45.4902 19.2944 45.285 19.2967C44.4699 19.2967 43.8273 19.5288 43.3762 19.9872C42.9282 20.4422 42.6233 21.1353 42.4705 22.0472L42.4153 22.3551H41.3922C41.3922 22.3551 41.2673 22.3499 41.241 22.4872L41.073 23.4317C41.0613 23.5222 41.0999 23.5786 41.2199 23.578H42.2159L41.2053 29.2632C41.1262 29.721 41.0356 30.0977 40.9353 30.3831C40.8365 30.6647 40.7399 30.8757 40.621 31.0289C40.5059 31.1772 40.3968 31.2864 40.2085 31.35C40.053 31.4027 39.8742 31.4269 39.6782 31.4269C39.569 31.4269 39.4239 31.4085 39.3168 31.3869C39.2096 31.3656 39.1539 31.3414 39.0736 31.3074C39.0736 31.3074 38.9568 31.2625 38.9108 31.3805C38.8733 31.477 38.6079 32.2127 38.5765 32.3037C38.5445 32.3936 38.5893 32.4644 38.6459 32.4849C38.7785 32.5327 38.877 32.5632 39.0576 32.6061C39.3085 32.6657 39.5199 32.6694 39.7179 32.6694C40.1328 32.6694 40.5108 32.6107 40.8242 32.4967C41.1396 32.3818 41.4142 32.1816 41.6571 31.9107C41.9196 31.6184 42.0848 31.3123 42.2428 30.8948C42.3991 30.481 42.5322 29.9672 42.6388 29.3686L43.6542 23.578H45.1388C45.1388 23.578 45.2639 23.5826 45.2899 23.4458L45.4579 22.5013C45.4696 22.4109 45.4313 22.3545 45.3108 22.3551H43.8699C43.8771 22.3222 43.9425 21.8114 44.1079 21.3305C44.1785 21.1252 44.3113 20.9596 44.4239 20.8459C44.529 20.7375 44.6585 20.6563 44.8013 20.6092C44.9579 20.5604 45.1212 20.5367 45.285 20.5389C45.4208 20.5389 45.5539 20.5553 45.6553 20.5766C45.7951 20.6066 45.8493 20.6224 45.8859 20.6334C46.0328 20.6786 46.0525 20.6348 46.0813 20.5631L46.4259 19.6094C46.4613 19.5069 46.3751 19.4637 46.3431 19.451ZM26.2076 29.2753C26.2076 29.3513 26.1539 29.4132 26.0785 29.4132H24.8833C24.8076 29.4132 24.7539 29.3513 24.7539 29.2753V19.5803C24.7539 19.5046 24.8076 19.4432 24.8833 19.4432H26.0785C26.1539 19.4432 26.2076 19.5046 26.2076 19.5803V29.2753Z" fill="white"/>
</g>
</svg>
