<svg width="881" height="772" viewBox="0 0 881 772" fill="none" xmlns="http://www.w3.org/2000/svg">
<path d="M802.411 231.846L803.764 230.042C613.017 84.834 355.081 60.7078 77.5281 161.948L78.2036 163.977C355.081 62.7371 612.341 86.8632 802.411 231.621V231.846ZM802.411 361.273L803.764 359.467C613.017 214.259 355.081 190.133 77.5281 291.372L78.2036 293.404C355.081 192.162 612.341 216.288 802.411 361.047V361.273Z" fill="#101216"/>
<path d="M802.411 468.15L803.764 466.344C613.017 321.138 355.081 297.01 77.5281 398.252L78.2036 400.281C355.081 299.039 612.341 323.167 802.411 467.924V468.15Z" fill="#101216"/>
<path d="M802.411 585.849L803.764 584.046C613.017 438.836 355.081 414.709 77.5281 515.95L78.2036 517.979C355.081 416.741 612.341 440.865 802.411 585.623V585.849Z" fill="#101216"/>
<path d="M802.411 704.452L803.764 702.646C613.017 557.439 355.081 533.312 77.5281 634.553L78.2036 636.583C355.081 535.341 612.341 559.469 802.411 704.226V704.452Z" fill="#101216"/>
<path d="M182.822 33.1997H185.078V642.67H182.822V33.1997ZM685.794 59.3211L688.047 59.3801L672.088 668.868L669.834 668.81L685.794 59.3211ZM438.996 33.2558L441.252 33.3148L425.291 642.802L423.039 642.744L438.996 33.2558Z" fill="#101216"/>
<path d="M385.969 135.567C372.892 237.709 351.924 325.419 352.826 406.592C358.914 400.956 444.365 380.212 476.832 382.015C523.056 384.27 556.425 419.672 607.155 432.073C557.326 326.324 625.643 5.01459 385.969 135.793V135.567Z" fill="white"/>
<path d="M609.184 433.65L606.929 432.975C584.382 427.336 565.217 417.416 546.728 407.496C523.957 395.544 502.311 384.044 476.832 382.916C445.492 381.339 359.589 401.858 353.727 407.27L351.924 409.073V406.592C351.249 352.025 360.717 293.404 370.637 231.395C375.597 200.73 380.783 168.938 385.067 135.567V134.89H385.743C443.689 103.098 486.755 95.6567 517.869 112.117C568.6 138.949 576.94 223.504 584.834 305.353C589.793 354.959 594.303 401.858 608.282 431.621L609.184 433.65ZM473 380.664C474.354 380.664 475.705 380.664 476.832 380.664C502.763 382.015 524.633 393.515 547.63 405.69C565.443 414.935 583.706 424.631 605.125 430.267C591.823 400.054 587.313 354.055 582.353 305.353C574.462 224.18 566.119 140.302 516.516 113.921C486.303 97.9118 443.915 105.127 386.871 136.018C382.589 169.163 377.403 200.73 372.666 231.395C362.746 292.499 353.501 350.448 353.953 404.339C367.706 397.573 440.306 380.438 473 380.438V380.664Z" fill="#101216"/>
<path d="M271.207 665.893C263.313 562.849 255.875 511.439 283.382 399.153C302.547 320.911 383.49 285.736 471.649 362.398C582.579 313.244 657.66 362.85 650.67 496.107C647.514 556.987 645.259 597.575 630.829 658.229L271.43 665.667L271.207 665.893Z" fill="#101216"/>
<path d="M433.317 371.642L438.277 256.425L511.329 253.268L506.596 368.485L433.317 371.642Z" fill="white"/>
<path d="M434.445 371.642L439.182 257.327L510.202 254.619L505.468 368.485L507.723 368.712L512.683 252.141L437.152 255.298L432.189 371.419L434.445 371.642Z" fill="#101216"/>
<path d="M532.976 587.878H535.231C532.3 550.673 538.837 513.245 554.17 479.198L552.14 478.296C536.808 512.567 530.045 550.45 532.976 587.878ZM547.856 166.232C553.494 160.369 563.188 159.017 570.63 162.624C578.068 166.007 583.028 173.673 584.608 181.79C585.962 189.907 584.156 198.25 580.55 205.465C576.265 213.808 569.502 221.023 561.159 225.307C552.816 229.591 542.67 230.719 533.877 227.788C545.151 209.524 550.786 187.878 548.082 166.232H547.856Z" fill="white"/>
<path d="M544.023 230.494C549.885 230.494 555.973 229.141 561.611 226.209C569.951 221.925 576.94 214.935 581.451 205.916C585.51 197.799 587.087 189.231 585.736 181.339C584.156 172.545 578.52 164.879 571.305 161.497C563.188 157.664 553.042 159.242 547.406 165.33L546.954 165.781V166.232C549.436 186.525 544.476 208.171 532.976 227.111L532.3 228.239L533.651 228.69C537.034 229.817 540.64 230.268 544.25 230.268L544.023 230.494ZM561.834 161.722C564.765 161.722 567.473 162.399 570.177 163.526C576.94 166.683 581.903 173.673 583.48 181.79C584.834 189.005 583.48 197.122 579.422 204.789C575.137 213.132 568.374 220.122 560.483 223.954C552.593 228.013 543.571 228.915 535.454 226.886C546.505 208.171 551.465 186.75 549.21 166.457C552.366 163.301 557.1 161.497 561.834 161.497V161.722Z" fill="#101216"/>
<path d="M549.209 138.949C551.688 183.819 545.377 248.082 505.468 277.619C484.949 292.725 457.445 293.401 436.474 278.97C392.057 248.757 392.509 173.898 398.371 127.675C399.498 118.204 403.104 108.96 408.743 101.068C452.934 39.9631 541.319 57.0997 549.436 138.949H549.209Z" fill="white"/>
<path d="M469.843 290.47C482.697 290.47 495.322 286.412 506.143 278.521C551.239 245.375 552.14 169.84 550.337 138.949C546.728 101.52 525.76 74.4624 494.646 65.8941C463.08 57.3258 429.035 71.0802 407.615 100.618C401.977 108.51 398.371 117.754 397.017 127.675C391.607 170.967 389.352 248.305 435.572 280.098C445.718 287.09 457.668 290.47 469.62 290.47H469.843ZM548.082 139.175C549.659 169.84 548.983 244.248 504.792 276.718C484.726 291.598 457.445 292.05 436.926 278.069C390.027 246.052 394.988 162.399 399.272 127.901C400.4 118.431 404.006 109.411 409.418 101.971C430.163 73.1095 463.306 60.0316 493.968 68.1488C524.183 76.2661 544.476 102.873 548.082 139.175Z" fill="#101216"/>
<path d="M455.415 200.28L456.54 198.25C452.934 196.221 449.551 193.515 446.846 190.359C457.445 183.819 464.883 172.546 466.686 160.144C468.715 147.518 464.883 133.989 456.317 124.293L454.511 125.871C462.628 135.116 466.237 147.743 464.208 159.919C462.178 172.095 454.737 182.918 444.365 189.231L443.24 189.908L443.915 190.81C446.846 194.643 450.678 198.025 455.189 200.28H455.415Z" fill="#101216"/>
<path d="M391.607 220.347C390.254 251.688 387.772 283.031 384.166 314.145L391.607 220.347Z" fill="white"/>
<path d="M385.294 314.145C388.9 283.031 391.381 251.462 392.735 220.347H390.48C389.126 251.462 386.647 283.031 383.038 313.922H385.294V314.145ZM434.897 177.957C431.035 177.957 427.908 174.828 427.908 170.967C427.908 167.107 431.035 163.978 434.897 163.978C438.756 163.978 441.886 167.107 441.886 170.967C441.886 174.828 438.756 177.957 434.897 177.957ZM496.676 177.957C492.814 177.957 489.686 174.828 489.686 170.967C489.686 167.107 492.814 163.978 496.676 163.978C500.534 163.978 503.665 167.107 503.665 170.967C503.665 174.828 500.534 177.957 496.676 177.957Z" fill="#101216"/>
<path d="M386.871 329.481C387.772 316.627 422.495 292.499 437.375 278.747C446.397 270.404 436.474 260.032 424.977 264.316C418.663 266.571 410.998 269.952 402.429 274.688C393.86 279.422 381.009 276.265 376.275 265.893C360.041 228.915 339.296 176.153 329.15 179.31C320.358 182.015 321.033 192.387 339.297 251.013C340.198 253.944 336.366 256.422 334.336 253.944C327.121 246.277 318.329 224.631 304.124 227.788C296.007 229.817 299.39 245.375 307.507 256.648C308.183 257.776 306.153 258.678 305.478 257.776C296.909 241.767 287.664 236.356 281.576 240.64C272.784 247.178 278.646 255.747 288.116 268.601C289.244 269.952 286.762 272.433 285.861 270.853C276.616 254.393 268.276 249.433 262.412 254.619C250.915 265.218 285.185 304.901 297.81 316.401C310.438 327.901 321.712 342.558 330.73 353.605C331.858 354.959 333.661 355.185 335.238 354.281C348.541 345.036 381.461 333.536 383.038 332.412C384.618 331.284 385.294 331.733 385.743 331.284C386.195 330.832 386.871 329.93 386.871 329.255V329.481Z" fill="white"/>
<path d="M333.435 356.31C334.337 356.31 335.238 356.087 335.916 355.409C346.063 348.193 368.834 339.627 378.53 335.792C382.137 334.441 383.264 333.988 383.714 333.762C383.94 333.762 384.392 333.539 384.841 333.313C385.52 333.313 386.195 332.861 386.647 332.635C387.549 331.959 388.224 330.832 388.224 329.704C388.9 320.685 408.065 304.901 423.397 292.502C429.035 287.765 434.445 283.481 438.28 279.874C442.338 276.265 443.24 271.531 440.985 267.699C438.503 263.641 432.192 260.933 424.751 263.641C417.309 266.345 409.644 269.952 401.977 274.236C397.469 276.718 392.509 277.167 387.772 275.59C383.264 274.013 379.432 270.63 377.403 265.893C375.147 260.484 372.666 254.845 369.961 248.984C350.797 204.789 337.72 175.928 328.701 178.859C318.555 182.016 320.132 194.418 338.169 251.914C338.395 253.042 337.946 253.718 337.267 254.17C336.592 254.619 335.69 254.619 335.015 253.944C333.209 251.915 331.18 248.984 328.927 245.827C322.613 236.582 314.723 224.857 303.675 227.563C301.419 228.014 299.616 229.592 298.938 231.847C297.361 236.356 298.489 243.572 302.095 250.787C297.361 244.248 292.624 240.19 288.116 239.062C285.412 238.386 282.93 239.062 280.901 240.415C278.196 242.444 276.616 244.699 276.167 247.404C275.265 253.268 279.999 260.484 286.989 269.952C286.989 269.952 286.989 269.951 286.989 270.404C286.989 270.404 286.763 270.856 286.539 270.856C280.226 259.582 273.912 253.268 268.276 252.367C265.795 251.914 263.539 252.816 261.51 254.619C259.707 256.199 258.805 258.454 258.805 261.385C258.805 276.718 285.635 307.608 296.683 317.981C308.635 329.028 322.161 345.938 329.377 354.959C330.278 356.087 331.406 356.536 332.76 356.536L333.435 356.31ZM430.612 264.542C434.445 264.542 437.602 266.345 439.181 268.601C440.985 271.531 440.083 274.914 436.926 277.845C433.094 281.452 427.681 285.736 422.046 290.47C405.36 303.999 386.647 319.332 385.969 329.481C385.969 329.93 385.743 330.382 385.294 330.832C385.294 330.832 384.618 331.058 384.392 331.284C383.714 331.284 383.264 331.733 382.812 331.959C382.589 331.959 380.334 332.861 377.852 333.988C367.257 338.047 345.384 346.616 334.789 353.832C333.887 354.507 332.533 354.281 331.858 353.379C324.643 344.135 311.113 327.225 298.938 315.951C288.342 306.255 261.736 275.364 261.736 260.933C261.736 258.678 262.412 257.101 263.765 255.747C265.342 254.396 266.922 253.944 268.726 254.17C273.459 254.845 279.324 261.159 285.412 271.758C285.861 272.433 286.539 272.885 287.215 272.885C288.116 272.885 289.244 272.207 289.693 271.079C290.146 270.178 290.146 269.05 289.693 268.375C283.156 259.356 278.422 252.59 279.324 247.63C279.547 245.601 280.901 243.797 283.156 242.219C284.733 241.091 286.539 240.64 288.566 241.091C293.752 242.219 299.84 248.758 305.478 258.904C305.927 259.582 306.606 260.031 307.281 260.031C308.183 260.031 309.084 259.582 309.536 258.678C309.763 258.002 309.763 257.327 309.536 256.648C303.449 248.308 300.292 237.71 302.321 232.523C302.996 230.945 303.898 230.043 305.478 229.592C315.172 227.337 322.387 238.16 328.249 246.954C330.504 250.111 332.533 253.268 334.563 255.298C335.916 256.648 337.946 257.101 339.523 255.973C341.326 255.071 342.004 253.042 341.326 251.239C323.515 193.29 322.839 183.369 330.504 180.889C338.169 178.409 355.983 219.671 368.834 249.885C371.315 255.747 373.794 261.385 376.275 266.798C378.53 271.981 382.812 275.816 387.998 277.619C393.184 279.422 398.823 278.747 404.006 276.039C411.448 271.981 418.889 268.375 426.328 265.67C428.134 264.991 429.711 264.765 431.288 264.765L430.612 264.542Z" fill="#101216"/>
<path d="M537.26 608.397C524.859 549.998 507.723 516.402 489.234 478.746C443.24 385.85 405.812 331.959 400.4 330.156C381.235 324.292 311.792 359.919 314.044 367.135C339.523 456.424 371.99 543.009 417.083 654.62C438.955 708.734 458.12 744.361 520.8 752.026C559.356 756.763 616.624 714.598 630.829 657.55L537.483 608.397H537.26Z" fill="#101216"/>
<path d="M526.888 753.606C565.217 753.606 618.203 713.47 631.956 658.003L629.702 657.55C615.497 715.047 558.454 755.861 521.026 751.124C458.569 743.46 439.631 707.832 418.211 654.393C375.597 548.87 341.778 459.581 315.172 366.908C315.172 366.908 315.172 366.233 316.975 364.204C329.15 352.252 383.94 326.321 400.174 331.284C404.232 332.411 439.631 381.113 488.332 479.198L490.136 482.804C507.723 518.432 524.406 552.253 536.359 608.623L538.611 608.17C526.662 551.352 509.979 517.53 492.165 481.676L490.362 478.07C446.394 389.007 407.389 331.058 400.849 329.028C382.812 323.616 326.446 351.802 315.398 362.624C313.369 364.653 312.693 366.233 312.917 367.361C339.297 460.03 373.344 549.322 415.958 655.072C437.828 709.186 456.992 745.263 520.574 753.154C522.603 753.38 524.633 753.606 526.888 753.606ZM558.228 241.317C556.651 266.571 557.553 291.824 560.933 316.853L558.228 241.317Z" fill="white"/>
<path d="M559.805 317.079H562.06C558.68 291.824 557.776 266.571 559.356 241.317H557.1C555.523 266.345 556.425 292.05 559.805 317.079Z" fill="#101216"/>
<path d="M470.521 64.0902C466.237 121.362 431.514 136.018 385.52 137.822C385.52 85.7364 437.375 62.061 470.521 64.0902Z" fill="white"/>
<path d="M384.166 138.949V137.822C384.166 117.98 391.831 100.167 406.261 86.638C423.171 70.8546 448.2 61.61 470.521 62.9629H471.646V64.0903C466.912 127.224 425.426 137.371 385.294 138.949H384.166ZM466.463 64.9921C448.875 64.9921 425.2 71.982 407.841 88.2165C394.086 101.069 386.644 117.754 386.421 136.469C424.751 134.665 464.208 124.519 469.168 64.9921C468.266 64.9921 467.365 64.9921 466.463 64.9921Z" fill="#101216"/>
<path d="M456.54 64.0902C518.319 45.3754 556.199 93.8533 556.199 156.311C537.26 163.076 518.997 156.988 502.537 151.125C490.814 147.067 448.875 123.166 456.54 64.0902Z" fill="white"/>
<path d="M538.611 160.145C525.085 160.145 512.231 155.635 502.085 152.027C501.635 152.027 446.62 131.509 455.189 63.8647V63.1884H456.091C481.343 55.2967 504.114 58.4533 521.928 71.7564C544.249 88.442 557.1 119.107 557.1 156.311V157.213H556.425C550.337 159.693 544.249 160.595 538.388 160.595L538.611 160.145ZM457.445 64.7669C449.551 130.156 502.311 149.772 502.989 149.772C521.25 156.311 537.71 161.046 555.071 155.184C555.071 119.784 541.994 89.1186 520.8 73.3352C503.665 60.4829 481.792 57.5515 457.668 64.7669H457.445Z" fill="#101216"/>
<path d="M411.404 120.131L506.522 122.456C529.428 123.015 547.542 142.039 546.981 164.945L546.86 169.904C546.302 192.811 527.279 210.926 504.373 210.366L409.254 208.042C386.348 207.482 368.234 188.459 368.792 165.552L368.916 160.593C369.474 137.687 388.498 119.571 411.404 120.131Z" fill="#101216"/>
<path d="M524.183 194.417L513.135 131.959C512.683 129.93 513.359 128.351 514.712 127.9L554.17 117.303C555.973 116.852 558.002 118.881 558.903 121.587L566.794 147.292C567.247 149.095 567.247 150.674 566.571 151.576L530.271 198.926C528.691 201.181 524.859 198.475 524.183 194.417Z" fill="#101216"/>
<path d="M539.965 193.966C550.563 169.163 542.446 139.4 520.574 123.616L519.22 125.42C540.191 140.753 548.082 169.163 537.936 193.064L539.965 193.966ZM399.724 151.576C404.684 151.576 408.517 147.742 408.743 142.782C408.743 137.821 404.908 133.763 399.948 133.538C397.469 133.538 395.214 134.439 393.411 136.018C391.607 137.596 390.706 139.851 390.706 142.331C390.706 147.292 394.538 151.35 399.498 151.576C399.498 151.576 399.498 151.576 399.724 151.576ZM399.724 135.792C403.557 135.792 406.488 138.949 406.261 142.782C406.261 146.615 403.104 149.546 399.272 149.321C395.44 149.321 392.509 146.164 392.735 142.331C392.735 140.527 393.637 138.949 394.764 137.596C396.115 136.469 397.695 135.792 399.498 135.792H399.724ZM449.101 152.703C454.062 152.703 457.894 148.87 458.12 143.909C458.12 138.949 454.288 134.89 449.328 134.665C444.365 134.665 440.306 138.498 440.083 143.459C439.857 148.419 443.915 152.478 448.875 152.703C448.875 152.703 448.875 152.703 449.101 152.703ZM449.101 136.92C452.934 136.92 455.865 140.076 455.639 143.909C455.639 147.743 452.482 150.674 448.649 150.448C444.817 150.448 441.886 147.292 442.112 143.459C442.112 139.851 445.269 136.92 448.875 136.92H449.101ZM498.705 154.056C503.665 154.056 507.497 150.223 507.723 145.262C507.723 142.782 506.822 140.528 505.242 138.724C503.665 136.92 501.409 136.018 498.931 136.018C496.449 136.018 494.194 136.92 492.391 138.498C490.588 140.076 489.686 142.331 489.686 144.812C489.686 147.292 490.588 149.547 492.165 151.35C493.745 153.154 495.997 154.056 498.479 154.056C498.479 154.056 498.479 154.056 498.705 154.056ZM498.705 138.272C500.508 138.272 502.085 139.174 503.439 140.302C504.792 141.655 505.242 143.233 505.242 145.037C505.242 148.87 502.085 151.801 498.252 151.576C496.449 151.576 494.872 150.674 493.519 149.547C492.165 148.419 491.715 146.615 491.715 144.812C491.715 143.008 492.617 141.429 493.745 140.076C495.096 138.949 496.675 138.272 498.479 138.272H498.705ZM426.328 192.613C428.583 192.613 430.838 191.711 432.641 190.133C434.445 188.554 435.346 186.3 435.346 183.819C435.346 181.339 434.445 179.084 432.868 177.28C431.288 175.477 429.035 174.574 426.554 174.574C421.594 174.574 417.535 178.408 417.309 183.368C417.309 185.849 418.211 188.103 419.791 189.907C421.368 191.711 423.623 192.613 426.104 192.613C426.104 192.613 426.104 192.613 426.328 192.613ZM426.328 176.829C428.134 176.829 429.711 177.731 431.064 178.858C432.415 179.986 432.868 181.79 432.868 183.593C432.868 185.397 431.966 186.976 430.838 188.329C429.485 189.682 427.908 190.358 426.104 190.133C424.298 190.133 422.721 189.231 421.368 188.103C420.017 186.75 419.564 185.172 419.564 183.368C419.564 179.761 422.721 176.829 426.328 176.829ZM475.255 193.74C477.511 193.74 479.763 192.838 481.569 191.26C483.372 189.682 484.274 187.427 484.274 184.947C484.274 182.467 483.372 180.212 481.792 178.408C480.215 176.604 477.96 175.702 475.482 175.702C470.522 175.702 466.463 179.535 466.237 184.496C466.237 189.456 470.069 193.515 475.029 193.74C475.029 193.74 475.029 193.74 475.255 193.74ZM475.255 177.957C477.059 177.957 478.638 178.859 479.989 179.986C481.343 181.339 481.792 182.917 481.792 184.721C481.792 186.525 480.891 188.104 479.763 189.457C478.638 190.809 476.832 191.26 475.029 191.26C471.197 191.26 468.266 188.104 468.492 184.27C468.492 180.663 471.646 177.732 475.255 177.732V177.957Z" fill="white"/>
<path d="M457.218 235.68C463.532 235.68 470.069 233.65 475.029 229.817L473.678 228.013C468.04 232.298 460.599 234.327 453.609 233.2C446.62 232.072 440.083 228.013 435.798 222.376L433.995 223.729C438.503 230.043 445.492 234.327 453.16 235.454C454.511 235.454 455.865 235.68 457.218 235.68ZM507.271 349.773C507.271 349.773 458.569 370.065 433.769 338.725C431.514 354.733 427.006 379.762 450.229 381.113C469.843 384.496 492.843 389.456 510.428 377.507C520.125 370.967 507.271 349.999 507.271 349.999V349.773Z" fill="#101216"/>
<path d="M482.697 386.073C492.843 386.073 502.537 384.27 511.103 378.408C521.702 371.193 508.851 350.222 508.173 349.321L507.723 348.419L506.822 348.871C506.37 348.871 458.569 368.485 434.671 338.047L433.094 336.018L432.415 340.978C430.838 352.704 428.809 367.361 435.799 375.927C438.955 379.762 443.915 382.015 450.452 382.467L454.737 383.142C463.756 384.722 473.452 386.299 482.92 386.299L482.697 386.073ZM506.822 351.124C509.074 354.959 517.643 371.193 509.979 376.379C494.194 387.201 473.452 383.821 455.189 380.664L450.679 379.985C444.591 379.536 440.532 377.733 437.602 374.35C431.288 366.682 433.094 352.704 434.671 341.43C458.12 368.262 500.056 353.831 506.822 351.35V351.124ZM481.569 60.0318C481.569 60.0318 471.646 74.2367 471.646 88.442C471.646 102.647 479.989 121.813 479.989 121.813L429.259 120.46C429.259 120.46 430.386 107.608 434.671 89.3438C437.602 76.717 446.171 65.2176 446.171 65.2176C446.171 65.2176 452.934 60.0318 463.529 58.6789C475.931 57.1007 481.569 59.8063 481.569 59.8063V60.0318Z" fill="#101216"/>
<path d="M482.019 123.166L480.891 121.362C480.891 121.362 472.774 107.833 472.774 88.442C472.774 69.0506 482.245 60.7078 482.471 60.7078L483.146 59.5804L482.019 58.9041C481.792 58.9041 475.931 55.9727 463.306 57.7767C452.708 59.1296 445.718 64.3155 445.492 64.541H445.269C444.817 65.2176 436.474 76.4915 433.543 89.1183C429.258 107.382 428.131 120.46 428.131 120.46V121.587L482.019 122.94V123.166ZM479.763 60.7078C477.285 64.541 470.522 76.266 470.522 88.6672C470.522 101.069 475.705 116.627 477.96 120.911L430.612 119.784C431.064 116.176 432.415 104.902 435.798 90.0202C438.503 78.5208 445.945 67.9232 447.072 66.5706C447.974 65.894 454.511 61.6097 463.755 60.257C472.325 59.1296 477.734 60.257 479.763 60.9333V60.7078Z" fill="#101216"/>
<path d="M481.343 121.813V119.558C458.346 116.852 445.718 115.95 427.455 118.205V120.46C445.718 118.205 458.346 119.107 481.343 121.813ZM448.423 110.087L450.452 109.185C446.171 98.5879 446.394 77.1679 465.109 64.9922L463.755 63.1885C444.141 76.266 443.915 99.039 448.423 110.313V110.087ZM546.053 153.606L562.06 147.292L555.071 129.479L539.063 135.793L546.053 153.606ZM559.13 146.165L547.406 150.674L541.994 137.145L553.717 132.636L559.13 146.165ZM541.093 347.518C530.509 347.518 521.928 338.937 521.928 328.353C521.928 317.766 530.509 309.185 541.093 309.185C551.676 309.185 560.257 317.766 560.257 328.353C560.257 338.937 551.676 347.518 541.093 347.518Z" fill="white"/>
<path d="M541.093 348.871C552.367 348.871 561.385 339.85 561.385 328.576C561.385 317.302 552.367 308.284 541.093 308.284C529.819 308.284 520.8 317.302 520.8 328.576C520.8 339.85 529.819 348.871 541.093 348.871ZM541.093 310.539C551.013 310.539 559.13 318.656 559.13 328.576C559.13 338.499 551.013 346.616 541.093 346.616C531.173 346.616 523.056 338.499 523.056 328.576C523.056 318.656 531.173 310.539 541.093 310.539Z" fill="#101216"/>
<path d="M541.093 347.518C530.509 347.518 521.928 338.937 521.928 328.353C521.928 317.766 530.509 309.185 541.093 309.185C551.676 309.185 560.257 317.766 560.257 328.353C560.257 338.937 551.676 347.518 541.093 347.518Z" fill="white"/>
<path d="M541.093 348.871C552.367 348.871 561.385 339.85 561.385 328.576C561.385 317.302 552.367 308.284 541.093 308.284C529.819 308.284 520.8 317.302 520.8 328.576C520.8 339.85 529.819 348.871 541.093 348.871ZM541.093 310.539C551.013 310.539 559.13 318.656 559.13 328.576C559.13 338.499 551.013 346.616 541.093 346.616C531.173 346.616 523.056 338.499 523.056 328.576C523.056 318.656 531.173 310.539 541.093 310.539Z" fill="#101216"/>
<path d="M631.956 390.81C621.372 390.81 612.791 382.229 612.791 371.645C612.791 361.059 621.372 352.478 631.956 352.478C642.541 352.478 651.121 361.059 651.121 371.645C651.121 382.229 642.541 390.81 631.956 390.81Z" fill="white"/>
<path d="M631.956 391.938C643.229 391.938 652.248 382.919 652.248 371.642C652.248 360.369 643.229 351.35 631.956 351.35C620.683 351.35 611.664 360.369 611.664 371.642C611.664 382.919 620.683 391.938 631.956 391.938ZM631.956 353.605C641.877 353.605 649.994 361.722 649.994 371.642C649.994 381.565 641.877 389.682 631.956 389.682C622.036 389.682 613.919 381.565 613.919 371.642C613.919 361.722 622.036 353.605 631.956 353.605Z" fill="#101216"/>
<path d="M539.513 423.052C528.929 423.052 520.348 414.474 520.348 403.887C520.348 393.303 528.929 384.722 539.513 384.722C550.099 384.722 558.68 393.303 558.68 403.887C558.68 414.474 550.099 423.052 539.513 423.052Z" fill="white"/>
<path d="M539.513 424.179C550.787 424.179 559.805 415.161 559.805 403.887C559.805 392.613 550.787 383.595 539.513 383.595C528.242 383.595 519.223 392.613 519.223 403.887C519.223 415.161 528.242 424.179 539.513 424.179ZM539.513 385.85C549.436 385.85 557.553 393.967 557.553 403.887C557.553 413.807 549.436 421.927 539.513 421.927C529.593 421.927 521.476 413.807 521.476 403.887C521.476 393.967 529.593 385.85 539.513 385.85Z" fill="#101216"/>
<path d="M586.637 531.283C576.054 531.283 567.473 522.702 567.473 512.118C567.473 501.531 576.054 492.953 586.637 492.953C597.221 492.953 605.802 501.531 605.802 512.118C605.802 522.702 597.221 531.283 586.637 531.283Z" fill="white"/>
<path d="M586.637 532.41C597.91 532.41 606.929 523.392 606.929 512.118C606.929 500.844 597.91 491.825 586.637 491.825C575.364 491.825 566.345 500.844 566.345 512.118C566.345 523.392 575.364 532.41 586.637 532.41ZM586.637 494.078C596.558 494.078 604.674 502.195 604.674 512.118C604.674 522.038 596.558 530.155 586.637 530.155C576.717 530.155 568.6 522.038 568.6 512.118C568.6 502.195 576.717 494.078 586.637 494.078Z" fill="#101216"/>
<path d="M567.473 646.729C556.889 646.729 548.308 638.148 548.308 627.564C548.308 616.977 556.889 608.396 567.473 608.396C578.056 608.396 586.637 616.977 586.637 627.564C586.637 638.148 578.056 646.729 567.473 646.729Z" fill="white"/>
<path d="M567.473 647.856C578.746 647.856 587.764 638.838 587.764 627.564C587.764 616.287 578.746 607.269 567.473 607.269C556.199 607.269 547.18 616.287 547.18 627.564C547.18 638.838 556.199 647.856 567.473 647.856ZM567.473 609.524C577.393 609.524 585.51 617.641 585.51 627.564C585.51 637.484 577.393 645.601 567.473 645.601C557.553 645.601 549.436 637.484 549.436 627.564C549.436 617.641 557.553 609.524 567.473 609.524Z" fill="#101216"/>
<path d="M517.191 726.098C506.607 726.098 498.026 717.517 498.026 706.93C498.026 696.347 506.607 687.766 517.191 687.766C527.778 687.766 536.359 696.347 536.359 706.93C536.359 717.517 527.778 726.098 517.191 726.098Z" fill="white"/>
<path d="M517.194 727.226C528.465 727.226 537.483 718.204 537.483 706.931C537.483 695.657 528.465 686.638 517.194 686.638C505.92 686.638 496.902 695.657 496.902 706.931C496.902 718.204 505.92 727.226 517.194 727.226ZM517.194 688.894C527.114 688.894 535.231 697.011 535.231 706.931C535.231 716.854 527.114 724.971 517.194 724.971C507.271 724.971 499.154 716.854 499.154 706.931C499.154 697.011 507.271 688.894 517.194 688.894Z" fill="#101216"/>
<path d="M457.445 590.586C446.858 590.586 438.277 582.005 438.277 571.418C438.277 560.834 446.858 552.253 457.445 552.253C468.028 552.253 476.609 560.834 476.609 571.418C476.609 582.005 468.028 590.586 457.445 590.586Z" fill="white"/>
<path d="M457.445 591.71C468.715 591.71 477.734 582.692 477.734 571.418C477.734 560.144 468.715 551.125 457.445 551.125C446.171 551.125 437.152 560.144 437.152 571.418C437.152 582.692 446.171 591.71 457.445 591.71ZM457.445 553.381C467.365 553.381 475.482 561.498 475.482 571.418C475.482 581.341 467.365 589.458 457.445 589.458C447.522 589.458 439.405 581.341 439.405 571.418C439.405 561.498 447.522 553.381 457.445 553.381Z" fill="#101216"/>
<path d="M408.743 471.982C398.156 471.982 389.578 463.402 389.578 452.818C389.578 442.231 398.156 433.65 408.743 433.65C419.327 433.65 427.908 442.231 427.908 452.818C427.908 463.402 419.327 471.982 408.743 471.982Z" fill="white"/>
<path d="M408.743 473.11C420.017 473.11 429.035 464.092 429.035 452.818C429.035 441.544 420.017 432.522 408.743 432.522C397.469 432.522 388.451 441.544 388.451 452.818C388.451 464.092 397.469 473.11 408.743 473.11ZM408.743 434.778C418.663 434.778 426.78 442.895 426.78 452.818C426.78 462.738 418.663 470.855 408.743 470.855C398.823 470.855 390.706 462.738 390.706 452.818C390.706 442.895 398.823 434.778 408.743 434.778Z" fill="#101216"/>
<path d="M290.595 366.682C280.011 366.682 271.43 358.101 271.43 347.518C271.43 336.931 280.011 328.353 290.595 328.353C301.182 328.353 309.763 336.931 309.763 347.518C309.763 358.101 301.182 366.682 290.595 366.682Z" fill="white"/>
<path d="M290.595 368.036C301.869 368.036 310.887 359.018 310.887 347.744C310.887 336.47 301.869 327.448 290.595 327.448C279.324 327.448 270.305 336.47 270.305 347.744C270.305 359.018 279.324 368.036 290.595 368.036ZM290.595 329.704C300.518 329.704 308.635 337.821 308.635 347.744C308.635 357.664 300.518 365.781 290.595 365.781C280.675 365.781 272.558 357.664 272.558 347.744C272.558 337.821 280.675 329.704 290.595 329.704Z" fill="#101216"/>
<path d="M263.992 452.818C253.405 452.818 244.827 444.237 244.827 433.65C244.827 423.066 253.405 414.485 263.992 414.485C274.575 414.485 283.156 423.066 283.156 433.65C283.156 444.237 274.575 452.818 263.992 452.818Z" fill="white"/>
<path d="M263.992 453.942C275.265 453.942 284.284 444.924 284.284 433.65C284.284 422.376 275.265 413.358 263.992 413.358C252.718 413.358 243.699 422.376 243.699 433.65C243.699 444.924 252.718 453.942 263.992 453.942ZM263.992 415.613C273.912 415.613 282.029 423.73 282.029 433.65C282.029 443.573 273.912 451.69 263.992 451.69C254.072 451.69 245.955 443.573 245.955 433.65C245.955 423.73 254.072 415.613 263.992 415.613Z" fill="#101216"/>
<path d="M350.57 635.904C339.987 635.904 331.406 627.323 331.406 616.739C331.406 606.156 339.987 597.575 350.57 597.575C361.154 597.575 369.735 606.156 369.735 616.739C369.735 627.323 361.154 635.904 350.57 635.904Z" fill="white"/>
<path d="M350.57 637.032C361.844 637.032 370.863 628.013 370.863 616.74C370.863 605.466 361.844 596.447 350.57 596.447C339.297 596.447 330.278 605.466 330.278 616.74C330.278 628.013 339.297 637.032 350.57 637.032ZM350.57 598.703C360.49 598.703 368.607 606.82 368.607 616.74C368.607 626.66 360.49 634.78 350.57 634.78C340.65 634.78 332.533 626.66 332.533 616.74C332.533 606.82 340.65 598.703 350.57 598.703Z" fill="#101216"/>
<path d="M319.004 523.841C308.421 523.841 299.84 515.26 299.84 504.676C299.84 494.093 308.421 485.512 319.004 485.512C329.591 485.512 338.169 494.093 338.169 504.676C338.169 515.26 329.591 523.841 319.004 523.841Z" fill="white"/>
<path d="M319.004 524.969C330.278 524.969 339.297 515.95 339.297 504.676C339.297 493.403 330.278 484.384 319.004 484.384C307.733 484.384 298.712 493.403 298.712 504.676C298.712 515.95 307.733 524.969 319.004 524.969ZM319.004 486.636C328.927 486.636 337.044 494.756 337.044 504.676C337.044 514.596 328.927 522.713 319.004 522.713C309.084 522.713 300.967 514.596 300.967 504.676C300.967 494.756 309.084 486.636 319.004 486.636Z" fill="#101216"/>
<path d="M250.915 571.418C240.328 571.418 231.75 562.837 231.75 552.253C231.75 541.667 240.328 533.086 250.915 533.086C261.498 533.086 270.079 541.667 270.079 552.253C270.079 562.837 261.498 571.418 250.915 571.418Z" fill="white"/>
<path d="M250.915 572.546C262.188 572.546 271.207 563.527 271.207 552.253C271.207 540.979 262.188 531.958 250.915 531.958C239.641 531.958 230.622 540.979 230.622 552.253C230.622 563.527 239.641 572.546 250.915 572.546ZM250.915 534.213C260.835 534.213 268.952 542.33 268.952 552.253C268.952 562.173 260.835 570.29 250.915 570.29C240.995 570.29 232.878 562.173 232.878 552.253C232.878 542.33 240.995 534.213 250.915 534.213Z" fill="#101216"/>
<path d="M250.915 665.893C240.328 665.893 231.75 657.312 231.75 646.729C231.75 636.142 240.328 627.564 250.915 627.564C261.498 627.564 270.079 636.142 270.079 646.729C270.079 657.312 261.498 665.893 250.915 665.893Z" fill="white"/>
<path d="M250.915 667.021C262.188 667.021 271.207 658.003 271.207 646.729C271.207 635.455 262.188 626.437 250.915 626.437C239.641 626.437 230.622 635.455 230.622 646.729C230.622 658.003 239.641 667.021 250.915 667.021ZM250.915 628.689C260.835 628.689 268.952 636.809 268.952 646.729C268.952 656.649 260.835 664.766 250.915 664.766C240.995 664.766 232.878 656.649 232.878 646.729C232.878 636.809 240.995 628.689 250.915 628.689Z" fill="#101216"/>
<path d="M661.267 485.512C650.683 485.512 642.102 476.931 642.102 466.344C642.102 455.76 650.683 447.179 661.267 447.179C671.852 447.179 680.432 455.76 680.432 466.344C680.432 476.931 671.852 485.512 661.267 485.512Z" fill="white"/>
<path d="M661.267 486.639C672.541 486.639 681.56 477.618 681.56 466.344C681.56 455.07 672.541 446.052 661.267 446.052C649.994 446.052 640.975 455.07 640.975 466.344C640.975 477.618 649.994 486.639 661.267 486.639ZM661.267 448.307C671.188 448.307 679.305 456.424 679.305 466.344C679.305 476.267 671.188 484.384 661.267 484.384C651.347 484.384 643.23 476.267 643.23 466.344C643.23 456.424 651.347 448.307 661.267 448.307Z" fill="#101216"/>
<path d="M650.896 607.046C640.311 607.046 631.731 598.465 631.731 587.878C631.731 577.294 640.311 568.713 650.896 568.713C661.48 568.713 670.06 577.294 670.06 587.878C670.06 598.465 661.48 607.046 650.896 607.046Z" fill="white"/>
<path d="M650.896 608.17C662.169 608.17 671.188 599.152 671.188 587.878C671.188 576.604 662.169 567.586 650.896 567.586C639.622 567.586 630.603 576.604 630.603 587.878C630.603 599.152 639.622 608.17 650.896 608.17ZM650.896 569.841C660.816 569.841 668.933 577.958 668.933 587.878C668.933 597.798 660.816 605.918 650.896 605.918C640.975 605.918 632.858 597.798 632.858 587.878C632.858 577.958 640.975 569.841 650.896 569.841Z" fill="#101216"/>
<path d="M612.791 736.018C602.207 736.018 593.627 727.437 593.627 716.853C593.627 706.267 602.207 697.686 612.791 697.686C623.376 697.686 631.956 706.267 631.956 716.853C631.956 727.437 623.376 736.018 612.791 736.018Z" fill="white"/>
<path d="M612.791 737.146C624.065 737.146 633.084 728.127 633.084 716.853C633.084 705.58 624.065 696.558 612.791 696.558C601.518 696.558 592.499 705.58 592.499 716.853C592.499 728.127 601.518 737.146 612.791 737.146ZM612.791 698.813C622.712 698.813 630.829 706.93 630.829 716.853C630.829 726.773 622.712 734.89 612.791 734.89C602.871 734.89 594.754 726.773 594.754 716.853C594.754 706.93 602.871 698.813 612.791 698.813Z" fill="#101216"/>
</svg>
