<svg width="40" height="50" viewBox="0 0 40 50" fill="none" xmlns="http://www.w3.org/2000/svg">
<g clipPath="url(#clip0_1647_757)">
<path d="M36.8 12H3.2V10.5C3.2 9.83696 3.41071 9.20107 3.78579 8.73223C4.16086 8.26339 4.66957 8 5.2 8H34.8C35.3304 8 35.8391 8.26339 36.2142 8.73223C36.5893 9.20107 36.8 9.83696 36.8 10.5V12ZM38 14H2C1.46957 14 0.960859 14.2634 0.585786 14.7322C0.210714 15.2011 0 15.837 0 16.5L0 43.5C0 44.163 0.210714 44.7989 0.585786 45.2678C0.960859 45.7366 1.46957 46 2 46H38C38.5304 46 39.0391 45.7366 39.4142 45.2678C39.7893 44.7989 40 44.163 40 43.5V16.5C40 15.837 39.7893 15.2011 39.4142 14.7322C39.0391 14.2634 38.5304 14 38 14ZM33.6 4.5C33.6 3.83696 33.3893 3.20107 33.0142 2.73223C32.6391 2.26339 32.1304 2 31.6 2H8.4C7.86957 2 7.36086 2.26339 6.98579 2.73223C6.61071 3.20107 6.4 3.83696 6.4 4.5V6H33.6V4.5Z" fill="white"/>
</g>
<defs>
<clipPath id="clip0_1647_757">
<rect width="40" height="50" fill="white"/>
</clipPath>
</defs>
</svg>
