<svg width="116" height="37" viewBox="0 0 116 37" fill="none" xmlns="http://www.w3.org/2000/svg">
<path d="M17.7542 0C8.39608 0 0.728826 7.49595 0 17.0008L9.5622 21.1086C10.3785 20.5389 11.3405 20.2091 12.39 20.2091C12.4775 20.2091 12.565 20.2091 12.6816 20.2091L16.9088 13.8225C16.9088 13.7925 16.9088 13.7626 16.9088 13.7326C16.9088 9.89465 19.9407 6.74635 23.6431 6.74635C27.3456 6.74635 30.3483 9.86467 30.3483 13.7326C30.3483 17.5705 27.3456 20.7188 23.6431 20.7188C23.5848 20.7188 23.5265 20.7188 23.4974 20.7188L17.4335 25.1864C17.4335 25.2763 17.4335 25.3663 17.4335 25.4263C17.4335 28.3047 15.1596 30.6734 12.39 30.6734C9.94119 30.6734 7.90048 28.8744 7.43403 26.4757L0.612214 23.5373C2.74039 31.3031 9.59135 37 17.7542 37C27.6079 37 35.5667 28.7245 35.5667 18.5C35.5667 8.27553 27.6079 0 17.7542 0Z" fill="black"/>
<path d="M11.1657 28.0648L8.97925 27.1353C9.35824 27.9749 10.0288 28.6645 10.9325 29.0543C12.8566 29.8938 15.0722 28.9344 15.8885 26.9254C16.2675 25.966 16.2675 24.8865 15.8885 23.9271C15.5095 22.9676 14.7807 22.188 13.8478 21.7982C12.9149 21.4084 11.9237 21.4084 11.0491 21.7682L13.3231 22.7277C14.7516 23.3274 15.4221 25.0365 14.8099 26.5057C14.2268 27.9749 12.5942 28.6645 11.1657 28.0648Z" fill="black"/>
<path d="M20.2906 13.7326C20.2906 11.8136 21.8066 10.2545 23.6432 10.2545C25.509 10.2545 26.9958 11.8136 26.9958 13.7326C26.9958 15.6515 25.4799 17.2107 23.6432 17.2107C21.7774 17.2107 20.2906 15.6515 20.2906 13.7326ZM28.1037 13.7326C28.1037 11.1839 26.0921 9.08508 23.6141 9.08508C21.1361 9.08508 19.1245 11.1839 19.1245 13.7326C19.1245 16.2812 21.1361 18.3801 23.6141 18.3801C26.1212 18.3801 28.1037 16.2812 28.1037 13.7326Z" fill="black"/>
<path d="M54.283 12.8331L53.1169 14.9319C52.2131 14.2723 51.0178 13.8825 49.9683 13.8825C48.7731 13.8825 48.0151 14.3922 48.0151 15.3217C48.0151 16.4611 49.327 16.701 51.3094 17.4506C53.4375 18.2302 54.6328 19.1297 54.6328 21.1686C54.6328 23.9271 52.5338 25.4862 49.5602 25.4862C48.1025 25.4862 46.3242 25.0965 44.9832 24.2269L45.8286 21.8882C46.9364 22.4879 48.2483 22.8477 49.4144 22.8477C50.9887 22.8477 51.7467 22.248 51.7467 21.3485C51.7467 20.329 50.6097 20.0292 48.7439 19.3695C46.6449 18.6499 45.1872 17.6905 45.1872 15.4717C45.1872 12.953 47.1405 11.5138 49.91 11.5138C51.8633 11.5138 53.4375 12.1435 54.283 12.8331Z" fill="black"/>
<path d="M63.3496 14.1523V25.2463H60.6092V14.1523H56.6736V11.7236H67.2853V14.1523H63.3496Z" fill="black"/>
<path d="M73.0284 14.1523V17.2107H78.2759V19.6394H73.0284V22.7877H79.0922V25.2463H70.3171V11.7236H79.0922V14.1523H73.0284Z" fill="black"/>
<path d="M87.6924 14.9619L85.914 20.359H89.4999L87.6924 14.9619ZM85.1852 22.6378L84.3106 25.2763H81.4536L86.3222 11.7537H89.0626L94.0769 25.2763H91.1324L90.2578 22.6378H85.1852Z" fill="black"/>
<path d="M108.099 16.9708L104.543 24.8565H102.998L99.4993 17.0308V25.2463H96.8755V11.7236H99.4993L103.872 21.4983L108.099 11.7236H110.723V25.2463H108.099V16.9708Z" fill="black"/>
<path d="M113.872 13.3428H114.193C114.397 13.3428 114.513 13.2229 114.513 13.043C114.513 12.863 114.426 12.7731 114.193 12.7731H113.872V13.3428ZM114.222 12.4733C114.688 12.4733 114.834 12.7431 114.834 13.013C114.834 13.2528 114.688 13.4327 114.513 13.5227L114.922 14.3323H114.572L114.222 13.6126H113.872V14.3323H113.581V12.4733H114.222ZM112.677 13.4327C112.677 14.3922 113.347 15.0219 114.193 15.0219C115.009 15.0219 115.68 14.4222 115.68 13.4327C115.68 12.4733 115.009 11.8436 114.193 11.8436C113.376 11.8736 112.677 12.4733 112.677 13.4327ZM116 13.4327C116 14.6021 115.155 15.3217 114.193 15.3217C113.231 15.3217 112.385 14.6021 112.385 13.4327C112.385 12.2634 113.231 11.5438 114.193 11.5438C115.155 11.5438 116 12.2634 116 13.4327Z" fill="black"/>
</svg>
