<svg width="138" height="82" viewBox="0 0 138 82" fill="none" xmlns="http://www.w3.org/2000/svg">
<g clip-path="url(#clip0_1320_278)">
<path d="M0 11.1H10.9V38.6H17.5V11.1H28.4V5H0V11.1Z" fill="white"/>
<path d="M52.4 32.4H39.7V24.4H50.7V18.2H39.7V11.1H52.4V5H33.1V38.6H52.4V32.4Z" fill="white"/>
<path d="M73.1 33.1C67.1 33.1 63.1 28.3 63.1 21.8C63.1 15.3 67.1 10.6 73 10.6C77.5 10.6 80 12.6 81.2 15.9H88.4C86.6 9.09999 81.6 4.39999 73 4.39999C63.2 4.39999 56.2 11.7 56.2 21.8C56.2 31.9 63.2 39.3 73 39.3C81.6 39.3 86.7 34.8 88.5 27.5H81.5C80.5 30.7 77.8 33.1 73.1 33.1Z" fill="white"/>
<path d="M99.8 24.3H106.5V24.4H114.2V38.6H120.8V24.3H128.4C129.3 25.4 130.6 26.2 132.2 26.2C134.9 26.2 137.1 23.9 137.1 21.2C137.1 18.4 134.9 16.2 132.2 16.2C130.6 16.2 129.3 17 128.4 18.1H120.8V0H114.2V18.1H106.5H99.8V5H93.2V38.6H99.8V24.3Z" fill="white"/>
<path d="M0 53.3H10.9V80.8H17.5V53.3H28.4V47.2H0V53.3Z" fill="white"/>
<path d="M37.2 45.2C34.9 45.2 33 47 33 49.3C33 51.6 34.8 53.4 37.2 53.4C39.5 53.4 41.4 51.7 41.4 49.3C41.3 47 39.4 45.2 37.2 45.2Z" fill="white"/>
<path d="M40.2 56.5H34V80.8H40.2V56.5Z" fill="white"/>
<path d="M65.4 68.8L64.7 70.8L63.9 68.8L54.3 47.2H46.8V80.8H53.3V59.5L54.3 62.5L61.9 80.8H67.5L75.1 62.5L76.1 59.5V80.8H82.7V47.2H75.1L65.4 68.8Z" fill="white"/>
<path d="M89.5 80.8H108.8V74.6H96.1V66.6H107.1V60.4H96.1V53.3H108.8V47.2H89.5V80.8Z" fill="white"/>
<path d="M126 60.8C121.9 59.4 120.1 58.5 120.1 56C120.1 53.7 121.5 52.4 123.9 52.4C126.2 52.4 127.9 53.9 128 56.6H134.7C134.4 49.9 130.4 46.6 124.1 46.6C117.5 46.6 113.5 50.8 113.5 56.6C113.5 62.2 117.1 64.9 123.1 66.9C127.3 68.3 129 69.6 129 71.8C129 74 127.4 75.6 124.6 75.6C121.2 75.6 119.5 73.8 119.3 70.5H112.6C112.8 76.9 116.8 81.4 124.4 81.4C130.7 81.4 135.6 77.7 135.6 71.2C135.7 66.2 133.2 63.2 126 60.8Z" fill="white"/>
</g>
<defs>
<clipPath id="clip0_1320_278">
<rect width="137.1" height="81.4" fill="white"/>
</clipPath>
</defs>
</svg>
