<svg width="48" height="48" viewBox="0 0 48 48" fill="none" xmlns="http://www.w3.org/2000/svg">
<g filter="url(#filter0_d_3196_140)">
<rect x="4" y="1" width="40" height="40" rx="10" fill="white"/>
</g>
<path fill-rule="evenodd" clip-rule="evenodd" d="M24.3125 13.1875C24.2296 13.1875 24.1501 13.2204 24.0915 13.279C24.0329 13.3376 24 13.4171 24 13.5V24.125C24 24.9875 23.3 25.6875 22.4375 25.6875C21.575 25.6875 20.875 24.9875 20.875 24.125C20.875 23.2625 21.575 22.5625 22.4375 22.5625C22.5204 22.5625 22.5999 22.5296 22.6585 22.471C22.7171 22.4124 22.75 22.3329 22.75 22.25V19.75C22.75 19.6671 22.7171 19.5876 22.6585 19.529C22.5999 19.4704 22.5204 19.4375 22.4375 19.4375C19.85 19.4375 17.75 21.5378 17.75 24.125C17.75 26.7125 19.85 28.8125 22.4375 28.8125C25.0247 28.8125 27.125 26.7125 27.125 24.125V18.9669C27.8123 19.2779 28.5581 19.4384 29.3125 19.4375H29.9375C30.0204 19.4375 30.0999 19.4046 30.1585 19.346C30.2171 19.2874 30.25 19.2079 30.25 19.125V16.625C30.25 16.5421 30.2171 16.4626 30.1585 16.404C30.0999 16.3454 30.0204 16.3125 29.9375 16.3125H29.3125C28.1053 16.3125 27.125 15.3322 27.125 14.125V13.5C27.125 13.4171 27.0921 13.3376 27.0335 13.279C26.9749 13.2204 26.8954 13.1875 26.8125 13.1875H24.3125ZM24.625 13.8125H26.5V14.125C26.5 15.6772 27.7603 16.9375 29.3125 16.9375H29.625V18.8125H29.3125C28.4591 18.8125 27.6587 18.5844 26.9691 18.1847C26.9215 18.1572 26.8676 18.1427 26.8127 18.1426C26.7578 18.1426 26.7039 18.157 26.6563 18.1845C26.6088 18.2119 26.5693 18.2514 26.5418 18.2989C26.5144 18.3465 26.5 18.4004 26.5 18.4553V24.125C26.5 26.3672 24.6797 28.1875 22.4375 28.1875C20.1953 28.1875 18.375 26.3672 18.375 24.125C18.375 21.9881 20.0287 20.2344 22.125 20.0744V21.9597C21.0656 22.1116 20.25 23.0237 20.25 24.1253C20.25 25.3322 21.2303 26.3128 22.4375 26.3128C23.6447 26.3128 24.625 25.3322 24.625 24.1253V13.8125Z" fill="black"/>
<defs>
<filter id="filter0_d_3196_140" x="0" y="0" width="48" height="48" filterUnits="userSpaceOnUse" color-interpolation-filters="sRGB">
<feFlood flood-opacity="0" result="BackgroundImageFix"/>
<feColorMatrix in="SourceAlpha" type="matrix" values="0 0 0 0 0 0 0 0 0 0 0 0 0 0 0 0 0 0 127 0" result="hardAlpha"/>
<feOffset dy="3"/>
<feGaussianBlur stdDeviation="2"/>
<feComposite in2="hardAlpha" operator="out"/>
<feColorMatrix type="matrix" values="0 0 0 0 0 0 0 0 0 0 0 0 0 0 0 0 0 0 0.1 0"/>
<feBlend mode="normal" in2="BackgroundImageFix" result="effect1_dropShadow_3196_140"/>
<feBlend mode="normal" in="SourceGraphic" in2="effect1_dropShadow_3196_140" result="shape"/>
</filter>
</defs>
</svg>
