<svg width="89" height="23" viewBox="0 0 89 23" fill="none" xmlns="http://www.w3.org/2000/svg">
<path d="M14.9376 7.02436C16.6313 8.17758 18.7053 8.85616 20.9455 8.85616V5.62275C19.6951 5.36895 18.5881 4.74631 17.7557 3.88026C16.331 3.03316 15.3046 1.63567 15.0036 0H11.863V16.407C11.8559 18.3197 10.2268 19.8685 8.21781 19.8685C7.03395 19.8685 5.98221 19.3308 5.31612 18.4978C4.12668 17.9258 3.31101 16.7515 3.31101 15.3953C3.31101 13.4773 4.9428 11.9222 6.9561 11.9222C7.34184 11.9222 7.71363 11.9794 8.06238 12.0849V8.81609C3.73887 8.90121 0.261719 12.2673 0.261719 16.4071C0.261719 18.4736 1.12761 20.347 2.53296 21.7159C3.80079 22.527 5.32701 23.0001 6.96906 23.0001C11.37 23.0001 14.9377 19.6007 14.9377 15.4073V7.02436H14.9376Z" fill="black"/>
<path d="M26.9058 6.34198V9.07493H30.2637V19.4887H33.6231V9.14872H36.3566L37.2938 6.34207H26.9058V6.34198ZM54.3991 6.34198V9.07493H57.7571V19.4887H61.1165V9.14872H63.8499L64.787 6.34207H54.3991V6.34198ZM37.9192 7.89288C37.9192 7.03652 38.6524 6.34198 39.5581 6.34198C40.4647 6.34198 41.1987 7.03652 41.1987 7.89288C41.1987 8.74933 40.4652 9.44387 39.5581 9.44387C38.6524 9.44344 37.9192 8.74933 37.9192 7.89288ZM37.9192 10.552H41.1987V19.4887H37.9192V10.552ZM42.6048 6.34198V19.4886H45.8855V16.0915L46.901 15.2044L50.1029 19.5624H53.6174L49.0088 13.2107L53.1485 9.36965H49.1653L45.8855 12.4715V6.34198H42.6048ZM77.9862 6.34198V19.4886H81.2674V16.0915L82.2824 15.2044L85.4852 19.5624H89.0002L84.3916 13.2107L88.5311 9.36965H84.5481L81.2674 12.4715V6.34198H77.9862Z" fill="black"/>
<path d="M70.332 19.5625C73.481 19.5625 76.0343 17.1484 76.0343 14.1709C76.0343 11.1934 73.481 8.77893 70.332 8.77893H70.2542C67.1051 8.77893 64.5522 11.1933 64.5522 14.1709C64.5522 17.1484 67.1051 19.5625 70.2542 19.5625H70.332ZM67.5203 14.1709C67.5203 12.7225 68.7623 11.5493 70.2938 11.5493C71.8242 11.5493 73.0662 12.7225 73.0662 14.1709C73.0662 15.6192 71.8242 16.7931 70.2938 16.7931C68.7623 16.7929 67.5203 15.6192 67.5203 14.1709Z" fill="black"/>
</svg>
