<svg width="50" height="50" viewBox="0 0 50 50" fill="none" xmlns="http://www.w3.org/2000/svg">
<path fill-rule="evenodd" clip-rule="evenodd" d="M29.1666 23.7792L14.8354 38.1104C14.2395 38.7063 14.0625 39.6021 14.3854 40.3813C14.7062 41.1584 15.4666 41.6667 16.3083 41.6667C23.927 41.6667 34.0041 41.6667 39.5833 41.6667C40.1354 41.6667 40.6666 41.4479 41.0562 41.0563C41.4479 40.6667 41.6666 40.1354 41.6666 39.5834C41.6666 32.3688 41.6666 17.6313 41.6666 10.4167C41.6666 9.8646 41.4479 9.33335 41.0562 8.94377C40.6666 8.5521 40.1354 8.33335 39.5833 8.33335C32.3687 8.33335 17.6312 8.33335 10.4166 8.33335C9.26663 8.33335 8.33329 9.26669 8.33329 10.4167V31.25C8.33329 32.4 7.39996 33.3334 6.24996 33.3334C5.09996 33.3334 4.16663 32.4 4.16663 31.25C4.16663 31.25 4.16663 17.5292 4.16663 10.4167C4.16663 6.9646 6.96454 4.16669 10.4166 4.16669C17.6312 4.16669 32.3687 4.16669 39.5833 4.16669C41.2416 4.16669 42.8312 4.82502 44.002 5.99794C45.175 7.16877 45.8333 8.75835 45.8333 10.4167C45.8333 17.6313 45.8333 32.3688 45.8333 39.5834C45.8333 41.2417 45.175 42.8313 44.002 44.0021C42.8312 45.175 41.2416 45.8334 39.5833 45.8334C34.0041 45.8334 23.927 45.8334 16.3083 45.8334C13.7812 45.8334 11.502 44.3104 10.5354 41.975C9.56663 39.6396 10.102 36.9521 11.8895 35.1646L26.2208 20.8334H19.4645C18.3145 20.8334 17.3812 19.9 17.3812 18.75C17.3812 17.6 18.3145 16.6667 19.4645 16.6667H31.25C32.4 16.6667 33.3333 17.6 33.3333 18.75V30.5354C33.3333 31.6854 32.4 32.6188 31.25 32.6188C30.1 32.6188 29.1666 31.6854 29.1666 30.5354V23.7792Z" fill="white"/>
</svg>
