<svg width="890" height="814" viewBox="0 0 890 814" fill="none" xmlns="http://www.w3.org/2000/svg">
<path d="M229.377 436.765C130.21 436.765 49.8193 356.371 49.8193 257.198C49.8193 158.027 130.21 77.6335 229.377 77.6335C328.544 77.6335 408.934 158.027 408.934 257.198C408.934 356.371 328.544 436.765 229.377 436.765Z" fill="white"/>
<path d="M229.377 437.856C265.104 437.856 300.031 427.262 329.739 407.412C359.447 387.56 382.602 359.344 396.275 326.333C409.949 293.323 413.527 256.998 406.555 221.954C399.583 186.91 382.379 154.719 357.115 129.454C331.851 104.188 299.663 86.9822 264.618 80.0114C229.575 73.0406 193.254 76.6184 160.244 90.2921C127.234 103.965 99.0184 127.121 79.1684 156.83C59.3184 186.539 48.7244 221.468 48.7244 257.199C48.8401 305.077 67.9099 350.96 101.763 384.815C135.618 418.671 181.501 437.741 229.377 437.856ZM229.377 78.7274C264.671 78.7274 299.176 89.1944 328.526 108.805C357.872 128.416 380.748 156.289 394.255 188.901C407.762 221.512 411.296 257.397 404.41 292.017C397.524 326.636 380.528 358.439 355.57 383.397C330.611 408.356 298.811 425.355 264.193 432.24C229.572 439.126 193.691 435.593 161.081 422.086C128.471 408.575 100.597 385.702 80.9869 356.353C61.3773 327.004 50.9109 292.497 50.9109 257.199C50.9702 209.883 69.7907 164.522 103.246 131.064C136.701 97.607 182.061 78.7853 229.377 78.7274Z" fill="#101216"/>
<path d="M229.377 427.577C135.283 427.577 59.0041 351.298 59.0041 257.199C59.0041 163.101 135.283 86.8198 229.377 86.8198C323.471 86.8198 399.75 163.101 399.75 257.199C399.75 351.298 323.471 427.577 229.377 427.577Z" fill="#101216"/>
<path d="M229.377 403.956C148.327 403.956 82.6247 338.25 82.6247 257.199C82.6247 176.147 148.327 110.441 229.377 110.441C310.426 110.441 376.129 176.147 376.129 257.199C376.129 338.25 310.426 403.956 229.377 403.956Z" fill="white"/>
<path d="M229.377 404.831C258.625 404.831 287.218 396.154 311.536 379.9C335.853 363.642 354.805 340.538 365.989 313.508C377.17 286.48 380.086 256.741 374.364 228.055C368.641 199.368 354.538 173.024 333.839 152.356C313.141 131.687 286.779 117.623 258.085 111.942C229.392 106.263 199.657 109.221 172.645 120.446C145.634 131.67 122.559 150.654 106.34 174.997C90.1215 199.34 81.4886 227.947 81.5301 257.198C81.5894 296.373 97.1911 333.922 124.912 361.604C152.632 389.283 190.202 404.831 229.377 404.831ZM229.377 111.534C258.183 111.534 286.346 120.077 310.299 136.083C334.251 152.089 352.921 174.838 363.945 201.455C374.972 228.072 377.856 257.36 372.237 285.616C366.615 313.873 352.743 339.826 332.371 360.198C312.001 380.57 286.046 394.442 257.792 400.064C229.537 405.683 200.25 402.799 173.636 391.775C147.019 380.748 124.271 362.079 108.266 338.126C92.2605 314.17 83.7165 286.008 83.7165 257.198C83.7165 238.069 87.4842 219.128 94.8059 201.455C102.125 183.782 112.855 167.724 126.38 154.198C139.905 140.672 155.964 129.942 173.636 122.622C191.306 115.302 210.248 111.534 229.377 111.534Z" fill="#101216"/>
<path d="M229.377 355.184C175.265 355.184 131.397 311.313 131.397 257.198C131.397 203.083 175.265 159.214 229.377 159.214C283.489 159.214 327.357 203.083 327.357 257.198C327.357 311.313 283.489 355.184 229.377 355.184Z" fill="#101216"/>
<path d="M229.377 345.996C180.335 345.996 140.581 306.24 140.581 257.198C140.581 208.157 180.335 168.4 229.377 168.4C278.416 168.4 318.169 208.157 318.169 257.198C318.169 306.24 278.416 345.996 229.377 345.996Z" fill="white"/>
<path d="M229.377 347.091C247.156 347.091 264.535 341.819 279.318 331.94C294.097 322.064 305.62 308.023 312.423 291.599C319.225 275.173 321.005 257.099 317.537 239.662C314.069 222.224 305.507 206.207 292.938 193.636C280.365 181.064 264.351 172.502 246.913 169.034C229.478 165.566 211.405 167.346 194.978 174.149C178.555 180.953 164.513 192.475 154.637 207.257C144.761 222.04 139.49 239.42 139.49 257.198C139.49 281.039 148.959 303.902 165.816 320.762C182.672 337.619 205.537 347.091 229.377 347.091ZM229.377 169.494C246.723 169.494 263.677 174.638 278.101 184.275C292.522 193.912 303.763 207.609 310.402 223.635C317.039 239.661 318.777 257.296 315.392 274.309C312.007 291.322 303.656 306.949 291.392 319.216C279.125 331.48 263.499 339.835 246.485 343.22C229.475 346.602 211.841 344.866 195.815 338.227C179.789 331.59 166.092 320.347 156.456 305.926C146.82 291.502 141.676 274.545 141.676 257.198C141.676 233.938 150.917 211.63 167.361 195.182C183.809 178.734 206.118 169.494 229.377 169.494Z" fill="#101216"/>
<path d="M229.377 284.976C214.036 284.976 201.6 272.54 201.6 257.199C201.6 241.858 214.036 229.422 229.377 229.422C244.717 229.422 257.151 241.858 257.151 257.199C257.151 272.54 244.717 284.976 229.377 284.976Z" fill="#101216"/>
<path d="M229.377 268.572C223.096 268.572 218.003 263.48 218.003 257.199C218.003 250.917 223.096 245.826 229.377 245.826C235.657 245.826 240.748 250.917 240.748 257.199C240.748 263.48 235.657 268.572 229.377 268.572Z" fill="white"/>
<path d="M229.377 269.447C232.625 269.447 235.74 268.156 238.036 265.859C240.333 263.562 241.623 260.447 241.623 257.198C241.857 255.438 241.715 253.647 241.202 251.947C240.686 250.246 239.816 248.675 238.647 247.339C237.476 246.002 236.034 244.931 234.417 244.198C232.797 243.464 231.044 243.084 229.267 243.084C227.49 243.084 225.734 243.464 224.117 244.198C222.5 244.931 221.058 246.002 219.886 247.339C218.717 248.675 217.845 250.246 217.332 251.947C216.819 253.647 216.676 255.438 216.911 257.198C216.911 258.825 217.234 260.436 217.863 261.937C218.492 263.437 219.415 264.797 220.575 265.937C221.735 267.078 223.111 267.975 224.621 268.578C226.134 269.18 227.748 269.475 229.377 269.447ZM229.377 246.919C231.409 246.919 233.396 247.522 235.087 248.651C236.778 249.781 238.096 251.386 238.873 253.265C239.65 255.143 239.855 257.21 239.457 259.204C239.06 261.198 238.081 263.03 236.645 264.467C235.206 265.905 233.376 266.884 231.382 267.281C229.389 267.677 227.321 267.474 225.443 266.696C223.565 265.917 221.96 264.6 220.83 262.91C219.699 261.219 219.097 259.231 219.097 257.198C219.097 254.472 220.18 251.858 222.108 249.93C224.034 248.002 226.65 246.919 229.377 246.919ZM225.659 269.228L258.681 415.986H192.854L225.659 269.228Z" fill="#101216"/>
<path d="M236.156 264.854L363.224 345.341L316.641 391.926L236.156 264.854ZM240.528 254.356L387.281 221.548V287.382L240.528 254.356ZM236.156 243.857L316.641 116.784L363.224 163.37L236.156 243.857ZM225.659 239.702L192.854 92.7253H258.681L225.659 239.702ZM215.38 243.857L88.0922 163.37L134.678 116.784L215.38 243.857ZM211.004 254.356L64.2551 287.382V221.548L211.004 254.356ZM215.38 264.854L134.678 391.926L88.0922 345.341L215.38 264.854Z" fill="#101216"/>
<path d="M240.968 169.713L243.374 159.871L207.943 161.402L210.349 171.025L240.968 169.713ZM177.543 184.804L172.295 176.274L148.455 202.301L156.768 207.332L177.543 184.804ZM142.987 239.701L133.364 236.639L132.052 272.071L141.896 270.322L142.987 239.701ZM154.798 304.442L145.83 309.035L170.325 334.622L175.793 326.749L154.798 304.442ZM209.913 343.371L206.851 352.995L244.685 353.87L242.718 344.246L209.913 343.371ZM277.929 331.125L282.961 339.654L308.984 311.66L300.455 306.848L277.929 331.125ZM316.202 270.978L326.043 273.602L324.512 235.327L314.891 237.733L316.202 270.978ZM299.8 203.614L308.329 198.365L281.21 173.212L276.179 181.742L299.8 203.614ZM248.625 115.69L252.342 99.9426L195.257 102.348L198.977 117.658L248.625 115.69ZM145.83 139.968L137.3 126.188L98.5913 168.401L112.149 176.493L145.83 139.968ZM89.6231 229.422L74.0956 224.391L72.1257 281.695L87.8727 279.07L89.6231 229.422ZM108.871 334.186L94.435 341.624L134.022 383.178L142.987 370.056L108.871 334.186ZM198.319 397.177L193.29 412.705L254.528 414.455L251.464 398.708L198.319 397.177ZM308.548 377.274L316.858 391.271L358.851 345.78L345.071 337.903L308.548 377.274ZM370.661 279.945L386.408 283.882L384.002 221.986L368.691 226.141L370.661 279.945ZM343.979 170.588L357.976 162.058L313.796 121.377L305.703 135.156L343.979 170.588ZM445.896 453.167C444.365 443.538 440.455 434.442 434.522 426.702C433.688 425.313 432.543 424.135 431.175 423.263C429.811 422.391 428.259 421.845 426.648 421.673C423.367 421.673 420.961 424.515 419.43 427.36C417.446 431.116 416.609 435.376 417.024 439.607C417.137 442.069 418.149 444.404 419.869 446.169C421.305 446.976 422.854 447.566 424.462 447.919C431.692 449.302 438.844 451.052 445.896 453.167Z" fill="white"/>
<path d="M447.207 454.698V452.948C445.7 443.14 441.71 433.878 435.617 426.046C433.647 423.64 430.805 420.578 426.868 420.578C422.931 420.578 419.65 424.954 418.775 426.921C416.621 430.861 415.707 435.358 416.152 439.826C416.324 442.552 417.49 445.122 419.43 447.044C420.967 448.014 422.676 448.685 424.462 449.011C431.617 450.396 438.699 452.15 445.677 454.262L447.207 454.698ZM426.868 422.765C429.054 422.765 431.241 424.296 433.647 427.36C439.135 434.462 442.814 442.796 444.365 451.636C437.147 449.45 430.805 448.136 424.681 446.824C423.278 446.587 421.94 446.065 420.745 445.294C419.92 444.594 419.255 443.721 418.804 442.739C418.351 441.757 418.116 440.689 418.119 439.607C417.71 435.518 418.549 431.401 420.525 427.796C420.961 426.702 423.367 422.765 426.648 422.765H426.868ZM794.294 813.608C861.218 711.688 848.97 535.623 803.479 484.006C757.989 432.389 630.921 433.264 575.587 469.134C506.259 513.969 530.316 727.872 540.156 810.111" fill="#101216"/>
<path d="M642.293 459.074L642.949 396.519H713.372L712.497 458.854" fill="white"/>
<path d="M643.387 459.074L644.043 397.613H712.279L711.404 458.854H713.591L714.466 395.427H641.856L641.2 459.074H643.387Z" fill="#101216"/>
<path d="M748.146 296.348C753.395 290.443 762.799 289.349 770.016 292.63C773.587 294.376 776.684 296.957 779.045 300.155C781.406 303.354 782.96 307.074 783.576 311.002C784.873 318.928 783.569 327.063 779.858 334.186C775.792 342.436 769.204 349.177 761.049 353.434C752.891 357.667 743.418 358.605 734.586 356.056C745.624 338.218 750.396 317.205 748.146 296.348Z" fill="white"/>
<path d="M744.428 358.682C750.454 358.628 756.38 357.13 761.705 354.309C770.038 350.016 776.726 343.098 780.733 334.625C784.646 327.333 786.031 318.946 784.669 310.785C783.995 306.679 782.354 302.793 779.882 299.446C777.411 296.099 774.179 293.389 770.453 291.537C762.58 288.038 752.739 289.569 747.271 295.474L746.833 295.911V296.349C749.017 316.965 744.327 337.725 733.493 355.401L732.836 356.715L734.149 357.151C737.491 358.121 740.948 358.637 744.428 358.682ZM761.487 291.756C764.274 291.79 767.026 292.385 769.579 293.505C772.99 295.211 775.942 297.711 778.187 300.793C780.432 303.876 781.905 307.451 782.482 311.221C783.697 318.863 782.392 326.695 778.764 333.53C774.946 341.68 768.573 348.361 760.612 352.559C753.097 356.303 744.512 357.308 736.336 355.401C746.893 337.785 751.423 317.208 749.239 296.785C750.835 295.164 752.743 293.881 754.848 293.017C756.953 292.152 759.212 291.723 761.487 291.756Z" fill="#101216"/>
<path d="M749.239 269.884C751.864 313.407 746.177 375.743 707.685 404.612C698.131 411.886 686.541 415.986 674.539 416.339C662.538 416.692 650.726 413.28 640.761 406.582C597.457 377.49 597.457 304.878 602.706 260.042C603.771 250.75 607.156 241.875 612.548 234.233C654.977 174.743 740.71 190.49 749.239 269.884Z" fill="white"/>
<path d="M672.693 417.297C685.544 417.345 698.06 413.197 708.342 405.487C751.864 373.118 752.083 299.847 750.333 269.884C746.397 233.796 726.057 207.55 695.657 199.677C665.257 191.803 632.232 204.926 611.674 233.796C606.177 241.565 602.718 250.589 601.613 260.042C596.583 302.253 595.052 377.274 640.106 407.674C649.78 414.031 661.118 417.378 672.693 417.297ZM748.146 269.884C749.896 299.63 749.677 372.023 707.029 403.737C697.628 410.806 686.26 414.77 674.503 415.084C662.746 415.399 651.182 412.043 641.418 405.487C595.489 374.649 599.864 293.506 603.8 260.261C604.853 251.136 608.16 242.417 613.423 234.89C633.325 206.894 665.475 193.771 695.22 201.426C724.963 209.081 744.428 234.89 748.146 269.884Z" fill="#101216"/>
<path d="M658.695 330.03L659.57 328.063C655.969 326.144 652.775 323.545 650.166 320.406C655.275 317.196 659.624 312.912 662.909 307.851C666.195 302.79 668.339 297.073 669.193 291.1C670.154 284.92 669.752 278.605 668.014 272.598C666.276 266.59 663.245 261.036 659.133 256.324L657.383 257.855C661.351 262.281 664.289 267.532 665.986 273.23C667.683 278.927 668.097 284.929 667.198 290.806C666.299 296.682 664.109 302.286 660.786 307.216C657.463 312.144 653.089 316.276 647.979 319.314L646.885 319.97L647.76 320.845C650.665 324.693 654.404 327.835 658.695 330.03ZM646.448 359.557C663.043 359.341 679.017 353.214 691.502 342.279L690.19 340.748C678.014 351.253 662.529 357.139 646.448 357.371V359.557ZM374.097 431.353H549.723V463.69H374.097V431.353Z" fill="#101216"/>
<path d="M327.137 447.48L373.939 432.608V462.135L327.137 447.48Z" fill="white"/>
<path d="M374.097 463.942V431.353L322.483 447.756L374.097 463.942ZM371.91 434.415V460.881L329.917 447.756L371.91 434.415Z" fill="#101216"/>
<path d="M286.369 445.682L334.047 444.199V450.761L286.369 448.981V445.682Z" fill="#101216"/>
<path d="M478.262 430.858L509.756 397.177L566.402 394.771L549.56 430.858H478.262Z" fill="white"/>
<path d="M475.64 431.953H550.219L568.152 393.677L509.32 396.083L475.64 431.953ZM548.688 429.766H480.668L510.415 398.269L564.652 395.863L548.688 429.766Z" fill="#101216"/>
<path d="M478.262 463.447L509.756 496.911L566.402 499.533L549.56 463.447H478.262Z" fill="white"/>
<path d="M568.152 500.628L550.219 462.352H475.64L509.32 498.002L568.152 500.628ZM548.688 464.541L564.652 498.222L510.415 496.036L480.668 464.541H548.688Z" fill="#101216"/>
<path d="M478.262 447.48L509.756 440.046L566.402 439.606L549.56 447.48H478.262Z" fill="white"/>
<path d="M468.641 448.575H549.999L571.433 438.731L509.537 439.171L468.641 448.575ZM549.124 446.388H487.886L509.976 441.137L561.154 440.701L549.124 446.388Z" fill="#101216"/>
<path d="M391.001 431.297H422.275V463.381H391.001V431.297Z" fill="white"/>
<path d="M390.117 463.69H423.343V431.057H390.117V463.69ZM421.157 461.61H392.303V433.136H421.157V461.61ZM631.795 303.348C628.051 303.348 625.015 300.313 625.015 296.567C625.015 292.823 628.051 289.787 631.795 289.787C635.539 289.787 638.574 292.823 638.574 296.567C638.574 300.313 635.539 303.348 631.795 303.348Z" fill="#101216"/>
<path d="M487.886 479.194C443.706 425.39 312.485 448.136 453.114 483.131C442.615 480.944 418.338 472.632 415.713 489.912C415.277 495.597 417.244 503.909 423.586 504.784C410.465 504.565 402.152 523.157 412.432 531.686C400.185 528.844 394.937 546.558 404.997 551.37C419.43 557.932 452.239 580.678 469.516 589.865C473.014 590.082 483.73 590.082 485.7 587.24C532.721 519.876 561.37 555.962 487.886 479.194Z" fill="white"/>
<path d="M473.234 590.957C477.826 590.957 484.825 590.521 486.575 587.895C496.404 573.442 508.264 560.478 521.786 549.403C529.221 543.06 533.597 539.123 533.816 533.872C534.033 528.624 524.628 515.939 499.041 489.254L488.761 478.538C464.485 449.011 412.432 441.357 394.499 448.355C389.47 450.325 388.595 453.167 388.595 455.134C389.251 461.916 403.903 470.009 430.585 478.102C426.829 477.871 423.094 478.787 419.869 480.725C418.422 481.775 417.205 483.113 416.304 484.658C415.399 486.201 414.826 487.916 414.621 489.693C414.182 494.285 415.497 501.067 419.43 504.345C416.754 505.087 414.301 506.472 412.281 508.377C410.26 510.285 408.736 512.655 407.84 515.283C406.855 517.746 406.499 520.416 406.804 523.05C407.11 525.684 408.068 528.2 409.59 530.375C407.27 530.452 405.033 531.256 403.191 532.665C401.349 534.077 399.993 536.029 399.31 538.248C397.78 543.06 398.655 549.403 404.559 552.245C410.465 555.087 425.118 564.055 437.583 571.929C450.049 579.802 460.768 586.584 469.078 590.738H473.234V590.957ZM411.121 448.355C433.211 448.355 467.986 456.668 487.011 479.849L497.51 490.788C521.786 516.159 532.066 526.655 531.627 533.653C531.191 540.654 527.254 541.746 520.256 547.872C506.689 559.116 494.698 572.14 484.605 586.584C483.513 588.551 475.201 589.207 469.733 588.771C461.643 584.395 450.049 577.18 438.678 569.962C427.304 562.744 413.091 553.776 405.653 550.275C403.627 549.281 402.064 547.546 401.289 545.425C400.515 543.306 400.589 540.969 401.497 538.904C402.111 536.673 403.585 534.777 405.594 533.629C407.599 532.481 409.982 532.176 412.215 532.781H413.091L413.746 531.247L413.091 530.591C408.059 526.655 408.279 520.312 409.81 515.939C410.812 513.044 412.663 510.516 415.12 508.683C417.576 506.849 420.525 505.796 423.587 505.659V503.47C418.119 502.814 416.152 495.16 416.588 489.912C416.719 488.393 417.179 486.925 417.932 485.602C418.689 484.282 419.721 483.139 420.964 482.255C427.304 478.102 439.773 480.944 447.863 482.911L452.675 484.006L453.114 481.819C407.623 470.445 391.001 460.385 390.562 454.698C390.562 452.512 392.968 450.981 394.938 450.325C400.165 448.676 405.65 448.008 411.121 448.355Z" fill="#101216"/>
<path d="M423.723 503.298L448.652 508.009L448.245 510.16L423.317 505.449L423.723 503.298ZM432.116 540.215L432.771 538.248C425.583 536.252 418.561 533.691 411.776 530.591L410.901 532.561C417.683 535.854 424.794 538.417 432.116 540.215ZM759.738 705.346C679.691 627.702 591.114 549.403 529.004 515.939C499.696 500.192 465.796 567.556 473.45 594.894C476.295 605.393 617.141 740.34 716.653 799.831" fill="#101216"/>
<path d="M716.215 800.706L717.308 798.737C618.453 739.902 477.17 604.518 474.325 594.677C469.077 575.43 485.044 536.278 504.069 521.187C509.976 516.375 519.161 511.783 528.348 516.814C580.838 545.027 660.664 610.641 759.082 706.221L760.612 704.69C691.72 637.762 595.927 550.714 529.44 514.844C521.131 510.471 511.943 512.002 502.758 519.437C482.638 535.403 466.671 574.99 472.359 595.113C474.109 601.456 514.132 641.043 558.092 679.755C592.648 710.377 658.914 766.587 716.215 800.706Z" fill="white"/>
<path d="M734.149 680.85L736.336 680.411C730.609 638.409 741.431 595.822 766.517 561.649L764.768 560.338C739.314 595.016 728.335 638.228 734.149 680.85Z" fill="white"/>
<path d="M642.948 421.673H707.248C717.032 421.673 724.963 429.603 724.963 439.387V461.61C724.963 471.394 717.032 479.327 707.248 479.327H642.948C633.165 479.327 625.234 471.394 625.234 461.61V439.387C625.234 429.603 633.165 421.673 642.948 421.673Z" fill="#101216"/>
<path d="M675.099 474.382H684.284C696.884 473.714 709.126 469.959 719.934 463.447L718.84 461.696C708.273 467.968 696.337 471.572 684.065 472.195C671.818 473.071 659.352 471.759 647.104 470.665C640.325 470.009 632.232 468.478 629.608 462.355L627.639 463.227C630.482 470.229 639.449 471.976 646.885 472.851C654.321 473.726 665.695 474.382 675.099 474.382ZM647.105 454.478L649.292 453.823C646.461 445.754 645.783 437.085 647.323 428.671L645.136 428.235C643.601 437.011 644.277 446.029 647.105 454.478ZM705.718 455.573C708.554 447.201 709.231 438.251 707.686 429.547H705.499C707.003 437.945 706.402 446.587 703.749 454.698L705.718 455.573ZM673.567 449.23C674.08 442.016 673.934 434.768 673.13 427.577H670.943C671.744 434.62 671.891 441.722 671.38 448.794L673.567 449.23ZM494.229 618.078C522.644 596.439 543.719 566.583 554.592 532.561L552.622 531.906C541.894 565.527 521.042 595.012 492.918 616.328L494.229 618.078ZM504.072 593.363L504.508 591.177C498.397 590.043 492.66 587.412 487.812 583.52C482.965 579.624 479.158 574.593 476.735 568.867L474.765 569.742C477.387 575.75 481.419 581.034 486.522 585.145C491.624 589.26 497.644 592.078 504.072 593.363ZM513.474 570.181L514.788 568.431C505.146 560.712 495.947 552.462 487.231 543.716L485.7 545.247C494.49 554.067 503.761 562.391 513.474 570.181ZM534.033 543.716L536.003 542.402C529.037 532.173 519.644 523.833 508.665 518.125L507.79 520.095C518.419 525.587 527.456 533.721 534.033 543.716ZM754.489 273.384C758.207 284.101 756.239 303.348 741.585 301.161C726.932 298.975 735.024 270.321 719.715 268.134C713.591 267.478 709.217 273.165 703.968 276.665C685.378 288.256 664.382 272.727 652.353 258.511C640.325 244.295 628.952 248.013 616.267 261.354C592.209 276.227 569.028 246.919 572.309 223.079C569.683 202.083 596.584 178.68 609.488 202.083C615.174 165.776 728.244 153.309 719.496 198.146C761.05 181.305 799.542 247.794 754.489 273.384Z" fill="white"/>
<path d="M743.773 302.472C745.538 302.505 747.288 302.128 748.882 301.369C750.476 300.609 751.872 299.491 752.958 298.097C757.77 292.193 758.207 281.476 755.801 274.039C777.891 260.917 779.422 237.733 770.892 220.454C762.362 203.176 742.46 188.959 720.809 196.396C721.307 192.958 720.927 189.45 719.703 186.199C718.479 182.948 716.452 180.06 713.81 177.805C698.063 164.682 662.195 166.213 637.7 175.399C621.953 181.304 611.893 189.615 609.049 199.02C604.238 192.24 597.677 189.615 590.242 192.021C582.805 194.427 569.463 209.518 571.214 223.079C569.244 237.514 576.901 254.355 588.928 262.01C592.98 264.884 597.815 266.445 602.782 266.485C607.749 266.524 612.608 265.038 616.704 262.229H616.923C624.359 254.574 630.483 249.543 636.825 249.762C643.168 249.981 646.23 253.043 651.479 259.385C665.257 275.789 686.472 289.131 704.624 277.757C706.097 276.862 707.488 275.837 708.78 274.695C712.279 271.633 715.56 269.009 719.715 269.446C723.87 269.884 728.463 277.539 730.213 285.194C731.963 292.849 733.931 300.286 741.148 302.472H743.773ZM733.056 196.614C748.803 196.614 762.363 207.55 768.924 221.329C775.485 235.108 777.016 259.385 754.052 272.508L753.177 272.946V273.821C755.583 280.601 755.583 291.318 751.208 296.567C750.08 297.978 748.585 299.049 746.888 299.666C745.191 300.283 743.356 300.422 741.586 300.066C735.462 298.316 733.931 291.536 732.181 284.319C730.432 277.101 728.244 268.134 719.715 267.04C714.685 266.603 710.967 269.665 707.249 272.727L703.312 275.789C686.471 286.287 666.132 273.383 653.01 257.855C647.323 250.856 642.074 247.575 636.607 247.356C631.139 247.137 623.047 252.386 615.392 260.479C611.576 262.958 607.115 264.259 602.565 264.22C598.015 264.181 593.577 262.804 589.803 260.26C583.994 256.136 579.39 250.536 576.468 244.038C573.546 237.541 572.412 230.38 573.181 223.297C571.433 210.612 581.054 197.489 590.678 194.427C600.301 191.365 604.02 195.083 608.394 202.738L609.925 205.582L610.362 202.301C611.893 192.678 621.735 183.71 638.356 177.586C661.977 168.838 696.97 167.088 712.06 179.773C714.732 181.928 716.73 184.805 717.815 188.062C718.901 191.318 719.029 194.818 718.184 198.145L717.747 200.114L719.715 199.458C723.905 197.56 728.456 196.59 733.056 196.614Z" fill="#101216"/>
<path d="M645.354 238.171L646.448 236.202C640.394 233.089 635.773 227.762 633.544 221.329C632.731 218.391 632.604 215.304 633.173 212.308C633.742 209.312 634.991 206.487 636.825 204.051L635.075 202.739C633.038 205.455 631.661 208.608 631.053 211.949C630.446 215.29 630.625 218.726 631.576 221.986C632.675 225.467 634.461 228.692 636.828 231.472C639.194 234.252 642.093 236.529 645.354 238.171ZM706.81 258.073L707.904 256.324C696.313 248.887 690.845 237.295 694.125 226.797L691.938 226.141C688.439 237.733 694.344 250.2 706.81 258.073ZM689.095 304.659C691.932 304.605 694.711 303.855 697.188 302.472L696.094 300.503C693.326 302.054 690.135 302.677 686.987 302.283C683.839 301.891 680.899 300.5 678.598 298.316L677.067 299.847C680.313 302.932 684.618 304.653 689.095 304.659Z" fill="#101216"/>
</svg>
