<svg width="1301" height="769" viewBox="0 0 1301 769" fill="none" xmlns="http://www.w3.org/2000/svg">
<g clip-path="url(#clip0_3059_142)">
<path d="M942.744 388.893L876.688 212.508L1212.06 108.901L1278.12 285.286L942.744 388.893Z" fill="white"/>
<path d="M942.046 390.281V389.123L875.53 211.81L876.688 211.35L1212.99 107.51V108.437L1279.51 285.98L942.046 390.281ZM878.31 213.202L943.438 387.271L1276.49 284.358L1211.13 110.291L878.31 213.202Z" fill="#101216"/>
<path d="M876.688 212.508L886.189 373.828L905.197 372.436L942.28 388.659C942.509 388.893 942.973 388.659 942.973 388.199L876.688 212.508Z" fill="white"/>
<path d="M942.51 390.051L941.582 389.587L904.963 373.594L885.031 374.986V373.828L875.53 212.508V211.58L877.382 211.116L877.846 212.044L943.902 387.965C943.98 388.1 944.036 388.251 944.053 388.408C944.075 388.564 944.062 388.724 944.019 388.876C943.975 389.028 943.902 389.171 943.802 389.292C943.702 389.414 943.576 389.518 943.438 389.587L942.51 390.051ZM905.427 371.278L941.117 387.037L878.31 219.924L887.347 372.436L905.427 371.278ZM1101.27 316.115C1106.14 316.115 1110.08 312.481 1110.08 308.001C1110.08 303.522 1106.14 299.888 1101.27 299.888C1096.41 299.888 1092.47 303.522 1092.47 308.001C1092.47 312.481 1096.41 316.115 1101.27 316.115Z" fill="#101216"/>
<path d="M877.871 212.369L875.595 212.803L906.064 374.07L908.341 373.641L877.871 212.369ZM1082.73 303.829L1071.61 273.928C1071.15 272.532 1070.97 271.053 1071.1 269.583C1071.23 268.117 1071.65 266.69 1072.34 265.389C1073.03 264.088 1073.98 262.943 1075.13 262.02C1076.28 261.1 1077.61 260.419 1079.02 260.025L1085.52 258.169C1088.44 257.154 1091.64 257.28 1094.48 258.529C1097.32 259.773 1099.58 262.046 1100.81 264.891L1111.93 294.792C1112.39 296.175 1112.57 297.637 1112.44 299.089C1112.31 300.542 1111.89 301.952 1111.19 303.235C1110.49 304.515 1109.54 305.642 1108.4 306.54C1107.25 307.442 1105.93 308.097 1104.52 308.465L1098.03 310.551C1095.1 311.462 1091.94 311.28 1089.13 310.044C1086.32 308.812 1084.05 306.605 1082.73 303.829Z" fill="#101216"/>
<path d="M1093.19 287.845C1110.26 280.876 1116.64 256.976 1107.45 234.456C1098.27 211.94 1076.98 199.329 1059.91 206.294C1042.85 213.258 1036.46 237.162 1045.65 259.678C1054.84 282.198 1076.13 294.809 1093.19 287.845Z" fill="white"/>
<path d="M1083.43 289.922C1066.97 289.922 1050.05 275.784 1043.33 255.155C1038.93 241.711 1039.62 227.803 1045.18 217.374C1046.93 213.935 1049.38 210.895 1052.37 208.462C1055.37 206.025 1058.84 204.247 1062.57 203.236C1080.88 198.136 1102.2 213.436 1110.08 237.075C1114.48 250.519 1113.79 264.197 1108 274.626C1106.25 278.091 1103.8 281.162 1100.81 283.633C1097.82 286.11 1094.35 287.936 1090.61 288.994C1088.28 289.657 1085.85 289.969 1083.43 289.922ZM1069.75 204.394C1067.56 204.476 1065.39 204.789 1063.26 205.322C1059.84 206.332 1056.66 208.024 1053.92 210.292C1051.17 212.564 1048.91 215.366 1047.27 218.536C1041.94 228.501 1041.25 241.481 1045.42 254.461C1052.83 276.942 1072.77 291.314 1090.15 286.678C1093.57 285.745 1096.76 284.08 1099.48 281.799C1102.2 279.518 1104.39 276.678 1105.91 273.464C1111.24 263.733 1111.93 250.519 1107.76 237.773C1101.27 218.072 1085.28 204.394 1069.75 204.394Z" fill="#101216"/>
<path d="M1096.4 295.486L1092.7 289.692C1091.31 287.606 1089.92 285.286 1088.3 283.2C1082.04 274.162 1076.24 265.584 1074.62 250.519C1074.62 248.663 1075.78 245.883 1077.87 245.419C1079.95 244.955 1082.97 247.505 1085.05 253.299C1088.54 262.583 1091.33 272.111 1093.4 281.808L1094.78 288.994L1096.4 295.486ZM1078.56 247.505H1078.33C1077.63 247.739 1076.94 249.361 1076.94 250.289C1078.56 264.891 1084.12 273.234 1090.38 282.042C1090.61 282.554 1090.92 283.027 1091.31 283.434C1091.15 283.148 1091.07 282.827 1091.07 282.506C1089.16 272.87 1086.44 263.412 1082.97 254.227C1080.88 248.897 1079.26 247.505 1078.56 247.505Z" fill="#101216"/>
<path d="M1085.75 295.252L1079.25 294.558L1079.95 292.238C1090.38 294.558 1102.2 290.386 1106.14 282.506L1108.23 283.664C1104.52 290.85 1095.25 295.252 1085.75 295.252ZM1089.92 304.294H1082.97V301.973H1086.44C1090.65 302.433 1094.9 302.038 1098.95 300.816C1101.24 299.918 1103.31 298.543 1105.03 296.787C1106.75 295.026 1108.07 292.927 1108.92 290.616L1111.01 291.544C1110.11 294.146 1108.65 296.514 1106.73 298.478C1104.8 300.438 1102.46 301.952 1099.88 302.901C1096.67 303.964 1093.3 304.432 1089.92 304.294Z" fill="white"/>
<path d="M1132.53 269.795L1132.11 272.072L1160.81 277.445L1161.24 275.164L1132.53 269.795ZM1050.41 300.815L1031.2 327.547L1033.08 328.9L1052.29 302.169L1050.41 300.815ZM988.465 249.773L988.04 252.054L1026.77 259.301L1027.2 257.024L988.465 249.773ZM1143.05 195.508L1122.92 221.546L1124.75 222.964L1144.88 196.922L1143.05 195.508ZM1049.42 168.087L1047.21 168.803L1054.23 190.382L1056.43 189.667L1049.42 168.087ZM797.188 101.948C804.374 207.638 803.68 294.094 797.652 377.071C791.628 371.043 705.177 344.39 672.032 344.16C624.289 343.462 581.179 375.679 535.058 387.271C620.347 153.867 537.838 -59.14 797.188 101.948Z" fill="#101216"/>
<path d="M1185.41 257.939C1184.94 255.619 1189.35 241.017 1196.76 240.089C1198.06 240.128 1199.33 240.54 1200.39 241.282C1201.46 242.023 1202.3 243.06 1202.79 244.261C1204 246.464 1204.63 248.936 1204.64 251.447C1207.33 279.9 1199.68 308.37 1183.09 331.645" fill="white"/>
<path d="M1184.01 332.339L1182.16 330.947C1198.66 307.993 1206.24 279.813 1203.49 251.677C1203.41 249.274 1202.86 246.911 1201.86 244.725C1200.94 242.869 1198.85 241.017 1196.99 241.247C1194.71 241.806 1192.72 243.216 1191.43 245.189C1188.74 248.862 1187.06 253.177 1186.56 257.705L1184.25 258.169C1184.7 252.986 1186.54 248.021 1189.58 243.797C1190.35 242.509 1191.39 241.403 1192.63 240.562C1193.87 239.72 1195.28 239.161 1196.76 238.931C1198.27 238.983 1199.73 239.443 1201 240.258C1202.26 241.073 1203.28 242.218 1203.95 243.567C1205.11 246.035 1205.74 248.719 1205.8 251.447C1208.49 280.151 1200.75 308.864 1184.01 332.339Z" fill="#101216"/>
<path d="M1096.64 384.487C1151.57 382.171 1189.35 350.648 1193.98 288.764C1195.61 268.598 1194.68 234.759 1182.39 230.817C1170.11 226.88 1167.79 241.247 1168.72 249.591C1163.39 224.095 1144.85 230.817 1145.77 253.069C1146.47 240.323 1134.19 226.181 1126.77 241.017C1119.12 260.948 1126.31 286.214 1113.09 303.136C1092 325.847 1048.89 334.195 1043.33 369.885C1064.19 378.927 1083.66 384.951 1096.64 384.487Z" fill="white"/>
<path d="M1094.78 385.649C1082.73 385.649 1065.35 380.779 1042.87 371.048L1042.17 370.584V369.656C1045.65 346.246 1065.12 334.425 1083.89 322.837C1094.09 316.809 1104.52 310.317 1111.93 302.208C1119.35 294.094 1120.05 280.65 1120.98 267.905C1121.67 258.633 1122.36 249.127 1125.61 240.553C1128.86 231.975 1133.72 233.138 1136.04 233.831C1138.36 234.525 1143.46 238.931 1145.31 243.797C1146.93 236.611 1151.1 232.673 1155.28 231.975C1159.45 231.281 1164.32 234.295 1167.56 242.409C1168.18 238.151 1170.22 234.226 1173.35 231.281C1174.63 230.228 1176.15 229.525 1177.77 229.243C1179.4 228.957 1181.07 229.1 1182.63 229.66C1198.39 234.989 1195.37 283.434 1194.91 288.764C1190.51 347.868 1154.58 383.099 1096.64 385.649H1094.78ZM1044.72 369.192C1067.21 378.928 1085.28 383.793 1096.64 383.329C1154.35 381.014 1188.42 347.404 1192.82 288.764C1194.21 269.292 1193.75 235.687 1182.16 231.975C1180.98 231.524 1179.71 231.373 1178.45 231.537C1177.2 231.698 1176 232.166 1174.98 232.903C1171.04 236.147 1169.18 243.797 1169.88 249.361L1167.56 249.825C1165.01 237.539 1159.68 233.831 1155.97 234.295C1152.27 234.759 1147.17 240.783 1146.93 250.519C1147.17 251.352 1147.17 252.236 1146.93 253.069H1144.62V250.753C1144.15 243.797 1140.21 237.075 1135.81 235.917C1131.41 234.759 1129.32 238.467 1127.93 241.481C1124.91 249.591 1124.22 259.097 1123.53 267.905C1122.6 280.65 1121.9 293.63 1114.02 303.83C1106.14 314.029 1095.71 318.665 1085.28 324.923C1067.21 336.047 1048.66 347.404 1044.72 369.192Z" fill="#101216"/>
<path d="M1160.84 329.325L1158.99 327.933C1169.65 315.417 1172.2 299.424 1172.43 288.07C1172.66 276.713 1169.88 259.327 1166.87 245.419L1169.18 244.955C1171.96 258.863 1174.98 273.464 1174.75 288.3C1174.51 303.136 1171.73 316.345 1160.84 329.325ZM1134.19 316.345L1132.33 314.953C1148.55 297.108 1146.47 272.77 1144.62 251.447V248.897H1146.93V251.447C1148.79 273.234 1150.87 298.036 1134.19 316.345Z" fill="#101216"/>
<path d="M778.184 281.114C743.188 304.294 691.503 377.765 691.503 377.765C691.503 377.765 654.88 320.751 609.917 276.014C636.28 268.785 663.471 265.042 690.805 264.891C758.947 264.891 778.184 281.114 778.184 281.114Z" fill="white"/>
<path d="M691.503 379.851L690.575 378.464C690.111 377.765 653.258 320.981 609.224 276.942L607.832 275.55L609.688 274.856C636.146 267.714 663.406 263.976 690.805 263.729C758.483 263.729 778.184 279.492 779.113 280.186L780.27 281.344L778.878 282.042C744.58 304.988 692.891 377.765 692.431 378.464L691.503 379.851ZM612.238 276.712C652.1 316.809 685.475 366.642 691.503 375.68C698.689 365.714 744.116 303.366 776.099 281.114C770.769 277.87 748.053 266.049 690.805 266.049C664.269 266.222 637.863 269.804 612.238 276.712Z" fill="#101216"/>
<path d="M260.407 222.01C260.871 219.694 256.236 205.092 248.819 204.394C247.519 204.433 246.257 204.845 245.187 205.587C244.117 206.328 243.286 207.365 242.793 208.566C241.691 210.895 241.061 213.414 240.939 215.986C238.745 244.456 246.892 272.766 263.884 295.716" fill="white"/>
<path d="M262.957 296.414C245.761 273.2 237.53 244.556 239.779 215.752C239.953 213.042 240.58 210.379 241.634 207.872C242.302 206.523 243.322 205.379 244.587 204.563C245.852 203.748 247.314 203.288 248.819 203.236C250.272 203.471 251.66 204.004 252.896 204.802C254.133 205.6 255.191 206.645 256.004 207.872C259.121 212.074 261.043 217.04 261.566 222.244H259.248C258.681 217.625 256.924 213.232 254.149 209.494C253.528 208.527 252.713 207.699 251.756 207.057C250.798 206.419 249.719 205.986 248.587 205.786C246.732 205.556 244.647 207.408 243.72 209.264C242.722 211.45 242.171 213.813 242.097 216.216C239.944 244.435 248.006 272.484 264.811 295.252L262.957 296.414Z" fill="#101216"/>
<path d="M351.03 347.17C296.1 345.782 257.858 314.953 252.295 253.069C250.441 232.673 250.904 199.064 262.957 194.892C275.009 190.721 277.79 205.092 277.095 213.436C281.962 187.707 300.504 194.199 299.809 216.68C299.113 203.7 311.165 189.563 318.814 204.164C326.694 224.096 319.972 249.361 333.415 266.048C354.97 288.53 397.848 296.414 404.105 331.875C383.478 341.147 364.009 347.634 351.03 347.17Z" fill="white"/>
<path d="M352.188 348.332H350.798C292.855 346.94 256.467 312.173 251.136 253.069C250.673 247.505 246.732 199.294 262.493 193.735C264.066 193.145 265.761 192.967 267.423 193.21C269.084 193.453 270.657 194.112 271.996 195.122C275.13 198.071 277.173 201.992 277.79 206.25C280.803 197.906 285.67 195.356 289.842 195.586C294.014 195.821 298.418 200.222 300.04 207.408C301.894 202.308 305.371 198.136 309.079 197.208C312.787 196.285 316.032 196.514 319.741 203.7C323.449 210.886 323.912 221.78 324.608 231.052C325.766 243.797 326.694 255.849 334.342 265.355C341.99 274.856 352.42 279.492 362.618 285.52C381.624 296.644 401.092 308.231 405.264 331.645V332.569L404.569 333.033C381.855 343.232 364.24 348.332 352.188 348.332ZM266.201 195.356L263.42 196.05C251.831 199.992 251.831 233.597 253.454 252.839C258.784 311.479 293.319 344.625 351.03 346.012C362.387 346.476 380.233 341.376 402.714 331.181C398.543 309.393 379.769 298.266 361.459 287.606C351.03 281.348 340.368 275.086 332.488 266.742C324.608 258.399 323.448 243.797 322.522 231.281C321.595 222.244 320.899 212.972 317.654 204.628C316.032 201.844 313.482 198.37 309.774 199.294C306.066 200.222 301.43 207.408 300.967 214.13V216.68H298.649V214.13C298.418 204.164 294.014 198.37 289.61 197.906C285.206 197.442 280.571 201.38 278.253 213.666L275.935 213.202C276.399 207.638 274.545 199.992 270.373 196.978C269.208 195.977 267.737 195.404 266.201 195.356Z" fill="#101216"/>
<path d="M286.135 292.936C274.778 280.186 271.996 263.733 271.533 252.141C271.069 240.553 273.851 222.938 276.4 208.8L278.718 209.264C276.168 223.167 273.387 237.539 273.851 252.141C274.314 266.742 277.095 279.262 287.989 291.544L286.135 292.936ZM312.556 279.722C295.405 261.647 297.259 236.611 298.649 214.824V212.274H300.967V214.594C299.577 236.147 297.954 260.484 314.179 277.87L312.556 279.722Z" fill="#101216"/>
<path d="M547.109 661.7C403.41 679.081 346.394 456.107 326.23 379.157C324.552 372.561 325.177 365.584 328.001 359.391C330.824 353.194 335.678 348.15 341.759 345.084C354.738 338.826 372.816 330.947 387.186 323.995C416.389 309.853 423.11 324.459 432.381 338.133L484.531 419.718C484.531 419.718 545.947 329.789 577.934 315.651C620.117 297.108 730.672 288.53 803.68 307.307C856.986 320.981 915.856 489.023 915.856 489.023C915.856 489.023 1007.64 346.012 1041.24 357.604C1065.58 366.178 1116.57 394.457 1108.92 413.46C1060.48 532.827 959.197 661.466 882.711 652.658" fill="white"/>
<path d="M531.58 664.016C476.882 664.016 429.369 628.321 390.199 557.863C355.434 495.28 335.965 421.11 325.535 381.243L325.072 379.392C323.288 372.548 323.93 365.297 326.888 358.875C329.846 352.452 334.937 347.253 341.296 344.161L362.85 334.191L386.723 322.837C414.768 309.159 423.343 322.373 431.455 334.889C432.017 335.778 432.636 336.628 433.309 337.439L484.532 417.632C492.875 405.581 547.339 327.933 577.471 314.489C620.581 295.486 731.366 287.606 803.91 306.145C854.67 319.125 908.671 465.613 916.091 486.473C927.908 468.627 1009.26 345.318 1041.71 356.676C1060.25 363.164 1100.81 384.023 1109.15 402.801C1110.06 404.497 1110.59 406.366 1110.71 408.287C1110.83 410.208 1110.54 412.129 1109.85 413.925C1061.87 532.133 965.919 654.28 890.361 654.28L882.716 653.82V651.5C917.478 655.442 960.819 630.177 1005.32 580.344C1045.42 535.147 1082.73 474.187 1107.53 412.996C1108.09 411.496 1108.32 409.887 1108.2 408.287C1108.08 406.687 1107.62 405.13 1106.83 403.725C1098.95 386.343 1060.25 365.484 1040.55 358.762C1008.33 347.634 917.478 488.329 916.55 489.716L915.392 491.802L914.464 489.487C914.005 487.865 855.364 321.909 803.216 308.465C730.902 289.922 621.045 297.802 578.164 316.809C546.875 330.483 485.919 419.488 485.225 420.417L484.297 421.804L430.991 338.826L429.369 336.276C421.025 323.297 413.84 312.173 387.418 324.923L363.546 336.276L342.223 346.246C336.296 349.018 331.536 353.792 328.781 359.725C326.025 365.662 325.451 372.379 327.158 378.693L327.621 380.779C338.051 420.416 357.288 494.352 392.053 556.701C434.235 632.957 486.383 667.958 546.875 660.772V662.858C541.806 663.56 536.697 663.951 531.58 664.016Z" fill="#101216"/>
<path d="M734.844 307.073L733.452 203.93L658.588 203.006L659.98 306.145" fill="white"/>
<path d="M733.686 307.073L732.294 205.092L659.75 204.164L661.138 306.145H658.822L657.43 201.844L734.61 202.772L736.002 307.073H733.686ZM626.141 660.078L624.519 339.989L626.375 341.376C626.839 341.61 658.358 366.412 696.603 366.412C739.246 366.412 757.789 338.596 758.019 338.362L760.105 335.118L768.219 657.294H765.903L757.789 342.304C751.995 349.49 732.524 368.728 696.603 368.728C660.678 368.728 634.485 349.954 626.839 344.624L628.461 660.078H626.141Z" fill="#101216"/>
<path d="M627.533 437.104L759.641 346.476L760.803 374.522L627.533 468.627V437.104ZM627.303 537.697L760.803 445.448L762.425 473.957L627.303 569.221V537.697ZM627.533 628.785L765.439 536.305V565.972L627.533 660.078V628.785Z" fill="#101216"/>
<path d="M620.581 272.306L572.141 292.936L628.227 365.02L653.492 370.35C653.492 370.35 641.905 324.459 636.571 309.623C631.241 294.787 620.581 272.306 620.581 272.306Z" fill="white"/>
<path d="M654.884 371.972L627.767 366.178L627.303 365.714L570.285 292.472L621.045 270.684L621.509 271.842C621.739 272.076 633.327 296.873 637.733 309.159C642.135 321.445 654.42 369.656 654.65 370.12L654.884 371.972ZM628.925 364.092L651.87 368.958C649.55 360.154 640.049 322.837 635.413 310.087C630.777 297.337 622.203 278.564 619.883 273.698L573.992 293.4L628.925 364.092Z" fill="#101216"/>
<path d="M766.827 272.77L802.752 289.228L756.631 363.628L731.6 369.886C731.6 369.886 740.638 332.105 745.967 317.737C751.761 302.234 758.735 287.203 766.827 272.77Z" fill="white"/>
<path d="M729.978 371.507L730.442 369.656C730.672 369.192 739.71 331.411 744.809 317.273C750.634 301.748 757.685 286.708 765.903 272.306L766.363 271.378L804.374 288.764L757.325 364.786L729.978 371.507ZM767.291 274.392C759.493 288.426 752.676 302.988 746.895 317.967C742.494 330.483 735.074 360.384 733.222 368.264L755.703 362.7L801.13 289.692L767.291 274.392ZM1083.66 436.41C1087.12 436.41 1089.92 433.604 1089.92 430.152C1089.92 426.696 1087.12 423.89 1083.66 423.89C1080.2 423.89 1077.4 426.696 1077.4 430.152C1077.4 433.604 1080.2 436.41 1083.66 436.41ZM358.215 388.659C361.671 388.659 364.473 385.857 364.473 382.401C364.473 378.945 361.671 376.143 358.215 376.143C354.759 376.143 351.958 378.945 351.958 382.401C351.958 385.857 354.759 388.659 358.215 388.659ZM1083.2 466.077C1047.64 446.753 1018.06 418.057 997.672 383.099L999.758 381.937C1019.89 416.535 1049.16 444.923 1084.35 463.991L1083.2 466.077ZM899.633 531.903H897.317C898.241 514.054 909.134 497.6 917.712 484.387L919.564 485.544C910.756 498.988 900.561 514.518 899.633 531.903ZM522.772 556.7C522.321 506.222 507.442 456.922 479.895 414.618L481.981 413.46C509.645 456.155 524.598 505.831 525.092 556.7H522.772ZM547.803 662.858L546.645 660.772C578.164 644.084 587.67 570.842 574.691 442.898H577.006C589.986 571.536 580.25 645.706 547.803 662.858ZM882.481 653.82C811.794 634.349 798.58 498.988 801.594 430.148H803.91C800.9 498.524 813.88 632.497 883.175 651.5L882.481 653.82ZM338.051 411.838H335.27V409.523C360.996 411.145 396.226 389.587 413.377 379.157L415.231 377.999C422.648 373.593 437.943 362.006 441.191 354.82L443.506 355.748C439.799 363.862 423.343 375.913 416.39 380.085L414.536 381.243C398.08 391.209 364.241 411.838 338.051 411.838Z" fill="#101216"/>
<path d="M626.141 137.178C623.201 134.152 619.411 132.088 615.273 131.261C611.136 130.433 606.843 130.88 602.966 132.542C599.137 134.362 595.78 137.047 593.165 140.385C590.55 143.724 588.75 147.625 587.9 151.78C586.426 160.109 587.558 168.69 591.144 176.349C595.281 185.161 601.99 192.516 610.382 197.442C618.938 202.161 628.982 203.405 638.427 200.916C627.247 181.67 622.919 159.203 626.141 137.178Z" fill="white"/>
<path d="M629.155 203.466C622.42 203.392 615.807 201.64 609.917 198.37C601.17 193.535 594.249 185.963 590.216 176.813C586.4 168.894 585.185 159.97 586.742 151.317C587.679 147.044 589.592 143.044 592.324 139.628C595.056 136.212 598.538 133.47 602.502 131.616C606.6 129.801 611.158 129.295 615.555 130.166C619.953 131.037 623.973 133.243 627.069 136.483V137.41C623.955 159.181 628.197 181.371 639.121 200.456L639.819 201.844H638.427C635.43 202.833 632.308 203.379 629.155 203.466ZM611.31 132.079C608.599 132.058 605.91 132.611 603.43 133.702C599.774 135.424 596.569 137.977 594.076 141.156C591.582 144.335 589.865 148.052 589.058 152.012C587.54 160.036 588.681 168.335 592.302 175.655C596.071 184.367 602.584 191.609 610.846 196.284C618.678 200.621 627.802 202.017 636.571 200.222C626.007 181.18 621.939 159.207 624.983 137.642C623.196 135.839 621.067 134.416 618.717 133.46C616.366 132.504 613.846 132.034 611.31 132.079Z" fill="#101216"/>
<path d="M625.911 109.133C621.509 155.258 625.447 221.546 665.314 253.303C675.189 261.356 687.344 266.118 700.064 266.907C712.788 267.696 725.438 264.479 736.236 257.705C782.82 228.268 785.6 151.549 781.428 103.802C780.522 93.9063 777.265 84.37 771.927 75.9885C729.05 11.5534 637.499 25.4603 625.911 109.133Z" fill="white"/>
<path d="M703.785 268.134C689.517 268.156 675.679 263.243 664.616 254.227C619.653 218.536 621.739 140.888 624.753 109.134C630.083 70.8898 652.564 43.7713 684.781 36.3543C716.998 28.9373 751.995 44.2349 772.855 75.5253C778.406 83.9068 781.754 93.5528 782.586 103.571C786.298 148.305 785.6 228.038 736.696 258.633C726.83 264.813 715.429 268.104 703.785 268.134ZM627.069 109.366C624.055 140.656 621.969 217.374 666.008 252.375C675.722 260.216 687.644 264.83 700.107 265.576C712.571 266.326 724.956 263.169 735.538 256.547C785.136 225.488 783.284 139.497 780.27 103.803C779.364 94.1231 776.103 84.8127 770.769 76.684C750.603 46.3209 716.998 31.4869 685.475 38.6723C653.956 45.8573 632.169 72.2806 627.069 109.366Z" fill="#101216"/>
<path d="M719.778 175.885L718.85 173.799C722.718 171.943 726.183 169.345 729.05 166.153C723.668 162.474 719.149 157.671 715.81 152.074C712.471 146.478 710.385 140.223 709.7 133.741C709.019 127.259 709.752 120.706 711.851 114.536C713.954 108.366 717.367 102.726 721.864 98.0074L723.486 99.6302C719.18 104.203 715.932 109.667 713.967 115.635C712.007 121.602 711.378 127.928 712.128 134.165C712.853 140.408 714.956 146.412 718.282 151.743C721.608 157.075 726.079 161.6 731.366 164.991L732.528 165.689L731.6 166.613C728.426 170.577 724.379 173.747 719.778 175.885ZM699.149 19.6651C698.225 53.5054 713.984 65.5579 730.208 79.9283C746.431 94.2987 775.405 100.093 796.958 101.948C793.801 79.9331 783.358 59.6127 767.291 44.2341C751.531 28.9365 723.486 17.5792 699.149 19.6651ZM723.486 218.536C708.538 218.549 694.136 212.92 683.159 202.772L684.781 201.15C690.263 206.281 696.72 210.257 703.763 212.842C710.81 215.431 718.304 216.58 725.806 216.216V218.536H723.486Z" fill="#101216"/>
<path d="M706.799 20.5927C685.011 15.2616 661.138 21.5195 642.599 34.4995C624.055 47.4792 610.845 66.9486 602.272 87.8089C593.694 108.669 589.522 131.384 587.206 153.867C608.994 128.834 631.241 137.41 648.627 121.649C655.578 115.391 710.97 81.7826 706.799 20.5927ZM746.202 144.827C750.17 144.827 753.383 141.61 753.383 137.642C753.383 133.673 750.17 130.457 746.202 130.457C742.233 130.457 739.016 133.673 739.016 137.642C739.016 141.61 742.233 144.827 746.202 144.827ZM679.681 146.218C683.649 146.218 686.867 143.001 686.867 139.033C686.867 135.065 683.649 131.848 679.681 131.848C675.713 131.848 672.495 135.065 672.495 139.033C672.495 143.001 675.713 146.218 679.681 146.218Z" fill="#101216"/>
<path d="M446.082 502.171L110.416 485.753L100.906 680.217L436.572 696.632L446.082 502.171Z" fill="white"/>
<path d="M436.321 699.711H435.163L98.3994 683.253V682.095L108.134 486.473H109.293L446.057 503.16V504.318L436.321 699.711ZM100.949 680.703L434.235 697.161L443.736 505.016L110.22 488.559L100.949 680.703Z" fill="#101216"/>
<path d="M444.899 503.858L482.675 668.422L464.83 672.13L435.857 698.089C435.627 698.553 434.933 698.323 435.163 697.859L444.899 503.858Z" fill="white"/>
<path d="M435.397 699.481H434.933C434.235 699.247 433.771 698.783 434.005 698.089L443.741 503.16H445.827V504.088L483.833 669.809L465.294 673.751L436.321 699.481H435.397ZM445.593 512.202L436.321 696.233L464.366 671.202L481.283 667.494L445.593 512.202ZM178.361 481.607H176.043L187.631 369.886C190.644 340.453 194.121 307.073 210.577 279.028C218.64 265.862 229.574 254.691 242.561 246.347L243.952 248.203C231.086 256.274 220.354 267.323 212.662 280.42C196.438 307.772 192.962 340.912 189.949 370.12L178.361 481.607ZM306.298 527.497L304.444 525.875C337.588 486.243 358.447 448.227 368.413 409.753C380.234 363.862 375.135 318.661 354.043 282.506C346.784 269.7 336.913 258.568 325.072 249.825L326.463 247.969C338.537 256.941 348.635 268.304 356.129 281.348C377.452 317.967 382.552 363.862 370.731 410.446C360.533 449.156 339.442 487.401 306.298 527.497Z" fill="#101216"/>
<path d="M253.686 495.51L232.595 385.185C227.032 356.212 220.774 323.297 228.655 291.778C231.754 279.314 237.266 267.584 244.879 257.241L246.733 258.633C239.293 268.789 233.865 280.277 230.741 292.472C223.092 323.297 229.35 355.978 234.912 384.721L256.004 495.28L253.686 495.51ZM391.59 502.232L389.504 501.538C409.9 453.791 418.939 411.374 417.317 371.742C415.462 324.459 397.616 282.506 367.022 253.997C354.671 242.288 339.747 233.632 323.449 228.731L324.144 226.646C340.692 231.563 355.854 240.297 368.413 252.141C399.702 281.348 417.78 323.761 419.634 371.742C421.257 411.609 411.986 454.485 391.59 502.232ZM404.3 554.823L86.1613 446.514L23.4202 630.823L341.559 739.131L404.3 554.823Z" fill="#101216"/>
<path d="M341.991 740.736L21.6833 631.569L85.1886 444.984L405.497 554.155L341.991 740.736ZM24.4645 630.177L340.369 737.722L402.483 555.543L86.5794 447.998L24.4645 630.177Z" fill="white"/>
<path d="M404.106 554.849L395.067 723.354L376.989 722.197L341.759 739.114C341.527 739.348 341.064 738.884 341.064 738.65L403.874 554.849H404.106Z" fill="#101216"/>
<path d="M341.527 740.272H340.6C340.362 740.033 340.193 739.738 340.111 739.409C340.029 739.083 340.038 738.741 340.137 738.42L403.179 553.921H405.033V554.849L395.762 724.742L376.988 723.354L341.991 740.042L341.527 740.272ZM402.483 562.958L342.918 737.262L376.757 721.034L393.908 722.192L402.483 562.958Z" fill="white"/>
<path d="M401.742 553.431L372.922 722.04L375.207 722.431L404.026 553.821L401.742 553.431Z" fill="white"/>
</g>
<defs>
<clipPath id="clip0_3059_142">
<rect width="1301" height="769" fill="white"/>
</clipPath>
</defs>
</svg>
