<svg width="696" height="760" viewBox="0 0 696 760" fill="none" xmlns="http://www.w3.org/2000/svg">
<path d="M652 489.5C652 489.5 639.057 455.566 632 443C626.93 433.962 612 404.477 612 404.477H271L264 476L652 489.5Z" fill="black"/>
<path d="M436.561 416.38L437 416.159C437 416.159 443.394 413.294 452.435 407.781L451.333 405.798C443.615 410.429 438.103 413.073 436.561 413.958C435.016 413.073 429.286 410.208 421.79 405.798L420.688 407.781C429.725 413.294 435.901 416.38 436.119 416.38H436.561Z" fill="white"/>
<path d="M420.688 407.56L421.791 405.576C399.084 391.69 360.061 363.249 353.007 327.755L350.802 328.194C358.077 364.573 397.76 393.452 420.688 407.56Z" fill="black"/>
<path d="M623.838 759.32C652.569 759.32 668.921 744.372 672.191 741.333C690.411 723.113 697.886 691.813 694.382 648.134C690.411 595.108 669.855 524.329 638.087 454.02C609.589 390.95 577.354 340.029 555.63 324.144C516.854 295.646 392.585 296.347 322.507 325.312C294.243 336.991 277.894 352.408 275.089 369.928C260.141 466.166 256.401 559.835 263.176 664.483L265.512 664.249C258.737 559.602 262.476 466.166 277.427 370.162C279.995 353.576 295.877 338.862 323.441 327.413C391.648 299.149 516.621 298.449 554.228 326.012C597.209 357.549 683.17 532.038 692.046 648.134C695.316 691.113 688.075 721.946 670.556 739.465C667.519 742.504 650.701 757.919 620.568 756.518C579.222 754.883 530.635 722.413 479.947 662.848L478.079 664.249C529.935 725.218 577.821 756.985 620.334 758.853C621.502 759.32 622.67 759.32 623.838 759.32Z" fill="black"/>
<path d="M404.731 383.008L333.719 377.17L341.895 426.924C343.766 438.602 344.7 450.284 343.996 461.963C343.763 464.998 343.529 468.271 343.296 471.306C341.895 486.721 337.925 501.906 332.084 516.39L319.238 548.39L390.247 554.231L409.168 484.386C411.74 474.576 412.674 464.298 411.74 454.02L404.731 383.008Z" fill="white"/>
<path d="M391.182 555.398L410.339 484.622C413.141 474.578 413.841 464.298 412.907 453.787L405.665 381.843L332.318 375.769L340.727 426.924C342.832 439.072 343.532 450.751 342.832 461.729C342.598 464.765 342.362 467.803 342.129 471.073C340.727 485.79 336.991 500.972 330.917 515.922L317.603 549.327L391.182 555.398ZM403.564 384.178L410.572 454.254C411.506 464.298 410.806 474.345 408.001 484.155L389.313 553.063L320.873 547.456L333.018 517.09C339.093 501.906 342.832 486.724 344.233 471.54C344.466 468.504 344.7 465.235 344.934 462.196C345.634 450.984 344.934 439.072 342.832 426.924L334.889 378.571L403.564 384.178Z" fill="black"/>
<path d="M386.044 547.689L386.278 546.755C387.212 544.42 407.066 487.658 408.701 468.27C410.336 448.649 399.825 391.42 399.357 388.851L399.127 387.915L336.991 382.777L344.933 423.654C347.736 438.138 348.67 452.386 347.736 466.169L347.502 468.037C346.101 486.491 340.961 505.411 332.318 523.631L323.441 542.552L386.044 547.689ZM397.489 390.253C398.89 397.725 408.001 450.05 406.599 468.037C405.198 486.024 387.212 537.879 384.643 545.121L327.414 540.45L334.889 524.565C343.532 505.878 348.67 486.958 350.071 468.037L350.304 466.169C351.238 452.152 350.304 437.671 347.502 422.954L340.26 385.112L397.489 390.253Z" fill="black"/>
<path d="M370.863 487.425C381.841 487.425 390.484 479.249 390.717 468.504C390.951 457.292 381.841 447.715 371.096 447.482C368.058 447.482 365.956 448.182 364.788 449.583C362.453 451.919 362.92 456.125 363.387 460.795C363.621 463.133 363.854 465.468 363.854 468.037C363.854 470.606 363.387 473.177 363.154 475.279C362.687 479.482 362.22 482.988 364.088 485.09C365.255 486.491 367.357 487.191 370.629 487.425C370.629 487.425 370.629 487.425 370.863 487.425ZM388.382 468.504C388.149 477.848 380.206 485.323 370.393 485.09C368.058 485.09 366.423 484.623 365.722 483.688C364.555 482.287 364.788 479.249 365.489 475.746C365.722 473.411 366.189 471.073 366.189 468.271C366.189 465.702 365.956 462.897 365.722 460.795C365.255 456.592 365.022 453.086 366.656 451.452C367.591 450.518 368.992 450.05 371.327 450.05C380.67 450.05 388.616 458.693 388.382 468.504ZM373.898 426.457C375.533 426.457 377.404 425.99 379.039 425.055C381.607 423.654 383.242 421.553 384.176 418.748C385.11 415.945 384.643 413.143 383.242 410.805C381.841 408.237 379.739 406.602 376.937 405.668C374.132 404.967 371.33 405.201 368.992 406.602C363.854 409.404 361.986 415.712 364.788 420.849C366.423 424.588 370.162 426.457 373.898 426.457ZM373.898 407.769C374.599 407.769 375.533 407.769 376.234 408.003C378.338 408.704 379.973 410.105 381.14 411.976C382.308 413.844 382.541 416.179 381.841 418.281C381.14 420.382 379.739 422.02 377.871 423.187C373.898 425.289 368.992 423.888 366.656 419.915C364.555 415.945 365.956 411.039 369.929 408.704C371.096 408.003 372.497 407.769 373.898 407.769ZM366.89 524.799C372.497 524.799 377.168 520.359 377.401 514.755C377.635 508.914 373.198 504.01 367.357 503.777C364.555 503.777 361.753 504.711 359.882 506.579C357.78 508.447 356.612 511.016 356.379 513.821C356.145 519.659 360.585 524.566 366.423 524.799C366.656 524.799 366.656 524.799 366.89 524.799ZM375.066 514.521C374.832 518.958 371.096 522.697 366.423 522.464C361.986 522.23 358.247 518.491 358.48 513.821C358.48 511.716 359.415 509.615 361.049 508.214C362.687 506.812 364.788 505.878 366.89 506.112C371.797 506.112 375.299 510.082 375.066 514.521ZM392.864 521.986L394.398 523.748L369.55 545.366L368.019 543.603L392.864 521.986ZM381.718 386.836L403.564 411.795L401.807 413.332L379.962 388.373L381.718 386.836ZM332.198 528.205L342.52 542.068L340.647 543.464L330.325 529.6L332.198 528.205ZM357.494 383.973L358.672 385.988L340.919 396.355L339.74 394.336L357.494 383.973Z" fill="black"/>
<path d="M445.661 234.388L455.541 331.531L380.709 339.142L370.829 242.001L445.661 234.388Z" fill="white"/>
<path d="M379.736 339.796L382.074 339.562L372.264 243.557L444.677 236.082L454.485 332.087L456.823 331.853L446.779 233.512L369.695 241.453L379.736 339.796Z" fill="black"/>
<path d="M476.911 131.198C482.049 124.424 491.86 122.088 499.802 124.891C507.744 127.694 513.817 134.935 516.153 143.111C518.489 151.287 517.555 160.163 514.519 168.105C511.015 177.215 504.941 185.391 496.765 190.53C488.59 195.902 478.312 198.005 468.969 196.136C478.546 176.047 482.049 153.155 476.911 131.198Z" fill="white"/>
<path d="M475.977 198.006C483.453 198.006 491.159 195.67 497.7 191.465C505.875 186.326 512.417 178.151 515.92 168.34C519.191 159.463 519.891 150.353 517.555 142.645C514.985 133.768 508.445 126.527 500.503 123.724C491.627 120.688 481.582 123.49 476.211 130.498L475.977 130.965L476.211 131.433C480.881 152.222 478.079 174.88 468.268 195.67L467.568 197.071L468.969 197.305C471.07 197.772 473.406 198.006 475.977 198.006ZM493.028 124.892C495.364 124.892 497.467 125.359 499.569 126.06C506.81 128.63 512.883 135.17 515.219 143.346C517.321 150.587 516.855 159.23 513.584 167.639C510.08 176.749 504.006 184.691 496.298 189.596C488.589 194.502 479.246 196.604 470.837 195.202C480.18 174.647 482.983 151.989 478.312 131.433C481.582 127.228 487.188 124.892 493.028 124.892Z" fill="black"/>
<path d="M475.274 102.936C482.749 148.953 483.45 215.759 445.375 250.563C425.754 268.316 397.723 272.289 374.362 259.673C325.309 233.278 317.6 156.194 318.301 108.075C318.535 98.0304 321.106 88.2195 326.01 79.5767C365.019 11.6021 457.988 19.5443 475.274 102.936Z" fill="white"/>
<path d="M403.561 268.083C418.979 268.083 434.397 262.478 446.309 251.5C489.055 212.489 481.581 134.471 476.441 102.936C468.499 64.861 444.207 39.1663 411.036 33.7937C377.632 28.4211 343.996 46.1739 325.309 79.1099C320.405 87.7527 317.6 97.7971 317.367 108.075C316.433 153.391 322.741 233.279 373.895 260.844C383.239 265.514 393.283 268.083 403.561 268.083ZM474.106 103.169C479.243 134.471 486.485 211.321 444.674 249.629C425.52 267.149 397.489 270.654 375.063 258.506C323.208 230.476 319.004 143.814 319.705 107.841C319.938 98.0306 322.507 88.22 327.411 80.0443C345.631 48.0426 378.335 30.7568 410.803 35.8959C442.806 41.0348 466.631 66.2624 474.106 103.169Z" fill="black"/>
<path d="M420.847 447.248C417.578 437.438 411.506 428.561 403.797 421.553C401.226 419.218 397.956 417.113 394.684 417.816C391.415 418.517 389.08 421.786 388.146 425.056C386.745 429.495 386.745 434.166 387.912 438.372C388.613 440.94 389.78 443.509 392.116 444.677C393.519 445.38 395.388 445.614 397.022 445.614C404.731 445.847 411.97 446.081 420.847 447.248Z" fill="white"/>
<path d="M422.484 448.649L421.781 447.012C418.278 436.968 412.44 427.858 404.498 420.852C402.16 418.748 398.423 415.945 394.454 416.88C389.78 417.814 387.679 422.954 386.978 425.055C385.577 429.495 385.577 434.633 386.745 439.072C387.679 442.575 389.313 444.91 391.649 446.078C393.52 447.012 395.388 447.012 397.022 447.012C404.264 447.245 411.737 447.715 420.38 448.649H422.484ZM396.088 418.748C398.19 418.748 400.525 419.918 403.094 422.487C410.336 428.792 415.71 436.968 419.212 446.078C411.27 445.144 404.264 444.91 397.489 444.677C395.855 444.677 394.22 444.443 393.053 443.976C391.415 443.042 390.014 441.174 389.313 438.372C388.146 434.166 388.146 429.729 389.547 425.523C390.014 424.121 391.649 419.685 395.154 418.981C395.388 418.748 395.621 418.748 396.088 418.748Z" fill="black"/>
<path d="M520.591 303.355C515.452 332.787 484.384 358.016 454.485 360.818C422.482 363.854 451.216 301.487 464.529 287.237C484.851 265.514 526.431 270.654 520.591 303.355Z" fill="white"/>
<path d="M452.383 361.986C453.084 361.986 453.784 361.986 454.721 361.986C486.488 358.95 516.621 332.787 521.76 303.589C523.863 291.21 519.424 281.165 509.613 276.259C495.831 269.25 475.51 273.924 463.828 286.536C453.317 297.748 432.762 339.329 440.704 355.681C442.806 359.884 446.779 361.986 452.383 361.986ZM494.898 275.325C499.803 275.325 504.474 276.259 508.445 278.36C517.555 282.8 521.527 291.677 519.424 303.355C514.519 331.153 484.854 356.848 454.485 359.884C448.647 360.351 444.674 358.716 442.806 354.746C435.331 339.562 455.422 298.918 465.466 288.407C472.941 279.764 484.386 275.325 494.898 275.325Z" fill="black"/>
<path d="M310.128 309.897C315.268 339.329 346.335 364.557 376.233 367.359C408.237 370.398 379.505 308.029 366.189 293.781C345.867 272.055 304.29 277.196 310.128 309.897Z" fill="white"/>
<path d="M378.335 368.527C383.942 368.527 387.912 366.425 390.014 361.986C397.956 345.87 377.401 304.289 366.89 292.844C354.977 280.231 334.886 275.558 321.106 282.567C311.062 287.47 306.625 297.517 308.96 309.897C314.1 339.095 344.23 365.258 376 368.293C376.934 368.527 377.634 368.527 378.335 368.527ZM335.823 281.632C346.334 281.632 357.78 286.303 365.255 294.479C375.066 304.99 395.388 345.87 387.912 360.818C385.81 364.791 382.074 366.659 376.233 365.958C345.867 363.153 316.202 337.227 311.295 309.43C309.194 297.984 313.163 289.108 322.274 284.435C326.48 282.8 331.15 281.632 335.823 281.632Z" fill="black"/>
<path d="M373.359 375.102L441.491 395.927L391.307 560.113L323.174 539.288L373.359 375.102Z" fill="white"/>
<path d="M391.885 561.937L442.806 395.39L372.497 373.898L321.573 540.448L391.885 561.937ZM439.77 397.025L390.25 559.135L324.378 539.047L373.898 376.936L439.77 397.025Z" fill="black"/>
<path d="M388.379 553.297L435.097 400.06L375.533 381.84L328.815 535.077L388.379 553.297ZM432.295 401.698L386.745 550.492L331.617 533.676L377.168 384.879L432.295 401.698Z" fill="black"/>
<path d="M382.775 489.993C384.646 489.993 386.514 489.76 388.382 489.059C393.52 487.658 397.726 484.153 400.294 479.482C402.863 474.809 403.33 469.438 401.929 464.298C398.893 453.787 387.682 447.712 377.168 450.751C366.656 453.787 360.585 464.999 363.621 475.51C365.022 480.65 368.527 484.853 373.198 487.425C376.003 489.293 379.272 489.993 382.775 489.993ZM399.594 464.998C400.995 469.438 400.528 474.342 398.193 478.315C395.855 482.518 392.118 485.554 387.682 486.721C383.242 488.125 378.338 487.658 374.365 485.32C370.162 482.985 367.126 479.249 365.956 474.809C363.154 465.466 368.527 455.655 377.871 452.853C387.214 450.05 396.792 455.655 399.594 464.998ZM394.454 437.668C395.388 437.668 396.555 437.435 397.489 437.201C400.294 436.501 402.396 434.633 403.797 432.064C405.198 429.492 405.432 426.69 404.731 424.121C404.031 421.316 402.163 419.215 399.594 417.814C397.022 416.412 394.22 416.179 391.651 416.879C386.044 418.514 382.775 424.355 384.409 429.959C385.11 432.764 386.978 434.866 389.55 436.267C390.951 437.201 392.819 437.668 394.454 437.668ZM394.454 418.748C395.855 418.748 397.256 418.981 398.426 419.682C400.294 420.849 401.695 422.487 402.396 424.588C403.097 426.69 402.863 429.025 401.695 430.893C400.528 432.764 398.893 434.166 396.792 434.866C394.687 435.567 392.352 435.333 390.484 434.165C388.616 432.998 387.212 431.363 386.511 429.259C385.344 424.822 387.681 420.382 392.118 418.981C392.819 418.981 393.753 418.748 394.454 418.748ZM368.057 523.862C368.992 523.862 370.159 523.629 371.093 523.395C373.898 522.695 376 520.826 377.401 518.255C378.802 515.686 379.036 512.884 378.335 510.312C377.635 507.51 375.766 505.409 373.198 504.007C370.626 502.606 367.824 502.373 365.255 503.073C359.648 504.708 356.379 510.546 358.013 516.153C359.414 520.826 363.618 523.862 368.057 523.862ZM368.057 504.942C369.459 504.942 370.86 505.175 372.03 505.876C373.898 507.043 375.299 508.678 376 510.78C376.7 512.884 376.467 515.219 375.299 517.087C374.365 518.956 372.494 520.357 370.393 521.06C365.956 522.228 361.516 519.89 360.115 515.453C358.947 511.013 361.283 506.576 365.722 505.175C366.656 505.175 367.357 504.942 368.057 504.942ZM392.78 535.452L393.809 537.548L372.216 548.157L371.185 546.061L392.78 535.452ZM417.647 396.182L429.938 416.863L427.93 418.058L415.64 397.375L417.647 396.182ZM335.812 517.382L346.421 538.977L344.325 540.006L333.713 518.413L335.812 517.382ZM394.862 388.17L395.663 390.367L373.059 398.607L372.258 396.413L394.862 388.17Z" fill="black"/>
<path d="M385.735 375.121L453.868 395.946L403.683 560.13L335.551 539.305L385.735 375.121Z" fill="white"/>
<path d="M404.031 561.937L454.952 395.39L384.643 373.898L333.722 540.448L404.031 561.937ZM452.15 397.025L402.63 559.135L336.757 539.047L386.278 376.936L452.15 397.025Z" fill="black"/>
<path d="M400.761 553.297L447.477 400.06L387.912 381.84L341.194 535.077L400.761 553.297ZM444.674 401.698L399.127 550.492L343.999 533.676L389.547 384.879L444.674 401.698Z" fill="black"/>
<path d="M394.921 489.993C396.789 489.993 398.657 489.76 400.525 489.059C405.665 487.658 409.869 484.153 412.44 479.482C415.009 474.809 415.476 469.438 414.075 464.298C411.039 453.787 399.824 447.712 389.313 450.751C378.802 453.787 372.731 464.998 375.766 475.51C377.167 480.65 380.67 484.853 385.343 487.425C388.379 489.293 391.649 489.993 394.921 489.993ZM411.973 464.998C413.374 469.438 412.907 474.342 410.572 478.315C408.234 482.518 404.498 485.554 400.058 486.721C395.621 488.125 390.714 487.658 386.745 485.32C382.538 482.985 379.503 479.249 378.335 474.809C375.533 465.466 380.904 455.655 390.247 452.853C399.357 450.517 409.168 455.655 411.973 464.998ZM406.833 437.668C407.77 437.668 408.937 437.435 409.871 437.201C412.674 436.501 414.775 434.633 416.176 432.064C417.58 429.492 417.814 426.69 417.111 424.121C416.41 421.316 414.542 419.215 411.973 417.814C409.404 416.412 406.599 416.179 404.031 416.879C398.423 418.514 395.154 424.355 396.791 429.959C397.492 432.764 399.36 434.866 401.929 436.267C403.33 437.201 404.965 437.668 406.833 437.668ZM406.833 418.748C408.237 418.748 409.638 418.981 410.805 419.682C412.674 420.849 414.075 422.487 414.775 424.588C415.476 426.69 415.242 429.025 414.075 430.893C412.907 432.764 411.273 434.165 409.171 434.866C407.066 435.567 404.731 435.333 402.863 434.165C400.995 432.998 399.594 431.363 398.893 429.259C397.726 424.822 400.061 420.382 404.498 418.981C405.198 418.981 405.899 418.748 406.833 418.748ZM380.44 523.862C381.374 523.862 382.541 523.629 383.475 523.395C389.083 521.761 392.352 515.92 390.717 510.312C389.083 504.708 383.242 501.436 377.635 503.073C372.03 504.708 368.758 510.546 370.395 516.153C371.563 520.826 375.766 523.862 380.44 523.862ZM388.382 511.016C389.55 515.453 387.214 519.89 382.775 521.293C378.338 522.461 373.898 520.126 372.497 515.686C371.329 511.249 373.665 506.81 378.104 505.409C382.541 504.007 386.978 506.576 388.382 511.016ZM405.126 535.508L406.155 537.604L384.562 548.212L383.531 546.116L405.126 535.508ZM429.876 396.032L442.169 416.715L440.162 417.908L427.869 397.228L429.876 396.032ZM348.155 517.438L358.767 539.033L356.671 540.064L346.059 518.469L348.155 517.438ZM407.2 388.229L408 390.422L385.396 398.665L384.596 396.469L407.2 388.229Z" fill="black"/>
<path d="M405.568 373.562L469.274 405.459L392.41 558.982L328.704 527.087L405.568 373.562Z" fill="white"/>
<path d="M392.819 561.006L470.837 405.201L405.198 372.266L327.18 528.068L392.819 561.006ZM467.568 406.368L391.651 557.97L330.216 527.134L406.132 375.535L467.568 406.368Z" fill="black"/>
<path d="M390.951 551.896L462.661 408.706L407.066 380.909L335.356 524.099L390.951 551.896ZM459.625 409.64L390.014 548.627L338.626 522.931L408.237 383.945L459.625 409.64Z" fill="black"/>
<path d="M399.127 488.826C399.827 488.826 400.761 488.826 401.462 488.592C406.836 487.892 411.506 485.323 414.775 481.12C418.047 476.914 419.449 471.776 418.981 466.402C418.281 461.029 415.709 456.358 411.506 453.089C407.303 449.817 402.162 448.416 396.792 448.883C391.418 449.583 386.745 452.152 383.475 456.358C380.206 460.562 378.805 465.702 379.272 471.073C379.973 476.447 382.541 481.12 386.745 484.389C390.484 487.425 394.687 488.826 399.127 488.826ZM416.646 466.869C417.113 471.543 415.946 476.213 412.907 479.949C410.105 483.688 405.899 486.024 401.228 486.491C396.555 486.958 391.885 485.79 388.149 482.754C384.409 479.949 382.074 475.746 381.607 471.073C380.44 461.496 387.445 452.622 397.022 451.452C401.695 450.985 406.366 452.152 410.105 455.191C413.841 457.993 416.179 462.199 416.646 466.869ZM418.045 439.072C418.514 439.072 418.981 439.072 419.215 439.072C425.053 438.372 429.026 433.231 428.559 427.393C427.858 421.553 422.718 417.58 416.877 418.05C411.039 418.75 407.066 423.888 407.533 429.729C408.234 435.1 412.674 439.072 418.045 439.072ZM426.221 427.393C426.688 431.83 423.418 436.034 418.981 436.501C414.542 436.971 410.338 433.698 409.871 429.262C409.404 424.822 412.674 420.619 417.111 420.152C421.55 419.685 425.754 422.954 426.221 427.393ZM377.637 519.659C378.104 519.659 378.571 519.659 378.805 519.659C381.607 519.425 384.176 518.024 385.811 515.689C387.448 513.587 388.382 510.782 387.915 507.98C387.679 505.178 386.28 502.609 383.942 500.972C381.841 499.337 379.038 498.403 376.233 498.87C373.431 499.104 370.862 500.505 369.228 502.843C367.59 504.944 366.656 507.747 367.123 510.549C367.357 513.354 368.761 515.923 371.096 517.557C372.964 518.725 375.299 519.659 377.637 519.659ZM377.637 500.738C379.505 500.738 381.14 501.439 382.775 502.609C384.409 504.01 385.577 505.878 385.811 507.98C386.044 510.082 385.577 512.42 384.176 514.054C382.775 515.689 380.907 516.857 378.571 517.09C376.467 517.324 374.132 516.857 372.497 515.456C370.862 514.054 369.695 512.186 369.461 510.082C369.228 507.98 369.695 505.645 371.096 504.01C372.497 502.376 374.365 501.205 376.7 500.972C376.937 500.738 377.401 500.738 377.637 500.738ZM398.387 534.696L399.052 536.934L375.992 543.792L375.324 541.551L398.387 534.696ZM445.942 401.409L454.607 423.855L452.428 424.694L443.765 402.248L445.942 401.409ZM345.937 507.616L352.795 530.676L350.555 531.343L343.699 508.283L345.937 507.616ZM425.139 389.736L425.562 392.035L401.898 396.388L401.476 394.092L425.139 389.736Z" fill="black"/>
<path d="M409.635 381.143L472.238 414.778L438.133 451.919C430.191 460.562 423.185 469.905 417.111 480.183C415.476 482.985 414.075 485.557 412.671 488.359C405.432 502.139 400.525 517.09 397.489 532.275L390.715 565.91L328.112 532.275L350.304 463.364C353.574 453.553 358.247 444.443 364.785 436.501L409.635 381.143Z" fill="white"/>
<path d="M391.649 567.778L398.657 532.505C401.926 516.623 406.833 502.139 413.841 488.826C415.242 486.024 416.877 483.452 418.278 480.65C423.886 471.073 430.658 461.729 439.067 452.619L474.106 414.311L409.168 379.505L363.851 435.8C357.313 443.976 352.406 453.086 349.137 462.897L326.477 532.739L391.649 567.778ZM470.37 415.011L437.432 451.218C429.023 460.328 422.017 469.905 416.41 479.716C414.775 482.518 413.374 485.087 411.973 487.892C404.965 501.205 399.825 516.156 396.555 532.038L390.014 564.275L329.516 531.805L351.472 463.831C354.508 454.254 359.415 445.377 365.72 437.435L409.869 382.541L470.37 415.011Z" fill="black"/>
<path d="M390.481 558.668L393.283 538.112C396.088 518.024 402.16 499.571 411.036 483.219L411.97 481.584C418.745 469.438 427.155 457.993 437.432 447.482L466.164 417.58L411.27 388.148L410.569 388.849C408.934 390.72 368.989 432.764 359.645 450.284C350.302 467.57 336.288 525.967 335.587 528.302L335.353 529.236L390.481 558.668ZM462.424 418.281L435.798 446.078C425.517 456.825 416.641 468.504 409.869 480.65L408.934 482.285C399.824 498.87 393.75 517.557 390.948 537.879L388.613 555.165L338.156 528.068C340.027 520.593 353.34 467.336 361.75 451.452C370.393 435.567 406.599 396.791 411.737 391.187L462.424 418.281Z" fill="black"/>
<path d="M386.508 489.059C386.975 489.059 387.445 489.059 387.912 488.826C390.714 487.892 392.116 484.853 393.984 481.117C394.918 479.249 396.088 476.914 397.256 474.809C398.657 472.707 400.058 470.839 401.459 468.971C404.498 465.232 406.833 461.963 406.366 458.693C406.132 456.823 404.731 454.954 402.16 453.553C397.723 450.751 392.349 450.05 386.978 451.452C381.838 452.853 377.167 456.122 374.362 460.562C368.758 469.672 371.56 481.584 381.137 487.425C383.473 488.592 385.107 489.059 386.508 489.059ZM392.349 452.853C395.618 452.853 398.657 453.787 401.226 455.421C403.094 456.589 404.261 457.759 404.498 459.161C404.965 461.496 402.627 464.298 400.058 467.57C398.657 469.438 397.022 471.54 395.621 473.642C394.22 475.977 393.05 478.315 392.116 480.183C390.481 483.452 389.313 486.257 387.445 486.724C386.278 486.958 384.64 486.491 382.538 485.32C374.129 480.183 371.56 469.672 376.467 461.729C379.036 457.759 383.005 454.721 387.679 453.553C389.313 453.086 390.948 452.853 392.349 452.853ZM417.578 436.034C419.212 436.034 421.083 435.567 422.484 434.866C427.622 432.061 429.49 425.756 426.688 420.616C423.885 415.478 417.578 413.607 412.44 416.412C407.3 419.215 405.432 425.523 408.234 430.66C410.102 433.932 413.841 436.034 417.578 436.034ZM417.578 417.113C420.616 417.113 423.418 418.748 424.819 421.55C426.921 425.523 425.52 430.426 421.547 432.762C417.578 434.866 412.674 433.465 410.336 429.492C408.234 425.523 409.635 420.616 413.608 418.281C414.775 417.58 416.176 417.113 417.578 417.113ZM369.692 522.228C373.195 522.228 376.7 520.359 378.802 517.09C380.203 514.755 380.67 511.716 379.97 509.148C379.269 506.345 377.635 504.007 375.063 502.606C370.159 499.571 363.618 501.205 360.582 506.345C357.546 511.249 359.181 517.791 364.318 520.826C365.953 521.761 367.824 522.228 369.692 522.228ZM369.692 503.307C371.093 503.307 372.494 503.774 373.895 504.475C375.764 505.645 377.167 507.28 377.635 509.615C378.102 511.716 377.868 514.052 376.7 515.923C374.362 519.892 369.225 521.06 365.486 518.725C361.516 516.39 360.348 511.249 362.684 507.513C364.085 504.711 366.89 503.307 369.692 503.307ZM343.719 504.235L352.762 535.905L350.516 536.547L341.472 504.875L343.719 504.235ZM426.804 397.267L427.441 399.513L395.521 408.537L394.887 406.288L426.804 397.267ZM390.698 542.055L391.507 544.245L375.291 550.233L374.482 548.043L390.698 542.055ZM447.841 407.953L457.051 426.329L454.96 427.374L445.753 408.998L447.841 407.953Z" fill="black"/>
<path d="M467.098 476.446C415.24 423.187 277.657 459.16 430.424 483.922C418.979 482.754 392.349 475.746 391.181 494.667C391.181 500.741 393.984 509.381 400.992 509.851C386.975 510.551 379.733 531.34 391.415 539.516C378.332 537.412 374.129 556.802 385.341 561.006C401.226 566.846 438.133 588.102 457.287 596.045C461.023 596.045 472.469 595.111 474.103 591.839C518.486 515.922 552.357 551.662 467.098 476.446Z" fill="white"/>
<path d="M457.287 597.213H457.523C457.757 597.213 472.938 596.979 475.507 592.539C488.822 569.649 501.202 556.8 509.378 548.393C516.62 540.917 521.057 536.478 520.824 530.64C520.59 521.997 509.378 512.42 479.947 486.491C476.208 483.221 472.238 479.716 467.801 475.746C439.303 446.781 383.239 443.276 364.788 452.386C359.648 454.957 358.947 457.993 359.181 459.861C360.348 467.103 376.7 474.345 405.899 480.65C401.459 480.883 397.489 482.051 394.687 484.389C391.882 486.724 390.247 489.993 390.014 494.433C390.014 499.337 391.882 506.345 396.322 509.381C390.481 511.486 386.511 516.857 384.876 522.23C383.242 528.302 384.409 533.909 387.912 537.879C382.538 538.346 379.036 542.552 377.868 547.223C376.467 552.596 378.102 559.371 384.643 561.706C392.816 564.742 407.3 572.217 421.547 579.459C434.63 586.468 447.944 593.24 457.287 597.213ZM391.649 450.284C415.009 450.284 446.542 457.292 466.164 477.381C470.603 481.117 474.573 484.856 478.312 488.125C506.576 512.887 518.254 523.164 518.488 530.64C518.721 535.31 514.518 539.516 507.744 546.522C499.335 555.165 486.719 568.014 473.406 591.138C472.238 593.24 463.361 594.641 457.754 594.641C448.644 590.905 435.564 584.13 422.951 577.591C408.234 569.882 394.22 562.64 385.811 559.605C380.437 557.736 379.269 552.129 380.437 547.69C381.371 543.72 384.874 539.283 391.181 540.217L392.118 540.45L392.816 538.813L392.118 538.346C386.511 534.376 385.811 527.835 387.212 522.931C388.846 517.324 393.753 511.252 400.759 510.782V508.447C394.921 508.214 392.118 500.038 392.118 494.433C392.352 490.694 393.517 488.125 396.088 486.024C402.627 480.883 415.943 482.754 424.819 484.155C426.688 484.389 428.556 484.623 429.957 484.856L430.19 482.518C380.67 474.578 362.217 465.235 361.283 459.16C361.049 456.825 363.384 455.191 365.486 454.02C370.86 451.919 380.203 450.284 391.649 450.284ZM385.574 176.517L386.508 174.415C382.538 172.78 378.802 170.444 375.766 167.407C385.811 159.465 392.349 147.085 393.05 134.238C393.75 120.923 388.379 107.608 378.569 98.4983L376.934 100.133C386.278 108.776 391.415 121.39 390.714 134.004C390.014 146.618 383.473 158.764 373.428 166.239L372.261 166.94L373.195 167.874C376.467 171.612 380.67 174.415 385.574 176.517ZM382.074 219.497C398.19 219.029 413.608 212.255 424.119 200.81L422.484 199.174C412.207 210.153 397.489 216.694 382.074 217.161V219.497ZM356.145 146.851C352.145 146.851 348.903 143.609 348.903 139.61C348.903 135.611 352.145 132.369 356.145 132.369C360.143 132.369 363.387 135.611 363.387 139.61C363.387 143.609 360.143 146.851 356.145 146.851ZM423.418 143.815C419.418 143.815 416.176 140.573 416.176 136.574C416.176 132.575 419.418 129.332 423.418 129.332C427.416 129.332 430.66 132.575 430.66 136.574C430.66 140.573 427.416 143.815 423.418 143.815Z" fill="black"/>
<path d="M655.14 625.708C603.984 569.413 584.363 559.368 529.469 524.096C526.433 521.994 522.228 522.695 519.892 525.497C496.533 553.995 438.136 603.515 440.938 614.493C444.677 629.21 466.166 649.766 479.246 664.016L655.14 625.708Z" fill="white"/>
<path d="M478.549 665.184L480.183 663.549C477.845 660.98 475.51 658.411 472.708 655.606C460.329 642.526 444.911 626.175 442.108 614.496C440.471 608.188 463.598 585.297 483.92 564.976C497.468 551.426 511.717 537.412 520.594 526.431C522.462 524.096 525.966 523.395 528.535 525.263C533.441 528.302 538.112 531.338 542.317 534.14C586.932 562.638 607.488 575.487 653.972 626.642L655.608 625.007C608.89 573.619 588.334 560.536 543.485 532.038C539.047 529.236 534.609 526.434 529.703 523.162C526.199 520.826 521.293 521.527 518.49 525.03C509.614 535.777 495.599 549.791 481.818 563.338C454.254 590.902 437.435 607.954 439.303 614.963C442.575 627.342 457.991 643.928 470.603 657.241C473.875 660.046 476.211 662.848 478.549 665.184ZM405.365 505.289L432.32 508.038L432.084 510.363L405.126 507.613L405.365 505.289ZM417.344 543.016L417.811 540.681C409.869 539.28 402.16 537.178 394.921 534.373L393.987 536.478C401.459 539.514 409.402 541.615 417.344 543.016Z" fill="black"/>
<path d="M472.941 656.31C505.876 634.82 548.857 598.38 566.844 547.69L564.742 546.989C546.755 597.212 504.241 632.949 471.774 654.442L472.941 656.31ZM469.436 143.347C447.012 26.0849 405.902 119.287 339.329 105.038C310.361 98.7313 273.687 78.6424 276.025 45.9399C277.894 33.0927 290.974 21.4134 303.586 25.1508C293.309 -16.6618 370.629 7.86503 393.052 5.99632C467.334 4.82844 496.532 120.922 469.436 143.347ZM413.374 356.615C423.418 356.615 431.828 354.043 440.471 350.073L439.537 347.972C425.52 354.277 411.973 357.082 390.951 350.54L390.247 352.876C399.124 355.213 406.599 356.615 413.374 356.615ZM473.386 356.987L475.716 412.336L473.386 412.5L471.056 357.151L473.386 356.987ZM360.084 363.984L360.732 378.685L358.4 378.788L357.752 364.087L360.084 363.984Z" fill="black"/>
<path d="M0.62204 172.312H229.538V503.307H0.62204V172.312Z" fill="black"/>
<path d="M0.621995 240.052H229.538V242.387H0.621995V240.052ZM0.621995 322.743H229.538V325.081H0.621995V322.743ZM0.621995 414.077H229.538V416.412H0.621995V414.077Z" fill="white"/>
<path d="M204.78 489.76L213.189 485.787L187.727 434.166H139.375L105.503 343.298L78.4065 370.629L43.6037 223.701L34.4936 225.803L73.269 389.082L102 360.351L132.833 443.509H181.889L204.78 489.76Z" fill="white"/>
<path d="M33.5566 199.409L56.917 225.104L21.4108 231.878L33.5566 199.409Z" fill="white"/>
<path d="M447 602L441 612.5V616L449.5 632.5L459.5 644L471 656L498 637L523 613.5L546.5 585.5L561.5 559L565.5 548L538 530.5L527.5 523.5H522L517.5 528.5L468.5 579L447 602Z" fill="black"/>
</svg>
