<svg width="90" height="24" viewBox="0 0 90 24" fill="none" xmlns="http://www.w3.org/2000/svg">
<g clip-path="url(#clip0_514_401)">
<path d="M0 5.84253H5.35441L8.47221 13.5126L11.6305 5.84253H16.8439L8.99366 24H3.74723L5.8961 19.1886L0 5.84253Z" fill="black"/>
<path d="M22.2748 5.53711C18.2517 5.53711 15.7085 9.00647 15.7085 12.4614C15.7085 16.3492 18.4968 19.4316 22.1984 19.4316C24.9597 19.4316 26.0008 17.8139 26.0008 17.8139V19.074H30.6709V5.84253H26.0008V7.04539C26.0008 7.04539 24.8392 5.53711 22.2748 5.53711ZM23.2681 9.7892C25.1244 9.7892 26.0822 11.2016 26.0822 12.4759C26.0822 13.8482 25.056 15.1949 23.2681 15.1949C21.7863 15.1949 20.4472 14.0305 20.4472 12.5344C20.4472 11.017 21.5243 9.7892 23.2681 9.7892Z" fill="black"/>
<path d="M32.2793 19.074V0H37.1639V7.09124C37.1639 7.09124 38.3241 5.53878 40.754 5.53878C43.7263 5.53878 45.4678 7.66827 45.4678 10.7112V19.074H40.6189V11.8568C40.6189 10.827 40.1087 9.83218 38.9532 9.83218C37.7769 9.83218 37.1639 10.8421 37.1639 11.8568V19.074H32.2793Z" fill="black"/>
<path d="M53.796 5.5387C49.1889 5.5387 46.4456 8.90732 46.4456 12.5165C46.4456 16.6237 49.7671 19.4316 53.8134 19.4316C57.7353 19.4316 61.1671 16.7512 61.1671 12.5854C61.1671 8.02725 57.5739 5.5387 53.796 5.5387ZM53.84 9.82815C55.4674 9.82815 56.5934 11.1315 56.5934 12.5214C56.5934 13.7068 55.5441 15.169 53.84 15.169C52.2784 15.169 51.1066 13.9645 51.1066 12.5084C51.1066 11.1057 52.0809 9.82815 53.84 9.82815Z" fill="black"/>
<path d="M69.3045 5.5387C64.6974 5.5387 61.9541 8.90732 61.9541 12.5165C61.9541 16.6237 65.2756 19.4316 69.322 19.4316C73.2439 19.4316 76.6756 16.7512 76.6756 12.5854C76.6756 8.02725 73.0825 5.5387 69.3045 5.5387ZM69.3485 9.82815C70.9759 9.82815 72.1019 11.1315 72.1019 12.5214C72.1019 13.7068 71.0527 15.169 69.3485 15.169C67.787 15.169 66.6151 13.9645 66.6151 12.5084C66.6151 11.1057 67.5894 9.82815 69.3485 9.82815Z" fill="black"/>
<path d="M80.5299 19.3549C82.3213 19.3549 83.7735 17.9585 83.7735 16.236C83.7735 14.5135 82.3213 13.1171 80.5299 13.1171C78.7386 13.1171 77.2864 14.5135 77.2864 16.236C77.2864 17.9585 78.7386 19.3549 80.5299 19.3549Z" fill="black"/>
<path d="M84.8393 11.9714H79L84.1824 0H89.9999L84.8393 11.9714Z" fill="black"/>
</g>
<defs>
<clipPath id="clip0_514_401">
<rect width="90" height="24" fill="white"/>
</clipPath>
</defs>
</svg>
