<svg width="48" height="48" viewBox="0 0 48 48" fill="none" xmlns="http://www.w3.org/2000/svg">
<g filter="url(#filter0_d_3196_142)">
<rect x="4" y="1" width="40" height="40" rx="10" fill="white"/>
</g>
<g clip-path="url(#clip0_3196_142)">
<path d="M21.917 17.25V24.75L27.7503 21L21.917 17.25Z" stroke="#303C42" stroke-linecap="round" stroke-linejoin="round"/>
<path d="M16.6083 14.475L18.1667 14.275C20.1018 14.0343 22.05 13.9146 24 13.9167V13.9167C25.95 13.9146 27.8982 14.0343 29.8333 14.275L31.4167 14.475C32.0249 14.5506 32.5842 14.847 32.9883 15.3079C33.3924 15.7688 33.613 16.3621 33.6083 16.975V25.0583C33.613 25.6712 33.3924 26.2645 32.9883 26.7254C32.5842 27.1863 32.0249 27.4827 31.4167 27.5583L29.8333 27.7583C27.8982 27.999 25.95 28.1187 24 28.1167V28.1167C22.05 28.1187 20.1018 27.999 18.1667 27.7583L16.5833 27.5583C15.9751 27.4827 15.4158 27.1863 15.0117 26.7254C14.6077 26.2645 14.387 25.6712 14.3917 25.0583V16.9583C14.3918 16.3444 14.6178 15.7521 15.0266 15.2941C15.4354 14.8361 15.9984 14.5446 16.6083 14.475V14.475Z" stroke="#303C42" stroke-linecap="round" stroke-linejoin="round"/>
</g>
<defs>
<filter id="filter0_d_3196_142" x="0" y="0" width="48" height="48" filterUnits="userSpaceOnUse" color-interpolation-filters="sRGB">
<feFlood flood-opacity="0" result="BackgroundImageFix"/>
<feColorMatrix in="SourceAlpha" type="matrix" values="0 0 0 0 0 0 0 0 0 0 0 0 0 0 0 0 0 0 127 0" result="hardAlpha"/>
<feOffset dy="3"/>
<feGaussianBlur stdDeviation="2"/>
<feComposite in2="hardAlpha" operator="out"/>
<feColorMatrix type="matrix" values="0 0 0 0 0 0 0 0 0 0 0 0 0 0 0 0 0 0 0.1 0"/>
<feBlend mode="normal" in2="BackgroundImageFix" result="effect1_dropShadow_3196_142"/>
<feBlend mode="normal" in="SourceGraphic" in2="effect1_dropShadow_3196_142" result="shape"/>
</filter>
<clipPath id="clip0_3196_142">
<rect width="20" height="20" fill="white" transform="translate(14 11)"/>
</clipPath>
</defs>
</svg>
