<svg width="54" height="40" viewBox="0 0 54 40" fill="none" xmlns="http://www.w3.org/2000/svg">
<path d="M11.1756 37.3645L11.185 37.3652L11.1944 37.3657C14.0154 37.5306 21.0003 37.625 27.0057 37.625C33.0005 37.625 39.981 37.5306 42.8034 37.3687L42.8138 37.3681L42.8241 37.3674C44.2153 37.2731 45.5836 37.1147 46.7975 36.534C48.1038 35.9091 49.0208 34.9079 49.7808 33.5618C51.3754 30.8487 52 26.497 52 19.8297V19.8154V19.8068C52 13.1003 51.3736 8.78334 49.7797 6.05198C49.0206 4.70638 48.1024 3.69941 46.7902 3.07561C45.5725 2.49677 44.2034 2.34716 42.8099 2.26831C39.9671 2.0765 32.9791 2 27.0057 2C21.0188 2 14.0273 2.07657 11.1899 2.26546C9.79923 2.3457 8.43141 2.49548 7.21317 3.07361C5.89955 3.697 4.97714 4.70372 4.21111 6.05305C2.63479 8.77876 2 13.0893 2 19.8039V19.8269C2 26.5043 2.63266 30.8507 4.21357 33.559C4.97987 34.906 5.89993 35.9068 7.20673 36.5314C8.42062 37.1116 9.78645 37.2702 11.1756 37.3645Z" fill="#F44336" stroke="#191C22" stroke-width="4"/>
<path fill-rule="evenodd" clip-rule="evenodd" d="M21.25 28.4375V11.1875L35.625 19.8125L21.25 28.4375Z" fill="#FAFAFA"/>
</svg>
