<svg width="40" height="41" viewBox="0 0 40 41" fill="none" xmlns="http://www.w3.org/2000/svg">
<g clip-path="url(#clip0_2280_222)">
<path d="M39.5811 20.4095C39.5811 9.52272 30.7557 0.697266 19.8689 0.697266C8.98219 0.697266 0.156738 9.52272 0.156738 20.4095C0.156738 30.2484 7.3652 38.4034 16.7889 39.8821V26.1075H11.7839V20.4095H16.7889V16.0666C16.7889 11.1262 19.7318 8.39734 24.2345 8.39734C26.3912 8.39734 28.647 8.78235 28.647 8.78235V13.6334H26.1613C23.7126 13.6334 22.949 15.1529 22.949 16.7118V20.4095H28.416L27.5421 26.1075H22.949V39.8821C32.3727 38.4034 39.5811 30.2484 39.5811 20.4095Z" fill="white"/>
</g>
<defs>
<clipPath id="clip0_2280_222">
<rect width="39.4244" height="39.4244" fill="white" transform="translate(0.156738 0.697266)"/>
</clipPath>
</defs>
</svg>
