<svg width="34" height="34" viewBox="0 0 34 34" fill="none" xmlns="http://www.w3.org/2000/svg">
<g clip-path="url(#clip0_2047_273)">
<path d="M12.1417 15.4062H3.26453C2.39894 15.4055 1.569 15.0614 0.956936 14.4493C0.34487 13.8372 0.000703447 13.0073 0 12.1417L0 3.26453C0.000703447 2.39894 0.34487 1.569 0.956936 0.956936C1.569 0.34487 2.39894 0.000703447 3.26453 0L12.1417 0C13.0073 0.000703447 13.8372 0.34487 14.4493 0.956936C15.0614 1.569 15.4055 2.39894 15.4062 3.26453V12.1417C15.4055 13.0073 15.0614 13.8372 14.4493 14.4493C13.8372 15.0614 13.0073 15.4055 12.1417 15.4062ZM3.26453 1.0625C2.68073 1.0632 2.12105 1.29543 1.70824 1.70824C1.29543 2.12105 1.0632 2.68073 1.0625 3.26453V12.1417C1.0632 12.7255 1.29543 13.2852 1.70824 13.698C2.12105 14.1108 2.68073 14.343 3.26453 14.3438H12.1417C12.7255 14.343 13.2852 14.1108 13.698 13.698C14.1108 13.2852 14.343 12.7255 14.3438 12.1417V3.26453C14.343 2.68073 14.1108 2.12105 13.698 1.70824C13.2852 1.29543 12.7255 1.0632 12.1417 1.0625H3.26453ZM30.7355 15.4062H21.8583C20.9927 15.4055 20.1628 15.0614 19.5507 14.4493C18.9386 13.8372 18.5945 13.0073 18.5938 12.1417V3.26453C18.5945 2.39894 18.9386 1.569 19.5507 0.956936C20.1628 0.34487 20.9927 0.000703447 21.8583 0L30.7355 0C31.6011 0.000703447 32.431 0.34487 33.0431 0.956936C33.6551 1.569 33.9993 2.39894 34 3.26453V12.1417C33.9993 13.0073 33.6551 13.8372 33.0431 14.4493C32.431 15.0614 31.6011 15.4055 30.7355 15.4062ZM21.8583 1.0625C21.2745 1.0632 20.7148 1.29543 20.302 1.70824C19.8892 2.12105 19.657 2.68073 19.6562 3.26453V12.1417C19.657 12.7255 19.8892 13.2852 20.302 13.698C20.7148 14.1108 21.2745 14.343 21.8583 14.3438H30.7355C31.3193 14.343 31.879 14.1108 32.2918 13.698C32.7046 13.2852 32.9368 12.7255 32.9375 12.1417V3.26453C32.9368 2.68073 32.7046 2.12105 32.2918 1.70824C31.879 1.29543 31.3193 1.0632 30.7355 1.0625H21.8583ZM12.1417 34H3.26453C2.39894 33.9993 1.569 33.6551 0.956936 33.0431C0.34487 32.431 0.000703447 31.6011 0 30.7355V21.8583C0.000703447 20.9927 0.34487 20.1628 0.956936 19.5507C1.569 18.9386 2.39894 18.5945 3.26453 18.5938H12.1417C13.0073 18.5945 13.8372 18.9386 14.4493 19.5507C15.0614 20.1628 15.4055 20.9927 15.4062 21.8583V30.7355C15.4055 31.6011 15.0614 32.431 14.4493 33.0431C13.8372 33.6551 13.0073 33.9993 12.1417 34ZM3.26453 19.6562C2.68073 19.657 2.12105 19.8892 1.70824 20.302C1.29543 20.7148 1.0632 21.2745 1.0625 21.8583V30.7355C1.0632 31.3193 1.29543 31.879 1.70824 32.2918C2.12105 32.7046 2.68073 32.9368 3.26453 32.9375H12.1417C12.7255 32.9368 13.2852 32.7046 13.698 32.2918C14.1108 31.879 14.343 31.3193 14.3438 30.7355V21.8583C14.343 21.2745 14.1108 20.7148 13.698 20.302C13.2852 19.8892 12.7255 19.657 12.1417 19.6562H3.26453ZM30.7355 34H21.8583C20.9927 33.9993 20.1628 33.6551 19.5507 33.0431C18.9386 32.431 18.5945 31.6011 18.5938 30.7355V21.8583C18.5945 20.9927 18.9386 20.1628 19.5507 19.5507C20.1628 18.9386 20.9927 18.5945 21.8583 18.5938H30.7355C31.6011 18.5945 32.431 18.9386 33.0431 19.5507C33.6551 20.1628 33.9993 20.9927 34 21.8583V30.7355C33.9993 31.6011 33.6551 32.431 33.0431 33.0431C32.431 33.6551 31.6011 33.9993 30.7355 34ZM21.8583 19.6562C21.2745 19.657 20.7148 19.8892 20.302 20.302C19.8892 20.7148 19.657 21.2745 19.6562 21.8583V30.7355C19.657 31.3193 19.8892 31.879 20.302 32.2918C20.7148 32.7046 21.2745 32.9368 21.8583 32.9375H30.7355C31.3193 32.9368 31.879 32.7046 32.2918 32.2918C32.7046 31.879 32.9368 31.3193 32.9375 30.7355V21.8583C32.9368 21.2745 32.7046 20.7148 32.2918 20.302C31.879 19.8892 31.3193 19.657 30.7355 19.6562H21.8583Z" fill="white"/>
</g>
<defs>
<clipPath id="clip0_2047_273">
<rect width="34" height="34" fill="white"/>
</clipPath>
</defs>
</svg>
