<svg width="24" height="24" viewBox="0 0 24 24" fill="none" xmlns="http://www.w3.org/2000/svg">
<path d="M17.863 7.75543C17.4816 7.71774 17.0966 7.75919 16.732 7.87719C16.3674 7.99518 16.0311 8.18717 15.7441 8.44114C15.367 8.83854 15.1603 9.36765 15.1681 9.91543V12.4183C15.1672 12.4711 15.1768 12.5235 15.1964 12.5726C15.216 12.6216 15.2451 12.6663 15.2821 12.704C15.3192 12.7416 15.3633 12.7715 15.412 12.7919C15.4607 12.8124 15.513 12.8229 15.5658 12.8229H17.0607C17.1826 12.823 17.3031 12.8499 17.4135 12.9015C17.524 12.9531 17.6219 13.0283 17.7003 13.1217C17.7787 13.2151 17.8357 13.3245 17.8673 13.4423C17.899 13.56 17.9045 13.6833 17.8835 13.8034V13.8583C17.8468 14.0513 17.7438 14.2255 17.5923 14.3507C17.4408 14.4759 17.2503 14.5443 17.0538 14.544H15.5521C15.4466 14.544 15.3455 14.5859 15.2709 14.6605C15.1963 14.7351 15.1544 14.8362 15.1544 14.9417V22.0869C15.1544 22.1988 15.1321 22.3096 15.0889 22.4128C15.0457 22.5161 14.9823 22.6097 14.9025 22.6882C14.8228 22.7667 14.7281 22.8285 14.6242 22.8701C14.5203 22.9116 14.4092 22.9321 14.2973 22.9303H14.0915C13.8714 22.9249 13.6621 22.8337 13.5084 22.6761C13.3546 22.5185 13.2686 22.307 13.2687 22.0869V14.8937C13.2696 14.8412 13.26 14.7891 13.2403 14.7404C13.2206 14.6918 13.1914 14.6475 13.1543 14.6104C13.1171 14.5733 13.0729 14.544 13.0243 14.5244C12.9756 14.5047 12.9235 14.4951 12.871 14.496H11.3898C11.1771 14.4965 10.9723 14.4159 10.8169 14.2707C10.6615 14.1255 10.5672 13.9265 10.5533 13.7143C10.5523 13.6042 10.5734 13.495 10.6151 13.3931C10.6568 13.2912 10.7184 13.1986 10.7962 13.1207C10.8741 13.0428 10.9667 12.9813 11.0686 12.9395C11.1705 12.8978 11.2797 12.8768 11.3898 12.8777H12.9053C12.9581 12.8777 13.0103 12.8672 13.0591 12.8468C13.1078 12.8264 13.1519 12.7965 13.1889 12.7588C13.226 12.7212 13.2551 12.6765 13.2747 12.6274C13.2943 12.5784 13.3039 12.5259 13.303 12.4731V9.49029C13.3023 8.98829 13.4119 8.49228 13.624 8.03728C13.8361 7.58229 14.1455 7.17942 14.5304 6.85714C15.2161 6.31543 16.471 6.26057 17.479 6.336C17.6906 6.35153 17.8886 6.44627 18.0335 6.60132C18.1784 6.75638 18.2595 6.96036 18.2607 7.17257C18.2607 7.17257 18.247 7.74172 17.863 7.75543Z" fill="white"/>
<path d="M17.3965 23.8286H6.60339C4.89807 23.8268 3.26312 23.1485 2.05728 21.9427C0.85144 20.7368 0.173202 19.1019 0.171387 17.3966V6.60343C0.173202 4.89811 0.85144 3.26316 2.05728 2.05732C3.26312 0.851478 4.89807 0.17324 6.60339 0.171425H17.3965C19.1018 0.17324 20.7368 0.851478 21.9426 2.05732C23.1485 3.26316 23.8267 4.89811 23.8285 6.60343V17.3966C23.8267 19.1019 23.1485 20.7368 21.9426 21.9427C20.7368 23.1485 19.1018 23.8268 17.3965 23.8286ZM6.60339 1.88571C5.35273 1.88752 4.15381 2.38515 3.26946 3.2695C2.38511 4.15385 1.88749 5.35277 1.88567 6.60343V17.3966C1.88749 18.6472 2.38511 19.8461 3.26946 20.7305C4.15381 21.6148 5.35273 22.1125 6.60339 22.1143H17.3965C18.6472 22.1125 19.8461 21.6148 20.7305 20.7305C21.6148 19.8461 22.1124 18.6472 22.1142 17.3966V6.60343C22.1124 5.35277 21.6148 4.15385 20.7305 3.2695C19.8461 2.38515 18.6472 1.88752 17.3965 1.88571H6.60339Z" fill="white"/>
</svg>
