<svg width="24" height="24" viewBox="0 0 24 24" fill="none" xmlns="http://www.w3.org/2000/svg">
<path d="M17.3965 23.8286H6.60339C4.89807 23.8268 3.26312 23.1485 2.05728 21.9427C0.85144 20.7368 0.173202 19.1019 0.171387 17.3966V6.60343C0.173202 4.89811 0.85144 3.26316 2.05728 2.05732C3.26312 0.851482 4.89807 0.173244 6.60339 0.171429H17.3965C19.1018 0.173244 20.7368 0.851482 21.9426 2.05732C23.1485 3.26316 23.8267 4.89811 23.8285 6.60343V17.3966C23.8267 19.1019 23.1485 20.7368 21.9426 21.9427C20.7368 23.1485 19.1018 23.8268 17.3965 23.8286ZM6.60339 1.88571C5.35273 1.88753 4.15381 2.38515 3.26946 3.2695C2.38511 4.15385 1.88749 5.35277 1.88567 6.60343V17.3966C1.88749 18.6472 2.38511 19.8461 3.26946 20.7305C4.15381 21.6148 5.35273 22.1125 6.60339 22.1143H17.3965C18.6472 22.1125 19.8461 21.6148 20.7305 20.7305C21.6148 19.8461 22.1124 18.6472 22.1142 17.3966V6.60343C22.1124 5.35277 21.6148 4.15385 20.7305 3.2695C19.8461 2.38515 18.6472 1.88753 17.3965 1.88571H6.60339Z" fill="white"/>
<path d="M12 18.192C10.7795 18.192 9.58627 17.8301 8.57138 17.1519C7.5565 16.4738 6.76549 15.51 6.29839 14.3823C5.83129 13.2546 5.70907 12.0137 5.9472 10.8166C6.18532 9.61944 6.7731 8.5198 7.63619 7.65671C8.49927 6.79362 9.59892 6.20585 10.7961 5.96772C11.9932 5.7296 13.2341 5.85181 14.3617 6.31891C15.4894 6.78601 16.4533 7.57702 17.1314 8.59191C17.8095 9.6068 18.1715 10.8 18.1715 12.0206C18.1715 13.6573 17.5213 15.2271 16.3639 16.3844C15.2065 17.5418 13.6368 18.192 12 18.192ZM12 7.54286C11.1127 7.53879 10.2441 7.79846 9.50465 8.28891C8.76515 8.77936 8.18804 9.47847 7.84659 10.2975C7.50513 11.1165 7.41473 12.0185 7.58685 12.8891C7.75896 13.7596 8.18584 14.5593 8.8133 15.1867C9.44075 15.8142 10.2405 16.2411 11.111 16.4132C11.9815 16.5853 12.8835 16.4949 13.7025 16.1535C14.5216 15.812 15.2207 15.2349 15.7111 14.4954C16.2016 13.7559 16.4613 12.8873 16.4572 12C16.45 10.8201 15.9781 9.6906 15.1438 8.85627C14.3094 8.02195 13.1799 7.55005 12 7.54286ZM18.1852 6.74743C18.458 6.74743 18.7196 6.63906 18.9125 6.44617C19.1054 6.25327 19.2138 5.99165 19.2138 5.71886C19.2138 5.44606 19.1054 5.18444 18.9125 4.99155C18.7196 4.79865 18.458 4.69028 18.1852 4.69028C17.9124 4.69028 17.6508 4.79865 17.4579 4.99155C17.265 5.18444 17.1566 5.44606 17.1566 5.71886C17.1566 5.99165 17.265 6.25327 17.4579 6.44617C17.6508 6.63906 17.9124 6.74743 18.1852 6.74743Z" fill="white"/>
</svg>
