<svg width="45" height="45" viewBox="0 0 45 45" fill="none" xmlns="http://www.w3.org/2000/svg">
<path d="M31.9365 10.4391C31.5045 10.4391 31.0822 10.5672 30.723 10.8073C30.3638 11.0473 30.0838 11.3884 29.9185 11.7875C29.7532 12.1867 29.7099 12.6259 29.7942 13.0496C29.8785 13.4733 30.0865 13.8625 30.392 14.168C30.6975 14.4735 31.0867 14.6815 31.5104 14.7658C31.9341 14.8501 32.3733 14.8068 32.7724 14.6415C33.1716 14.4762 33.5127 14.1962 33.7527 13.837C33.9927 13.4778 34.1209 13.0555 34.1209 12.6235C34.1209 12.0441 33.8907 11.4885 33.4811 11.0789C33.0714 10.6693 32.5159 10.4391 31.9365 10.4391ZM40.3098 14.8442C40.2744 13.3339 39.9915 11.8396 39.4725 10.4209C39.0096 9.20704 38.2892 8.10787 37.3609 7.19905C36.4596 6.26602 35.3578 5.5502 34.1391 5.10573C32.7241 4.57087 31.2282 4.28153 29.7158 4.25021C27.7863 4.14099 27.1674 4.14099 22.2163 4.14099C17.2652 4.14099 16.6463 4.14099 14.7168 4.25021C13.2044 4.28153 11.7085 4.57087 10.2935 5.10573C9.07699 5.5547 7.9762 6.26991 7.07164 7.19905C6.13862 8.1004 5.4228 9.20214 4.97833 10.4209C4.44346 11.8359 4.15413 13.3318 4.1228 14.8442C4.01359 16.7737 4.01359 17.3926 4.01359 22.3437C4.01359 27.2948 4.01359 27.9137 4.1228 29.8432C4.15413 31.3556 4.44346 32.8515 4.97833 34.2665C5.4228 35.4852 6.13862 36.587 7.07164 37.4883C7.9762 38.4175 9.07699 39.1327 10.2935 39.5817C11.7085 40.1165 13.2044 40.4059 14.7168 40.4372C16.6463 40.5464 17.2652 40.5464 22.2163 40.5464C27.1674 40.5464 27.7863 40.5464 29.7158 40.4372C31.2282 40.4059 32.7241 40.1165 34.1391 39.5817C35.3578 39.1372 36.4596 38.4214 37.3609 37.4883C38.2934 36.5829 39.0144 35.4828 39.4725 34.2665C39.9915 32.8477 40.2744 31.3535 40.3098 29.8432C40.3098 27.9137 40.419 27.2948 40.419 22.3437C40.419 17.3926 40.419 16.7737 40.3098 14.8442ZM37.0333 29.6248C37.02 30.7802 36.8108 31.9251 36.4144 33.0105C36.1238 33.8026 35.6569 34.5184 35.0492 35.1038C34.4588 35.7054 33.7445 36.1713 32.9559 36.469C31.8705 36.8654 30.7256 37.0746 29.5702 37.0879C27.7499 37.1789 27.0764 37.1971 22.2891 37.1971C17.5018 37.1971 16.8283 37.1971 15.008 37.0879C13.8083 37.1103 12.6136 36.9256 11.4767 36.5418C10.7227 36.2289 10.0412 35.7642 9.4744 35.1766C8.87023 34.5918 8.40926 33.8755 8.1274 33.0833C7.68299 31.9823 7.4365 30.8115 7.39929 29.6248C7.39929 27.8045 7.29007 27.131 7.29007 22.3437C7.29007 17.5564 7.29007 16.8829 7.39929 15.0626C7.40745 13.8814 7.62309 12.7107 8.03639 11.6041C8.35684 10.8358 8.84871 10.1509 9.4744 9.6018C10.0274 8.97594 10.7109 8.47887 11.4767 8.14559C12.5862 7.74521 13.7557 7.53594 14.9352 7.52669C16.7555 7.52669 17.429 7.41748 22.2163 7.41748C27.0036 7.41748 27.6771 7.41748 29.4974 7.52669C30.6528 7.53995 31.7977 7.74922 32.8831 8.14559C33.7103 8.45258 34.4527 8.95169 35.0492 9.6018C35.6457 10.1609 36.1118 10.8446 36.4144 11.6041C36.819 12.7125 37.0284 13.8827 37.0333 15.0626C37.1243 16.8829 37.1425 17.5564 37.1425 22.3437C37.1425 27.131 37.1243 27.8045 37.0333 29.6248ZM22.2163 13.0057C20.3702 13.0093 18.5666 13.56 17.0334 14.5883C15.5001 15.6165 14.3061 17.0762 13.6021 18.7828C12.8981 20.4894 12.7158 22.3664 13.0782 24.1766C13.4405 25.9868 14.3313 27.6489 15.638 28.9531C16.9446 30.2572 18.6085 31.1447 20.4194 31.5036C22.2303 31.8624 24.1069 31.6764 25.8122 30.9691C27.5174 30.2618 28.9747 29.0649 30 27.5297C31.0253 25.9945 31.5725 24.1898 31.5725 22.3437C31.5749 21.1152 31.3344 19.8984 30.8648 18.7631C30.3953 17.6279 29.7059 16.5968 28.8364 15.7289C27.9669 14.8611 26.9343 14.1737 25.7982 13.7064C24.6621 13.239 23.4448 13.0009 22.2163 13.0057ZM22.2163 28.4052C21.0174 28.4052 19.8455 28.0497 18.8487 27.3836C17.8519 26.7176 17.075 25.7709 16.6162 24.6633C16.1574 23.5557 16.0374 22.337 16.2713 21.1612C16.5051 19.9853 17.0824 18.9053 17.9302 18.0576C18.7779 17.2099 19.8579 16.6325 21.0338 16.3987C22.2096 16.1648 23.4283 16.2848 24.5359 16.7436C25.6435 17.2024 26.5902 17.9793 27.2562 18.9761C27.9223 19.9729 28.2778 21.1448 28.2778 22.3437C28.2778 23.1397 28.121 23.9279 27.8164 24.6633C27.5118 25.3987 27.0653 26.067 26.5024 26.6298C25.9396 27.1927 25.2713 27.6392 24.5359 27.9438C23.8005 28.2484 23.0123 28.4052 22.2163 28.4052Z" fill="white"/>
</svg>
