<svg width="44" height="46" viewBox="0 0 44 46" fill="none" xmlns="http://www.w3.org/2000/svg">
<path d="M21.8443 4.90051C12.1599 4.90051 4.30939 12.9432 4.30939 22.8639C4.30939 32.7845 12.1602 40.8272 21.8443 40.8272C31.5289 40.8272 39.3804 32.7842 39.3804 22.8639C39.38 12.9432 31.5289 4.90051 21.8443 4.90051ZM27.1518 21.6367C26.8256 29.8316 22.4225 32.8059 21.8646 33.1997C21.3352 33.574 21.0568 33.269 21.0568 33.269C21.0568 33.269 18.476 30.4183 18.1006 29.9154C17.7258 29.4138 18.231 29.0442 18.231 29.0442C20.8798 26.9973 21.3382 24.5666 21.4028 23.4897H18.1937C17.1946 23.4897 16.3851 22.6601 16.3851 21.6367V14.1943C16.3851 13.1709 17.1946 12.3413 18.1937 12.3413H25.3432C26.3423 12.3413 27.1518 13.1709 27.1518 14.1943V21.6367Z" fill="white"/>
</svg>
