<svg width="47" height="47" viewBox="0 0 47 47" fill="none" xmlns="http://www.w3.org/2000/svg">
<path d="M10.01 14.0348H9.95627C9.37091 14.0701 8.78456 13.9844 8.23383 13.7829C7.6831 13.5814 7.17982 13.2686 6.75542 12.8639C6.33102 12.4592 5.99461 11.9714 5.7672 11.4308C5.53978 10.8903 5.42626 10.3087 5.4337 9.72232C5.44114 9.13594 5.5694 8.5574 5.81046 8.02281C6.05152 7.48823 6.4002 7.00908 6.83474 6.6153C7.26928 6.22151 7.78034 5.92154 8.33601 5.73412C8.89167 5.5467 9.48001 5.47585 10.0643 5.52601C10.6515 5.48348 11.2411 5.5629 11.7961 5.75926C12.3511 5.95563 12.8594 6.26469 13.2892 6.66703C13.719 7.06936 14.0608 7.55626 14.2933 8.09711C14.5258 8.63796 14.6439 9.22107 14.6402 9.80976C14.6364 10.3985 14.5109 10.98 14.2715 11.5179C14.0321 12.0557 13.6841 12.5382 13.2492 12.935C12.8144 13.3318 12.3021 13.6344 11.7446 13.8237C11.1872 14.0129 10.5966 14.0848 10.01 14.0348Z" fill="white"/>
<path d="M13.8558 19.762H6.21956V42.6707H13.8558V19.762Z" fill="white"/>
<path d="M33.9001 19.762C32.6133 19.7655 31.344 20.0598 30.1869 20.6229C29.0299 21.186 28.0151 22.0034 27.2184 23.0139V19.762H19.5821V42.6707H27.2184V32.1709C27.2184 31.1583 27.6207 30.1871 28.3367 29.4711C29.0527 28.755 30.0239 28.3528 31.0365 28.3528C32.0491 28.3528 33.0203 28.755 33.7363 29.4711C34.4524 30.1871 34.8546 31.1583 34.8546 32.1709V42.6707H42.4909V28.3528C42.4909 27.2246 42.2687 26.1075 41.837 25.0652C41.4052 24.0229 40.7724 23.0759 39.9747 22.2781C39.177 21.4804 38.2299 20.8476 37.1877 20.4159C36.1454 19.9842 35.0283 19.762 33.9001 19.762Z" fill="white"/>
</svg>
