<svg width="46" height="47" viewBox="0 0 46 47" fill="none" xmlns="http://www.w3.org/2000/svg">
<path d="M31.0634 1.93103L24.0743 1.93311V31.4912C24.0743 34.0358 22.5913 36.3056 20.2964 37.2794C18.0015 38.2532 15.3887 37.7199 13.6322 35.9206C11.8758 34.1213 11.3552 31.442 12.3058 29.0911C13.2564 26.7402 15.4722 25.2246 17.9562 25.2246H20.2165V18.0643H17.9562C12.6649 18.0643 7.87268 21.3455 5.84778 26.3533C3.82288 31.3611 4.94682 37.1523 8.68836 40.9851C12.4299 44.8179 18.0839 45.9692 22.9725 43.8949C27.861 41.8207 31.0634 36.9116 31.0634 31.4912V15.1013C32.9664 16.2627 35.2143 17.1153 37.9789 17.1153H41.4721V9.9529H37.9789C34.0482 9.9529 32.9825 8.31516 32.0492 6.23673C31.1168 4.16027 31.0634 1.93103 31.0634 1.93103Z" fill="white"/>
</svg>
