<svg width="53" height="56" viewBox="0 0 53 56" fill="none" xmlns="http://www.w3.org/2000/svg">
<path d="M48.2677 13.8737C46.6201 14.6233 44.8777 15.1189 43.0947 15.345C44.9758 14.1664 46.3854 12.3123 47.0621 10.1265C45.2944 11.2301 43.3594 12.0077 41.3411 12.4254C39.9921 10.8911 38.1956 9.86975 36.2335 9.5216C34.2714 9.17345 32.2545 9.51817 30.4993 10.5017C28.7441 11.4852 27.3498 13.0519 26.5351 14.9561C25.7204 16.8603 25.5313 18.9942 25.9975 21.0232C22.4234 20.8336 18.9273 19.8575 15.7363 18.1585C12.5453 16.4594 9.73078 14.0753 7.47561 11.161C6.68461 12.6097 6.26898 14.2503 6.27004 15.9197C6.26723 17.47 6.62999 18.997 7.32602 20.3647C8.02204 21.7324 9.02973 22.8984 10.2594 23.7588C8.83018 23.7181 7.43152 23.3158 6.18236 22.5864V22.7014C6.19307 24.8735 6.91884 26.9752 8.2369 28.6507C9.55496 30.3263 11.3844 31.473 13.4158 31.8968C12.6338 32.1464 11.822 32.278 11.0046 32.2876C10.4389 32.2807 9.87452 32.2269 9.31684 32.1267C9.89531 33.9953 11.0148 35.6282 12.5194 36.7984C14.0241 37.9685 15.8391 38.6177 17.712 38.6555C14.5495 41.2653 10.6449 42.6897 6.62075 42.7015C5.88806 42.704 5.15595 42.658 4.4288 42.5636C8.53745 45.3458 13.3255 46.8227 18.2161 46.8165C21.5911 46.8532 24.9391 46.1843 28.0648 44.8488C31.1905 43.5133 34.0311 41.538 36.4207 39.0383C38.8103 36.5385 40.701 33.5644 41.9824 30.2897C43.2638 27.015 43.9102 23.5053 43.8838 19.9657C43.8838 19.5749 43.8838 19.1611 43.8838 18.7473C45.6038 17.402 47.0873 15.7529 48.2677 13.8737Z" fill="white"/>
</svg>
