<svg width="50" height="51" viewBox="0 0 50 51" fill="none" xmlns="http://www.w3.org/2000/svg">
<path d="M35.1826 24.9209C33.8039 24.3746 33.8039 24.3746 34.1762 22.8592C34.9008 20.251 33.7837 18.6634 31.1572 18.5294C30.9301 18.4985 30.7 18.4985 30.4728 18.5294C28.8526 18.9211 27.2425 19.3335 25.6323 19.7149C25.3259 19.7615 25.0162 19.7822 24.7065 19.7768C24.6914 19.4883 24.6914 19.1993 24.7065 18.9108C24.8258 18.2289 24.9065 17.5405 24.948 16.849C24.9809 16.4683 24.9314 16.0848 24.803 15.7259C24.6747 15.367 24.4706 15.0416 24.2053 14.7728C23.94 14.504 23.6201 14.2985 23.2684 14.1709C22.9166 14.0433 22.5417 13.9968 22.1705 14.0347C21.2253 14.0245 20.2866 14.1959 19.403 14.5398C16.5868 15.6775 14.0232 17.3848 11.8653 19.5598C9.7075 21.7349 7.99965 24.333 6.84376 27.1992C5.22353 31.1682 6.33052 34.6938 9.70179 37.2401C13.3649 39.9926 17.5714 40.8998 22.0195 40.9101C22.4422 40.9101 22.8749 40.9101 23.2976 40.9101C28.3293 40.6318 32.9485 39.1473 36.6216 35.3845C37.1137 34.8811 37.5553 34.3286 37.94 33.7351C40.3049 30.0445 39.1878 26.5085 35.1826 24.9209ZM30.7244 34.8691C28.6586 36.9099 26.004 38.2118 23.1567 38.5803C20.1487 39.1886 17.0306 38.8285 14.2304 37.5494C8.91684 35.0237 8.43379 29.6734 13.1737 26.2096C15.7167 24.3753 18.7484 23.3856 21.8585 23.3746C24.6419 23.219 27.4053 23.9384 29.7785 25.4364C33.351 27.8384 33.7334 31.7248 30.7244 34.8691ZM43.6963 18.1273C43.5023 16.7792 43.0395 15.4864 42.3366 14.3295C41.6337 13.1725 40.7058 12.1762 39.6107 11.4025C38.5156 10.6289 37.2768 10.0944 35.9713 9.83254C34.6658 9.57063 33.3217 9.58686 32.0226 9.88019C31.8497 9.89472 31.6816 9.94603 31.5291 10.0309C31.3767 10.1157 31.2431 10.2321 31.1371 10.3728C31.031 10.5135 30.9547 10.6752 30.9131 10.8478C30.8716 11.0204 30.8655 11.1999 30.8955 11.375C30.9227 11.5576 30.9865 11.7325 31.0828 11.8886C31.1791 12.0448 31.3059 12.1789 31.4552 12.2825C31.6045 12.386 31.7731 12.4569 31.9504 12.4905C32.1277 12.5242 32.3099 12.5199 32.4855 12.478L33.9448 12.3543C35.0647 12.3142 36.1772 12.5564 37.1844 13.0597C38.1916 13.563 39.0627 14.312 39.7212 15.2408C40.4351 16.1287 40.9295 17.1797 41.1625 18.3049C41.3955 19.4301 41.3602 20.5963 41.0596 21.7046C40.7577 22.9519 41.0596 23.5911 41.905 23.7663C42.7503 23.9416 43.3944 23.5395 43.5453 22.3643C43.7783 20.965 43.8291 19.5403 43.6963 18.1273ZM37.2758 22.0447C38.0708 22.1685 38.4431 21.6839 38.6243 20.9211C38.7927 20.2094 38.8004 19.4677 38.6468 18.7525C38.4932 18.0373 38.1823 17.3674 37.7379 16.7938C37.2934 16.2202 36.7271 15.7581 36.082 15.4425C35.4369 15.127 34.73 14.9663 34.0152 14.9728H33.6227C32.8176 14.9728 32.1132 15.2408 32.1132 16.1583C32.1132 17.0758 32.8076 17.2717 33.6328 17.2511C35.6455 17.1995 36.6518 18.4675 36.4002 20.5087C36.3298 21.2406 36.4204 21.9107 37.2758 22.0447ZM21.939 26.4879C20.7476 26.3 19.5287 26.4484 18.4134 26.917C17.2981 27.3856 16.3286 28.1568 15.6091 29.1476C15.0153 29.8454 14.6395 30.7095 14.5301 31.6284C14.4206 32.5472 14.5827 33.4785 14.9952 34.3021C16.0015 36.3639 17.8935 37.0855 19.9565 37.2092C21.5035 37.2055 23.0077 36.6883 24.2435 35.735C25.1132 35.1477 25.7891 34.3047 26.1824 33.3167C26.5758 32.3287 26.6681 31.2419 26.4474 30.1991C26.1691 29.1753 25.5845 28.2666 24.7757 27.6009C23.967 26.9352 22.9749 26.5459 21.939 26.4879ZM18.3866 34.7969C18.1658 34.8094 17.9448 34.7772 17.7362 34.7021C17.5276 34.6269 17.3356 34.5104 17.171 34.359C17.0065 34.2077 16.8727 34.0247 16.7774 33.8203C16.682 33.6159 16.627 33.3943 16.6154 33.1681C16.6564 32.5729 16.9178 32.0162 17.3462 31.6119C17.7746 31.2076 18.3375 30.9862 18.92 30.9929C19.1483 30.9716 19.3785 30.9988 19.5962 31.0726C19.8139 31.1464 20.0145 31.2654 20.1853 31.422C20.3562 31.5787 20.4938 31.7697 20.5894 31.9832C20.6851 32.1967 20.7369 32.4281 20.7414 32.663C20.683 33.2625 20.4039 33.8168 19.9609 34.2131C19.5179 34.6095 18.9442 34.8182 18.3564 34.7969H18.3866ZM22.1604 31.3847C22.0283 31.4295 21.8864 31.4345 21.7517 31.399C21.6169 31.3634 21.495 31.2889 21.4005 31.1843C21.306 31.0797 21.2429 30.9494 21.2187 30.809C21.1946 30.6687 21.2104 30.5241 21.2643 30.3927C21.3181 30.2613 21.4078 30.1486 21.5226 30.068C21.6373 29.9874 21.7723 29.9423 21.9114 29.9382C22.0505 29.9341 22.1878 29.9711 22.3069 30.0448C22.426 30.1185 22.5219 30.2257 22.5831 30.3538C22.6525 30.5522 22.6441 30.7705 22.5597 30.9628C22.4752 31.1551 22.3213 31.3063 22.1302 31.3847H22.1604Z" fill="white"/>
</svg>
