<svg width="51" height="51" viewBox="0 0 51 51" fill="none" xmlns="http://www.w3.org/2000/svg">
<path d="M48.0535 20.6914C48.1554 17.7403 47.51 14.8112 46.1772 12.1762C45.273 11.095 44.018 10.3654 42.631 10.1144C36.8941 9.59387 31.1335 9.38051 25.3738 9.47526C19.6351 9.37621 13.8952 9.58268 8.17847 10.0938C7.04824 10.2994 6.00229 10.8295 5.16826 11.6195C3.31265 13.3308 3.10647 16.2585 2.90029 18.7327C2.60115 23.1811 2.60115 27.6446 2.90029 32.0931C2.95994 33.4856 3.16728 34.8679 3.51883 36.2167C3.76743 37.258 4.2704 38.2214 4.9827 39.0207C5.8224 39.8525 6.89271 40.4128 8.05476 40.6289C12.4998 41.1776 16.9786 41.405 21.4564 41.3093C28.6727 41.4124 35.0023 41.3093 42.4866 40.732C43.6772 40.5292 44.7777 39.9682 45.6412 39.1238C46.2184 38.5463 46.6496 37.8395 46.8989 37.062C47.6362 34.7994 47.9984 32.4315 47.971 30.0519C48.0535 28.8973 48.0535 21.9285 48.0535 20.6914ZM20.7141 31.289V18.5265L32.9199 24.9387C29.4974 26.8355 24.982 28.9798 20.7141 31.289Z" fill="white"/>
</svg>
