<?xml version="1.0" encoding="utf-8"?>
<!-- Generator: Adobe Illustrator 23.1.0, SVG Export Plug-In . SVG Version: 6.00 Build 0)  -->
<svg version="1.1" id="Слой_1" xmlns="http://www.w3.org/2000/svg" xmlns:xlink="http://www.w3.org/1999/xlink" x="0px" y="0px"
	 viewBox="0 0 1920 1024" style="enable-background:new 0 0 1920 1024;" xml:space="preserve">
<style type="text/css">
	.st0{clip-path:url(#SVGID_2_);fill:#FFE900;}
	.st1{clip-path:url(#SVGID_2_);fill:#FFBA52;}
	.st2{clip-path:url(#SVGID_2_);}
	.st3{fill:#31DD8C;}
	.st4{fill:#18C272;}
	.st5{fill:#8AF9C2;}
	.st6{fill:#FFFFFF;}
	.st7{fill:#C8CBD3;}
	.st8{fill:#FFBA52;}
	.st9{fill:#1E0E00;}
	.st10{fill:#F37635;}
	.st11{fill:#FFE900;}
</style>
<g>
	<g>
		<defs>
			<rect id="SVGID_1_" width="1920" height="1024"/>
		</defs>
		<use xlink:href="#SVGID_1_"  style="overflow:visible;fill:#20232C;"/>
		<clipPath id="SVGID_2_">
			<use xlink:href="#SVGID_1_"  style="overflow:visible;"/>
		</clipPath>
		<polygon class="st0" points="1209.61,141.39 1094.94,146.44 1123.91,172.15 502.06,438.69 398.53,393.67 381.07,386.08 
			365.11,396.45 -103.27,700.56 -64.68,760 387.73,466.25 487.8,509.76 503.29,516.5 517.12,509.28 1131.6,188.34 1133.2,227.04 		
			"/>
		<path class="st1" d="M1492.85,52.47c-1.26-1.58-3.27-2.37-5.28-2.07l-81.33,12.32c-2,0.3-3.69,1.65-4.43,3.54
			s-0.41,4.02,0.85,5.61l13.76,17.23L941.9,428.58l-68-53.84c-1.84-1.45-4.38-1.63-6.4-0.44l-985.58,580.72
			c-1.33,0.78-2.28,2.07-2.64,3.57s-0.09,3.08,0.74,4.37l88.85,139.03c0.83,1.3,2.15,2.2,3.66,2.5c0.37,0.08,0.75,0.11,1.12,0.11
			c1.14,0,2.27-0.35,3.22-1.01l885.26-611.96l73.21,69.53c2.14,2.03,5.47,2.08,7.67,0.13l497.23-442.37l13.76,17.23
			c1.26,1.58,3.27,2.37,5.28,2.07c2-0.3,3.69-1.65,4.43-3.54l29.98-76.6C1494.44,56.19,1494.12,54.05,1492.85,52.47z M1456.74,121.4
			l-11.37-14.23c-0.97-1.22-2.4-1.98-3.95-2.11c-1.54-0.13-3.09,0.38-4.25,1.41l-497.8,442.88l-72.77-69.11
			c-1.95-1.85-4.92-2.08-7.13-0.55l-884.22,611.24l-82.52-129.13l977.17-575.76l68.3,54.08c1.98,1.57,4.76,1.64,6.82,0.17
			l482.86-345.45c1.27-0.91,2.1-2.29,2.32-3.83s-0.21-3.1-1.19-4.32l-11.36-14.22l61.92-9.38L1456.74,121.4z"/>
		<g class="st2">
			<g>
				<rect x="1074.5" y="751.5" class="st3" width="285" height="436"/>
			</g>
			<g>
				<polygon class="st4" points="1429,1128.22 1359,1187.78 1359,751.78 1429,692.22 				"/>
			</g>
			<g>
				<polygon class="st5" points="1075,752 1145,692 1429,692 1359,752 				"/>
			</g>
		</g>
		<g class="st2">
			<g>
				<rect x="670.5" y="916.5" class="st3" width="285" height="436"/>
			</g>
			<g>
				<polygon class="st4" points="1025,1293.22 955,1352.78 955,916.78 1025,857.22 				"/>
			</g>
			<g>
				<polygon class="st5" points="671,917 741,857 1025,857 955,917 				"/>
			</g>
		</g>
		<g class="st2">
			<g>
				<rect x="269.5" y="994.5" class="st3" width="285" height="436"/>
			</g>
			<g>
				<polygon class="st4" points="624,1371.22 554,1430.78 554,994.78 624,935.22 				"/>
			</g>
			<g>
				<polygon class="st5" points="270,995 340,935 624,935 554,995 				"/>
			</g>
		</g>
		<g class="st2">
			<g>
				<rect x="1478.5" y="637.5" class="st3" width="285" height="436"/>
			</g>
			<g>
				<polygon class="st4" points="1833,1014.22 1763,1073.78 1763,637.78 1833,578.22 				"/>
			</g>
			<g>
				<polygon class="st5" points="1479,638 1549,578 1833,578 1763,638 				"/>
			</g>
		</g>
	</g>
	<g>
		<g>
			<g>
				<path class="st6" d="M498.23,987.26l-3.8-125.33l-72.92,108.91h-22.37l95.89-306.02l23.66,3.74l0.15,2.26
					c0.01,0.21,1.61,21.67,16.53,32.89c2.61,1.96,5.5,3.51,8.6,4.63c4.34,1.56,11.58,2.35,21.54,2.35
					c37.45,0,100.37-11.36,101-11.47l2.86-0.52l1.66,10.79l1.05,6.84l-1.46,1.01c-56.93,39.42-97.46,50.59-107.66,52.94l4.9,93.17
					l-48.08,128.89L498.23,987.26z"/>
			</g>
			<g>
				<path d="M497,668l19,3c0,0,1.47,22.8,17.66,34.97c2.69,2.02,5.78,3.75,9.34,5.03c5,1.8,12.96,2.52,22.5,2.52
					C603.64,713.52,667,702,667,702l1.22,7.91L669,715c-65,45-109,53-109,53l5,95l-13.29,35.63L518,989l-17-4l-4-132l-6.67,9.96
					L420,968h-17l5.28-16.84v-0.01l67.2-214.47L497,668 M493.05,661.64l-1.46,4.67l-21.52,68.68l-67.2,214.47l-0.26,0.83v0.01
					l-5.02,16.01l-2.31,7.37H403h17h3.03l1.68-2.52l67.16-100.3l3.46,114.32l0.13,4.35l4.24,1l17,4l4.86,1.14l1.75-4.68l33.71-90.37
					l13.29-35.63l0.41-1.1l-0.06-1.18l-4.75-90.24c13.35-3.39,52.69-15.68,106.31-52.81l2.91-2.02l-0.54-3.5l-0.78-5.09l-1.22-7.92
					l-0.89-5.76l-5.73,1.04c-0.63,0.11-63.3,11.43-100.49,11.43c-11.99,0-17.81-1.19-20.58-2.18c-2.83-1.02-5.47-2.44-7.86-4.23
					c-13.94-10.48-15.39-30.6-15.41-30.8l-0.29-4.53l-4.48-0.71l-19-3L493.05,661.64L493.05,661.64z"/>
			</g>
		</g>
		<g>
			<path class="st7" d="M533.66,705.97c-15.62,15.49-42.15,27.48-55.16,30.16c-0.99,0.2-2,0.39-3.02,0.55L497,668l19,3
				C516,671,517.47,693.8,533.66,705.97z"/>
		</g>
		<g>
			<g>
				<circle class="st6" cx="517" cy="643" r="51.83"/>
			</g>
			<g>
				<path d="M517,594c27.06,0,49,21.94,49,49s-21.94,49-49,49s-49-21.94-49-49S489.94,594,517,594 M517,588.33
					c-30.14,0-54.67,24.52-54.67,54.67s24.52,54.67,54.67,54.67c30.14,0,54.67-24.52,54.67-54.67S547.14,588.33,517,588.33
					L517,588.33z"/>
			</g>
		</g>
		<g>
			<path class="st7" d="M525,678c-23.75,0-43-19.25-43-43c0-18.78,12.05-34.74,28.83-40.6C486.68,597.43,468,618.03,468,643
				c0,27.06,21.94,49,49,49c24.97,0,45.57-18.68,48.6-42.83C559.74,665.95,543.78,678,525,678z"/>
		</g>
		<g>
			<path class="st7" d="M408.28,951.15c25.2-35.49,66.53-93.31,80.74-113.19c1.7-2.38,5.45-1.34,5.69,1.58L496,855l-76,113h-17
				l5.28-16.84V951.15z"/>
		</g>
		<g>
			<path class="st7" d="M560,768l5,95l-13.29,35.63C546.87,862.41,536.82,777.74,547,766c10.66-12.3,88.56-40.74,121.22-56.09
				L669,715C604,760,560,768,560,768z"/>
		</g>
	</g>
	<g>
		<g>
			<g>
				<path class="st6" d="M821.45,875.83l0.79-3.46c5.81-25.59,10.5-56.76,13.91-92.65c5-52.41,5.84-100.13,5.99-114.4
					c-9.95,4.26-35.52,15.13-45.24,18.37c-24.09,8.03-65.03,10.06-66.76,10.14l-3.74,0.18l4.2-18.2l1.52-0.5
					c57.31-18.91,81.17-46.98,91.09-67.21c6.83-13.89,6.96-24.01,6.96-24.11l0.01-1.88l1.73-0.73l24.95-10.39l0.98,0.3
					c20.75,6.41,43.23,10.39,66.81,11.84c6.63,0.4,13.42,0.61,20.18,0.61c40.74,0,70.18-7.41,70.47-7.49l2.3-0.59l7.1,15.61
					l-2.38,1.24c-0.25,0.13-25.56,13.22-54.47,22.19c-7.48,2.32-27.66,7.26-35.77,9.23l97.57,204.1l-18.36,11.8l-1.57-2.18
					c-51.09-70.81-94.19-88.92-101.44-91.57c-37.93,21.56-66.24,126.58-66.52,127.64l-0.56,2.11H821.45z"/>
			</g>
			<g>
				<path d="M857,574c23.34,7.21,46.43,10.67,67.47,11.96c7.03,0.43,13.84,0.61,20.35,0.61c41.62,0,71.18-7.57,71.18-7.57l2.08,4.57
					L1021,590c0,0-25,13-54,22c-9.27,2.88-39,10-39,10l98,205l-3.39,2.18L1012,836c-57-79-104-93-104-93
					c-0.03,0.01-0.05,0.03-0.08,0.04C867.96,764.14,839,873,839,873h-14c6.59-29,11.01-61.92,13.97-93.01
					C845,716.73,845,661,845,661s-37.06,16.02-49,20c-24,8-66,10-66,10l1.43-6.19L733,678c58.31-19.24,82.62-48.01,92.75-68.65
					C833,594.6,833,584,833,584L857,574 M856.71,567.98l-1.89,0.79l-24,10l-3.49,1.45V584c0,0.06-0.18,9.64-6.67,22.85
					c-9.69,19.74-33.07,47.17-89.44,65.77l-3.03,1l-0.72,3.11l-1.57,6.81l-1.43,6.19l-1.69,7.3l7.48-0.36
					c1.75-0.08,43.06-2.13,67.52-10.28c8.69-2.9,29.8-11.78,41.45-16.74c-0.26,18.03-1.36,61.98-5.92,109.82
					c-3.41,35.77-8.07,66.82-13.85,92.29l-1.57,6.93h7.1h14h4.36l1.12-4.21c0.07-0.27,7.32-27.3,19.29-56.49
					c14.79-36.06,30.22-59.74,44.77-68.75c4.12,1.63,13.94,6.07,27.47,15.74c16.72,11.95,42.69,34.55,71.4,74.35l3.14,4.36
					l4.52-2.91l10.61-6.82l3.39-2.18l4.2-2.7l-2.16-4.51l-94.98-198.69c9.4-2.29,25.9-6.39,32.55-8.45
					c29.15-9.05,53.89-21.84,54.93-22.38l4.77-2.48l-2.22-4.89l-2.92-6.43l-2.08-4.57l-1.97-4.32l-4.6,1.18
					c-0.29,0.07-29.44,7.4-69.77,7.4c-6.7,0-13.44-0.2-20.01-0.6c-23.35-1.43-45.61-5.37-66.14-11.72L856.71,567.98L856.71,567.98z"
					/>
			</g>
		</g>
		<g>
			<path class="st7" d="M924.47,585.96c-2.46,5.65-6.42,10.73-11.16,14.71c-8.01,6.74-18.05,10.65-28.22,13.17
				c-12.22,3.02-39.13,2.15-59.34-4.49C833,594.6,833,584,833,584l24-10C880.34,581.21,903.43,584.67,924.47,585.96z"/>
		</g>
		<g>
			<g>
				<circle class="st6" cx="840" cy="545" r="51.83"/>
			</g>
			<g>
				<path d="M840,496c27.06,0,49,21.94,49,49s-21.94,49-49,49s-49-21.94-49-49S812.94,496,840,496 M840,490.33
					c-30.14,0-54.67,24.52-54.67,54.67s24.52,54.67,54.67,54.67s54.67-24.52,54.67-54.67S870.14,490.33,840,490.33L840,490.33z"/>
			</g>
		</g>
		<g>
			<path class="st7" d="M840,496c-9.09,0-17.6,2.49-24.9,6.8c2.72-0.52,5.53-0.8,8.4-0.8c24.58,0,44.5,19.92,44.5,44.5
				S848.08,591,823.5,591c-0.15,0-0.3-0.01-0.44-0.01c5.28,1.95,10.99,3.01,16.94,3.01c27.06,0,49-21.94,49-49S867.06,496,840,496z"
				/>
		</g>
		<g>
			<path class="st7" d="M845,661c0,0-37.06,16.02-49,20c-24,8-66,10-66,10l1.43-6.19c28.86-5.3,83.24-16.53,100.57-28.81
				c24-17,33-13,35,8c1.17,12.23-14.64,69.94-28.03,115.99C845,716.73,845,661,845,661z"/>
		</g>
		<g>
			<path class="st7" d="M907.92,743.04C867.96,764.14,839,873,839,873h-7.86c8.98-45.76,28.61-120.31,63.86-142L907.92,743.04z"/>
		</g>
		<g>
			<path class="st7" d="M1026,827l-3.39,2.18C987.57,768.37,901.81,616.8,917,616c13.34-0.7,69.06-20.63,101.08-32.43L1021,590
				c0,0-25,13-54,22c-9.27,2.88-39,10-39,10L1026,827z"/>
		</g>
	</g>
	<g>
		<g>
			<g>
				<path class="st6" d="M1098.32,735.08c7.69-22.48,14.53-45.57,20.34-68.61c16.46-65.29,20.38-113.8,21.26-129.29
					c-8.42,5.09-26.98,16.14-42.61,24.32c-24.12,12.63-62.06,25.06-62.44,25.18l-3.09,1.01l-1.32-7.29l-1.64-8.97l1.86-0.96
					c61.55-31.83,97.29-77.1,113.12-101.26c5.8-8.86,8.62-14.44,8.65-14.5l0.56-1.12l38.14-10.59l0.89,0.36
					c18.9,7.63,38.43,13.3,58.08,16.86l1.18,0.21c16.09,2.86,32.17,4.31,47.79,4.31c19.81,0,31.87-2.39,31.99-2.42l2.41-0.49
					l5.79,16.24l-2.48,1.04c-0.1,0.04-10.06,4.18-24.42,8.82l-0.35,0.34l-0.7,0.01c-10.74,3.44-21.06,6.26-30.67,8.37
					c-7.74,1.71-28.66,4.99-36.71,6.23l62.58,221.22l-17.91,4.13l-1.06-1.77c-6.31-10.5-12.87-20.63-19.51-30.11l-0.51-0.73v-0.02
					c-36.11-51.31-66.83-72.9-73.59-77.28c-37.12,22.83-71.94,116.7-72.29,117.66l-0.64,1.75l-24.06,1.34L1098.32,735.08z"/>
			</g>
			<g>
				<path d="M1191,446c21.48,8.67,41.73,14.03,59.81,17.23c0,0.01,0,0.01,0,0.01c0,0,0.01-0.01,0.01-0.01
					c18.78,3.34,35.22,4.35,48.29,4.35c20.38,0,32.55-2.47,32.55-2.47l4.06,11.39c0,0-10.07,4.2-24.82,8.94
					c-0.01,0.01-0.01,0.01-0.02,0.01c-8.96,2.88-19.63,5.97-30.82,8.43c-9.48,2.09-39.7,6.68-39.7,6.68L1303,722l-13,3
					c-6.65-11.07-13.22-21.14-19.62-30.28c0-0.01,0-0.01,0-0.02C1228.49,634.93,1194,615,1194,615c-39,22-75,120-75,120l-18,1
					c8.35-24.42,15.04-47.54,20.41-68.83C1141.75,586.47,1143,532,1143,532s-26,16-47,27c-24.19,12.67-62,25-62,25l-0.74-4.09
					L1032,573c62.62-32.39,98.82-78.77,114.19-102.22c5.98-9.13,8.81-14.78,8.81-14.78L1191,446 M1191.34,440.02l-1.85,0.52l-36,10
					l-2.42,0.67l-1.13,2.25c-0.03,0.05-2.79,5.52-8.48,14.21c-15.68,23.92-51.08,68.75-112.05,100.29l-3.72,1.93l0.75,4.13
					l1.26,6.91l0.74,4.08l1.16,6.4l6.18-2.02c1.56-0.51,38.54-12.62,62.87-25.37c13.24-6.94,28.57-15.92,38.12-21.62
					c-1.4,19.49-6.02,64.6-20.83,123.38c-5.79,22.97-12.61,45.97-20.28,68.38l-2.72,7.96l8.4-0.47l18-1l3.72-0.21l1.29-3.5
					c0.09-0.24,9.08-24.59,22.66-51.23c16.52-32.42,32.68-54.43,46.95-64.02c8.8,5.99,37.52,27.64,71.01,75.12l0.79,1.15
					c6.6,9.43,13.13,19.51,19.4,29.95l2.12,3.53l4.01-0.93l13-3l5.8-1.34l-1.62-5.73l-60.89-215.27c9.45-1.47,26.78-4.24,33.72-5.77
					c9.56-2.1,19.81-4.89,30.48-8.3h1.46l0.71-0.7c14.09-4.58,23.56-8.51,23.97-8.68l4.96-2.07l-1.81-5.07l-4.06-11.39l-1.65-4.63
					l-4.82,0.98c-0.11,0.02-11.95,2.36-31.42,2.36c-15.45,0-31.37-1.44-47.3-4.27l-1.19-0.21c-19.45-3.53-38.79-9.14-57.5-16.69
					L1191.34,440.02L1191.34,440.02z"/>
			</g>
		</g>
		<g>
			<path class="st7" d="M1250.81,463.23c-3.07,3.03-6.75,5.49-10.63,7.31c-8.39,3.93-17.71,5.31-26.88,6.55
				c-13.48,1.81-27.13,3.4-40.64,1.91c-8.68-0.96-18.56-3.56-26.47-8.22c5.98-9.13,8.81-14.78,8.81-14.78l36-10
				C1212.48,454.67,1232.73,460.03,1250.81,463.23z"/>
		</g>
		<g>
			<g>
				<circle class="st6" cx="1166" cy="412" r="51.83"/>
			</g>
			<g>
				<path d="M1166,363c27.06,0,49,21.94,49,49s-21.94,49-49,49s-49-21.94-49-49S1138.94,363,1166,363 M1166,357.33
					c-30.14,0-54.67,24.52-54.67,54.67s24.52,54.67,54.67,54.67s54.67-24.52,54.67-54.67S1196.14,357.33,1166,357.33L1166,357.33z"
					/>
			</g>
		</g>
		<g>
			<path class="st7" d="M1166,363c-8.98,0-17.38,2.43-24.62,6.64c2.48-0.41,5.02-0.64,7.62-0.64c25.41,0,46,20.59,46,46
				c0,22.55-16.22,41.29-37.63,45.23c2.8,0.5,5.68,0.77,8.63,0.77c27.06,0,49-21.94,49-49S1193.06,363,1166,363z"/>
		</g>
		<g>
			<path class="st7" d="M1151.14,589.55c-8.24,26.47-18.18,52.42-29.73,77.62C1141.75,586.47,1143,532,1143,532s-26,16-47,27
				c-24.19,12.67-62,25-62,25l-0.74-4.09c3.07-1.07,6.76-2.11,11.13-3.52c30.98-9.98,60.44-24.69,87.01-43.49
				c3.95-2.79,8.24-5.8,13.07-5.63c9.35,0.33,13.88,11.74,14.17,21.09C1159.08,562.37,1155.31,576.16,1151.14,589.55z"/>
		</g>
		<g>
			<path class="st7" d="M1240.36,500.56L1303,722l-13,3c-6.65-11.07-13.22-21.14-19.62-30.28c0-0.01,0-0.01,0-0.02
				c0.44-27.39-3.67-54.85-12.13-80.9c-10.82-33.29-28.67-64.36-35.34-98.72c-1.67-8.61-1.82-19.26,5.46-24.15
				c4.12-2.77,9.44-2.75,14.41-2.69c22.7,0.29,45.47-0.62,68.1-2.79c-8.96,2.88-19.63,5.97-30.82,8.43
				C1270.58,495.97,1240.36,500.56,1240.36,500.56z"/>
		</g>
	</g>
	<g>
		<g>
			<g>
				<g>
					<path class="st8" d="M1663.36,550.77c-32.75,0-68.21-17.85-97.31-48.96c-26.82-28.68-43.61-64.06-43.83-92.32
						c-0.2-26.39,26.39-48.15,27.52-49.06c3.31-2.56,80.88-62.15,141.14-62.15c9.71,0,18.54,1.59,26.25,4.73
						c24.31,9.9,41.05,38.9,45.94,79.56c3.33,27.7,0.81,59.17-6.92,86.35c-8.29,29.13-21.99,51.78-38.57,63.78
						C1701,544.69,1682.76,550.77,1663.36,550.77z"/>
				</g>
				<g>
					<path class="st9" d="M1690.89,300.4c9.03,0,17.62,1.39,25.45,4.57c65.61,26.73,57.11,184.69,0,226.01
						c-17.09,12.36-35.11,17.67-52.97,17.67c-70.43,0-138.57-82.38-139.01-139.17c-0.2-25.67,26.73-47.39,26.73-47.39
						S1630.66,300.4,1690.89,300.4 M1690.89,296.15L1690.89,296.15c-25.72,0-57.53,10.56-94.57,31.39
						c-27.38,15.4-47.64,31.03-47.84,31.19l-0.03,0.03l-0.03,0.03c-1.16,0.94-28.53,23.32-28.31,50.73
						c0.22,28.77,17.24,64.7,44.4,93.76c29.49,31.55,65.53,49.64,98.86,49.64c19.86,0,38.52-6.22,55.46-18.47
						c16.97-12.28,30.96-35.34,39.37-64.93c7.92-27.85,10.4-58.81,6.99-87.19c-2.32-19.26-7.4-36.58-14.71-50.07
						c-8.28-15.28-19.23-25.78-32.54-31.2C1709.97,297.79,1700.87,296.15,1690.89,296.15L1690.89,296.15z"/>
				</g>
			</g>
			<g>
				<path class="st10" d="M1716.33,304.97c-60.02-24.45-165.25,57.11-165.25,57.11s-0.65,0.52-1.73,1.49
					c36.1-21.32,89.16-45.51,125.58-30.68c59.55,24.26,58.05,156.61,14.57,211.75c9.09-2.86,18.09-7.34,26.84-13.67
					C1773.44,489.67,1781.94,331.7,1716.33,304.97z"/>
			</g>
			<g>
				<path class="st11" d="M1667.33,343.85c6.52,3.88,11.54,9.82,15.95,15.99c2.32,3.25,4.57,6.75,5.06,10.71
					c0.48,3.96-1.34,8.48-5.08,9.87c-3.51,1.3-7.52-0.53-10.08-3.26c-2.56-2.74-4.06-6.26-5.94-9.51c-2.8-4.85-6.62-9.28-11.6-11.83
					c-3.22-1.65-6.94-2.55-9.48-5.13C1634.12,338.39,1661.95,340.64,1667.33,343.85z"/>
			</g>
		</g>
		<g>
			<g>
				<g>
					
						<rect x="1434.38" y="407.6" transform="matrix(0.9813 -0.1924 0.1924 0.9813 -54.0703 291.3974)" class="st8" width="78.71" height="33.14"/>
				</g>
				<g>
					<path class="st9" d="M1507.48,402.84l5.56,28.35l-73.06,14.32l-5.56-28.35L1507.48,402.84 M1510.84,397.85l-4.17,0.82
						l-73.06,14.32l-4.17,0.82l0.82,4.17l5.56,28.35l0.82,4.17l4.17-0.82l73.06-14.32l4.17-0.82l-0.82-4.17l-5.56-28.35
						L1510.84,397.85L1510.84,397.85z"/>
				</g>
			</g>
			<g>
				<g>
					
						<rect x="1369.64" y="418.32" transform="matrix(0.9979 -0.0646 0.0646 0.9979 -25.1424 91.638)" class="st8" width="71.74" height="33.14"/>
				</g>
				<g>
					<path class="st9" d="M1438.25,418.3l1.86,28.83l-67.34,4.36l-1.86-28.83L1438.25,418.3 M1442.22,413.78l-4.24,0.27l-67.34,4.36
						l-4.24,0.27l0.27,4.24l1.86,28.83l0.27,4.24l4.24-0.27l67.34-4.36l4.24-0.27l-0.27-4.24l-1.86-28.83L1442.22,413.78
						L1442.22,413.78z"/>
				</g>
			</g>
			<g>
				<polygon class="st10" points="1439.29,434.94 1439.98,445.51 1513.04,431.19 1511.02,420.88 				"/>
			</g>
			<g>
				
					<rect x="1372.36" y="438.73" transform="matrix(0.9979 -0.0646 0.0646 0.9979 -25.7305 91.6955)" class="st10" width="67.48" height="10.59"/>
			</g>
			<g>
				<g>
					<path class="st8" d="M1437.44,452.56c-11.29,0-20.7-8.83-21.43-20.11c-0.37-5.73,1.51-11.26,5.3-15.57
						c3.79-4.31,9.03-6.89,14.76-7.26c0.47-0.03,0.94-0.05,1.41-0.05c11.29,0,20.7,8.83,21.43,20.11
						c0.77,11.83-8.23,22.07-20.06,22.84C1438.38,452.54,1437.91,452.56,1437.44,452.56z"/>
				</g>
				<g>
					<path class="st9" d="M1437.48,411.69c10.13,0,18.65,7.87,19.31,18.12c0.69,10.67-7.4,19.89-18.08,20.58
						c-0.43,0.03-0.85,0.04-1.27,0.04c-10.13,0-18.65-7.87-19.31-18.12c-0.69-10.67,7.4-19.89,18.08-20.58
						C1436.64,411.71,1437.06,411.69,1437.48,411.69 M1437.48,407.44c-0.51,0-1.03,0.02-1.54,0.05c-13,0.84-22.89,12.1-22.05,25.1
						c0.8,12.39,11.15,22.1,23.55,22.1c0.51,0,1.03-0.02,1.54-0.05c6.3-0.41,12.06-3.24,16.22-7.98s6.23-10.82,5.83-17.11
						C1460.23,417.15,1449.89,407.44,1437.48,407.44L1437.48,407.44z"/>
				</g>
			</g>
			<g>
				<g>
					<path class="st10" d="M1349.18,461.93l3.66,0.43c0.57,0.07,1.15,0.1,1.72,0.1c7.22,0,13.31-5.17,14.49-12.3
						c1.32-8-4.12-15.58-12.12-16.9c-0.8-0.13-1.6-0.2-2.4-0.2c-4.6,0-9,2.22-11.77,5.93l-2.2,2.95l-6.85-15.85l1.18-1.02
						c5.47-4.73,12.44-7.33,19.62-7.33c1.63,0,3.29,0.14,4.91,0.4c16.34,2.69,27.45,18.18,24.75,34.52
						c-2.2,13.34-13.13,23.61-26.59,24.97l-1.55,0.16L1349.18,461.93z"/>
				</g>
				<g>
					<path class="st9" d="M1354.5,419.86c1.5,0,3.03,0.12,4.56,0.37c15.21,2.5,25.51,16.86,23,32.07
						c-2.09,12.71-12.48,21.96-24.71,23.2l-4.77-11.04c0.66,0.08,1.31,0.11,1.96,0.11c8.09,0,15.23-5.83,16.58-14.08
						c1.51-9.17-4.7-17.83-13.87-19.34c-0.92-0.15-1.84-0.23-2.75-0.23c-5.39,0-10.36,2.61-13.48,6.78l-4.77-11.05
						C1341.23,422.39,1347.66,419.86,1354.5,419.86 M1354.5,415.61c-7.7,0-15.16,2.79-21.01,7.85l-2.36,2.04l1.24,2.86l4.77,11.05
						l2.91,6.75l4.4-5.89c2.37-3.18,6.14-5.08,10.07-5.08c0.68,0,1.38,0.06,2.06,0.17c3.32,0.55,6.22,2.35,8.18,5.08
						c1.96,2.73,2.74,6.06,2.19,9.38c-1,6.09-6.21,10.52-12.39,10.52c-0.49,0-0.98-0.03-1.47-0.09l-7.32-0.85l2.92,6.76l4.77,11.04
						l1.23,2.86l3.1-0.31c14.41-1.46,26.12-12.46,28.47-26.74c1.4-8.48-0.59-16.99-5.6-23.97c-5.01-6.98-12.43-11.59-20.91-12.99
						C1358.02,415.75,1356.25,415.61,1354.5,415.61L1354.5,415.61z"/>
				</g>
			</g>
			<g>
				<g>
					<path class="st8" d="M1346.32,455.61l3.66,0.43c0.57,0.07,1.15,0.1,1.72,0.1c0,0,0,0,0,0c7.22,0,13.31-5.17,14.49-12.3
						c0.64-3.88-0.27-7.77-2.56-10.96c-2.29-3.19-5.68-5.3-9.56-5.94c-0.8-0.13-1.61-0.2-2.4-0.2c-4.6,0-9,2.22-11.77,5.93
						l-2.2,2.95l-6.85-15.85l1.18-1.02c5.47-4.73,12.44-7.33,19.62-7.33c1.63,0,3.29,0.14,4.91,0.4c7.92,1.3,14.85,5.61,19.53,12.13
						c4.68,6.52,6.53,14.47,5.23,22.39c-2.2,13.34-13.13,23.61-26.59,24.97l-1.55,0.16L1346.32,455.61z"/>
				</g>
				<g>
					<path class="st9" d="M1351.64,413.53c1.5,0,3.03,0.12,4.56,0.37c15.21,2.5,25.51,16.86,23,32.07
						c-2.09,12.71-12.48,21.96-24.71,23.2l-4.77-11.04c0.66,0.08,1.31,0.11,1.96,0.11c8.09,0,15.23-5.83,16.58-14.08
						c1.51-9.17-4.7-17.83-13.87-19.34c-0.92-0.15-1.84-0.23-2.75-0.23c-5.39,0-10.36,2.61-13.48,6.78l-4.77-11.05
						C1338.37,416.06,1344.79,413.53,1351.64,413.53 M1351.64,409.28c-7.7,0-15.16,2.79-21.01,7.85l-2.36,2.04l1.24,2.86l4.77,11.05
						l2.91,6.75l4.4-5.89c2.37-3.18,6.14-5.08,10.07-5.08c0.68,0,1.38,0.06,2.06,0.17c6.84,1.13,11.5,7.61,10.37,14.46
						c-1,6.09-6.21,10.52-12.39,10.52c-0.49,0-0.98-0.03-1.47-0.09l-7.32-0.85l2.92,6.76l4.77,11.04l1.23,2.86l3.1-0.31
						c14.41-1.46,26.12-12.46,28.47-26.74c1.4-8.48-0.59-16.99-5.6-23.97c-5.01-6.98-12.43-11.59-20.91-12.99
						C1355.16,409.43,1353.39,409.28,1351.64,409.28L1351.64,409.28z"/>
				</g>
			</g>
			<g>
				<path class="st10" d="M1438.15,441.74c-9.19,0.59-17.27-5.32-19.8-13.79c-0.23,1.41-0.32,2.87-0.22,4.36
					c0.69,10.68,9.9,18.77,20.58,18.08c10.67-0.69,18.77-9.9,18.08-20.58c-0.1-1.49-0.37-2.92-0.78-4.29
					C1454.6,434.24,1447.34,441.15,1438.15,441.74z"/>
			</g>
			<g>
				<circle class="st11" cx="1433.32" cy="426.07" r="7.7"/>
			</g>
			<g>
				<path class="st11" d="M1403.59,428.95l-15.38,0.99c-1.59,0.1-2.97-1.11-3.07-2.7l0,0c-0.1-1.59,1.11-2.97,2.7-3.07l15.38-0.99
					c1.59-0.1,2.97,1.11,3.07,2.7v0C1406.39,427.47,1405.18,428.85,1403.59,428.95z"/>
			</g>
			<g>
				<path class="st11" d="M1340.02,424.98c-0.93,0-1.84-0.46-2.38-1.3c-0.85-1.32-0.47-3.07,0.85-3.92
					c0.57-0.37,14.11-8.95,24.42-1.66c1.28,0.9,1.58,2.67,0.68,3.95c-0.91,1.28-2.67,1.58-3.95,0.68c-7.21-5.1-17.97,1.73-18.08,1.8
					C1341.07,424.84,1340.54,424.98,1340.02,424.98z"/>
			</g>
		</g>
		<g>
			<g>
				<g>
					
						<rect x="1724.03" y="256.96" transform="matrix(0.6619 -0.7496 0.7496 0.6619 391.1756 1414.3164)" class="st8" width="78.7" height="33.14"/>
				</g>
				<g>
					<path class="st9" d="M1777.19,236.07l21.66,19.12L1749.57,311l-21.66-19.12L1777.19,236.07 M1776.82,230.07l-2.81,3.19
						l-49.28,55.81l-2.81,3.19l3.19,2.81l21.66,19.12l3.19,2.81l2.81-3.19l49.28-55.81l2.81-3.19l-3.19-2.81l-21.66-19.12
						L1776.82,230.07L1776.82,230.07z"/>
				</g>
			</g>
			<g>
				<g>
					
						<rect x="1765.36" y="196.73" transform="matrix(0.4362 -0.8999 0.8999 0.4362 823.6367 1741.1262)" class="st8" width="71.74" height="33.14"/>
				</g>
				<g>
					<path class="st9" d="M1802.95,176.64l26,12.6l-29.43,60.73l-26-12.6L1802.95,176.64 M1800.98,170.96l-1.85,3.83l-29.43,60.73
						l-1.85,3.83l3.83,1.85l26,12.6l3.83,1.85l1.85-3.83l29.43-60.73l1.85-3.83l-3.83-1.85l-26-12.6L1800.98,170.96L1800.98,170.96z
						"/>
				</g>
			</g>
			<g>
				
					<rect x="1732.65" y="273.5" transform="matrix(0.6619 -0.7496 0.7496 0.6619 389.0646 1421.1234)" class="st10" width="74.45" height="11.54"/>
			</g>
			<g>
				
					<rect x="1775.35" y="211.41" transform="matrix(0.4362 -0.8999 0.8999 0.4362 824.6657 1750.3662)" class="st10" width="67.48" height="11.41"/>
			</g>
			<g>
				<g>
					<path class="st11" d="M1815.16,192.64c-6.83,0-13.52-2.37-18.85-6.67c-10.52-8.49-14.06-23.07-8.61-35.45l0.63-1.42l17.17,1.87
						l-2.18,2.97c-4.65,6.34-3.5,15.18,2.62,20.11c2.64,2.14,5.83,3.26,9.23,3.26c0,0,0,0,0,0c4.47,0,8.65-1.99,11.45-5.47
						c3.46-4.29,4.23-10.1,2.01-15.16l-1.48-3.37l17.17,1.87l0.31,1.53c1.75,8.78-0.46,17.81-6.08,24.76
						C1832.82,188.57,1824.29,192.64,1815.16,192.64C1815.16,192.64,1815.16,192.64,1815.16,192.64z"/>
				</g>
				<g>
					<path class="st9" d="M1789.65,151.38l11.96,1.3c-5.28,7.21-4.03,17.35,3,23.02c3.11,2.51,6.85,3.74,10.56,3.74
						c4.91,0,9.78-2.14,13.11-6.26c4.09-5.07,4.75-11.77,2.3-17.35l11.96,1.3c1.57,7.84-0.23,16.3-5.64,23.01
						c-5.51,6.83-13.59,10.38-21.73,10.38c-6.16,0-12.35-2.03-17.51-6.19C1787.62,176.23,1784.7,162.63,1789.65,151.38
						 M1787.02,146.82l-1.25,2.85c-5.84,13.26-2.05,28.87,9.22,37.96c5.7,4.6,12.87,7.14,20.18,7.14c9.78,0,18.91-4.36,25.04-11.96
						c6.01-7.45,8.38-17.11,6.51-26.51l-0.61-3.06l-3.1-0.34l-11.96-1.3l-7.31-0.79l2.96,6.73c1.9,4.33,1.25,9.3-1.72,12.97
						c-2.4,2.97-5.97,4.68-9.8,4.68c-2.9,0-5.63-0.97-7.89-2.79c-5.23-4.22-6.21-11.78-2.24-17.2l4.35-5.94l-7.32-0.8l-11.96-1.3
						L1787.02,146.82L1787.02,146.82z"/>
				</g>
			</g>
			<g>
				<g>
					<path class="st8" d="M1822.08,193.27c-6.83,0-13.52-2.37-18.85-6.67c-10.52-8.49-14.06-23.07-8.6-35.45l0.63-1.43l17.17,1.87
						l-2.18,2.97c-4.64,6.34-3.5,15.18,2.62,20.11c2.65,2.14,5.84,3.26,9.23,3.26c0,0,0,0,0,0c4.47,0,8.65-1.99,11.45-5.47
						c3.46-4.29,4.23-10.1,2.01-15.16l-1.48-3.37l17.17,1.87l0.31,1.53c1.75,8.78-0.46,17.8-6.08,24.76
						C1839.74,189.2,1831.21,193.27,1822.08,193.27C1822.08,193.27,1822.08,193.27,1822.08,193.27z"/>
				</g>
				<g>
					<path class="st9" d="M1796.57,152.01l11.96,1.3c-5.28,7.21-4.03,17.35,3,23.02c3.11,2.51,6.85,3.74,10.56,3.74
						c4.91,0,9.78-2.14,13.11-6.26c4.09-5.07,4.75-11.77,2.3-17.35l11.96,1.3c1.57,7.84-0.23,16.3-5.64,23.01
						c-5.51,6.83-13.59,10.38-21.73,10.38c-6.16,0-12.35-2.03-17.51-6.19C1794.54,176.86,1791.62,163.26,1796.57,152.01
						 M1793.93,147.45l-1.25,2.85c-5.84,13.26-2.05,28.87,9.22,37.96c5.7,4.6,12.87,7.14,20.18,7.14c9.78,0,18.91-4.36,25.04-11.96
						c6.01-7.45,8.38-17.11,6.51-26.51l-0.61-3.06l-3.1-0.34l-11.96-1.3l-7.31-0.79l2.96,6.73c1.9,4.33,1.25,9.3-1.72,12.97
						c-2.4,2.97-5.97,4.68-9.8,4.68c-2.9,0-5.63-0.97-7.89-2.79c-5.23-4.22-6.21-11.78-2.24-17.2l4.35-5.94l-7.32-0.8l-11.96-1.3
						L1793.93,147.45L1793.93,147.45z"/>
				</g>
			</g>
			<g>
				<g>
					<g>
						<path class="st8" d="M1788.82,264.48c-7.62,0-14.74-4.08-18.58-10.65c-2.9-4.96-3.69-10.75-2.23-16.3
							c1.46-5.55,4.99-10.21,9.95-13.1c3.29-1.92,7.03-2.94,10.83-2.94c7.62,0,14.74,4.08,18.58,10.65
							c2.9,4.96,3.69,10.75,2.23,16.3c-1.46,5.55-4.99,10.21-9.95,13.1C1796.35,263.47,1792.61,264.48,1788.82,264.48z"/>
					</g>
					<g>
						<path class="st9" d="M1788.78,223.61c6.66,0,13.14,3.44,16.74,9.6c5.4,9.24,2.29,21.1-6.95,26.5
							c-3.07,1.8-6.44,2.65-9.75,2.65c-6.66,0-13.14-3.44-16.74-9.6c-5.4-9.24-2.29-21.1,6.95-26.5
							C1782.1,224.47,1785.46,223.61,1788.78,223.61 M1788.78,219.36L1788.78,219.36c-4.17,0-8.28,1.12-11.9,3.23
							c-5.45,3.18-9.33,8.3-10.93,14.4c-1.6,6.1-0.73,12.46,2.45,17.91c4.22,7.22,12.04,11.71,20.41,11.71
							c4.17,0,8.28-1.12,11.9-3.23c5.45-3.18,9.33-8.3,10.93-14.4c1.6-6.1,0.73-12.46-2.45-17.91
							C1804.97,223.85,1797.15,219.36,1788.78,219.36L1788.78,219.36z"/>
					</g>
				</g>
				<g>
					<path class="st10" d="M1794.2,252.23c-7.95,4.64-17.83,2.97-23.87-3.46c0.43,1.37,1,2.71,1.75,4
						c5.4,9.24,17.26,12.35,26.5,6.95c9.24-5.4,12.35-17.26,6.95-26.5c-0.75-1.29-1.64-2.44-2.62-3.49
						C1805.54,238.15,1802.15,247.58,1794.2,252.23z"/>
				</g>
				<g>
					<circle class="st11" cx="1782.86" cy="240.37" r="7.7"/>
				</g>
			</g>
			<g>
				<path class="st11" d="M1789.62,211.47l6.72-13.86c0.69-1.43,2.43-2.03,3.86-1.34l0,0c1.43,0.69,2.03,2.43,1.34,3.86l-6.72,13.86
					c-0.69,1.43-2.43,2.03-3.86,1.34l0,0C1789.53,214.64,1788.93,212.9,1789.62,211.47z"/>
			</g>
		</g>
		<g>
			<g>
				<g>
					<path class="st8" d="M1511.94,346.34c-15.43,0-28.09-4.39-37.62-13.06c-15.43-14.03-23.4-33.46-23.04-56.19
						c0.32-20.04,7.14-41.53,19.2-60.51c8.53-13.42,20.1-24.92,34.41-34.17c19.75-12.78,58.98-34.22,99.79-34.22
						c22.28,0,42.28,6.39,59.46,18.98c20.72,15.19,30.93,32.16,30.35,50.42c-1.07,33.69-38.3,64.44-69.34,84.31
						C1579.71,330.97,1540.57,346.34,1511.94,346.34z"/>
				</g>
				<g>
					<path class="st9" d="M1604.67,150.31c19.7,0,39.76,5.05,58.2,18.57c72.91,53.46-8.51,111.79-38.88,131.23
						c-22.57,14.44-72.27,44.1-112.05,44.1c-13.77,0-26.34-3.55-36.19-12.51c-32.24-29.31-26.18-78.25-3.47-113.99
						c8.6-13.54,20.3-24.81,33.77-33.53C1526.17,171.17,1564.65,150.31,1604.67,150.31 M1604.67,146.06L1604.67,146.06
						c-41.35,0-80.99,21.65-100.94,34.56c-14.56,9.42-26.35,21.13-35.04,34.82c-12.27,19.31-19.21,41.2-19.53,61.62
						c-0.37,23.36,7.84,43.34,23.73,57.8c9.94,9.03,23.08,13.61,39.05,13.61c17.87,0,39.48-5.73,64.24-17.02
						c15.76-7.18,32.14-16.26,50.1-27.75c31.48-20.14,69.23-51.42,70.32-86.04c0.6-19.01-9.9-36.57-31.22-52.2
						C1647.83,152.59,1627.41,146.06,1604.67,146.06L1604.67,146.06z"/>
				</g>
			</g>
			<g>
				<g>
					<path class="st11" d="M1509.23,301.18c-14.2,0-25.75-11.55-25.75-25.75s11.55-25.75,25.75-25.75
						c14.2,0,25.75,11.55,25.75,25.75S1523.43,301.18,1509.23,301.18z"/>
				</g>
				<g>
					<path class="st9" d="M1509.23,251.81c13.05,0,23.62,10.58,23.62,23.62s-10.58,23.62-23.62,23.62s-23.62-10.58-23.62-23.62
						S1496.18,251.81,1509.23,251.81 M1509.23,247.55c-15.37,0-27.87,12.5-27.87,27.87c0,15.37,12.5,27.87,27.87,27.87
						s27.87-12.5,27.87-27.87C1537.1,260.06,1524.6,247.55,1509.23,247.55L1509.23,247.55z"/>
				</g>
			</g>
			<g>
				<g>
					<circle class="st11" cx="1576.95" cy="234.67" r="32.87"/>
				</g>
				<g>
					<path class="st9" d="M1576.95,203.93c16.98,0,30.74,13.76,30.74,30.74s-13.76,30.74-30.74,30.74s-30.74-13.76-30.74-30.74
						S1559.97,203.93,1576.95,203.93 M1576.95,199.68c-19.3,0-34.99,15.7-34.99,34.99s15.7,34.99,34.99,34.99
						s34.99-15.7,34.99-34.99S1596.25,199.68,1576.95,199.68L1576.95,199.68z"/>
				</g>
			</g>
			<g>
				<path class="st10" d="M1662.87,168.88c-53.36-39.13-120.39-7.31-152.5,12.56c35.32-13.02,81.64-19.32,120.75,8.68
					c42.11,30.14,35.95,64.85,16.93,92.94C1681.81,256.32,1720.42,211.09,1662.87,168.88z"/>
			</g>
			<g>
				<path class="st11" d="M1531.98,181.69c-4.29-0.02-8.58,0.48-12.75,1.48c-5.18,1.24-10.54,3.57-13.19,8.18
					c-1,1.74-1.38,4.32,0.26,5.48c1.07,0.76,2.53,0.55,3.82,0.31c7.31-1.36,14.61-2.71,21.92-4.07c2.3-0.43,4.91-1.08,5.97-3.17
					c1.05-2.08-0.07-4.74-1.94-6.13c-1.87-1.39-4.28-1.8-6.59-2.04"/>
			</g>
			<g>
				<path class="st11" d="M1651.81,196.54c4.81,4.81,5.82,9.74,8.63,11.42c0.53,0.32,1.16,0.56,1.77,0.44
					c1.24-0.22,1.75-1.71,1.89-2.96c0.83-7.7-3.82-15.11-9.87-19.94c-1.66-1.33-3.51-2.55-5.6-2.92c-2.1-0.37-4.49,0.29-5.67,2.06
					C1640.22,188.79,1648.9,193.62,1651.81,196.54z"/>
			</g>
			<g>
				<g>
					<path class="st11" d="M1668.8,200.74C1668.8,200.74,1668.8,200.74,1668.8,200.74c-0.02-0.01-0.04-0.01-0.05-0.01L1668.8,200.74
						z"/>
				</g>
				<g>
					<path class="st11" d="M1672.83,194.36c-0.71-3.04-2.33-5.87-4.6-8.02c-1.12-1.06-2.51-2-4.11-1.82
						c-0.81,0.09-1.58,0.53-1.98,1.24c-0.63,1.1-0.1,2.16,0.4,3.12c1.77,3.35,3.54,6.71,5.32,10.06c0.93,1.76,3.48,2,4.56,0.32
						c0.07-0.11,0.13-0.22,0.19-0.34C1673.29,197.53,1673.18,195.87,1672.83,194.36z"/>
				</g>
			</g>
		</g>
	</g>
</g>
</svg>
