<?xml version="1.0" encoding="utf-8"?>
<!-- Generator: Adobe Illustrator 23.1.0, SVG Export Plug-In . SVG Version: 6.00 Build 0)  -->
<svg version="1.1" id="Слой_1" xmlns="http://www.w3.org/2000/svg" xmlns:xlink="http://www.w3.org/1999/xlink" x="0px" y="0px"
	 viewBox="0 0 1920 1024" style="enable-background:new 0 0 1920 1024;" xml:space="preserve">
<style type="text/css">
	.st0{fill:#20232C;}
	.st1{fill:#364F5D;}
	.st2{fill:#343E59;}
	.st3{fill:#31DD8C;}
	.st4{fill:#18C272;}
	.st5{fill:#F37635;}
	.st6{fill:#FFBA52;}
	.st7{fill:#FFE900;}
	.st8{opacity:0.44;}
	.st9{fill:#FFCA83;}
	.st10{fill:#FFFFFF;}
	.st11{fill:#C8CBD3;}
</style>
<g>
	<g>
		<rect x="0.02" y="1.52" class="st0" width="1920" height="1024"/>
		<polygon class="st1" points="1923.02,1020.52 3.02,1.52 1923.02,1.52 		"/>
		<polygon class="st2" points="362.02,355.52 71.02,755.52 545.02,1024.52 774.02,1024.52 1013.02,720.52 		"/>
		<polygon class="st3" points="1923.02,5.52 1920.02,779.52 1072.22,844.14 831.02,862.52 415.02,699.52 418.03,500.09 
			421.02,302.52 1075.02,5.52 		"/>
		<polygon class="st4" points="991.02,821.52 1072.22,844.14 831.02,862.52 415.02,699.52 418.03,500.09 1007.96,337 1068.96,369 
			561.34,527.36 545.96,568 910.96,763 1582.96,571 1676.02,607.52 		"/>
	</g>
	<g>
		<g>
			<g>
				<g>
					<path class="st5" d="M920.63,570.87l2.33-0.58l169.48-41.68l52.48-12.9l272.96-67.13c9.51-2.34,19.29-3.52,29.07-3.52
						c26.19,0,51.17,8.21,72.25,23.76l66.44,48.99c9.51,7.02,15.19,18.27,15.19,30.1c0,8.03-2.52,15.69-7.29,22.15
						c-7.02,9.51-18.27,15.19-30.1,15.19c-8.02,0-15.67-2.52-22.14-7.29l-39.86-29.39c-20.35-15-44.46-22.93-69.73-22.93
						c-9.44,0-18.88,1.14-28.06,3.4L938.47,643.42L920.63,570.87z"/>
				</g>
				<g>
					<path class="st0" d="M1446.95,447.17c25.3,0,50.22,8.03,70.99,23.34l59.47,43.85l6.97,5.14c9.37,6.91,14.33,17.58,14.33,28.39
						c0,7.26-2.23,14.59-6.88,20.89c-6.91,9.37-17.58,14.33-28.39,14.33c-7.26,0-14.59-2.24-20.88-6.88l-39.86-29.39
						c-20.76-15.31-45.68-23.35-70.99-23.35c-9.54,0-19.13,1.14-28.57,3.47l-278.66,68.52l-52.49,12.91l-131.96,32.45l-16.83-68.43
						l0.28-0.07l169.47-41.68l52.48-12.9l272.96-67.13C1427.83,448.32,1437.41,447.17,1446.95,447.17 M1446.95,442.92
						L1446.95,442.92c-9.95,0-19.91,1.21-29.58,3.58l-272.96,67.13l-52.48,12.9l-169.47,41.68l-0.3,0.07l-4.11,1.03l1.01,4.11
						l16.83,68.43l1.02,4.13l4.13-1.02L1073,612.53l52.49-12.91l278.66-68.52c9.01-2.22,18.28-3.34,27.56-3.34
						c24.81,0,48.49,7.79,68.46,22.52l39.86,29.39c6.84,5.04,14.93,7.71,23.4,7.71c12.51,0,24.4-6,31.81-16.06
						c5.04-6.83,7.71-14.93,7.71-23.41c0-12.5-6-24.4-16.06-31.81l-6.97-5.14l-59.47-43.85
						C1499.01,451.28,1473.59,442.92,1446.95,442.92L1446.95,442.92z"/>
				</g>
			</g>
			<g>
				<path class="st6" d="M1506.02,463.52c-37-14-81.58-0.34-116.01,8.39L927.76,589.23l-4.28-16.88l494.91-121.71
					C1469.02,438.52,1506.02,463.52,1506.02,463.52z"/>
			</g>
			<g>
				<g>
					<polygon class="st6" points="1091.22,528.9 1148.42,514.84 1126.2,597.25 1069,611.32 					"/>
				</g>
				<g>
					<path class="st0" d="M1145.43,517.77l-20.95,77.72l-52.49,12.91l20.96-77.73L1145.43,517.77 M1151.41,511.92l-7,1.72
						l-52.48,12.9l-2.44,0.6l-0.65,2.42l-20.96,77.73l-1.88,6.96l7-1.72l52.49-12.91l2.44-0.6l0.65-2.42l20.95-77.72L1151.41,511.92
						L1151.41,511.92z"/>
				</g>
			</g>
		</g>
		<g>
			<g>
				<g>
					<path class="st5" d="M366.63,352.87l2.34-0.58l169.48-41.68l52.48-12.9l272.96-67.13c9.51-2.34,19.29-3.52,29.07-3.52
						c26.19,0,51.17,8.21,72.25,23.76l66.44,48.99c9.51,7.02,15.19,18.27,15.19,30.1c0,8.03-2.52,15.69-7.29,22.15
						c-7.02,9.51-18.27,15.19-30.1,15.19c-8.02,0-15.67-2.52-22.14-7.29l-39.86-29.39c-20.35-15-44.46-22.93-69.73-22.93
						c-9.44,0-18.89,1.15-28.06,3.4L384.47,425.42L366.63,352.87z"/>
				</g>
				<g>
					<path class="st0" d="M892.95,229.17c25.3,0,50.22,8.03,70.99,23.34l59.47,43.85l6.97,5.14c9.37,6.91,14.33,17.58,14.33,28.39
						c0,7.26-2.23,14.59-6.88,20.89c-6.91,9.37-17.58,14.33-28.39,14.33c-7.26,0-14.59-2.24-20.88-6.88l-39.86-29.39
						c-20.76-15.31-45.68-23.35-70.99-23.35c-9.54,0-19.13,1.14-28.57,3.47l-278.66,68.52l-52.49,12.91l-131.96,32.45l-16.83-68.43
						l0.28-0.07l169.47-41.68l52.48-12.9l272.96-67.13C873.83,230.32,883.41,229.17,892.95,229.17 M892.95,224.92L892.95,224.92
						c-9.95,0-19.91,1.21-29.58,3.58l-272.96,67.13l-52.48,12.9l-169.47,41.68l-0.3,0.07l-4.11,1.03l1.01,4.11l16.83,68.43
						l1.02,4.13l4.13-1.02L519,394.53l52.49-12.91l278.66-68.52c9.01-2.22,18.28-3.34,27.56-3.34c24.81,0,48.49,7.79,68.46,22.52
						l39.86,29.39c6.84,5.04,14.93,7.71,23.4,7.71c12.51,0,24.4-6,31.81-16.06c5.04-6.83,7.71-14.93,7.71-23.41
						c0-12.5-6-24.4-16.06-31.81l-6.97-5.14l-59.47-43.85C945.01,233.28,919.59,224.92,892.95,224.92L892.95,224.92z"/>
				</g>
			</g>
			<g>
				<path class="st6" d="M952.02,245.52c-37-14-81.58-0.34-116.01,8.39L373.76,371.23l-4.28-16.88l494.91-121.71
					C915.02,220.52,952.02,245.52,952.02,245.52z"/>
			</g>
		</g>
		<g>
			<g>
				<g>
					<path class="st5" d="M453.89,723.62V276.41c0,0,48.46-0.52,48.63-0.52c35.51,0,68.81,23.47,93.76,66.07
						c24.74,42.25,38.37,98.38,38.37,158.05s-13.63,115.8-38.37,158.05c-24.95,42.61-58.25,66.07-93.76,66.07
						C502.35,724.14,453.89,723.62,453.89,723.62z"/>
				</g>
				<g>
					<path class="st0" d="M502.52,278.02c71.8,0,130,99.39,130,222s-58.2,222-130,222c-0.17,0-46.5-0.5-46.5-0.5v-443
						C456.02,278.52,502.35,278.02,502.52,278.02 M502.52,273.76c-0.17,0-29.23,0.31-46.55,0.5l-4.21,0.05v4.21v443v4.21l4.21,0.05
						c17.31,0.19,46.38,0.5,46.55,0.5c18.46,0,36.32-6.14,53.09-18.25c15.96-11.53,30.26-27.97,42.5-48.87
						c24.93-42.57,38.66-99.08,38.66-159.13s-13.73-116.55-38.66-159.13c-12.24-20.9-26.54-37.35-42.5-48.87
						C538.84,279.9,520.98,273.76,502.52,273.76L502.52,273.76z"/>
				</g>
			</g>
			<g>
				<g>
					<path class="st6" d="M463.52,724.14c-13.87,0-27.51-3.61-40.55-10.72c-30.28-16.48-56.05-51.06-72.56-97.38
						c-12.44-34.87-19.01-74.99-19.01-116.02c0-59.67,13.63-115.8,38.37-158.05c24.95-42.61,58.25-66.07,93.76-66.07
						c11.29,0,22.51,2.41,33.33,7.17c30.8,13.52,57.7,45.6,75.75,90.34c15.08,37.33,23.04,81.12,23.04,126.61
						c0,59.67-13.63,115.8-38.37,158.05C532.33,700.68,499.03,724.14,463.52,724.14z"/>
				</g>
				<g>
					<path class="st0" d="M463.52,278.02c11.22,0,22.1,2.43,32.48,6.99c30.76,13.5,57.11,45.75,74.63,89.19
						c14.44,35.76,22.89,79.11,22.89,125.82c0,122.61-58.2,222-130,222c-13.78,0-27.07-3.66-39.53-10.46
						c-30.1-16.38-55.45-50.99-71.58-96.23c-11.99-33.61-18.89-73.08-18.89-115.31C333.52,377.41,391.72,278.02,463.52,278.02
						 M463.52,273.76c-18.46,0-36.33,6.14-53.09,18.25c-15.96,11.53-30.26,27.97-42.5,48.87c-24.93,42.57-38.66,99.08-38.66,159.13
						c0,41.28,6.62,81.64,19.14,116.74c16.69,46.81,42.81,81.81,73.55,98.54c13.35,7.28,27.33,10.98,41.56,10.98
						c18.46,0,36.33-6.14,53.09-18.25c15.96-11.53,30.26-27.97,42.5-48.87c24.93-42.57,38.66-99.08,38.66-159.13
						c0-45.77-8.02-89.83-23.2-127.41c-18.25-45.26-45.55-77.75-76.86-91.49C486.61,276.24,475.1,273.76,463.52,273.76
						L463.52,273.76z"/>
				</g>
			</g>
			<g>
				<path class="st7" d="M570.63,374.2L423.99,711.56c-30.1-16.38-55.45-50.99-71.58-96.23L496,285.01
					C526.76,298.51,553.11,330.76,570.63,374.2z"/>
			</g>
			<g id="XMLID_113_" class="st8">
				<path class="st9" d="M512.6,502.11c0.18-0.17,0.35-0.35,0.52-0.52c-0.17-0.17-0.34-0.36-0.51-0.53
					c15.25-8.17,24.65-25.9,24.83-43.72c0.28-28.56-20.22-50.04-45.07-54.37l0.23-23.93l-16.27-0.16l-0.23,23.23l-29.35-0.19
					l0.23-23.32l-16.27-0.16l-0.23,23.38l-2.99-0.02v0l-43.2-0.42l-0.17,17.59l24.51,0.24l-0.79,81.36l-0.79,81.33l-24.7-0.24
					l-0.17,17.59l35.32,0.34l11.06,0.14l-0.22,22.44l16.27,0.16l0.22-22.39l29.35,0.38l-0.22,22.3l16.27,0.16l0.22-22.99
					c24.93-3.84,45.84-24.92,46.12-53.48C536.75,528.48,527.69,510.57,512.6,502.11z M470.62,569.42l-25.5-0.25l0.51-52.51
					c9.89,0.1,19.57-0.05,29.45,0.29c14.51,0.14,26.28,10.71,26.12,26.87C501.03,562.11,485.57,569.56,470.62,569.42z
					 M475.39,485.49c-9.89,0.14-19.56-0.19-29.45-0.29l0.51-52.51l25.5,0.25c14.95,0.14,30.26,7.9,30.08,26.19
					C501.87,475.29,489.9,485.63,475.39,485.49z"/>
			</g>
			<g>
				<path class="st6" d="M456.92,322.02c10.7,0,21.31,3.97,31.53,11.81c10.78,8.27,21.04,20.89,29.66,36.51
					c18.96,34.36,29.4,80.41,29.4,129.67c0,49.26-10.44,95.31-29.4,129.67c-8.62,15.62-18.87,28.24-29.66,36.51
					c-10.23,7.84-20.84,11.81-31.53,11.81s-21.31-3.97-31.53-11.81c-10.78-8.27-21.04-20.89-29.66-36.51
					c-18.96-34.36-29.4-80.41-29.4-129.67c0-49.26,10.44-95.31,29.4-129.67c8.62-15.62,18.87-28.24,29.66-36.51
					C435.61,326,446.22,322.02,456.92,322.02 M456.92,305.02c-59.42,0-107.59,87.3-107.59,195s48.17,195,107.59,195
					s107.59-87.3,107.59-195S516.34,305.02,456.92,305.02L456.92,305.02z"/>
			</g>
			<g>
				<path class="st0" d="M353.28,464.12l-4.23-0.44c9.63-93.17,54.99-160.8,107.87-160.8c10.04,0,19.98,2.42,29.54,7.18l-1.9,3.81
					c-8.97-4.47-18.27-6.74-27.64-6.74C406.27,307.14,362.68,373.16,353.28,464.12z"/>
			</g>
			<g>
				<path class="st0" d="M456.92,697.14c-25.14,0-49.68-15.56-69.08-43.81c-18.9-27.52-32.33-66.05-37.8-108.5l4.22-0.54
					c5.39,41.79,18.56,79.66,37.09,106.63c18.86,27.46,41.54,41.97,65.58,41.97c16.6,0,32.51-6.91,47.28-20.53l2.88,3.13
					C491.72,689.66,474.37,697.14,456.92,697.14z"/>
			</g>
			<g>
				<path class="st0" d="M551.65,594.71c-0.2,0-0.41-0.03-0.61-0.09c-1.13-0.33-1.77-1.52-1.43-2.64
					c3.12-10.45,5.71-21.48,7.71-32.78c0.2-1.16,1.31-1.92,2.46-1.72c1.16,0.2,1.93,1.31,1.72,2.46
					c-2.03,11.46-4.66,22.65-7.82,33.26C553.41,594.11,552.56,594.71,551.65,594.71z"/>
			</g>
			<g>
				<path class="st0" d="M562.45,540.43c-0.08,0-0.16,0-0.23-0.01c-1.17-0.13-2.01-1.18-1.88-2.35c1.37-12.45,2.06-25.25,2.06-38.05
					c0-27.43-3.1-53.94-9.2-78.78c-0.28-1.14,0.42-2.29,1.56-2.57c1.14-0.28,2.29,0.42,2.57,1.56c6.19,25.17,9.33,52.02,9.33,79.79
					c0,12.96-0.7,25.92-2.09,38.52C564.44,539.62,563.52,540.43,562.45,540.43z"/>
			</g>
		</g>
		<g>
			<path class="st5" d="M595.02,480.52l39-11c0,0,64.81-2.81,99.9,32.1l-9.9,26.9L595.02,480.52z"/>
			<path class="st0" d="M724.02,530.64c-0.25,0-0.5-0.04-0.74-0.13l-129-48c-0.86-0.32-1.42-1.16-1.38-2.08
				c0.04-0.92,0.66-1.71,1.55-1.96l39-11c0.16-0.04,0.32-0.07,0.49-0.08c2.68-0.12,66.14-2.44,101.49,32.71
				c0.59,0.59,0.78,1.46,0.5,2.24l-9.9,26.9c-0.2,0.53-0.59,0.96-1.11,1.2C724.62,530.58,724.32,530.64,724.02,530.64z
				 M601.86,480.79l120.9,44.99l8.69-23.61c-33.17-31.81-92.83-30.67-97.1-30.54L601.86,480.79z"/>
		</g>
		<g>
			<path class="st6" d="M722.52,527.02c0,0-50.5-50.5-127.95-46.82l-0.77,46.45c0,0,69.73-7.63,119.73,43.37L722.52,527.02z"/>
			<path class="st0" d="M714.78,574.34L712,571.5c-48.71-49.69-117.29-42.82-117.98-42.75l-2.4,0.26l0.85-50.86l1.99-0.09
				c40.49-1.93,73.55,11.06,94.14,22.29c22.32,12.17,34.89,24.63,35.42,25.15l0.81,0.81L714.78,574.34z M603.83,524.1
				c7.47,0,18.51,0.57,31.46,3.01c21.13,3.99,51.3,13.94,76.94,38.64l7.96-38.01c-6.74-6.27-54.32-47.97-123.54-45.51l-0.7,42.1
				C597.72,524.22,600.4,524.1,603.83,524.1z"/>
		</g>
		<g>
			<g>
				<g>
					<path class="st5" d="M828.89,864.62V417.41c0,0,48.46-0.52,48.63-0.52c35.51,0,68.81,23.47,93.76,66.07
						c24.74,42.25,38.37,98.38,38.37,158.05s-13.63,115.8-38.37,158.05c-24.95,42.61-58.25,66.07-93.76,66.07
						C877.35,865.14,828.89,864.62,828.89,864.62z"/>
				</g>
				<g>
					<path class="st0" d="M877.52,419.02c71.8,0,130,99.39,130,222s-58.2,222-130,222c-0.17,0-46.5-0.5-46.5-0.5v-443
						C831.02,419.52,877.35,419.02,877.52,419.02 M877.52,414.76c-0.17,0-29.23,0.31-46.55,0.5l-4.21,0.05v4.21v443v4.21l4.21,0.05
						c17.31,0.19,46.38,0.5,46.55,0.5c18.46,0,36.32-6.14,53.09-18.25c15.96-11.53,30.26-27.97,42.5-48.87
						c24.93-42.57,38.66-99.08,38.66-159.13c0-60.04-13.73-116.55-38.66-159.13c-12.24-20.9-26.54-37.35-42.5-48.87
						C913.84,420.9,895.98,414.76,877.52,414.76L877.52,414.76z"/>
				</g>
			</g>
			<g>
				<g>
					<path class="st6" d="M838.52,865.14c-13.87,0-27.51-3.61-40.55-10.72c-30.28-16.48-56.05-51.06-72.56-97.38
						c-12.44-34.87-19.01-74.99-19.01-116.02c0-59.67,13.63-115.8,38.37-158.05c24.95-42.61,58.25-66.07,93.76-66.07
						c11.29,0,22.51,2.41,33.33,7.17c30.8,13.52,57.7,45.6,75.75,90.34c15.08,37.33,23.04,81.12,23.04,126.62
						c0,59.67-13.63,115.8-38.37,158.05C907.33,841.68,874.03,865.14,838.52,865.14z"/>
				</g>
				<g>
					<path class="st0" d="M838.52,419.02c11.22,0,22.1,2.43,32.48,6.99c30.76,13.5,57.11,45.75,74.63,89.19
						c14.44,35.76,22.89,79.11,22.89,125.82c0,122.61-58.2,222-130,222c-13.78,0-27.07-3.66-39.53-10.46
						c-30.1-16.38-55.45-50.99-71.58-96.23c-11.99-33.61-18.89-73.08-18.89-115.31C708.52,518.41,766.72,419.02,838.52,419.02
						 M838.52,414.76c-18.46,0-36.33,6.14-53.09,18.25c-15.96,11.53-30.26,27.97-42.5,48.87c-24.93,42.57-38.66,99.08-38.66,159.13
						c0,41.28,6.62,81.64,19.14,116.74c16.69,46.81,42.81,81.81,73.55,98.54c13.35,7.28,27.33,10.98,41.56,10.98
						c18.46,0,36.33-6.14,53.09-18.25c15.96-11.53,30.26-27.97,42.5-48.87c24.93-42.57,38.66-99.08,38.66-159.13
						c0-45.77-8.02-89.83-23.2-127.41c-18.25-45.26-45.55-77.75-76.86-91.49C861.61,417.24,850.1,414.76,838.52,414.76
						L838.52,414.76z"/>
				</g>
			</g>
			<g>
				<path class="st7" d="M945.63,515.2L798.99,852.56c-30.1-16.38-55.45-50.99-71.58-96.23L871,426.01
					C901.76,439.51,928.11,471.76,945.63,515.2z"/>
			</g>
			<g id="XMLID_109_" class="st8">
				<path class="st9" d="M887.6,643.11c0.18-0.17,0.35-0.35,0.52-0.52c-0.17-0.17-0.34-0.36-0.51-0.53
					c15.25-8.17,24.65-25.9,24.83-43.72c0.28-28.56-20.22-50.04-45.07-54.37l0.23-23.93l-16.27-0.16l-0.23,23.23l-29.35-0.19
					l0.23-23.32l-16.27-0.16l-0.23,23.38l-2.99-0.02v0l-43.2-0.42l-0.17,17.59l24.51,0.24l-0.79,81.36l-0.79,81.33l-24.7-0.24
					l-0.17,17.59l35.32,0.34l11.06,0.14l-0.22,22.44l16.27,0.16l0.22-22.39l29.35,0.38l-0.22,22.3l16.27,0.16l0.22-22.99
					c24.93-3.84,45.84-24.92,46.12-53.48C911.75,669.48,902.69,651.57,887.6,643.11z M845.62,710.42l-25.5-0.25l0.51-52.51
					c9.89,0.1,19.57-0.05,29.45,0.29c14.51,0.14,26.28,10.71,26.12,26.87C876.03,703.11,860.57,710.56,845.62,710.42z
					 M850.39,626.49c-9.89,0.14-19.56-0.19-29.45-0.29l0.51-52.51l25.5,0.25c14.95,0.14,30.26,7.9,30.08,26.19
					C876.87,616.29,864.9,626.63,850.39,626.49z"/>
			</g>
			<g>
				<path class="st6" d="M831.92,463.02c10.7,0,21.31,3.97,31.53,11.81c10.78,8.27,21.04,20.89,29.66,36.51
					c18.96,34.36,29.4,80.41,29.4,129.67c0,49.26-10.44,95.31-29.4,129.67c-8.62,15.62-18.87,28.24-29.66,36.51
					c-10.23,7.84-20.84,11.81-31.53,11.81s-21.31-3.97-31.53-11.81c-10.78-8.27-21.04-20.89-29.66-36.51
					c-18.96-34.36-29.4-80.41-29.4-129.67c0-49.26,10.44-95.31,29.4-129.67c8.62-15.62,18.87-28.24,29.66-36.51
					C810.61,467,821.22,463.02,831.92,463.02 M831.92,446.02c-59.42,0-107.59,87.3-107.59,195c0,107.7,48.17,195,107.59,195
					s107.59-87.3,107.59-195C939.52,533.32,891.34,446.02,831.92,446.02L831.92,446.02z"/>
			</g>
			<g>
				<path class="st0" d="M831.92,838.14c-29.55,0-57.23-20.67-77.94-58.21c-20.49-37.14-31.78-86.47-31.78-138.91
					s11.29-101.77,31.78-138.91c20.71-37.54,48.39-58.21,77.94-58.21c9.49,0,18.91,2.16,27.99,6.43c1.06,0.5,1.52,1.77,1.02,2.83
					c-0.5,1.06-1.77,1.52-2.83,1.02c-8.51-4-17.32-6.03-26.18-6.03c-58.16,0-105.47,86.52-105.47,192.87s47.31,192.87,105.47,192.87
					c4.92,0,9.86-0.63,14.7-1.87c1.14-0.29,2.3,0.39,2.59,1.53c0.29,1.14-0.39,2.3-1.53,2.59
					C842.5,837.47,837.2,838.14,831.92,838.14z"/>
			</g>
			<g>
				<path class="st0" d="M888.31,809.24c-0.5,0-1.01-0.18-1.42-0.54c-0.88-0.78-0.95-2.13-0.17-3
					c31.72-35.45,50.66-97.01,50.66-164.68c0-30.56-3.81-59.79-11.32-86.89c-0.31-1.13,0.35-2.3,1.48-2.62
					c1.13-0.32,2.3,0.35,2.62,1.48c7.62,27.47,11.48,57.08,11.48,88.02c0,68.69-19.34,131.31-51.74,167.52
					C889.48,809,888.9,809.24,888.31,809.24z"/>
			</g>
		</g>
	</g>
	<g>
		<g>
			<path class="st10" d="M775.87,295.65l-9.5,7.39l-3.95-2.51l-30.87-19.65l-41.45,2.3l-0.87,0.05l18.05,26.14l3.16,59.09
				l-8.43,0.85l-2.12,0.21l-27.44-55.93l-48.54-22.16l-4.14-59.08l-0.08-1.07c-14.77,8.44-29.55,70.7-29.55,70.7l-8.44,1.06
				c0,0-1.06-7.39,2.11-54.88c0.31-4.67,1-9.26,2-13.74c9.07-41.04,43.38-72.79,43.38-72.79l25.32-2.11c0,0,6.76,8.16,14.37,20.43
				c8.58,13.83,18.22,32.87,20.46,51.33l45.38,23.21L775.87,295.65z"/>
		</g>
		<g>
			<path class="st11" d="M668.88,179.95c-7.26,5.77-15.43,10.12-22.83,11.84c-10.8,2.51-22.41,2.23-32.37,7.11
				c-11.22,5.51-18.51,16.72-23.73,28.08c-1.13,2.46-2.49,5.13-4.14,7.44c9.07-41.04,43.38-72.79,43.38-72.79l25.32-2.11
				C654.51,159.52,661.27,167.68,668.88,179.95z"/>
		</g>
		<g>
			<path class="st11" d="M702.31,363.07c0.02,2.03-0.07,4.13-0.3,6.24l-2.12,0.21l-27.44-55.93l-48.54-22.16l-4.14-59.08
				c1.4-1.31,3.13-2.11,5.06-1.99c1.38,0.08,2.7,0.64,3.86,1.38c5.31,3.42,7.17,10.29,7.6,16.58c0.43,6.3-0.12,12.82,2.11,18.72
				c4.65,12.28,18.94,17.16,29.93,24.35C691.38,306.47,702.11,335.52,702.31,363.07z"/>
		</g>
		<g>
			<path class="st11" d="M762.42,300.53l-30.87-19.65l-41.45,2.3c-0.55-0.61-1.07-1.22-1.58-1.85c-0.87-1.08-1.74-2.49-1.2-3.76
				c0.43-1.03,1.61-1.5,2.68-1.84c14.18-4.5,29.92-4.28,43.77,1.16C745.49,281.49,755.75,289.87,762.42,300.53z"/>
		</g>
		<g>
			<path class="st0" d="M699.89,371.64c-0.8,0-1.55-0.46-1.91-1.19l-27.1-55.25l-47.85-21.85c-0.71-0.32-1.18-1.01-1.24-1.79
				l-3.93-56.04c-10.68,11.55-21.93,51.29-25.65,66.94c-0.2,0.86-0.92,1.51-1.8,1.62l-8.44,1.06c-1.15,0.15-2.2-0.66-2.37-1.81
				c-0.04-0.31-1.05-8.15,2.09-55.32c3.19-47.78,44.31-86.33,46.05-87.95c0.35-0.32,0.79-0.52,1.27-0.56l25.33-2.11
				c0.7-0.06,1.37,0.23,1.81,0.76c1.25,1.51,30.41,37.05,35.15,71.73l44.38,22.71c0.2,0.1,0.38,0.23,0.54,0.39l41.16,41.16
				c0.43,0.43,0.66,1.03,0.62,1.64c-0.04,0.61-0.34,1.17-0.82,1.55l-9.5,7.39c-0.71,0.55-1.69,0.6-2.45,0.12l-34.25-21.79
				l-37.85,2.1l15.89,23.02c0.22,0.32,0.35,0.7,0.37,1.09l3.17,59.1c0.06,1.13-0.78,2.12-1.91,2.23l-10.55,1.06
				C700.03,371.64,699.96,371.64,699.89,371.64z M625.94,290.02l47.39,21.64c0.45,0.2,0.81,0.56,1.03,1l26.79,54.6l7.06-0.71
				l-3.03-56.47l-17.68-25.62c-0.01-0.02-0.03-0.04-0.04-0.06l-12.54-18.15c-0.67-0.97-0.42-2.29,0.54-2.96
				c0.97-0.67,2.29-0.43,2.96,0.54l11.88,17.2l41.13-2.29c0.45-0.02,0.88,0.09,1.26,0.33l33.56,21.36l6.41-4.99l-39.22-39.22
				l-45.08-23.06c-0.63-0.32-1.06-0.94-1.14-1.64c-3.75-30.93-29.13-64.1-33.66-69.8l-23.45,1.95c-4.81,4.66-41.3,41.38-44.18,84.62
				c-2.31,34.71-2.37,47.83-2.24,52.34l4.73-0.59c2.66-10.92,15.88-62.43,30.22-70.62c0.63-0.36,1.41-0.37,2.06-0.03
				c0.65,0.34,1.07,1,1.12,1.73L625.94,290.02z"/>
		</g>
		<g>
			<g>
				<circle class="st10" cx="637.52" cy="137.02" r="41.63"/>
			</g>
			<g>
				<path class="st0" d="M637.52,97.52c21.82,0,39.5,17.68,39.5,39.5s-17.68,39.5-39.5,39.5s-39.5-17.68-39.5-39.5
					S615.7,97.52,637.52,97.52 M637.52,93.26c-24.12,0-43.75,19.63-43.75,43.75s19.63,43.75,43.75,43.75s43.75-19.63,43.75-43.75
					S661.64,93.26,637.52,93.26L637.52,93.26z"/>
			</g>
		</g>
		<g>
			<path class="st11" d="M647.52,173.52c-20.16,0-36.5-16.34-36.5-36.5s16.34-36.5,36.5-36.5c2.19,0,4.33,0.2,6.41,0.57
				c-5-2.29-10.55-3.57-16.41-3.57c-21.82,0-39.5,17.68-39.5,39.5s17.68,39.5,39.5,39.5c5.86,0,11.41-1.29,16.41-3.57
				C651.85,173.31,649.71,173.52,647.52,173.52z"/>
		</g>
	</g>
</g>
</svg>
