<?xml version="1.0" encoding="utf-8"?>
<!-- Generator: Adobe Illustrator 23.1.0, SVG Export Plug-In . SVG Version: 6.00 Build 0)  -->
<svg version="1.1" id="Слой_1" xmlns="http://www.w3.org/2000/svg" xmlns:xlink="http://www.w3.org/1999/xlink" x="0px" y="0px"
	 viewBox="0 0 1920 1024" style="enable-background:new 0 0 1920 1024;" xml:space="preserve">
<style type="text/css">
	.st0{fill:#20232C;}
	.st1{fill:#343E59;}
	.st2{fill:#1133FD;}
	.st3{fill:#FFFFFF;}
	.st4{fill:#C8CBD3;}
	.st5{fill:#8AF9C2;}
	.st6{fill:#31DD8C;}
	.st7{enable-background:new    ;}
	.st8{fill:#F37635;}
	.st9{fill:#FFE900;}
	.st10{clip-path:url(#SVGID_2_);}
	.st11{fill:#FFBA52;}
	.st12{clip-path:url(#SVGID_4_);}
	.st13{clip-path:url(#SVGID_6_);}
	.st14{fill:#F33535;}
</style>
<g>
	<g>
		<rect x="1.52" y="1.52" class="st0" width="1920" height="1024"/>
	</g>
	<g>
		<polygon class="st1" points="65.52,971.86 280.36,547.04 1592.73,604.4 1844.52,935.89 		"/>
	</g>
	<g>
		<polygon class="st2" points="494.23,682.17 556.44,134.86 1636.48,89.17 1665.64,625.78 		"/>
	</g>
	<g>
		<g>
			<g>
				<path class="st3" d="M583.09,535.69l-24.69,23.66v55.37l-10.59,45.88l-4.23,18.32h-14.83v-59.27l-19.71-39.44l-0.01-0.01
					l-0.03-0.07l-15.3,76.52l-4.45,22.27h-14.82c-13.45-44.85-16.73-92.74-16.29-131.68h-0.04c0,0-0.38-0.28-1.05-0.88
					c-1.78-1.57-5.61-5.29-9.85-11.51c-7.91-11.63-17.23-31.97-17.23-63.36c0-46.98,42.54-73.45,60.18-82.42
					c-7.53-7.02-12.87-16.36-14.86-26.89c-0.56-2.99-0.87-6.08-0.87-9.24c0-27.28,22.11-49.39,49.38-49.39
					c27.28,0,49.39,22.12,49.39,49.39c0,10.49-3.28,20.22-8.87,28.21c-4.56,6.54-10.66,11.93-17.8,15.63
					c2.46,2.4,5.32,5.32,8.34,8.66c11.54,12.75,25.41,31.67,28.2,51.21C589.42,500.95,583.09,535.69,583.09,535.69z"/>
			</g>
			<g>
				<path class="st4" d="M546.55,396.8c2.46,2.4,5.32,5.32,8.34,8.66c-9.36,6.43-23.09,9.68-33.98,8.88
					c-15.74-1.17-32.24-4.96-46.85,1.01c-18.15,7.43-27.69,28.23-28.4,47.82c-0.58,16.08,3.52,31.81,7.63,47.44
					c0.9,3.41,1.81,6.82,2.66,10.24c1.61,6.45,3.07,13.08,2.38,19.71c-0.2,1.96-0.63,3.94-1.29,5.82
					c-1.78-1.57-5.61-5.29-9.85-11.51c-7.91-11.63-17.23-31.97-17.23-63.36c0-46.98,42.54-73.45,60.18-82.42
					c-7.53-7.02-12.87-16.36-14.86-26.89c17.24-6.96,36.08-9.41,54.39-5.79c10.46,2.06,20.96,6.23,28.01,14.24
					c3.25,3.69,5.41,7.21,6.65,10.53C559.79,387.71,553.68,393.09,546.55,396.8z"/>
			</g>
			<g>
				<path class="st4" d="M493.7,656.67l-4.45,22.27h-14.82c-13.45-44.85-16.73-92.74-16.29-131.68h-0.04c0,0-0.38-0.28-1.05-0.88
					c-1.78-1.57,3.7-63.57,5.65-74.26c0.83-4.55,5.16-5.3,9.04-2.78c1.99,1.29,3.18,3.51,4.1,5.71c4.55,10.94,4.34,23.2,3.6,35.04
					c-1.43,22.96-4.53,45.85-4.63,68.86c-0.09,23,2.97,46.5,13.21,67.11C489.8,649.62,491.81,653.13,493.7,656.67z"/>
			</g>
			<g>
				<path class="st4" d="M547.81,660.61l-4.23,18.32h-14.83v-59.27l-19.71-39.44l-0.01-0.01c-0.09-0.69-0.17-1.38-0.25-2.07
					c-0.35-2.89,0.43-7.06,3.33-6.8c0.78,0.07,1.48,0.51,2.13,0.93c13.17,8.77,21.74,23.2,26.4,38.32
					c4.67,15.13,5.82,31.07,6.94,46.85C547.66,658.5,547.74,659.55,547.81,660.61z"/>
			</g>
			<g>
				<g>
					<path d="M543.58,681.77h-14.82c-1.57,0-2.83-1.27-2.83-2.83v-58.6l-15.76-31.52l-18.14,90.68c-0.27,1.33-1.43,2.28-2.78,2.28
						h-14.82c-1.25,0-2.36-0.82-2.72-2.02c-29.49-98.29-10.15-212.54-9.96-213.68c0.27-1.54,1.74-2.57,3.28-2.31
						c1.54,0.27,2.58,1.74,2.31,3.28c-0.2,1.12-19.03,112.54,9.2,209.06h10.38l19.3-96.5c0.24-1.19,1.2-2.09,2.4-2.25
						c1.2-0.15,2.37,0.46,2.91,1.54l19.76,39.51c0.2,0.39,0.3,0.83,0.3,1.27v56.43h9.73l14.24-61.7V461.61
						c0-1.57,1.27-2.83,2.83-2.83s2.83,1.27,2.83,2.83v153.11c0,0.21-0.02,0.43-0.07,0.64l-14.82,64.21
						C546.04,680.86,544.9,681.77,543.58,681.77z"/>
				</g>
				<g>
					<path d="M560.36,561.41l-3.92-4.09l24.01-23.01c0.9-5.68,5.46-37.82-0.16-77.23c-4.38-30.69-37.82-60.48-42.91-64.86
						l-39.24-3.74c-3.14,1.33-17.98,7.94-32.6,20.12c-21.71,18.08-32.71,39.24-32.71,62.9c0,52.31,26.73,73.29,27,73.5l-3.42,4.52
						c-1.19-0.9-29.25-22.69-29.25-78.02c0-25.1,12.06-48.4,34.88-67.36c17.08-14.19,33.92-20.9,34.63-21.18l0.63-0.25l42.37,4.04
						l0.67,0.55c1.65,1.36,40.53,33.73,45.57,68.98c6.32,44.22,0.05,79.58-0.02,79.93l-0.16,0.9L560.36,561.41z"/>
				</g>
				<g>
					<g>
						
							<ellipse transform="matrix(0.1602 -0.9871 0.9871 0.1602 91.5217 813.4722)" class="st3" cx="523.82" cy="352.95" rx="52.23" ry="52.23"/>
					</g>
					<g>
						<path d="M523.82,303.56c27.28,0,49.39,22.11,49.39,49.39s-22.11,49.39-49.39,49.39c-27.28,0-49.39-22.11-49.39-49.39
							S496.54,303.56,523.82,303.56 M523.82,297.89c-30.36,0-55.06,24.7-55.06,55.06s24.7,55.06,55.06,55.06
							c30.36,0,55.06-24.7,55.06-55.06S554.18,297.89,523.82,297.89L523.82,297.89z"/>
					</g>
				</g>
				<g>
					<path class="st4" d="M536.13,391.34c-23.08-0.5-42.15-19.1-43.18-42.17c-1-22.38,14.65-41.28,35.6-45.39
						c-1.56-0.15-3.13-0.23-4.73-0.23c-27.93,0-50.45,23.18-49.35,51.36c0.99,25.58,21.83,46.41,47.41,47.39
						c14.97,0.57,28.52-5.52,37.93-15.55c0.58-0.62-0.16-1.59-0.9-1.17C552.22,389.41,544.43,391.52,536.13,391.34z"/>
				</g>
			</g>
		</g>
		<g>
			<g>
				<path class="st3" d="M931.11,701.93l-24.69,23.66v55.37l-10.59,45.88l-4.23,18.32h-14.83V785.9l-19.71-39.44l-0.01-0.01
					l-0.03-0.07l-15.3,76.52l-4.45,22.27h-14.82c-13.45-44.85-16.73-92.74-16.29-131.68h-0.04c0,0-0.38-0.28-1.05-0.88
					c-1.78-1.57-5.61-5.29-9.85-11.51c-7.91-11.63-17.23-31.97-17.23-63.36c0-46.98,42.54-73.45,60.18-82.42
					c-7.53-7.02-12.87-16.36-14.86-26.89c-0.56-2.99-0.87-6.08-0.87-9.24c0-27.28,22.11-49.39,49.38-49.39
					c27.28,0,49.39,22.12,49.39,49.39c0,10.49-3.28,20.22-8.87,28.21c-4.56,6.54-10.66,11.93-17.8,15.63
					c2.46,2.4,5.32,5.32,8.34,8.66c11.54,12.75,25.41,31.67,28.2,51.21C937.44,667.18,931.11,701.93,931.11,701.93z"/>
			</g>
			<g>
				<path class="st4" d="M894.57,563.03c2.46,2.4,5.32,5.32,8.34,8.66c-9.36,6.43-23.09,9.68-33.98,8.88
					c-15.74-1.17-32.24-4.96-46.85,1.01c-18.15,7.43-27.69,28.23-28.4,47.82c-0.58,16.08,3.52,31.81,7.63,47.44
					c0.9,3.41,1.81,6.82,2.66,10.24c1.61,6.45,3.07,13.08,2.38,19.71c-0.2,1.96-0.63,3.94-1.29,5.82
					c-1.78-1.57-5.61-5.29-9.85-11.51c-7.91-11.63-17.23-31.97-17.23-63.36c0-46.98,42.54-73.45,60.18-82.42
					c-7.53-7.02-12.87-16.36-14.86-26.89c17.24-6.96,36.08-9.41,54.39-5.79c10.46,2.06,20.96,6.23,28.01,14.24
					c3.25,3.69,5.41,7.21,6.65,10.53C907.81,553.94,901.7,559.33,894.57,563.03z"/>
			</g>
			<g>
				<path class="st4" d="M841.72,822.9l-4.45,22.27h-14.82c-13.45-44.85-16.73-92.74-16.29-131.68h-0.04c0,0-0.38-0.28-1.05-0.88
					c-1.78-1.57,3.7-63.57,5.65-74.26c0.83-4.55,5.16-5.3,9.04-2.78c1.99,1.29,3.18,3.51,4.1,5.71c4.55,10.94,4.34,23.2,3.6,35.04
					c-1.43,22.96-4.53,45.85-4.63,68.86c-0.09,23,2.97,46.5,13.21,67.11C837.83,815.85,839.83,819.36,841.72,822.9z"/>
			</g>
			<g>
				<path class="st4" d="M895.83,826.85l-4.23,18.32h-14.83V785.9l-19.71-39.44l-0.01-0.01c-0.09-0.69-0.17-1.38-0.25-2.07
					c-0.35-2.89,0.43-7.06,3.33-6.8c0.78,0.07,1.48,0.51,2.13,0.93c13.17,8.77,21.74,23.2,26.4,38.32
					c4.67,15.13,5.82,31.07,6.94,46.85C895.69,824.74,895.76,825.79,895.83,826.85z"/>
			</g>
			<g>
				<g>
					<path d="M891.6,848h-14.82c-1.57,0-2.83-1.27-2.83-2.83v-58.6l-15.76-31.52l-18.14,90.68c-0.27,1.33-1.43,2.28-2.78,2.28
						h-14.82c-1.25,0-2.36-0.82-2.72-2.02c-29.49-98.29-10.15-212.54-9.96-213.68c0.27-1.54,1.74-2.57,3.28-2.31
						c1.54,0.27,2.58,1.74,2.31,3.28c-0.2,1.12-19.03,112.54,9.2,209.06h10.38l19.3-96.5c0.24-1.19,1.2-2.09,2.4-2.25
						c1.2-0.16,2.37,0.46,2.91,1.54l19.76,39.51c0.2,0.39,0.3,0.83,0.3,1.27v56.43h9.73l14.24-61.7V627.85
						c0-1.57,1.27-2.83,2.83-2.83s2.83,1.27,2.83,2.83v153.11c0,0.21-0.02,0.43-0.07,0.64l-14.82,64.21
						C894.07,847.09,892.92,848,891.6,848z"/>
				</g>
				<g>
					<path d="M908.38,727.64l-3.92-4.09l24.01-23.01c0.9-5.68,5.46-37.82-0.16-77.23c-4.39-30.72-37.81-60.48-42.91-64.86
						l-39.24-3.74c-3.15,1.33-17.98,7.94-32.6,20.12c-21.71,18.08-32.71,39.24-32.71,62.89c0,52.31,26.73,73.29,27,73.5l-3.42,4.52
						c-1.19-0.9-29.25-22.69-29.25-78.02c0-25.1,12.06-48.4,34.88-67.36c17.08-14.19,33.92-20.9,34.63-21.18l0.63-0.25l42.37,4.04
						l0.67,0.55c1.65,1.36,40.53,33.73,45.57,68.98c6.32,44.22,0.05,79.58-0.02,79.93l-0.16,0.9L908.38,727.64z"/>
				</g>
				<g>
					<g>
						
							<ellipse transform="matrix(0.7071 -0.7071 0.7071 0.7071 -111.7622 768.5531)" class="st3" cx="871.84" cy="519.19" rx="52.23" ry="52.23"/>
					</g>
					<g>
						<path d="M871.84,469.79c27.28,0,49.39,22.11,49.39,49.39c0,27.28-22.11,49.39-49.39,49.39c-27.28,0-49.39-22.11-49.39-49.39
							C822.45,491.91,844.57,469.79,871.84,469.79 M871.84,464.12c-30.36,0-55.06,24.7-55.06,55.06c0,30.36,24.7,55.06,55.06,55.06
							c30.36,0,55.06-24.7,55.06-55.06C926.9,488.82,902.2,464.12,871.84,464.12L871.84,464.12z"/>
					</g>
				</g>
				<g>
					<path class="st4" d="M884.15,557.58c-23.08-0.5-42.15-19.1-43.18-42.17c-1-22.38,14.65-41.28,35.6-45.39
						c-1.56-0.15-3.13-0.23-4.73-0.23c-27.93,0-50.45,23.18-49.35,51.36c0.99,25.58,21.83,46.41,47.41,47.39
						c14.97,0.57,28.52-5.52,37.93-15.55c0.58-0.62-0.16-1.59-0.9-1.17C900.24,555.64,892.45,557.76,884.15,557.58z"/>
				</g>
			</g>
		</g>
		<g>
			<g>
				<path class="st3" d="M912.8,410.86l-0.81,4.42l-1.14,6.27l-94.03,38.86c-14.45,5.97-24.24,19.63-25.27,35.23l-2.22,33.82
					l-0.16,0.03l-2.33,85.24l-14.82,64.21h-14.83v-59.27l-1.03-2.05l-18.72-37.47l-19.75,98.79h-14.82
					c-13.45-44.85-16.73-92.75-16.29-131.69l-0.04,0.01c0,0-28.12-21.21-28.12-75.76c0-59.27,67.72-85.91,67.72-85.91l48.61,1.94
					c0,0,8.69,22.92,23.33,26.25C819.47,418.64,912.8,410.86,912.8,410.86z"/>
			</g>
			<g>
				<path class="st4" d="M911.99,415.29l-1.14,6.27l-94.03,38.86c-14.45,5.97-24.24,19.63-25.27,35.23l-2.22,33.82l-0.16,0.03
					l-2.33,85.24l-14.82,64.21h-14.83v-59.27l-1.03-2.05c2.27-6.97,4.28-14.01,5.39-21.23c1.37-8.87,1.37-17.89,1.59-26.86
					c0.6-23.89,2.85-47.75,6.71-71.34c1.25-7.65,2.7-15.35,5.76-22.48c9.84-22.78,34.22-35.5,57.83-43.13
					c21.86-7.06,44.51-11.28,67.17-14.87C904.46,417.09,908.41,415.84,911.99,415.29z"/>
			</g>
			<g>
				<path class="st4" d="M775,396.8c2.46,2.4,5.32,5.32,8.34,8.66c-9.36,6.43-23.09,9.68-33.98,8.88
					c-15.74-1.17-32.24-4.96-46.85,1.01c-18.15,7.43-27.69,28.23-28.4,47.82c-0.58,16.08,3.52,31.81,7.63,47.44
					c0.9,3.41,1.81,6.82,2.66,10.24c1.61,6.45,3.07,13.08,2.38,19.71c-0.2,1.96-0.63,3.94-1.29,5.82
					c-1.78-1.57-5.61-5.29-9.85-11.51c-7.91-11.63-17.23-31.97-17.23-63.36c0-46.98,42.54-73.45,60.18-82.42
					c-7.53-7.02-12.87-16.36-14.86-26.89c17.24-6.96,36.08-9.41,54.39-5.79c10.46,2.06,20.96,6.23,28.01,14.24
					c3.25,3.69,5.41,7.21,6.65,10.53C788.24,387.71,782.13,393.09,775,396.8z"/>
			</g>
			<g>
				<path class="st4" d="M722.15,656.67l-4.45,22.27h-14.82c-13.45-44.85-16.73-92.74-16.29-131.68h-0.04c0,0-0.38-0.28-1.05-0.88
					c-1.78-1.57,3.7-63.57,5.65-74.26c0.83-4.55,5.16-5.3,9.04-2.78c1.99,1.29,3.18,3.51,4.1,5.71c4.55,10.94,4.34,23.2,3.6,35.04
					c-1.43,22.96-4.53,45.85-4.63,68.86c-0.09,23,2.97,46.5,13.21,67.11C718.25,649.62,720.26,653.13,722.15,656.67z"/>
			</g>
			<g>
				<g>
					<path d="M772.03,681.77h-14.82c-1.57,0-2.83-1.27-2.83-2.83v-58.6l-15.76-31.52l-18.14,90.68c-0.27,1.33-1.43,2.28-2.78,2.28
						h-14.82c-1.25,0-2.36-0.82-2.72-2.02c-29.49-98.29-10.15-212.54-9.96-213.68c0.27-1.54,1.74-2.57,3.28-2.31
						c1.54,0.27,2.58,1.74,2.31,3.28c-0.2,1.12-19.03,112.54,9.2,209.06h10.38l19.3-96.5c0.24-1.19,1.2-2.09,2.4-2.25
						c1.2-0.15,2.37,0.46,2.91,1.54l19.76,39.51c0.2,0.39,0.3,0.83,0.3,1.27v56.43h9.73l14.25-61.74l2.48-90.81
						c0.04-1.54,1.3-2.76,2.83-2.76c0.03,0,0.05,0,0.08,0c1.56,0.04,2.8,1.35,2.76,2.91l-2.49,91.09c0,0.19-0.03,0.38-0.07,0.56
						l-14.82,64.21C774.49,680.86,773.35,681.77,772.03,681.77z"/>
				</g>
				<g>
					<path d="M684.85,549.51c-1.19-0.9-29.25-22.69-29.25-78.02c0-25.1,12.06-48.4,34.88-67.36c17.08-14.19,33.92-20.9,34.63-21.18
						l0.56-0.22l51.07,2.04l0.67,1.75c0.08,0.22,8.34,21.54,21.31,24.49c20.72,4.71,112.92-2.9,113.85-2.98l3.69-0.31l-2.88,15.85
						l-95.46,39.45c-13.55,5.6-22.56,18.16-23.52,32.79l-2.22,33.82l-5.66-0.37l2.22-33.82c1.1-16.8,11.45-31.23,27.01-37.66
						l92.6-38.27l1.01-5.54c-17.78,1.41-92.52,6.96-111.89,2.56c-13.6-3.09-22.17-20.57-24.63-26.25l-46.17-1.85
						c-2.98,1.25-17.93,7.87-32.68,20.15c-21.71,18.08-32.71,39.24-32.71,62.9c0,52.53,26.72,73.29,26.99,73.5L684.85,549.51z"/>
				</g>
				<g>
					<g>
						<circle class="st3" cx="752.27" cy="352.95" r="52.23"/>
					</g>
					<g>
						<path d="M752.27,303.56c27.28,0,49.39,22.11,49.39,49.39s-22.11,49.39-49.39,49.39c-27.28,0-49.39-22.11-49.39-49.39
							S724.99,303.56,752.27,303.56 M752.27,297.89c-30.36,0-55.06,24.7-55.06,55.06s24.7,55.06,55.06,55.06
							c30.36,0,55.06-24.7,55.06-55.06S782.63,297.89,752.27,297.89L752.27,297.89z"/>
					</g>
				</g>
				<g>
					<path class="st4" d="M764.58,391.34c-23.08-0.5-42.15-19.1-43.18-42.17c-1-22.38,14.65-41.28,35.6-45.39
						c-1.56-0.15-3.13-0.23-4.73-0.23c-27.93,0-50.45,23.18-49.35,51.36c0.99,25.58,21.83,46.41,47.41,47.39
						c14.97,0.57,28.52-5.52,37.93-15.55c0.58-0.62-0.16-1.59-0.9-1.17C780.67,389.41,772.88,391.52,764.58,391.34z"/>
				</g>
			</g>
		</g>
		<g>
			<g>
				<path class="st3" d="M694.88,661.1l-24.69,23.66v55.37l-10.59,45.88l-4.23,18.32h-14.82v-59.27l-19.71-39.44l-0.01-0.01
					l-0.03-0.07l-15.3,76.52l-4.45,22.27h-14.82c-13.45-44.85-16.73-92.74-16.29-131.68h-0.04c0,0-0.38-0.28-1.05-0.88
					c-1.78-1.57-5.61-5.29-9.85-11.51c-7.91-11.63-17.23-31.97-17.23-63.36c0-46.98,42.54-73.45,60.18-82.42
					c-7.53-7.02-12.87-16.36-14.86-26.89c-0.56-2.99-0.87-6.08-0.87-9.24c0-27.28,22.11-49.39,49.38-49.39
					c27.28,0,49.39,22.12,49.39,49.39c0,10.49-3.28,20.22-8.87,28.21c-4.56,6.54-10.66,11.93-17.8,15.63
					c2.46,2.4,5.32,5.32,8.34,8.66c11.54,12.75,25.41,31.67,28.2,51.21C701.21,626.35,694.88,661.1,694.88,661.1z"/>
			</g>
			<g>
				<path class="st4" d="M658.34,522.2c2.46,2.4,5.32,5.32,8.34,8.66c-9.36,6.43-23.09,9.68-33.98,8.88
					c-15.74-1.17-32.24-4.96-46.85,1.01c-18.15,7.43-27.69,28.23-28.4,47.82c-0.58,16.08,3.52,31.81,7.63,47.44
					c0.9,3.41,1.81,6.82,2.66,10.24c1.61,6.45,3.07,13.08,2.38,19.7c-0.2,1.96-0.63,3.94-1.29,5.82c-1.78-1.57-5.61-5.29-9.85-11.51
					c-7.91-11.63-17.23-31.97-17.23-63.36c0-46.98,42.54-73.45,60.18-82.42c-7.53-7.02-12.87-16.36-14.86-26.89
					c17.24-6.96,36.08-9.41,54.39-5.79c10.46,2.06,20.96,6.23,28.01,14.24c3.25,3.69,5.41,7.21,6.65,10.53
					C671.58,513.11,665.48,518.5,658.34,522.2z"/>
			</g>
			<g>
				<path class="st4" d="M605.5,782.07l-4.45,22.27h-14.82c-13.45-44.85-16.73-92.74-16.29-131.68h-0.04c0,0-0.38-0.28-1.05-0.88
					c-1.78-1.57,3.7-63.57,5.65-74.26c0.83-4.55,5.16-5.3,9.04-2.78c1.99,1.29,3.18,3.51,4.1,5.71c4.55,10.94,4.34,23.2,3.6,35.04
					c-1.43,22.96-4.53,45.85-4.63,68.86c-0.09,23,2.97,46.5,13.21,67.11C601.6,775.02,603.6,778.53,605.5,782.07z"/>
			</g>
			<g>
				<path class="st4" d="M659.6,786.02l-4.23,18.32h-14.82v-59.27l-19.71-39.44l-0.01-0.01c-0.09-0.69-0.17-1.38-0.25-2.07
					c-0.35-2.89,0.43-7.06,3.33-6.8c0.78,0.07,1.48,0.51,2.13,0.93c13.17,8.77,21.74,23.2,26.4,38.32
					c4.67,15.13,5.82,31.07,6.94,46.85C659.46,783.91,659.54,784.96,659.6,786.02z"/>
			</g>
			<g>
				<g>
					<path d="M655.37,807.17h-14.82c-1.57,0-2.83-1.27-2.83-2.83v-58.6l-15.76-31.53l-18.14,90.68c-0.27,1.33-1.43,2.28-2.78,2.28
						h-14.82c-1.25,0-2.36-0.82-2.72-2.02c-29.49-98.29-10.15-212.54-9.96-213.68c0.27-1.54,1.74-2.57,3.28-2.31
						c1.54,0.27,2.58,1.74,2.31,3.28c-0.2,1.12-19.03,112.54,9.2,209.06h10.38l19.3-96.5c0.24-1.19,1.2-2.09,2.4-2.25
						c1.2-0.16,2.37,0.46,2.91,1.54l19.76,39.51c0.2,0.39,0.3,0.83,0.3,1.27v56.43h9.73l14.24-61.7V587.02
						c0-1.57,1.27-2.83,2.83-2.83s2.83,1.27,2.83,2.83v153.11c0,0.21-0.02,0.43-0.07,0.64l-14.82,64.21
						C657.84,806.26,656.69,807.17,655.37,807.17z"/>
				</g>
				<g>
					<path d="M672.15,686.81l-3.92-4.09l24.02-23.01c0.9-5.68,5.46-37.82-0.16-77.23c-4.38-30.69-37.82-60.48-42.91-64.86
						l-39.24-3.74c-3.14,1.33-17.98,7.94-32.6,20.12c-21.71,18.08-32.71,39.24-32.71,62.89c0,52.31,26.73,73.29,27,73.5l-3.42,4.52
						c-1.19-0.9-29.25-22.69-29.25-78.02c0-25.1,12.06-48.4,34.88-67.36c17.08-14.2,33.92-20.9,34.63-21.18l0.63-0.25l42.37,4.03
						l0.67,0.55c1.65,1.36,40.53,33.73,45.57,68.98c6.32,44.22,0.05,79.58-0.02,79.94l-0.16,0.9L672.15,686.81z"/>
				</g>
				<g>
					<g>
						<circle class="st3" cx="635.62" cy="478.36" r="52.23"/>
					</g>
					<g>
						<path d="M635.62,428.96c27.28,0,49.39,22.11,49.39,49.39s-22.11,49.39-49.39,49.39s-49.39-22.11-49.39-49.39
							S608.34,428.96,635.62,428.96 M635.62,423.3c-30.36,0-55.06,24.7-55.06,55.06s24.7,55.06,55.06,55.06s55.06-24.7,55.06-55.06
							S665.98,423.3,635.62,423.3L635.62,423.3z"/>
					</g>
				</g>
				<g>
					<path class="st4" d="M647.92,516.75c-23.08-0.5-42.15-19.1-43.18-42.17c-1-22.38,14.65-41.28,35.6-45.39
						c-1.56-0.15-3.13-0.23-4.73-0.23c-27.93,0-50.45,23.18-49.35,51.36c0.99,25.58,21.83,46.41,47.41,47.39
						c14.97,0.57,28.52-5.52,37.93-15.55c0.58-0.62-0.16-1.59-0.9-1.17C664.01,514.81,656.22,516.93,647.92,516.75z"/>
				</g>
			</g>
		</g>
		<g>
			<g>
				<g>
					<path class="st3" d="M701.03,608.4c-6.79,0-24.05-3.71-37.79-38.03l-24.77-66.35c-0.46-1.23-0.01-2.62,1.08-3.35l14.82-9.88
						c0.48-0.32,1.02-0.48,1.57-0.48c0.64,0,1.27,0.21,1.79,0.63c2,1.62,49.11,40.1,63.21,73.96c4.57,10.99,5.18,20.47,1.81,28.16
						c-3.88,8.84-10.44,14.16-18.48,15.01C703.75,608.2,702.63,608.4,701.03,608.4z"/>
				</g>
				<g>
					<path d="M655.94,493.15c0,0,48.39,39.25,62.38,72.85c3.92,9.42,5.13,18.39,1.83,25.94c-3.72,8.49-9.64,12.71-16.36,13.35
						c0,0-1.01,0.28-2.76,0.28c-6.27,0-22.07-3.56-35.15-36.25l-24.75-66.29l10.3-6.87L655.94,493.15 M655.94,487.48
						c-1.09,0-2.19,0.31-3.14,0.95l-4.51,3l-10.31,6.88c-2.19,1.46-3.09,4.23-2.17,6.7l24.75,66.29c0.02,0.04,0.03,0.08,0.05,0.12
						c6.04,15.09,13.41,26.1,21.9,32.74c7.48,5.84,14.2,7.07,18.51,7.07c1.69,0,2.96-0.19,3.68-0.34c9.03-1,16.35-6.91,20.63-16.67
						c3.7-8.43,3.09-18.66-1.78-30.39c-14.37-34.52-62.02-73.44-64.04-75.08C658.48,487.91,657.21,487.48,655.94,487.48
						L655.94,487.48z"/>
				</g>
			</g>
			<g>
				<path class="st4" d="M720.15,591.94c-3.72,8.49-9.64,12.71-16.36,13.35c0,0-21.18,5.83-37.91-35.97l-24.75-66.29l10.3-6.87
					c10.66,21.18,19.06,52.98,22.28,61.23c3.14,8.05,6.51,16.45,13.08,22.08c6.56,5.62,17.36,7.33,23.6,1.34
					c3.88-3.72,5.63-9.75,7.92-14.81C722.24,575.42,723.45,584.4,720.15,591.94z"/>
			</g>
		</g>
		<g>
			<g>
				<path class="st5" d="M395.47,658.18l-24.69,23.66v55.37l-3.86,16.74l-6.73,29.14l-4.23,18.32h-14.83v-59.27l-19.71-39.44
					l-0.01-0.01l-0.03-0.07l-15.3,76.52l-4.45,22.27h-14.82c-13.45-44.85-16.73-92.74-16.29-131.68h-0.04c0,0-0.38-0.28-1.05-0.88
					c-1.78-1.57-5.61-5.29-9.85-11.51c-7.91-11.63-17.23-31.97-17.23-63.36c0-46.98,42.54-73.45,60.18-82.42
					c-7.23-6.75-12.44-15.63-14.61-25.65c-0.09-0.41-0.17-0.82-0.25-1.23c-0.56-2.99-0.87-6.08-0.87-9.24
					c0-27.28,22.11-49.39,49.38-49.39s49.39,22.12,49.39,49.39c0,7.71-1.77,15.01-4.93,21.51c-1.14,2.34-2.45,4.58-3.94,6.7
					c-4.56,6.54-10.66,11.93-17.8,15.63c2.46,2.4,5.32,5.32,8.34,8.66c0.15,0.17,0.3,0.33,0.44,0.5
					c11.46,12.74,25.01,31.43,27.76,50.72C401.8,623.44,395.47,658.18,395.47,658.18z"/>
			</g>
			<g>
				<path class="st6" d="M380.66,496.95c-1.14,2.34-2.45,4.58-3.94,6.7c-4.56,6.54-10.66,11.93-17.8,15.63
					c2.46,2.4,5.32,5.32,8.34,8.66c0.15,0.17,0.3,0.33,0.44,0.5c-4.36,3.03-9.57,5.55-15.44,7.31
					c-14.58,4.37-30.47,6.19-42.84,15.06c-16.45,11.77-22.79,35.75-14.32,54.12c4.9,10.63,13.77,18.79,21.45,27.61
					c24.94,28.59,38.43,65.44,46.86,102.43c1.4,6.15,2.62,12.54,3.5,18.99l-6.73,29.14l-4.23,18.32h-14.83v-59.27l-19.71-39.44
					l-0.01-0.01l-0.03-0.07l-15.3,76.52l-4.45,22.27h-14.82c-13.45-44.85-16.73-92.74-16.29-131.68h-0.04c0,0-0.38-0.28-1.05-0.88
					c-1.78-1.57-5.61-5.29-9.85-11.51c-7.91-11.63-17.23-31.97-17.23-63.36c0-46.98,42.54-73.45,60.18-82.42
					c-7.23-6.75-12.44-15.63-14.61-25.65c10.05-4.39,20.59-7.62,31.47-9.48c13.66-2.33,28.14-2.44,40.91,2.97
					C371.38,484.07,377.88,490.3,380.66,496.95z"/>
			</g>
			<g>
				<path class="st5" d="M284.03,739.88c-1.53-10.4-2.91-21.66,2.17-30.85c2.29-4.13,6.76-7.86,11.33-6.67
					c5.13,1.33,6.91,7.64,7.32,12.93c0.81,10.29-0.16,20.72-2.84,30.69c-0.85,3.15-2,6.46-4.59,8.44
					C288.65,761.14,284.82,745.26,284.03,739.88z"/>
			</g>
			<g>
				<g>
					<path d="M355.96,804.26h-14.82c-1.57,0-2.83-1.27-2.83-2.83v-58.6l-15.76-31.52l-18.14,90.68c-0.27,1.33-1.43,2.28-2.78,2.28
						h-14.82c-1.25,0-2.36-0.82-2.72-2.02c-29.49-98.29-10.15-212.54-9.96-213.68c0.27-1.54,1.74-2.57,3.28-2.31
						c1.54,0.27,2.58,1.74,2.31,3.28c-0.2,1.12-19.03,112.54,9.2,209.06h10.38l19.3-96.5c0.24-1.19,1.2-2.09,2.4-2.25
						c1.2-0.16,2.37,0.46,2.91,1.54l19.76,39.51c0.2,0.39,0.3,0.83,0.3,1.27v56.43h9.73l14.24-61.7V584.1
						c0-1.57,1.27-2.83,2.83-2.83s2.83,1.27,2.83,2.83v153.11c0,0.21-0.02,0.43-0.07,0.64l-14.82,64.21
						C358.42,803.34,357.28,804.26,355.96,804.26z"/>
				</g>
				<g>
					<path d="M372.73,683.89l-3.92-4.09l24.02-23.01c0.9-5.68,5.46-37.82-0.16-77.23c-4.38-30.69-37.82-60.48-42.91-64.86
						l-39.24-3.74c-3.14,1.33-17.98,7.94-32.6,20.12c-21.71,18.08-32.71,39.25-32.71,62.9c0,52.31,26.73,73.29,27,73.5l-3.42,4.52
						c-1.19-0.9-29.25-22.69-29.25-78.02c0-25.1,12.06-48.4,34.88-67.36c17.08-14.19,33.92-20.9,34.63-21.18l0.63-0.25l42.37,4.04
						l0.67,0.55c1.65,1.36,40.53,33.73,45.57,68.98c6.32,44.22,0.05,79.58-0.02,79.93l-0.16,0.9L372.73,683.89z"/>
				</g>
				<g>
					<g>
						<circle class="st5" cx="336.2" cy="475.44" r="52.23"/>
					</g>
					<g>
						<path d="M336.2,426.05c27.28,0,49.39,22.11,49.39,49.39c0,27.28-22.11,49.39-49.39,49.39c-27.28,0-49.39-22.11-49.39-49.39
							C286.81,448.16,308.92,426.05,336.2,426.05 M336.2,420.38c-30.36,0-55.06,24.7-55.06,55.06s24.7,55.06,55.06,55.06
							c30.36,0,55.06-24.7,55.06-55.06S366.56,420.38,336.2,420.38L336.2,420.38z"/>
					</g>
				</g>
				<g>
					<path class="st5" d="M348.5,513.83c-23.08-0.5-42.15-19.1-43.18-42.17c-1-22.38,14.65-41.28,35.6-45.39
						c-1.56-0.15-3.13-0.23-4.73-0.23c-27.93,0-50.45,23.18-49.35,51.36c0.99,25.58,21.83,46.41,47.41,47.39
						c14.97,0.57,28.52-5.52,37.93-15.55c0.58-0.62-0.16-1.59-0.9-1.17C364.6,511.9,356.81,514.01,348.5,513.83z"/>
				</g>
			</g>
		</g>
		<g>
			<g>
				<path class="st5" d="M843.62,763.17l-24.69,23.66v55.37l-3.86,16.74l-6.73,29.14l-4.23,18.32h-14.83v-59.27l-19.71-39.44
					l-0.01-0.01l-0.03-0.07l-15.3,76.52l-4.45,22.27h-14.82c-13.45-44.85-16.73-92.74-16.29-131.68h-0.04c0,0-0.38-0.28-1.05-0.88
					c-1.78-1.57-5.61-5.29-9.85-11.51c-7.91-11.63-17.23-31.97-17.23-63.36c0-46.98,42.54-73.45,60.18-82.42
					c-7.23-6.75-12.44-15.63-14.61-25.65c-0.09-0.41-0.17-0.82-0.25-1.23c-0.56-2.99-0.87-6.08-0.87-9.24
					c0-27.28,22.11-49.39,49.38-49.39s49.39,22.12,49.39,49.39c0,7.71-1.77,15.01-4.93,21.51c-1.14,2.34-2.45,4.58-3.94,6.7
					c-4.56,6.54-10.66,11.93-17.8,15.63c2.46,2.4,5.32,5.32,8.34,8.66c0.15,0.17,0.3,0.33,0.44,0.5
					c11.46,12.74,25.01,31.43,27.76,50.72C849.95,728.43,843.62,763.17,843.62,763.17z"/>
			</g>
			<g>
				<path class="st6" d="M828.81,601.94c-1.14,2.34-2.45,4.58-3.94,6.7c-4.56,6.54-10.66,11.93-17.8,15.63
					c2.46,2.4,5.32,5.32,8.34,8.66c0.15,0.17,0.3,0.33,0.44,0.5c-4.36,3.03-9.57,5.55-15.44,7.31
					c-14.58,4.37-30.47,6.19-42.84,15.06c-16.45,11.77-22.79,35.75-14.32,54.12c4.9,10.63,13.77,18.79,21.45,27.61
					c24.94,28.59,38.43,65.44,46.86,102.43c1.4,6.15,2.62,12.54,3.5,18.99l-6.73,29.14l-4.23,18.32h-14.83v-59.27l-19.71-39.44
					l-0.01-0.01l-0.03-0.07l-15.3,76.52l-4.45,22.27h-14.82c-13.45-44.85-16.73-92.74-16.29-131.68h-0.04c0,0-0.38-0.28-1.05-0.88
					c-1.78-1.57-5.61-5.29-9.85-11.51c-7.91-11.63-17.23-31.97-17.23-63.36c0-46.98,42.54-73.45,60.18-82.42
					c-7.23-6.75-12.44-15.63-14.61-25.65c10.05-4.39,20.59-7.62,31.47-9.48c13.66-2.33,28.14-2.44,40.91,2.97
					C819.53,589.06,826.03,595.29,828.81,601.94z"/>
			</g>
			<g>
				<path class="st5" d="M732.18,844.87c-1.53-10.4-2.91-21.66,2.17-30.85c2.29-4.13,6.76-7.86,11.33-6.67
					c5.13,1.33,6.91,7.64,7.32,12.93c0.81,10.29-0.16,20.72-2.84,30.69c-0.85,3.15-2,6.46-4.59,8.44
					C736.8,866.13,732.97,850.25,732.18,844.87z"/>
			</g>
			<g>
				<g>
					<path d="M804.11,909.25h-14.82c-1.57,0-2.83-1.27-2.83-2.83v-58.6l-15.76-31.52l-18.14,90.68c-0.27,1.33-1.43,2.28-2.78,2.28
						h-14.82c-1.25,0-2.36-0.82-2.72-2.02c-29.49-98.29-10.15-212.54-9.96-213.68c0.27-1.54,1.74-2.57,3.28-2.31
						c1.54,0.27,2.58,1.74,2.31,3.28c-0.2,1.12-19.03,112.54,9.2,209.06h10.38l19.3-96.5c0.24-1.19,1.2-2.09,2.4-2.25
						c1.2-0.16,2.37,0.46,2.91,1.54l19.76,39.51c0.2,0.39,0.3,0.83,0.3,1.27v56.43h9.73l14.24-61.7V689.09
						c0-1.57,1.27-2.83,2.83-2.83s2.83,1.27,2.83,2.83V842.2c0,0.21-0.02,0.43-0.07,0.64l-14.82,64.21
						C806.57,908.33,805.43,909.25,804.11,909.25z"/>
				</g>
				<g>
					<path d="M820.89,788.88l-3.92-4.09l24.02-23.01c0.9-5.68,5.46-37.82-0.16-77.23c-4.39-30.72-37.81-60.48-42.91-64.86
						l-39.24-3.74c-3.14,1.33-17.98,7.94-32.6,20.12c-21.71,18.08-32.71,39.25-32.71,62.9c0,52.53,26.73,73.29,27,73.5l-3.41,4.53
						c-1.19-0.9-29.25-22.69-29.25-78.02c0-25.1,12.06-48.4,34.88-67.36c17.08-14.19,33.92-20.9,34.63-21.18l0.63-0.25l42.37,4.04
						l0.67,0.55c1.65,1.36,40.53,33.73,45.57,68.99c6.32,44.22,0.05,79.58-0.02,79.93l-0.16,0.9L820.89,788.88z"/>
				</g>
				<g>
					<g>
						<path class="st5" d="M784.35,632.66c-28.8,0-52.23-23.43-52.23-52.23c0-28.8,23.43-52.23,52.23-52.23s52.23,23.43,52.23,52.23
							C836.58,609.23,813.15,632.66,784.35,632.66z"/>
					</g>
					<g>
						<path d="M784.35,531.04c27.28,0,49.39,22.11,49.39,49.39c0,27.28-22.11,49.39-49.39,49.39c-27.28,0-49.39-22.11-49.39-49.39
							C734.96,553.15,757.07,531.04,784.35,531.04 M784.35,525.37c-30.36,0-55.06,24.7-55.06,55.06c0,30.36,24.7,55.06,55.06,55.06
							c30.36,0,55.06-24.7,55.06-55.06C839.41,550.07,814.71,525.37,784.35,525.37L784.35,525.37z"/>
					</g>
				</g>
				<g>
					<path class="st6" d="M796.66,618.82c-23.08-0.5-42.15-19.1-43.18-42.17c-1-22.38,14.65-41.28,35.6-45.39
						c-1.56-0.15-3.13-0.23-4.73-0.23c-27.93,0-50.45,23.18-49.35,51.36c0.99,25.58,21.83,46.41,47.41,47.39
						c14.97,0.57,28.52-5.52,37.93-15.55c0.58-0.62-0.16-1.59-0.9-1.17C812.75,616.89,804.96,619,796.66,618.82z"/>
				</g>
			</g>
		</g>
		<g>
			<g>
				<path class="st3" d="M714.33,803.03l-24.69,23.66v55.37l-10.59,45.88l-4.23,18.32h-14.82V887l-19.71-39.44l-0.01-0.01
					l-0.03-0.07L624.94,924l-4.45,22.27h-14.82c-13.45-44.85-16.73-92.74-16.29-131.68h-0.04c0,0-0.38-0.28-1.05-0.88
					c-1.78-1.57-5.61-5.29-9.85-11.51c-7.91-11.63-17.23-31.97-17.23-63.36c0-46.98,42.54-73.45,60.18-82.42
					c-7.53-7.02-12.87-16.36-14.86-26.89c-0.56-2.99-0.87-6.08-0.87-9.24c0-27.28,22.11-49.39,49.38-49.39s49.39,22.12,49.39,49.39
					c0,10.49-3.28,20.22-8.87,28.21c-4.56,6.54-10.66,11.93-17.8,15.63c2.46,2.4,5.32,5.32,8.34,8.66
					c11.54,12.75,25.41,31.67,28.2,51.21C720.65,768.29,714.33,803.03,714.33,803.03z"/>
			</g>
			<g>
				<path class="st4" d="M677.78,664.13c2.46,2.4,5.32,5.32,8.34,8.66c-9.36,6.43-23.09,9.68-33.98,8.88
					c-15.74-1.17-32.24-4.96-46.85,1.01c-18.15,7.43-27.69,28.23-28.4,47.82c-0.58,16.08,3.52,31.81,7.63,47.44
					c0.9,3.41,1.81,6.82,2.66,10.24c1.61,6.45,3.07,13.08,2.38,19.71c-0.2,1.96-0.63,3.94-1.29,5.82
					c-1.78-1.57-5.61-5.29-9.85-11.51c-7.91-11.63-17.23-31.97-17.23-63.36c0-46.98,42.54-73.45,60.18-82.42
					c-7.53-7.02-12.87-16.36-14.86-26.89c17.24-6.96,36.08-9.41,54.39-5.79c10.46,2.06,20.96,6.23,28.01,14.24
					c3.25,3.69,5.41,7.21,6.65,10.53C691.02,655.04,684.92,660.43,677.78,664.13z"/>
			</g>
			<g>
				<path class="st4" d="M624.94,924l-4.45,22.27h-14.82c-13.45-44.85-16.73-92.74-16.29-131.68h-0.04c0,0-0.38-0.28-1.05-0.88
					c-1.78-1.57,3.7-63.57,5.65-74.26c0.83-4.55,5.16-5.3,9.04-2.78c1.99,1.29,3.18,3.51,4.1,5.71c4.55,10.94,4.34,23.2,3.6,35.04
					c-1.43,22.96-4.53,45.85-4.63,68.86c-0.09,23,2.97,46.5,13.21,67.11C621.04,916.95,623.04,920.46,624.94,924z"/>
			</g>
			<g>
				<path class="st4" d="M679.05,927.95l-4.23,18.32h-14.82V887l-19.71-39.44l-0.01-0.01c-0.09-0.69-0.17-1.38-0.25-2.07
					c-0.35-2.89,0.43-7.06,3.33-6.8c0.78,0.07,1.48,0.51,2.13,0.93c13.17,8.77,21.74,23.2,26.4,38.32
					c4.67,15.13,5.82,31.07,6.94,46.85C678.9,925.84,678.98,926.89,679.05,927.95z"/>
			</g>
			<g>
				<g>
					<path d="M674.82,949.1H660c-1.57,0-2.83-1.27-2.83-2.83v-58.6l-15.76-31.52l-18.14,90.68c-0.27,1.33-1.43,2.28-2.78,2.28
						h-14.82c-1.25,0-2.36-0.82-2.72-2.02C573.47,848.8,592.8,734.54,593,733.4c0.27-1.54,1.74-2.57,3.28-2.31
						c1.54,0.27,2.58,1.74,2.31,3.28c-0.2,1.12-19.03,112.54,9.2,209.06h10.38l19.3-96.5c0.24-1.19,1.2-2.09,2.4-2.25
						c1.2-0.15,2.37,0.46,2.91,1.54l19.76,39.51c0.2,0.39,0.3,0.83,0.3,1.27v56.43h9.73l14.24-61.7V728.95
						c0-1.57,1.27-2.83,2.83-2.83s2.83,1.27,2.83,2.83v153.11c0,0.21-0.02,0.43-0.07,0.64l-14.82,64.21
						C677.28,948.19,676.14,949.1,674.82,949.1z"/>
				</g>
				<g>
					<path d="M691.59,828.74l-3.92-4.09l24.01-23.01c0.9-5.68,5.46-37.82-0.16-77.23c-4.39-30.72-37.81-60.48-42.91-64.86
						l-39.24-3.74c-3.15,1.33-17.98,7.94-32.6,20.12c-21.71,18.08-32.71,39.25-32.71,62.9c0,52.31,26.73,73.29,27,73.5l-3.42,4.52
						c-1.19-0.9-29.25-22.69-29.25-78.02c0-25.1,12.06-48.4,34.88-67.36c17.08-14.19,33.92-20.9,34.63-21.18l0.63-0.25l42.37,4.04
						l0.67,0.55c1.65,1.36,40.53,33.73,45.57,68.99c6.32,44.22,0.05,79.58-0.02,79.93l-0.16,0.9L691.59,828.74z"/>
				</g>
				<g>
					<g>
						<path class="st3" d="M655.06,672.51c-28.8,0-52.23-23.43-52.23-52.23c0-28.8,23.43-52.23,52.23-52.23s52.23,23.43,52.23,52.23
							C707.28,649.08,683.86,672.51,655.06,672.51z"/>
					</g>
					<g>
						<path d="M655.06,570.9c27.28,0,49.39,22.11,49.39,49.39c0,27.28-22.11,49.39-49.39,49.39s-49.39-22.11-49.39-49.39
							C605.67,593.01,627.78,570.9,655.06,570.9 M655.06,565.23c-30.36,0-55.06,24.7-55.06,55.06c0,30.36,24.7,55.06,55.06,55.06
							c30.36,0,55.06-24.7,55.06-55.06C710.12,589.93,685.42,565.23,655.06,565.23L655.06,565.23z"/>
					</g>
				</g>
				<g>
					<path class="st4" d="M667.36,658.68c-23.08-0.5-42.15-19.1-43.18-42.17c-1-22.38,14.65-41.28,35.6-45.39
						c-1.56-0.15-3.13-0.23-4.73-0.23c-27.93,0-50.45,23.18-49.35,51.36c0.99,25.58,21.83,46.41,47.41,47.39
						c14.97,0.57,28.52-5.52,37.93-15.55c0.58-0.62-0.16-1.59-0.9-1.17C683.46,656.74,675.67,658.86,667.36,658.68z"/>
				</g>
			</g>
		</g>
		<g>
			<g>
				<path class="st3" d="M542.26,791.36l-24.69,23.66v55.37l-10.59,45.88l-4.23,18.32h-14.82v-59.27l-19.71-39.44l-0.01-0.01
					l-0.03-0.07l-15.3,76.52l-4.45,22.27H433.6c-13.45-44.85-16.73-92.74-16.29-131.68h-0.04c0,0-0.38-0.28-1.05-0.88
					c-1.78-1.57-5.61-5.29-9.85-11.51c-7.91-11.63-17.23-31.97-17.23-63.36c0-46.98,42.54-73.45,60.18-82.42
					c-7.53-7.02-12.87-16.36-14.86-26.89c-0.56-2.99-0.87-6.08-0.87-9.24c0-27.28,22.11-49.39,49.38-49.39
					c27.28,0,49.39,22.12,49.39,49.39c0,10.49-3.28,20.22-8.87,28.21c-4.56,6.54-10.66,11.93-17.8,15.63
					c2.46,2.4,5.32,5.32,8.34,8.66c11.54,12.75,25.41,31.67,28.2,51.21C548.59,756.62,542.26,791.36,542.26,791.36z"/>
			</g>
			<g>
				<path class="st4" d="M505.72,652.47c2.46,2.4,5.32,5.32,8.34,8.66c-9.36,6.43-23.09,9.68-33.98,8.88
					c-15.74-1.17-32.24-4.96-46.85,1.01c-18.15,7.43-27.69,28.23-28.4,47.82c-0.58,16.08,3.52,31.81,7.63,47.44
					c0.9,3.41,1.81,6.82,2.66,10.24c1.61,6.45,3.07,13.08,2.38,19.7c-0.2,1.96-0.63,3.94-1.29,5.82c-1.78-1.57-5.61-5.29-9.85-11.51
					c-7.91-11.63-17.23-31.97-17.23-63.36c0-46.98,42.54-73.45,60.18-82.42c-7.53-7.02-12.87-16.36-14.86-26.89
					c17.24-6.96,36.08-9.41,54.39-5.79c10.46,2.06,20.96,6.23,28.01,14.24c3.25,3.69,5.41,7.21,6.65,10.53
					C518.96,643.38,512.85,648.76,505.72,652.47z"/>
			</g>
			<g>
				<path class="st4" d="M452.87,912.34l-4.45,22.27H433.6c-13.45-44.85-16.73-92.74-16.29-131.68h-0.04c0,0-0.38-0.28-1.05-0.88
					c-1.78-1.57,3.7-63.57,5.65-74.26c0.83-4.55,5.16-5.3,9.04-2.78c1.99,1.29,3.18,3.51,4.1,5.71c4.55,10.94,4.34,23.2,3.6,35.04
					c-1.43,22.96-4.53,45.85-4.63,68.86c-0.09,23,2.97,46.5,13.21,67.11C448.97,905.29,450.98,908.8,452.87,912.34z"/>
			</g>
			<g>
				<path class="st4" d="M506.98,916.28l-4.23,18.32h-14.82v-59.27l-19.71-39.44l-0.01-0.01c-0.09-0.69-0.17-1.38-0.25-2.07
					c-0.35-2.89,0.43-7.06,3.33-6.8c0.78,0.07,1.48,0.51,2.13,0.93c13.17,8.77,21.74,23.2,26.4,38.32
					c4.67,15.13,5.82,31.07,6.94,46.85C506.83,914.17,506.91,915.22,506.98,916.28z"/>
			</g>
			<g>
				<g>
					<path d="M502.75,937.44h-14.82c-1.57,0-2.83-1.27-2.83-2.83V876l-15.76-31.53l-18.14,90.68c-0.27,1.33-1.43,2.28-2.78,2.28
						H433.6c-1.25,0-2.36-0.82-2.72-2.02c-29.49-98.29-10.15-212.54-9.96-213.68c0.27-1.54,1.74-2.57,3.28-2.31
						c1.54,0.27,2.58,1.74,2.31,3.28c-0.2,1.12-19.03,112.54,9.2,209.06h10.38l19.3-96.5c0.24-1.19,1.2-2.09,2.4-2.25
						c1.2-0.15,2.37,0.46,2.91,1.54l19.76,39.51c0.2,0.39,0.3,0.83,0.3,1.27v56.43h9.73l14.24-61.7V717.28
						c0-1.57,1.27-2.83,2.83-2.83s2.83,1.27,2.83,2.83v153.11c0,0.21-0.02,0.43-0.07,0.64l-14.82,64.21
						C505.21,936.53,504.07,937.44,502.75,937.44z"/>
				</g>
				<g>
					<path d="M519.53,817.08l-3.92-4.09l24.01-23.01c0.9-5.68,5.46-37.82-0.16-77.23c-4.39-30.72-37.81-60.48-42.91-64.86
						l-39.24-3.74c-3.14,1.33-17.98,7.94-32.6,20.12c-21.71,18.08-32.71,39.24-32.71,62.89c0,52.31,26.73,73.29,27,73.5l-3.42,4.52
						c-1.19-0.9-29.25-22.69-29.25-78.02c0-25.1,12.06-48.4,34.88-67.36c17.08-14.19,33.92-20.9,34.63-21.18l0.63-0.25l42.37,4.03
						l0.67,0.55c1.65,1.36,40.53,33.73,45.57,68.99c6.32,44.22,0.05,79.58-0.02,79.93l-0.16,0.9L519.53,817.08z"/>
				</g>
				<g>
					<g>
						<path class="st3" d="M482.99,660.85c-28.8,0-52.23-23.43-52.23-52.23c0-28.8,23.43-52.23,52.23-52.23s52.23,23.43,52.23,52.23
							C535.22,637.42,511.79,660.85,482.99,660.85z"/>
					</g>
					<g>
						<path d="M482.99,559.23c27.28,0,49.39,22.11,49.39,49.39c0,27.28-22.11,49.39-49.39,49.39c-27.28,0-49.39-22.11-49.39-49.39
							C433.6,581.34,455.71,559.23,482.99,559.23 M482.99,553.56c-30.36,0-55.06,24.7-55.06,55.06c0,30.36,24.7,55.06,55.06,55.06
							c30.36,0,55.06-24.7,55.06-55.06C538.05,578.26,513.35,553.56,482.99,553.56L482.99,553.56z"/>
					</g>
				</g>
				<g>
					<path class="st4" d="M495.3,647.01c-23.08-0.5-42.15-19.1-43.18-42.17c-1-22.38,14.65-41.28,35.6-45.39
						c-1.56-0.15-3.13-0.23-4.73-0.23c-27.93,0-50.45,23.18-49.35,51.36c0.99,25.58,21.83,46.41,47.41,47.39
						c14.97,0.57,28.52-5.52,37.93-15.55c0.58-0.62-0.16-1.59-0.9-1.17C511.39,645.08,503.6,647.19,495.3,647.01z"/>
				</g>
			</g>
		</g>
	</g>
	<g>
		<g class="st7">
			<g>
				<g>
					<path class="st8" d="M1465.53,908.37c-33.6,0-66.1-2.2-96.59-6.53c-51.46-7.3-89.79-19.76-107.95-35.07
						c-6.98-5.89-10.52-11.84-10.52-17.67l0.04-35.47c1.36,1.28,2.93,2.59,4.7,4.06c0.69,0.57,1.41,1.18,2.18,1.82
						c18.95,15.99,58.3,28.89,110.8,36.35c30.76,4.37,63.53,6.58,97.39,6.58c23.38,0,46.62-1.08,69.08-3.21
						c55.34-5.25,100.18-16.38,126.26-31.33c7.66-4.39,14.1-8.35,18.39-12.89l-0.04,34.72c-0.01,8.3-7.35,16.89-21.23,24.85
						c-25.39,14.56-69.42,25.43-123.97,30.61C1511.79,907.29,1488.73,908.37,1465.53,908.37z"/>
				</g>
				<g>
					<path class="st0" d="M1253.34,819.82c0.02,0.02,0.04,0.03,0.06,0.05c0.68,0.57,1.4,1.17,2.16,1.81
						c19.36,16.33,59.21,29.46,112.23,36.99c30.89,4.39,63.79,6.61,97.79,6.61c23.47,0,46.8-1.09,69.35-3.22
						c55.73-5.29,100.98-16.55,127.4-31.7c5.38-3.08,10.19-5.97,14.14-9.01l-0.03,28.38c-0.01,7.22-6.86,14.97-19.8,22.39
						c-25.05,14.36-68.67,25.1-122.83,30.24c-22.19,2.11-45.16,3.17-68.28,3.17c-33.47,0-65.83-2.19-96.19-6.5
						c-50.94-7.23-88.76-19.46-106.52-34.43c-6.32-5.33-9.51-10.54-9.51-15.5L1253.34,819.82 M1682.16,801.74
						c-0.01,9.37-7.61,15.07-22.65,23.69c-25.73,14.76-70.17,25.75-125.11,30.97c-22.52,2.14-45.71,3.2-68.81,3.2
						c-33.25,0-66.32-2.2-96.99-6.55c-51.98-7.38-90.82-20.06-109.37-35.71c-7.71-6.5-11.53-8.95-11.52-15.6l-0.05,47.36
						c-0.01,6.66,3.82,13.34,11.52,19.84c18.55,15.65,57.4,28.33,109.37,35.71c30.66,4.35,63.74,6.55,96.99,6.55
						c23.1,0,46.29-1.06,68.81-3.2c54.95-5.22,99.38-16.21,125.11-30.97c15.04-8.63,22.64-17.93,22.65-27.3L1682.16,801.74
						L1682.16,801.74z"/>
				</g>
			</g>
			<g>
				<g>
					<g>
						<path class="st9" d="M1465.92,862.1c-93.15,0-175.56-16.32-205.06-40.6c-8.63-7.11-11.91-14.28-9.75-21.33
							c3.23-10.52,18.42-21.14,42.76-29.9c25.99-9.36,61.19-16.29,101.77-20.05c22.11-2.05,45.06-3.09,68.22-3.09
							c93.15,0,175.56,16.32,205.06,40.6c8.63,7.11,11.91,14.28,9.75,21.33c-3.23,10.52-18.42,21.14-42.76,29.9
							c-25.99,9.36-61.19,16.29-101.77,20.05C1512.04,861.06,1489.08,862.1,1465.92,862.1z"/>
					</g>
					<g>
						<path class="st0" d="M1463.89,749.97c44.86,0,88.07,3.82,124.95,11.05c36.55,7.17,64.35,17.43,78.29,28.9
							c7.66,6.31,10.63,12.46,8.84,18.31c-2.92,9.5-17.87,19.73-41.01,28.07c-25.77,9.28-60.72,16.16-101.07,19.9
							c-22.02,2.04-44.89,3.08-67.96,3.08c-44.87,0-88.08-3.82-124.96-11.05c-36.55-7.16-64.36-17.43-78.3-28.9
							c-7.66-6.31-10.64-12.47-8.84-18.31c2.92-9.51,17.87-19.73,41.01-28.07c25.77-9.28,60.72-16.16,101.07-19.89
							C1417.93,751.01,1440.79,749.97,1463.89,749.97L1463.89,749.97 M1463.87,744.3c-22.71,0-45.81,1-68.48,3.1
							c-113.5,10.52-174.65,44.74-136.32,76.29c30.67,25.25,115.87,41.25,206.86,41.25c22.71,0,45.81-1,68.48-3.1
							c113.5-10.52,174.65-44.74,136.33-76.29C1640.06,760.3,1554.86,744.3,1463.87,744.3L1463.87,744.3z"/>
					</g>
				</g>
			</g>
		</g>
		<g class="st7">
			<g>
				<defs>
					<path id="SVGID_1_" d="M1681.86,752.53c-25.73,14.76-70.17,25.75-125.11,30.97c-54.94,5.22-113.83,4.03-165.8-3.35
						c-51.98-7.38-90.82-20.06-109.37-35.71c-7.71-6.5-11.53-8.95-11.52-15.6l-0.05,47.36c-0.01,6.66,3.82,13.34,11.52,19.84
						c18.55,15.65,57.4,28.33,109.37,35.71c51.97,7.38,110.86,8.57,165.8,3.35c54.95-5.22,99.38-16.21,125.11-30.97
						c15.04-8.63,22.64-17.93,22.65-27.3l0.05-47.99C1704.51,738.2,1696.91,743.9,1681.86,752.53z"/>
				</defs>
				<use xlink:href="#SVGID_1_"  style="overflow:visible;fill:#F37635;"/>
				<clipPath id="SVGID_2_">
					<use xlink:href="#SVGID_1_"  style="overflow:visible;"/>
				</clipPath>
				<g class="st10">
					<g>
						<rect x="1290.85" y="740.94" class="st11" width="22.82" height="95.35"/>
					</g>
					<g>
						<path class="st0" d="M1312.25,742.36v92.52h-19.99v-92.52H1312.25 M1315.09,739.52h-25.66v98.19h25.66V739.52L1315.09,739.52z
							"/>
					</g>
				</g>
				<g class="st10">
					<g>
						<rect x="1310.58" y="740.94" class="st8" width="22.83" height="95.35"/>
					</g>
					<g>
						<path class="st0" d="M1331.99,742.36v92.52H1312v-92.52H1331.99 M1334.82,739.52h-25.66v98.19h25.66V739.52L1334.82,739.52z"
							/>
					</g>
				</g>
				<g class="st10">
					<g>
						<rect x="1330.32" y="740.94" class="st11" width="22.83" height="95.35"/>
					</g>
					<g>
						<path class="st0" d="M1351.73,742.36v92.52h-19.99v-92.52H1351.73 M1354.56,739.52h-25.66v98.19h25.66V739.52L1354.56,739.52z
							"/>
					</g>
				</g>
				<g class="st10">
					<g>
						<rect x="1352.68" y="740.94" class="st8" width="22.82" height="95.35"/>
					</g>
					<g>
						<path class="st0" d="M1374.09,742.36v92.52h-19.99v-92.52H1374.09 M1376.92,739.52h-25.66v98.19h25.66V739.52L1376.92,739.52z
							"/>
					</g>
				</g>
			</g>
			<g>
				<path class="st0" d="M1275.7,746.91c0.02,0.02,0.04,0.03,0.06,0.05c0.68,0.57,1.4,1.17,2.16,1.81
					c19.36,16.33,59.21,29.46,112.23,36.99c30.89,4.39,63.79,6.61,97.79,6.61c23.47,0,46.8-1.08,69.35-3.22
					c55.73-5.29,100.98-16.55,127.4-31.7c5.38-3.08,10.19-5.97,14.14-9.01l-0.03,28.38c-0.01,7.22-6.86,14.97-19.8,22.39
					c-25.05,14.36-68.67,25.1-122.83,30.24c-22.19,2.11-45.16,3.17-68.28,3.17c-33.47,0-65.83-2.19-96.19-6.5
					c-50.94-7.23-88.76-19.46-106.52-34.43c-6.32-5.33-9.51-10.54-9.51-15.5L1275.7,746.91 M1704.52,728.83
					c-0.01,9.37-7.61,15.07-22.65,23.69c-25.73,14.76-70.17,25.75-125.11,30.97c-22.52,2.14-45.71,3.2-68.81,3.2
					c-33.25,0-66.32-2.2-96.99-6.55c-51.98-7.38-90.82-20.06-109.37-35.71c-7.71-6.5-11.53-8.95-11.52-15.6l-0.05,47.36
					c-0.01,6.66,3.82,13.34,11.52,19.84c18.55,15.65,57.4,28.33,109.37,35.71c30.66,4.35,63.74,6.55,96.99,6.55
					c23.1,0,46.29-1.06,68.81-3.2c54.95-5.22,99.38-16.21,125.11-30.97c15.04-8.63,22.64-17.93,22.65-27.3L1704.52,728.83
					L1704.52,728.83z"/>
			</g>
			<g>
				<g>
					<path class="st9" d="M1488.28,789.19c-93.15,0-175.56-16.32-205.06-40.6c-8.63-7.11-11.91-14.28-9.75-21.33
						c3.23-10.52,18.42-21.14,42.76-29.9c25.99-9.36,61.19-16.29,101.77-20.05c22.11-2.05,45.06-3.09,68.22-3.09
						c93.15,0,175.56,16.32,205.06,40.6c8.63,7.11,11.91,14.28,9.75,21.33c-3.23,10.52-18.42,21.14-42.76,29.9
						c-25.99,9.36-61.19,16.29-101.77,20.05C1534.39,788.15,1511.44,789.19,1488.28,789.19z"/>
				</g>
				<g>
					<path class="st0" d="M1486.25,677.06c44.86,0,88.07,3.82,124.95,11.05c36.55,7.17,64.35,17.43,78.29,28.9
						c7.66,6.31,10.63,12.46,8.84,18.31c-2.92,9.5-17.87,19.73-41.01,28.07c-25.77,9.28-60.72,16.16-101.07,19.9
						c-22.02,2.04-44.89,3.08-67.96,3.08c-44.87,0-88.08-3.82-124.96-11.05c-36.55-7.16-64.36-17.43-78.3-28.9
						c-7.66-6.31-10.64-12.47-8.84-18.31c2.92-9.51,17.87-19.73,41.01-28.07c25.77-9.28,60.72-16.16,101.07-19.89
						C1440.29,678.1,1463.15,677.06,1486.25,677.06L1486.25,677.06 M1486.23,671.39c-22.71,0-45.81,1-68.48,3.1
						c-113.5,10.52-174.65,44.74-136.32,76.29c30.67,25.25,115.87,41.25,206.86,41.25c22.71,0,45.81-1,68.48-3.1
						c113.5-10.52,174.65-44.74,136.33-76.29C1662.42,687.39,1577.22,671.39,1486.23,671.39L1486.23,671.39z"/>
				</g>
			</g>
		</g>
		<g class="st7">
			<g>
				<g>
					<path class="st8" d="M1470.39,768.38c-33.6,0-66.1-2.2-96.6-6.53c-51.46-7.3-89.79-19.76-107.94-35.07
						c-6.98-5.89-10.52-11.84-10.52-17.67l0.04-35.47c1.36,1.28,2.93,2.59,4.7,4.06c0.69,0.57,1.41,1.18,2.18,1.82
						c18.95,15.99,58.3,28.89,110.8,36.35c30.76,4.37,63.52,6.58,97.39,6.58c23.38,0,46.63-1.08,69.08-3.21
						c55.34-5.25,100.18-16.38,126.26-31.33c7.66-4.39,14.11-8.35,18.39-12.89l-0.04,34.72c-0.01,8.3-7.35,16.89-21.23,24.85
						c-25.39,14.56-69.42,25.43-123.97,30.61C1516.65,767.31,1493.59,768.38,1470.39,768.38z"/>
				</g>
				<g>
					<path class="st0" d="M1258.2,679.83c0.02,0.02,0.04,0.03,0.06,0.05c0.68,0.57,1.4,1.17,2.16,1.81
						c19.36,16.33,59.21,29.46,112.23,36.99c30.89,4.39,63.79,6.61,97.79,6.61c23.47,0,46.8-1.09,69.35-3.22
						c55.73-5.29,100.98-16.55,127.4-31.7c5.38-3.08,10.19-5.97,14.14-9.01l-0.03,28.38c-0.01,7.22-6.86,14.97-19.8,22.39
						c-25.05,14.36-68.67,25.1-122.83,30.24c-22.19,2.11-45.16,3.17-68.28,3.17c-33.47,0-65.83-2.19-96.19-6.5
						c-50.94-7.23-88.76-19.46-106.51-34.43c-6.32-5.33-9.52-10.54-9.51-15.5L1258.2,679.83 M1687.02,661.75
						c-0.01,9.37-7.61,15.07-22.65,23.69c-25.73,14.76-70.17,25.75-125.11,30.97c-22.52,2.14-45.71,3.2-68.81,3.2
						c-33.25,0-66.32-2.2-96.99-6.55c-51.98-7.38-90.82-20.06-109.37-35.71c-7.71-6.5-11.53-8.95-11.52-15.6l-0.05,47.36
						c-0.01,6.66,3.82,13.34,11.52,19.84c18.55,15.65,57.4,28.33,109.37,35.71c30.66,4.35,63.74,6.55,96.99,6.55
						c23.1,0,46.29-1.06,68.81-3.2c54.95-5.22,99.38-16.21,125.11-30.97c15.04-8.63,22.64-17.93,22.65-27.3L1687.02,661.75
						L1687.02,661.75z"/>
				</g>
			</g>
			<g>
				<g>
					<g>
						<path class="st9" d="M1470.79,722.12c-93.15,0-175.56-16.32-205.06-40.6c-8.63-7.11-11.91-14.28-9.75-21.33
							c3.23-10.52,18.42-21.14,42.76-29.9c25.99-9.36,61.19-16.29,101.77-20.05c22.11-2.05,45.06-3.09,68.22-3.09
							c93.15,0,175.56,16.32,205.06,40.6c8.63,7.11,11.91,14.28,9.75,21.33c-3.23,10.52-18.42,21.14-42.76,29.9
							c-25.99,9.36-61.19,16.29-101.77,20.05C1516.9,721.08,1493.94,722.12,1470.79,722.12z"/>
					</g>
					<g>
						<path class="st0" d="M1468.75,609.98c44.86,0,88.07,3.82,124.95,11.05c36.55,7.17,64.35,17.43,78.29,28.9
							c7.66,6.31,10.63,12.47,8.84,18.31c-2.92,9.5-17.87,19.73-41.01,28.07c-25.77,9.28-60.72,16.16-101.07,19.9
							c-22.02,2.04-44.89,3.08-67.96,3.08c-44.87,0-88.08-3.82-124.96-11.05c-36.55-7.16-64.36-17.43-78.3-28.9
							c-7.66-6.31-10.64-12.47-8.84-18.31c2.92-9.51,17.87-19.73,41.01-28.07c25.77-9.28,60.72-16.16,101.07-19.89
							C1422.79,611.02,1445.66,609.98,1468.75,609.98L1468.75,609.98 M1468.73,604.31c-22.71,0-45.81,1-68.48,3.1
							c-113.5,10.52-174.65,44.74-136.32,76.29c30.67,25.25,115.87,41.25,206.86,41.25c22.71,0,45.81-1,68.48-3.1
							c113.5-10.52,174.65-44.74,136.33-76.29C1644.92,620.32,1559.72,604.31,1468.73,604.31L1468.73,604.31z"/>
					</g>
				</g>
			</g>
		</g>
		<g class="st7">
			<g>
				<g>
					<path class="st8" d="M1446.08,697.42c-33.6,0-66.1-2.2-96.59-6.53c-51.46-7.3-89.79-19.76-107.94-35.07
						c-6.98-5.89-10.52-11.84-10.52-17.67l0.04-35.47c1.36,1.28,2.93,2.59,4.7,4.06c0.69,0.57,1.41,1.18,2.18,1.82
						c18.96,15.99,58.31,28.9,110.8,36.35c30.76,4.37,63.52,6.58,97.39,6.58c23.38,0,46.63-1.08,69.08-3.21
						c55.34-5.25,100.18-16.38,126.26-31.33c7.66-4.39,14.11-8.35,18.39-12.89l-0.04,34.72c-0.01,8.3-7.35,16.89-21.23,24.85
						c-25.39,14.56-69.42,25.43-123.97,30.61C1492.35,696.34,1469.29,697.42,1446.08,697.42z"/>
				</g>
				<g>
					<path class="st0" d="M1233.9,608.87c0.02,0.02,0.04,0.03,0.06,0.05c0.68,0.57,1.4,1.17,2.16,1.81
						c19.36,16.33,59.21,29.46,112.23,36.99c30.89,4.39,63.79,6.61,97.79,6.61c23.47,0,46.8-1.08,69.35-3.22
						c55.73-5.29,100.98-16.55,127.4-31.7c5.38-3.08,10.19-5.97,14.14-9.01l-0.03,28.38c-0.01,7.22-6.86,14.97-19.8,22.39
						c-25.05,14.36-68.67,25.1-122.83,30.24c-22.19,2.11-45.16,3.17-68.28,3.17c-33.47,0-65.83-2.19-96.19-6.5
						c-50.94-7.23-88.76-19.46-106.52-34.43c-6.32-5.33-9.51-10.54-9.51-15.5L1233.9,608.87 M1662.72,590.79
						c-0.01,9.37-7.61,15.07-22.65,23.69c-25.73,14.76-70.17,25.75-125.11,30.97c-22.52,2.14-45.71,3.2-68.81,3.2
						c-33.25,0-66.32-2.2-96.99-6.55c-51.98-7.38-90.82-20.06-109.37-35.71c-7.71-6.5-11.53-8.95-11.52-15.6l-0.05,47.36
						c-0.01,6.66,3.82,13.34,11.52,19.84c18.55,15.65,57.4,28.33,109.37,35.71c30.66,4.35,63.74,6.55,96.99,6.55
						c23.1,0,46.29-1.06,68.81-3.2c54.95-5.22,99.38-16.21,125.11-30.97c15.04-8.63,22.64-17.93,22.65-27.3L1662.72,590.79
						L1662.72,590.79z"/>
				</g>
			</g>
			<g>
				<g>
					<g>
						<path class="st9" d="M1446.48,651.15c-93.15,0-175.56-16.32-205.06-40.6c-8.63-7.11-11.91-14.28-9.75-21.33
							c3.23-10.52,18.42-21.14,42.76-29.9c25.99-9.36,61.18-16.29,101.77-20.05c22.11-2.05,45.06-3.09,68.22-3.09
							c93.15,0,175.56,16.32,205.06,40.6c8.63,7.11,11.91,14.28,9.75,21.33c-3.23,10.52-18.42,21.14-42.76,29.9
							c-25.99,9.36-61.19,16.29-101.77,20.05C1492.59,650.11,1469.64,651.15,1446.48,651.15z"/>
					</g>
					<g>
						<path class="st0" d="M1444.45,539.02c44.86,0,88.07,3.82,124.95,11.05c36.55,7.17,64.35,17.43,78.29,28.9
							c7.66,6.31,10.63,12.46,8.84,18.31c-2.92,9.5-17.87,19.73-41.01,28.07c-25.77,9.28-60.72,16.16-101.07,19.9
							c-22.02,2.04-44.89,3.08-67.96,3.08c-44.87,0-88.08-3.82-124.96-11.05c-36.55-7.16-64.36-17.43-78.3-28.9
							c-7.66-6.31-10.64-12.47-8.84-18.31c2.92-9.51,17.87-19.73,41.01-28.07c25.77-9.28,60.72-16.16,101.07-19.89
							C1398.49,540.05,1421.35,539.02,1444.45,539.02L1444.45,539.02 M1444.43,533.35c-22.71,0-45.81,1-68.48,3.1
							c-113.5,10.52-174.65,44.74-136.32,76.29c30.67,25.25,115.87,41.25,206.86,41.25c22.71,0,45.81-1,68.48-3.1
							c113.5-10.52,174.65-44.74,136.33-76.29C1620.62,549.35,1535.42,533.35,1444.43,533.35L1444.43,533.35z"/>
					</g>
				</g>
			</g>
		</g>
		<g class="st7">
			<g>
				<defs>
					<path id="SVGID_3_" d="M1662.42,540.6c-25.73,14.76-70.17,25.75-125.11,30.97c-54.94,5.22-113.83,4.03-165.8-3.35
						c-51.98-7.38-90.82-20.06-109.37-35.71c-7.71-6.5-11.53-8.95-11.52-15.6l-0.05,47.36c-0.01,6.66,3.82,13.34,11.52,19.84
						c18.55,15.65,57.4,28.33,109.37,35.71c51.97,7.38,110.86,8.57,165.8,3.35c54.95-5.22,99.38-16.21,125.11-30.97
						c15.04-8.63,22.64-17.93,22.65-27.3l0.05-47.99C1685.06,526.28,1677.46,531.97,1662.42,540.6z"/>
				</defs>
				<use xlink:href="#SVGID_3_"  style="overflow:visible;fill:#F37635;"/>
				<clipPath id="SVGID_4_">
					<use xlink:href="#SVGID_3_"  style="overflow:visible;"/>
				</clipPath>
				<g class="st12">
					<g>
						<rect x="1453.19" y="549.43" class="st8" width="27.04" height="95.35"/>
					</g>
					<g>
						<path class="st0" d="M1478.81,550.85v92.52h-24.2v-92.52H1478.81 M1481.65,548.01h-29.87v98.19h29.87V548.01L1481.65,548.01z"
							/>
					</g>
				</g>
				<g class="st12">
					<g>
						<rect x="1476.17" y="549.43" class="st11" width="27.04" height="95.35"/>
					</g>
					<g>
						<path class="st0" d="M1501.79,550.85v92.52h-24.2v-92.52H1501.79 M1504.62,548.01h-29.87v98.19h29.87V548.01L1504.62,548.01z"
							/>
					</g>
				</g>
				<g class="st12">
					<g>
						<rect x="1499.15" y="549.43" class="st11" width="27.04" height="95.35"/>
					</g>
					<g>
						<path class="st0" d="M1524.77,550.85v92.52h-24.2v-92.52H1524.77 M1527.6,548.01h-29.87v98.19h29.87V548.01L1527.6,548.01z"/>
					</g>
				</g>
			</g>
			<g>
				<path class="st0" d="M1256.26,534.99c0.02,0.02,0.04,0.03,0.06,0.05c0.68,0.57,1.4,1.17,2.16,1.81
					c19.36,16.33,59.21,29.46,112.23,36.99c30.89,4.39,63.79,6.61,97.79,6.61c23.47,0,46.8-1.09,69.35-3.22
					c55.73-5.29,100.98-16.55,127.4-31.7c5.38-3.08,10.19-5.97,14.14-9.01l-0.03,28.38c-0.01,7.22-6.86,14.97-19.8,22.39
					c-25.05,14.36-68.67,25.1-122.83,30.24c-22.19,2.11-45.16,3.17-68.28,3.17c-33.47,0-65.83-2.19-96.19-6.5
					c-50.94-7.23-88.76-19.46-106.52-34.43c-6.32-5.33-9.51-10.54-9.51-15.5L1256.26,534.99 M1685.07,516.91
					c-0.01,9.37-7.61,15.07-22.65,23.69c-25.73,14.76-70.17,25.75-125.11,30.97c-22.52,2.14-45.71,3.2-68.81,3.2
					c-33.25,0-66.32-2.2-96.99-6.55c-51.98-7.38-90.82-20.06-109.37-35.71c-7.71-6.5-11.53-8.95-11.52-15.6l-0.05,47.36
					c-0.01,6.66,3.82,13.34,11.52,19.84c18.55,15.65,57.4,28.33,109.37,35.71c30.66,4.35,63.74,6.55,96.99,6.55
					c23.1,0,46.29-1.06,68.81-3.2c54.95-5.22,99.38-16.21,125.11-30.97c15.04-8.63,22.64-17.93,22.65-27.3L1685.07,516.91
					L1685.07,516.91z"/>
			</g>
			<g>
				<g>
					<path class="st9" d="M1468.84,577.27c-93.15,0-175.56-16.32-205.06-40.6c-8.63-7.11-11.91-14.28-9.75-21.33
						c3.23-10.52,18.42-21.14,42.76-29.9c25.99-9.36,61.19-16.29,101.77-20.05c22.11-2.05,45.06-3.09,68.22-3.09
						c93.15,0,175.56,16.32,205.06,40.6c8.63,7.11,11.91,14.28,9.75,21.33c-3.23,10.52-18.42,21.14-42.76,29.9
						c-25.99,9.36-61.19,16.29-101.77,20.05C1514.95,576.23,1492,577.27,1468.84,577.27z"/>
				</g>
				<g>
					<path class="st0" d="M1466.81,465.14c44.86,0,88.07,3.82,124.95,11.05c36.55,7.17,64.35,17.43,78.29,28.9
						c7.66,6.31,10.63,12.46,8.84,18.31c-2.92,9.5-17.87,19.73-41.01,28.07c-25.77,9.28-60.72,16.16-101.07,19.9
						c-22.02,2.04-44.89,3.08-67.96,3.08c-44.87,0-88.08-3.82-124.96-11.05c-36.55-7.16-64.36-17.43-78.3-28.9
						c-7.66-6.31-10.64-12.47-8.84-18.31c2.92-9.51,17.87-19.73,41.01-28.07c25.77-9.28,60.72-16.16,101.07-19.89
						C1420.85,466.17,1443.71,465.14,1466.81,465.14L1466.81,465.14 M1466.79,459.47c-22.71,0-45.81,1-68.48,3.1
						c-113.5,10.52-174.65,44.74-136.32,76.29c30.67,25.25,115.87,41.25,206.86,41.25c22.71,0,45.81-1,68.48-3.1
						c113.5-10.52,174.65-44.74,136.33-76.29C1642.98,475.47,1557.78,459.46,1466.79,459.47L1466.79,459.47z"/>
				</g>
			</g>
		</g>
		<g class="st7">
			<g>
				<defs>
					<path id="SVGID_5_" d="M1662.42,492.97c-25.73,14.76-70.17,25.75-125.11,30.97c-54.94,5.22-113.83,4.03-165.8-3.35
						c-51.98-7.38-90.82-20.06-109.37-35.71c-7.71-6.5-11.53-8.95-11.52-15.6l-0.05,47.36c-0.01,6.66,3.82,13.34,11.52,19.84
						c18.55,15.65,57.4,28.33,109.37,35.71c51.97,7.38,110.86,8.57,165.8,3.35c54.95-5.22,99.38-16.21,125.11-30.97
						c15.04-8.63,22.64-17.93,22.65-27.3l0.05-47.99C1685.06,478.64,1677.46,484.34,1662.42,492.97z"/>
				</defs>
				<use xlink:href="#SVGID_5_"  style="overflow:visible;fill:#F37635;"/>
				<clipPath id="SVGID_6_">
					<use xlink:href="#SVGID_5_"  style="overflow:visible;"/>
				</clipPath>
				<g class="st13">
					<g>
						<rect x="1567.9" y="491.1" class="st8" width="20.53" height="95.35"/>
					</g>
					<g>
						<path class="st0" d="M1587.01,492.52v92.52h-17.69v-92.52H1587.01 M1589.85,489.69h-23.36v98.19h23.36V489.69L1589.85,489.69z
							"/>
					</g>
				</g>
				<g class="st13">
					<g>
						<rect x="1585.87" y="491.1" class="st11" width="20.53" height="95.35"/>
					</g>
					<g>
						<path class="st0" d="M1604.98,492.52v92.52h-17.69v-92.52H1604.98 M1607.82,489.69h-23.36v98.19h23.36V489.69L1607.82,489.69z
							"/>
					</g>
				</g>
				<g class="st13">
					<g>
						<rect x="1603.84" y="491.1" class="st11" width="15.67" height="95.35"/>
					</g>
					<g>
						<path class="st0" d="M1618.09,492.52v92.52h-12.83v-92.52H1618.09 M1620.93,489.69h-18.5v98.19h18.5V489.69L1620.93,489.69z"
							/>
					</g>
				</g>
			</g>
			<g>
				<path class="st0" d="M1256.26,487.35c0.02,0.02,0.04,0.03,0.06,0.05c0.68,0.57,1.4,1.17,2.16,1.81
					c19.36,16.33,59.21,29.46,112.23,36.99c30.89,4.39,63.79,6.61,97.79,6.61c23.47,0,46.8-1.08,69.35-3.22
					c55.73-5.29,100.98-16.55,127.4-31.7c5.38-3.08,10.19-5.97,14.14-9.01l-0.03,28.38c-0.01,7.22-6.86,14.97-19.8,22.39
					c-25.05,14.36-68.67,25.1-122.83,30.24c-22.19,2.11-45.16,3.17-68.28,3.17c-33.47,0-65.83-2.19-96.19-6.5
					c-50.94-7.23-88.76-19.46-106.52-34.43c-6.32-5.33-9.51-10.54-9.51-15.5L1256.26,487.35 M1685.07,469.27
					c-0.01,9.37-7.61,15.07-22.65,23.69c-25.73,14.76-70.17,25.75-125.11,30.97c-22.52,2.14-45.71,3.2-68.81,3.2
					c-33.25,0-66.32-2.2-96.99-6.55c-51.98-7.38-90.82-20.06-109.37-35.71c-7.71-6.5-11.53-8.95-11.52-15.6l-0.05,47.36
					c-0.01,6.66,3.82,13.34,11.52,19.84c18.55,15.65,57.4,28.33,109.37,35.71c30.66,4.35,63.74,6.55,96.99,6.55
					c23.1,0,46.29-1.06,68.81-3.2c54.95-5.22,99.38-16.21,125.11-30.97c15.04-8.63,22.64-17.93,22.65-27.3L1685.07,469.27
					L1685.07,469.27z"/>
			</g>
			<g>
				<g>
					<path class="st9" d="M1468.84,529.63c-93.15,0-175.56-16.32-205.06-40.6c-8.63-7.11-11.91-14.28-9.75-21.33
						c3.23-10.52,18.42-21.14,42.76-29.9c25.99-9.36,61.19-16.29,101.77-20.05c22.11-2.05,45.06-3.09,68.22-3.09
						c93.15,0,175.56,16.32,205.06,40.6c8.63,7.11,11.91,14.28,9.75,21.33c-3.23,10.52-18.42,21.14-42.76,29.9
						c-25.99,9.36-61.19,16.29-101.77,20.05C1514.95,528.6,1492,529.63,1468.84,529.63z"/>
				</g>
				<g>
					<path class="st0" d="M1466.81,417.5c44.86,0,88.07,3.82,124.95,11.05c36.55,7.17,64.35,17.43,78.29,28.9
						c7.66,6.31,10.63,12.46,8.84,18.31c-2.92,9.5-17.87,19.73-41.01,28.07c-25.77,9.28-60.72,16.16-101.07,19.9
						c-22.02,2.04-44.89,3.08-67.96,3.08c-44.87,0-88.08-3.82-124.96-11.05c-36.55-7.16-64.36-17.43-78.3-28.9
						c-7.66-6.31-10.64-12.47-8.84-18.31c2.92-9.51,17.87-19.73,41.01-28.07c25.77-9.28,60.72-16.16,101.07-19.89
						C1420.85,418.54,1443.71,417.5,1466.81,417.5L1466.81,417.5 M1466.79,411.83c-22.71,0-45.81,1-68.48,3.1
						c-113.5,10.52-174.65,44.74-136.32,76.29c30.67,25.25,115.87,41.25,206.86,41.25c22.71,0,45.81-1,68.48-3.1
						c113.5-10.52,174.65-44.74,136.33-76.29C1642.98,427.83,1557.78,411.83,1466.79,411.83L1466.79,411.83z"/>
				</g>
			</g>
			<g>
				<g>
					<path class="st0" d="M1622.16,497.03c-1.18,0-2.28-0.74-2.68-1.92c-0.5-1.48,0.29-3.09,1.77-3.6
						c19.28-6.56,29.89-14.11,29.89-21.27c0-9.68-19.51-19.96-52.18-27.48c-34.87-8.03-81.27-12.46-130.66-12.46h-1.31
						c-1.57,0-2.84-1.27-2.84-2.83s1.26-2.83,2.83-2.83h1.32c49.8,0,96.66,4.47,131.93,12.6c25.81,5.95,56.58,16.5,56.58,33.01
						c0,10.06-11.35,19.02-33.74,26.64C1622.77,496.98,1622.47,497.03,1622.16,497.03z"/>
				</g>
				<g>
					<path class="st0" d="M1539.71,512.58c-1.57,0-2.84-1.27-2.84-2.83c0-1.51,1.17-2.74,2.66-2.83
						c22.21-2.14,42.15-5.21,59.25-9.14c1.52-0.35,3.05,0.6,3.4,2.13c0.35,1.53-0.6,3.05-2.13,3.4
						c-17.37,3.99-37.58,7.11-60.07,9.27C1539.89,512.57,1539.8,512.58,1539.71,512.58z"/>
				</g>
				<g>
					<path class="st0" d="M1300.55,491.44c-0.42,0-0.84-0.09-1.23-0.28c-12.96-6.28-19.53-13.32-19.53-20.91
						c0-24.18,65.1-38.14,126.02-43.13c1.56-0.12,2.93,1.03,3.06,2.59s-1.03,2.93-2.59,3.06c-79.32,6.5-120.82,23.78-120.82,37.48
						c0,5.17,5.65,10.63,16.33,15.81c1.41,0.68,2,2.38,1.31,3.79C1302.61,490.85,1301.6,491.44,1300.55,491.44z"/>
				</g>
				<g>
					<path class="st0" d="M1468.3,515.85c-59,0-113.31-6.24-149.01-17.13c-1.5-0.46-2.34-2.04-1.89-3.54
						c0.46-1.5,2.04-2.34,3.54-1.88c35.19,10.73,88.9,16.88,147.36,16.88c10.02,0,20.12-0.19,30.02-0.56
						c1.61-0.07,2.95,1.23,2.95,2.83c0,1.54-1.23,2.8-2.77,2.83C1488.54,515.66,1478.38,515.85,1468.3,515.85z"/>
				</g>
			</g>
		</g>
	</g>
	<g>
		<g>
			<path class="st3" d="M1580.34,255.18l-53.73-50.8l-18.49-17.48c11.63-8.9,19.19-22.83,19.4-38.55c0.01-0.23,0.01-0.46,0.01-0.69
				c0-27.28-22.11-49.39-49.39-49.39c-27.28,0-49.39,22.11-49.39,49.39c0,11.53,3.95,22.13,10.57,30.53
				c4.68,5.95,10.7,10.79,17.6,14.08l-8.7,5.99l-29.6,20.36c-2.98,1.99-6.67,2.6-10.14,1.68l-68.64-18.31v14.82l64.85,32.42
				c2.79,1.4,5.96,1.87,9.04,1.36l24.89-4.15V468.7h14.82l34.58-93.84l0.28,1.07c0.01,0.01,0.01,0.01,0.01,0.02l24.4,92.75h24.7
				l4.94-138.29l4.93,4.94l1.94-3.64l33.4-62.62C1585.09,264.47,1584.15,258.77,1580.34,255.18z"/>
		</g>
		<g>
			<g>
				<path class="st4" d="M1478.13,197.05c-7.6,0-14.79-1.72-21.23-4.79c0,0,0.01,0,0.01,0l-8.7,5.99
					c6.89,7.96,17.19,13.97,29.11,16.52c15.06,3.23,31.32,0.57,44.57-7.29c1.62-0.96,3.2-2,4.71-3.11l-18.49-17.48
					C1499.8,193.26,1489.41,197.05,1478.13,197.05z"/>
			</g>
			<g>
				<path class="st4" d="M1438.62,411.91V246.44l-24.89,4.15c-3.08,0.51-6.25,0.04-9.04-1.36l-64.85-32.42v-7.76
					c11.61,6.64,24.04,12.26,35.8,18.45c14.99,7.88,32.26,15.96,48.18,10.2c6.61-2.39,13.3-7.14,19.98-4.97
					c7.8,2.52,9.8,12.45,10.38,20.63C1457.7,303.35,1448.76,358.88,1438.62,411.91z"/>
			</g>
			<g>
				<path class="st4" d="M1549.07,317.86c-0.33,4.61-0.18,9.24,0.15,13.85l-1.94,3.64l-4.93-4.94l-4.94,138.29h-16.27
					c0.95-5.27,2.87-11.21,3.24-15.15c0.86-9.37,1-18.79,1.16-28.19c0.49-28.88,0.96-57.89-2.88-86.52
					c-3.08-23.02-8.96-45.87-8.22-69.09c0.18-5.41,0.75-10.95,3.16-15.8c2.41-4.85,6.98-8.92,12.37-9.41
					c9.36-0.84,16.25,8.69,19.26,17.6c3.22,9.52,4.44,19.72,3.56,29.73C1552.03,300.59,1549.7,309.13,1549.07,317.86z"/>
			</g>
			<g>
				<path class="st4" d="M1488.3,375.93l-0.28-1.07l-34.58,93.84H1447c1.21-6.75,4.08-14.35,5.22-19.65
					c2.13-9.86,4.33-19.71,6.61-29.54c2.15-9.33,4.39-18.69,7.8-27.64c3.09-8.09,7.52-16.22,14.99-20.59
					c1.27-0.74,2.8-1.37,4.16-0.84c1.87,0.72,2.35,3.11,2.5,5.11C1488.29,375.68,1488.3,375.8,1488.3,375.93z"/>
			</g>
		</g>
		<g>
			<path class="st4" d="M1478.13,98.27c-12.18,0-23.31,4.41-31.93,11.72c5.46-2.39,11.48-3.72,17.81-3.72
				c24.58,0,44.5,19.93,44.5,44.5c0,24.27-19.43,43.99-43.59,44.48c4.2,1.16,8.62,1.8,13.2,1.8c27.28,0,49.39-22.11,49.39-49.39
				S1505.41,98.27,1478.13,98.27z"/>
		</g>
		<g>
			<path d="M1478.13,199.88c-28.8,0-52.23-23.43-52.23-52.23c0-28.8,23.43-52.23,52.23-52.23c28.8,0,52.23,23.43,52.23,52.23
				C1530.36,176.45,1506.93,199.88,1478.13,199.88z M1478.13,101.1c-25.67,0-46.56,20.89-46.56,46.56s20.88,46.56,46.56,46.56
				c25.67,0,46.56-20.89,46.56-46.56S1503.8,101.1,1478.13,101.1z"/>
		</g>
		<g>
			<path d="M1537.4,471.53h-24.7c-1.29,0-2.41-0.87-2.74-2.11l-22.41-85.14l-31.46,85.4c-0.41,1.11-1.47,1.85-2.66,1.85h-14.82
				c-1.57,0-2.83-1.27-2.83-2.83V249.79l-21.59,3.6c-3.7,0.62-7.43,0.06-10.78-1.62l-64.85-32.42c-0.96-0.48-1.57-1.46-1.57-2.54
				v-14.82c0-0.88,0.41-1.71,1.11-2.25c0.7-0.54,1.6-0.72,2.46-0.49l68.64,18.3c2.67,0.71,5.53,0.24,7.83-1.29l39.07-26.04
				c1.3-0.87,3.06-0.52,3.93,0.79c0.87,1.3,0.52,3.06-0.79,3.93l-39.07,26.04c-3.66,2.44-8.19,3.19-12.44,2.05l-65.08-17.35v9.38
				l63.28,31.64c2.28,1.14,4.81,1.52,7.31,1.1l24.89-4.15c0.82-0.14,1.66,0.09,2.3,0.63c0.64,0.54,1,1.33,1,2.16v219.43h10.01
				l33.89-91.99c0.43-1.16,1.54-1.91,2.8-1.85c1.24,0.06,2.29,0.91,2.61,2.11l24.14,91.73h19.78l4.84-135.56
				c0.06-1.56,1.33-2.76,2.93-2.73c1.56,0.06,2.79,1.37,2.73,2.93l-4.94,138.3C1540.18,470.33,1538.93,471.53,1537.4,471.53z"/>
		</g>
		<g>
			<path d="M1547.28,338.18c-0.75,0-1.47-0.29-2-0.83l-9.88-9.88c-0.59-0.59-0.89-1.42-0.82-2.26l4.82-53.01l-13.88-13.88
				c-1.11-1.11-1.11-2.9,0-4.01c1.11-1.11,2.9-1.11,4.01,0l14.82,14.82c0.6,0.59,0.9,1.42,0.82,2.26l-4.82,53.01l6.23,6.23
				l33.54-62.88c1.86-3.48,1.15-7.8-1.73-10.51l-72.43-68.17c-1.14-1.07-1.19-2.87-0.12-4.01c1.07-1.14,2.87-1.2,4.01-0.12
				l72.43,68.17c4.73,4.45,5.9,11.57,2.84,17.3l-35.34,66.26c-0.42,0.79-1.2,1.34-2.08,1.47
				C1547.56,338.17,1547.42,338.18,1547.28,338.18z"/>
		</g>
	</g>
	<g>
		<g>
			<rect x="1360.39" y="209.71" class="st1" width="9.72" height="253.73"/>
			<path class="st0" d="M1372.24,465.56h-13.97V207.59h13.97V465.56z M1362.52,461.31h5.47V211.84h-5.47V461.31z"/>
		</g>
		<g>
			<g>
				<circle class="st14" cx="1402.99" cy="186.91" r="18.96"/>
				<path class="st0" d="M1403.03,207.99c-7.72,0-15.17-4.25-18.87-11.61c-5.22-10.39-1.02-23.08,9.37-28.31
					c10.39-5.22,23.08-1.02,28.31,9.37c2.53,5.03,2.95,10.75,1.18,16.09c-1.77,5.35-5.51,9.68-10.54,12.21
					C1409.43,207.27,1406.2,207.99,1403.03,207.99z M1402.96,170.08c-2.54,0-5.11,0.58-7.53,1.79c-8.29,4.17-11.65,14.31-7.48,22.6
					c4.17,8.29,14.31,11.65,22.6,7.48c4.02-2.02,7.01-5.48,8.42-9.75c1.41-4.27,1.08-8.83-0.94-12.85
					C1415.07,173.47,1409.13,170.08,1402.96,170.08z"/>
			</g>
			<g>
				<path class="st4" d="M1387.14,207.7l-54.74,21.93c-2,0.8-4.2,0.05-5.1-1.72l-2.69-5.35c-0.9-1.79-0.16-4.03,1.7-5.15
					l50.57-30.22c2.08-1.24,4.73-0.6,5.73,1.41l6.86,13.64C1390.5,204.26,1389.41,206.79,1387.14,207.7z"/>
				<path class="st0" d="M1330.75,232.08c-2.24,0-4.31-1.18-5.34-3.22l-2.69-5.35c-1.39-2.77-0.29-6.25,2.51-7.93l50.57-30.22
					c1.56-0.93,3.42-1.18,5.12-0.69c1.6,0.46,2.88,1.52,3.6,2.96l6.86,13.64c0.73,1.46,0.81,3.13,0.22,4.69
					c-0.63,1.67-1.97,3.02-3.67,3.7l-54.74,21.93C1332.39,231.93,1331.56,232.08,1330.75,232.08z M1379.16,188.69
					c-0.4,0-0.81,0.11-1.18,0.33l-50.57,30.22c-0.9,0.54-1.29,1.58-0.9,2.37l2.69,5.35c0.39,0.78,1.45,1.09,2.41,0.7l54.74-21.93
					c0.6-0.24,1.06-0.7,1.27-1.26c0.1-0.25,0.22-0.76-0.04-1.28l-6.86-13.64c-0.24-0.49-0.67-0.7-0.99-0.79
					C1379.55,188.71,1379.36,188.69,1379.16,188.69z"/>
			</g>
			<g>
				<path class="st0" d="M1397.61,210.83L1397.61,210.83c-2.64,1.33-5.85,0.26-7.18-2.38l-12.23-24.32
					c-1.33-2.64-0.26-5.85,2.38-7.18l0,0c2.64-1.33,5.85-0.26,7.18,2.38l12.23,24.32C1401.31,206.29,1400.25,209.5,1397.61,210.83z"
					/>
			</g>
		</g>
		<g>
			<path class="st0" d="M1302.07,480.86c-1.26,0-2.41-0.85-2.74-2.12c-0.39-1.52,0.52-3.06,2.03-3.46l52.5-13.61
				c1.52-0.39,3.06,0.52,3.46,2.03c0.39,1.52-0.52,3.06-2.03,3.46l-52.5,13.61C1302.54,480.83,1302.3,480.86,1302.07,480.86z"/>
		</g>
		<g>
			<path class="st0" d="M1425.53,482.8c-0.3,0-0.6-0.05-0.9-0.15l-49.58-16.53c-1.49-0.49-2.29-2.1-1.79-3.59
				c0.5-1.48,2.09-2.29,3.59-1.79l49.58,16.53c1.49,0.49,2.29,2.1,1.79,3.59C1427.82,482.05,1426.71,482.8,1425.53,482.8z"/>
		</g>
		<g>
			<path class="st4" d="M1371.48,467.33h-12.45c-2.46,0-4.47-2.01-4.47-4.47v-22.17c0-2.46,2.01-4.47,4.47-4.47h12.45
				c2.46,0,4.47,2.01,4.47,4.47v22.17C1375.95,465.32,1373.94,467.33,1371.48,467.33z"/>
			<path class="st0" d="M1371.48,469.45h-12.45c-3.64,0-6.59-2.96-6.59-6.59v-22.17c0-3.64,2.96-6.59,6.59-6.59h12.45
				c3.64,0,6.59,2.96,6.59,6.59v22.17C1378.08,466.5,1375.12,469.45,1371.48,469.45z M1359.03,438.35c-1.29,0-2.34,1.05-2.34,2.34
				v22.17c0,1.29,1.05,2.34,2.34,2.34h12.45c1.29,0,2.34-1.05,2.34-2.34v-22.17c0-1.29-1.05-2.34-2.34-2.34H1359.03z"/>
		</g>
		<g>
			<path class="st0" d="M1352.62,462.65c-0.56,0-1.13-0.22-1.55-0.67c-17.22-18.26-24.46-35.74-20.94-50.56
				c0.18-0.76,0.34-1.57,0.51-2.4c1.55-7.68,3.67-18.19,24.03-27.24c40.68-18.08,47.07-37.08,48.33-49.79
				c1.19-12.05-8.17-26.22-26.38-39.89c-10.63-7.98-18.98-11.33-27.06-14.57c-7.35-2.95-14.29-5.74-21.62-11.73
				c-5.53-4.53-9.18-11.69-10-19.65c-0.83-7.98,1.29-15.72,5.82-21.25c0.74-0.91,2.08-1.04,2.99-0.3c0.91,0.74,1.04,2.08,0.3,2.99
				c-3.81,4.66-5.59,11.26-4.88,18.12c0.71,6.85,3.79,12.98,8.47,16.8c6.82,5.58,13.17,8.13,20.51,11.08
				c7.95,3.19,16.95,6.8,28.03,15.12c19.44,14.6,29.41,30.12,28.06,43.71c-1.37,13.77-8.12,34.27-50.83,53.26
				c-18.35,8.16-20.14,17.05-21.58,24.2c-0.18,0.89-0.35,1.74-0.54,2.54c-4.01,16.88,8.6,34.69,19.89,46.66
				c0.81,0.85,0.77,2.2-0.09,3.01C1353.67,462.46,1353.14,462.65,1352.62,462.65z"/>
		</g>
	</g>
</g>
</svg>
