<?xml version="1.0" encoding="utf-8"?>
<!-- Generator: Adobe Illustrator 23.1.0, SVG Export Plug-In . SVG Version: 6.00 Build 0)  -->
<svg version="1.1" id="Слой_1" xmlns="http://www.w3.org/2000/svg" xmlns:xlink="http://www.w3.org/1999/xlink" x="0px" y="0px"
	 viewBox="0 0 1920 1024" style="enable-background:new 0 0 1920 1024;" xml:space="preserve">
<style type="text/css">
	.st0{fill:#20232C;}
	.st1{fill:#1133FD;}
	.st2{fill:#C8CBD3;}
	.st3{fill:#343E59;}
	.st4{clip-path:url(#SVGID_2_);}
	.st5{fill:#F37635;}
	.st6{fill:#FFFFFF;}
	.st7{fill:#18C272;}
	.st8{fill:#31DD8C;}
	.st9{fill:#8AF9C2;}
</style>
<g>
	<g>
		<rect x="1.52" y="1.52" class="st0" width="1920" height="1024"/>
	</g>
	<g>
		<polygon class="st1" points="916.52,868.52 1014.52,897.52 1818.52,428.52 1143.52,12.52 		"/>
	</g>
	<g>
		<polygon class="st2" points="366.52,700.52 908.52,28.52 1645.52,484.52 1113.23,799.94 395.52,795.52 		"/>
	</g>
	<g>
		<polygon class="st3" points="1596.45,966.27 111.16,949.36 393.36,783.22 1787.8,767.9 		"/>
	</g>
	<g>
		<defs>
			<path id="SVGID_1_" d="M540.02,190.02c-183.36,0-332,148.64-332,332s148.64,332,332,332s332-148.64,332-332
				S723.37,190.02,540.02,190.02z M540.02,689.02c-92.23,0-167-74.77-167-167s74.77-167,167-167s167,74.77,167,167
				S632.25,689.02,540.02,689.02z"/>
		</defs>
		<use xlink:href="#SVGID_1_"  style="overflow:visible;fill:#FFBA52;"/>
		<clipPath id="SVGID_2_">
			<use xlink:href="#SVGID_1_"  style="overflow:visible;"/>
		</clipPath>
		<g class="st4">
			<polygon class="st5" points="325.52,140.52 964.52,718.52 792.52,883.52 12.52,337.52 			"/>
		</g>
	</g>
	<g>
		<path class="st6" d="M975.5,304.42c2.13-0.3,3.79-2.11,4.55-4.11c0.75-2.01,0.77-4.21,0.77-6.36c0.01-9.41-0.4-20.53-0.39-29.94
			l-19.41,15l4,28L975.5,304.42z"/>
		<path class="st0" d="M965.02,309.85c-0.56,0-1.11-0.17-1.58-0.48c-0.66-0.45-1.11-1.16-1.22-1.95l-4-28
			c-0.14-1.01,0.27-2.02,1.07-2.64l19.41-15c0.86-0.66,2.02-0.78,2.98-0.3c0.97,0.48,1.58,1.47,1.58,2.55
			c-0.01,4.67,0.09,9.88,0.19,14.91c0.1,5.06,0.2,10.29,0.19,15.03c0,2.26-0.01,4.83-0.95,7.35c-1.2,3.18-3.73,5.43-6.64,5.9
			l-10.35,2.56C965.47,309.82,965.24,309.85,965.02,309.85z M964.06,280.25l3.32,23.26l7.44-1.84c0.1-0.02,0.19-0.04,0.29-0.06
			c0.88-0.12,1.82-1.07,2.28-2.3c0.58-1.55,0.59-3.49,0.59-5.36c0.01-4.68-0.09-9.88-0.19-14.91c-0.06-3.08-0.12-6.22-0.16-9.28
			L964.06,280.25z"/>
	</g>
	<g>
		<path class="st6" d="M1028.01,284.81c-3.83-0.43-7.26-2.75-9.73-5.7c-2.47-2.95-4.1-6.52-5.5-10.1
			c-3.3-8.45-5.52-17.33-6.59-26.34l13.83-8.65C1020.02,234.02,1028.58,284.87,1028.01,284.81z"/>
		<path class="st0" d="M1028.01,287.64c-0.11,0-0.21-0.01-0.32-0.02c-4.26-0.48-8.37-2.86-11.58-6.69c-2.83-3.38-4.6-7.4-5.96-10.89
			c-3.39-8.69-5.67-17.78-6.77-27.04c-0.13-1.09,0.38-2.16,1.31-2.74l13.83-8.65c0.8-0.5,1.8-0.57,2.67-0.18
			c0.86,0.39,1.48,1.18,1.63,2.11c0.02,0.13,2.14,12.73,4.18,25.22c4.34,26.66,4.34,26.66,3.09,27.98
			C1029.54,287.32,1028.78,287.64,1028.01,287.64z M1009.23,244.1c1.12,8.17,3.2,16.19,6.19,23.87c1.2,3.06,2.73,6.57,5.03,9.31
			c1.27,1.51,2.73,2.72,4.27,3.53c-1.19-8.26-4.36-27.6-6.8-42.15L1009.23,244.1z"/>
	</g>
	<g>
		<g>
			
				<rect x="963.66" y="291.89" transform="matrix(0.9615 -0.2747 0.2747 0.9615 -42.8471 286.3211)" class="st0" width="74.41" height="8.5"/>
		</g>
		<g>
			
				<rect x="968.77" y="343" transform="matrix(0.9615 -0.2747 0.2747 0.9615 -56.6882 289.6907)" class="st0" width="74.41" height="8.5"/>
		</g>
		<g>
			
				<rect x="979" y="394.1" transform="matrix(0.9615 -0.2747 0.2747 0.9615 -70.3327 294.4641)" class="st0" width="74.41" height="8.5"/>
		</g>
		<g>
			
				<rect x="984.11" y="445.2" transform="matrix(0.9615 -0.2747 0.2747 0.9615 -84.1738 297.8336)" class="st0" width="74.41" height="8.5"/>
		</g>
		<g>
			
				<rect x="994.33" y="496.31" transform="matrix(0.9615 -0.2747 0.2747 0.9615 -97.8214 302.6248)" class="st0" width="74.41" height="8.5"/>
		</g>
		<g>
			
				<rect x="996.33" y="545.31" transform="matrix(0.9615 -0.2747 0.2747 0.9615 -111.2089 305.0774)" class="st0" width="74.41" height="8.5"/>
		</g>
		<g>
			
				<rect x="1024.67" y="724.63" transform="matrix(0.9573 -0.2889 0.2889 0.9573 -165.1504 339.029)" class="st0" width="82.1" height="8.5"/>
		</g>
		<g>
			<polygon class="st1" points="1012.02,828.02 1040.02,828.02 947.02,184.02 929.02,189.02 			"/>
			<path class="st0" d="M1043.29,830.85h-33.76l-0.32-2.47l-83.32-641.44l23.47-6.52L1043.29,830.85z M1014.51,825.18h22.24
				l-92.07-637.57l-12.53,3.48L1014.51,825.18z"/>
		</g>
		<g>
			<polygon class="st1" points="1116.91,825.52 1145.21,825.4 1032.02,188.86 1013.97,193.88 			"/>
			<path class="st0" d="M1114.5,828.36l-0.39-2.39l-103.35-634.15l23.5-6.53l114.33,642.93L1114.5,828.36z M1017.17,195.93
				l102.14,626.74l22.52-0.09l-112.06-630.16L1017.17,195.93z"/>
		</g>
	</g>
	<g>
		<g>
			<path class="st7" d="M930.46,626.06c-53.29,22.86-115.1,10.62-149.16-33.62l-10.77-13.99c-40.98-53.22-26.93-133.4,31.23-178.18
				l267.37-204.66l-58.03-75.37l-26.57-29.73l-50.5-10.5l-326,254l-12,221l119,137l180,16l37-26L930.46,626.06z"/>
		</g>
		<g>
			<g>
				<polyline class="st7" points="1282,534.13 1197.25,420.66 1228.52,402.63 1307.17,504.78 1281.66,535.86 				"/>
				<path class="st0" d="M1283.85,537.66l-3.13-2.57l-0.99,0.74l-84.75-113.47c-0.48-0.65-0.67-1.47-0.5-2.27s0.66-1.48,1.36-1.88
					l31.27-18.03c1.23-0.71,2.8-0.4,3.66,0.73l78.66,102.16c0.8,1.05,0.78,2.51-0.06,3.53L1283.85,537.66z M1201.43,421.52
					l81.19,108.71l20.93-25.5l-75.77-98.41L1201.43,421.52z"/>
			</g>
			<g>
				<path class="st8" d="M748.17,224.43c-65.87,50.81-123.81,95.56-123.81,95.56c-85.56,65.88-112.07,181.08-70.5,275.96l14,26.93
					c4.36,7.19,9.16,14.2,14.41,21.01l67.38,87.51c77.5,100.65,223.25,119.59,323.9,42.09l178.16-137.41l18-13.89l111.94-86.34
					c2.76-2.13-2.3,2.48,0,0l-84.41-115.21L930.46,626.07c-58.15,44.78-142.37,33.83-187.15-24.32l-11.77-15.28
					c-44.78-58.15-33.83-142.37,24.32-187.15l266.78-205.42l-87.3-113.38c-0.48,0.25-8.86,6.63-22.57,17.14"/>
			</g>
			<g>
				<path class="st9" d="M734.62,590.46l-3.07-3.99c-44.78-58.15-33.83-142.37,24.32-187.15l266.78-205.42l-87.3-113.38
					c-0.48,0.25-8.86,6.63-22.57,17.14L748.17,224.43c-65.87,50.81-123.81,95.56-123.81,95.56
					c-85.56,65.88-112.07,181.08-70.5,275.96l14,26.93c4.36,7.19,9.16,14.2,14.41,21.01l30.81,40.02L734.62,590.46z"/>
			</g>
			<g>
				<path class="st7" d="M600.7,556.52c0,0,8.4-3,11.54,7c3.15,10-22.04,51-22.04,51l-14.66-18.19L600.7,556.52z"/>
			</g>
			<g>
				<path class="st7" d="M1123.52,590.52c0,0-8,2-10,14c-1.72,10.34,24,38,24,38l14.27-11.6L1123.52,590.52z"/>
			</g>
			<g>
				<g>
					<path class="st7" d="M1175.71,572.2l-18,13.89L979.55,723.49c-100.65,77.5-246.4,58.55-323.9-42.09l-67.38-87.51
						c-5.24-6.81-10.04-13.82-14.41-21.01l-14-26.93c-13.33-30.43-19.65-62.96-19.28-95.27c-11.07,47.87-7,98.99,13.28,145.27
						l14,26.93c4.36,7.19,9.16,14.2,14.41,21.01l67.38,87.51c77.5,100.65,223.25,119.59,323.9,42.09l178.16-137.41l18-13.89
						l111.94-86.34l-21.24-28.99L1175.71,572.2z"/>
				</g>
				<g>
					<path class="st7" d="M1281.66,535.86C1279.36,538.35,1284.42,533.74,1281.66,535.86L1281.66,535.86z"/>
				</g>
			</g>
			<g>
				<path class="st7" d="M1006.26,96.86l-14.63-14.63c-2.35-2.35-5.52-3.68-8.84-3.71l-72.28-0.69l-78.01,66.73
					c-20.28,17.6-79.98,72.96-92.98,87.96c7,5,32.5,8.66,42.18,1.21c9.68-7.45,18.79-17,26.82-26.21c9-10.34,16.99-20.4,26-30.74
					l28.69-21.61c0.7,0.03,1.4,0.05,2.11,0.05c24.43,0,47.15-14.79,52.2-37.7l22-17l32.17,4.41l26.5,50.29l15.33,5.11v-45.95
					C1013.52,107.81,1010.91,101.51,1006.26,96.86z"/>
			</g>
			<g>
				<path class="st0" d="M876.23,640.19c-38.15,0-74.2-16.16-97.18-46.02l-10.77-13.99c-42.04-54.6-27.8-136.31,31.74-182.15
					l265.12-202.94l-56.3-73.12c-0.96-1.24-0.72-3.02,0.52-3.98c1.24-0.95,3.02-0.72,3.98,0.52l58.03,75.37
					c0.46,0.6,0.66,1.35,0.56,2.1c-0.1,0.75-0.49,1.42-1.09,1.88L803.48,402.53c-57.06,43.93-70.83,122.08-30.7,174.2l10.77,13.99
					c32.47,42.17,92.43,55.64,145.8,32.75c1.44-0.62,3.11,0.05,3.72,1.49c0.62,1.44-0.05,3.11-1.49,3.72
					C913.46,636.44,894.6,640.19,876.23,640.19z"/>
			</g>
			<g>
				<path class="st0" d="M1069.12,198.45c-0.04,0-0.07,0-0.11,0l-46.47-1.71c-0.84-0.03-1.63-0.44-2.14-1.1l-87.3-113.38
					c-0.72-0.94-0.79-2.23-0.16-3.23c0.63-1,1.81-1.51,2.97-1.28l33.89,6.9c1.53,0.31,2.52,1.81,2.21,3.34
					c-0.31,1.53-1.81,2.52-3.34,2.21l-26.44-5.39l81.85,106.3l45.14,1.66c1.56,0.06,2.79,1.37,2.73,2.94
					C1071.9,197.25,1070.64,198.45,1069.12,198.45z"/>
			</g>
			<g>
				<path class="st0" d="M937.63,262.21c-0.85,0-1.69-0.38-2.25-1.11l-87.3-113.38c-0.96-1.24-0.72-3.02,0.52-3.98
					c1.24-0.95,3.02-0.72,3.98,0.52l87.3,113.38c0.96,1.24,0.72,3.02-0.52,3.98C938.84,262.02,938.23,262.21,937.63,262.21z"/>
			</g>
			<g>
				<path class="st0" d="M852.59,327.68c-0.85,0-1.69-0.38-2.25-1.11l-80.47-104.51c-0.96-1.24-0.72-3.02,0.52-3.98
					c1.24-0.95,3.02-0.72,3.98,0.52l80.47,104.51c0.96,1.24,0.72,3.02-0.52,3.98C853.81,327.49,853.2,327.68,852.59,327.68z"/>
			</g>
			<g>
				<path class="st0" d="M767.56,393.16c-0.85,0-1.69-0.38-2.25-1.11l-87.3-113.38c-0.96-1.24-0.72-3.02,0.52-3.98
					c1.24-0.95,3.02-0.72,3.98,0.52l87.3,113.38c0.96,1.24,0.72,3.02-0.52,3.98C768.78,392.96,768.17,393.16,767.56,393.16z"/>
			</g>
			<g>
				<path class="st0" d="M712.13,455.19c-0.69,0-1.38-0.25-1.93-0.76L596.42,348.54c-1.15-1.07-1.21-2.86-0.14-4.01
					c1.07-1.15,2.86-1.21,4.01-0.14l113.78,105.88c1.15,1.07,1.21,2.86,0.14,4.01C713.65,454.88,712.89,455.19,712.13,455.19z"/>
			</g>
			<g>
				
					<rect x="955.49" y="240.87" transform="matrix(0.1114 -0.9938 0.9938 0.1114 591.5148 1184.9066)" class="st0" width="5.67" height="41.65"/>
			</g>
			<g>
				
					<rect x="870.15" y="306.93" transform="matrix(0.1289 -0.9917 0.9917 0.1289 435.7127 1150.995)" class="st0" width="5.67" height="41.12"/>
			</g>
			<g>
				
					<rect x="784.91" y="372.6" transform="matrix(0.1288 -0.9917 0.9917 0.1288 296.6247 1123.5261)" class="st0" width="5.67" height="40.69"/>
			</g>
			<g>
				
					<rect x="731.76" y="432.69" transform="matrix(0.1323 -0.9912 0.9912 0.1323 186.0305 1123.2303)" class="st0" width="5.67" height="45.34"/>
			</g>
			<g>
				
					<rect x="593.46" y="623.41" transform="matrix(0.7923 -0.6101 0.6101 0.7923 -239.1888 549.7978)" class="st0" width="189.08" height="5.67"/>
			</g>
			<g>
				<path class="st0" d="M833.42,824.07c-10.23,0-20.54-0.66-30.87-2.01c-62.11-8.07-117.2-39.65-155.15-88.93l-67.38-87.51
					c-5.24-6.8-10.15-13.96-14.58-21.27c-0.03-0.05-0.06-0.11-0.09-0.16l-14-26.92c-0.03-0.06-0.06-0.11-0.08-0.17
					c-20.57-46.94-25.04-100.46-12.58-150.68c12.84-51.78,41.87-96.27,83.94-128.67c0,0,57.94-44.75,123.81-95.56
					c1.24-0.96,3.02-0.73,3.98,0.51c0.96,1.24,0.73,3.02-0.51,3.98c-65.87,50.81-123.81,95.56-123.81,95.56
					c-83.21,64.07-111.85,176.11-69.67,272.49l13.91,26.76c4.32,7.1,9.09,14.05,14.18,20.67l67.38,87.51
					c76.74,99.67,220.25,118.32,319.92,41.58l305.92-235.94l-81.06-110.64L932.19,628.32c-28.73,22.12-64.48,31.71-100.68,27
					c-36.2-4.71-68.32-23.12-90.44-51.84L729.3,588.2c-45.84-59.54-34.7-145.28,24.84-191.12l264.54-203.69L934.8,84.45
					c-2.6,1.95-8.25,6.25-20.29,15.47c-1.24,0.95-3.02,0.72-3.97-0.53c-0.95-1.24-0.72-3.02,0.53-3.97
					c22.08-16.92,22.57-17.18,22.97-17.39c1.22-0.65,2.73-0.32,3.57,0.77l87.3,113.38c0.46,0.6,0.66,1.35,0.57,2.09
					c-0.1,0.75-0.49,1.42-1.08,1.88L757.6,401.57c-57.06,43.94-67.74,126.11-23.8,183.17l11.77,15.28
					c21.19,27.53,51.98,45.17,86.68,49.68c34.7,4.51,68.97-4.68,96.5-25.87l266.79-205.42c0.61-0.47,1.37-0.67,2.13-0.56
					c0.76,0.11,1.44,0.52,1.89,1.13l83.12,113.45l0,0c0.67,0,1.38,0.27,2.02,1.04c0.82,0.97,1.32,2.56-0.92,4.61
					c-0.71,0.65-1.35,1.03-1.92,1.23L975.28,775.74C934.19,807.37,884.72,824.07,833.42,824.07z"/>
			</g>
		</g>
		<g>
			<g>
				<g>
					<path class="st6" d="M1011.09,145.67c-0.3,0-0.6-0.05-0.9-0.15l-15.33-5.11c-0.69-0.23-1.27-0.72-1.61-1.37l-25.86-49.08
						l-31.67-5.94l-21.23,15.9c-0.5,0.37-1.1,0.56-1.7,0.56c-0.38,0-0.75-0.07-1.11-0.23c-0.93-0.4-1.58-1.25-1.7-2.26l-2.08-16.56
						l-2.62-20.78c-0.1-0.81,0.15-1.63,0.7-2.24c0.54-0.6,1.31-0.95,2.12-0.95c0.01,0,72.3,0.69,72.3,0.69
						c4.02,0.04,7.97,1.69,10.82,4.54l14.63,14.64c5.14,5.13,8.09,12.25,8.09,19.52v45.95c0,0.91-0.44,1.77-1.18,2.3
						C1012.25,145.49,1011.67,145.67,1011.09,145.67z"/>
				</g>
				<g>
					<path class="st0" d="M908.09,60.33l72.27,0.69c3.32,0.03,6.5,1.37,8.84,3.71l14.63,14.64c4.65,4.64,7.26,10.95,7.26,17.52
						v45.95l-15.33-5.11l-26.5-50.29l-34.24-6.42L914.1,96.69l-1.31,0.98l-0.52-4.16l-1.56-12.4L908.09,60.33 M908.09,54.66
						c-1.62,0-3.16,0.69-4.23,1.9c-1.09,1.22-1.6,2.86-1.39,4.48l2.62,20.78l1.56,12.4l0.52,4.16c0.25,2,1.55,3.72,3.41,4.51
						c0.71,0.3,1.47,0.45,2.22,0.45c1.21,0,2.4-0.38,3.4-1.13l1.31-0.98l18.93-14.18l29.1,5.46l25.22,47.87
						c0.68,1.29,1.84,2.27,3.22,2.74l15.33,5.11c0.59,0.2,1.19,0.29,1.79,0.29c1.18,0,2.34-0.37,3.32-1.07
						c1.48-1.07,2.35-2.78,2.35-4.6V96.89c0-8.02-3.25-15.87-8.92-21.53l-14.62-14.63c-3.42-3.42-7.97-5.33-12.8-5.37l-72.27-0.69
						C908.12,54.66,908.1,54.66,908.09,54.66L908.09,54.66z"/>
				</g>
			</g>
			<g>
				<polygon class="st2" points="1011.09,130.34 1011.09,142.84 995.76,137.73 969.26,87.44 935.02,81.02 914.1,96.69 912.27,93.51 
					906.52,83.52 910.71,81.11 932.52,68.52 973.87,74.26 				"/>
			</g>
			<g>
				<g>
					<path class="st6" d="M745.35,227.43c-0.81,0-1.58-0.34-2.11-0.95c-0.58-0.65-0.83-1.52-0.68-2.38
						c2.67-15.18,11.68-24.7,21.22-34.78c2.28-2.41,4.64-4.9,6.96-7.52c17.65-19.91,58.83-62.34,59.25-62.77
						c0.54-0.56,1.28-0.86,2.03-0.86c0.35,0,0.7,0.06,1.03,0.2l33.47,13.11c0.96,0.37,1.64,1.24,1.77,2.25s-0.28,2.03-1.1,2.65
						l-33.16,24.97l-26.82,30.78c-8,9.18-16.27,18.68-26.21,26.33c-9.71,7.47-21.53,8.15-32.96,8.81l-2.52,0.15
						C745.46,227.43,745.41,227.43,745.35,227.43z"/>
				</g>
				<g>
					<path class="st0" d="M832.02,121.02l33.47,13.11l-33.4,25.15c-9,10.34-18.01,20.67-27.01,31.01
						c-8.03,9.21-16.12,18.49-25.8,25.94c-9.68,7.45-21.73,7.63-33.92,8.37c3.13-17.83,15.5-27.36,27.51-40.91
						C790.67,163.59,832.02,121.02,832.02,121.02 M832.02,115.35c-1.5,0-2.98,0.6-4.07,1.72c-0.41,0.43-41.64,42.9-59.33,62.86
						c-2.29,2.58-4.63,5.06-6.89,7.45c-9.84,10.4-19.14,20.22-21.95,36.24c-0.3,1.71,0.2,3.46,1.35,4.76
						c1.08,1.21,2.62,1.89,4.23,1.89c0.11,0,0.23,0,0.34-0.01c0.84-0.05,1.67-0.1,2.51-0.15c11.86-0.68,24.13-1.39,34.53-9.39
						c10.17-7.82,18.53-17.42,26.62-26.71l13.51-15.5l13.12-15.06l32.92-24.79c1.64-1.24,2.49-3.26,2.21-5.3
						c-0.28-2.04-1.64-3.76-3.55-4.51l-33.47-13.11C833.41,115.47,832.71,115.35,832.02,115.35L832.02,115.35z"/>
				</g>
			</g>
			<g>
				<path class="st2" d="M854.33,129.76l-27.25,20.52c-9,10.34-18.01,20.67-27.01,31.01c-8.03,9.21-16.12,18.49-25.8,25.94
					c-7.61,5.86-16.68,7.22-26.14,7.89c-1.22,2.91-2.18,6.04-2.78,9.48c12.19-0.74,24.24-0.92,33.92-8.37
					c9.68-7.45,17.78-16.73,25.8-25.94c9-10.34,18.01-20.67,27.01-31.01l33.4-25.15L854.33,129.76z"/>
			</g>
			<g>
				<g>
					
						<ellipse transform="matrix(0.9239 -0.3827 0.3827 0.9239 32.5354 336.8062)" class="st6" cx="862.89" cy="86.62" rx="53.94" ry="53.94"/>
				</g>
				<g>
					<path class="st0" d="M862.89,35.52c28.22,0,51.1,22.88,51.1,51.1s-22.88,51.1-51.1,51.1s-51.1-22.88-51.1-51.1
						S834.66,35.52,862.89,35.52 M862.89,29.85c-31.3,0-56.77,25.47-56.77,56.77s25.47,56.77,56.77,56.77s56.77-25.47,56.77-56.77
						S894.19,29.85,862.89,29.85L862.89,29.85z"/>
				</g>
			</g>
			<g>
				<path class="st2" d="M862.81,35.52c-21.05,0.03-39.11,12.8-46.91,31c-0.83,1.94,1.82,3.41,3.09,1.73
					c8.73-11.58,22.69-18.99,38.37-18.72c24.05,0.42,44.19,19.33,46.02,43.31c0.72,9.49-1.38,18.43-5.54,26.09
					c-1.01,1.85,1.44,3.62,2.86,2.07c8.51-9.35,13.6-21.87,13.28-35.59C913.33,57.43,890.79,35.47,862.81,35.52z"/>
			</g>
		</g>
		<g>
			<g>
				<path class="st2" d="M1241.05,601.36l-18.38-20.01l-12.97,10.01l3.69,20.24c1.37,7.55,5.1,14.46,10.64,19.77l17.03,16.31
					l8.96,10.34l17-1l9-24l-22-23L1241.05,601.36z"/>
				<path class="st0" d="M1250.02,660.85c-0.82,0-1.6-0.36-2.14-0.98l-8.88-10.25l-16.93-16.21c-6.01-5.75-9.97-13.12-11.46-21.31
					l-3.69-20.24c-0.19-1.04,0.22-2.1,1.06-2.75l12.97-10.01c1.17-0.9,2.82-0.76,3.82,0.33l18.15,19.76l12.68,8.46
					c0.17,0.12,0.33,0.25,0.47,0.4l22,23c0.75,0.79,0.99,1.93,0.61,2.95l-9,24c-0.39,1.05-1.37,1.77-2.49,1.83l-17,1
					C1250.13,660.85,1250.07,660.85,1250.02,660.85z M1212.8,592.55l3.38,18.54c1.28,7,4.67,13.31,9.81,18.23l17.03,16.31
					c0.06,0.06,0.12,0.13,0.18,0.19l8.05,9.29l13.77-0.81l7.73-20.61l-20.55-21.49l-12.7-8.48c-0.19-0.13-0.36-0.27-0.51-0.44
					l-16.62-18.09L1212.8,592.55z"/>
			</g>
			<g>
				<g>
					<path class="st6" d="M1256.39,922.44c-1.36,0-2.54-0.97-2.79-2.31l-15.33-81.77c-0.03-0.17-0.05-0.35-0.05-0.52V701.61
						l-48.36-24.18c-7.91-3.95-14.81-9.38-20.53-16.12l-45.1-53.31c-2.42-2.85-3.18-6.82-2-10.36c0.08-0.24,0.16-0.46,0.26-0.67
						c1.65-4.06,5.55-6.68,9.97-6.68c2.53,0,4.99,0.91,6.93,2.55l56.77,48.04l115.02,7.31c1.28,0.08,2.34,1,2.6,2.26l32.14,155.69
						l45.75,76.25c0.67,1.12,0.49,2.54-0.43,3.46l-15.33,15.33c-0.53,0.53-1.25,0.83-2,0.83c-0.04,0-0.09,0-0.14,0
						c-0.8-0.04-1.54-0.41-2.05-1.03l-68.63-83.34l-12.9,29.02c-3.64,8.18-5.86,16.87-6.6,25.81l-3.95,47.38
						c-0.12,1.47-1.35,2.6-2.83,2.6H1256.39z"/>
				</g>
				<g>
					<path class="st0" d="M1132.47,593.12c1.78,0,3.58,0.6,5.1,1.88l57.49,48.65l115.96,7.37l32.24,156.16l45.13,75.21l0.87,1.45
						l-15.33,15.33l-70.07-85.08l-1.48-1.8l-14.76,33.21c-3.76,8.46-6.07,17.5-6.84,26.73l-3.95,47.38h-20.44l-15.33-81.77V699.86
						l-49.93-24.96c-7.52-3.76-14.2-9.01-19.63-15.42l-45.1-53.31c-1.79-2.11-2.35-5-1.47-7.63c0.05-0.15,0.1-0.3,0.17-0.44
						C1126.35,594.93,1129.36,593.12,1132.47,593.12 M1132.47,587.45C1132.47,587.45,1132.47,587.45,1132.47,587.45
						c-5.56,0-10.47,3.28-12.57,8.39c-0.17,0.38-0.28,0.7-0.35,0.91c-1.5,4.47-0.53,9.49,2.52,13.09l45.09,53.3
						c5.97,7.04,13.17,12.7,21.42,16.83l46.8,23.39v134.48c0,0.35,0.03,0.7,0.1,1.04l15.33,81.77c0.5,2.68,2.84,4.62,5.57,4.62
						h20.44c2.95,0,5.4-2.26,5.65-5.2l3.95-47.38c0.72-8.63,2.86-17.01,6.37-24.9l11.03-24.83l65.72,79.8
						c1.02,1.23,2.51,1.98,4.1,2.06c0.09,0,0.18,0.01,0.27,0.01c1.5,0,2.94-0.59,4.01-1.66l15.33-15.33
						c1.84-1.84,2.19-4.69,0.85-6.93l-0.87-1.45l-44.63-74.38l-32.05-155.22c-0.52-2.5-2.64-4.35-5.19-4.51l-114.09-7.25
						l-56.06-47.44C1138.77,588.59,1135.66,587.45,1132.47,587.45L1132.47,587.45z"/>
				</g>
			</g>
			<g>
				<path class="st2" d="M1267.6,919.61h-11.21l-15.33-81.77V699.86l-49.93-24.96c-7.52-3.76-14.2-9.01-19.63-15.42l-45.1-53.31
					c-1.79-2.11-2.35-5-1.47-7.63c0.05-0.15,0.1-0.3,0.17-0.44l57.92,57.92l81,21l-14,153L1267.6,919.61z"/>
			</g>
			<g>
				<polygon class="st2" points="1389.26,883.84 1373.93,899.17 1302.52,812.52 1316.52,810.52 1388.39,882.39 				"/>
			</g>
			<g>
				<g>
					<circle class="st6" cx="1292.16" cy="607.88" r="53.94"/>
				</g>
				<g>
					<path class="st0" d="M1292.16,556.77c28.22,0,51.1,22.88,51.1,51.1s-22.88,51.1-51.1,51.1c-28.22,0-51.1-22.88-51.1-51.1
						S1263.93,556.77,1292.16,556.77 M1292.16,551.1c-31.3,0-56.77,25.47-56.77,56.77s25.47,56.77,56.77,56.77
						c31.3,0,56.77-25.47,56.77-56.77S1323.46,551.1,1292.16,551.1L1292.16,551.1z"/>
				</g>
			</g>
			<g>
				<path class="st2" d="M1300.43,641.52c-23.84-0.06-43.66-19.33-44.36-43.16c-0.36-12.4,4.35-23.69,12.21-31.97
					c1.31-1.38-0.35-3.54-1.99-2.58c-15.64,9.2-25.95,26.47-25.19,46.09c1.04,26.98,23.41,48.74,50.41,49.08
					c23.67,0.3,43.7-15.51,49.82-37.15c0.52-1.83-1.98-2.9-2.99-1.29C1330.45,633.16,1316.42,641.56,1300.43,641.52z"/>
			</g>
		</g>
		<g>
			<g>
				<polygon class="st2" points="540.81,556.77 510.27,582.32 489.83,587.43 490.02,587.02 463.02,601.02 452.02,639.02 
					507.02,639.02 534.56,610.43 548.08,581.35 				"/>
				<path class="st0" d="M507.02,641.85h-55c-0.89,0-1.73-0.42-2.27-1.13c-0.54-0.71-0.7-1.64-0.46-2.49l11-38
					c0.22-0.75,0.73-1.37,1.42-1.73l27-14c0.64-0.33,1.37-0.4,2.05-0.22l18.2-4.55l30.03-25.13c0.73-0.61,1.72-0.82,2.64-0.54
					c0.91,0.28,1.63,0.99,1.9,1.91l7.28,24.58c0.2,0.66,0.14,1.37-0.15,2l-13.53,29.07c-0.13,0.29-0.31,0.54-0.53,0.77l-27.54,28.59
					C508.52,641.54,507.79,641.85,507.02,641.85z M455.79,636.18h50.02l26.38-27.38l12.87-27.67l-5.75-19.41l-27.22,22.78
					c-0.33,0.28-0.72,0.47-1.13,0.58l-20.44,5.11c-0.2,0.05-0.41,0.08-0.62,0.08l-24.5,12.71L455.79,636.18z"/>
			</g>
			<g>
				<g>
					<path class="st6" d="M448.95,907.11c-0.8,0-1.56-0.34-2.1-0.93c-0.54-0.59-0.8-1.39-0.72-2.18l3.39-33.83
						c1.12-11.2,0.56-22.46-1.64-33.46l-5.36-26.8l-47.33,80.48c-0.51,0.87-1.44,1.4-2.44,1.4h-10.22c-0.83,0-1.62-0.37-2.16-1
						s-0.77-1.48-0.63-2.3l30.66-183.97l9.83-73.87c0.16-1.18,1.04-2.14,2.21-2.4l46-10c0.2-0.04,0.4-0.07,0.6-0.07
						c0.32,0,0.64,0.05,0.94,0.16l19.81,6.95l49.63-19.85l54.59-50.04c1.23-1.13,2.81-1.75,4.46-1.75c0.75,0,1.49,0.13,2.21,0.38
						c2.7,0.96,4.43,3.41,4.43,6.26v5.64c0,1.23-0.34,2.43-0.98,3.48l-36.89,59.96c-2.47,4.01-5.87,7.46-9.83,9.98l-49.22,31.32
						L518.21,766c0.05,0.43-0.01,0.87-0.16,1.28l-51.1,137.98c-0.41,1.11-1.47,1.85-2.66,1.85H448.95z"/>
				</g>
				<g>
					<path class="st0" d="M598.45,556.48c0.44,0,0.87,0.08,1.27,0.22c1.41,0.5,2.53,1.82,2.53,3.58v5.64c0,0.7-0.19,1.39-0.56,1.99
						l-36.89,59.96c-2.26,3.66-5.31,6.76-8.94,9.07l-50.7,32.26l10.22,97.1l-51.1,137.98h-15.34l1.16-11.57l2.23-22.26
						c1.14-11.45,0.58-23.01-1.68-34.3l-6.82-34.08l-0.36,0.61l-50.74,86.27h-10.22l30.66-183.97l9.84-73.96l46-10l16.36,5.74
						l4.46,1.56l51.1-20.44l54.97-50.39C596.66,556.79,597.57,556.48,598.45,556.48 M598.45,550.81c-2.36,0-4.63,0.89-6.39,2.51
						L537.87,603l-48.17,19.27l-2.46-0.86l-16.35-5.74c-0.61-0.21-1.24-0.32-1.88-0.32c-0.4,0-0.81,0.04-1.2,0.13l-46,10
						c-2.33,0.51-4.1,2.42-4.42,4.79l-9.83,73.87l-30.64,183.88c-0.27,1.64,0.19,3.32,1.27,4.6c1.08,1.27,2.66,2,4.33,2h10.22
						c2.01,0,3.87-1.06,4.89-2.8l43.57-74.08l3.91,19.52c2.15,10.73,2.68,21.7,1.6,32.63l-2.23,22.26l-1.16,11.57
						c-0.16,1.59,0.36,3.18,1.44,4.37c1.07,1.19,2.6,1.87,4.2,1.87h15.34c2.37,0,4.49-1.48,5.32-3.7l51.1-137.98
						c0.3-0.82,0.41-1.69,0.32-2.56l-9.85-93.61l47.74-30.38c4.32-2.75,8.02-6.51,10.72-10.87l36.89-59.97
						c0.92-1.48,1.4-3.2,1.4-4.96v-5.64c0-4-2.53-7.59-6.3-8.92C600.58,550.99,599.52,550.81,598.45,550.81L598.45,550.81z"/>
				</g>
			</g>
			<g>
				<path class="st2" d="M602.26,560.28v5.64c0,0.7-0.19,1.39-0.56,1.99l-36.89,59.96c-2.26,3.66-5.31,6.76-8.94,9.07l-50.7,32.26
					l10.22,97.1l-51.1,137.98h-15.34l1.16-11.57l48.41-134.19l-8-100l73.03-42.84l36.18-58.98
					C601.14,557.2,602.26,558.52,602.26,560.28z"/>
			</g>
			<g>
				<path class="st2" d="M435.52,652.52l-35,183l43-33l-0.04,0.16l-50.74,86.27h-10.22l30.66-183.97l9.84-73.96l46-10l16.36,5.74
					C476.65,637.4,460.56,651.3,435.52,652.52z"/>
			</g>
			<g>
				<g>
					<circle class="st6" cx="438.73" cy="587.43" r="53.94"/>
				</g>
				<g>
					<path class="st0" d="M438.73,536.33c28.22,0,51.1,22.88,51.1,51.1c0,28.22-22.88,51.1-51.1,51.1s-51.1-22.88-51.1-51.1
						C387.63,559.21,410.51,536.33,438.73,536.33 M438.73,530.66c-31.3,0-56.77,25.47-56.77,56.77c0,31.3,25.47,56.77,56.77,56.77
						s56.77-25.47,56.77-56.77C495.5,556.13,470.03,530.66,438.73,530.66L438.73,530.66z"/>
				</g>
			</g>
			<g>
				<path class="st2" d="M444.77,623.38c-21.97-1.81-39.56-19.69-41.04-41.69c-1.01-15.01,5.36-28.57,15.84-37.42
					c1.74-1.48,0.01-4.27-2.07-3.32c-18.22,8.33-30.69,27.05-29.83,48.58c1.07,26.75,23.08,48.37,49.85,48.99
					c19.17,0.44,36.01-9.68,45.12-24.95c1.17-1.97-1.39-4.05-3.05-2.47C470.68,619.61,458.29,624.49,444.77,623.38z"/>
			</g>
		</g>
	</g>
</g>
</svg>
