<?xml version="1.0" encoding="utf-8"?>
<!-- Generator: Adobe Illustrator 23.1.0, SVG Export Plug-In . SVG Version: 6.00 Build 0)  -->
<svg version="1.1" id="Слой_1" xmlns="http://www.w3.org/2000/svg" xmlns:xlink="http://www.w3.org/1999/xlink" x="0px" y="0px"
	 viewBox="0 0 1920 1024" style="enable-background:new 0 0 1920 1024;" xml:space="preserve">
<style type="text/css">
	.st0{fill:#20232C;}
	.st1{fill:#1133FD;}
	.st2{fill:#343E59;}
	.st3{fill:#FFE900;}
	.st4{fill:#F37635;}
	.st5{fill:#FFBA52;}
	.st6{fill:#FFFFFF;}
	.st7{fill:#C8CBD3;}
	.st8{fill:#F33535;}
</style>
<g>
	<g>
		<rect x="1.52" y="1.52" class="st0" width="1920" height="1024"/>
	</g>
	<g>
		<polygon class="st1" points="381.52,40.52 1823.52,349.52 1549.52,797.52 98.52,718.52 		"/>
	</g>
	<g>
		<polygon class="st2" points="1881.52,609.6 230.32,104.15 28.52,793.48 907.39,819.89 		"/>
	</g>
	<g>
		<g id="XMLID_6_">
			<circle class="st3" cx="838.42" cy="137.77" r="90.34"/>
		</g>
		<g id="XMLID_4_">
			<g>
				<circle class="st4" cx="847.69" cy="138.8" r="90.34"/>
			</g>
			<g>
				<path class="st5" d="M847.5,230.59c-17.85,0-35.31-5.23-50.52-15.31c-20.43-13.54-34.35-34.23-39.22-58.25
					c-10.04-49.59,22.13-98.1,71.71-108.14c49.59-10.04,98.1,22.13,108.14,71.71c10.04,49.59-22.13,98.1-71.71,108.14
					C859.77,229.97,853.61,230.59,847.5,230.59z M847.72,49.87c-5.83,0-11.75,0.58-17.68,1.78c-23.28,4.71-43.33,18.21-56.45,38.01
					c-13.13,19.79-17.76,43.52-13.04,66.8c4.71,23.28,18.21,43.33,38.01,56.45c19.8,13.13,43.52,17.76,66.79,13.04
					c23.28-4.71,43.33-18.21,56.46-38.01c13.13-19.79,17.76-43.52,13.04-66.8C926.31,79.03,889.13,49.87,847.72,49.87z"/>
			</g>
		</g>
		<g id="XMLID_1_">
			<path class="st5" d="M847.54,212.35c-14.3,0-28.29-4.19-40.48-12.27c-16.37-10.85-27.53-27.43-31.42-46.68
				c-8.05-39.73,17.73-78.6,57.46-86.65c39.73-8.05,78.6,17.73,86.65,57.46c8.05,39.73-17.73,78.6-57.46,86.65
				C857.37,211.85,852.44,212.35,847.54,212.35z M847.71,68.11c-4.64,0-9.34,0.46-14.05,1.41c-18.5,3.75-34.44,14.48-44.88,30.21
				c-10.43,15.73-14.12,34.59-10.37,53.1s14.48,34.44,30.21,44.88s34.59,14.12,53.1,10.37c38.2-7.74,62.98-45.11,55.25-83.31
				C910.18,91.29,880.63,68.11,847.71,68.11z"/>
		</g>
		<g id="XMLID_19_">
			<g>
				<path class="st3" d="M869.7,134.69c0.07-0.1,0.14-0.2,0.21-0.3c-0.1-0.06-0.21-0.13-0.31-0.19c6.87-5.43,9.84-14.7,8.16-23.02
					c-2.7-13.34-15.17-21.16-28.12-20.52l-2.26-11.18l-8.22,1.66l2.2,10.85l-14.81,3.04l-2.21-10.89l-8.22,1.66l2.21,10.92
					l-1.51,0.31l0,0l-21.81,4.42l1.66,8.22l12.37-2.51l7.7,38l7.69,37.98l-12.47,2.53l1.66,8.22l17.83-3.61l5.59-1.11l2.12,10.48
					l8.22-1.66l-2.12-10.46l14.83-2.96l2.11,10.41l8.22-1.66l-2.18-10.74c12.18-4.45,20.62-16.51,17.92-29.85
					C884.49,144.4,878.15,137.03,869.7,134.69z M855.25,170.54l-12.87,2.61l-4.97-24.52c4.99-1.01,9.85-2.11,14.87-3.01
					c7.32-1.48,14.3,2.19,15.83,9.73C869.84,163.89,862.79,169.01,855.25,170.54z M849.3,130.92c-4.97,1.12-9.88,2-14.87,3.01
					l-4.97-24.52l12.87-2.61c7.55-1.53,16.03,0.45,17.76,8.99C861.63,123.34,856.63,129.44,849.3,130.92z"/>
			</g>
		</g>
		<g id="XMLID_14_">
			<path class="st5" d="M874.22,133.88c0.07-0.1,0.14-0.2,0.21-0.3c-0.1-0.06-0.21-0.13-0.31-0.19c6.87-5.43,9.84-14.7,8.16-23.02
				c-2.7-13.34-15.17-21.16-28.12-20.52l-2.26-11.18l-8.22,1.66l2.2,10.85l-14.81,3.04l-2.21-10.89L820.65,85l2.21,10.92l-1.51,0.31
				l0,0l-21.81,4.42l1.66,8.22l12.37-2.51l7.7,38l7.69,37.98l-12.47,2.53l1.66,8.22l17.83-3.61l5.59-1.11l2.12,10.48l8.22-1.66
				l-2.12-10.46l14.83-2.96l2.11,10.41l8.22-1.66l-2.18-10.74c12.18-4.45,20.62-16.51,17.92-29.85
				C889.01,143.6,882.66,136.22,874.22,133.88z M859.76,169.74l-12.87,2.61l-4.97-24.52c4.99-1.01,9.85-2.11,14.87-3.01
				c7.32-1.48,14.3,2.19,15.83,9.73C874.36,163.08,867.31,168.21,859.76,169.74z M853.82,130.11c-4.97,1.12-9.88,2-14.87,3.01
				l-4.97-24.52l12.87-2.61c7.55-1.53,16.03,0.45,17.76,8.99C866.15,122.53,861.14,128.63,853.82,130.11z"/>
		</g>
	</g>
	<g>
		<g id="XMLID_28_">
			<circle class="st3" cx="1677.71" cy="142.29" r="99.68"/>
		</g>
		<g id="XMLID_26_">
			<g>
				<circle class="st4" cx="1687.94" cy="143.43" r="99.68"/>
			</g>
			<g>
				<path class="st5" d="M1687.91,244.54c-47.09,0-89.36-33.15-99.06-81.04c-11.07-54.64,24.38-108.09,79.02-119.16
					c54.63-11.07,108.09,24.38,119.16,79.02c11.07,54.64-24.38,108.09-79.02,119.16C1701.27,243.89,1694.54,244.54,1687.91,244.54z
					 M1687.97,45.15c-6.45,0-12.98,0.64-19.54,1.97c-53.11,10.76-87.56,62.71-76.8,115.82c9.43,46.55,50.52,78.77,96.28,78.77
					c6.45,0,12.98-0.64,19.54-1.97c53.11-10.76,87.56-62.71,76.8-115.82C1774.82,77.38,1733.74,45.15,1687.97,45.15z"/>
			</g>
		</g>
		<g id="XMLID_24_">
			<path class="st5" d="M1687.92,224.42c-37.72,0-71.57-26.55-79.34-64.91c-4.29-21.2-0.08-42.8,11.88-60.83
				c11.95-18.03,30.21-30.32,51.41-34.61c43.76-8.86,86.58,19.53,95.44,63.29c8.86,43.76-19.53,86.58-63.29,95.44
				C1698.62,223.89,1693.23,224.42,1687.92,224.42z M1687.96,65.28c-5.13,0-10.32,0.51-15.54,1.56
				c-20.46,4.14-38.08,16.01-49.61,33.4c-11.54,17.4-15.61,38.24-11.46,58.7c8.55,42.23,49.86,69.63,92.1,61.08
				c42.23-8.55,69.63-49.87,61.08-92.1C1757.03,90.9,1724.36,65.28,1687.96,65.28z"/>
		</g>
		<g id="XMLID_12_">
			<g>
				<path class="st3" d="M1712.23,138.89c0.08-0.11,0.15-0.22,0.23-0.33c-0.12-0.07-0.23-0.14-0.34-0.21c7.58-6,10.86-16.22,9-25.41
					c-2.98-14.72-16.74-23.35-31.03-22.65l-2.5-12.33l-9.07,1.84l2.42,11.97l-16.34,3.36l-2.43-12.02l-9.07,1.84l2.44,12.05
					l-1.67,0.34l0,0l-24.06,4.87l1.84,9.07l13.65-2.77l8.49,41.93l8.49,41.91l-13.76,2.79l1.84,9.07l19.68-3.99l6.16-1.23
					l2.34,11.57l9.07-1.84l-2.34-11.54l16.36-3.26l2.33,11.49l9.07-1.84l-2.4-11.85c13.44-4.91,22.75-18.21,19.77-32.93
					C1728.55,149.61,1721.55,141.47,1712.23,138.89z M1696.28,178.45l-14.2,2.88l-5.48-27.06c5.51-1.12,10.87-2.33,16.41-3.32
					c8.08-1.64,15.78,2.41,17.47,10.74C1712.39,171.11,1704.61,176.77,1696.28,178.45z M1689.72,134.73
					c-5.49,1.24-10.9,2.21-16.41,3.32l-5.48-27.06l14.2-2.88c8.33-1.69,17.69,0.5,19.6,9.92
					C1703.32,126.37,1697.8,133.1,1689.72,134.73z"/>
			</g>
		</g>
		<g id="XMLID_2_">
			<path class="st5" d="M1717.22,138c0.08-0.11,0.16-0.22,0.23-0.33c-0.12-0.07-0.23-0.14-0.34-0.21c7.58-6,10.86-16.22,9-25.41
				c-2.98-14.72-16.74-23.35-31.03-22.65l-2.5-12.33l-9.07,1.84l2.43,11.97l-16.34,3.36l-2.43-12.02l-9.07,1.84l2.44,12.05
				l-1.67,0.34l0,0l-24.06,4.87l1.84,9.07l13.65-2.77l8.49,41.93l8.49,41.91l-13.76,2.79l1.84,9.07l19.68-3.99l6.16-1.23l2.34,11.57
				l9.07-1.84l-2.34-11.54l16.36-3.26l2.33,11.49l9.07-1.84l-2.4-11.85c13.44-4.91,22.75-18.21,19.77-32.93
				C1733.54,148.72,1726.53,140.58,1717.22,138z M1701.27,177.56l-14.2,2.88l-5.48-27.06c5.51-1.12,10.87-2.33,16.41-3.32
				c8.08-1.64,15.78,2.41,17.47,10.74C1717.37,170.22,1709.59,175.88,1701.27,177.56z M1694.7,133.84
				c-5.48,1.24-10.9,2.21-16.41,3.32l-5.48-27.06l14.2-2.88c8.33-1.69,17.69,0.5,19.6,9.92
				C1708.31,125.48,1702.79,132.21,1694.7,133.84z"/>
		</g>
	</g>
	<g>
		<g id="XMLID_46_">
			<circle class="st3" cx="904.14" cy="515.7" r="44.78"/>
		</g>
		<g id="XMLID_44_">
			<g>
				<circle class="st4" cx="908.73" cy="516.22" r="44.78"/>
			</g>
			<g>
				<path class="st5" d="M908.72,562.42c-21.51,0-40.83-15.14-45.26-37.03c-5.06-24.96,11.14-49.39,36.1-54.44
					c24.96-5.06,49.39,11.14,54.44,36.1l0,0c2.45,12.09,0.04,24.42-6.78,34.7c-6.82,10.28-17.23,17.29-29.33,19.74
					C914.82,562.12,911.75,562.42,908.72,562.42z M908.75,472.86c-2.84,0-5.73,0.28-8.62,0.87c-23.43,4.75-38.63,27.67-33.89,51.1
					c2.3,11.35,8.88,21.13,18.53,27.53s21.22,8.66,32.57,6.36c11.35-2.3,21.13-8.88,27.53-18.53c6.4-9.65,8.66-21.22,6.36-32.57
					C947.07,487.07,928.94,472.86,908.75,472.86z"/>
			</g>
		</g>
		<g id="XMLID_42_">
			<path class="st5" d="M908.72,552.67c-16.97,0-32.21-11.95-35.71-29.21c-3.99-19.7,8.79-38.96,28.48-42.95
				c9.54-1.93,19.26-0.03,27.38,5.35c8.11,5.38,13.65,13.6,15.58,23.14c3.99,19.7-8.79,38.97-28.48,42.95
				C913.54,552.43,911.11,552.67,908.72,552.67z M908.81,481.18c-2.33,0-4.69,0.23-7.03,0.71c-18.93,3.83-31.21,22.35-27.38,41.28
				c3.83,18.93,22.36,31.22,41.28,27.38c18.93-3.83,31.21-22.35,27.38-41.28c-1.86-9.17-7.17-17.07-14.97-22.24
				C922.29,483.18,915.62,481.18,908.81,481.18z"/>
		</g>
		<g id="XMLID_30_">
			<g>
				<path class="st3" d="M919.65,514.18c0.04-0.05,0.07-0.1,0.11-0.15c-0.05-0.03-0.1-0.06-0.15-0.1c3.41-2.69,4.88-7.29,4.04-11.41
					c-1.34-6.61-7.52-10.49-13.94-10.17l-1.12-5.54l-4.07,0.82l1.09,5.38l-7.34,1.51l-1.09-5.4l-4.07,0.82l1.1,5.41l-0.75,0.15l0,0
					l-10.81,2.19l0.82,4.07l6.13-1.24l3.81,18.83l3.81,18.83l-6.18,1.25l0.82,4.07l8.84-1.79l2.77-0.55l1.05,5.2l4.07-0.82
					l-1.05-5.18l7.35-1.47l1.05,5.16l4.07-0.82l-1.08-5.32c6.04-2.21,10.22-8.18,8.88-14.79C926.98,519,923.83,515.34,919.65,514.18
					z M912.48,531.95l-6.38,1.29l-2.46-12.15c2.47-0.5,4.88-1.05,7.37-1.49c3.63-0.74,7.09,1.08,7.85,4.82
					C919.71,528.65,916.22,531.19,912.48,531.95z M909.53,512.31c-2.46,0.56-4.89,0.99-7.37,1.49l-2.46-12.15l6.38-1.29
					c3.74-0.76,7.95,0.22,8.8,4.46C915.64,508.56,913.16,511.58,909.53,512.31z"/>
			</g>
		</g>
		<g id="XMLID_15_">
			<path class="st5" d="M921.88,513.78c0.04-0.05,0.07-0.1,0.11-0.15c-0.05-0.03-0.1-0.06-0.15-0.09c3.41-2.69,4.88-7.29,4.04-11.41
				c-1.34-6.61-7.52-10.49-13.94-10.17l-1.12-5.54l-4.07,0.82l1.09,5.38l-7.34,1.51l-1.09-5.4l-4.07,0.82l1.1,5.41l-0.75,0.15l0,0
				l-10.81,2.19l0.82,4.07l6.13-1.24l3.81,18.83l3.81,18.83l-6.18,1.25l0.82,4.07l8.84-1.79l2.77-0.55l1.05,5.2l4.07-0.82
				l-1.05-5.18l7.35-1.47l1.05,5.16l4.07-0.82l-1.08-5.32c6.04-2.21,10.22-8.18,8.88-14.79
				C929.21,518.59,926.07,514.94,921.88,513.78z M914.72,531.55l-6.38,1.29l-2.46-12.15c2.47-0.5,4.88-1.05,7.37-1.49
				c3.63-0.74,7.09,1.08,7.85,4.82C921.95,528.25,918.46,530.79,914.72,531.55z M911.77,511.91c-2.46,0.56-4.89,0.99-7.37,1.49
				l-2.46-12.15l6.38-1.29c3.74-0.76,7.95,0.22,8.8,4.46C917.88,508.16,915.4,511.18,911.77,511.91z"/>
		</g>
	</g>
	<g>
		<g id="XMLID_85_">
			<circle class="st3" cx="1700.13" cy="831.36" r="65.45"/>
		</g>
		<g id="XMLID_83_">
			<g>
				<circle class="st4" cx="1706.85" cy="832.11" r="65.45"/>
			</g>
			<g>
				<path class="st5" d="M1706.83,898.99c-31.14,0-59.1-21.92-65.52-53.6c-3.55-17.51-0.06-35.34,9.81-50.23
					s24.95-25.04,42.45-28.58c36.14-7.32,71.49,16.13,78.81,52.26l0,0c7.32,36.14-16.13,71.49-52.26,78.81
					C1715.66,898.55,1711.21,898.99,1706.83,898.99z M1706.98,768.06c-4.27,0-8.56,0.43-12.84,1.29
					c-16.76,3.4-31.2,13.12-40.65,27.37c-9.45,14.25-12.79,31.34-9.39,48.1c7.01,34.61,40.87,57.06,75.47,50.05
					c34.6-7.01,57.06-40.87,50.05-75.47l0,0c-3.4-16.76-13.12-31.2-27.37-40.65C1731.62,771.71,1719.43,768.06,1706.98,768.06z"/>
			</g>
		</g>
		<g id="XMLID_81_">
			<path class="st5" d="M1706.83,885.42c-24.83,0-47.11-17.48-52.23-42.73c-2.83-13.95-0.05-28.17,7.82-40.04
				s19.89-19.96,33.84-22.78c13.95-2.82,28.17-0.05,40.04,7.82c11.87,7.87,19.96,19.89,22.78,33.84l0,0
				c2.83,13.95,0.05,28.17-7.82,40.04s-19.89,19.96-33.84,22.78C1713.87,885.07,1710.33,885.42,1706.83,885.42z M1706.95,780.92
				c-3.41,0-6.84,0.34-10.26,1.04c-13.4,2.71-24.94,10.48-32.49,21.87c-7.55,11.39-10.22,25.04-7.51,38.44
				c4.91,24.24,26.31,41.02,50.14,41.02c3.36,0,6.76-0.33,10.17-1.02c13.4-2.71,24.94-10.48,32.49-21.87
				c7.55-11.39,10.22-25.04,7.51-38.44l0,0c-2.71-13.4-10.48-24.94-21.87-32.49C1726.65,783.84,1716.91,780.92,1706.95,780.92z"/>
		</g>
		<g id="XMLID_66_">
			<g>
				<path class="st3" d="M1722.8,829.13c0.05-0.07,0.1-0.14,0.15-0.22c-0.08-0.05-0.15-0.09-0.23-0.14
					c4.98-3.94,7.13-10.65,5.91-16.68c-1.96-9.66-10.99-15.33-20.37-14.87l-1.64-8.1l-5.95,1.21l1.59,7.86l-10.73,2.21l-1.6-7.89
					l-5.95,1.21l1.6,7.91l-1.09,0.22l0,0l-15.8,3.2l1.21,5.95l8.96-1.82l5.58,27.53l5.57,27.52l-9.03,1.83l1.21,5.95l12.92-2.62
					l4.05-0.81l1.54,7.59l5.95-1.21l-1.53-7.58l10.74-2.14l1.53,7.54l5.95-1.21l-1.58-7.78c8.82-3.22,14.94-11.96,12.98-21.62
					C1733.51,836.17,1728.91,830.82,1722.8,829.13z M1712.32,855.11L1703,857l-3.6-17.77c3.62-0.73,7.14-1.53,10.77-2.18
					c5.31-1.07,10.36,1.58,11.47,7.05C1722.9,850.29,1717.79,854,1712.32,855.11z M1708.02,826.4c-3.6,0.81-7.16,1.45-10.77,2.18
					l-3.6-17.77l9.33-1.89c5.47-1.11,11.62,0.33,12.87,6.52C1716.95,820.91,1713.32,825.33,1708.02,826.4z"/>
			</g>
		</g>
		<g id="XMLID_49_">
			<path class="st5" d="M1726.07,828.55c0.05-0.07,0.1-0.14,0.15-0.22c-0.08-0.05-0.15-0.09-0.23-0.14
				c4.98-3.94,7.13-10.65,5.91-16.68c-1.96-9.66-10.99-15.33-20.37-14.87l-1.64-8.1l-5.95,1.21l1.59,7.86l-10.73,2.21l-1.6-7.89
				l-5.95,1.21l1.6,7.91l-1.09,0.23l0,0l-15.8,3.2l1.21,5.95l8.96-1.82l5.58,27.53l5.57,27.52l-9.03,1.83l1.21,5.95l12.92-2.62
				l4.05-0.81l1.54,7.59l5.95-1.21l-1.53-7.58l10.74-2.14l1.53,7.54l5.95-1.21l-1.58-7.78c8.82-3.22,14.94-11.96,12.98-21.62
				C1736.78,835.59,1732.19,830.24,1726.07,828.55z M1715.6,854.52l-9.33,1.89l-3.6-17.77c3.62-0.73,7.14-1.53,10.77-2.18
				c5.31-1.07,10.36,1.58,11.47,7.05C1726.17,849.7,1721.06,853.42,1715.6,854.52z M1711.29,825.82c-3.6,0.81-7.16,1.45-10.77,2.18
				l-3.6-17.77l9.33-1.89c5.47-1.11,11.62,0.33,12.87,6.52C1720.22,820.33,1716.59,824.74,1711.29,825.82z"/>
		</g>
	</g>
	<g>
		<g id="XMLID_64_">
			<circle class="st3" cx="1760.13" cy="787.36" r="65.45"/>
		</g>
		<g id="XMLID_62_">
			<g>
				<circle class="st4" cx="1766.85" cy="788.11" r="65.45"/>
			</g>
			<g>
				<path class="st5" d="M1766.83,854.99c-31.14,0-59.1-21.92-65.52-53.6c-3.55-17.51-0.06-35.34,9.81-50.23
					s24.95-25.04,42.45-28.58c36.14-7.32,71.49,16.13,78.81,52.26l0,0c7.32,36.14-16.13,71.49-52.26,78.81
					C1775.66,854.55,1771.21,854.99,1766.83,854.99z M1766.98,724.06c-4.27,0-8.56,0.43-12.84,1.29
					c-16.76,3.4-31.2,13.12-40.65,27.37c-9.45,14.25-12.79,31.34-9.39,48.1c7.01,34.61,40.87,57.06,75.47,50.05
					c34.6-7.01,57.06-40.87,50.05-75.47l0,0c-3.4-16.76-13.12-31.2-27.37-40.65C1791.62,727.71,1779.43,724.06,1766.98,724.06z"/>
			</g>
		</g>
		<g id="XMLID_60_">
			<path class="st5" d="M1766.83,841.42c-24.83,0-47.11-17.48-52.23-42.73c-2.83-13.95-0.05-28.17,7.82-40.04
				s19.89-19.96,33.84-22.78c13.95-2.82,28.17-0.05,40.04,7.82c11.87,7.87,19.96,19.89,22.78,33.84l0,0
				c2.83,13.95,0.05,28.17-7.82,40.04s-19.89,19.96-33.84,22.78C1773.87,841.07,1770.33,841.42,1766.83,841.42z M1766.95,736.92
				c-3.41,0-6.84,0.34-10.26,1.04c-13.4,2.71-24.94,10.48-32.49,21.87c-7.55,11.39-10.22,25.04-7.51,38.44
				c4.91,24.24,26.31,41.02,50.14,41.02c3.36,0,6.76-0.33,10.17-1.02c13.4-2.71,24.94-10.48,32.49-21.87
				c7.55-11.39,10.22-25.04,7.51-38.44l0,0c-2.71-13.4-10.48-24.94-21.87-32.49C1786.65,739.84,1776.91,736.92,1766.95,736.92z"/>
		</g>
		<g id="XMLID_48_">
			<g>
				<path class="st3" d="M1782.8,785.13c0.05-0.07,0.1-0.14,0.15-0.22c-0.08-0.05-0.15-0.09-0.23-0.14
					c4.98-3.94,7.13-10.65,5.91-16.68c-1.96-9.66-10.99-15.33-20.37-14.87l-1.64-8.1l-5.95,1.21l1.59,7.86l-10.73,2.21l-1.6-7.89
					l-5.95,1.21l1.6,7.91l-1.09,0.22l0,0l-15.8,3.2l1.21,5.95l8.96-1.82l5.58,27.53l5.57,27.52l-9.03,1.83l1.21,5.95l12.92-2.62
					l4.05-0.81l1.54,7.59l5.95-1.21l-1.53-7.58l10.74-2.14l1.53,7.54l5.95-1.21l-1.58-7.78c8.82-3.22,14.94-11.96,12.98-21.62
					C1793.51,792.17,1788.91,786.82,1782.8,785.13z M1772.32,811.11L1763,813l-3.6-17.77c3.62-0.73,7.14-1.53,10.77-2.18
					c5.31-1.07,10.36,1.58,11.47,7.05C1782.9,806.29,1777.79,810,1772.32,811.11z M1768.02,782.4c-3.6,0.81-7.16,1.45-10.77,2.18
					l-3.6-17.77l9.33-1.89c5.47-1.11,11.62,0.33,12.87,6.52C1776.95,776.91,1773.32,781.33,1768.02,782.4z"/>
			</g>
		</g>
		<g id="XMLID_31_">
			<path class="st5" d="M1786.07,784.55c0.05-0.07,0.1-0.14,0.15-0.22c-0.08-0.05-0.15-0.09-0.23-0.14
				c4.98-3.94,7.13-10.65,5.91-16.68c-1.96-9.66-10.99-15.33-20.37-14.87l-1.64-8.1l-5.95,1.21l1.59,7.86l-10.73,2.21l-1.6-7.89
				l-5.95,1.21l1.6,7.91l-1.09,0.23l0,0l-15.8,3.2l1.21,5.95l8.96-1.82l5.58,27.53l5.57,27.52l-9.03,1.83l1.21,5.95l12.92-2.62
				l4.05-0.81l1.54,7.59l5.95-1.21l-1.53-7.58l10.74-2.14l1.53,7.54l5.95-1.21l-1.58-7.78c8.82-3.22,14.94-11.96,12.98-21.62
				C1796.78,791.59,1792.19,786.24,1786.07,784.55z M1775.6,810.52l-9.33,1.89l-3.6-17.77c3.62-0.73,7.14-1.53,10.77-2.18
				c5.31-1.07,10.36,1.58,11.47,7.05C1786.17,805.7,1781.06,809.42,1775.6,810.52z M1771.29,781.82c-3.6,0.81-7.16,1.45-10.77,2.18
				l-3.6-17.77l9.33-1.89c5.47-1.11,11.62,0.33,12.87,6.52C1780.22,776.33,1776.59,780.74,1771.29,781.82z"/>
		</g>
	</g>
	<g>
		<g id="XMLID_107_">
			<circle class="st3" cx="285.13" cy="843.36" r="65.45"/>
		</g>
		<g id="XMLID_105_">
			<g>
				<circle class="st4" cx="291.85" cy="844.11" r="65.45"/>
			</g>
			<g>
				<path class="st5" d="M291.83,910.99c-31.14,0-59.1-21.92-65.52-53.6c-7.32-36.14,16.13-71.49,52.26-78.81
					c36.14-7.32,71.49,16.13,78.81,52.26c3.55,17.51,0.06,35.34-9.81,50.23s-24.95,25.04-42.45,28.58
					C300.66,910.55,296.21,910.99,291.83,910.99z M291.87,780.07c-4.2,0-8.46,0.42-12.73,1.28c-34.6,7.01-57.06,40.87-50.05,75.47
					c6.14,30.33,32.92,51.33,62.74,51.33c4.2,0,8.46-0.42,12.73-1.28c16.76-3.4,31.2-13.12,40.65-27.37
					c9.45-14.25,12.79-31.34,9.39-48.1C348.46,801.07,321.69,780.07,291.87,780.07z"/>
			</g>
		</g>
		<g id="XMLID_103_">
			<path class="st5" d="M291.83,897.42c-24.83,0-47.11-17.48-52.23-42.73c-2.83-13.95-0.05-28.17,7.82-40.04
				c7.87-11.87,19.89-19.96,33.84-22.78c13.95-2.83,28.17-0.05,40.04,7.82c11.87,7.87,19.96,19.89,22.78,33.84
				c5.83,28.8-12.85,56.99-41.66,62.82C298.87,897.07,295.33,897.42,291.83,897.42z M291.95,792.92c-3.41,0-6.84,0.34-10.26,1.04
				c-13.4,2.71-24.94,10.48-32.49,21.87c-7.55,11.39-10.22,25.04-7.51,38.44c4.91,24.24,26.31,41.02,50.14,41.02
				c3.36,0,6.76-0.33,10.17-1.02c27.66-5.6,45.6-32.66,40-60.32c-2.71-13.4-10.48-24.94-21.87-32.49
				C311.65,795.84,301.91,792.92,291.95,792.92z"/>
		</g>
		<g id="XMLID_95_">
			<g>
				<path class="st3" d="M307.8,841.13c0.05-0.07,0.1-0.14,0.15-0.22c-0.08-0.05-0.15-0.09-0.23-0.14
					c4.98-3.94,7.13-10.65,5.91-16.68c-1.96-9.66-10.99-15.33-20.37-14.87l-1.64-8.1l-5.95,1.21l1.59,7.86l-10.73,2.21l-1.6-7.89
					l-5.95,1.21l1.6,7.91l-1.09,0.22l0,0l-15.8,3.2l1.21,5.95l8.96-1.82l5.58,27.53l5.57,27.52l-9.03,1.83l1.21,5.95l12.92-2.62
					l4.05-0.81l1.54,7.59l5.95-1.21l-1.53-7.58l10.74-2.14l1.53,7.54l5.95-1.21l-1.58-7.78c8.82-3.22,14.94-11.96,12.98-21.62
					C318.51,848.17,313.91,842.82,307.8,841.13z M297.32,867.11L288,869l-3.6-17.77c3.62-0.73,7.14-1.53,10.77-2.18
					c5.31-1.07,10.36,1.58,11.47,7.05C307.9,862.29,302.79,866,297.32,867.11z M293.02,838.4c-3.6,0.81-7.16,1.45-10.77,2.18
					l-3.6-17.77l9.33-1.89c5.47-1.11,11.62,0.33,12.87,6.52C301.95,832.91,298.32,837.33,293.02,838.4z"/>
			</g>
		</g>
		<g id="XMLID_32_">
			<path class="st5" d="M311.07,840.55c0.05-0.07,0.1-0.14,0.15-0.22c-0.08-0.05-0.15-0.09-0.23-0.14
				c4.98-3.94,7.13-10.65,5.91-16.68c-1.96-9.66-10.99-15.33-20.37-14.87l-1.64-8.1l-5.95,1.21l1.59,7.86l-10.73,2.21l-1.6-7.89
				l-5.95,1.21l1.6,7.91l-1.09,0.23l0,0l-15.8,3.2l1.21,5.95l8.96-1.82l5.58,27.53l5.57,27.52l-9.03,1.83l1.21,5.95l12.92-2.62
				l4.05-0.81l1.54,7.59l5.95-1.21l-1.53-7.58l10.74-2.14l1.53,7.54l5.95-1.21l-1.58-7.78c8.82-3.22,14.94-11.96,12.98-21.62
				C321.78,847.59,317.19,842.24,311.07,840.55z M300.6,866.52l-9.33,1.89l-3.6-17.77c3.62-0.73,7.14-1.53,10.77-2.18
				c5.31-1.07,10.36,1.58,11.47,7.05C311.17,861.7,306.06,865.42,300.6,866.52z M296.29,837.82c-3.6,0.81-7.16,1.45-10.77,2.18
				l-3.6-17.77l9.33-1.89c5.47-1.11,11.62,0.33,12.87,6.52C305.22,832.33,301.59,836.74,296.29,837.82z"/>
		</g>
	</g>
	<g>
		<g>
			<g>
				<path class="st6" d="M1092.23,588.14c-5.73,0-11.46-0.47-17.03-1.39c-24.32-3.99-46.65-16.6-62.87-35.49
					c-16.4-19.1-25.44-43.41-25.44-68.46V279.02c0-7.79,6.34-14.13,14.13-14.13h68.16c1.17,0,2.33,0.03,3.48,0.09
					c35.04,1.84,62.49,30.77,62.49,65.87v214.37C1135.14,568.89,1115.89,588.14,1092.23,588.14z"/>
			</g>
			<g>
				<path class="st0" d="M1069.18,267.02c1.13,0,2.25,0.03,3.36,0.09c33.57,1.76,60.48,29.77,60.48,63.75v214.37
					c0,22.43-18.36,40.79-40.79,40.79c-5.68,0-11.25-0.46-16.68-1.36c-48.91-8.03-86.53-50.75-86.53-101.85V279.02
					c0-6.6,5.4-12,12-12H1069.18 M1069.18,262.76h-68.16c-8.96,0-16.25,7.29-16.25,16.25v203.79c0,25.55,9.22,50.36,25.95,69.85
					c16.55,19.27,39.33,32.13,64.14,36.2c5.67,0.94,11.51,1.42,17.37,1.42c24.84,0,45.04-20.21,45.04-45.04V330.86
					c0-17.49-6.69-34.14-18.82-46.89c-12.1-12.7-28.32-20.2-45.69-21.11C1071.59,262.8,1070.38,262.76,1069.18,262.76
					L1069.18,262.76z"/>
			</g>
		</g>
		<g>
			<path class="st7" d="M1133.02,330.86v214.37c0,22.43-18.36,40.79-40.79,40.79c-5.68,0-11.25-0.46-16.68-1.36
				c8.64-28.21,25.11-97.48,7.47-172.64c-23-98-88-111-88-111l77.52-33.91C1106.11,268.87,1133.02,296.88,1133.02,330.86z"/>
		</g>
		<g>
			<g>
				<path class="st6" d="M1035.94,322.14c-38.62,0-70.04-31.42-70.04-70.05v-32.16c0-38.62,31.42-70.05,70.04-70.05h8.16
					c38.62,0,70.05,31.42,70.05,70.05v32.16c0,38.62-31.42,70.05-70.05,70.05H1035.94z"/>
			</g>
			<g>
				<path class="st0" d="M1044.1,152.02c37.36,0,67.92,30.56,67.92,67.92v32.16c0,37.36-30.56,67.92-67.92,67.92h-8.16
					c-37.36,0-67.92-30.56-67.92-67.92v-32.16c0-37.36,30.56-67.92,67.92-67.92H1044.1 M1044.1,147.76h-8.16
					c-39.8,0-72.17,32.38-72.17,72.17v32.16c0,39.8,32.38,72.17,72.17,72.17h8.16c39.8,0,72.17-32.38,72.17-72.17v-32.16
					C1116.27,180.14,1083.89,147.76,1044.1,147.76L1044.1,147.76z"/>
			</g>
		</g>
		<g>
			<path class="st7" d="M1044.1,152.02h-8.16c-1.51,0-3,0.07-4.49,0.17c30.27,6.82,53.07,34,53.07,66.25v32.16
				c0,35.85-28.15,65.42-63.43,67.75c4.78,1.08,9.75,1.67,14.85,1.67h8.16c37.36,0,67.92-30.56,67.92-67.92v-32.16
				C1112.02,182.58,1081.45,152.02,1044.1,152.02z"/>
		</g>
		<g>
			<g>
				<path class="st7" d="M1278.02,880.14c-125.07-0.55-189.09-15.43-220.96-51.39c-21.88-24.67-30.46-60.4-29.65-123.32
					c0.08-5.89,0.23-12.27,0.48-19.5c0.51-14.87,2.32-29.69,5.38-44.03c12.69-59.65,45.36-103.15,70.53-129.15
					c27.26-28.16,51.92-42.45,52.17-42.59l0.49-0.28h303.06l0.49,0.28c0.31,0.18,31.17,18.08,62.17,53.44
					c28.63,32.65,63.3,87.32,65.9,162.33c2.33,67.09-2.16,114.85-31.7,145.57c-32.7,34-95.98,48.1-218.41,48.63H1278.02z"/>
			</g>
			<g>
				<path class="st0" d="M1458.95,472.02c0,0,122,70,127,214s-21,191-248,192h-59.93c-123.47-0.54-187.48-14.7-219.37-50.67
					c-24.02-27.09-29.83-66.55-29.11-121.88c0.08-6.28,0.25-12.76,0.48-19.45c0.53-15.4,2.41-29.95,5.33-43.66
					c24.37-114.51,121.67-170.34,121.67-170.34H1458.95 M1460.08,467.76h-1.13h-301.93h-1.13l-0.98,0.56
					c-1.01,0.58-25.16,14.58-52.63,42.96c-16.13,16.66-30.02,34.82-41.29,53.99c-14.11,23.99-24.13,49.63-29.79,76.2
					c-3.08,14.46-4.9,29.4-5.42,44.4c-0.25,7.25-0.41,13.64-0.48,19.54c-0.4,30.67,1.31,53.7,5.37,72.48
					c4.68,21.63,12.8,38.72,24.81,52.27c16.84,19,41.49,31.69,77.58,39.95c35.03,8.01,81.09,11.88,144.96,12.16l59.95,0
					c62.32-0.27,107.5-3.94,142.23-11.54c35.8-7.83,60.5-19.83,77.73-37.75c14.54-15.12,23.57-34.22,28.41-60.1
					c4.03-21.52,5.22-48.36,3.88-87.01c-1.16-33.4-8.67-65.63-22.33-95.79c-10.91-24.1-25.75-46.94-44.1-67.86
					c-31.23-35.62-61.44-53.16-62.71-53.88L1460.08,467.76L1460.08,467.76z"/>
			</g>
		</g>
		<g>
			<path class="st6" d="M1102.38,613.52c55.56,0,102.14,60,115.14,121c27.66-30.07,45-81.62,45-131c0-52.64-19.87-99.5-50.77-129.5
				h-55.83c0,0-92.36,48.74-118.41,159.5C1056.35,617.54,1078,613.52,1102.38,613.52z"/>
		</g>
		<g>
			<path class="st6" d="M1092.02,805.98c-12.32,14.44-23.46,20.8-33.37,21.37c-26.74-30.16-30.91-75.66-28.63-141.33
				c0.53-15.4,2.41-29.95,5.33-43.66c15.43-13.03,35.16-20.84,56.67-20.84c49.43,0,77.3,42.59,89.5,92.23
				C1194.52,766.65,1122.87,769.81,1092.02,805.98z"/>
		</g>
		<g>
			<path class="st0" d="M1219.16,806.8c-0.09,0-0.19-0.01-0.28-0.02c-1.16-0.16-1.98-1.22-1.83-2.39
				c1.22-9.16,1.84-18.54,1.84-27.88c0-88.43-54.9-160.37-122.37-160.37c-19.88,0-41.67,7.33-59.77,20.11
				c-0.96,0.68-2.29,0.45-2.96-0.51c-0.68-0.96-0.45-2.29,0.51-2.96c18.8-13.28,41.49-20.89,62.23-20.89
				c69.82,0,126.63,73.85,126.63,164.63c0,9.53-0.63,19.1-1.88,28.44C1221.12,806.03,1220.21,806.8,1219.16,806.8z"/>
		</g>
		<g>
			<path class="st6" d="M1462.36,474.12c1.75,8.24,2.66,16.73,2.66,25.4c0,77.6-72.98,140.5-163,140.5s-163-62.9-163-140.5
				c0-5.4,0.35-10.72,1.04-15.96"/>
			<path class="st0" d="M1302.02,642.14c-91.05,0-165.13-63.98-165.13-142.63c0-5.44,0.36-10.91,1.06-16.24l4.21,0.55
				c-0.68,5.15-1.02,10.42-1.02,15.68c0,76.3,72.17,138.37,160.87,138.37s160.87-62.07,160.87-138.37c0-8.4-0.88-16.79-2.61-24.96
				l4.16-0.88c1.8,8.46,2.71,17.15,2.71,25.84C1467.14,578.16,1393.07,642.14,1302.02,642.14z"/>
		</g>
		<g>
			<path class="st8" d="M1460.34,494.73c0,0-101.47,8.79-159.15,8.79c-64.09,0-161.5-8.79-161.5-8.79c-6.7,0-12.18-3.39-12.18-7.53
				v-35.15c0-4.14,5.48-7.53,12.18-7.53c0,0,65.96,8.79,159.15,8.79c67.13,0,161.5-8.79,161.5-8.79c6.7,0,12.18,3.39,12.18,7.53
				v35.15C1472.52,491.34,1467.04,494.73,1460.34,494.73z"/>
			<path class="st0" d="M1301.19,505.64c-62.59,0-158.08-8.47-161.6-8.79c-7.97-0.03-14.2-4.26-14.2-9.66v-35.15
				c0-5.42,6.28-9.66,14.3-9.66l0.28,0.02c0.66,0.09,66.9,8.77,158.87,8.77c66.27,0,160.36-8.69,161.3-8.78l0.2-0.01
				c8.02,0,14.3,4.24,14.3,9.66v35.15c0,5.39-6.23,9.63-14.21,9.66C1456.9,497.16,1357.56,505.64,1301.19,505.64z M1139.56,446.64
				c-5.85,0.04-9.92,2.87-9.92,5.41v35.15c0,2.56,4.13,5.41,10.05,5.41l0.19,0.01c0.97,0.09,98.05,8.78,161.31,8.78
				c56.92,0,157.95-8.69,158.96-8.78l0.18-0.01c5.92,0,10.05-2.85,10.05-5.41v-35.15c0-2.54-4.08-5.38-9.96-5.41
				c-3.61,0.33-96.11,8.79-161.6,8.79C1208.67,455.43,1143.11,447.1,1139.56,446.64z"/>
		</g>
		<g>
			<g>
				<path class="st6" d="M1331.11,477.09c-6.69,0-13.64-0.15-20.68-0.45l-19.39-0.5c-7.01,0.29-13.95,0.44-20.61,0.44
					c-53.5,0-96.22-9.57-126.99-28.44c-26.1-16.01-43.92-38.86-52.96-67.9c-12.21-39.2-6.08-82.98,1.21-112.8
					c7.46-30.51,17.64-53.07,18.8-55.6l33.64-162.07l121.12,92.62l16.51,0.12l38.54,0.26l16.01,0.12l116.07-88.75l0.84-0.65
					l4.21-3.21l33.64,162.07c1.33,2.89,14.42,31.95,21.84,69.29c7.21,36.3,10.38,88.11-15.43,128.78
					C1469.39,454.66,1413.42,477.09,1331.11,477.09z"/>
			</g>
			<g>
				<path class="st0" d="M1145.52,53.52l119,91l2.01,0.01l15.21,0.11l38.54,0.26l15.23,0.11l1.51,0.01l117.48-89.83c0,0,0,0,0-0.01
					l1.52-1.16l33,159c0,0,123.33,261.94-157.91,261.94c-6.64,0-13.49-0.15-20.59-0.44l-19.5-0.5c-7.1,0.3-13.96,0.44-20.6,0.44
					c-114.46,0-161.91-43.39-177.92-94.84c-23.36-74.98,20.02-167.1,20.02-167.1L1145.52,53.52 M1142.73,46.03l-1.37,6.62
					l-32.9,158.52c-1.62,3.52-11.42,25.45-18.84,55.77c-4.67,19.09-7.39,37.51-8.09,54.76c-0.88,21.7,1.44,41.61,6.92,59.18
					c9.19,29.55,27.32,52.79,53.88,69.08c31.11,19.08,74.21,28.75,128.1,28.75c6.67,0,13.61-0.15,20.63-0.44l19.32,0.5
					c7.05,0.3,14.03,0.45,20.74,0.45c83.09,0,139.66-22.76,168.14-67.65c11.61-18.29,18.46-40.28,20.38-65.35
					c1.52-19.88-0.05-41.74-4.66-64.98c-7.39-37.22-20.01-65.48-21.89-69.55l-32.9-158.52l-1.37-6.61l-5.37,4.1l-1.52,1.16
					l-1.67,1.28v0.01l-114.65,87.67l-0.05,0l-15.23-0.11l-38.54-0.26l-15.21-0.11l-0.59,0L1148.1,50.14L1142.73,46.03L1142.73,46.03
					z"/>
			</g>
		</g>
		<g>
			<g>
				<path class="st6" d="M1125.52,915.14c-38.94,0-70.63-31.68-70.63-70.63c0-12.9,3.54-25.54,10.25-36.54
					c2.94-4.83,6.47-9.32,10.49-13.35c13.38-13.38,31.09-20.74,49.88-20.74h38c8.24,0,16.31,1.42,24.01,4.23
					c27.88,10.15,46.62,36.84,46.62,66.4c0,18.79-7.37,36.51-20.74,49.88c-13.38,13.38-31.09,20.74-49.88,20.74H1125.52z"/>
			</g>
			<g>
				<path class="st0" d="M1163.52,776.02c8.16,0,16.01,1.45,23.28,4.1c26.31,9.58,45.22,34.88,45.22,64.4
					c0,18.84-7.7,35.96-20.12,48.38c-12.42,12.42-29.54,20.12-48.38,20.12h-38c-37.68,0-68.5-30.82-68.5-68.5
					c0-12.94,3.63-25.08,9.94-35.43c2.87-4.72,6.29-9.06,10.18-12.95c12.42-12.42,29.54-20.12,48.38-20.12H1163.52 M1163.52,771.76
					h-38c-19.36,0-37.61,7.59-51.39,21.37c-4.14,4.14-7.78,8.77-10.81,13.75c-6.91,11.33-10.56,24.35-10.56,37.64
					c0,40.12,32.64,72.75,72.75,72.75h38c19.36,0,37.61-7.59,51.39-21.37s21.37-32.03,21.37-51.39c0-30.45-19.3-57.94-48.02-68.4
					C1180.32,773.23,1172,771.76,1163.52,771.76L1163.52,771.76z"/>
			</g>
		</g>
		<g>
			<path class="st7" d="M1232.02,844.52c0,18.84-7.7,35.96-20.12,48.38c-12.42,12.42-29.54,20.12-48.38,20.12h-38
				c-37.68,0-68.5-30.82-68.5-68.5c0-12.94,3.63-25.08,9.94-35.43c1.08,3.52,0.83,7.5,1.01,11.26c0.75,15.29,10.11,29.86,23.7,36.89
				c13.59,7.03,30.89,6.26,43.8-1.95c16.9-10.76,24.28-31.15,32.55-49.4c5.13-11.33,11.6-19.89,18.78-25.77
				C1213.11,789.7,1232.02,815,1232.02,844.52z"/>
		</g>
		<g>
			<g>
				<path class="st7" d="M1454.52,915.14c-38.94,0-70.63-31.68-70.63-70.63s31.68-70.63,70.63-70.63h38
					c38.94,0,70.63,31.68,70.63,70.63c0,38.94-31.68,70.63-70.63,70.63H1454.52z"/>
			</g>
			<g>
				<path class="st0" d="M1492.52,776.02c37.67,0,68.5,30.83,68.5,68.5v0c0,37.67-30.82,68.5-68.5,68.5h-38
					c-37.68,0-68.5-30.82-68.5-68.5v0c0-37.67,30.82-68.5,68.5-68.5H1492.52 M1492.52,771.76h-38c-40.12,0-72.75,32.64-72.75,72.75
					c0,40.12,32.64,72.75,72.75,72.75h38c40.12,0,72.75-32.64,72.75-72.75C1565.27,804.4,1532.63,771.76,1492.52,771.76
					L1492.52,771.76z"/>
			</g>
		</g>
		<g>
			<g>
				<path class="st7" d="M1284.02,658.02l-73.25-2.39c-7.13-0.23-11.16,8.08-6.57,13.54c18.51,22,51.15,63.03,46.82,73.85l45-6
					L1284.02,658.02z"/>
			</g>
			<g>
				<g>
					<path class="st5" d="M1268.04,743.23c2.16-5.39-8.92-27.06-46.47-71.7c-2.62-3.12-3.19-7.35-1.47-11.04
						c1.72-3.7,5.31-5.99,9.38-5.99c0.12,0,0.24,0,0.36,0.01l75.02,2.45l12.59,82.89l-50.75,6.77L1268.04,743.23z"/>
				</g>
				<g>
					<path class="st0" d="M1229.47,656.62c0.1,0,0.19,0,0.29,0l73.25,2.39l12,79l-45,6c4.33-10.82-28.31-51.85-46.82-73.85
						C1218.67,664.78,1222.53,656.62,1229.47,656.62 M1229.47,652.37c-4.9,0-9.23,2.77-11.3,7.22c-2.07,4.45-1.39,9.55,1.77,13.31
						c9.01,10.71,21.83,26.48,31.73,40.8c16.22,23.45,14.48,28.53,14.39,28.74l-2.7,6.76l7.21-0.96l45-6l4.29-0.57l-0.65-4.28
						l-12-79l-0.53-3.5l-3.53-0.12l-73.25-2.39C1229.76,652.37,1229.62,652.37,1229.47,652.37L1229.47,652.37z"/>
				</g>
			</g>
			<g>
				<g>
					<path class="st5" d="M1305.63,746.05l-0.54-1.12c-3.11-6.54-30.22-64.35-23.01-79.81c5.58-11.96,29.12-17.32,49.97-17.32
						c7.75,0,14.83,0.75,20.47,2.16c6.79,1.7,11.76,5.34,14.78,10.84c9.04,16.47-0.22,47.74-13.28,86.9l-0.52,1.56L1305.63,746.05z"
						/>
				</g>
				<g>
					<path class="st0" d="M1332.06,649.92c7.41,0,14.42,0.71,19.95,2.09c28,7,16,47,0,95l-45-3c0,0-30-63-23-78
						C1289.12,655.07,1312.07,649.92,1332.06,649.92 M1332.06,645.67v4.25V645.67c-19.95,0-45.51,4.86-51.9,18.55
						c-2.2,4.72-3.69,14.82,8.75,47.92c6.61,17.59,14.19,33.55,14.27,33.71l1.07,2.25l2.49,0.17l45,3l3.28,0.22l1.04-3.12
						c13.66-40.98,22.6-71.33,13.12-88.59c-3.31-6.04-8.74-10.03-16.13-11.88C1347.24,646.44,1339.98,645.67,1332.06,645.67
						L1332.06,645.67z"/>
				</g>
			</g>
			<g>
				<ellipse class="st5" cx="1317.52" cy="858.52" rx="132.5" ry="127.5"/>
			</g>
			<g>
				<path class="st4" d="M1397.06,881.23c-0.67,0-1.35-0.1-2.02-0.3c-3.75-1.12-5.89-5.06-4.77-8.81c1.44-4.84,2.41-9.86,2.88-14.92
					c1.7-18.03-2.79-35.65-12.97-50.93c-2.17-3.26-1.29-7.66,1.97-9.83c3.26-2.17,7.66-1.29,9.83,1.97
					c12,18.02,17.29,38.81,15.29,60.11c-0.56,5.98-1.71,11.91-3.41,17.63C1402.93,879.24,1400.11,881.23,1397.06,881.23z"/>
			</g>
			<g>
				<path class="st4" d="M1369.41,790.72c-1.85,0-3.7-0.72-5.09-2.16c-4.68-4.84-12.52-11.17-23.25-13.86
					c-3.8-0.95-6.1-4.8-5.16-8.59c0.95-3.8,4.79-6.11,8.59-5.16c11.06,2.77,21.43,8.9,29.99,17.75c2.72,2.81,2.65,7.3-0.16,10.02
					C1372.96,790.06,1371.18,790.72,1369.41,790.72z"/>
			</g>
			<g>
				<path class="st4" d="M1412.64,769.77c11.71,17.74,18.5,38.8,18.5,61.37c0,63.31-53.34,114.63-119.13,114.63
					s-119.13-51.32-119.13-114.63c0-7.17,0.69-14.18,2-20.99c-6.36,14.91-9.87,31.24-9.87,48.35c0,70.42,59.32,127.5,132.5,127.5
					s132.5-57.08,132.5-127.5C1450.02,824.02,1435.77,792.73,1412.64,769.77z"/>
			</g>
			<g>
				<path class="st0" d="M1317.52,988.14c-74.23,0-134.63-58.15-134.63-129.63c0-55.65,36.76-105.01,91.48-122.83
					c1.12-0.36,2.32,0.25,2.68,1.36c0.36,1.12-0.25,2.32-1.36,2.68c-52.96,17.24-88.54,64.98-88.54,118.78
					c0,69.13,58.49,125.37,130.37,125.37s130.37-56.24,130.37-125.37s-58.49-125.37-130.37-125.37c-8.78,0-17.55,0.84-26.08,2.51
					c-1.16,0.22-2.27-0.53-2.49-1.68s0.53-2.27,1.68-2.49c8.79-1.72,17.84-2.59,26.89-2.59c74.23,0,134.63,58.15,134.63,129.63
					S1391.75,988.14,1317.52,988.14z"/>
			</g>
			<g>
				<circle class="st3" cx="1262.52" cy="792.52" r="23"/>
			</g>
		</g>
		<g>
			<path class="st6" d="M1496.99,764.4c-40.43,34.77-104.1,21.58-135.4-21.59v0c-31.3-43.17-21.58-104.1,21.59-135.4l47.85-34.68
				c33.48-21.21,64.48-25.21,104.48,24.79C1568.83,639.15,1551.52,717.52,1496.99,764.4z"/>
		</g>
		<g>
			<g>
				<g>
					<path class="st8" d="M1199.1,159.56l-42.99,14.16c-2.16,0.71-4.32-1.06-4.05-3.32l6.48-53.26c0.32-2.62,3.55-3.67,5.34-1.74
						l36.51,39.1C1201.94,156.15,1201.25,158.85,1199.1,159.56z"/>
				</g>
				<g>
					<path class="st8" d="M1395.96,159.56l42.99,14.16c2.16,0.71,4.32-1.06,4.05-3.32l-6.48-53.26c-0.32-2.62-3.55-3.67-5.34-1.74
						l-36.51,39.1C1393.12,156.15,1393.81,158.85,1395.96,159.56z"/>
				</g>
			</g>
			<g>
				<g>
					<path class="st0" d="M1145.02,299.14c-1.17,0-2.13-0.95-2.13-2.13c0-12.85,5.85-25.58,16.05-34.93
						c9.52-8.73,21.45-13.17,32.76-12.19c23.97,2.08,41.98,9.7,57.72,41.17c0.53,1.05,0.1,2.33-0.95,2.85
						c-1.05,0.53-2.33,0.1-2.85-0.95c-14.91-29.83-31.2-36.83-54.28-38.83c-10.11-0.88-20.87,3.16-29.51,11.08
						c-9.33,8.55-14.68,20.14-14.68,31.8C1147.14,298.19,1146.19,299.14,1145.02,299.14z"/>
				</g>
				<g>
					<path class="st0" d="M1213.52,328.14c-0.09,0-0.18-0.01-0.27-0.02l-72-9c-1.17-0.15-1.99-1.21-1.85-2.37
						c0.14-1.17,1.2-1.99,2.37-1.85l72,9c1.17,0.15,1.99,1.21,1.85,2.37C1215.49,327.36,1214.58,328.14,1213.52,328.14z"/>
				</g>
				<g>
					<path class="st0" d="M1156.52,368.14c-0.85,0-1.66-0.52-1.99-1.37c-0.42-1.1,0.13-2.33,1.22-2.75l60-23
						c1.09-0.42,2.33,0.13,2.75,1.22c0.42,1.1-0.13,2.33-1.22,2.75l-60,23C1157.03,368.1,1156.77,368.14,1156.52,368.14z"/>
				</g>
			</g>
			<g>
				<g>
					<path class="st0" d="M1273.02,344.14c-16.89,0-30.63-10.82-30.63-24.13c0-1.17,0.95-2.13,2.13-2.13s2.13,0.95,2.13,2.13
						c0,10.96,11.83,19.87,26.37,19.87c1.61,0,3.17-0.11,4.65-0.32c1.15-0.17,2.24,0.64,2.41,1.8c0.17,1.16-0.64,2.24-1.8,2.41
						C1276.59,344.02,1274.82,344.14,1273.02,344.14z"/>
				</g>
				<g>
					<path class="st0" d="M1330.02,344.14c-1.41,0-2.81-0.07-4.16-0.22c-1.17-0.13-2.01-1.18-1.88-2.34
						c0.13-1.17,1.18-2.01,2.34-1.88c1.2,0.13,2.44,0.2,3.7,0.2c13.37,0,24.63-7.54,26.19-17.55c0.18-1.16,1.28-1.96,2.43-1.77
						c1.16,0.18,1.95,1.27,1.77,2.43C1358.53,335.05,1345.47,344.14,1330.02,344.14z"/>
				</g>
				<g>
					<path class="st8" d="M1301.55,319.03c-0.02,0.33-0.03,0.66-0.03,0.99c0-0.33-0.01-0.66-0.03-0.98
						C1301.51,319.03,1301.53,319.03,1301.55,319.03z"/>
					<path class="st0" d="M1301.52,322.14c-1.17,0-2.13-0.95-2.13-2.13c0-0.29-0.01-0.57-0.03-0.85c-0.05-0.85,0.41-1.65,1.17-2.03
						c0.3-0.15,0.68-0.23,1.01-0.23c0.59,0,1.15,0.24,1.55,0.67c0.4,0.43,0.61,1,0.58,1.58c-0.02,0.29-0.03,0.58-0.03,0.86
						C1303.64,321.19,1302.69,322.14,1301.52,322.14z"/>
				</g>
				<g>
					<path class="st8" d="M1326.52,347.02c0,15.46-10.97,28-24.5,28s-24.5-12.54-24.5-28c0-1.83,0.15-3.61,0.45-5.34
						c13.38-1.8,23.55-10.81,23.55-21.66c0,11.12,10.69,20.31,24.57,21.79C1326.37,343.49,1326.52,345.24,1326.52,347.02z"/>
					<path class="st0" d="M1302.02,377.14c-14.68,0-26.63-13.51-26.63-30.13c0-1.94,0.16-3.86,0.48-5.7
						c0.16-0.91,0.89-1.62,1.81-1.74c12.58-1.69,21.71-9.92,21.71-19.55c0-1.17,0.95-2.13,2.13-2.13s2.13,0.95,2.13,2.13
						c0,9.84,9.75,18.3,22.67,19.68c0.95,0.1,1.71,0.82,1.87,1.76c0.31,1.83,0.46,3.7,0.46,5.56
						C1328.64,363.63,1316.7,377.14,1302.02,377.14z M1279.84,343.53c-0.13,1.14-0.2,2.3-0.2,3.48c0,14.27,10.04,25.87,22.37,25.87
						s22.37-11.61,22.37-25.87c0-1.1-0.06-2.21-0.19-3.31c-10.44-1.58-18.89-7.34-22.67-14.85
						C1297.92,336.14,1289.93,341.75,1279.84,343.53z"/>
				</g>
				<g>
					<polygon class="st6" points="1301.63,325.02 1283.52,293.52 1319.52,293.52 					"/>
					<path class="st0" d="M1301.63,327.14c-0.76,0-1.46-0.41-1.84-1.07l-18.11-31.5c-0.38-0.66-0.38-1.47,0-2.12
						c0.38-0.66,1.08-1.06,1.84-1.06h36c0.76,0,1.46,0.4,1.84,1.06c0.38,0.65,0.39,1.46,0.01,2.12l-17.89,31.5
						C1303.1,326.73,1302.4,327.14,1301.63,327.14C1301.63,327.14,1301.63,327.14,1301.63,327.14z M1287.19,295.64l14.43,25.09
						l14.25-25.09H1287.19z"/>
				</g>
			</g>
			<g>
				<g>
					<path class="st0" d="M1456.02,299.14c-1.17,0-2.13-0.95-2.13-2.13c0-11.66-5.35-23.25-14.68-31.8
						c-8.64-7.92-19.39-11.96-29.51-11.08c-23.09,2.01-39.37,9-54.28,38.83c-0.52,1.05-1.8,1.48-2.85,0.95
						c-1.05-0.52-1.48-1.8-0.95-2.85c15.73-31.47,33.75-39.08,57.72-41.17c11.3-0.98,23.24,3.46,32.76,12.19
						c10.2,9.35,16.05,22.09,16.05,34.93C1458.14,298.19,1457.19,299.14,1456.02,299.14z"/>
				</g>
				<g>
					<path class="st0" d="M1387.51,328.14c-1.06,0-1.97-0.79-2.11-1.86c-0.15-1.17,0.68-2.23,1.85-2.37l72-9
						c1.17-0.14,2.23,0.68,2.37,1.85c0.15,1.17-0.68,2.23-1.85,2.37l-72,9C1387.69,328.14,1387.6,328.14,1387.51,328.14z"/>
				</g>
				<g>
					<path class="st0" d="M1444.52,368.14c-0.25,0-0.51-0.05-0.76-0.14l-60-23c-1.1-0.42-1.64-1.65-1.22-2.75
						c0.42-1.1,1.66-1.64,2.75-1.22l60,23c1.1,0.42,1.64,1.65,1.22,2.75C1446.18,367.62,1445.37,368.14,1444.52,368.14z"/>
				</g>
			</g>
			<g>
				<g>
					<path class="st5" d="M1319.78,144.9l-38.54-0.26l-15.21-0.11c0.3,32.67,15.63,58.99,34.49,58.99
						c18.76,0,34.04-26.06,34.49-58.51L1319.78,144.9z"/>
					<path class="st0" d="M1300.52,205.64c-20.22,0-36.3-26.84-36.62-61.1l-0.02-2.16l73.28,0.51l-0.03,2.14
						C1336.66,179.02,1320.58,205.64,1300.52,205.64z M1268.19,146.67c0.92,30.37,15.17,54.72,32.32,54.72
						c17.01,0,31.26-24.15,32.31-54.27L1268.19,146.67z"/>
				</g>
				<g>
					<path class="st8" d="M1319.78,144.9c-1.68,21.04-12.14,34.62-19.26,34.62c-7.15,0-17.67-13.69-19.28-34.88L1319.78,144.9z"/>
					<path class="st0" d="M1300.52,181.64c-8.8,0-19.75-15.13-21.4-36.84l-0.17-2.3l43.14,0.29l-0.18,2.28
						C1320.17,166.62,1309.25,181.64,1300.52,181.64z M1283.57,146.78c2.05,18.5,11.34,30.61,16.95,30.61
						c5.56,0,14.81-12.03,16.92-30.38L1283.57,146.78z"/>
				</g>
			</g>
			<g>
				<g>
					<circle class="st4" cx="1300.52" cy="543.52" r="53"/>
					<path class="st0" d="M1300.52,598.64c-30.4,0-55.13-24.73-55.13-55.13s24.73-55.13,55.13-55.13s55.13,24.73,55.13,55.13
						S1330.91,598.64,1300.52,598.64z M1300.52,492.64c-28.05,0-50.87,22.82-50.87,50.87c0,28.05,22.82,50.87,50.87,50.87
						s50.87-22.82,50.87-50.87C1351.39,515.46,1328.57,492.64,1300.52,492.64z"/>
				</g>
				<g>
					<circle class="st5" cx="1300.52" cy="543.52" r="39"/>
				</g>
				<g>
					<path class="st0" d="M1300.52,584.64c-22.68,0-41.13-18.45-41.13-41.13s18.45-41.13,41.13-41.13c1.17,0,2.13,0.95,2.13,2.13
						s-0.95,2.13-2.13,2.13c-20.33,0-36.87,16.54-36.87,36.87c0,20.33,16.54,36.87,36.87,36.87s36.87-16.54,36.87-36.87
						c0-5.52-1.19-10.83-3.54-15.78c-0.5-1.06-0.05-2.33,1.01-2.83c1.06-0.5,2.33-0.05,2.83,1.01c2.62,5.52,3.95,11.45,3.95,17.61
						C1341.64,566.19,1323.19,584.64,1300.52,584.64z"/>
				</g>
				<g>
					<path class="st0" d="M1328.67,518.66c-0.56,0-1.12-0.22-1.54-0.66c-3.68-3.84-8.22-6.89-13.15-8.82
						c-1.09-0.43-1.63-1.66-1.2-2.76c0.43-1.09,1.66-1.63,2.76-1.2c5.49,2.16,10.56,5.56,14.66,9.84c0.81,0.85,0.78,2.19-0.06,3.01
						C1329.73,518.46,1329.2,518.66,1328.67,518.66z"/>
				</g>
				<g>
					<path class="st3" d="M1300.52,576.35c-18.11,0-32.83-14.73-32.83-32.83c0-14.45,9.26-27.05,23.05-31.35
						c1.5-0.47,3.08,0.37,3.55,1.86c0.47,1.49-0.37,3.08-1.86,3.55c-11.41,3.56-19.07,13.98-19.07,25.94
						c0,14.98,12.19,27.17,27.17,27.17c6.19,0,12.02-2.03,16.86-5.87c1.23-0.97,3.01-0.77,3.98,0.46s0.77,3.01-0.46,3.98
						C1315.05,573.9,1308,576.35,1300.52,576.35z"/>
				</g>
				<g>
					<circle class="st3" cx="1314.02" cy="522.02" r="7.5"/>
				</g>
			</g>
		</g>
		<g>
			<path class="st0" d="M1440.45,784.9c-5.29,0-10.61-0.42-15.94-1.27c-26.21-4.18-49.16-18.24-64.63-39.58
				c-15.47-21.34-21.69-47.53-17.51-73.74c4.18-26.21,18.24-49.16,39.58-64.63l47.85-34.68c9.73-7.05,20.52-12.21,32.07-15.33
				c1.13-0.3,2.3,0.37,2.61,1.5c0.31,1.13-0.36,2.3-1.5,2.61c-11.05,2.99-21.38,7.92-30.68,14.67l-47.85,34.68
				c-20.42,14.8-33.87,36.77-37.87,61.86c-4,25.09,1.95,50.15,16.75,70.57c14.8,20.42,36.77,33.87,61.86,37.87
				c25.09,4,50.15-1.95,70.57-16.75l47.85-34.68c25.06-18.17,39.2-46.4,38.8-77.45c-0.01-1.17,0.92-2.14,2.1-2.15
				c0.01,0,0.02,0,0.03,0c1.16,0,2.11,0.93,2.13,2.1c0.42,32.46-14.36,61.96-40.55,80.95l-47.85,34.68
				C1481.24,778.45,1461.16,784.9,1440.45,784.9z"/>
		</g>
		<g>
			<path class="st7" d="M1310.52,474.52l-19.5-0.5c-129.45,5.45-181.58-39.96-198.52-94.4c4.02,5.35,6.79,6.9,6.79,6.9
				c127.73,125.5,327.73,60.5,359.73,16.5c35.41-48.69,42-116,12-214c-17.73-57.91-18.69-104.99-16.52-133.83c0,0,0,0,0-0.01
				l1.52-1.16l33,159C1489.02,213.02,1618.26,487.47,1310.52,474.52z"/>
		</g>
	</g>
</g>
</svg>
