<?xml version="1.0" encoding="utf-8"?>
<!-- Generator: Adobe Illustrator 23.1.0, SVG Export Plug-In . SVG Version: 6.00 Build 0)  -->
<svg version="1.1" id="Слой_1" xmlns="http://www.w3.org/2000/svg" xmlns:xlink="http://www.w3.org/1999/xlink" x="0px" y="0px"
	 viewBox="0 0 1920 1024" style="enable-background:new 0 0 1920 1024;" xml:space="preserve">
<style type="text/css">
	.st0{fill:#20232C;}
	.st1{fill:#343E59;}
	.st2{fill:#31DD8C;}
	.st3{fill:#8AF9C2;}
	.st4{fill:#1133FD;}
	.st5{fill:#FFFFFF;}
	.st6{fill:#1E0E00;}
	.st7{fill:#C8CBD3;}
	.st8{fill:#FFE900;}
	.st9{fill:#FFBA52;}
	.st10{fill:#F37635;}
	.st11{fill:#18C272;}
	.st12{fill:#2CA0FF;}
</style>
<g>
	<g>
		<rect x="1.52" y="1.52" class="st0" width="1920" height="1024"/>
	</g>
	<g>
		<g>
			<g>
				<polygon class="st1" points="1043.52,430.52 1701.52,31.52 1180.52,31.52 				"/>
			</g>
		</g>
		<g>
			<g>
				<polygon class="st1" points="178.52,1.52 590.52,432.52 676.52,428.52 529.52,1.52 				"/>
			</g>
		</g>
		<g>
			<g>
				<polygon class="st1" points="3.52,1025.52 407.52,639.52 1535.52,639.52 1921.52,1025.52 				"/>
			</g>
		</g>
		<g>
			<g>
				<polygon class="st2" points="26.52,142.52 414.52,33.52 743.52,370.52 				"/>
			</g>
		</g>
		<g>
			<g>
				<polygon class="st2" points="1.52,481.52 579.52,481.52 1.52,669.52 				"/>
			</g>
		</g>
		<g>
			<g>
				<polygon class="st2" points="927.52,2.52 952.52,329.52 1020.52,1.52 				"/>
			</g>
		</g>
		<g>
			<g>
				<polygon class="st2" points="1263.52,400.52 1921.52,1.52 1400.52,1.52 				"/>
			</g>
		</g>
		<g>
			<g>
				<g>
					<path class="st1" d="M395.4,737.78c-38.68,0-70.15-31.47-70.15-70.15V154.4c0-38.68,31.47-70.15,70.15-70.15h1205.23
						c38.68,0,70.15,31.47,70.15,70.15v513.23c0,38.68-31.47,70.15-70.15,70.15H395.4z"/>
				</g>
			</g>
			<g>
				<g>
					<path class="st3" d="M1600.63,105.52c26.89,0,48.89,22,48.89,48.89v513.23c0,26.89-22,48.89-48.89,48.89H395.4
						c-26.89,0-48.89-22-48.89-48.89V154.4c0-26.89,22-48.89,48.89-48.89H1600.63 M1600.63,63H395.4C345,63,304,104,304,154.4
						v513.23c0,50.4,41.01,91.41,91.41,91.41h1205.23c50.4,0,91.41-41.01,91.41-91.41V154.4C1692.04,104,1651.03,63,1600.63,63
						L1600.63,63z"/>
				</g>
			</g>
			<g>
				<g>
					<path class="st2" d="M1600.63,105.52c26.89,0,48.89,22,48.89,48.89v513.23c0,26.89-22,48.89-48.89,48.89H395.4
						c-26.89,0-48.89-22-48.89-48.89V154.4c0-26.89,22-48.89,48.89-48.89H1600.63 M1600.63,85.67H395.4
						c-37.9,0-68.73,30.83-68.73,68.73v513.23c0,37.9,30.83,68.73,68.73,68.73h1205.23c37.9,0,68.73-30.83,68.73-68.73V154.4
						C1669.36,116.51,1638.53,85.67,1600.63,85.67L1600.63,85.67z"/>
				</g>
			</g>
		</g>
	</g>
	<g>
		<rect x="476.52" y="532.52" class="st4" width="649" height="122"/>
	</g>
	<g>
		<g>
			<g>
				<g>
					<path class="st5" d="M1634.91,897.7c-4.63,0-8.9-2.63-10.61-6.53c-1.02-2.33-1.18-4.88-1.3-6.93
						c-3.45-54.86-4.97-110.61-4.51-165.69l1.8-40.82c0,0-87.14,3.48-87.17,3.48c-0.78,0-1.5-0.43-1.87-1.12
						c-0.39-0.71-0.33-1.59,0.14-2.25c12.11-16.89,22.16-30.41,34.64-46.61l20.66-33.83c0.21-0.33,0.5-0.61,0.85-0.79l55-28
						c0.3-0.15,0.63-0.23,0.96-0.23c0.21,0,0.43,0.03,0.63,0.1c5.31,1.65,10.67,3.86,15.95,6.57c47.77,24.5,77.89,83,85.99,100.34
						c2.25,4.81,4.4,9.98,3.86,15.52l-0.01,27c1.87,57.64-0.25,116.04-6.28,173.5c-0.1,0.99-0.89,1.78-1.88,1.89
						c-1.72,0.19-3.46,0.29-5.19,0.29c-2.13,0-4.28-0.15-6.4-0.43c-0.98-0.13-1.74-0.92-1.83-1.9
						c-3.38-35.38-7.21-75.48-26.81-108.06c-4.32-7.16-11.32-15.71-20.15-15.71c-0.25,0-0.51,0.01-0.77,0.02
						c-9.48,0.52-15.82,10.7-19.48,19.14c-1.22,2.83-2.39,5.77-3.46,8.74c-11.54,31.56-13.55,65.68-15.5,98.67
						c-0.04,0.62-0.34,1.2-0.84,1.57C1639.54,896.99,1637.32,897.7,1634.91,897.7z"/>
				</g>
			</g>
			<g>
				<g>
					<path class="st6" d="M1643.52,570.52c5.33,1.66,10.54,3.83,15.61,6.43c37.75,19.36,67.96,62.77,85.03,99.35
						c2.14,4.58,4.18,9.49,3.66,14.51l-0.01,27.1c1.87,57.81-0.23,115.76-6.27,173.28c-1.65,0.18-3.3,0.27-4.96,0.27
						c-2.04,0-4.08-0.14-6.11-0.41c-3.59-37.59-7.64-76.6-27.11-108.95c-4.98-8.25-12.47-16.73-21.97-16.73
						c-0.29,0-0.59,0.01-0.89,0.02c-10.37,0.57-17.19,10.89-21.31,20.42c-1.26,2.92-2.43,5.88-3.51,8.86
						c-11.49,31.43-13.64,65.71-15.62,99.27c-1.49,1.12-3.31,1.64-5.14,1.64c-3.57,0-7.21-1.95-8.66-5.26
						c-0.85-1.94-1-4.1-1.13-6.21c-3.47-55.11-4.97-110.33-4.51-165.54l1.9-43.05l-89.39,3.57c12.01-16.75,22.09-30.32,34.67-46.64
						l20.72-33.93L1643.52,570.52 M1643.52,566.26c-0.66,0-1.33,0.16-1.93,0.46l-55,28c-0.7,0.36-1.29,0.9-1.7,1.57l-20.6,33.73
						c-12.46,16.17-22.5,29.68-34.62,46.58c-0.95,1.32-1.06,3.06-0.29,4.49c0.74,1.38,2.18,2.23,3.74,2.23c0.06,0,0.11,0,0.17,0
						l84.77-3.39l-1.7,38.43c0,0.05,0,0.1,0,0.15c-0.46,55.13,1.06,110.93,4.52,165.84c0.14,2.21,0.31,4.97,1.48,7.65
						c2.04,4.67,7.08,7.8,12.55,7.8c2.87,0,5.54-0.86,7.7-2.49c1-0.75,1.61-1.9,1.69-3.15c1.94-32.84,3.94-66.8,15.37-98.06
						c1.07-2.94,2.22-5.84,3.42-8.64c3.41-7.89,9.24-17.4,17.64-17.86c0.22-0.01,0.44-0.02,0.65-0.02c7.84,0,14.3,7.98,18.33,14.68
						c19.36,32.16,23.16,72.01,26.52,107.16c0.19,1.96,1.7,3.54,3.66,3.81c2.21,0.3,4.46,0.45,6.68,0.45c1.81,0,3.64-0.1,5.43-0.3
						c1.99-0.22,3.55-1.79,3.76-3.78c6.04-57.53,8.16-116.01,6.29-173.79l0.01-26.82c0.55-6.04-1.8-11.69-4.06-16.52
						c-6.69-14.35-18.25-35.88-35.3-57c-16.31-20.21-33.69-35.12-51.64-44.33c-5.38-2.76-10.86-5.02-16.29-6.71
						C1644.37,566.33,1643.94,566.26,1643.52,566.26L1643.52,566.26z"/>
				</g>
			</g>
		</g>
		<g>
			<g>
				<path class="st7" d="M1714.51,705.36c-12.51,18.48-39.01,24.05-50.22,43.35c-5.3,9.13-6.34,20.03-7.26,30.54
					c-0.45,5.14-0.9,10.28-1.35,15.42c-11.49,31.43-13.64,65.71-15.62,99.27c-4.37,3.29-11.61,1.39-13.8-3.62
					c-0.85-1.94-1-4.1-1.13-6.21c-3.47-55.11-4.97-110.33-4.51-165.54l1.9-43.05l-89.39,3.57c12.01-16.75,22.09-30.32,34.67-46.64
					l20.72-33.93l55-28c5.33,1.66,10.54,3.83,15.61,6.43c-3.1,7.12-9.27,13.75-13.28,20.7c-7.4,12.84-7.41,29.6-0.03,42.45
					c7.38,12.84,21.87,21.28,36.68,21.35c6.65,0.03,13.41-1.48,19.87,0.07c8.66,2.08,15.43,9.75,17.46,18.42
					C1721.86,688.62,1719.51,697.99,1714.51,705.36z"/>
			</g>
		</g>
	</g>
	<g>
		<path class="st4" d="M1628.91,710.43h174.55c6.99,0,12.37,6.2,11.37,13.12l-31.52,219.34l22.01,1.31l31.88-221.88
			c2.56-17.83-11.27-33.8-29.29-33.8h-324.21c-18.02,0-31.85,15.97-29.29,33.8l31.88,221.88l22.01-1.31l-31.52-219.34
			c-0.99-6.92,4.38-13.12,11.37-13.12h174.55"/>
		<path class="st6" d="M1805.33,946.33c-0.04,0-0.08,0-0.13,0l-22.01-1.31c-0.59-0.04-1.15-0.32-1.52-0.78s-0.54-1.06-0.46-1.65
			l31.52-219.34c0.39-2.69-0.41-5.41-2.19-7.46c-1.78-2.05-4.36-3.23-7.08-3.23h-315.3c-2.72,0-5.29,1.18-7.07,3.23
			c-1.78,2.05-2.58,4.77-2.19,7.46l31.52,219.34c0.08,0.59-0.08,1.19-0.46,1.65s-0.93,0.74-1.52,0.78l-22.01,1.31
			c-1.09,0.09-2.07-0.72-2.23-1.82l-31.88-221.88c-1.31-9.11,1.4-18.33,7.42-25.28c6.03-6.96,14.76-10.95,23.97-10.95h324.21
			c9.21,0,17.94,3.99,23.97,10.95c6.03,6.96,8.73,16.17,7.43,25.28l-31.88,221.88C1807.28,945.55,1806.38,946.33,1805.33,946.33z
			 M1483.71,690.64c-7.97,0-15.54,3.46-20.76,9.48s-7.56,14-6.43,21.89l31.6,219.95l17.75-1.05l-31.19-217.05
			c-0.56-3.91,0.6-7.87,3.19-10.85c2.59-2.99,6.34-4.7,10.29-4.7h315.3c3.95,0,7.7,1.71,10.29,4.7c2.59,2.99,3.75,6.94,3.19,10.85
			l-31.19,217.05l17.75,1.05l31.6-219.95c1.13-7.89-1.21-15.87-6.43-21.89s-12.79-9.48-20.76-9.48H1483.71z"/>
	</g>
	<g>
		<path class="st5" d="M1645.57,616.07c-6.58,7.38-13.17,14.75-19.75,22.13c-5.23,5.86-10.62,11.85-17.56,15.55
			c-4.03,2.15-8.45,3.45-12.84,4.73c-17.65,5.17-35.29,10.34-52.94,15.5c0.47,3.99,0.94,7.98,1.41,11.97
			c28.62,0.05,57.25,0.1,85.87,0.15c3.37,0.01,6.79,0.01,10.05-0.86c3.33-0.88,6.35-2.62,9.34-4.34
			c11.86-6.85,23.71-13.71,35.57-20.56"/>
		<path class="st6" d="M1630.59,688.23c-0.28,0-0.56,0-0.83,0l-85.88-0.15c-1.08,0-1.98-0.81-2.11-1.88l-1.41-11.97
			c-0.12-1.03,0.52-2,1.51-2.29l52.94-15.5c4.22-1.24,8.58-2.51,12.44-4.57c6.69-3.57,11.92-9.42,16.97-15.09l19.75-22.13
			c0.78-0.87,2.13-0.95,3-0.17c0.88,0.78,0.95,2.13,0.17,3l-19.75,22.13c-5.06,5.67-10.79,12.09-18.14,16.01
			c-4.24,2.26-8.82,3.6-13.24,4.9l-51.21,15l0.98,8.31l83.99,0.15c3.18,0,6.49,0.01,9.5-0.79c3.07-0.81,5.99-2.5,8.82-4.13
			l35.57-20.56c1.02-0.59,2.32-0.24,2.9,0.78c0.59,1.02,0.24,2.32-0.78,2.9l-35.57,20.56c-3.06,1.77-6.23,3.6-9.86,4.56
			C1637.09,688.16,1633.79,688.23,1630.59,688.23z"/>
	</g>
	<g>
		<path class="st5" d="M452.66,534.96v13.83c0,0-57.99,21.09-69.85,19.12c0,0,21.71,63.61,14.71,79.61l-13.91-0.12l-50.88-0.42
			c-23.73,8.57-70.51,17.14-88.31,3.96c-17.79-13.18-7.82-83,3.19-97.7c1.02-1.35,2.21-2.79,3.52-4.26
			c10.7-11.96,29.69-26.78,29.69-26.78l62.09-8.05c0,0,3.18,1.55,9.23,3.81C367.89,523.83,403.15,534.48,452.66,534.96z"/>
	</g>
	<g>
		<path class="st7" d="M417.94,550.07c11.96-0.88,24.61-2.02,34.72-8.18v6.9c0,0-57.99,21.09-69.85,19.12
			c0,0,21.71,63.61,14.71,79.61l-13.91-0.12c0.19-1.72,0.45-3.45,0.64-5.17c1.13-9.94,0.19-20.12-2.74-29.69
			c-3.57-11.66-10.02-22.34-12.96-34.17c-1.99-8.04-1.6-18.02,5.21-22.73c3.61-2.5,8.22-2.9,12.59-3.22
			C396.88,551.64,407.41,550.85,417.94,550.07z"/>
	</g>
	<g>
		<g>
			<rect x="199.52" y="660.52" class="st4" width="348" height="30"/>
			<path class="st6" d="M547.52,692.64h-348c-1.17,0-2.13-0.95-2.13-2.13v-30c0-1.17,0.95-2.13,2.13-2.13h348
				c1.17,0,2.13,0.95,2.13,2.13v30C549.64,691.69,548.69,692.64,547.52,692.64z M201.64,688.39h343.75v-25.75H201.64V688.39z"/>
		</g>
		<g>
			<rect x="199.52" y="690.52" class="st4" width="348" height="70"/>
			<path class="st6" d="M547.52,762.64h-348c-1.17,0-2.13-0.95-2.13-2.13v-70c0-1.17,0.95-2.13,2.13-2.13h348
				c1.17,0,2.13,0.95,2.13,2.13v70C549.64,761.69,548.69,762.64,547.52,762.64z M201.64,758.39h343.75v-65.75H201.64V758.39z"/>
		</g>
		<g>
			<rect x="209.52" y="760.52" class="st4" width="328" height="70"/>
			<path class="st6" d="M537.52,832.64h-328c-1.17,0-2.13-0.95-2.13-2.13v-70c0-1.17,0.95-2.13,2.13-2.13h328
				c1.17,0,2.13,0.95,2.13,2.13v70C539.64,831.69,538.69,832.64,537.52,832.64z M211.64,828.39h323.75v-65.75H211.64V828.39z"/>
		</g>
		<g>
			<rect x="216.02" y="830.52" class="st4" width="315" height="35"/>
			<path class="st6" d="M531.02,867.64h-315c-1.17,0-2.13-0.95-2.13-2.13v-35c0-1.17,0.95-2.13,2.13-2.13h315
				c1.17,0,2.13,0.95,2.13,2.13v35C533.14,866.69,532.19,867.64,531.02,867.64z M218.14,863.39h310.75v-30.75H218.14V863.39z"/>
		</g>
		<g>
			<path class="st4" d="M357.91,669.43h174.55c6.99,0,12.37,6.2,11.37,13.12l-31.52,219.34l22.01,1.31l31.88-221.88
				c2.56-17.83-11.27-33.8-29.29-33.8H212.71c-18.02,0-31.85,15.97-29.29,33.8L215.3,903.2l22.01-1.31l-31.52-219.34
				c-0.99-6.92,4.38-13.12,11.37-13.12h174.55"/>
			<path class="st6" d="M534.33,905.33c-0.04,0-0.08,0-0.13,0l-22.01-1.31c-0.59-0.04-1.15-0.32-1.52-0.78
				c-0.38-0.46-0.54-1.06-0.46-1.65l31.52-219.34c0.39-2.69-0.41-5.41-2.19-7.46c-1.78-2.05-4.36-3.23-7.08-3.23h-315.3
				c-2.72,0-5.3,1.18-7.08,3.23c-1.78,2.05-2.58,4.77-2.19,7.46l31.52,219.34c0.08,0.59-0.08,1.19-0.46,1.65
				c-0.38,0.46-0.93,0.74-1.52,0.78l-22.01,1.31c-1.1,0.07-2.07-0.73-2.23-1.82l-31.88-221.88c-1.31-9.11,1.4-18.33,7.43-25.28
				s14.76-10.95,23.97-10.95h324.21c9.2,0,17.94,3.99,23.97,10.95s8.73,16.17,7.43,25.28L536.43,903.5
				C536.28,904.55,535.38,905.33,534.33,905.33z M212.71,649.64c-7.97,0-15.54,3.46-20.76,9.48s-7.56,14-6.43,21.89l31.6,219.95
				l17.75-1.05l-31.19-217.05c-0.56-3.91,0.6-7.87,3.19-10.85c2.59-2.99,6.34-4.7,10.29-4.7h315.3c3.95,0,7.7,1.71,10.29,4.7
				c2.59,2.99,3.75,6.94,3.19,10.85l-31.19,217.05l17.75,1.05l31.6-219.95c1.13-7.89-1.21-15.87-6.43-21.89
				c-5.22-6.02-12.78-9.48-20.76-9.48H212.71z"/>
		</g>
		<g>
			<path class="st6" d="M373.52,830.64c-1.17,0-2.13-0.95-2.13-2.13v-138c0-1.17,0.95-2.13,2.13-2.13s2.13,0.95,2.13,2.13v138
				C375.64,829.69,374.69,830.64,373.52,830.64z"/>
		</g>
		<g>
			<circle class="st6" cx="291.52" cy="726.52" r="7"/>
		</g>
		<g>
			<circle class="st6" cx="450.52" cy="726.52" r="7"/>
		</g>
		<g>
			<circle class="st6" cx="291.52" cy="796.52" r="7"/>
		</g>
		<g>
			<circle class="st6" cx="450.52" cy="796.52" r="7"/>
		</g>
	</g>
	<g>
		<path class="st5" d="M236.97,638.65c0,0,4.55,13.87,14.55,16.87c10,3,37,4,51,0s29.16-7.84,29.16-7.84l0.84-10.16l-52-22
			L236.97,638.65z"/>
	</g>
	<g>
		<g>
			<path class="st5" d="M1434.66,623.15l-60.48-57.18l-20.81-19.68c13.09-10.02,21.6-25.7,21.84-43.4c0.01-0.26,0.01-0.52,0.01-0.78
				c0-30.71-24.89-55.6-55.6-55.6c-30.71,0-55.6,24.89-55.6,55.6c0,12.98,4.45,24.91,11.9,34.37c5.27,6.7,12.04,12.15,19.81,15.85
				l-9.79,6.74l-33.32,22.92c-3.35,2.24-7.51,2.93-11.41,1.89l-77.27-20.61v16.68l73,36.49c3.14,1.58,6.71,2.11,10.18,1.53
				l28.02-4.67V863.5h16.68l38.93-105.63l0.32,1.2c0.01,0.01,0.01,0.01,0.01,0.02l27.47,104.41h27.8l5.56-155.67l5.55,5.56l2.18-4.1
				l37.6-70.49C1440.01,633.61,1438.95,627.19,1434.66,623.15z"/>
		</g>
		<g>
			<g>
				<path class="st7" d="M1319.62,557.71c-8.55,0-16.65-1.94-23.89-5.39c0,0,0.01,0,0.01,0l-9.79,6.74
					c7.76,8.96,19.35,15.73,32.77,18.6c16.95,3.64,35.26,0.64,50.17-8.21c1.82-1.08,3.6-2.25,5.3-3.5l-20.81-19.68
					C1344.01,553.45,1332.31,557.71,1319.62,557.71z"/>
			</g>
			<g>
				<path class="st7" d="M1275.13,799.58V613.31l-28.02,4.67c-3.47,0.57-7.04,0.04-10.18-1.53l-73-36.49v-8.74
					c13.07,7.47,27.06,13.8,40.3,20.77c16.87,8.87,36.31,17.97,54.24,11.48c7.44-2.69,14.97-8.04,22.49-5.59
					c8.78,2.84,11.03,14.01,11.68,23.22C1296.61,677.37,1286.55,739.88,1275.13,799.58z"/>
			</g>
			<g>
				<path class="st7" d="M1399.46,693.71c-0.37,5.19-0.2,10.4,0.17,15.59l-2.18,4.1l-5.55-5.56l-5.56,155.67h-18.31
					c1.07-5.93,3.23-12.62,3.65-17.05c0.97-10.55,1.13-21.15,1.31-31.73c0.55-32.51,1.08-65.17-3.24-97.39
					c-3.47-25.91-10.09-51.64-9.25-77.77c0.2-6.09,0.84-12.33,3.56-17.79c2.71-5.46,7.86-10.04,13.92-10.59
					c10.54-0.95,18.29,9.78,21.68,19.81c3.62,10.72,5,22.2,4.01,33.47C1402.8,674.27,1400.17,683.88,1399.46,693.71z"/>
			</g>
			<g>
				<path class="st7" d="M1331.06,759.07l-0.32-1.2l-38.93,105.63h-7.25c1.36-7.6,4.59-16.15,5.88-22.12
					c2.4-11.1,4.87-22.19,7.44-33.25c2.42-10.5,4.94-21.04,8.78-31.11c3.48-9.11,8.47-18.26,16.87-23.18
					c1.43-0.83,3.15-1.54,4.68-0.95c2.11,0.81,2.65,3.5,2.81,5.75C1331.04,758.79,1331.06,758.93,1331.06,759.07z"/>
			</g>
		</g>
		<g>
			<path class="st7" d="M1319.62,446.52c-13.71,0-26.24,4.97-35.94,13.19c6.14-2.69,12.92-4.19,20.05-4.19
				c27.67,0,50.1,22.43,50.1,50.1c0,27.32-21.88,49.52-49.06,50.07c4.73,1.31,9.71,2.02,14.85,2.02c30.71,0,55.6-24.89,55.6-55.6
				S1350.32,446.52,1319.62,446.52z"/>
		</g>
		<g>
			<path d="M1319.62,559.84c-31.83,0-57.72-25.9-57.72-57.73s25.9-57.72,57.72-57.72c31.83,0,57.73,25.9,57.73,57.72
				S1351.45,559.84,1319.62,559.84z M1319.62,448.64c-29.49,0-53.47,23.99-53.47,53.47s23.99,53.47,53.47,53.47
				s53.47-23.99,53.47-53.47S1349.1,448.64,1319.62,448.64z"/>
		</g>
		<g>
			<path d="M1386.33,865.63h-27.8c-0.97,0-1.81-0.65-2.06-1.58l-26.08-99.11l-36.59,99.3c-0.31,0.83-1.1,1.39-2,1.39h-16.68
				c-1.17,0-2.13-0.95-2.13-2.13V615.82l-25.54,4.26c-3.94,0.66-7.91,0.06-11.49-1.73l-73-36.5c-0.72-0.36-1.17-1.1-1.17-1.9v-16.68
				c0-0.66,0.31-1.28,0.83-1.69c0.52-0.4,1.2-0.54,1.84-0.37l77.27,20.6c3.3,0.88,6.83,0.3,9.68-1.6l43.97-29.32
				c0.98-0.65,2.3-0.39,2.95,0.59c0.65,0.98,0.39,2.3-0.59,2.95l-43.97,29.32c-3.86,2.58-8.65,3.37-13.13,2.17l-74.6-19.89v12.6
				l71.82,35.91c2.76,1.38,5.84,1.84,8.88,1.34l28.02-4.67c0.62-0.1,1.25,0.07,1.72,0.47s0.75,1,0.75,1.62v248.07h13.07
				l38.41-104.25c0.32-0.87,1.17-1.42,2.1-1.39c0.93,0.04,1.72,0.69,1.95,1.58l27.38,104.05h24.11l5.49-153.63
				c0.04-1.15,0.98-2.05,2.12-2.05c0.03,0,0.05,0,0.08,0c1.17,0.04,2.09,1.03,2.05,2.2l-5.56,155.68
				C1388.42,864.73,1387.48,865.63,1386.33,865.63z"/>
		</g>
		<g>
			<path d="M1397.45,715.52c-0.56,0-1.1-0.22-1.5-0.62l-11.12-11.12c-0.45-0.45-0.67-1.07-0.61-1.7l5.47-60.17l-15.98-15.98
				c-0.83-0.83-0.83-2.18,0-3.01c0.83-0.83,2.18-0.83,3.01,0l16.68,16.68c0.45,0.45,0.67,1.07,0.61,1.7l-5.47,60.17l8.39,8.39
				l38.43-72.06c2.32-4.34,1.43-9.73-2.15-13.11l-81.54-76.74c-0.86-0.8-0.9-2.15-0.09-3c0.8-0.86,2.15-0.9,3-0.09l81.54,76.74
				c4.98,4.69,6.21,12.17,2.99,18.2l-39.78,74.59c-0.32,0.59-0.9,1-1.56,1.1C1397.66,715.51,1397.56,715.52,1397.45,715.52z"/>
		</g>
	</g>
	<g>
		<g>
			<path class="st7" d="M352.14,517.96c-6.27,11.09-23.66,22.3-30.8,26.13c-17.52,9.38-38.15,13.27-57.8,9.76
				c-4.28-0.76-8.65-1.9-12.08-4.59c-0.11-0.09-0.22-0.18-0.33-0.28c10.7-11.96,29.69-26.78,29.69-26.78l62.09-8.05
				C342.91,514.15,346.09,515.7,352.14,517.96z"/>
		</g>
		<g>
			<path class="st7" d="M455.83,539.73c-0.35,0.27-0.7,0.53-1.06,0.78c-0.12-0.05-0.24-0.11-0.36-0.16L455.83,539.73z"/>
		</g>
		<g>
			<path class="st7" d="M274.38,610.94c-0.95-0.33-1.97-0.7-2.54-1.53c-0.79-1.14-0.42-2.79,0.48-3.84c0.9-1.05,2.22-1.65,3.49-2.2
				c7.74-3.35,16.24-6.21,24.49-4.43c10.35,2.24,17.95,11.47,21.66,21.39c1.44,3.85,2.72,8.44,1.47,12.45
				c-7.88-2.12-15.97-8.14-23.56-11.61C291.55,617.36,283.04,613.94,274.38,610.94z"/>
		</g>
		<g>
			<path class="st6" d="M273.89,659.78c-12.62,0-23.81-2.01-30.73-7.14c-4.8-3.56-8.02-10.71-9.57-21.27
				c-3.9-26.63,3.76-67.98,12.31-79.41c9.32-12.44,32.61-30.67,33.6-31.44c0.3-0.23,0.66-0.38,1.03-0.43l62.09-8.05
				c0.41-0.05,0.83,0.02,1.21,0.2c0.41,0.2,41.65,19.94,108.84,20.59c1.17,0.01,2.11,0.96,2.11,2.13v13.84c0,0.89-0.56,1.69-1.4,2
				c-5.54,2.02-51.26,18.48-67.6,19.32c4.22,12.86,20.13,63.52,13.68,78.26c-0.47,1.08-1.73,1.57-2.8,1.09
				c-1.08-0.47-1.57-1.72-1.1-2.8c5.47-12.5-8.81-60.6-14.77-78.08c-0.24-0.71-0.09-1.49,0.39-2.06c0.48-0.57,1.23-0.85,1.97-0.72
				c9.03,1.5,50.39-12.39,67.38-18.5v-10.25c-62.62-0.97-102.68-18.3-107.97-20.72l-60.9,7.9c-3.33,2.63-24.08,19.22-32.36,30.28
				c-7.93,10.59-15.21,50.98-11.51,76.24c1.35,9.26,4.08,15.65,7.89,18.47c15.66,11.6,58.8,5.35,84.91-3.75v-6.34l-59.37-26.46
				c-1.07-0.48-1.55-1.73-1.08-2.81s1.73-1.56,2.81-1.08l60.63,27.02c0.77,0.34,1.26,1.1,1.26,1.94v9.23c0,0.9-0.56,1.7-1.4,2
				C317.6,654.7,293.94,659.78,273.89,659.78z"/>
		</g>
	</g>
	<g>
		<g>
			<g>
				<g>
					<circle class="st5" cx="306.86" cy="479.52" r="52.13"/>
				</g>
			</g>
			<g>
				<g>
					<path class="st6" d="M306.86,429.52c27.61,0,50,22.39,50,50s-22.39,50-50,50s-50-22.39-50-50S279.24,429.52,306.86,429.52
						 M306.86,425.26c-29.91,0-54.25,24.34-54.25,54.25c0,29.91,24.34,54.25,54.25,54.25s54.25-24.34,54.25-54.25
						C361.11,449.6,336.77,425.26,306.86,425.26L306.86,425.26z"/>
				</g>
			</g>
		</g>
		<g>
			<g>
				<path class="st7" d="M322.02,523.02c-24.02,0-43.5-19.48-43.5-43.5c0-24.02,19.48-43.5,43.5-43.5c4.33,0,8.51,0.64,12.45,1.82
					c-7.91-5.25-17.4-8.32-27.61-8.32c-27.61,0-50,22.39-50,50c0,27.61,22.39,50,50,50c10.21,0,19.7-3.07,27.61-8.32
					C330.52,522.37,326.35,523.02,322.02,523.02z"/>
			</g>
		</g>
	</g>
	<g>
		<g>
			<g>
				<g>
					<path class="st5" d="M1598.47,604.65c-9.62,0-19.05-2.68-27.28-7.74c-24.48-15.07-32.13-47.24-17.07-71.71
						c9.56-15.53,26.17-24.81,44.44-24.81c9.62,0,19.05,2.68,27.28,7.74c11.86,7.3,20.16,18.78,23.39,32.32
						c3.22,13.54,0.98,27.53-6.32,39.39C1633.34,595.37,1616.73,604.65,1598.47,604.65
						C1598.47,604.65,1598.47,604.65,1598.47,604.65z"/>
				</g>
			</g>
			<g>
				<g>
					<path class="st6" d="M1598.56,502.51c8.94,0,17.99,2.4,26.16,7.43c23.52,14.48,30.85,45.27,16.37,68.79
						c-9.45,15.34-25.84,23.8-42.63,23.8c-8.94,0-17.99-2.4-26.16-7.43c-23.52-14.48-30.84-45.27-16.37-68.79
						C1565.38,510.96,1581.78,502.51,1598.56,502.51 M1598.56,498.26c-19.01,0-36.3,9.65-46.25,25.82c-7.6,12.34-9.93,26.9-6.58,41
						c3.35,14.1,12,26.04,24.34,33.64c8.56,5.27,18.38,8.06,28.39,8.06c19.01,0,36.3-9.65,46.25-25.82
						c15.68-25.48,7.71-58.96-17.76-74.64C1618.39,501.04,1608.57,498.26,1598.56,498.26L1598.56,498.26z"/>
				</g>
			</g>
		</g>
		<g>
			<g>
				<path class="st7" d="M1627.61,588.23c12.59-20.46,6.22-47.25-14.24-59.85c-20.46-12.59-47.25-6.22-59.85,14.24
					c-2.27,3.69-3.91,7.58-4.98,11.56c-0.33-9.49,2.04-19.18,7.39-27.88c14.48-23.52,45.27-30.85,68.79-16.37
					c23.52,14.48,30.85,45.27,16.37,68.79c-5.35,8.69-12.94,15.17-21.56,19.15C1622.61,595.14,1625.35,591.91,1627.61,588.23z"/>
			</g>
		</g>
	</g>
	<g>
		<g>
			<g>
				<path class="st6" d="M482.52,530.5h-37c-1.17,0-2.13-0.95-2.13-2.13s0.95-2.13,2.13-2.13h37c1.17,0,2.13,0.95,2.13,2.13
					S483.69,530.5,482.52,530.5z"/>
			</g>
		</g>
		<g>
			<g>
				<g>
					<path class="st8" d="M426.44,646.17c-3.55,0-6.8-1.8-8.68-4.82c-1.88-3.02-2.06-6.72-0.5-9.91l32.27-65.65v-35.4h28.63v34.59
						l35.7,66.2c1.69,3.22,1.57,6.97-0.29,10.06c-1.87,3.09-5.14,4.93-8.75,4.93H426.44z"/>
				</g>
			</g>
			<g>
				<g>
					<path d="M476.04,532.52v33l35.96,66.68c2.83,5.39-1.08,11.86-7.17,11.86h-78.39c-5.99,0-9.91-6.29-7.26-11.67l32.49-66.09
						v-33.77H476.04 M480.29,528.26h-4.25h-24.38h-4.25v4.25v32.78l-32.05,65.21c-1.89,3.85-1.67,8.33,0.6,11.97
						s6.19,5.82,10.48,5.82h78.39c4.36,0,8.31-2.23,10.57-5.96c2.26-3.73,2.39-8.26,0.37-12.12l-35.47-65.77v-31.93V528.26
						L480.29,528.26z"/>
				</g>
			</g>
		</g>
		<g>
			<g>
				<path class="st9" d="M511.99,632.19l-25.71-47.68H442.7l-23.53,47.87c-2.64,5.38,1.27,11.67,7.26,11.67h78.39
					C510.91,644.05,514.82,637.58,511.99,632.19z"/>
			</g>
		</g>
		<g>
			<g>
				<path class="st10" d="M445.44,637.05c-5.99,0-9.91-4.81-7.26-8.92l14.21-29.98c1.92-4.05,5.99-6.63,10.47-6.63h27.21l-3.77-7
					H442.7l-23.53,47.87c-2.64,5.38,1.27,11.67,7.26,11.67h78.39c0.24,0,0.47-0.01,0.7-0.03c4.37-0.37,3.94-6.97-0.44-6.97H445.44z"
					/>
			</g>
		</g>
		<g>
			<g>
				<rect x="440.52" y="582.39" width="47" height="4.25"/>
			</g>
		</g>
	</g>
	<g>
		<g>
			<g>
				<path class="st6" d="M1530.92,652.82h-50.38c-1.17,0-2.13-0.95-2.13-2.13s0.95-2.13,2.13-2.13h50.38c1.17,0,2.13,0.95,2.13,2.13
					S1532.09,652.82,1530.92,652.82z"/>
			</g>
		</g>
		<g>
			<g>
				<g>
					<path class="st8" d="M1578.52,663.64c-0.46,0-0.91-0.15-1.28-0.43c-0.54-0.41-0.85-1.05-0.84-1.73
						c0.47-25.64-19.2-45.22-19.4-45.41c-0.41-0.4-0.63-0.94-0.64-1.51s0.22-1.11,0.62-1.51l13.34-13.34
						c0.41-0.41,0.96-0.62,1.5-0.62c0.42,0,0.85,0.13,1.22,0.38c1.32,0.92,32.33,22.99,27.59,56.35c-0.12,0.82-0.7,1.5-1.49,1.74
						l-9.61,2.88l-10.39,3.12C1578.93,663.61,1578.72,663.64,1578.52,663.64z"/>
				</g>
			</g>
			<g>
				<g>
					<path class="st6" d="M1571.82,601.21c0,0,31.31,21.86,26.7,54.31l-9.61,2.88l-10.39,3.12c0.49-26.85-20.04-46.97-20.04-46.97
						L1571.82,601.21 M1571.82,596.95c-1.1,0-2.19,0.42-3.01,1.25l-13.34,13.34c-0.8,0.8-1.25,1.89-1.25,3.03
						c0.01,1.14,0.47,2.22,1.28,3.02c0.19,0.19,19.21,19.23,18.76,43.86c-0.02,1.36,0.6,2.65,1.68,3.47
						c0.75,0.57,1.65,0.86,2.57,0.86c0.41,0,0.82-0.06,1.22-0.18l10.39-3.12l9.61-2.88c1.59-0.48,2.76-1.83,2.99-3.47
						c2.05-14.42-2.26-29.12-12.45-42.5c-7.57-9.94-15.69-15.66-16.03-15.9C1573.51,597.21,1572.66,596.95,1571.82,596.95
						L1571.82,596.95z"/>
				</g>
			</g>
		</g>
		<g>
			<g>
				<path class="st10" d="M1588.91,658.4l-10.39,3.12c0.49-26.85-20.04-46.97-20.04-46.97l5.05-5.05
					C1569.68,614.39,1590.26,632.72,1588.91,658.4z"/>
			</g>
		</g>
		<g>
			<g>
				<g>
					<path class="st8" d="M1535.25,639.9c-0.56,0-1.1-0.22-1.5-0.62l-15.37-15.38c-0.83-0.83-0.83-2.18,0-3.01l47.27-47.28
						c0.4-0.4,0.94-0.62,1.5-0.62c0.56,0,1.1,0.22,1.5,0.62l15.38,15.38c0.4,0.4,0.62,0.94,0.62,1.5s-0.22,1.1-0.62,1.5
						l-47.28,47.28C1536.35,639.68,1535.81,639.9,1535.25,639.9C1535.25,639.9,1535.25,639.9,1535.25,639.9z"/>
				</g>
			</g>
			<g>
				<g>
					<path class="st6" d="M1567.15,575.12l15.38,15.38l-47.28,47.28l-9.37-9.38l-6-6L1567.15,575.12 M1567.15,570.86
						C1567.15,570.86,1567.15,570.86,1567.15,570.86c-1.13,0-2.21,0.45-3.01,1.25l-47.27,47.28c-1.66,1.66-1.66,4.35,0,6.01l6,6
						l9.37,9.38c0.8,0.8,1.88,1.25,3.01,1.25c0,0,0,0,0,0c1.13,0,2.21-0.45,3.01-1.25l47.28-47.28c1.66-1.66,1.66-4.35,0-6.01
						l-15.38-15.38C1569.36,571.31,1568.27,570.86,1567.15,570.86L1567.15,570.86z"/>
				</g>
			</g>
		</g>
		<g>
			<g>
				<g>
					<path class="st8" d="M1582.31,586.55c-0.54,0-1.09-0.21-1.5-0.62l-4.09-4.08l-6-6c-0.83-0.83-0.83-2.18,0-3.01l11.56-11.57
						c0.4-0.4,0.94-0.62,1.5-0.62l0,0c0.56,0,1.1,0.22,1.5,0.62l10.09,10.09c0.83,0.83,0.83,2.18,0,3.01l-11.56,11.56
						C1583.39,586.34,1582.85,586.55,1582.31,586.55z"/>
				</g>
			</g>
			<g>
				<g>
					<path class="st6" d="M1583.78,562.78l10.09,10.09l-11.56,11.56l-4.09-4.08l-6-6L1583.78,562.78 M1583.78,558.52
						C1583.78,558.52,1583.78,558.52,1583.78,558.52c-1.13,0-2.21,0.45-3.01,1.25l-11.56,11.57c-1.66,1.66-1.66,4.35,0,6.01l6,6
						l4.09,4.08c0.83,0.83,1.92,1.24,3,1.24c1.09,0,2.18-0.42,3.01-1.25l11.56-11.56c1.66-1.66,1.66-4.35,0-6.01l-10.09-10.09
						C1585.99,558.97,1584.9,558.52,1583.78,558.52L1583.78,558.52z"/>
				</g>
			</g>
		</g>
		<g>
			<g>
				<rect x="1486.3" y="650.7" class="st8" width="39.54" height="14.52"/>
			</g>
			<g>
				<path class="st6" d="M1525.84,667.34h-39.54c-1.17,0-2.13-0.95-2.13-2.13V650.7c0-1.17,0.95-2.13,2.13-2.13h39.54
					c1.17,0,2.13,0.95,2.13,2.13v14.52C1527.97,666.39,1527.01,667.34,1525.84,667.34z M1488.43,663.09h35.29v-10.27h-35.29V663.09z
					"/>
			</g>
		</g>
		<g>
			<g>
				<path class="st10" d="M1489.23,665.54c0,0,3,21.68,33.64,19.78h20.1l-0.49-10.54c0,0-19.11,2.46-20.76-9.24H1489.23z"/>
			</g>
			<g>
				<path class="st6" d="M1519.18,687.56c-28.7,0-32.02-21.51-32.05-21.73c-0.08-0.61,0.1-1.22,0.5-1.69
					c0.4-0.46,0.99-0.73,1.6-0.73h32.49c1.06,0,1.96,0.78,2.11,1.83c1.34,9.51,18.21,7.45,18.38,7.43c0.59-0.08,1.18,0.1,1.64,0.48
					s0.73,0.94,0.76,1.53l0.49,10.54c0.03,0.58-0.18,1.15-0.59,1.57s-0.96,0.66-1.54,0.66h-20.03
					C1521.64,687.52,1520.39,687.56,1519.18,687.56z M1491.97,667.66c1.8,5.24,8.35,16.94,30.77,15.53c0.04,0,0.09,0,0.13,0h17.87
					l-0.29-6.12c-5.23,0.26-17.71-0.12-20.45-9.41H1491.97z"/>
			</g>
		</g>
		<g>
			<g>
				
					<rect x="1520.77" y="602.82" transform="matrix(0.7071 -0.7071 0.7071 0.7071 24.2708 1277.4871)" class="st10" width="66.86" height="13.26"/>
			</g>
		</g>
		<g>
			<g>
				
					<rect x="1577.87" y="573.71" transform="matrix(0.7071 -0.7071 0.7071 0.7071 56.8223 1290.3878)" class="st10" width="16.35" height="5.78"/>
			</g>
		</g>
	</g>
	<g>
		<g>
			<polygon class="st2" points="1765.02,622.02 1752.02,507.02 1845.02,456.02 1866.02,559.02 			"/>
			<path class="st11" d="M1763.28,625.6l-13.54-119.77l96.78-53.07l21.87,107.27L1763.28,625.6z M1754.29,508.19l12.46,110.24
				l96.89-60.44l-20.13-98.73L1754.29,508.19z"/>
		</g>
		<g>
			<polygon class="st3" points="1765.29,526.45 1785.52,507.52 1787.52,535.52 1782.32,542.9 			"/>
		</g>
		<g>
			<polygon class="st3" points="1791.52,547.52 1811.52,548.52 1827.52,515.52 1815.81,560.71 			"/>
		</g>
		<g>
			<polygon class="st3" points="1812.9,501.1 1833.52,490.52 1843.87,459.29 			"/>
		</g>
		<g>
			<polygon class="st3" points="1766.52,616.52 1815.52,561.52 1843.52,563.52 			"/>
		</g>
		<g>
			<path class="st11" d="M1762.43,625.68l-1.05-99.11l85.31-75.83l-1.05,113.86L1762.43,625.68z M1765.65,528.46l0.95,88.89
				l74.8-54.92l0.95-102.14L1765.65,528.46z"/>
		</g>
		<g>
			<path class="st11" d="M1766.14,622.89l-3.69-1.86l18-78l0.33-0.75l62-88l3.79,1.79l-29,106l-0.43,0.82L1766.14,622.89z
				 M1784.49,544.4l-15.94,69.09l45.04-52.99l25.67-93.83L1784.49,544.4z"/>
		</g>
		<g>
			<polygon class="st11" points="1843.37,565.64 1815.37,563.64 1814.5,563.38 1781.5,545.38 1781.15,545.14 1762.15,529.14 
				1761.64,528.51 1750.65,507.63 1754.41,505.64 1765.2,526.16 1783.72,541.75 1816.13,559.43 1843.35,561.37 1867.12,555.97 
				1868.06,560.12 1843.99,565.59 			"/>
		</g>
		<g>
			
				<rect x="1852.89" y="537.11" transform="matrix(0.5812 -0.8137 0.8137 0.5812 329.2432 1739.8151)" class="st11" width="4.25" height="25.81"/>
		</g>
		<g>
			
				<rect x="1851.39" y="526.31" transform="matrix(0.5735 -0.8192 0.8192 0.5735 349.4246 1748.1576)" class="st11" width="4.25" height="24.41"/>
		</g>
		<g>
			
				<rect x="1850.89" y="518.11" transform="matrix(0.5767 -0.817 0.817 0.5767 352.632 1737.585)" class="st11" width="4.25" height="20.81"/>
		</g>
		<g>
			
				<rect x="1849.39" y="509.91" transform="matrix(0.5812 -0.8137 0.8137 0.5812 353.4102 1723.7759)" class="st11" width="4.25" height="17.2"/>
		</g>
		<g>
			
				<rect x="1848.39" y="501.31" transform="matrix(0.5547 -0.8321 0.8321 0.5547 400.9237 1766.165)" class="st11" width="4.25" height="14.42"/>
		</g>
	</g>
	<g>
		<g>
			<polygon class="st2" points="1048.98,248.29 1016.47,182.55 1060.91,132.14 1095.6,189 			"/>
			<path class="st11" d="M1048.71,250.93l-33.93-68.6l46.34-52.57l36.21,59.34L1048.71,250.93z M1018.17,182.78l31.09,62.87
				l44.63-56.75l-33.18-54.38L1018.17,182.78z"/>
		</g>
		<g>
			<polygon class="st3" points="1028.57,191.28 1036.54,175.64 1043.76,191.89 1042.26,197.41 			"/>
		</g>
		<g>
			<polygon class="st3" points="1048.73,198.18 1060.87,194.47 1063.29,171.36 1066.05,200.82 			"/>
		</g>
		<g>
			<polygon class="st3" points="1051.48,165.92 1061.49,155.17 1060.93,134.33 			"/>
		</g>
		<g>
			<polygon class="st3" points="1048.69,244.69 1066.05,201.36 1083.17,196.52 			"/>
		</g>
		<g>
			<path class="st11" d="M1048.21,251.18l-22.03-58.99l34.6-63.72l23.95,68.26L1048.21,251.18z M1029.29,192.4l19.64,52.61
				l32.66-48.69l-21.37-60.89L1029.29,192.4z"/>
		</g>
		<g>
			<path class="st11" d="M1049.9,248.59l-2.73-0.33l-6.07-50.36l0.04-0.54l18-65.79l2.78,0.26l5.54,69.41l-0.09,0.61L1049.9,248.59z
				 M1043.95,197.84l5.34,44.3l15.32-40.99l-4.87-61.03L1043.95,197.84z"/>
		</g>
		<g>
			<polygon class="st11" points="1065.83,202.76 1042.02,199.07 1027.25,193.62 1026.78,193.34 1015.69,183.22 1017.6,181.12 
				1028.49,191.06 1042.86,196.36 1065.96,199.91 1082.58,195.22 1095.63,186.85 1097.16,189.23 1083.93,197.71 1083.55,197.89 
				1066.43,202.72 			"/>
		</g>
		<g>
			
				<rect x="1085.69" y="177.82" transform="matrix(0.2701 -0.9628 0.9628 0.2701 614.3747 1182.4585)" class="st11" width="2.83" height="16.35"/>
		</g>
		<g>
			
				<rect x="1082.32" y="171.74" transform="matrix(0.2609 -0.9654 0.9654 0.2609 627.7112 1178.8414)" class="st11" width="2.83" height="15.47"/>
		</g>
		<g>
			
				<rect x="1079.87" y="167.03" transform="matrix(0.2647 -0.9643 0.9643 0.2647 627.6371 1170.3793)" class="st11" width="2.83" height="13.19"/>
		</g>
		<g>
			
				<rect x="1076.83" y="162.53" transform="matrix(0.2701 -0.9628 0.9628 0.2701 625.2788 1160.7819)" class="st11" width="2.83" height="10.9"/>
		</g>
		<g>
			
				<rect x="1074.08" y="157.67" transform="matrix(0.239 -0.971 0.971 0.239 660.9521 1167.8053)" class="st11" width="2.84" height="9.14"/>
		</g>
	</g>
	<g>
		<g>
			<path class="st4" d="M1713.67,365.17l-38.28-2.47l-17-34.39l21.28-31.92l38.28,2.47l17,34.39L1713.67,365.17z M1678.12,358.61
				l33.38,2.16l18.56-27.83l-14.82-29.99l-33.38-2.16l-18.56,27.83L1678.12,358.61z"/>
		</g>
		<g>
			<path class="st4" d="M1769.67,337.17l-38.28-2.47l-17-34.39l21.28-31.92l38.28,2.47l17,34.39L1769.67,337.17z M1734.12,330.61
				l33.38,2.16l18.56-27.83l-14.82-29.99l-33.38-2.16l-18.56,27.83L1734.12,330.61z"/>
		</g>
		<g>
			
				<rect x="1642.39" y="312.01" transform="matrix(0.0312 -0.9995 0.9995 0.0312 1265.2944 1961.4849)" class="st4" width="4.25" height="32.02"/>
		</g>
		<g>
			
				<rect x="1715.39" y="361.48" transform="matrix(0.9171 -0.3987 0.3987 0.9171 -6.6964 715.8359)" class="st4" width="4.25" height="25.08"/>
		</g>
		<g>
			
				<rect x="1771.39" y="334.48" transform="matrix(0.9171 -0.3987 0.3987 0.9171 8.7132 735.9254)" class="st4" width="4.25" height="25.08"/>
		</g>
		<g>
			
				<rect x="1768.98" y="260.89" transform="matrix(0.7072 -0.707 0.707 0.7072 335.6391 1336.5229)" class="st4" width="25.08" height="4.25"/>
		</g>
		<g>
			<path class="st4" d="M1827.02,262.64l-37.8-6.56L1776,220.07l24.58-29.45l37.8,6.56l13.22,36.01L1827.02,262.64z M1792.37,252.31
				l32.96,5.72l21.43-25.68l-11.52-31.4l-32.96-5.72l-21.43,25.68L1792.37,252.31z"/>
		</g>
		<g>
			
				<rect x="1834.2" y="188.06" transform="matrix(0.7787 -0.6274 0.6274 0.7787 289.3378 1200.6906)" class="st4" width="25.08" height="4.25"/>
		</g>
	</g>
	<g>
		<g>
			<path class="st5" d="M295.52,176.27l-28.07-26.15l8.61-37.38l36.68-11.23l28.07,26.15l-8.61,37.38L295.52,176.27z M272.15,148.69
				l24.48,22.8l31.99-9.8l7.51-32.6l-24.48-22.8l-31.99,9.79L272.15,148.69z"/>
		</g>
		<g>
			<path class="st5" d="M356.47,190.61l-28.07-26.15l8.61-37.38l36.68-11.23l28.07,26.15l-8.61,37.38L356.47,190.61z M333.1,163.02
				l24.48,22.8l31.99-9.8l7.51-32.6l-24.48-22.8l-31.99,9.8L333.1,163.02z"/>
		</g>
		<g>
			
				<rect x="238.01" y="151.48" transform="matrix(0.9654 -0.2609 0.2609 0.9654 -31.2793 71.5993)" class="st5" width="32.02" height="4.25"/>
		</g>
		<g>
			
				<rect x="301.91" y="89.89" transform="matrix(0.1766 -0.9843 0.9843 0.1766 168.3481 385.2655)" class="st5" width="25.08" height="4.25"/>
		</g>
		<g>
			
				<rect x="362.62" y="103.25" transform="matrix(0.1766 -0.9843 0.9843 0.1766 205.1912 456.0291)" class="st5" width="25.08" height="4.25"/>
		</g>
		<g>
			
				<rect x="400.19" y="172.73" transform="matrix(0.525 -0.8511 0.8511 0.525 33.413 430.4018)" class="st5" width="4.25" height="25.08"/>
		</g>
		<g>
			<path class="st5" d="M437.56,251.32l-30.71-22.99l4.56-38.09l35.27-15.1l30.71,22.99l-4.56,38.09L437.56,251.32z M411.37,226.39
				l26.78,20.05l30.75-13.17l3.97-33.21l-26.78-20.05l-30.75,13.17L411.37,226.39z"/>
		</g>
		<g>
			
				<rect x="480.44" y="228.55" transform="matrix(0.4308 -0.9024 0.9024 0.4308 57.0992 572.7183)" class="st5" width="4.25" height="25.08"/>
		</g>
	</g>
	<g>
		<g>
			<polygon class="st12" points="1429.52,27.52 1419.52,53.52 1517.52,198.52 1583.52,222.52 1587.52,196.52 1557.52,135.52 
				1480.52,39.52 			"/>
			<path class="st4" d="M1585.22,225.4l-69.08-25.12l-0.39-0.57l-98.62-145.92l11.06-28.77l53.52,12.59l0.46,0.57l77.15,96.18
				l0.1,0.21l30.29,61.6L1585.22,225.4z M1518.89,196.75l62.92,22.88l3.5-22.78l-29.6-60.19l-76.4-95.25l-48.48-11.41l-8.94,23.23
				L1518.89,196.75z"/>
		</g>
		<g>
			<polygon class="st5" points="1525.52,155.52 1555.55,159.68 1557.52,135.52 1552.71,130.26 			"/>
		</g>
		<g>
			<polygon class="st5" points="1441.48,86.13 1471.16,100.84 1470.52,127.52 			"/>
		</g>
		<g>
			<polygon class="st4" points="1581.91,223.91 1523.95,156.96 1446.99,78 1450.04,75.03 1527.12,154.12 1585.12,221.12 			"/>
		</g>
		<g>
			
				<rect x="1456.39" y="75.41" transform="matrix(0.5105 -0.8599 0.8599 0.5105 633.0472 1300.1296)" class="st4" width="4.25" height="37.22"/>
		</g>
		<g>
			<path class="st4" d="M1519.61,198.9l-4.18-0.78l8.37-44.98l30.7,3.96l0.86-20.76l-78.92-79.89l-35.54,32.23l-12.32-63.15
				l46.62,24.86l3.28-11.47l4.09,1.17l-3.66,12.81l80.78,81.77l-1.14,27.24l-31.3-4.04L1519.61,198.9z M1434.46,33.49l9.16,46.98
				l29.23-26.5L1434.46,33.49z"/>
		</g>
		<g>
			<rect x="1569.39" y="154.52" transform="matrix(0.8 -0.6 0.6 0.8 206.5937 978.8132)" class="st4" width="4.25" height="50"/>
		</g>
		<g>
			
				<rect x="1513.89" y="145.51" transform="matrix(0.9998 -0.0196 0.0196 0.9998 -3.0613 29.753)" class="st4" width="4.25" height="51.01"/>
		</g>
		<g>
			<polygon class="st4" points="1507.48,183.67 1505.35,183.67 1504.42,136.1 1508.67,136.01 1509.6,183.61 			"/>
		</g>
		<g>
			
				<rect x="1495.88" y="126.85" transform="matrix(0.9998 -0.0196 0.0196 0.9998 -2.6224 29.3682)" class="st4" width="4.25" height="43.43"/>
		</g>
		<g>
			
				<rect x="1486.87" y="117.65" transform="matrix(0.9998 -0.0196 0.0196 0.9998 -2.4054 29.2216)" class="st4" width="4.25" height="39.25"/>
		</g>
		<g>
			<polygon class="st4" points="1478.21,143.55 1477.53,108.51 1479.66,108.46 1481.78,108.47 1482.46,143.47 			"/>
		</g>
		<g>
			
				<rect x="1468.86" y="99.26" transform="matrix(0.9998 -0.0197 0.0197 0.9998 -1.9777 29.0637)" class="st4" width="4.25" height="30.87"/>
		</g>
		<g>
			<polygon class="st5" points="1458.52,76.52 1476.52,60.52 1516.52,101.52 1479.52,75.52 			"/>
		</g>
		<g>
			<polygon class="st5" points="1564.52,177.52 1582.52,200.52 1581.52,212.52 			"/>
		</g>
	</g>
	<g>
		<g>
			<polygon class="st12" points="155.91,271.94 137.31,273.33 77.58,374.12 81.93,420.94 98.81,415.92 127.16,380.31 163.23,306.24 
							"/>
			<path class="st4" d="M80.68,422.79l-4.56-48.99l0.23-0.4l60.11-101.44l20.57-1.53l7.69,35.99l-36.46,74.77l-28.62,35.96
				L80.68,422.79z M79.03,374.45l4.15,44.64l14.8-4.4l27.97-35.14l35.8-73.49l-6.97-32.62l-16.63,1.24L79.03,374.45z"/>
		</g>
		<g>
			<polygon class="st5" points="105.89,366.67 111.97,386.03 127.16,380.31 128.96,375.9 			"/>
		</g>
		<g>
			<polygon class="st5" points="123.85,295.95 123.44,318.12 107.11,325.36 			"/>
		</g>
		<g>
			<polygon class="st4" points="83.23,421.51 80.64,420.37 104.6,366.09 130.36,296.96 133.01,297.95 107.22,367.16 			"/>
		</g>
		<g>
			
				<rect x="111.5" y="307.1" transform="matrix(0.094 -0.9956 0.9956 0.094 -194.8545 402.9066)" class="st4" width="24.92" height="2.83"/>
		</g>
		<g>
			<path class="st4" d="M111.47,388.48l-6.51-20.1l-27.02,7.12l-0.72-2.74l29.61-7.8l6.38,19.71l12.82-5.42l25.78-70.63
				l-29.67-12.29l34.68-25.51l-1.71,35.33l7.89-1.3l0.46,2.8l-8.8,1.45l-26.39,72.29L111.47,388.48z M127.88,295.63l24.42,10.12
				l1.41-29.12L127.88,295.63z"/>
		</g>
		<g>
			
				<rect x="87.79" y="399.96" transform="matrix(0.4668 -0.8844 0.8844 0.4668 -299.2254 306.4482)" class="st4" width="33.47" height="2.83"/>
		</g>
		<g>
			
				<rect x="76.72" y="363.93" transform="matrix(0.8955 -0.445 0.445 0.8955 -152.7842 79.9089)" class="st4" width="34.15" height="2.84"/>
		</g>
		<g>
			<polygon class="st4" points="84.33,365.07 83.06,362.53 111.62,348.35 112.88,350.89 			"/>
		</g>
		<g>
			
				<rect x="87.7" y="346.61" transform="matrix(0.8957 -0.4447 0.4447 0.8957 -144.1127 81.7783)" class="st4" width="29.07" height="2.83"/>
		</g>
		<g>
			
				<rect x="93.35" y="337.93" transform="matrix(0.8955 -0.4451 0.4451 0.8955 -139.9057 82.86)" class="st4" width="26.28" height="2.83"/>
		</g>
		<g>
			<polygon class="st4" points="100.87,337.15 99.61,334.61 120.72,324.14 121.81,326.75 121.8,326.75 			"/>
		</g>
		<g>
			
				<rect x="104.67" y="320.57" transform="matrix(0.8955 -0.4451 0.4451 0.8955 -131.3071 84.8544)" class="st4" width="20.66" height="2.83"/>
		</g>
		<g>
			<polygon class="st5" points="134.55,303.51 149.38,309.83 136.01,345.77 141.16,315.94 			"/>
		</g>
		<g>
			<polygon class="st5" points="103.74,396.57 94.96,414.04 87.41,416.87 			"/>
		</g>
	</g>
</g>
</svg>
